<?xml version="1.0" encoding="UTF-8"?>
<svg width="48" height="48" version="1.1" viewBox="0 0 12.7 12.7" xmlns="http://www.w3.org/2000/svg" xmlns:xlink="http://www.w3.org/1999/xlink"><defs><linearGradient id="c"><stop stop-color="#292929" offset="0"/><stop stop-color="#3d3d3d" offset="1"/></linearGradient><linearGradient id="b"><stop stop-color="#c2cada" offset="0"/><stop stop-color="#9ea09f" offset="1"/></linearGradient><linearGradient id="aa" x1="2.6458" x2="2.6458" y1="49.477" y2="65.088" gradientTransform="matrix(.76921 0 0 .76921 .61062 -.58966)" gradientUnits="userSpaceOnUse"><stop stop-color="#cfccc3" offset="0"/><stop stop-color="#aba8a5" offset="1"/></linearGradient><linearGradient id="r" x1="3.1871" x2="3.175" y1="42.598" y2="49.237" gradientTransform="matrix(.76925 0 0 .76925 .59012 -1.2004)" gradientUnits="userSpaceOnUse"><stop stop-color="#9f9fa2" offset="0"/><stop stop-color="#b5b3b1" offset="1"/></linearGradient><linearGradient id="o" x1="5.2573" x2="8.2756" y1="52.971" y2="55.989" gradientTransform="matrix(.93491 0 0 .93509 .70388 -9.1943)" gradientUnits="userSpaceOnUse" xlink:href="#b"/><linearGradient id="ab" x1="23.019" x2="23.019" y1="51.329" y2="61.383" gradientTransform="matrix(.99718 0 0 1.0658 .093633 -16.713)" gradientUnits="userSpaceOnUse"><stop stop-color="#1c1c21" offset="0"/><stop stop-color="#2f2e38" offset="1"/></linearGradient><linearGradient id="x" x1="42.598" x2="42.598" y1="51.329" y2="61.383" gradientTransform="matrix(.94723 0 0 .98421 2.5344 -12.229)" gradientUnits="userSpaceOnUse" xlink:href="#c"/><linearGradient id="w" x1="42.598" x2="42.598" y1="51.329" y2="61.383" gradientTransform="matrix(.94723 0 0 .98421 1.8817 -12.229)" gradientUnits="userSpaceOnUse" xlink:href="#c"/><linearGradient id="t" x1="24.97" x2="24.97" y1="51.419" y2="58.622" gradientTransform="matrix(.96507 0 0 1.1555 .32211 -19.847)" gradientUnits="userSpaceOnUse"><stop offset="0"/><stop offset=".78068"/><stop stop-color="#929297" offset="1"/></linearGradient><linearGradient id="s" x1="30.785" x2="30.785" y1="52.456" y2="57.343" gradientTransform="matrix(.84848 0 0 1.0839 3.6211 -16.529)" gradientUnits="userSpaceOnUse"><stop stop-color="#292929" offset="0"/><stop stop-color="#2b2b2b" offset=".41"/><stop offset=".63"/><stop stop-color="#303030" offset=".68"/><stop stop-color="#333" offset="1"/></linearGradient><radialGradient id="l" cx="27.208" cy="57.856" r=".52917" gradientTransform="matrix(-9.2292e-6 1.9066 -1.9155 -9.4548e-6 135.75 -4.2332)" gradientUnits="userSpaceOnUse"><stop stop-color="#fff" offset="0"/><stop stop-color="#f00" offset=".49806"/><stop stop-color="#a00" offset="1"/></radialGradient><linearGradient id="z" x1="7.9375" x2="7.9326" y1="2.6458" y2="39.555" gradientTransform="matrix(.40841 0 0 .41741 -2.7638 -4.4216)" gradientUnits="userSpaceOnUse"><stop stop-color="#d5d2d4" offset="0"/><stop stop-color="#abaaab" offset=".07"/><stop stop-color="#a2a2a2" offset=".93"/><stop stop-color="#686868" offset="1"/></linearGradient><linearGradient id="y" x1="11.159" x2="12.747" y1="33.478" y2="35.983" gradientTransform="matrix(.40841 0 0 .41741 -2.7638 -4.4216)" gradientUnits="userSpaceOnUse"><stop stop-color="#5b5958" offset="0"/><stop stop-color="#847e7b" offset=".5"/><stop stop-color="#c0bfbe" offset="1"/></linearGradient><linearGradient id="v" x1="13.229" x2="25.4" y1="6.8792" y2="33.867" gradientTransform="matrix(.40841 0 0 .41741 -2.7638 -4.4216)" gradientUnits="userSpaceOnUse"><stop stop-color="#413f3f" offset="0"/><stop stop-color="#726c69" offset=".5"/><stop stop-color="#a7a5a4" offset="1"/></linearGradient><linearGradient id="n" x1="51.656" x2="54.968" y1="9.7535" y2="13.668" gradientTransform="matrix(1.39 0 0 1.1502 -18.631 -2.6102)" gradientUnits="userSpaceOnUse" xlink:href="#b"/><radialGradient id="m" cx="27.208" cy="57.856" r=".52917" gradientTransform="matrix(-3.0458e-6 .63214 -.63214 -3.1348e-6 55.083 -13.631)" gradientUnits="userSpaceOnUse"><stop stop-color="#ffb" offset="0"/><stop stop-color="#af0" offset=".49806"/><stop stop-color="#0f0" offset="1"/></radialGradient><radialGradient id="k" cx="53.975" cy="20.637" r=".79375" gradientTransform="matrix(1.0536 3.7014e-6 -1.8253e-6 1.0536 -38.272 -18.092)" gradientUnits="userSpaceOnUse"><stop stop-color="#0f0" stop-opacity=".2" offset=".3"/><stop stop-color="#0f0" stop-opacity="0" offset="1"/></radialGradient><radialGradient id="j" cx="52.759" cy="-23.573" r=".52917" gradientTransform="matrix(1.1175 8.7133e-6 -5.2303e-6 .67049 -43.227 5.2392)" gradientUnits="userSpaceOnUse"><stop stop-opacity=".5" offset="0"/><stop stop-opacity="0" offset="1"/></radialGradient><radialGradient id="h" cx="53.975" cy="23.343" r="1.6065" gradientTransform="matrix(1.0705 1.0705 -.57643 .57643 9.6496 -47.953)" gradientUnits="userSpaceOnUse"><stop stop-opacity=".5" offset="0"/><stop stop-opacity="0" offset="1"/></radialGradient><radialGradient id="g" cx="54.548" cy="23.063" r="1.3229" gradientTransform="matrix(-.5 .6 -.9838 -.81984 103.14 8.6686)" gradientUnits="userSpaceOnUse"><stop stop-color="#d6cbae" offset="0"/><stop stop-color="#9d9786" offset="1"/></radialGradient><linearGradient id="q" x1="52.652" x2="55.298" y1="21.96" y2="24.606" gradientUnits="userSpaceOnUse"><stop stop-color="#bab28d" offset="0"/><stop stop-color="#b8b389" stop-opacity="0" offset=".49832"/></linearGradient><linearGradient id="p" x1="53.446" x2="55.033" y1="22.754" y2="24.342" gradientUnits="userSpaceOnUse"><stop stop-color="#9d9786" offset="0"/><stop stop-color="#77705f" offset="1"/></linearGradient><radialGradient id="f" cx="33.351" cy="13.565" r="25.792" gradientTransform="matrix(-.4129 0 1.6e-5 -.088935 25.452 11.827)" gradientUnits="userSpaceOnUse"><stop offset=".24916"/><stop stop-opacity="0" offset="1"/></radialGradient><linearGradient id="u" x1="11.774" x2="55.959" y1="6.2177" y2="35.057" gradientTransform="matrix(.40841 0 0 .41741 -2.7638 -4.4216)" gradientUnits="userSpaceOnUse"><stop stop-color="#74706d" offset="0"/><stop stop-color="#7e7a77" offset="1"/></linearGradient><radialGradient id="i" cx="19.05" cy="10.065" r="17.595" gradientTransform="matrix(.47903 -.18831 .075346 .20022 -4.8676 2.4515)" gradientUnits="userSpaceOnUse"><stop stop-color="#fff" stop-opacity=".2" offset="0"/><stop stop-color="#fff" stop-opacity="0" offset="1"/></radialGradient></defs><g transform="matrix(.22034 0 0 .22034 .47983 .73982)" style="mix-blend-mode:normal"><path d="m3.0418 36.666 4.7929-4.7926c0.40706-0.40706 0.59197-0.40794 1.2026-0.40794l35.21-5.43e-4c0.61059 0 0.7955 0.0014 1.2026 0.40848l4.7929 4.7926z" fill="url(#r)" style="mix-blend-mode:normal"/><path d="m4.0501 36.249h45.182c0.78925 0 1.4246 0.63539 1.4246 1.4246v0.99551h-48.031l1e-7 -0.99551c1e-7 -0.78925 0.63539-1.4246 1.4246-1.4246z" fill="#edf1ea" stroke-linecap="round" stroke-linejoin="round" stroke-width=".20352" style="mix-blend-mode:normal"/><path d="m3.8262 37.469h45.629c0.61056 0 1.1997 0.69197 1.2008 1.2008l0.02038 9.5858c0.0014 0.6765-0.54465 1.2211-1.2212 1.2211h-45.629c-0.6765 0-1.2008-0.52427-1.2008-1.2008v-9.6062c0-0.5088 0.59021-1.2008 1.2008-1.2008z" fill="url(#aa)"/><g transform="matrix(.85107 0 0 .85097 .24487 5.544)" stroke-width=".95394" style="mix-blend-mode:normal"><rect x="5.7954" y="40.514" width="2.4691" height="2.4694" rx="6.8657e-18" ry="6.867e-18" fill="url(#o)" stroke="#000" stroke-linecap="round" stroke-linejoin="round" stroke-opacity=".5" stroke-width=".35275" style="mix-blend-mode:normal;paint-order:markers stroke fill"/></g><g transform="matrix(.76925 0 0 .76925 .61052 9.7543)" style="mix-blend-mode:normal"><path id="a" d="m6.1315 44.223v3.9024" fill="none" stroke="#000" stroke-linecap="round" stroke-linejoin="round" stroke-opacity=".53333" stroke-width=".78048" style="paint-order:markers stroke fill"/><use transform="translate(1.561)" xlink:href="#a"/><use transform="translate(3.1219)" xlink:href="#a"/><use transform="translate(7.8048)" xlink:href="#a"/><use transform="translate(4.6829)" xlink:href="#a"/><use transform="translate(6.2439)" xlink:href="#a"/><use transform="translate(9.3658)" xlink:href="#a"/><use id="d" transform="translate(10.927)" xlink:href="#a"/><use transform="translate(1.561)" xlink:href="#d"/></g><g transform="matrix(.79132 0 0 .77581 .090274 9.3789)"><rect x="21.413" y="37.755" width="40.97" height="12.382" rx="1.5174" fill="url(#ab)" stroke-linecap="round" stroke-linejoin="round" stroke-opacity=".5" stroke-width=".27276" style="mix-blend-mode:normal;paint-order:markers stroke fill"/><g transform="matrix(.99804 0 0 1.0227 .075076 -1.1666)" style="mix-blend-mode:normal"><rect x="22.9" y="38.057" width="18.245" height="12.107" fill="url(#w)" fill-opacity=".50216" style="mix-blend-mode:normal;paint-order:markers stroke fill"/><path d="m24.42 42.597h4.5612v-3.0268h6.0816v3.0268h4.5612v1.5134h-4.5612v3.7834h-6.0816v-3.7834h-4.5612z" fill="url(#t)" stroke-linecap="round" stroke-opacity=".75" stroke-width=".55881" style="mix-blend-mode:normal;paint-order:stroke markers fill"/><path d="m24.42 44.11-0.7602 0.75669h5.3214v-0.75669zm10.643 0v0.75669h5.3214l-0.7602-0.75669z" fill="#fff" fill-opacity=".5" stroke-linecap="round" stroke-opacity=".75" stroke-width=".57967" style="mix-blend-mode:normal;paint-order:stroke markers fill"/><rect x="29.742" y="40.327" width="4.5612" height="5.2968" ry="0" fill="url(#s)" style="mix-blend-mode:normal;paint-order:stroke markers fill"/><ellipse cx="25.181" cy="47.894" rx=".7602" ry=".75669" fill="url(#l)" style="paint-order:stroke markers fill"/></g><g transform="matrix(.99804 0 0 1.0227 .090606 -1.1666)" style="mix-blend-mode:normal"><rect x="42.65" y="38.057" width="18.245" height="12.107" fill="url(#x)" fill-opacity=".50216" style="mix-blend-mode:normal;paint-order:markers stroke fill"/><rect x="44.17" y="45.624" width="15.204" height="2.2701" style="mix-blend-mode:normal;paint-order:stroke markers fill"/><path d="m51.772 45.624v0.75669l-0.7602-1e-6v-0.75669h-0.7602v0.75669h-6.0816v0.75669h6.0816v0.75669h0.7602v-0.75669l0.7602 1e-6v0.75669h0.7602v-0.75669l0.7602-3e-6v0.75669l0.7602 1e-6v-0.75669l0.7602-1e-6v0.75669h0.7602v-0.75669h0.7602v0.75669h0.7602v-0.75669l0.7602 3e-6v0.75669h0.7602v-0.75669l0.7602-1e-6v-0.75669l-0.7602 1e-6v-0.75669h-0.7602v0.75669h-0.7602l-1e-6 -0.75669h-0.7602v0.75669h-0.7602l-1e-6 -0.75669h-0.7602v0.75669l-0.7602 1e-6v-0.75669l-0.7602-1e-6v0.75669h-0.7602l-1e-6 -0.75669z" fill="#333" style="mix-blend-mode:normal;paint-order:stroke markers fill"/><rect x="46.451" y="44.867" width="3.0408" height="3.0268" fill="#fff" fill-opacity=".75" style="mix-blend-mode:normal;paint-order:stroke markers fill"/><rect x="47.211" y="45.624" width="1.5204" height="1.5134" ry="0" fill="#c00" style="mix-blend-mode:normal;paint-order:stroke markers fill"/></g></g></g><g transform="matrix(.47458 0 0 .47458 1.0975 2.6326)"><path d="m21.896 10.621 0.27167 1.1469c0.11112 0.46912 0.05833 0.87524-0.38033 0.89202-3.2955 0.10224-6.592 0.19115-9.8886 0.19115-3.2967 0-6.5931-0.08892-9.8887-0.19115-0.44966 0.03188-0.75241-0.45163-0.815-0.89202l-0.163-1.1469z" fill="url(#f)" style="paint-order:normal"/><path d="m1.4504-3.1516c3.2046-0.10343 6.4109-0.16566 9.6171-0.16566 3.2062 0 6.4125 0.062233 9.6171 0.16566 0.45852 0.014799 0.82952 0.030944 0.86446 0.8283 0.0983 2.2437 0.11706 4.4909 0.10806 6.7368-9e-3 2.2463-0.04743 4.4936-0.16209 6.7368-0.02415 0.42123-0.15811 0.75853-0.59431 0.77308-3.277 0.08861-6.555 0.16566-9.8332 0.16566-3.2782 0-6.5562-0.07706-9.8332-0.16566-0.44714 0.02763-0.55727-0.388-0.59432-0.77308-0.11466-2.2432-0.15308-4.4906-0.16209-6.7368-0.009006-2.2459 0.009762-4.4932 0.10806-6.7368 0.034933-0.79737 0.40595-0.8135 0.86446-0.8283z" fill="url(#z)" style="paint-order:normal"/><rect x="2.0447" y="-1.8263" width="18.046" height="12.038" rx="2.9813e-18" ry="3.0937e-18" fill="url(#u)" fill-opacity=".75" style="mix-blend-mode:normal"/><path d="m11.068-2.2128c-2.8274 0-5.6546 0.052952-8.4808 0.13956-0.42352 0.012978-0.68828 0.037429-0.71651 0.64927-0.08665 1.8779-0.10355 3.759-0.095605 5.6396 0.00794 1.8808 0.041805 3.7621 0.14288 5.6398 0.030595 0.50651 0.2621 0.59669 0.47824 0.60354 2.8903 0.0742 5.7809 0.13934 8.6716 0.13934h4.04e-4c2.8907-6e-6 5.7811-0.06515 8.6714-0.13934 0.21615-0.0067 0.44786-0.09705 0.47845-0.60354 0.10108-1.8776 0.13494-3.7589 0.14288-5.6398 0.0079-1.8805-0.0089-3.7616-0.09561-5.6396-0.02821-0.61184-0.29297-0.63629-0.71649-0.64927-2.8262-0.086608-5.6534-0.13956-8.4808-0.13956zm0 0.44176c2.7287 0 5.4575 0.049218 8.1851 0.12985 0.40875 0.012084 0.66394 0.034757 0.69119 0.6044 0.08363 1.7484 0.10012 3.5 0.09244 5.2509-0.0077 1.7511-0.04026 3.5027-0.13782 5.2509-0.02952 0.47156-0.25316 0.55554-0.46178 0.56191-2.7894 0.06909-5.5791 0.12963-8.369 0.12964h-4.04e-4c-2.7898-4e-6 -5.5795-0.060553-8.369-0.12964-0.20859-0.006368-0.43225-0.090331-0.46178-0.56191-0.097549-1.7481-0.13015-3.4997-0.13781-5.2509-0.00766-1.7508 0.00881-3.5024 0.092439-5.2509 0.027244-0.56964 0.28244-0.59232 0.69119-0.6044 2.7276-0.080635 5.4564-0.12985 8.1851-0.12985z" fill="url(#y)"/><rect x="2.9092" y="-1.3845" width="14.372" height="10.934" rx="2.9992e-18" ry="3.0653e-18"/><g><path d="m9.3951 0.027844v2.7876h-2.7876v1.6725h2.7876v2.7876h1.6725v-2.7876h2.7876v-1.6725h-2.7876v-2.7876z" fill="#5f5" stroke="#000" stroke-linecap="round" stroke-linejoin="round" stroke-miterlimit="3.3" stroke-opacity=".25" stroke-width=".13938" style="paint-order:stroke fill markers"/><g fill="#afa"><path d="m11.625-0.52967-0.55752 0.55751h-1.6725v2.7876h-2.7876v1.6725l-0.55752 0.55751v-2.7876h2.7876v-2.7876z" style="paint-order:stroke fill markers"/><path d="m11.625 2.2579-0.55752 0.55752h2.7876l0.55752-0.55752z" style="paint-order:stroke fill markers"/><path d="m8.8376 5.0455 0.55751-0.55751v2.7876l-0.55751 0.55752z" style="paint-order:stroke fill markers"/></g><g fill="#0a0"><path d="m11.625-0.52967v2.7876l-0.55752 0.55752v-2.7876z" style="paint-order:stroke fill markers"/><path d="m14.413 2.2579-0.55752 0.55752v1.6725h-2.7876v2.7876h-1.6725l-0.55751 0.55752h2.7876v-2.7876h2.7876z" style="paint-order:stroke fill markers"/><path d="m6.0501 5.0455h2.7876l0.55751-0.55751h-2.7876z" style="paint-order:stroke fill markers"/></g></g><rect x="2.9092" y="-1.3845" width="14.372" height="10.934" rx="2.9992e-18" ry="3.0653e-18" fill="url(#i)"/><path d="m2.8552-1.5502c-0.11973 0-0.21612 0.098513-0.21612 0.22088v10.823c0 0.12237 0.096387 0.22088 0.21612 0.22088 0 0 4.8266 0.11044 7.2398 0.11044 2.4133 0 7.2398-0.11044 7.2398-0.11044 0.11973 0 0.21611-0.09851 0.21611-0.22088v-10.823c0-0.12237-0.09639-0.22088-0.21611-0.22088zm7.2398 0.22088c2.2703 2e-7 4.539 0.13101 6.8076 0.22088 0.13917 0.00551 0.21105 0.060552 0.21611 0.22088 0.19797 3.28 0.18641 6.6642 0 9.9396-0.0063 0.11043-0.10806 0.21305-0.21611 0.22088-2.2322 0.16168-4.5698 0.22088-6.8076 0.22088-2.2019 0-4.5034-0.05932-6.6996-0.22088-0.10806-0.007935-0.20224-0.11101-0.21611-0.22088-0.41263-3.2664-0.21191-6.6588-0.10806-9.9396 0.00509-0.16031 0.076917-0.21537 0.21611-0.22088 2.2686-0.089871 4.5384-0.22088 6.8076-0.22088z" fill="url(#v)" stroke-miterlimit="3.6" stroke-opacity=".5" stroke-width=".10924" style="paint-order:fill markers stroke"/><g transform="matrix(.36345 0 0 .37146 -1.567 -3.7273)" stroke-width="1.2" style="mix-blend-mode:normal"><rect x="53.171" y="8.6082" width="4.6019" height="4.5026" rx="1.0208e-17" ry="8.4466e-18" fill="url(#n)" style="mix-blend-mode:normal;paint-order:markers stroke fill"/><path d="m54.924 9.4468h-0.43006v-0.088111h0.43006zm0 0.17095h-0.43006v-0.088111h0.43006zm-0.15246 0.15685h-0.27759v-0.07578h0.27759zm-0.42142-0.32779h-0.4128v-0.088111h0.4128zm0.42142 0.48464h-0.69614v-0.077544h0.69614zm-0.42142-0.31369h-0.4128v-0.088111h0.4128zm0.42142 0.64149h-0.27759v-0.09869h0.27759zm-0.42142-0.48464h-0.27472v-0.07578h0.27472zm0.57389 0.65735h-0.43006v-0.08812h0.43006zm-0.15246-0.34894h-0.69614v-0.08106h0.69614zm0.15246 0.51988h-0.43006v-0.08636h0.43006zm-0.57389-0.34365h-0.27472v-0.09869h0.27472zm0 0.17271h-0.4128v-0.08812h0.4128zm0 0.17094h-0.4128v-0.08636h0.4128zm1.4461-1.1561h-0.46601l0.01147-0.088111h0.44156zm0.04891 0.33308h-0.25314l-0.01147-0.081056h0.2517zm-0.02446-0.16213h-0.25171l-0.0072-0.054646-0.0072 0.054646h-0.24883l0.01147-0.088111h0.49046zm0.04747 0.32251h-0.25314l-0.01148-0.081056h0.25171zm-0.32506-0.24144-0.01295 0.081057h-0.24738l0.01147-0.081056zm0.52355 0.73313h-0.40417l-0.01008-0.08812h0.41423zm-0.17548-0.33132h-0.65443l0.01147-0.07931h0.63142zm-0.37108-0.24144-0.01295 0.081056h-0.24738l0.01147-0.081056zm0.54656 0.7437h-0.38403l-0.01008-0.08636h0.39409zm-0.15246-0.34365h-0.69902l0.01147-0.08105h0.67601zm-0.443 0.08459-0.01008 0.08812h-0.40561v-0.08812zm-0.02014 0.17271-0.01008 0.08636h-0.38547v-0.08636zm1.3095-1.0697h-0.54944v-0.088111h0.54944zm0 0.17095h-0.54944v-0.088111h0.54944zm0.24595 0.64149h-0.2589v-0.09869h0.2589zm-0.38259-0.48463h-0.27616v-0.07578h0.27616zm0 0.15685h-0.27616v-0.077544h0.27616zm0 0.15156h-0.27616v-0.08106h0.27616zm0 0.17623h-0.27616v-0.09869h0.27616zm0.38259 0.17271h-0.79539v-0.08812h0.79539zm0 0.17094h-0.79539v-0.08636h0.79539z" stroke-linecap="round" stroke-linejoin="round" stroke-opacity=".5" stroke-width=".36848" style="mix-blend-mode:normal;paint-order:markers stroke fill" aria-label="HAL"/><path d="m55.948 11.13c-0.0089 0-0.01613 0.0036-0.02155 0.01068-0.0053 0.0069-0.0078 0.01649-0.0078 0.02805 0 0.01991 0.0092 0.02938 0.02755 0.02938 0.0086 0 0.01554-3e-3 0.02097-0.0093 0.0056-0.0066 0.0084-0.01627 0.0084-0.02872 0-0.0201-0.0092-0.03005-0.02755-0.03005zm-1.1072 6.45e-4 -0.0042 0.02338h0.0042c0.02297 0 0.03413 0.0083 0.03413 0.02538 0 0.0032-0.0018 0.01271-0.0048 0.02871l-0.06347 0.33794h0.0455l0.02634-0.14025c0.0051-0.02668 0.01739-0.05324 0.03653-0.08081 0.01929-0.02773 0.03812-0.04208 0.05629-0.04208 0.01498 0 0.02276 0.0112 0.02276 0.03272 0 0.01192-0.0024 0.02871-0.0071 0.05076l-0.01138 0.05676c-0.0062 0.03254-0.0096 0.05675-0.0096 0.07347s4e-3 0.03028 0.01197 0.04008c0.0082 0.0098 0.01878 0.01469 0.03234 0.01469 0.01851 0 0.03852-0.01076 0.05989-0.03139l-0.0084-0.01603c-0.01148 0.0083-0.02233 0.01269-0.03173 0.01269-0.01148 0-0.01737-0.0086-0.01737-0.02604 0-0.01636 0.0022-0.03556 0.0066-0.05744l0.01257-0.06478c0.0059-0.02846 9e-3 -0.04788 9e-3 -0.05944 0-0.04037-0.01717-0.06078-0.05209-0.06078-0.03332 0-0.06391 0.02438-0.09103 0.07347h-0.0048c0.0071-0.0306 0.01342-0.06095 0.01917-0.09084l0.01916-0.10018zm-0.82939 0.02538-0.0042 0.02271h0.0066c0.01403 0 0.02308 0.0022 0.02755 0.0067 0.0044 0.0044 0.0066 0.01083 0.0066 0.01937 0 0.0038-2.34e-4 0.0083-0.0013 0.01335l-0.0509 0.26848c-0.0022 0.01138-0.0067 0.02013-0.01317 0.02672-0.0064 0.0064-0.01815 0.0093-0.03474 0.0093h-0.0066l-0.0036 0.02338h0.26289l0.02155-0.09551h-0.02575l-0.0078 0.02338c-0.0094 0.02987-0.02809 0.04476-0.05569 0.04476h-0.09402l0.03114-0.16363h0.11797l0.0048-0.02672h-0.11797l0.02814-0.14493h0.08204c0.02329 0 0.03474 0.01169 0.03474 0.03606 0 0.0015-3.87e-4 0.0068-0.0013 0.01536l-0.0013 0.01669h0.02576l0.01557-0.09551zm1.7576 0.02938c-0.01802 0.05104-0.04297 0.07681-0.07485 0.07681l-0.0042 0.02204h0.03713l-0.02995 0.15762c-0.0032 0.0169-0.0048 0.03172-0.0048 0.04541 0 0.04251 0.01773 0.06411 0.0533 0.06411 0.02201 0 0.04387-0.0086 0.06586-0.02604l-0.0084-0.0207c-0.01339 0.0081-0.02629 0.01202-0.03953 0.01202-0.01738 0-0.02634-0.01014-0.02634-0.03005 0-0.01031 2e-3 -0.02577 6e-3 -0.04675l0.02994-0.15561h0.05929l6e-3 -0.03138h-0.05928l0.01257-0.06746zm0.77789 0.04073c-0.01977 0-0.03724 0.01294-0.0527 0.03874-0.01275-0.01155-0.0294-0.01736-0.0503-0.01736-0.03413 0-0.06175 0.01281-0.08264 0.03807-0.02074 0.02508-0.03114 0.05271-0.03114 0.08349 0 0.03112 0.01132 0.05287 0.03413 0.06478-0.01802 0.01031-0.02998 0.01956-0.03653 0.02737-0.0064 0.0079-0.0096 0.01685-0.0096 0.02805 0 0.01653 0.0077 0.02953 0.02336 0.03807-0.02472 0.0054-0.04434 0.01435-0.05869 0.02805-0.01419 0.01387-0.02096 0.0312-0.02096 0.05076 0 0.04749 0.03531 0.07079 0.10659 0.07079 0.04258 0 0.07525-0.0097 0.0982-0.02872 0.02297-0.01885 0.03474-0.04484 0.03474-0.07881 0-0.04162-0.02534-0.06541-0.07606-0.07146l-0.0473-6e-3c-0.01674-0.0019-0.02456-7e-3 -0.02456-0.01603 0-0.01244 0.01145-0.02424 0.03474-0.03473 0.0029 7.1e-4 0.0082 0.0014 0.01557 0.0014 0.03364 0 0.06087-0.01264 0.08144-0.03807 0.02057-0.02562 0.03053-0.05356 0.03053-0.08415 0-0.01672-0.0036-0.03069-0.01078-0.04208 0.0097-0.0083 0.01817-0.01268 0.02456-0.01268 0.0091 0 0.01317 0.0062 0.01317 0.01937 0.01929 0 0.02934-0.0108 0.02934-0.03339 0-0.01672-0.0087-0.02539-0.02516-0.02539zm-1.833 0.02138c-0.0421 0-0.07721 0.02026-0.1048 0.06011-0.02759 0.03966-0.04133 0.08323-0.04133 0.1309 0 0.03503 0.0088 0.06272 0.02636 0.08282 0.01755 0.0201 0.04093 0.03005 0.06946 0.03005 0.02582 0 0.04637-0.0068 0.06168-0.01938 0.01546-0.01281 0.02277-0.02616 0.02277-0.04074 0-0.0068-0.0015-0.01169-0.0048-0.01402-0.0185 0.02614-0.04211 0.0394-0.07066 0.0394-0.03588 0-0.05389-0.02469-0.05389-0.07414 0-0.03646 0.0089-0.07347 0.02575-0.11154 0.01706-0.03807 0.03648-0.05744 0.05928-0.05744 0.0118 0 0.02145 0.0061 0.02813 0.01803 0.0067 0.01173 0.01018 0.02737 0.01018 0.04675 0.01323 0 0.02332-0.0034 0.03114-0.01068 0.0081-0.0072 0.01197-0.01702 0.01197-0.02805 0-0.01494-6e-3 -0.02677-0.01857-0.03673-0.01259-0.01-0.03022-0.01536-0.0527-0.01536zm0.53177 0c-0.04131 0-0.07614 0.02126-0.1042 0.06411-0.0279 0.04287-0.04192 0.08943-0.04192 0.13958 0 0.03148 0.0058 0.05652 0.01676 0.07414 0.01116 0.01743 0.02678 0.02604 0.04671 0.02604 0.03764 0 0.06818-0.02964 0.09162-0.08816h3e-3c-0.0033 0.01672-0.0048 0.03119-0.0048 0.04274 0 0.03023 0.01281 0.04541 0.03832 0.04541 0.02265 0 0.04543-0.01103 0.06887-0.03273l-9e-3 -0.01603c-0.01435 0.0094-0.02608 0.01402-0.03532 0.01402-0.01068 0-0.01616-0.0089-0.01616-0.02737 0-0.01529 0.0024-0.03569 0.0071-0.06078l0.03353-0.17498h-0.01557l-0.02155 0.01402c-0.01609-0.01316-0.03532-0.02003-0.05749-0.02003zm-0.78927 6.46e-4c-0.033 0-0.06276 0.02438-0.08923 0.07347h-0.0048l0.01317-0.06879h-0.09045l-0.0042 0.02271h0.0036c0.0228 0 0.03413 0.0088 0.03413 0.02605 0 0.0062-4.68e-4 0.01457-0.0024 0.02471l-0.04133 0.21973h0.04551l0.02635-0.14025c0.0054-0.02721 0.01755-0.0541 0.03653-0.08148 0.01913-0.02739 0.03812-0.04141 0.05629-0.04141 0.01499 0 0.02216 0.0112 0.02216 0.03272 0 0.01192-0.0024 0.02871-0.0071 0.05076l-0.01137 0.05676c-0.0062 0.03254-9e-3 0.05675-9e-3 0.07346 0 0.01672 4e-3 0.03028 0.01197 0.04008 0.0082 0.0098 0.01878 0.01469 0.03234 0.01469 0.01851 0 0.03851-0.01076 0.05989-0.03139l-9e-3 -0.01603c-0.01148 0.0083-0.02173 0.01268-0.03114 0.01268-0.01148 0-0.01737-0.0086-0.01737-0.02604 0-0.01636 0.0022-0.03556 0.0066-0.05744l0.01257-0.06411c0.0059-0.02846 9e-3 -0.04854 9e-3 -0.06011 0-0.04037-0.01778-0.06078-0.0527-0.06078zm1.1096 0c-0.03301 0-0.06275 0.02438-0.08923 0.07347h-0.0048l0.01317-0.06879h-0.09103l-0.0042 0.02271h0.0036c0.0228 0 0.03474 0.0088 0.03474 0.02605 0 0.0062-9.99e-4 0.01457-3e-3 0.02471l-0.04133 0.21973h0.04552l0.02636-0.14025c0.0054-0.02721 0.01755-0.0541 0.03652-0.08148 0.01913-0.02739 0.03812-0.04141 0.05629-0.04141 0.01498 0 0.02216 0.0112 0.02216 0.03272 0 0.01192-0.0024 0.02871-0.0071 0.05076l-0.01078 0.05676c-0.0062 0.03254-0.0096 0.05675-0.0096 0.07346 0 0.01672 4e-3 0.03028 0.01197 0.04008 0.0082 0.0098 0.01878 0.01469 0.03234 0.01469 0.0185 0 0.03852-0.01076 0.05989-0.03139l-9e-3 -0.01603c-0.01148 0.0083-0.02174 0.01268-0.03114 0.01268-0.01148 0-0.01737-0.0086-0.01737-0.02604 0-0.01636 0.0022-0.03556 0.0066-0.05744l0.01257-0.06411c0.0059-0.02846 9e-3 -0.04854 9e-3 -0.06011 0-0.04037-0.01717-0.06078-0.05209-0.06078zm0.62279 0c-0.03301 0-0.06274 0.02438-0.08923 0.07347h-0.0048l0.01317-0.06879h-0.09103l-0.0042 0.02271h0.0042c0.0228 0 0.03413 0.0088 0.03413 0.02605 0 0.0062-1e-3 0.01457-3e-3 0.02471l-0.04133 0.21973h0.04551l0.02636-0.14025c0.0054-0.02721 0.01814-0.0541 0.03713-0.08148 0.01914-0.02739 0.03751-0.04141 0.05569-0.04141 0.01498 0 0.02276 0.0112 0.02276 0.03272 0 0.01192-0.0024 0.02871-0.0071 0.05076l-0.01138 0.05676c-0.0062 0.03254-0.0096 0.05675-0.0096 0.07346 0 0.01672 4e-3 0.03028 0.01197 0.04008 0.0082 0.0098 0.01938 0.01469 0.03293 0.01469 0.01849 0 0.03792-0.01076 0.05928-0.03139l-0.0084-0.01603c-0.01148 0.0083-0.02233 0.01268-0.03173 0.01268-0.01148 0-0.01676-0.0086-0.01676-0.02604 0-0.01636 0.0017-0.03556 6e-3 -0.05744l0.01257-0.06478c0.0059-0.02845 9e-3 -0.04788 9e-3 -0.05944 0-0.04037-0.01717-0.06078-0.0521-0.06078zm-0.31798 0.0046-0.0042 0.02271h0.0066c0.01993 0 0.02995 0.0081 0.02995 0.02338 0 0.0038-6.95e-4 0.0082-0.0019 0.01402l-0.01916 0.10085c-0.0073 0.0409-0.01078 0.06912-0.01078 0.08548 0 0.01494 0.0039 0.02762 0.01137 0.03741 0.0075 0.0098 0.01723 0.01469 0.02934 0.01469 0.02153 0 0.04384-0.01103 0.06646-0.03273l-9e-3 -0.01603c-0.01403 0.0094-0.02593 0.01402-0.03532 0.01402-0.01084 0-0.01618-0.0089-0.01618-0.02738 0-0.01422 0.0022-0.03463 0.0071-0.06078l0.03353-0.17565zm-0.62219 0.01938c0.01723 0 0.02903 0.0062 0.03653 0.01937l-0.01796 0.09685c-0.0057 0.03183-0.01748 0.0613-0.03533 0.08816-0.01787 0.02686-0.03524 0.04008-0.0515 0.04008-0.02057 0-0.03053-0.02064-0.03053-0.06278 0-0.0418 0.0094-0.08274 0.02814-0.12222 0.01898-0.03966 0.04276-0.05944 0.07066-0.05944zm1.1893 6.45e-4c0.02249 0 0.03353 0.01486 0.03353 0.04475 0 0.02455-0.0059 0.04731-0.01737 0.06812-0.01132 0.02064-0.02625 0.03072-0.04491 0.03072-0.02264 0-0.03413-0.01486-0.03413-0.04475 0-0.02418 0.0056-0.04664 0.01676-0.06746 0.01132-0.02099 0.02696-0.03139 0.04612-0.03139zm-0.07245 0.26648 0.0473 0.0046c0.03046 3e-3 0.04611 0.0169 0.04611 0.04073 0 0.0201-0.0076 0.03568-0.02276 0.0474-0.01498 0.01192-0.03717 0.01803-0.06586 0.01803-0.04609 0-0.06887-0.01576-0.06887-0.04741 0-0.01476 0.0042-0.02726 0.01257-0.0374 0.0085-0.01014 0.0183-0.01696 0.02994-0.0207 0.01179-0.0038 0.01917-0.0056 0.02156-0.0054zm-0.57548 0.27449c-0.0089 0-0.01613 0.0036-0.02156 0.01068-0.0053 0.0069-0.0078 0.01649-0.0078 0.02805 0 0.01992 0.0092 0.02938 0.02755 0.02938 0.0086 0 0.01554-3e-3 0.02096-0.0093 0.0056-0.0066 0.0084-0.01626 0.0084-0.02871 0-0.0201-0.0092-0.03005-0.02755-0.03005zm-1.1995 6.46e-4 -0.0048 0.02338h6e-3c0.02297 0 0.03474 0.0083 0.03474 0.02538 0 0.0056-0.0016 0.01386-0.0036 0.02471l-0.03953 0.20971c-0.0071 0.04002-0.01078 0.06823-0.01078 0.08548 0 0.01529 0.0032 0.02779 0.01078 0.03741 0.0076 0.0096 0.01755 0.01469 0.02934 0.01469 0.02153 0 0.04383-0.01103 0.06646-0.03273l-9e-3 -0.01603c-0.01403 0.0094-0.02593 0.01402-0.03532 0.01402-0.01084 0-0.01618-0.0089-0.01618-0.02737 0-0.0144 0.0028-0.0348 0.0078-0.06078l0.05629-0.29787zm1.8007 0-0.0042 0.02338h0.0054c0.02296 0 0.03474 0.0083 0.03474 0.02538 0 0.0056-9.27e-4 0.01386-3e-3 0.02471l-0.04011 0.20971c-0.0071 0.04002-0.01078 0.06823-0.01078 0.08548 0 0.01529 0.0039 0.02779 0.01137 0.03741 0.0076 0.0096 0.01755 0.01469 0.02934 0.01469 0.02153 0 0.04324-0.01103 0.06586-0.03273l-9e-3 -0.01603c-0.01403 0.0094-0.02533 0.01402-0.03474 0.01402-0.01084 0-0.01618-0.0089-0.01618-0.02737 0-0.0144 0.0022-0.0348 0.0071-0.06078l0.05689-0.29787zm-2.2157 0.01937c-0.05741 0-0.10573 0.02563-0.14432 0.07614-0.03859 0.05033-0.05749 0.10998-0.05749 0.17899 0 0.0466 0.01156 0.08276 0.03532 0.1082 0.02393 0.02543 0.05743 0.03807 0.10001 0.03807 0.03189 0 0.05668-0.0071 0.07485-0.02071 0.01818-0.0137 0.02755-0.02932 0.02755-0.04675 0-0.0087-0.0022-0.01463-0.0066-0.01803-0.02265 0.03309-0.05322 0.05008-0.09103 0.05008-0.05805 0-0.08683-0.03407-0.08683-0.10218 0-0.05815 0.0136-0.11205 0.04072-0.16096 0.02727-0.04909 0.06086-0.07346 0.1012-0.07346 0.03253 0 0.0491 0.02468 0.0491 0.07414 0.01451 0 0.02596-0.0037 0.03474-0.01136 0.0088-0.0077 0.01317-0.0184 0.01317-0.03138 0-0.01868-0.0081-0.03324-0.02396-0.04409-0.01595-0.01103-0.03794-0.01669-0.06647-0.01669zm1.2114 6e-3 -0.0042 0.02271h6e-3c0.0236 0 0.03533 0.0075 0.03533 0.02204 0 0.0034-5.25e-4 0.0086-0.0019 0.01536l-0.0509 0.26781c-0.0049 0.02614-0.0208 0.03874-0.0479 0.03874h-0.0066l-0.0042 0.02338h0.1545c0.05948 0 0.10696-0.02327 0.14252-0.06879 0.03555-0.0457 0.0533-0.10326 0.0533-0.17298 0-0.04766-0.01186-0.08392-0.03593-0.10953-0.02409-0.0258-0.05852-0.03874-0.103-0.03874zm0.09103 0.0267h0.03893c0.06204 0 0.09282 0.03871 0.09282 0.11554 0 0.06581-0.01373 0.11925-0.04133 0.15962-0.02743 0.04037-0.06478 0.06012-0.11198 0.06012h-0.04252zm-1.0557 0.06478c-0.04354 0-0.07905 0.01965-0.10599 0.05878-0.02678 0.03895-0.04012 0.08314-0.04012 0.13224 0 0.0354 0.0086 0.0629 0.02516 0.08281 0.01658 0.01992 0.03937 0.03005 0.06887 0.03005 0.04337 0 0.07876-0.01965 0.1054-0.05877 0.02663-0.03931 0.03953-0.08368 0.03953-0.13224 0-0.03664-0.0081-0.06409-0.02455-0.08349-0.01658-0.01938-0.0394-0.02938-0.06826-0.02938zm0.42997 0c-0.04354 0-0.07845 0.01965-0.1054 0.05878-0.02679 0.03895-0.04013 0.08314-0.04013 0.13224 0 0.0354 0.0081 0.0629 0.02456 0.08281 0.01658 0.01992 0.03996 0.03005 0.06946 0.03005 0.04337 0 0.07817-0.01965 0.1048-0.05877 0.02664-0.03931 0.04011-0.08368 0.04011-0.13224 0-0.03664-0.0086-0.06409-0.02515-0.08349-0.01658-0.01938-0.0394-0.02938-0.06826-0.02938zm0.306 0c-0.01691 0-0.03156 0.0057-0.04431 0.01737-0.01275 0.01173-0.02584 0.03424-0.03893 0.06679h-0.0048l0.01017-0.07881h-0.08623l-0.0048 0.02271h0.0042c0.026 0 0.03893 0.0088 0.03893 0.02605 0 0.0062-9.99e-4 0.01458-3e-3 0.0247l-0.04133 0.21973h0.04611l0.01796-0.09951c0.0082-0.04197 0.02082-0.07961 0.03773-0.11287 0.01707-0.03326 0.03336-0.05008 0.04851-0.05008 0.01307 0 0.01975 0.0146 0.01975 0.04341 0.0271 0 0.04073-0.01433 0.04073-0.04208 0-0.02507-0.01394-0.0374-0.04073-0.0374zm1.0959 0c-0.03619 0-0.06622 0.02604-0.08982 0.07814h-0.0024l0.01197-0.07279h-0.08683l-0.0042 0.02271h0.0036c0.0228 0 0.03413 0.0088 0.03413 0.02605 0 4e-3 -0.0014 0.01342-0.0042 0.02872l-0.06527 0.34662h0.09223l0.0042-0.02271h-0.0066c-0.0228 0-0.03413-0.0085-0.03413-0.02539 0-0.0051 0.0018-0.0156 0.0048-0.03072l0.0066-0.03339c0.0013-0.0059 0.0028-0.01431 0.0042-0.02604 0.01322 0.0083 0.02924 0.01268 0.04791 0.01268 0.04275 0 0.07753-0.02237 0.1048-0.06611 0.02743-0.04393 0.04133-0.09001 0.04133-0.13892 0-0.03201-0.0053-0.05658-0.01616-0.07347-0.01067-0.01689-0.02618-0.02539-0.04611-0.02539zm0.39942 0c-0.04131 0-0.07614 0.02126-0.1042 0.06411-0.02791 0.04287-0.04193 0.08943-0.04193 0.13958 0 0.03148 0.0058 0.05652 0.01676 0.07414 0.01116 0.01743 0.02678 0.02605 0.04671 0.02605 0.03764 0 0.06818-0.02964 0.09162-0.08816h3e-3c-0.0034 0.01672-0.0054 0.03119-0.0054 0.04274 0 0.03023 0.01281 0.04542 0.03833 0.04542 0.02265 0 0.04602-0.01103 0.06946-0.03273l-9e-3 -0.01603c-0.01435 0.0094-0.02607 0.01402-0.03532 0.01402-0.01068 0-0.01618-0.0089-0.01618-0.02737 0-0.01529 0.0024-0.03569 0.0071-0.06078l0.03353-0.17498h-0.01557l-0.02156 0.01402c-0.0161-0.01315-0.03532-0.02003-0.05749-0.02003zm-0.68866 6.45e-4c-0.02807 0-0.05072 0.0074-0.06826 0.02271-0.01738 0.01512-0.02635 0.03494-0.02635 0.05877 0 0.01743 4e-3 0.03274 0.01197 0.04607 0.0082 0.01315 0.02447 0.02562 0.04791 0.03807 0.01802 0.0092 0.03023 0.01899 0.03773 0.02805 0.0075 0.0089 0.01137 0.01975 0.01137 0.03272 0 0.03379-0.01746 0.05076-0.0527 0.05076-0.0177 0-0.03143-0.0063-0.04133-0.0187-0.0097-0.01263-0.01496-0.03017-0.01496-0.05276-0.0089 0-0.01626 0.0024-0.02216 0.0087-0.0057 0.0061-0.0084 0.01497-0.0084 0.02671 0 0.01886 7e-3 0.03421 0.02155 0.04541 0.01467 0.01103 0.03456 0.01669 0.05928 0.01669 0.03061 0 0.05516-0.0082 0.07366-0.02471 0.0185-0.01654 0.02755-0.03859 0.02755-0.06545 0-0.03699-0.01946-0.06525-0.05869-0.08481-0.01707-0.0083-0.0296-0.01685-0.03773-0.02539-0.0082-0.0085-0.01197-0.01863-0.01197-0.03072 0-0.01369 0.0042-0.02534 0.01257-0.03406 0.0086-0.0089 0.02007-0.01335 0.03474-0.01335 0.01387 0 0.02469 0.0057 0.03234 0.01669 0.0078 0.01103 0.01197 0.02577 0.01197 0.04409 0.02457 0 0.03653-0.01147 0.03653-0.03406 0-0.01458-0.0068-0.02677-0.02036-0.03673-0.01339-0.01-0.03221-0.0147-0.05629-0.0147zm1.0054 0c-0.0086 0-0.01578 0.0034-0.02216 0.01068-0.0064 0.0072-0.0096 0.01711-0.0096 0.02938 0.01609 0 0.02396 0.01032 0.02396 0.03005 0 0.04605-0.0217 0.10612-0.06586 0.18099h-0.0019c-0.0019-0.02027-0.0086-0.05314-0.02036-0.09884l-0.03833-0.14759h-0.07127l-0.0042 0.02271h0.0054c0.0097 0 0.01661 0.0022 0.02155 0.0067 5e-3 0.0043 0.0091 0.01204 0.01197 0.02271l0.06467 0.24177c-0.04497 0.06634-0.09101 0.09951-0.13773 0.09951-0.01403 0-0.02683-0.0026-0.03832-0.0067l-0.0071 0.02738c0.01356 0.0066 0.02889 0.01001 0.04611 0.01001 0.04337 0 0.07833-0.01258 0.1048-0.03874 0.02663-0.02614 0.06198-0.07946 0.106-0.15895 0.04402-0.07967 0.06586-0.14107 0.06586-0.185 0-0.0306-0.01136-0.04607-0.03353-0.04607zm-1.257 0.0046-0.0048 0.02271 0.0066 6.45e-4c0.01993 0 0.02994 0.0074 0.02994 0.02271 0 0.0038-6.94e-4 0.0082-0.0019 0.01402l-0.01856 0.10085c-0.0073 0.04091-0.01137 0.06912-0.01137 0.08548 0 0.01494 0.0039 0.02762 0.01137 0.0374 0.0075 0.0098 0.01723 0.0147 0.02934 0.0147 0.02153 0 0.04384-0.01103 0.06646-0.03273l-9e-3 -0.01603c-0.01403 0.0094-0.02593 0.01402-0.03532 0.01402-0.01084 0-0.01616-0.0089-0.01616-0.02737 0-0.01422 0.0028-0.03463 0.0078-0.06079l0.03293-0.17565zm0.94257 0.01938c0.01722 0 0.02962 0.0062 0.03713 0.01937l-0.01796 0.09685c-0.0057 0.03184-0.01747 0.06131-0.03532 0.08816-0.01786 0.02685-0.03523 0.04008-0.0515 0.04008-0.02057 0-0.03053-0.02064-0.03053-0.06278 0-0.0418 0.0094-0.08274 0.02813-0.12222 0.01898-0.03966 0.04217-0.05944 0.07006-0.05944zm-2.2397 4e-3c0.03189 0 0.04791 0.02545 0.04791 0.07614 0 0.04339-0.0078 0.08312-0.02396 0.11888-0.01595 0.03557-0.03773 0.05343-0.06467 0.05343-0.03237 0-0.04851-0.02532-0.04851-0.07547 0-0.04375 0.0082-0.08313 0.02456-0.11888 0.01643-0.03575 0.03804-0.05409 0.06467-0.05409zm0.43056 0c0.03189 0 0.04791 0.02545 0.04791 0.07614 0 0.04339-0.0084 0.08312-0.02456 0.11888-0.01595 0.03557-0.03712 0.05343-0.06407 0.05343-0.03237 0-0.04851-0.02532-0.04851-0.07547 0-0.04375 0.0082-0.08313 0.02455-0.11888 0.01643-0.03575 0.03804-0.05409 0.06467-0.05409zm1.3887 6e-3c0.02057 0 0.03114 0.02095 0.03114 0.06344 0 0.04109-0.0098 0.08171-0.02874 0.12155-0.01881 0.03966-0.0416 0.05944-0.06887 0.05944-0.01531 0-0.0284-0.0064-0.03893-0.01937l0.01976-0.10419c0.0056-0.02828 0.0175-0.05533 0.03474-0.08148 0.01723-0.02632 0.034-0.0394 0.0509-0.0394z" stroke-miterlimit="3.6" stroke-opacity=".5" stroke-width=".35285" style="mix-blend-mode:normal;paint-order:fill markers stroke"/><rect x="53.171" y="13.111" width="1.534" height="1.5009" rx="1.361e-17" ry="1.9709e-17" fill="#800" style="mix-blend-mode:normal;paint-order:fill markers stroke"/><rect x="54.705" y="13.111" width="1.534" height="1.5009" rx="1.361e-17" ry="1.9709e-17" fill="#061" style="mix-blend-mode:normal;paint-order:fill markers stroke"/><rect x="56.238" y="13.111" width="1.534" height="1.5009" rx="1.361e-17" ry="1.9709e-17" fill="#039" style="mix-blend-mode:normal;paint-order:fill markers stroke"/></g><rect transform="rotate(45)" x="15.73" y="-10.817" width=".66902" height=".50176" rx="4.6422e-18" ry="4.6422e-18" fill="url(#j)" style="paint-order:fill markers stroke"/><circle cx="18.594" cy="3.6517" r=".83627" fill="url(#k)" style="mix-blend-mode:normal;paint-order:stroke markers fill"/><ellipse cx="18.594" cy="3.6517" rx=".25088" ry=".25088" fill="url(#m)" style="mix-blend-mode:normal;paint-order:stroke markers fill"/><g id="ac" transform="matrix(.41667 0 0 .42586 -3.7625 -.96141)"><path d="m56.346 24.344-1.5435 1.5435 0.14032-0.14032-1.8099-1.6219 1.684-1.684z" fill="url(#h)" stroke-miterlimit="3.6" stroke-width=".26458" style="paint-order:stroke fill markers"/><circle cx="53.975" cy="23.283" r="1.1906" fill="url(#g)" stroke="url(#q)" stroke-miterlimit="3.6" stroke-width=".26458" style="paint-order:stroke fill markers"/><circle cx="54.24" cy="23.548" r=".92604" fill="#847c6a" stroke="url(#p)" stroke-miterlimit="3.6" stroke-width=".26458" style="paint-order:stroke markers fill"/></g><use id="e" transform="translate(.035432 -1.6755)" xlink:href="#ac"/><use transform="translate(0 -1.6725)" xlink:href="#e"/></g></svg>
