<?xml version="1.0" encoding="UTF-8"?>
<svg width="48" height="48" version="1.1" viewBox="0 0 12.7 12.7" xmlns="http://www.w3.org/2000/svg" xmlns:xlink="http://www.w3.org/1999/xlink"><defs><linearGradient id="d" x1="3.1386" x2="4.8731" y1="-2.6662" y2="-.90016" gradientTransform="matrix(1.7433 0 0 1.7122 1.6343 7.1353)" gradientUnits="userSpaceOnUse"><stop stop-color="#af5" offset="0"/><stop stop-color="#5a0" offset="1"/></linearGradient><linearGradient id="e" x1=".53685" x2="1.8377" y1="-2.2247" y2="-.90016" gradientTransform="matrix(1.7433 0 0 1.7122 1.6343 7.1353)" gradientUnits="userSpaceOnUse"><stop stop-color="#52a300" offset="0"/><stop stop-color="#366d00" offset="1"/></linearGradient><linearGradient id="f" x1="4.0058" x2="4.4395" y1="-.3511" y2=".42439" gradientTransform="matrix(1.7433 0 0 1.7122 1.6343 7.1353)" gradientUnits="userSpaceOnUse"><stop stop-color="#142900" offset="0"/><stop stop-color="#366d00" offset="1"/></linearGradient><radialGradient id="a" cx=".68139" cy="1.3876" r=".86725" gradientTransform="matrix(-.87166 -.87168 2.615 -2.615 1.0475 12.84)" gradientUnits="userSpaceOnUse"><stop stop-color="#fff" offset=".10204"/><stop stop-color="#9ff" stop-opacity=".8" offset=".39796"/><stop stop-color="#3376ff" stop-opacity=".6" offset=".69558"/><stop stop-color="#4500cc" stop-opacity=".4" offset=".84779"/><stop stop-color="#206" stop-opacity=".2" offset="1"/></radialGradient><radialGradient id="b" cx="6.6773" cy="-.52326" r=".55751" gradientTransform="matrix(7.1576e-8 2.3729 -2.3729 3.0085e-7 7.0927 -11.92)" gradientUnits="userSpaceOnUse"><stop stop-color="#fff" offset="0"/><stop stop-color="#9accff" offset=".098639"/><stop stop-color="#0080ff" offset=".7466"/><stop stop-color="#001a33" offset="1"/></radialGradient><linearGradient id="c" x1="1.5875" x2="10.054" y1="2.9104" y2="11.112" gradientUnits="userSpaceOnUse"><stop stop-color="#aaa" offset="0"/><stop stop-color="#777" offset="1"/></linearGradient></defs><g stroke-linecap="round" stroke-linejoin="round" stroke-miterlimit="3.3"><g><path d="m3.3262 7.8619c0 0.75595 0.75595 1.5119 1.5119 1.5119-0.75595 1.5119-2.2679 1.5119-3.7798 2.2679 0.75595-1.5119 0.75595-3.0238 2.2679-3.7798z" fill="url(#a)" stroke-width=".75596"/><g><g stroke-width=".75596"><path d="m6.1561 6.5341c1.1372 1.1339 1.7058 2.8364 1.7058 5.1075 1.5119-1.5119 2.2679-6.0476 0.75595-7.5595z" fill="url(#f)"/><path d="m1.0583 4.8381c2.2646 0 3.9639 0.56534 5.0978 1.696l2.4617-2.452c-1.5119-1.5119-6.0476-0.75595-7.5595 0.75595z" fill="url(#e)"/><path d="m11.642 1.0583c0 4.5357-3.7798 6.8036-6.8036 8.3155-0.75595 0-1.5119-0.75595-1.5119-1.5119 1.5119-3.0238 3.7798-6.8036 8.3155-6.8036z" fill="url(#d)"/></g><circle cx="8.5549" cy="4.1451" r=".79375" fill="url(#b)" stroke="#000" stroke-opacity=".25" stroke-width=".22048" style="paint-order:stroke fill markers"/></g></g><path d="m5.0271 3.9687v-1.5875l-1.3229-1.3229h-0.26458l-0.52917 0.52917v0.26458l0.79375 0.79375-0.13229 0.92604-0.92604 0.13229-0.79375-0.79375h-0.26458l-0.52917 0.52917v0.26458l1.3229 1.3229h1.5875l4.4979 4.4979v1.3229l0.79375 0.79375h0.26458l0.52917-0.52917v-0.26458l-0.52917-0.52917 0.13229-0.66146 0.66146-0.13229 0.52917 0.52917h0.26458l0.52917-0.52917v-0.26458l-0.79375-0.79375h-1.3229z" fill="url(#c)" stroke-opacity=".25" stroke-width=".066146" style="paint-order:stroke fill markers"/><path d="m3.7042 1.0583 1.3229 1.3229h-0.26458l-1.0583-1.0583-0.52917 0.52917 0.79375 0.79375-0.13229 1.1906-1.1906 0.13229-0.79375-0.79375-0.52917 0.52917 1.0583 1.0583v0.26458l-1.3229-1.3229v-0.26458l0.52917-0.52917h0.26458l0.79375 0.79375 0.92604-0.13229 0.13229-0.92604-0.79375-0.79375v-0.26458l0.52917-0.52917z" fill="#fff" fill-opacity=".5" stroke-opacity=".25" stroke-width=".066146" style="paint-order:stroke fill markers"/><g fill-opacity=".25" stroke-opacity=".25" stroke-width=".066146"><path d="m9.2604 11.642v-0.26458l0.52917-0.52917-0.52917-0.52917 0.13229-0.92604 0.92604-0.13229 0.52917 0.52917 0.52917-0.52917h0.26458v0.26458l-0.52917 0.52917h-0.26458l-0.52917-0.52917-0.66146 0.13229-0.13229 0.66146 0.52917 0.52917v0.26458l-0.52917 0.52917z" style="paint-order:stroke fill markers"/><rect x="4.7625" y="2.3812" width=".26458" height="1.5875" style="paint-order:stroke fill markers"/><rect x="2.3812" y="4.7625" width="1.5875" height=".26458" style="paint-order:stroke fill markers"/></g><path d="m4.7625 3.9687 4.7625 4.7625h1.3229l0.52917 0.52917h0.26458l-0.79375-0.79375h-1.3229l-4.4979-4.4979z" fill="#fff" fill-opacity=".5" stroke-opacity=".25" stroke-width=".066146" style="paint-order:stroke fill markers"/><path d="m3.9688 4.7625 4.7625 4.7625v1.3229l0.52917 0.52917v0.26458l-0.79375-0.79375v-1.3229l-4.4979-4.4979z" fill="#fff" fill-opacity=".5" stroke-opacity=".25" stroke-width=".066146" style="paint-order:stroke fill markers"/></g></svg>
