<?xml version="1.0" encoding="UTF-8"?>
<svg width="16" height="16" version="1.1" viewBox="0 0 4.2333 4.2333" xmlns="http://www.w3.org/2000/svg"><g transform="matrix(.35593 0 0 .35593 -1.4258 .71769)" stroke-linecap="round" stroke-linejoin="round" stroke-miterlimit="3.3" stroke-opacity=".25" stroke-width=".13938"><path d="m10.51-0.52967h0.55752l0.55752 0.55751v0.55751l-1.115 1.115v1.115l0.55752 0.55751 1.115-1e-7 1.115-1.115h0.55752l0.55752 0.55751v0.55751l-1.6725 1.6725h-2.2301l-3.3451 3.3451h-0.55751l-1.115-1.115v-0.55751l3.3451-3.3451-3e-7 -2.2301z" fill="#aaf" style="paint-order:stroke fill markers"/><path d="m5.4925 7.2755 0.27876-1e-7 3.6238-3.6238v-2.2301l1.3938-1.3938 0.83627 2e-8 -0.55752-0.55751h-0.55752l-1.6725 1.6725v2.2301l-3.3451 3.3451z" fill="#fff" style="paint-order:stroke fill markers"/><path d="m14.413 2.8154h-0.83627l-1.115 1.115h-0.83627l-0.55752-0.55751 1.115-1e-7 1.115-1.115h0.55752z" fill="#fff" style="paint-order:stroke fill markers"/><path d="m11.068 0.027844v0.27876l-1.115 1.115v1.6725l0.83627 0.83627h0.83627l-1.115-1.115v-1.115l1.115-1.115v-0.55751z" fill="#55a" style="paint-order:stroke fill markers"/><path d="m14.413 2.8154v0.55751l-1.6725 1.6725h-2.2301l-3.3451 3.3451h-0.55751l-1.115-1.115 0.27876-1e-7 0.27876-0.27876 0.83627 0.83627 3.3451-3.3451h2.2301l1.3938-1.3938v-0.27876z" fill="#55a" style="paint-order:stroke fill markers"/></g></svg>
