<?xml version="1.0" encoding="UTF-8"?>
<svg width="64" height="64" version="1.1" viewBox="0 0 16.933 16.933" xmlns="http://www.w3.org/2000/svg" xmlns:xlink="http://www.w3.org/1999/xlink"><defs><linearGradient id="d"><stop stop-color="#292929" offset="0"/><stop stop-color="#3d3d3d" offset="1"/></linearGradient><linearGradient id="c"><stop stop-color="#c2cada" offset="0"/><stop stop-color="#9ea09f" offset="1"/></linearGradient><linearGradient id="al" x1="2.6458" x2="2.6458" y1="49.477" y2="65.088" gradientTransform="matrix(.99998 0 0 1 6.0812e-5 0)" gradientUnits="userSpaceOnUse"><stop stop-color="#cfccc3" offset="0"/><stop stop-color="#aba8a5" offset="1"/></linearGradient><linearGradient id="v" x1="3.1871" x2="3.175" y1="42.598" y2="49.237" gradientTransform="translate(-5.1096e-7 -.40666)" gradientUnits="userSpaceOnUse"><stop stop-color="#9f9fa2" offset="0"/><stop stop-color="#b5b3b1" offset="1"/></linearGradient><linearGradient id="s" x1="5.2916" x2="8.9957" y1="53.005" y2="56.709" gradientTransform="matrix(.93491 0 0 .93509 .72936 3.7372)" gradientUnits="userSpaceOnUse" xlink:href="#c"/><linearGradient id="ad" x1="23.019" x2="23.019" y1="51.329" y2="63.235" gradientUnits="userSpaceOnUse"><stop stop-color="#bbb7aa" offset="0"/><stop stop-color="#c6c2b9" offset=".81589"/><stop stop-color="#d0ccc8" offset="1"/></linearGradient><linearGradient id="ap" x1="23.019" x2="23.019" y1="51.329" y2="61.383" gradientTransform="matrix(.99718 0 0 1.0658 .11939 -3.377)" gradientUnits="userSpaceOnUse"><stop stop-color="#1c1c21" offset="0"/><stop stop-color="#2f2e38" offset="1"/></linearGradient><radialGradient id="q" cx="22.49" cy="56.621" r=".66146" gradientTransform="matrix(-3.2 -5.4991e-5 .00031617 -18 94.438 1070.5)" gradientUnits="userSpaceOnUse"><stop stop-opacity=".66" offset="0"/><stop stop-opacity="0" offset="1"/></radialGradient><radialGradient id="o" cx="62.177" cy="56.621" r=".66146" gradientTransform="matrix(-3.2 -2.079e-5 .0001173 -18 261.14 1070.5)" gradientUnits="userSpaceOnUse"><stop stop-opacity=".33" offset="0"/><stop stop-opacity="0" offset="1"/></radialGradient><linearGradient id="ah" x1="42.598" x2="42.598" y1="51.329" y2="61.383" gradientTransform="matrix(.94723 0 0 .98421 2.5602 .81047)" gradientUnits="userSpaceOnUse" xlink:href="#d"/><linearGradient id="ag" x1="42.598" x2="42.598" y1="51.329" y2="61.383" gradientTransform="matrix(.94723 0 0 .98421 1.9075 .81047)" gradientUnits="userSpaceOnUse" xlink:href="#d"/><linearGradient id="aa" x1="24.077" x2="24.077" y1="51.858" y2="59.002" gradientTransform="matrix(.96507 0 0 .96296 1.4012 2.979)" gradientUnits="userSpaceOnUse"><stop offset="0"/><stop offset=".75"/><stop stop-color="#929297" offset="1"/></linearGradient><linearGradient id="z" x1="30.162" x2="30.692" y1="57.679" y2="57.944" gradientTransform="matrix(1.6577 0 0 1.1 -19.938 -4.842)" gradientUnits="userSpaceOnUse"><stop stop-opacity=".75" offset="0"/><stop stop-opacity="0" offset="1"/></linearGradient><linearGradient id="y" x1="30.559" x2="30.559" y1="52.52" y2="56.621" gradientTransform="matrix(.84848 0 0 .90323 4.7003 5.744)" gradientUnits="userSpaceOnUse"><stop stop-color="#292929" offset="0"/><stop stop-color="#2b2b2b" offset=".4"/><stop offset=".6"/><stop stop-color="#303030" offset=".6"/><stop stop-color="#333" offset="1"/></linearGradient><linearGradient id="x" x1="29.104" x2="29.104" y1="55.695" y2="56.224" gradientTransform="matrix(1.1051 0 0 1.1 -3.8569 -5.2785)" gradientUnits="userSpaceOnUse"><stop stop-color="#808080" offset="0"/><stop offset="1"/></linearGradient><linearGradient id="w" x1="29.104" x2="29.104" y1="55.695" y2="56.224" gradientTransform="matrix(1.1051 0 0 1.1 4.9149 -5.2785)" gradientUnits="userSpaceOnUse"><stop stop-color="#808080" offset="0"/><stop offset="1"/></linearGradient><radialGradient id="l" cx="27.208" cy="57.856" r=".52917" gradientTransform="matrix(-7.0996e-6 1.4667 -1.4735 -7.2731e-6 112.19 19.38)" gradientUnits="userSpaceOnUse"><stop stop-color="#fff" offset="0"/><stop stop-color="#f00" offset=".49806"/><stop stop-color="#a00" offset="1"/></radialGradient><radialGradient id="k" cx="27.519" cy="58.156" r=".32372" gradientTransform="matrix(-1.8061 -.013057 .013305 -1.8234 76.068 165.88)" gradientUnits="userSpaceOnUse"><stop stop-color="#fff" stop-opacity=".15079" offset="0"/><stop stop-color="#fff" stop-opacity=".30423" offset="1"/></radialGradient><linearGradient id="an" x1="23.019" x2="23.019" y1="51.329" y2="52.123" gradientTransform="matrix(.99718 0 0 1.5 .11939 -25.665)" gradientUnits="userSpaceOnUse"><stop stop-opacity=".75" offset="0"/><stop stop-opacity="0" offset="1"/></linearGradient><linearGradient id="ak" x1="7.9375" x2="7.9326" y1="2.6458" y2="39.555" gradientTransform="matrix(.47293 0 0 .48336 .0094139 -2.9236)" gradientUnits="userSpaceOnUse"><stop stop-color="#d5d2d4" offset="0"/><stop stop-color="#abaaab" offset=".07"/><stop stop-color="#a2a2a2" offset=".93"/><stop stop-color="#686868" offset="1"/></linearGradient><linearGradient id="ai" x1="7.9332" x2="59.801" y1="21.101" y2="21.101" gradientTransform="matrix(.46807 0 0 .48485 .17391 -2.7394)" gradientUnits="userSpaceOnUse"><stop stop-color="#fff" stop-opacity=".25" offset="0"/><stop stop-color="#fff" stop-opacity="0" offset=".03"/><stop stop-opacity="0" offset=".97"/><stop stop-opacity=".25" offset="1"/></linearGradient><linearGradient id="aj" x1="11.159" x2="12.747" y1="33.478" y2="35.983" gradientTransform="matrix(.47293 0 0 .48336 .0094139 -2.9236)" gradientUnits="userSpaceOnUse"><stop stop-color="#5b5958" offset="0"/><stop stop-color="#847e7b" offset=".5"/><stop stop-color="#c0bfbe" offset="1"/></linearGradient><linearGradient id="af" x1="13.229" x2="25.4" y1="6.8792" y2="33.867" gradientTransform="matrix(.47293 0 0 .48336 .0094139 -2.9236)" gradientUnits="userSpaceOnUse"><stop stop-color="#413f3f" offset="0"/><stop stop-color="#726c69" offset=".5"/><stop stop-color="#a7a5a4" offset="1"/></linearGradient><linearGradient id="ae" x1="50.535" x2="51.065" y1="20.307" y2="20.307" gradientTransform="matrix(.52679 0 0 .48776 -2.7899 -3.0695)" gradientUnits="userSpaceOnUse"><stop stop-color="#696663" stop-opacity="0" offset="0"/><stop stop-color="#696663" offset=".75"/><stop stop-color="#ceccca" stop-opacity="0" offset="1"/></linearGradient><linearGradient id="r" x1="51.656" x2="54.968" y1="9.7535" y2="13.668" gradientTransform="matrix(1.2 0 0 .99326 -7.3543 -.80733)" gradientUnits="userSpaceOnUse" xlink:href="#c"/><radialGradient id="m" cx="27.208" cy="57.856" r=".52917" gradientTransform="matrix(-3.0458e-6 .63214 -.63214 -3.1348e-6 61.714 -10.286)" gradientUnits="userSpaceOnUse"><stop stop-color="#ffb" offset="0"/><stop stop-color="#af0" offset=".49806"/><stop stop-color="#0f0" offset="1"/></radialGradient><radialGradient id="j" cx="53.975" cy="20.637" r=".79375" gradientTransform="matrix(1.0536 3.7014e-6 -1.8253e-6 1.0536 -31.641 -14.747)" gradientUnits="userSpaceOnUse"><stop stop-color="#0f0" stop-opacity=".2" offset=".3"/><stop stop-color="#0f0" stop-opacity="0" offset="1"/></radialGradient><radialGradient id="h" cx="53.975" cy="23.343" r="1.6065" gradientTransform="matrix(1.0705 1.0705 -.57643 .57643 9.6496 -47.953)" gradientUnits="userSpaceOnUse"><stop stop-opacity=".5" offset="0"/><stop stop-opacity="0" offset="1"/></radialGradient><radialGradient id="g" cx="54.548" cy="23.063" r="1.3229" gradientTransform="matrix(-.5 .6 -.9838 -.81984 103.14 8.6686)" gradientUnits="userSpaceOnUse"><stop stop-color="#d6cbae" offset="0"/><stop stop-color="#9d9786" offset="1"/></radialGradient><linearGradient id="u" x1="52.652" x2="55.298" y1="21.96" y2="24.606" gradientUnits="userSpaceOnUse"><stop stop-color="#bab28d" offset="0"/><stop stop-color="#b8b389" stop-opacity="0" offset=".49832"/></linearGradient><linearGradient id="t" x1="53.446" x2="55.033" y1="22.754" y2="24.342" gradientUnits="userSpaceOnUse"><stop stop-color="#9d9786" offset="0"/><stop stop-color="#77705f" offset="1"/></linearGradient><radialGradient id="f" cx="33.351" cy="13.565" r="25.792" gradientTransform="matrix(-.48896 0 1.8948e-5 -.088935 32.679 16.287)" gradientUnits="userSpaceOnUse"><stop offset=".24916"/><stop stop-opacity="0" offset="1"/></radialGradient><linearGradient id="ab" x1="11.774" x2="55.959" y1="6.2177" y2="35.057" gradientTransform="matrix(.47293 0 0 .48336 .0094139 -2.9236)" gradientUnits="userSpaceOnUse"><stop stop-color="#74706d" offset="0"/><stop stop-color="#7e7a77" offset="1"/></linearGradient><radialGradient id="i" cx="19.05" cy="10.065" r="17.595" gradientTransform="matrix(.55472 -.21806 .08725 .23185 -2.4268 5.0355)" gradientUnits="userSpaceOnUse"><stop stop-color="#fff" stop-opacity=".2" offset="0"/><stop stop-color="#fff" stop-opacity="0" offset="1"/></radialGradient><radialGradient id="p" cx="6.6773" cy="-.52326" r=".55751" gradientTransform="matrix(7.164e-8 2.375 -2.375 3.0112e-7 15.376 -11.289)" gradientUnits="userSpaceOnUse"><stop stop-color="#fff" offset="0"/><stop stop-color="#9accff" offset=".098639"/><stop stop-color="#0080ff" offset=".7466"/><stop stop-color="#001a33" offset="1"/></radialGradient><linearGradient id="ac" x1="3.1386" x2="4.8731" y1="-2.6662" y2="-.90016" gradientTransform="matrix(1.7449 0 0 1.7137 9.9125 7.7828)" gradientUnits="userSpaceOnUse"><stop stop-color="#af5" offset="0"/><stop stop-color="#5a0" offset="1"/></linearGradient><linearGradient id="am" x1=".53685" x2="1.8377" y1="-2.2247" y2="-.90016" gradientTransform="matrix(1.7449 0 0 1.7137 9.9125 7.7828)" gradientUnits="userSpaceOnUse"><stop stop-color="#52a300" offset="0"/><stop stop-color="#366d00" offset="1"/></linearGradient><linearGradient id="ao" x1="4.0058" x2="4.4395" y1="-.3511" y2=".42439" gradientTransform="matrix(1.7449 0 0 1.7137 9.9125 7.7828)" gradientUnits="userSpaceOnUse"><stop stop-color="#142900" offset="0"/><stop stop-color="#366d00" offset="1"/></linearGradient><radialGradient id="n" cx=".68139" cy="1.3876" r=".86725" gradientTransform="matrix(-.87244 -.87246 2.6173 -2.6173 9.3252 13.493)" gradientUnits="userSpaceOnUse"><stop stop-color="#fff" offset=".10204"/><stop stop-color="#9ff" stop-opacity=".8" offset=".39796"/><stop stop-color="#3376ff" stop-opacity=".6" offset=".69558"/><stop stop-color="#4500cc" stop-opacity=".4" offset=".84779"/><stop stop-color="#206" stop-opacity=".2" offset="1"/></radialGradient></defs><g transform="matrix(.22034 0 0 .22034 1.0045 .4751)" style="mix-blend-mode:normal"><path d="m3.1871 48.818 6.015-6.0149c0.52917-0.52917 0.76954-0.52988 1.5633-0.52988l46.202-7.06e-4c0.79375 0 1.0341 0.0014 1.5633 0.53059l6.0152 6.0149z" fill="url(#v)" style="mix-blend-mode:normal"/><path d="m4.4979 48.277h58.737c1.0261 0 1.8521 0.82603 1.8521 1.8521v0.74212h-62.442l2e-7 -0.74212c3e-7 -1.0261 0.82603-1.8521 1.8521-1.8521z" fill="#edf1ea" stroke-linecap="round" stroke-linejoin="round" stroke-width=".26458" style="mix-blend-mode:normal"/><path d="m4.2333 49.477h59.265c0.79373 0 1.5875 0.66146 1.5875 1.3229v12.7c0 0.87948-0.70801 1.5875-1.5875 1.5875h-59.265c-0.87945 0-1.5875-0.70802-1.5875-1.5875v-12.7c0-0.66146 0.79373-1.3229 1.5875-1.3229z" fill="url(#al)"/><g transform="matrix(1.0402 0 0 1.04 -.85756 -2.356)" stroke-linecap="round" stroke-linejoin="round" stroke-opacity=".5" style="mix-blend-mode:normal"><rect x="5.8208" y="53.446" width="3.1744" height="3.175" rx="6.8657e-18" ry="6.867e-18" fill="url(#s)" stroke="#000" stroke-width=".28861" style="mix-blend-mode:normal;paint-order:markers stroke fill"/><path id="b" d="m6.936 53.785h-0.37074v-0.07495h0.37074zm0 0.14541h-0.37074v-0.07495h0.37074zm-0.13143 0.13342h-0.23931v-0.06446h0.23931zm-0.3633-0.27883h-0.35586v-0.07495h0.35586zm0.3633 0.41224h-0.60013v-0.06596h0.60013zm-0.3633-0.26683h-0.35586v-0.07495h0.35586zm0.3633 0.54566h-0.23931v-0.08395h0.23931zm-0.3633-0.41224h-0.23683v-0.06446h0.23683zm0.49474 0.55915h-0.37074v-0.07495h0.37074zm-0.13143-0.29682h-0.60013v-0.06895h0.60013zm0.13143 0.44222h-0.37074v-0.07346h0.37074zm-0.49474-0.29232h-0.23683v-0.08395h0.23683zm0 0.14691h-0.35586v-0.07495h0.35586zm0 0.14541h-0.35586v-0.07346h0.35586zm1.2467-0.98338h-0.40174l0.00992-0.07495h0.38066zm0.042159 0.28332h-0.21823l-0.00992-0.06895h0.21699zm-0.02108-0.13791h-0.21699l-0.0062-0.04648-0.0062 0.04648h-0.21451l0.00992-0.07495h0.42282zm0.040918 0.27433h-0.21823l-0.00992-0.06895h0.21699zm-0.28023-0.20537-0.011159 0.06895h-0.21327l0.00992-0.06895zm0.45134 0.62361h-0.34842l-0.00868-0.07495h0.35711zm-0.15127-0.28182h-0.56417l0.00992-0.06746h0.54433zm-0.3199-0.20537-0.011159 0.06895h-0.21327l0.00992-0.06895zm0.47118 0.6326h-0.33106l-0.00868-0.07346h0.33974zm-0.13143-0.29232h-0.60261l0.00992-0.06895h0.58277zm-0.3819 0.07196-0.00868 0.07495h-0.34966v-0.07495zm-0.01736 0.14691-0.00868 0.07346h-0.3323v-0.07346zm1.1289-0.90993h-0.47366v-0.07495h0.47366zm0 0.14541h-0.47366v-0.07495h0.47366zm0.21203 0.54566h-0.22319v-0.08395h0.22319zm-0.32982-0.41224h-0.23807v-0.06446h0.23807zm0 0.13342h-0.23807v-0.06596h0.23807zm0 0.12892h-0.23807v-0.06895h0.23807zm0 0.1499h-0.23807v-0.08395h0.23807zm0.32982 0.14691h-0.68569v-0.07495h0.68569zm0 0.14541h-0.68569v-0.07346h0.68569z" stroke-linecap="round" stroke-linejoin="round" stroke-opacity=".5" stroke-width=".24738" style="mix-blend-mode:normal;paint-order:markers stroke fill" aria-label="HAL"/><path d="m6.3964 56.141q0.00754 0.0052 0.00754 0.01851 0 0.02666-0.031824 0.0476-0.031823 0.02066-0.087656 0.02066-0.074534 0-0.11641-0.0389-0.041594-0.03888-0.041594-0.11015 0-0.10553 0.067556-0.18249 0.067556-0.07724 0.16805-0.07724 0.049969 0 0.077884 0.01687 0.027915 0.0166 0.027915 0.04515 0 0.01986-0.015353 0.03154-0.015353 0.01175-0.040758 0.01175 0-0.07559-0.056948-0.07559-0.070626 0-0.11836 0.07506-0.047457 0.07479-0.047457 0.16373 0 0.10416 0.10161 0.10416 0.066159 0 0.1058-0.05059zm0.25375-0.22274q0.050527 0 0.079559 0.02964 0.029033 0.02964 0.029033 0.08567 0 0.07424-0.04662 0.13436-0.046619 0.05983-0.12255 0.05983-0.051644 0-0.080675-0.03047-0.029033-0.03046-0.029033-0.08458 0-0.07506 0.046898-0.13462 0.047176-0.05983 0.12339-0.05983zm-0.054156 0.28231q0.047176 0 0.075093-0.05439 0.028194-0.05466 0.028194-0.12104 0-0.0775-0.055832-0.0775-0.04662 0-0.075372 0.05466t-0.028752 0.12157q0 0.0767 0.056669 0.0767zm0.44441 0.02175h-0.054436q0-0.0125 0.00726-0.05766 0.00726-0.04541 0.012284-0.06771l0.013128-0.05766q0.00837-0.03372 0.00837-0.05196 0-0.03291-0.02624-0.03291-0.031824 0-0.0656 0.04243-0.033498 0.04215-0.042431 0.08294l-0.030708 0.14251h-0.053319l0.048014-0.22383q0.00335-0.01549 0.00335-0.02502 0-0.02638-0.039919-0.02638h-0.00447l0.00502-0.02339h0.1058l-0.015353 0.07017h0.00559q0.046339-0.07506 0.10412-0.07506 0.061135 0 0.061135 0.06172 0 0.0068-0.00112 0.01332h0.00559q0.04662-0.07506 0.10412-0.07506 0.061135 0 0.061135 0.06173 0 0.01768-0.010319 0.0612l-0.014796 0.06582q-0.00726 0.03236-0.00726 0.05847 0 0.02665 0.01982 0.02665 0.016471 0 0.03657-0.01278l0.010319 0.01631q-0.03629 0.03155-0.069788 0.03155-0.023448 0-0.037685-0.01496t-0.014237-0.04053 0.010887-0.07535l0.00978-0.04352q0.011993-0.05358 0.011993-0.06609 0-0.03291-0.026521-0.03291-0.029311 0-0.060576 0.03671-0.031265 0.03644-0.043827 0.07642l-0.00921 0.03998q-0.00362 0.01522-0.010043 0.05956-0.00642 0.04432-0.00642 0.05521zm0.36402 0.11043-0.00502 0.02339h-0.10748l0.075931-0.35329q0.00502-0.02339 0.00502-0.02936 0-0.02638-0.039919-0.02638h-0.00447l0.00502-0.02339h0.10134l-0.013681 0.07424h0.00278q0.041315-0.07969 0.10468-0.07969 0.034895 0 0.053597 0.02583 0.018983 0.02584 0.018983 0.07479 0 0.07479-0.048014 0.14197-0.047735 0.06689-0.12255 0.06689-0.032661 0-0.055831-0.01278-0.00252 0.01796-0.00474 0.02692l-0.00782 0.034q-0.0053 0.02313-0.0053 0.031 0 0.02583 0.039919 0.02583zm-0.020658-0.14986q0.018424 0.01986 0.045223 0.01986 0.047735 0 0.080675-0.06066 0.03322-0.06092 0.03322-0.12374 0-0.065-0.036012-0.065-0.02959 0-0.059738 0.04025-0.030149 0.03998-0.039919 0.08322zm0.27971-0.25919h0.10636l-0.037687 0.16672q-0.011454 0.05059-0.011454 0.06717 0 0.034 0.027915 0.034 0.029311 0 0.063088-0.04106 0.034057-0.04135 0.044386-0.08813l0.02987-0.1387h0.055273l-0.03936 0.17896q-0.00865 0.03944-0.00865 0.06172 0 0.02829 0.018983 0.02829 0.01619 0 0.03657-0.01225l0.010319 0.01631q-0.03629 0.031-0.07258 0.031-0.021495 0-0.034895-0.01496-0.013128-0.01496-0.013128-0.03781 0-0.01441 0.00278-0.03289h-0.00447q-0.030986 0.04977-0.055552 0.06745-0.024287 0.01768-0.054993 0.01768-0.061135 0-0.061135-0.06173 0-0.01768 0.010319-0.06119l0.022333-0.09763q0.00502-0.02204 0.00502-0.03318 0-0.02638-0.039919-0.02638h-0.00447zm0.4768 0.25674 0.00978 0.02066q-0.038524 0.02665-0.077047 0.02665-0.062251 0-0.062251-0.065 0-0.02093 0.00559-0.04678l0.034895-0.16046h-0.043548l0.0053-0.0223q0.055831 0 0.087375-0.07806h0.02624l-0.014796 0.06854h0.06923l-0.00697 0.03183h-0.06923l-0.034614 0.15883q-0.00697 0.03209-0.00697 0.04787 0 0.03046 0.030427 0.03046 0.02317 0 0.046619-0.01225zm0.26771-0.02773q0.00587 0.0036 0.00587 0.01387 0 0.02228-0.027078 0.04189-0.026799 0.01931-0.072022 0.01931-0.049969 0-0.080675-0.03074-0.030708-0.03074-0.030708-0.08431 0-0.07289 0.048294-0.13354 0.048294-0.06092 0.12199-0.06092 0.03629 0 0.056109 0.01687 0.020099 0.01687 0.020099 0.04705 0 0.04515-0.048294 0.0786-0.048014 0.03345-0.11752 0.03345h-0.00978q-0.00502 0-0.010319-5.43e-4 -0.00112 0.0076-0.00112 0.02339 0 0.07559 0.06281 0.07559 0.048851 0 0.082351-0.03997zm-0.13874-0.08458h0.00559q0.050526 0 0.083188-0.02395 0.032939-0.02393 0.032939-0.06201 0-0.03726-0.03322-0.03726-0.027635 0-0.051644 0.034-0.024007 0.03372-0.036848 0.08921zm0.41454-0.06908q0-0.04405-0.022891-0.04405-0.026521 0-0.056389 0.05086-0.02959 0.05086-0.043827 0.11504l-0.021495 0.10145h-0.053318l0.048014-0.22383q0.00335-0.01549 0.00335-0.02501 0-0.02638-0.045502-0.02638h-0.00474l0.0053-0.02339h0.10105l-0.011993 0.08023h0.00587q0.022889-0.04977 0.045223-0.06771 0.022333-0.01795 0.051922-0.01795 0.046898 0 0.046898 0.03835 0 0.04241-0.047457 0.04241zm-2.5984-0.27802 0.00502-0.02339h0.00754q0.026799 0 0.038802-0.01011 0.011993-0.01011 0.01619-0.02992l0.05946-0.27306q0.00224-0.01035 0.00224-0.01549 0-0.02229-0.041314-0.02229h-0.00726l0.00502-0.02339h0.14656q0.061972 0 0.09603 0.02801 0.034057 0.02801 0.034057 0.07941 0 0.06337-0.043827 0.09954-0.043548 0.03591-0.13092 0.03591h-0.04243l-0.020377 0.09356q-0.00252 0.01149-0.00252 0.01549 0 0.0223 0.041315 0.0223h0.018702l-0.00502 0.02339zm0.15102-0.18113h0.030149q0.12059 0 0.12059-0.10852 0-0.08132-0.083468-0.08132h-0.02624zm0.44414 0.1115q0.00587 0.0036 0.00587 0.01387 0 0.02229-0.027077 0.04188-0.026799 0.01931-0.072022 0.01931-0.049969 0-0.080675-0.03074-0.030708-0.03074-0.030708-0.08429 0-0.07289 0.048294-0.13354 0.048294-0.06092 0.12199-0.06092 0.036289 0 0.056109 0.01687 0.020099 0.01686 0.020099 0.04705 0 0.04514-0.048294 0.0786-0.048014 0.03345-0.11752 0.03345h-0.00978q-0.00502 0-0.01032-5.44e-4 -0.00112 0.0076-0.00112 0.02339 0 0.07559 0.06281 0.07559 0.048851 0 0.082351-0.03997zm-0.13874-0.08458h0.00559q0.050527 0 0.083188-0.02395 0.032939-0.02395 0.032939-0.06201 0-0.03726-0.03322-0.03726-0.027637 0-0.051644 0.034-0.024007 0.03372-0.036848 0.08921zm0.41454-0.06908q0-0.04406-0.022891-0.04406-0.026521 0-0.056389 0.05086-0.02959 0.05085-0.043827 0.11504l-0.021495 0.10145h-0.053319l0.048014-0.22383q0.00335-0.01549 0.00335-0.02502 0-0.02638-0.045501-0.02638h-0.00474l0.0053-0.02339h0.10105l-0.011993 0.08023h0.00587q0.022891-0.04977 0.045223-0.06773 0.022333-0.01795 0.051922-0.01795 0.046898 0 0.046898 0.03834 0 0.04243-0.047457 0.04243zm0.25124 7e-3q0-0.02801-0.013681-0.04488-0.013404-0.01687-0.037685-0.01687-0.025682 0-0.040758 0.01358-0.014796 0.01334-0.014796 0.03427 0 0.01851 0.014237 0.03155 0.014237 0.01305 0.044107 0.02583 0.068673 0.02992 0.068673 0.08648 0 0.04106-0.032383 0.06636-0.032382 0.0253-0.08598 0.0253-0.04327 0-0.068951-0.01687-0.025403-0.01713-0.025403-0.04596 0-0.01796 0.010043-0.02721 0.010319-0.0095 0.025962-0.0095 0 0.03454 0.017028 0.05385 0.017308 0.01904 0.048294 0.01904 0.061694 0 0.061694-0.05168 0-0.01986-0.013128-0.03345-0.013128-0.01387-0.044664-0.02801-0.041036-0.01903-0.055273-0.03917-0.013959-0.02041-0.013959-0.04705 0-0.03644 0.030427-0.05956 0.030708-0.02339 0.079837-0.02339 0.042152 0 0.0656 0.01523 0.023728 0.01525 0.023728 0.03753 0 0.03456-0.042989 0.03456zm0.25319-0.08784q0.050526 0 0.079559 0.02964t0.029033 0.08567q0 0.07424-0.046619 0.13435-0.04662 0.05983-0.12255 0.05983-0.051644 0-0.080675-0.03046-0.029033-0.03047-0.029033-0.08458 0-0.07506 0.046898-0.13463 0.047176-0.05983 0.12339-0.05983zm-0.054156 0.28234q0.047176 0 0.075092-0.05439 0.028196-0.05466 0.028196-0.12104 0-0.0775-0.055831-0.0775-0.046619 0-0.075372 0.05466-0.028752 0.05466-0.028752 0.12158 0 0.0767 0.056668 0.0767zm0.26603 0.02175h-0.053319l0.048014-0.22383q0.00335-0.01549 0.00335-0.02501 0-0.02639-0.039919-0.02639h-0.00447l0.00502-0.02339h0.1058l-0.015353 0.07018h0.00559q0.046339-0.07506 0.10412-0.07506 0.061135 0 0.061135 0.06173 0 0.01768-0.010319 0.0612l-0.014796 0.06582q-0.00754 0.03345-0.00754 0.05848 0 0.02665 0.020099 0.02665 0.016471 0 0.03657-0.01278l0.010319 0.01631q-0.037407 0.03154-0.069788 0.03154-0.023728 0-0.037965-0.01496-0.013958-0.01496-0.013958-0.04053t0.010886-0.07535l0.013128-0.05766q0.00837-0.03372 0.00837-0.05196 0-0.03289-0.02624-0.03289-0.031824 0-0.065322 0.04189-0.03322 0.04188-0.042711 0.0835zm0.47289-0.08405h-0.00362q-0.041036 0.08949-0.10692 0.08949-0.034895 0-0.054436-0.02666-0.019261-0.02692-0.019261-0.07506 0-0.0767 0.048851-0.14224 0.049132-0.06554 0.12143-0.06554 0.038801 0 0.066997 0.02013l0.025123-0.01414h0.018424l-0.039081 0.1784q-0.00837 0.03835-0.00837 0.06173 0 0.02829 0.018702 0.02829 0.01619 0 0.041315-0.01441l0.010319 0.01631q-0.041036 0.03318-0.080675 0.03318-0.044664 0-0.044664-0.04623 0-0.01768 0.00587-0.04324zm0.032383-0.17488q-0.013128-0.02013-0.04327-0.02013-0.048851 0-0.082071 0.06066-0.032939 0.06038-0.032939 0.12429 0 0.06445 0.036011 0.06445 0.028474 0 0.059739-0.04106 0.031265-0.04107 0.041315-0.08975zm0.14767-0.14088 0.00502-0.02339h0.10803l-0.066158 0.30352q-0.00865 0.03972-0.00865 0.06173 0 0.02829 0.018983 0.02829 0.016471 0 0.041036-0.01441l0.010319 0.01631q-0.03964 0.03318-0.077325 0.03318-0.020658 0-0.034057-0.01469-0.013127-0.01469-0.013127-0.03809 0-0.02639 0.01256-0.08758l0.046619-0.21377q0.00362-0.0166 0.00362-0.02502 0-0.0261-0.040199-0.0261z" stroke-width=".24738" style="mix-blend-mode:normal;paint-order:markers stroke fill"/></g><g style="mix-blend-mode:normal"><path id="a" d="m5.6478 58.483v3.6023" fill="none" stroke="#000" stroke-linecap="round" stroke-linejoin="round" stroke-width="1.2008" style="paint-order:markers stroke fill"/><use transform="translate(2.4015)" xlink:href="#a"/><use transform="translate(4.8031)" xlink:href="#a"/><use transform="translate(7.2046)" xlink:href="#a"/><use transform="translate(9.6062)" xlink:href="#a"/><use transform="translate(12.008)" xlink:href="#a"/><use transform="translate(14.409)" xlink:href="#a"/></g><g transform="matrix(1.0287 0 0 1.0085 -.67631 -.48804)"><rect x="23.073" y="51.329" width="38.52" height="10.716" fill="url(#ap)" stroke-linecap="round" stroke-linejoin="round" stroke-opacity=".5" stroke-width=".27276" style="mix-blend-mode:normal;paint-order:markers stroke fill"/><g transform="matrix(.99804 0 0 1.0227 .075076 -1.1666)" style="mix-blend-mode:normal"><rect x="24.213" y="51.329" width="17.544" height="9.8954" fill="url(#ag)" fill-opacity=".50216" style="mix-blend-mode:normal;paint-order:markers stroke fill"/><path d="m24.798 55.986h5.2631v-3.4925h5.8478v3.4925h5.2631v0.58208h-5.2631v3.4925l-5.8478-4e-6v-3.4925h-5.2631z" fill="url(#aa)" stroke-linecap="round" stroke-opacity=".75" stroke-width=".51013" style="mix-blend-mode:normal;paint-order:stroke markers fill"/><rect x="28.306" y="55.986" width=".58478" height=".58208" fill="url(#x)" style="mix-blend-mode:normal;paint-order:stroke markers fill"/><rect x="37.078" y="55.986" width=".58478" height=".58208" fill="url(#w)" style="mix-blend-mode:normal;paint-order:stroke markers fill"/><g stroke-linecap="round" stroke-opacity=".75"><path d="m24.798 56.568-0.58478 0.58208h5.8478v-0.58208zm11.111 0v0.58208h5.8478l-0.58478-0.58208z" fill="#fff" fill-opacity=".5" stroke-width=".52917" style="mix-blend-mode:normal;paint-order:stroke markers fill"/><path d="m24.213 55.404 0.58478 0.58208h5.2631v-0.58208zm11.696 0v0.58208h5.2631l0.58478-0.58208z" fill-opacity=".5" stroke-width=".52917" style="mix-blend-mode:normal;paint-order:stroke markers fill"/><path d="m30.061 60.06 1.7544-2.3283h-1.7544z" fill="url(#z)" stroke-width=".71456" style="paint-order:stroke markers fill"/></g><rect x="30.645" y="53.075" width="4.6783" height="4.6567" ry="0" fill="url(#y)" style="mix-blend-mode:normal;paint-order:stroke markers fill"/><ellipse cx="27.137" cy="59.478" rx=".58478" ry=".58208" fill="url(#l)" style="paint-order:stroke markers fill"/><path d="m27.627 59.369c0.06153 0.17943-0.06015 0.4806-0.34311 0.57683-0.13627 0.04635-0.47662 0.08837-0.58196-0.21528-0.06321-0.1822 0.09751 0.14477 0.5103 3e-3 0.37118-0.12758 0.35225-0.54674 0.41477-0.36444z" fill="url(#k)" stroke-linecap="round" stroke-opacity=".75" stroke-width=".77791" style="paint-order:stroke markers fill"/><use transform="matrix(1.1323 0 0 1.1 17.907 -6.5875)" fill="#000000" stroke-width=".98561" style="mix-blend-mode:normal" xlink:href="#b"/></g><g transform="matrix(.99804 0 0 1.0227 .090606 -1.1666)" style="mix-blend-mode:normal"><rect x="42.91" y="51.329" width="17.544" height="9.8954" fill="url(#ah)" fill-opacity=".50216" style="mix-blend-mode:normal;paint-order:markers stroke fill"/><rect x="44.08" y="57.15" width="15.204" height="2.3283" style="mix-blend-mode:normal;paint-order:stroke markers fill"/><path d="m49.928 57.15v0.58208l-5.8478 1e-6v1.1642l5.8478-3e-6 1e-6 0.58208h1.1696l-1e-6 -0.58208 1.1696-3e-6 1e-6 0.58209 1.1696 1e-6 -1e-6 -0.58209 1.1696-1e-6 1e-6 0.58209 1.1696 1e-6 -1e-6 -0.58209 1.1696-1e-6 1e-6 0.58209h1.1696l-1e-6 -0.58209 1.1696 4e-6 1e-6 -1.1642-1.1696-4e-6 -1e-6 -0.58208h-1.1696v0.58208l-1.1696 1e-6 -1e-6 -0.58208-1.1696-1e-6v0.58208l-1.1696 1e-6v-0.58208l-1.1696-1e-6v0.58208h-1.1696l-1e-6 -0.58208z" fill="#333" style="mix-blend-mode:normal;paint-order:stroke markers fill"/><rect x="45.834" y="57.15" width="2.3391" height="2.3283" fill="#fff" fill-opacity=".75" style="mix-blend-mode:normal;paint-order:stroke markers fill"/><rect x="46.419" y="57.732" width="1.1696" height="1.1642" ry="0" fill="#c00" style="mix-blend-mode:normal;paint-order:stroke markers fill"/><use transform="matrix(1.1 0 0 1.1 37.386 -6.5875)" fill="#000000" style="mix-blend-mode:normal" xlink:href="#b"/></g><rect x="23.073" y="51.329" width="38.52" height="1.1906" fill="url(#an)" style="mix-blend-mode:normal;paint-order:stroke markers fill"/><g stroke-linecap="round" stroke-linejoin="round" stroke-opacity=".5" stroke-width=".26458"><path d="m23.073 51.329 0.23186 9.5791c0.0043 0.33809 0.17582 0.54465 0.54366 0.54119h36.969c0.31779-0.01102 0.54998-0.15114 0.54366-0.54119l0.23186-9.5791c0.29896-4e-6 0.58364 0.30216 0.58364 0.59531v10.716c0 0.29316-0.29048 0.59531-0.58364 0.59531h-38.52c-0.29316 0-0.58364-0.30216-0.58364-0.59531v-10.716c0-0.29316 0.29048-0.59531 0.58364-0.59531z" fill="url(#ad)" style="paint-order:markers stroke fill"/><path d="m23.073 51.329 0.23186 9.5791c0.0043 0.33809 0.17582 0.54465 0.54366 0.54119l-0.77552 1.7859c-0.29316 0-0.58364-0.30216-0.58364-0.59531v-10.716c0-0.29316 0.29048-0.59531 0.58364-0.59531z" fill="url(#q)" style="paint-order:markers stroke fill"/><path d="m61.593 51.329-0.23186 9.5791c-0.0043 0.33809-0.17582 0.54465-0.54366 0.54119l0.77552 1.7859c0.29316 0 0.58364-0.30216 0.58364-0.59531v-10.716c0-0.29316-0.29048-0.59531-0.58364-0.59531z" fill="url(#o)" style="paint-order:markers stroke fill"/></g></g></g><g transform="matrix(.47458 0 0 .47458 .86102 2.8972)"><path d="m28.468 15.081 0.32171 1.1469c0.13159 0.46912 0.06908 0.87524-0.45039 0.89202-3.9026 0.10224-7.8063 0.19115-11.71 0.19115-3.9039 0-7.8077-0.08891-11.71-0.19115-0.53249 0.03188-0.89101-0.45163-0.96513-0.89202l-0.19303-1.1469z" fill="url(#f)" style="paint-order:normal"/><path d="m4.8895-1.4529c3.7109-0.11977 7.4238-0.19183 11.137-0.19183 3.7127 0 7.4257 0.072065 11.137 0.19183 0.53097 0.017137 0.96058 0.035833 1.001 0.95917 0.11382 2.5982 0.13556 5.2005 0.12513 7.8012-0.01043 2.6012-0.05492 5.2036-0.18769 7.8012-0.02797 0.48779-0.18309 0.87837-0.68821 0.89522-3.7948 0.10261-7.5907 0.19183-11.387 0.19183s-7.592-0.08923-11.387-0.19183c-0.51778 0.03199-0.64532-0.4493-0.68821-0.89522-0.13277-2.5976-0.17726-5.2-0.18769-7.8012-0.010429-2.6007 0.011304-5.2031 0.12513-7.8012 0.040452-0.92335 0.47009-0.94203 1.001-0.95917z" fill="url(#ak)" style="paint-order:normal"/><path d="m16.026-1.5771c-3.7111 0-7.4222 0.073047-11.132 0.19274-0.5559 0.017938-0.90317 0.051717-0.94022 0.8973-0.11373 2.5954-0.13602 5.1954-0.12559 7.7943 0.010421 2.5994 0.054744 5.1815 0.18741 7.7764 0.057134 0.72636 0.32103 0.8648 0.62796 0.86147 3.7936 0.10254 7.5877 0.18306 11.382 0.18307h4.69e-4c3.7942-7e-6 7.5882-0.08994 11.382-0.19249 0.28371-0.0094 0.5878-0.13415 0.62796-0.83413 0.13267-2.5949 0.17699-5.195 0.18741-7.7943 0.01044-2.599-0.0056-5.1992-0.12558-7.7943-0.0393-0.85024-0.38589-0.88261-0.94022-0.8973-3.7101-0.098297-7.4206-0.19274-11.132-0.19274z" fill="none" stroke="url(#ai)" stroke-linecap="round" stroke-width=".1328"/><rect x="5.5777" y=".08181" width="20.897" height="13.94" rx="3.4524e-18" ry="3.5825e-18" fill="url(#ab)" fill-opacity=".75" style="mix-blend-mode:normal"/><g><rect x="23.831" y=".027845" width=".27876" height="13.938" fill="url(#ae)" style="paint-order:fill markers stroke"/><path d="m16.026-0.36581c-3.2741 0-6.548 0.061318-9.8207 0.16161-0.49044 0.015029-0.79703 0.043342-0.82972 0.75185-0.10034 2.1746-0.11991 4.3529-0.11071 6.5306 0.00919 2.178 0.04841 4.3565 0.16545 6.5308 0.035429 0.58653 0.30352 0.69097 0.5538 0.69889 3.3469 0.08592 6.6943 0.16135 10.042 0.16136h4.68e-4c3.3474-6e-6 6.6945-0.07544 10.041-0.16136 0.2503-0.0078 0.51862-0.11238 0.55404-0.69889 0.11704-2.1743 0.15626-4.3528 0.16545-6.5308 0.0092-2.1776-0.01036-4.3559-0.11071-6.5306-0.03267-0.7085-0.33926-0.73682-0.8297-0.75185-3.2727-0.10029-6.5466-0.16161-9.8207-0.16161zm0 0.51155c3.1599 0 6.3198 0.056994 9.4783 0.15037 0.47333 0.013993 0.76884 0.040249 0.80039 0.69989 0.09684 2.0247 0.11594 4.053 0.10704 6.0805-0.0089 2.0278-0.04662 4.0561-0.15959 6.0805-0.03419 0.54606-0.29316 0.64331-0.53473 0.65068-3.2302 0.08-6.4606 0.15011-9.6912 0.15012h-4.68e-4c-3.2306-4e-6 -6.461-0.07012-9.6912-0.15012-0.24155-0.007375-0.50055-0.1046-0.53473-0.65068-0.11296-2.0243-0.15072-4.0527-0.15959-6.0805-0.0088746-2.0275 0.010204-4.0558 0.10704-6.0805 0.031548-0.65964 0.32706-0.6859 0.80039-0.69989 3.1585-0.093375 6.3185-0.15037 9.4783-0.15037z" fill="url(#aj)"/><rect x="6.5787" y=".59336" width="16.642" height="12.661" rx="3.473e-18" ry="3.5496e-18"/></g><path d="m11.606 8.51c0 0.75663 0.75662 1.5133 1.5132 1.5133-0.75662 1.5133-2.2699 1.5133-3.7831 2.2699 0.75662-1.5133 0.75662-3.0265 2.2699-3.7831z" fill="url(#n)" stroke-linecap="round" stroke-linejoin="round" stroke-miterlimit="3.3" stroke-width=".75663"/><g stroke-linecap="round" stroke-linejoin="round" stroke-miterlimit="3.3"><g stroke-width=".75663"><path d="m14.438 7.1811c1.1382 1.1349 1.7073 2.839 1.7073 5.1121 1.5133-1.5133 2.2699-6.053 0.75663-7.5663z" fill="url(#ao)"/><path d="m9.336 5.4835c2.2666 0 3.9674 0.56585 5.1024 1.6975l2.4639-2.4542c-1.5133-1.5133-6.053-0.75663-7.5663 0.75663z" fill="url(#am)"/><path d="m19.929 1.7004c0 4.5398-3.7831 6.8096-6.8096 8.3229-0.75662 0-1.5132-0.75663-1.5132-1.5133 1.5132-3.0265 3.7831-6.8096 8.3229-6.8096z" fill="url(#ac)"/></g><circle cx="16.839" cy="4.7899" r=".83627" fill="url(#p)" stroke="#000" stroke-opacity=".25" stroke-width=".22067" style="paint-order:stroke fill markers"/></g><rect x="6.5787" y=".59336" width="16.642" height="12.661" rx="3.473e-18" ry="3.5496e-18" fill="url(#i)"/><path d="m6.5162 0.40153c-0.13864 0-0.25026 0.11408-0.25026 0.25578v12.533c0 0.1417 0.11162 0.25578 0.25026 0.25578 0 0 5.5891 0.12789 8.3837 0.12789 2.7946 0 8.3837-0.12789 8.3837-0.12789 0.13864 0 0.25026-0.11408 0.25026-0.25578v-12.533c0-0.1417-0.11162-0.25578-0.25026-0.25578zm8.3837 0.25578c2.629 2.1e-7 5.2561 0.15171 7.8832 0.25578 0.16116 0.006379 0.2444 0.070119 0.25026 0.25578 0.22925 3.7982 0.21586 7.7171 0 11.51-0.0073 0.12787-0.12513 0.24672-0.25026 0.25578-2.5849 0.18722-5.2918 0.25578-7.8832 0.25578-2.5498 0-5.2149-0.06869-7.758-0.25578-0.12513-0.009188-0.23419-0.12855-0.25026-0.25578-0.47783-3.7824-0.24539-7.7108-0.12513-11.51 0.0058999-0.18564 0.089069-0.24939 0.25026-0.25578 2.6271-0.10407 5.2554-0.25578 7.8832-0.25578z" fill="url(#af)" stroke-miterlimit="3.6" stroke-opacity=".5" stroke-width=".1265" style="paint-order:fill markers stroke"/><g transform="matrix(.42087 0 0 .43015 1.3953 -2.1196)" stroke-width="1.2" style="mix-blend-mode:normal"><rect x="54.633" y="8.8805" width="3.9729" height="3.8883" rx="8.8124e-18" ry="7.2942e-18" fill="url(#r)" style="mix-blend-mode:normal;paint-order:markers stroke fill"/><use transform="matrix(1.2513 0 0 1.2682 47.348 -58.897)" stroke-width="1.1431" style="mix-blend-mode:normal" xlink:href="#b"/><g><path d="m57.134 11.074c-0.0096 0-0.01742 0.0039-0.02327 0.01154-0.0057 0.0075-0.0084 0.01781-0.0084 0.03029 0 0.0215 0.0099 0.03173 0.02975 0.03173 0.0093 0 0.01678-0.0032 0.02264-0.01005 6e-3 -0.0071 0.0091-0.01757 0.0091-0.03101 0-0.0217-0.0099-0.03245-0.02975-0.03245zm-1.1956 6.96e-4 -0.0045 0.02524h0.0045c0.0248 0 0.03685 9e-3 0.03685 0.02741 0 0.0035-0.0019 0.01373-0.0052 0.03101l-0.06854 0.3649h0.04914l0.02845-0.15144c0.0055-0.0288 0.01878-0.05749 0.03944-0.08726 0.02083-0.02995 0.04116-0.04543 0.06078-0.04543 0.01618 0 0.02457 0.0121 0.02457 0.03533 0 0.01287-0.0026 0.031-0.0077 0.05481l-0.01229 0.06129c-0.0067 0.03514-0.01032 0.06127-0.01032 0.07933 0 0.01805 0.0043 0.0327 0.01293 0.04327 0.0088 0.01056 0.02028 0.01586 0.03492 0.01586 0.01998 0 0.04159-0.01162 0.06466-0.0339l-0.0091-0.01731c-0.0124 9e-3 -0.02411 0.0137-0.03426 0.0137-0.0124 0-0.01875-0.0093-0.01875-0.02812 0-0.01766 0.0024-0.0384 0.0071-0.06202l0.01358-0.06995c0.0064-0.03073 0.0097-0.0517 0.0097-0.06418 0-0.04359-0.01854-0.06562-0.05625-0.06562-0.03598 0-0.06901 0.02632-0.09829 0.07933h-0.0052c0.0077-0.03304 0.01449-0.06582 0.0207-0.09808l0.02069-0.10817zm-0.89555 0.02741-0.0045 0.02452h0.0071c0.01515 0 0.02492 0.0024 0.02975 0.0072 0.0048 0.0048 0.0071 0.0117 0.0071 0.02091 0 0.0041-2.52e-4 9e-3 -0.0014 0.01442l-0.05496 0.2899c-0.0024 0.01229-0.0072 0.02174-0.01422 0.02885-0.0069 0.0069-0.0196 0.01005-0.03751 0.01005h-0.0071l-0.0039 0.02524h0.28386l0.02327-0.10312h-0.0278l-0.0084 0.02524c-0.01011 0.03226-0.03034 0.04832-0.06013 0.04832h-0.10152l0.03363-0.17668h0.12738l0.0052-0.02885h-0.12738l0.03039-0.15649h0.08859c0.02514 0 0.03751 0.01263 0.03751 0.03894 0 0.0016-4.18e-4 0.0073-0.0014 0.01659l-0.0014 0.01802h0.02781l0.01681-0.10312zm1.8978 0.03173c-0.01946 0.05511-0.04639 0.08294-0.08082 0.08294l-0.0045 0.0238h0.04009l-0.03234 0.17019c-0.0034 0.01825-0.0052 0.03425-0.0052 0.04904 0 0.0459 0.01914 0.06923 0.05755 0.06923 0.02376 0 0.04736-0.0093 0.07112-0.02812l-0.0091-0.02235c-0.01446 0.0087-0.02838 0.01298-0.04268 0.01298-0.01877 0-0.02845-0.01095-0.02845-0.03245 0-0.01114 0.0022-0.02782 0.0065-0.05048l0.03233-0.16803h0.06401l0.0065-0.03389h-0.06401l0.01358-0.07284zm0.83994 0.04398c-0.02134 0-0.04021 0.01398-0.0569 0.04183-0.01377-0.01248-0.03175-0.01875-0.05432-0.01875-0.03685 0-0.06667 0.01384-0.08924 0.04111-0.02239 0.02707-0.03363 0.05692-0.03363 0.09015 0 0.0336 0.01223 0.05709 0.03685 0.06995-0.01946 0.01114-0.03238 0.02112-0.03944 0.02956-0.0069 0.0085-0.01032 0.01819-0.01032 0.03029 0 0.01785 0.0083 0.03189 0.02522 0.0411-0.02669 0.0058-0.04787 0.0155-0.06337 0.03029-0.01533 0.01498-0.02263 0.03369-0.02263 0.05481 0 0.05128 0.03813 0.07644 0.1151 0.07644 0.04597 0 0.08125-0.01046 0.10604-0.03101 0.0248-0.02035 0.03751-0.04842 0.03751-0.08509 0-0.04494-0.02736-0.07063-0.08212-0.07716l-0.05108-0.0065c-0.01808-2e-3 -0.02651-0.0075-0.02651-0.01731 0-0.01344 0.01237-0.02617 0.03751-0.0375 0.0031 7.66e-4 0.0088 0.0015 0.01681 0.0015 0.03633 0 0.06572-0.01365 0.08794-0.04111 0.02221-0.02766 0.03297-0.05783 0.03297-0.09087 0-0.01805-0.0039-0.03314-0.01164-0.04543 0.0105-9e-3 0.01962-0.0137 0.02651-0.0137 0.0098 0 0.01422 0.0067 0.01422 0.02091 0.02083 0 0.03168-0.01167 0.03168-0.03605 0-0.01805-0.0094-0.02741-0.02716-0.02741zm-1.9793 0.02308c-0.04545 0-0.08337 0.02188-0.11316 0.0649-0.02979 0.04282-0.04462 0.08987-0.04462 0.14134 0 0.03783 0.0095 0.06772 0.02846 0.08943 0.01895 0.0217 0.04419 0.03245 0.075 0.03245 0.02789 0 0.05007-0.0073 0.0666-0.02092 0.0167-0.01384 0.02458-0.02824 0.02458-0.04399 0-0.0073-0.0016-0.01263-0.0052-0.01514-0.01998 0.02822-0.04547 0.04254-0.0763 0.04254-0.03874 0-0.05819-0.02666-0.05819-0.08005 0-0.03937 0.0096-0.07933 0.02781-0.12043 0.01842-0.0411 0.03939-0.06202 0.06401-0.06202 0.01274 0 0.02316 0.0066 0.03038 0.01947 0.0072 0.01267 0.011 0.02955 0.011 0.05048 0.01429 0 0.02518-0.0037 0.03363-0.01154 0.0087-0.0078 0.01293-0.01838 0.01293-0.03029 0-0.01613-0.0065-0.0289-0.02005-0.03966-0.0136-0.01075-0.03263-0.01659-0.0569-0.01659zm0.57419 0c-0.0446 0-0.08221 0.02295-0.11251 0.06923-0.03013 0.04628-0.04526 0.09656-0.04526 0.15072 0 0.03399 0.0063 0.06103 0.0181 0.08005 0.01205 0.01882 0.02891 0.02812 0.05044 0.02812 0.04064 0 0.07362-0.03201 0.09893-0.09519h0.0032c-0.0036 0.01805-0.0052 0.03368-0.0052 0.04615 0 0.03264 0.01384 0.04904 0.04138 0.04904 0.02445 0 0.04905-0.01191 0.07436-0.03534l-0.0097-0.01731c-0.0155 0.01015-0.02816 0.01514-0.03814 0.01514-0.01154 0-0.01745-0.0096-0.01745-0.02956 0-0.01651 0.0026-0.03854 0.0077-0.06562l0.03621-0.18894h-0.01681l-0.02327 0.01514c-0.01738-0.01421-0.03814-0.02163-0.06207-0.02163zm-0.85223 6.97e-4c-0.03564 0-0.06776 0.02632-0.09635 0.07933h-0.0052l0.01422-0.07428h-0.09764l-0.0045 0.02452h0.0039c0.02462 0 0.03685 0.0095 0.03685 0.02812 0 0.0067-5.05e-4 0.01574-0.0026 0.02668l-0.04462 0.23726h0.04914l0.02846-0.15144c0.0058-0.02939 0.01895-0.05841 0.03944-0.08798 0.02066-0.02957 0.04116-0.04471 0.06078-0.04471 0.01619 0 0.02393 0.0121 0.02393 0.03533 0 0.01287-0.0026 0.031-0.0077 0.05481l-0.01228 0.06129c-0.0067 0.03514-0.0097 0.06127-0.0097 0.07932s0.0043 0.0327 0.01293 0.04327c0.0088 0.01056 0.02028 0.01586 0.03492 0.01586 0.01998 0 0.04158-0.01162 0.06466-0.0339l-0.0097-0.01731c-0.0124 9e-3 -0.02346 0.0137-0.03363 0.0137-0.0124 0-0.01875-0.0093-0.01875-0.02812 0-0.01767 0.0024-0.0384 0.0071-0.06202l0.01358-0.06923c0.0064-0.03073 0.0097-0.05242 0.0097-0.0649 0-0.04359-0.0192-0.06562-0.0569-0.06562zm1.1982 0c-0.03564 0-0.06776 0.02632-0.09635 0.07933h-0.0052l0.01422-0.07428h-0.09829l-0.0045 0.02452h0.0039c0.02462 0 0.03751 0.0095 0.03751 0.02812 0 0.0067-0.0011 0.01574-0.0032 0.02668l-0.04462 0.23726h0.04914l0.02846-0.15144c0.0058-0.02939 0.01895-0.05841 0.03943-0.08798 0.02066-0.02957 0.04116-0.04471 0.06078-0.04471 0.01618 0 0.02392 0.0121 0.02392 0.03533 0 0.01287-0.0026 0.031-0.0077 0.05481l-0.01164 0.06129c-0.0067 0.03514-0.01032 0.06127-0.01032 0.07932s0.0043 0.0327 0.01293 0.04327c0.0088 0.01056 0.02028 0.01586 0.03492 0.01586 0.01998 0 0.04159-0.01162 0.06466-0.0339l-0.0097-0.01731c-0.0124 9e-3 -0.02347 0.0137-0.03363 0.0137-0.0124 0-0.01876-0.0093-0.01876-0.02812 0-0.01767 0.0024-0.0384 0.0071-0.06202l0.01358-0.06923c0.0064-0.03073 0.0097-0.05242 0.0097-0.0649 0-0.04359-0.01854-0.06562-0.05625-0.06562zm0.67247 0c-0.03564 0-0.06775 0.02632-0.09635 0.07933h-0.0052l0.01422-0.07428h-0.09829l-0.0045 0.02452h0.0045c0.02462 0 0.03685 0.0095 0.03685 0.02812 0 0.0067-0.0011 0.01574-0.0032 0.02668l-0.04462 0.23726h0.04914l0.02846-0.15144c0.0058-0.02939 0.01959-0.05841 0.04009-0.08798 0.02066-0.02957 0.0405-0.04471 0.06013-0.04471 0.01618 0 0.02457 0.0121 0.02457 0.03533 0 0.01287-0.0026 0.031-0.0077 0.05481l-0.01229 0.06129c-0.0067 0.03514-0.01032 0.06127-0.01032 0.07932s0.0043 0.0327 0.01293 0.04327c0.0088 0.01056 0.02093 0.01586 0.03556 0.01586 0.01997 0 0.04094-0.01162 0.06401-0.0339l-0.0091-0.01731c-0.0124 9e-3 -0.02411 0.0137-0.03426 0.0137-0.0124 0-0.0181-0.0093-0.0181-0.02812 0-0.01767 0.0018-0.0384 0.0065-0.06202l0.01358-0.06995c0.0064-0.03072 0.0097-0.0517 0.0097-0.06418 0-0.04359-0.01854-0.06563-0.05626-0.06563zm-0.34335 5e-3 -0.0045 0.02452h0.0071c0.02152 0 0.03234 0.0087 0.03234 0.02524 0 0.0041-7.5e-4 0.0088-2e-3 0.01514l-0.02069 0.10889c-0.0079 0.04416-0.01164 0.07464-0.01164 0.0923 0 0.01613 0.0042 0.02983 0.01228 0.04039 0.0081 0.01056 0.0186 0.01586 0.03168 0.01586 0.02324 0 0.04733-0.01191 0.07177-0.03534l-0.0097-0.01731c-0.01515 0.01015-0.02799 0.01514-0.03814 0.01514-0.01171 0-0.01747-0.0096-0.01747-0.02956 0-0.01536 0.0024-0.03739 0.0077-0.06562l0.03621-0.18966zm-0.67182 0.02092c0.0186 0 0.03135 0.0067 0.03944 0.02091l-0.01939 0.10457c-0.0062 0.03437-0.01887 0.06619-0.03815 0.09519-0.01929 0.029-0.03805 0.04327-0.05561 0.04327-0.02221 0-0.03297-0.02228-0.03297-0.06779 0-0.04513 0.01012-0.08934 0.03039-0.13197 0.02049-0.04282 0.04617-0.06418 0.0763-0.06418zm1.2842 6.97e-4c0.02428 0 0.03621 0.01605 0.03621 0.04832 0 0.0265-0.0064 0.05109-0.01875 0.07356-0.01223 0.02228-0.02835 0.03317-0.0485 0.03317-0.02444 0-0.03685-0.01605-0.03685-0.04832 0-0.02611 6e-3 -0.05037 0.0181-0.07284 0.01223-0.02266 0.02912-0.0339 0.04979-0.0339zm-0.07823 0.28774 0.05108 5e-3c0.03289 0.0032 0.04979 0.01825 0.04979 0.04398 0 0.0217-0.0082 0.03853-0.02457 0.05119-0.01618 0.01287-0.04013 0.01947-0.07112 0.01947-0.04976 0-0.07436-0.01702-0.07436-0.05119 0-0.01594 0.0045-0.02944 0.01358-0.04038 0.0092-0.01094 0.01976-0.01831 0.03233-0.02235 0.01274-0.0041 0.0207-6e-3 0.02328-0.0058zm-0.62139 0.29639c-0.0096 0-0.01742 0.0039-0.02328 0.01154-0.0057 0.0075-0.0084 0.01781-0.0084 0.03029 0 0.02151 0.0099 0.03173 0.02975 0.03173 0.0093 0 0.01678-0.0032 0.02263-0.01005 6e-3 -0.0071 0.0091-0.01756 0.0091-0.03101 0-0.0217-0.0099-0.03245-0.02975-0.03245zm-1.2952 6.97e-4 -0.0052 0.02524h0.0065c0.0248 0 0.03751 9e-3 0.03751 0.02741 0 6e-3 -0.0017 0.01497-0.0039 0.02668l-0.04268 0.22644c-0.0077 0.04321-0.01164 0.07367-0.01164 0.0923 0 0.01651 0.0035 0.03001 0.01164 0.04039 0.0082 0.01036 0.01895 0.01586 0.03168 0.01586 0.02324 0 0.04733-0.01191 0.07177-0.03534l-0.0097-0.01731c-0.01515 0.01015-0.02799 0.01514-0.03814 0.01514-0.01171 0-0.01747-0.0096-0.01747-0.02956 0-0.01555 3e-3 -0.03758 0.0084-0.06562l0.06078-0.32163zm1.9443 0-0.0045 0.02524h0.0058c0.02479 0 0.03751 9e-3 0.03751 0.02741 0 6e-3 -1e-3 0.01497-0.0032 0.02668l-0.04331 0.22644c-0.0077 0.04321-0.01164 0.07367-0.01164 0.0923 0 0.01651 0.0042 0.03001 0.01228 0.04039 0.0082 0.01036 0.01895 0.01586 0.03168 0.01586 0.02324 0 0.04668-0.01191 0.07112-0.03534l-0.0097-0.01731c-0.01515 0.01015-0.02735 0.01514-0.03751 0.01514-0.01171 0-0.01747-0.0096-0.01747-0.02956 0-0.01555 0.0024-0.03758 0.0077-0.06562l0.06143-0.32163zm-2.3924 0.02092c-0.06199 0-0.11416 0.02767-0.15583 0.08221-0.04167 0.05435-0.06207 0.11876-0.06207 0.19327 0 0.05032 0.01249 0.08936 0.03814 0.11683 0.02583 0.02746 0.06201 0.04111 0.10798 0.04111 0.03444 0 0.0612-0.0077 0.08082-0.02236 0.01963-0.01479 0.02975-0.03166 0.02975-0.05048 0-0.0094-0.0024-0.0158-0.0071-0.01947-0.02445 0.03573-0.05747 0.05408-0.09829 0.05408-0.06268 0-0.09376-0.03679-0.09376-0.11034 0-0.06279 0.01469-0.12099 0.04397-0.1738 0.02945-0.05301 0.06571-0.07932 0.10928-0.07932 0.03513 0 0.05302 0.02665 0.05302 0.08005 0.01567 0 0.02803-4e-3 0.03751-0.01227 0.0095-0.0083 0.01422-0.01987 0.01422-0.03389 0-0.02017-0.0087-0.03589-0.02587-0.0476-0.01722-0.01191-0.04096-0.01802-0.07177-0.01802zm1.3081 0.0065-0.0045 0.02452h0.0065c0.02548 0 0.03815 0.0081 0.03815 0.0238 0 0.0037-5.67e-4 0.0093-2e-3 0.01659l-0.05496 0.28918c-0.0053 0.02822-0.02246 0.04183-0.05173 0.04183h-0.0071l-0.0045 0.02524h0.16682c0.06422 0 0.1155-0.02512 0.15389-0.07428 0.03839-0.04935 0.05755-0.1115 0.05755-0.18678 0-0.05147-0.01281-0.09062-0.0388-0.11827-0.02601-0.02785-0.06318-0.04183-0.11122-0.04183zm0.09829 0.02884h0.04203c0.06698 0 0.10023 0.0418 0.10023 0.12476 0 0.07106-0.01483 0.12876-0.04462 0.17235-0.02961 0.04359-0.06995 0.06491-0.12092 0.06491h-0.04591zm-1.14 0.06995c-0.04701 0-0.08535 0.02121-0.11445 0.06346-0.02892 0.04206-0.04332 0.08978-0.04332 0.14279 0 0.03822 0.0093 0.06792 0.02716 0.08942 0.0179 0.02151 0.04251 0.03245 0.07436 0.03245 0.04683 0 0.08504-0.02121 0.1138-0.06346 0.02876-0.04244 0.04268-0.09036 0.04268-0.14279 0-0.03956-0.0087-0.06921-0.02651-0.09015-0.0179-0.02093-0.04254-0.03173-0.07371-0.03173zm0.46426 0c-0.04701 0-0.0847 0.02121-0.1138 0.06346-0.02893 0.04206-0.04333 0.08978-0.04333 0.14279 0 0.03822 0.0087 0.06792 0.02651 0.08942 0.0179 0.02151 0.04315 0.03245 0.075 0.03245 0.04683 0 0.0844-0.02121 0.11316-0.06346 0.02876-0.04244 0.04331-0.09036 0.04331-0.14279 0-0.03956-0.0093-0.06921-0.02715-0.09015-0.0179-0.02093-0.04254-0.03173-0.07371-0.03173zm0.33042 0c-0.01826 0-0.03408 0.0061-0.04785 0.01875-0.01377 0.01267-0.0279 0.03697-0.04203 0.07212h-0.0052l0.01099-0.08509h-0.09311l-0.0052 0.02452h0.0045c0.02807 0 0.04203 0.0095 0.04203 0.02812 0 0.0067-0.0011 0.01574-0.0032 0.02667l-0.04462 0.23726h0.04979l0.01939-0.10745c0.0088-0.04531 0.02248-0.08596 0.04074-0.12187 0.01843-0.03592 0.03602-0.05408 0.05238-0.05408 0.01412 0 0.02133 0.01577 0.02133 0.04687 0.02927 0 0.04397-0.01548 0.04397-0.04543 0-0.02707-0.01505-0.04038-0.04397-0.04038zm1.1833 0c-0.03908 0-0.07151 0.02811-0.09699 0.08437h-0.0026l0.01293-0.0786h-0.09376l-0.0045 0.02452h0.0039c0.02462 0 0.03685 0.0095 0.03685 0.02812 0 0.0043-0.0015 0.01449-0.0045 0.03101l-0.07048 0.37427h0.09958l0.0045-0.02452h-0.0071c-0.02462 0-0.03685-0.0092-0.03685-0.02741 0-0.0055 0.0019-0.01685 0.0052-0.03317l0.0071-0.03606c0.0014-0.0064 3e-3 -0.01545 0.0045-0.02812 0.01428 9e-3 0.03158 0.0137 0.05173 0.0137 0.04615 0 0.08371-0.02415 0.11316-0.07139 0.02962-0.04743 0.04462-0.09719 0.04462-0.15 0-0.03457-0.0057-0.06109-0.01745-0.07933-0.01153-0.01824-0.02827-0.02741-0.04979-0.02741zm0.43129 0c-0.0446 0-0.08221 0.02295-0.11251 0.06923-0.03014 0.04628-0.04527 0.09656-0.04527 0.15072 0 0.03399 0.0063 0.06103 0.0181 0.08005 0.01205 0.01882 0.02891 0.02812 0.05044 0.02812 0.04064 0 0.07362-0.03201 0.09893-0.09519h0.0032c-0.0037 0.01805-0.0058 0.03368-0.0058 0.04615 0 0.03264 0.01383 0.04904 0.04139 0.04904 0.02445 0 0.0497-0.01191 0.075-0.03534l-0.0097-0.01731c-0.0155 0.01015-0.02816 0.01514-0.03814 0.01514-0.01154 0-0.01747-0.0096-0.01747-0.02956 0-0.01651 0.0026-0.03854 0.0077-0.06562l0.03621-0.18894h-0.01681l-0.02328 0.01514c-0.01739-0.0142-0.03814-0.02163-0.06207-0.02163zm-0.7436 6.96e-4c-0.03031 0-0.05477 8e-3 -0.07371 0.02452-0.01877 0.01633-0.02846 0.03773-0.02846 0.06346 0 0.01882 0.0043 0.03535 0.01293 0.04975 0.0088 0.0142 0.02642 0.02766 0.05173 0.0411 0.01946 0.0099 0.03265 0.0205 0.04074 0.03029 0.0081 0.0096 0.01228 0.02132 0.01228 0.03533 0 0.03649-0.01885 0.05481-0.0569 0.05481-0.01911 0-0.03394-0.0068-0.04462-0.02019-0.0105-0.01364-0.01616-0.03258-0.01616-0.05697-0.0096 0-0.01756 0.0026-0.02393 0.0094-0.0062 0.0066-0.0091 0.01617-0.0091 0.02884 0 0.02036 0.0076 0.03694 0.02327 0.04904 0.01584 0.01191 0.03732 0.01802 0.06401 0.01802 0.03305 0 0.05956-0.0088 0.07953-0.02668 0.01998-0.01786 0.02975-0.04167 0.02975-0.07067 0-0.03994-0.02101-0.07046-0.06337-0.09158-0.01843-9e-3 -0.03196-0.01819-0.04074-0.02741-0.0088-0.0092-0.01293-0.02011-0.01293-0.03317 0-0.01479 0.0045-0.02737 0.01358-0.03678 0.0093-0.0096 0.02167-0.01442 0.03751-0.01442 0.01498 0 0.02665 0.0062 0.03492 0.01802 0.0084 0.01191 0.01293 0.02782 0.01293 0.0476 0.02653 0 0.03944-0.01239 0.03944-0.03678 0-0.01575-0.0073-0.0289-0.02198-0.03966-0.01446-0.01075-0.03478-0.01587-0.06078-0.01587zm1.0857 0c-0.0093 0-0.01704 0.0037-0.02392 0.01154-0.0069 0.0078-0.01032 0.01848-0.01032 0.03173 0.01738 0 0.02587 0.01114 0.02587 0.03245 0 0.04973-0.02343 0.11458-0.07112 0.19543h-2e-3c-0.0021-0.02189-0.0093-0.05738-0.02198-0.10673l-0.04139-0.15937h-0.07695l-0.0045 0.02452h0.0058c0.0105 0 0.01793 0.0024 0.02327 0.0072 0.0054 0.0046 0.0098 0.013 0.01293 0.02452l0.06983 0.26105c-0.04856 0.07163-0.09827 0.10745-0.14872 0.10745-0.01515 0-0.02898-0.0028-0.04138-0.0072l-0.0077 0.02956c0.01464 0.0071 0.0312 0.01081 0.04979 0.01081 0.04683 0 0.08457-0.01359 0.11316-0.04183 0.02876-0.02822 0.06692-0.08579 0.11445-0.17163 0.04753-0.08603 0.07112-0.15232 0.07112-0.19976 0-0.03304-0.01227-0.04975-0.03621-0.04975zm-1.3572 5e-3 -0.0052 0.02452 0.0071 6.97e-4c0.02152 0 0.03233 8e-3 0.03233 0.02452 0 0.0041-7.5e-4 0.0088-2e-3 0.01514l-0.02004 0.10889c-0.0079 0.04417-0.01228 0.07464-0.01228 0.0923 0 0.01613 0.0042 0.02983 0.01228 0.04038 0.0081 0.01056 0.0186 0.01587 0.03168 0.01587 0.02324 0 0.04733-0.01191 0.07177-0.03534l-0.0097-0.01731c-0.01515 0.01015-0.02799 0.01514-0.03814 0.01514-0.01171 0-0.01745-0.0096-0.01745-0.02956 0-0.01536 3e-3 -0.03739 0.0084-0.06563l0.03556-0.18966zm1.0178 0.02092c0.0186 0 0.03199 0.0067 0.04009 0.02091l-0.01939 0.10457c-0.0062 0.03438-0.01886 0.06619-0.03814 0.09519-0.01929 0.029-0.03804 0.04327-0.05561 0.04327-0.02221 0-0.03297-0.02228-0.03297-0.06779 0-0.04513 0.01011-0.08934 0.03038-0.13197 0.02049-0.04282 0.04553-0.06418 0.07565-0.06418zm-2.4183 0.0043c0.03444 0 0.05173 0.02748 0.05173 0.08221 0 0.04685-0.0084 0.08976-0.02587 0.12836-0.01722 0.03841-0.04074 0.05769-0.06983 0.05769-0.03495 0-0.05238-0.02734-0.05238-0.08149 0-0.04724 0.0088-0.08976 0.02651-0.12836 0.01774-0.0386 0.04107-0.05841 0.06983-0.05841zm0.46491 0c0.03444 0 0.05173 0.02748 0.05173 0.08221 0 0.04685-0.0091 0.08976-0.02651 0.12836-0.01722 0.03841-0.04008 0.05769-0.06918 0.05769-0.03495 0-0.05238-0.02734-0.05238-0.08149 0-0.04724 0.0088-0.08976 0.02651-0.12836 0.01774-0.0386 0.04107-0.05841 0.06983-0.05841zm1.4995 0.0065c0.02221 0 0.03363 0.02262 0.03363 0.0685 0 0.04436-0.01054 0.08823-0.03104 0.13125-0.02031 0.04282-0.04492 0.06418-0.07436 0.06418-0.01653 0-0.03067-0.0069-0.04203-0.02091l0.02133-0.1125c6e-3 -0.03054 0.0189-0.05974 0.03751-0.08798 0.0186-0.02842 0.03671-0.04254 0.05496-0.04254z" stroke-miterlimit="3.6" stroke-opacity=".5" stroke-width=".381" style="mix-blend-mode:normal;paint-order:fill markers stroke"/><rect x="54.634" y="12.769" width="1.3243" height="1.2961" rx="1.175e-17" ry="1.702e-17" fill="#800" style="mix-blend-mode:normal;paint-order:fill markers stroke"/><rect x="55.958" y="12.769" width="1.3243" height="1.2961" rx="1.175e-17" ry="1.702e-17" fill="#061" style="mix-blend-mode:normal;paint-order:fill markers stroke"/><rect x="57.283" y="12.769" width="1.3243" height="1.2961" rx="1.175e-17" ry="1.702e-17" fill="#039" style="mix-blend-mode:normal;paint-order:fill markers stroke"/></g></g><circle cx="25.225" cy="6.9968" r=".83627" fill="url(#j)" style="mix-blend-mode:normal;paint-order:stroke markers fill"/><ellipse cx="25.225" cy="6.9968" rx=".25088" ry=".25088" fill="url(#m)" style="mix-blend-mode:normal;paint-order:stroke markers fill"/><g id="aq" transform="matrix(.47293 0 0 .48336 -.42639 1.0799)"><path d="m56.346 24.344-1.5435 1.5435 0.14032-0.14032-1.8099-1.6219 1.684-1.684z" fill="url(#h)" stroke-miterlimit="3.6" stroke-width=".26458" style="paint-order:stroke fill markers"/><circle cx="53.975" cy="23.283" r="1.1906" fill="url(#g)" stroke="url(#u)" stroke-miterlimit="3.6" stroke-width=".26458" style="paint-order:stroke fill markers"/><circle cx="54.24" cy="23.548" r=".92604" fill="#847c6a" stroke="url(#t)" stroke-miterlimit="3.6" stroke-width=".26458" style="paint-order:stroke markers fill"/></g><use id="e" transform="translate(0 -1.6725)" xlink:href="#aq"/><use transform="translate(0 -1.6725)" xlink:href="#e"/></g></svg>
