<?xml version="1.0" encoding="UTF-8"?>
<svg width="32" height="32" version="1.1" viewBox="0 0 8.4667 8.4667" xmlns="http://www.w3.org/2000/svg" xmlns:xlink="http://www.w3.org/1999/xlink"><defs><linearGradient id="c"><stop stop-color="#292929" offset="0"/><stop stop-color="#3d3d3d" offset="1"/></linearGradient><linearGradient id="b"><stop stop-color="#c2cada" offset="0"/><stop stop-color="#9ea09f" offset="1"/></linearGradient><linearGradient id="w" x1="2.6458" x2="2.6458" y1="49.477" y2="65.088" gradientTransform="matrix(.53822 0 0 .57691 -1.1859 -4.884)" gradientUnits="userSpaceOnUse"><stop stop-color="#cfccc3" offset="0"/><stop stop-color="#aba8a5" offset="1"/></linearGradient><linearGradient id="l" x1="5.2573" x2="8.2756" y1="52.971" y2="55.989" gradientTransform="matrix(.93491 0 0 .93509 -3.5288 -27.538)" gradientUnits="userSpaceOnUse" xlink:href="#b"/><linearGradient id="x" x1="23.019" x2="23.019" y1="51.329" y2="61.383" gradientTransform="matrix(.69775 0 0 .74576 -2.0073 -17.843)" gradientUnits="userSpaceOnUse"><stop stop-color="#1c1c21" offset="0"/><stop stop-color="#2f2e38" offset="1"/></linearGradient><linearGradient id="t" x1="42.598" x2="42.598" y1="51.329" y2="61.383" gradientTransform="matrix(.6628 0 0 .68867 -.33077 -14.227)" gradientUnits="userSpaceOnUse" xlink:href="#c"/><linearGradient id="s" x1="42.598" x2="42.598" y1="51.329" y2="61.383" gradientTransform="matrix(.6628 0 0 .68867 -.78286 -14.227)" gradientUnits="userSpaceOnUse" xlink:href="#c"/><radialGradient id="i" cx="27.208" cy="57.856" r=".52917" gradientTransform="matrix(-9.2292e-6 1.9066 -1.9155 -9.4548e-6 126.62 -25.42)" gradientUnits="userSpaceOnUse"><stop stop-color="#fff" offset="0"/><stop stop-color="#f00" offset=".49806"/><stop stop-color="#a00" offset="1"/></radialGradient><linearGradient id="v" x1="7.9375" x2="7.9326" y1="2.6458" y2="39.555" gradientTransform="matrix(.30096 0 0 .3076 -3.5851 -5.2461)" gradientUnits="userSpaceOnUse"><stop stop-color="#d5d2d4" offset="0"/><stop stop-color="#abaaab" offset=".07"/><stop stop-color="#a2a2a2" offset=".93"/><stop stop-color="#686868" offset="1"/></linearGradient><linearGradient id="u" x1="11.159" x2="12.747" y1="33.478" y2="35.983" gradientTransform="matrix(.30096 0 0 .3076 -3.5851 -5.2461)" gradientUnits="userSpaceOnUse"><stop stop-color="#5b5958" offset="0"/><stop stop-color="#847e7b" offset=".5"/><stop stop-color="#c0bfbe" offset="1"/></linearGradient><linearGradient id="r" x1="13.229" x2="25.4" y1="6.8792" y2="33.867" gradientTransform="matrix(.30096 0 0 .3076 -4.0641 -5.2461)" gradientUnits="userSpaceOnUse"><stop stop-color="#413f3f" offset="0"/><stop stop-color="#726c69" offset=".5"/><stop stop-color="#a7a5a4" offset="1"/></linearGradient><linearGradient id="k" x1="51.656" x2="54.968" y1="9.7535" y2="13.668" gradientTransform="matrix(1.8862 0 0 1.5892 -43.937 -8.1753)" gradientUnits="userSpaceOnUse" xlink:href="#b"/><radialGradient id="j" cx="27.208" cy="57.856" r=".52917" gradientTransform="matrix(-2.0306e-6 .4291 -.42143 -2.1279e-6 36.648 -11.197)" gradientUnits="userSpaceOnUse"><stop stop-color="#ffb" offset="0"/><stop stop-color="#af0" offset=".49806"/><stop stop-color="#0f0" offset="1"/></radialGradient><radialGradient id="h" cx="53.975" cy="20.637" r=".79375" gradientTransform="matrix(.70238 2.5125e-6 -1.2169e-6 .71516 -25.589 -14.225)" gradientUnits="userSpaceOnUse"><stop stop-color="#0f0" stop-opacity=".2" offset=".3"/><stop stop-color="#0f0" stop-opacity="0" offset="1"/></radialGradient><radialGradient id="f" cx="53.975" cy="23.343" r="1.6065" gradientTransform="matrix(1.0705 1.0705 -.57643 .57643 9.6496 -47.953)" gradientUnits="userSpaceOnUse"><stop stop-opacity=".5" offset="0"/><stop stop-opacity="0" offset="1"/></radialGradient><radialGradient id="e" cx="54.548" cy="23.063" r="1.3229" gradientTransform="matrix(-.5 .6 -.9838 -.81984 103.22 8.7442)" gradientUnits="userSpaceOnUse"><stop stop-color="#d6cbae" offset="0"/><stop stop-color="#9d9786" offset="1"/></radialGradient><linearGradient id="n" x1="52.652" x2="55.298" y1="21.96" y2="24.606" gradientTransform="translate(.080363 .075584)" gradientUnits="userSpaceOnUse"><stop stop-color="#bab28d" offset="0"/><stop stop-color="#b8b389" stop-opacity="0" offset=".49832"/></linearGradient><linearGradient id="m" x1="53.446" x2="55.033" y1="22.754" y2="24.342" gradientTransform="translate(.080363 .075584)" gradientUnits="userSpaceOnUse"><stop stop-color="#9d9786" offset="0"/><stop stop-color="#77705f" offset="1"/></linearGradient><linearGradient id="p" x1="11.774" x2="55.959" y1="6.2177" y2="35.057" gradientTransform="matrix(.31725 0 0 .3076 -4.1366 -5.2461)" gradientUnits="userSpaceOnUse"><stop stop-color="#74706d" offset="0"/><stop stop-color="#7e7a77" offset="1"/></linearGradient><radialGradient id="g" cx="19.05" cy="10.065" r="17.595" gradientTransform="matrix(.35301 -.13877 .055524 .14755 -5.6144 -.18117)" gradientUnits="userSpaceOnUse"><stop stop-color="#fff" stop-opacity=".2" offset="0"/><stop stop-color="#fff" stop-opacity="0" offset="1"/></radialGradient><linearGradient id="q" x1="18.72" x2="18.72" y1="21.41" y2="25.95" gradientTransform="matrix(1 0 0 1 -.38096 -7.9556e-7)" gradientUnits="userSpaceOnUse"><stop stop-color="#292929" offset="0"/><stop stop-color="#2b2b2b" offset=".33126"/><stop stop-color="#474747" offset=".52031"/><stop stop-color="#3e3e3e" offset="1"/></linearGradient><linearGradient id="o" x1="15.298" x2="15.298" y1="25.95" y2="28.22" gradientUnits="userSpaceOnUse"><stop offset="0"/><stop stop-opacity="0" offset="1"/></linearGradient></defs><g transform="matrix(.22034 0 0 .22034 .47983 .73982)" style="mix-blend-mode:normal"><path d="m1.2212 22.759h31.627c0.55248 0 0.99725 0.47288 0.99725 1.0603v0.7409h-33.622l1e-7 -0.7409c0-0.58739 0.44477-1.0603 0.99725-1.0603z" fill="#edf1ea" stroke-linecap="round" stroke-linejoin="round" stroke-width=".1469" style="mix-blend-mode:normal"/><path d="m1.0641 23.66h31.927c0.42721 0 0.83943 0.51898 0.84019 0.90058l0.01426 7.1894c9.79e-4 0.50738-0.3811 0.91584-0.85445 0.91584h-31.927c-0.47335 0-0.84018-0.3932-0.84018-0.90058v-7.2046c0-0.3816 0.41297-0.90058 0.84018-0.90058z" fill="url(#w)"/><g transform="matrix(.85107 0 0 .85097 .24487 5.544)" stroke-width=".95394" style="mix-blend-mode:normal"><rect x="1.5626" y="23.405" width="2.4691" height="2.4694" rx="6.8657e-18" ry="6.867e-18" fill="url(#l)" stroke="#000" stroke-linecap="round" stroke-linejoin="round" stroke-opacity=".5" stroke-width=".35275" style="mix-blend-mode:normal;paint-order:markers stroke fill"/></g><g transform="matrix(.76925 0 0 .76925 .61052 9.7543)" style="mix-blend-mode:normal"><path id="a" d="m1.4486 25.491v2.3414" fill="none" stroke="#000" stroke-linecap="round" stroke-linejoin="round" stroke-opacity=".53333" stroke-width=".78048" style="paint-order:markers stroke fill"/><use transform="translate(1.561)" xlink:href="#a"/><use transform="translate(3.1219)" xlink:href="#a"/><use transform="translate(6.2439)" xlink:href="#a"/><use transform="translate(4.6829)" xlink:href="#a"/><use transform="translate(7.8048)" xlink:href="#a"/></g><g transform="matrix(.79132 0 0 .77581 .090274 9.3789)"><rect x="12.308" y="19.182" width="28.831" height="9.2866" rx="1.0618" ry="1.0618" fill="url(#x)" stroke-linecap="round" stroke-linejoin="round" stroke-opacity=".5" stroke-width=".19086" style="mix-blend-mode:normal;paint-order:markers stroke fill"/><g transform="matrix(.99804 0 0 1.0227 .075076 -1.1666)" style="mix-blend-mode:normal"><rect x="13.778" y="19.896" width="12.163" height="9.0803" fill="url(#s)" fill-opacity=".50216" style="mix-blend-mode:normal;paint-order:markers stroke fill"/><path d="m13.778 23.68h4.1811v-2.6484h3.801v2.6484h4.1811v0.75669h-4.1811v3.7834h-3.801v-3.7834h-4.1811z" fill="url(#o)" stroke-linecap="round" stroke-opacity=".75" stroke-width=".39102" style="mix-blend-mode:normal;paint-order:stroke markers fill"/><ellipse cx="16.058" cy="26.706" rx=".7602" ry=".75669" fill="url(#i)" style="paint-order:stroke markers fill"/><rect x="18.339" y="21.41" width="3.0408" height="4.5401" fill="url(#q)" style="paint-order:stroke fill markers"/><rect x="13.778" y="24.436" width="4.1811" height=".75669" fill="#8b8b8b" style="paint-order:stroke fill markers"/><rect x="21.76" y="24.436" width="4.1811" height=".75669" fill="#8b8b8b" style="paint-order:stroke fill markers"/></g><g transform="matrix(.99804 0 0 1.0227 .090606 -1.1666)" style="mix-blend-mode:normal"><rect x="27.446" y="19.896" width="12.163" height="9.0803" fill="url(#t)" fill-opacity=".50216" style="mix-blend-mode:normal;paint-order:markers stroke fill"/><rect x="28.966" y="25.95" width="9.1203" height="1.5134" fill="#252525" style="mix-blend-mode:normal;paint-order:stroke markers fill"/><rect x="30.486" y="25.95" width="1.5204" height="1.5134" ry="0" fill="#c00" style="mix-blend-mode:normal;paint-order:stroke markers fill"/></g></g></g><g transform="matrix(.47458 0 0 .46609 1.0975 2.595)"><path d="m-0.47949-4.3102c2.3615-0.076218 4.7244-0.12208 7.0871-0.12208 2.3627 0 4.7255 0.045861 7.0871 0.12208 0.3379 0.010906 0.6113 0.022803 0.63704 0.61039 0.07244 1.6534 0.08627 3.3095 0.07963 4.9645-0.0066 1.6553-0.03495 3.3114-0.11944 4.9645-0.0178 0.31042-0.11651 0.55897-0.43796 0.5697-2.4149 0.065299-4.8306 0.12208-7.2463 0.12208-2.4158 0-4.8314-0.056787-7.2463-0.12208-0.32951 0.020361-0.41067-0.28593-0.43796-0.5697-0.084492-1.6531-0.11281-3.3092-0.11944-4.9645-0.00664-1.655 0.00719-3.3111 0.07963-4.9645 0.025743-0.58759 0.29915-0.59948 0.63704-0.61039z" fill="url(#v)" style="paint-order:normal"/><rect x="-.40129" y="-3.3336" width="14.018" height="8.871" rx="2.3159e-18" ry="2.2798e-18" fill="url(#p)" fill-opacity=".75" style="mix-blend-mode:normal"/><path d="m6.6076-3.6184c-2.0836 0-4.5666 0.039022-6.6492 0.10284-0.3121 0.00956-0.50721 0.027582-0.52801 0.47846-0.063854 1.3839-0.076307 2.7701-0.070453 4.1559 0.00585 1.386 0.030807 2.7724 0.10529 4.156 0.022546 0.37325 0.19315 0.43971 0.35242 0.44476 2.1299 0.05468 4.6596 0.10268 6.7898 0.10269h2.977e-4c2.1302-4.4e-6 4.6598-0.048011 6.7897-0.10269 0.15929-0.00494 0.33004-0.071518 0.35258-0.44476 0.07448-1.3837 0.09944-2.77 0.10529-4.156 0.0058-1.3858-0.0066-2.772-0.07046-4.1559-0.02079-0.45087-0.2159-0.46889-0.528-0.47846-2.0827-0.063823-4.5657-0.10284-6.6492-0.10284zm0 0.32554c2.0109 0 4.4213 0.03627 6.4313 0.095692 0.30122 0.0089 0.48927 0.025613 0.50935 0.44539 0.06163 1.2884 0.07378 2.5792 0.06812 3.8695-0.0057 1.2904-0.02967 2.5812-0.10156 3.8695-0.02175 0.3475-0.18656 0.40939-0.34029 0.41408-2.0556 0.050914-4.5109 0.095529-6.5668 0.095533h-2.968e-4c-2.0559-3.7e-6 -4.5112-0.044623-6.5668-0.095533-0.15372-0.00469-0.31854-0.066566-0.34029-0.41408-0.071886-1.2882-0.095913-2.579-0.10156-3.8695-0.00564-1.2902 0.00649-2.581 0.06812-3.8695 0.020077-0.41978 0.20813-0.43649 0.50935-0.44539 2.01-0.059422 4.4205-0.095692 6.4313-0.095692z" fill="url(#u)"/><rect x=".11646" y="-3.0644" width="10.739" height="8.1698" rx="2.2102e-18" ry="2.2589e-18"/><g fill="#80ffdf" stroke-linecap="round" stroke-linejoin="round" stroke-miterlimit="3.3" stroke-opacity=".25" stroke-width=".14064"><path d="m1.5899-1.594h0.55751v1.9868l0.27876 0.28383h0.55751l0.27876-0.28383v-1.9868h0.55751v5.109h-0.55751v-1.9868l-0.27876-0.28383h-1.115l-0.27876-0.28383z" style="paint-order:stroke fill markers"/><path d="m4.935-1.594-0.55751 0.56766 2e-7 1.4192 0.55751 0.56766-0.55751 0.56766-2e-7 1.4192 0.55751 0.56766h1.115l0.55751-0.56766 2e-7 -1.4192-0.55751-0.56766 0.55751-0.56766-2e-7 -1.4192-0.55751-0.56766zm0.27876 0.56766h0.55751l0.27876 0.28383 2e-7 0.85149-0.27876 0.28383h-0.55751l-0.27876-0.28383-2e-7 -0.85149zm0 2.5545h0.55751l0.27876 0.28383-2e-7 0.85149-0.27876 0.28383h-0.55751l-0.27876-0.28383 2e-7 -0.85149z" style="paint-order:stroke fill markers"/><path d="m7.7226-1.594-0.55751 0.56766v3.9736l0.55751 0.56766h1.115l0.55751-0.56766v-1.703l-0.55751-0.56766h-0.83627l-0.27876 0.28383v-1.703l0.27876-0.28383h0.55751l0.27876 0.28383v0.28383h0.55751v-0.56766l-0.55751-0.56766zm0.27876 2.8383h0.55751l0.27876 0.28383-3e-7 1.1353-0.27876 0.28383h-0.55751l-0.27876-0.28383 3e-7 -1.1353z" style="paint-order:stroke fill markers"/></g><rect x=".11646" y="-3.008" width="10.591" height="8.0571" rx="2.2102e-18" ry="2.2589e-18" fill="url(#g)"/><path d="m0.076647-3.1301c-0.08823 0-0.15926 0.072597-0.15926 0.16277v7.9757c0 0.090174 0.07103 0.16277 0.15926 0.16277 0 0 3.5568 0.081384 5.3352 0.081384 1.7784 0 5.4966-0.081384 5.4966-0.081384 0.08823 0 0.15926-0.072594 0.15926-0.16277v-7.9757c0-0.090175-0.07103-0.16277-0.15926-0.16277zm5.3352 0.16277c1.6731 2e-7 3.5062 0.096544 5.1781 0.16277 0.10256 0.00406 0.15553 0.044622 0.15926 0.16277 0.14589 2.4171 0.13737 4.911 0 7.3247-0.0046 0.081374-0.07963 0.157-0.15926 0.16277-1.645 0.11914-3.529 0.16277-5.1781 0.16277-1.6226 0-3.3186-0.043714-4.9371-0.16277-0.07963-0.00585-0.14903-0.081808-0.15926-0.16277-0.30408-2.407-0.15616-4.907-0.07963-7.3247 0.00375-0.11813 0.056682-0.15871 0.15926-0.16277 1.6718-0.066228 3.3445-0.16277 5.0167-0.16277z" fill="url(#r)" stroke-miterlimit="3.6" stroke-opacity=".5" stroke-width=".080503" style="paint-order:fill markers stroke"/><g transform="matrix(.26783 0 0 .27374 -2.7031 -4.7345)" stroke-width="1.2" style="mix-blend-mode:normal"><rect x="53.497" y="7.3252" width="6.2447" height="6.2212" rx="1.3852e-17" ry="1.1671e-17" fill="url(#k)" style="mix-blend-mode:normal;paint-order:markers stroke fill"/><path d="m55.877 8.4838h-0.58358v-0.12174h0.58358zm0 0.2362h-0.58358v-0.12174h0.58358zm-0.20689 0.21672h-0.37669v-0.1047h0.37669zm-0.57187-0.45291h-0.56016v-0.12174h0.56016zm0.57187 0.66963h-0.94466v-0.10714h0.94466zm-0.57187-0.43343h-0.56016v-0.12174h0.56016zm0.57187 0.88634h-0.37669v-0.13636h0.37669zm-0.57187-0.66963h-0.37279v-0.1047h0.37279zm0.77876 0.90826h-0.58358v-0.12176h0.58358zm-0.20689-0.48213h-0.94466v-0.112h0.94466zm0.20689 0.71833h-0.58358v-0.11932h0.58358zm-0.77876-0.47483h-0.37279v-0.13636h0.37279zm0 0.23863h-0.56016v-0.12176h0.56016zm0 0.23619h-0.56016v-0.11932h0.56016zm1.9624-1.5974h-0.63238l0.01557-0.12174h0.5992zm0.06637 0.46022h-0.34351l-0.01556-0.112h0.34155zm-0.03319-0.22402h-0.34156l-0.0098-0.075504-0.0098 0.075504h-0.33766l0.01556-0.12174h0.66556zm0.06442 0.44561h-0.34351l-0.01558-0.112h0.34156zm-0.4411-0.3336-0.01757 0.112h-0.3357l0.01557-0.112zm0.71045 1.013h-0.54846l-0.01368-0.12176h0.56211zm-0.23812-0.45778h-0.88806l0.01557-0.10958h0.85683zm-0.50356-0.3336-0.01757 0.112h-0.3357l0.01556-0.112zm0.74168 1.0276h-0.52112l-0.01368-0.11932h0.53478zm-0.20689-0.47483h-0.94856l0.01557-0.11199h0.91734zm-0.60115 0.11688-0.01368 0.12176h-0.55041v-0.12176zm-0.02733 0.23863-0.01368 0.11932h-0.52308v-0.11932zm1.7769-1.4781h-0.74558v-0.12174h0.74558zm0 0.2362h-0.74558v-0.12174h0.74558zm0.33376 0.88634h-0.35132v-0.13636h0.35132zm-0.51918-0.66962h-0.37474v-0.1047h0.37474zm0 0.21672h-0.37474v-0.10714h0.37474zm0 0.20941h-0.37474v-0.112h0.37474zm0 0.2435h-0.37474v-0.13636h0.37474zm0.51917 0.23863h-1.0793v-0.12176h1.0793zm0 0.23619h-1.0793v-0.11932h1.0793z" stroke-linecap="round" stroke-linejoin="round" stroke-opacity=".5" stroke-width=".50456" style="mix-blend-mode:normal;paint-order:markers stroke fill" aria-label="HAL"/><path d="m57.266 10.809c-0.01208 0-0.02189 5e-3 -0.02924 0.01476-0.0072 0.0095-0.01059 0.02278-0.01059 0.03876 0 0.02751 0.01248 0.04059 0.03739 0.04059 0.01167 0 0.02109-0.0041 0.02846-0.01285 0.0076-0.0091 0.0114-0.02248 0.0114-0.03968 0-0.02777-0.01248-0.04152-0.03739-0.04152zm-1.5025 8.91e-4 -0.0057 0.0323h0.0057c0.03117 0 0.04631 0.01147 0.04631 0.03507 0 0.0044-0.0024 0.01756-0.0065 0.03967l-0.08613 0.46693h0.06174l0.03574-0.19379c0.0069-0.03686 0.0236-0.07356 0.04957-0.11166 0.02618-0.03831 0.05173-0.05814 0.07638-0.05814 0.02033 0 0.03089 0.01548 0.03089 0.04521 0 0.01647-0.0033 0.03967-0.0096 0.07014l-0.01544 0.07842c-0.0084 0.04496-0.01303 0.07841-0.01303 0.10151 0 0.0231 0.0054 0.04184 0.01624 0.05538 0.01113 0.01354 0.02548 0.0203 0.04388 0.0203 0.02512 0 0.05227-0.01487 0.08127-0.04337l-0.0114-0.02215c-0.01558 0.01147-0.0303 0.01753-0.04306 0.01753-0.01558 0-0.02357-0.01188-0.02357-0.03598 0-0.0226 3e-3 -0.04913 9e-3 -0.07936l0.01706-0.08951c8e-3 -0.03932 0.01221-0.06616 0.01221-0.08213 0-0.05578-0.0233-0.08398-0.07069-0.08398-0.04521 0-0.08673 0.03369-0.12353 0.10151h-0.0065c0.0096-0.04228 0.01821-0.08421 0.02601-0.12551l0.026-0.13842zm-1.1255 0.03507-0.0057 0.03138h9e-3c0.01904 0 0.03132 3e-3 0.03739 0.0093 6e-3 0.0061 9e-3 0.01496 9e-3 0.02676 0 0.0053-3.18e-4 0.01147-0.0018 0.01844l-0.06907 0.37096c-3e-3 0.01572-0.0091 0.02781-0.01787 0.03692-0.0087 0.0088-0.02463 0.01285-0.04714 0.01285h-9e-3l-0.0049 0.03231h0.35674l0.02924-0.13197h-0.03494l-0.01058 0.0323c-0.01275 0.04127-0.03812 0.06184-0.07557 0.06184h-0.12758l0.04226-0.22608h0.16008l0.0065-0.03692h-0.16009l0.03818-0.20025h0.11133c0.0316 0 0.04714 0.01615 0.04714 0.04982 0 0.0021-5.25e-4 0.0094-0.0018 0.02122l-0.0018 0.02306h0.03496l0.02113-0.13197zm2.385 0.04059c-0.02445 0.07052-0.05831 0.10613-0.10157 0.10613l-0.0057 0.03045h0.05039l-0.04064 0.21778c-0.0043 0.02335-0.0065 0.04383-0.0065 0.06274 0 0.05874 0.02406 0.08858 0.07233 0.08858 0.02987 0 0.05953-0.01188 0.08937-0.03598l-0.0114-0.0286c-0.01817 0.01119-0.03567 0.01661-0.05364 0.01661-0.02358 0-0.03574-0.01401-0.03574-0.04152 0-0.01425 0.0027-0.03561 0.0081-0.0646l0.04063-0.21501h0.08046l0.0081-0.04336h-0.08044l0.01706-0.09321zm1.0556 0.05628c-0.02683 0-0.05054 0.01788-0.07151 0.05353-0.0173-0.01596-0.0399-0.02399-0.06826-0.02399-0.04631 0-0.08379 0.0177-0.11214 0.0526-0.02814 0.03465-0.04226 0.07283-0.04226 0.11536 0 0.043 0.01536 0.07305 0.04631 0.08951-0.02445 0.01425-0.04068 0.02703-0.04957 0.03782-0.0087 0.01092-0.01303 0.02328-0.01303 0.03876 0 0.02284 0.01045 0.0408 0.0317 0.0526-0.03355 0.0075-0.06017 0.01983-0.07964 0.03876-0.01926 0.01916-0.02844 0.04311-0.02844 0.07014 0 0.06562 0.04792 0.09781 0.14465 0.09781 0.05778 0 0.10211-0.0134 0.13326-0.03968 0.03117-0.02605 0.04714-0.06196 0.04714-0.10889 0-0.05751-0.03439-0.09038-0.10321-0.09874l-0.06419-0.0083c-0.02272-0.0026-0.03333-0.0097-0.03333-0.02215 0-0.01719 0.01554-0.03349 0.04714-0.04799 0.0039 9.81e-4 0.01113 0.0019 0.02113 0.0019 0.04565 0 0.0826-0.01746 0.11051-0.0526 0.02791-0.0354 0.04143-0.074 0.04143-0.11627 0-0.0231-0.0049-0.0424-0.01463-0.05814 0.01316-0.01147 0.02466-0.01752 0.03333-0.01752 0.01235 0 0.01787 0.0086 0.01787 0.02676 0.02618 0 0.03981-0.01492 0.03981-0.04614 0-0.0231-0.01181-0.03508-0.03414-0.03508zm-2.4874 0.02954c-0.05713 0-0.10477 0.02799-0.14221 0.08305-0.03744 0.0548-0.05608 0.115-0.05608 0.18087 0 0.0484 0.01194 0.08666 0.03577 0.11443 0.02381 0.02777 0.05554 0.04152 0.09426 0.04152 0.03504 0 0.06292-0.0094 0.0837-0.02678 0.02098-0.0177 0.0309-0.03615 0.0309-0.05629 0-0.0094-2e-3 -0.01615-0.0065-0.01937-0.0251 0.03612-0.05714 0.05444-0.09588 0.05444-0.04869 0-0.07313-0.03412-0.07313-0.10244 0-0.05038 0.01208-0.10151 0.03494-0.15411 0.02315-0.0526 0.0495-0.07936 0.08044-0.07936 0.01601 0 0.02911 0.0084 0.03817 0.02491 0.0091 0.01621 0.01381 0.03782 0.01381 0.06459 0.01795 0 0.03164-0.0047 0.04226-0.01476 0.01099-0.0099 0.01624-0.02352 0.01624-0.03876 0-0.02064-0.0081-0.03699-0.0252-0.05075-0.01709-0.01382-0.04101-0.02122-0.07151-0.02122zm0.72161 0c-0.05606 0-0.10332 0.02937-0.1414 0.08858-0.03786 0.05923-0.05689 0.12356-0.05689 0.19286 0 0.0435 0.0079 0.07809 0.02274 0.10244 0.01514 0.02408 0.03634 0.03598 0.06338 0.03598 0.05108 0 0.09252-0.04095 0.12433-0.12181h0.0041c-0.0045 0.0231-0.0065 0.0431-0.0065 0.05905 0 0.04177 0.01738 0.06274 0.052 0.06274 0.03074 0 0.06165-0.01524 0.09346-0.04522l-0.01221-0.02215c-0.01947 0.01299-0.03539 0.01937-0.04793 0.01937-0.01449 0-0.02193-0.0123-0.02193-0.03782 0-0.02113 0.0033-0.04931 0.0096-0.08398l0.0455-0.24177h-0.02113l-0.02924 0.01937c-0.02183-0.01818-0.04793-0.02768-0.07801-0.02768zm-1.071 8.93e-4c-0.04478 0-0.08516 0.03369-0.12108 0.10151h-0.0065l0.01787-0.09505h-0.12274l-0.0057 0.03138h0.0049c0.03094 0 0.04631 0.01216 0.04631 0.03599 0 0.0086-6.35e-4 0.02013-0.0033 0.03414l-0.05609 0.3036h0.06176l0.03576-0.19378c0.0073-0.0376 0.02381-0.07475 0.04957-0.11258 0.02596-0.03784 0.05173-0.05722 0.07638-0.05722 0.02034 0 0.03007 0.01548 0.03007 0.04521 0 0.01647-0.0033 0.03967-0.0096 0.07013l-0.01543 0.07843c-0.0084 0.04496-0.01221 0.07841-0.01221 0.1015 0 0.0231 0.0054 0.04184 0.01624 0.05538 0.01113 0.01354 0.02548 0.0203 0.04389 0.0203 0.02512 0 0.05226-0.01487 0.08127-0.04337l-0.01221-0.02215c-0.01558 0.01147-0.02949 0.01752-0.04226 0.01752-0.01558 0-0.02357-0.01188-0.02357-0.03598 0-0.0226 3e-3 -0.04913 9e-3 -0.07936l0.01706-0.08858c8e-3 -0.03932 0.01221-0.06707 0.01221-0.08305 0-0.05578-0.02413-0.08398-0.07151-0.08398zm1.5058 0c-0.04479 0-0.08515 0.03369-0.12108 0.10151h-0.0065l0.01787-0.09505h-0.12353l-0.0057 0.03138h0.0049c0.03094 0 0.04714 0.01216 0.04714 0.03599 0 0.0086-0.0014 0.02013-0.0041 0.03414l-0.05608 0.3036h0.06177l0.03577-0.19378c0.0073-0.0376 0.02381-0.07475 0.04956-0.11258 0.02596-0.03784 0.05173-0.05722 0.07639-0.05722 0.02033 0 0.03007 0.01548 0.03007 0.04521 0 0.01647-0.0033 0.03967-0.0096 0.07013l-0.01463 0.07843c-0.0084 0.04496-0.01303 0.07841-0.01303 0.1015 0 0.0231 0.0054 0.04184 0.01624 0.05538 0.01113 0.01354 0.02549 0.0203 0.04389 0.0203 0.0251 0 0.05227-0.01487 0.08127-0.04337l-0.01221-0.02215c-0.01558 0.01147-0.0295 0.01752-0.04226 0.01752-0.01558 0-0.02357-0.01188-0.02357-0.03598 0-0.0226 3e-3 -0.04913 9e-3 -0.07936l0.01706-0.08858c8e-3 -0.03932 0.01221-0.06707 0.01221-0.08305 0-0.05578-0.0233-0.08398-0.07069-0.08398zm0.84512 0c-0.04479 0-0.08514 0.03369-0.12108 0.10151h-0.0065l0.01787-0.09505h-0.12353l-0.0057 0.03138h0.0057c0.03094 0 0.04631 0.01216 0.04631 0.03599 0 0.0086-0.0014 0.02013-0.0041 0.03414l-0.05608 0.3036h0.06176l0.03577-0.19378c0.0073-0.0376 0.02462-0.07475 0.05039-0.11258 0.02597-0.03784 0.0509-0.05722 0.07557-0.05722 0.02033 0 0.03088 0.01548 0.03088 0.04521 0 0.01647-0.0033 0.03967-0.0096 0.07013l-0.01544 0.07843c-0.0084 0.04496-0.01303 0.07841-0.01303 0.1015 0 0.0231 0.0054 0.04184 0.01624 0.05538 0.01113 0.01354 0.0263 0.0203 0.04469 0.0203 0.02509 0 0.05146-0.01487 0.08044-0.04337l-0.0114-0.02215c-0.01558 0.01147-0.0303 0.01752-0.04306 0.01752-0.01558 0-0.02274-0.01188-0.02274-0.03598 0-0.0226 0.0023-0.04913 0.0081-0.07936l0.01706-0.08951c8e-3 -0.03931 0.01221-0.06616 0.01221-0.08213 0-0.05578-0.0233-0.08398-0.0707-0.08398zm-0.4315 0.0064-0.0057 0.03138h9e-3c0.02705 0 0.04064 0.01119 0.04064 0.0323 0 0.0053-9.43e-4 0.01133-0.0026 0.01937l-0.026 0.13934c-0.0099 0.05651-0.01463 0.0955-0.01463 0.11811 0 0.02064 0.0053 0.03816 0.01543 0.05169 0.01018 0.01354 0.02338 0.0203 0.03981 0.0203 0.02922 0 0.05949-0.01524 0.09019-0.04522l-0.01221-0.02215c-0.01904 0.01299-0.03519 0.01937-0.04793 0.01937-0.01471 0-0.02196-0.0123-0.02196-0.03783 0-0.01965 3e-3 -0.04785 0.0096-0.08398l0.0455-0.2427zm-0.84431 0.02678c0.02338 0 0.03939 0.0086 0.04957 0.02676l-0.02437 0.13382c-0.0077 0.04398-0.02372 0.0847-0.04794 0.12181-0.02425 0.03711-0.04782 0.05538-0.06988 0.05538-0.02791 0-0.04143-0.02852-0.04143-0.08674 0-0.05776 0.01276-0.11432 0.03819-0.16887 0.02576-0.0548 0.05803-0.08213 0.09588-0.08213zm1.6139 8.91e-4c0.03052 0 0.0455 0.02053 0.0455 0.06183 0 0.03392-8e-3 0.06537-0.02357 0.09412-0.01536 0.02852-0.03562 0.04245-0.06094 0.04245-0.03072 0-0.04631-0.02053-0.04631-0.06183 0-0.03341 0.0076-0.06444 0.02274-0.09321 0.01536-0.029 0.03659-0.04337 0.06259-0.04337zm-0.09831 0.36819 0.06419 0.0064c0.04133 0.0041 0.06257 0.02335 0.06257 0.05628 0 0.02777-0.01031 0.0493-0.03089 0.06549-0.02033 0.01647-0.05044 0.02491-0.08937 0.02491-0.06254 0-0.09346-0.02177-0.09346-0.06551 0-0.02039 0.0057-0.03767 0.01706-0.05168 0.01153-0.01401 0.02483-0.02343 0.04063-0.0286 0.016-0.0053 0.02601-0.0077 0.02926-0.0075zm-0.78093 0.37927c-0.01208 0-0.02189 5e-3 -0.02926 0.01476-0.0072 0.0095-0.01058 0.02278-0.01058 0.03876 0 0.02752 0.01248 0.0406 0.03739 0.0406 0.01167 0 0.02109-0.0041 0.02844-0.01285 0.0076-0.0091 0.0114-0.02247 0.0114-0.03967 0-0.02777-0.01248-0.04152-0.03739-0.04152zm-1.6277 8.93e-4 -0.0065 0.0323h0.0081c0.03117 0 0.04714 0.01147 0.04714 0.03507 0 0.0077-0.0022 0.01915-0.0049 0.03414l-0.05364 0.28976c-0.0096 0.0553-0.01463 0.09427-0.01463 0.11811 0 0.02113 0.0043 0.0384 0.01463 0.05169 0.01031 0.01326 0.02381 0.0203 0.03981 0.0203 0.02922 0 0.05948-0.01524 0.09019-0.04522l-0.01221-0.02215c-0.01904 0.01299-0.03519 0.01937-0.04793 0.01937-0.01471 0-0.02196-0.0123-0.02196-0.03782 0-0.0199 0.0038-0.04808 0.01058-0.08398l0.07639-0.41157zm2.4435 0-0.0057 0.0323h0.0073c0.03116 0 0.04714 0.01147 0.04714 0.03507 0 0.0077-0.0013 0.01915-0.0041 0.03414l-0.05443 0.28976c-0.0096 0.0553-0.01463 0.09427-0.01463 0.11811 0 0.02113 0.0053 0.0384 0.01543 0.05169 0.01031 0.01326 0.02381 0.0203 0.03981 0.0203 0.02922 0 0.05868-0.01524 0.08937-0.04522l-0.01221-0.02215c-0.01904 0.01299-0.03437 0.01937-0.04714 0.01937-0.01471 0-0.02196-0.0123-0.02196-0.03782 0-0.0199 3e-3 -0.04808 0.0096-0.08398l0.0772-0.41157zm-3.0067 0.02676c-0.07791 0-0.14347 0.03541-0.19584 0.1052-0.05237 0.06954-0.07801 0.15196-0.07801 0.24731 0 0.06439 0.01569 0.11435 0.04793 0.14949 0.03247 0.03514 0.07793 0.0526 0.13571 0.0526 0.04328 0 0.07691-0.0098 0.10157-0.02862 0.02467-0.01893 0.03739-0.04051 0.03739-0.06459 0-0.01202-3e-3 -0.02021-9e-3 -0.02491-0.03073 0.04572-0.07222 0.0692-0.12353 0.0692-0.07877 0-0.11783-0.04707-0.11783-0.14119 0-0.08035 0.01846-0.15482 0.05526-0.22239 0.03701-0.06783 0.08259-0.1015 0.13733-0.1015 0.04414 0 0.06663 0.0341 0.06663 0.10244 0.01969 0 0.03523-0.0051 0.04714-0.0157 0.01194-0.01064 0.01787-0.02542 0.01787-0.04336 0-0.02581-0.01099-0.04593-0.03251-0.06092-0.02164-0.01524-0.05148-0.02306-0.0902-0.02306zm1.6439 0.0083-0.0057 0.03138h0.0081c0.03203 0 0.04794 0.01036 0.04794 0.03045 0 0.0047-7.12e-4 0.01188-0.0026 0.02122l-0.06907 0.37004c-0.0066 0.03612-0.02823 0.05353-0.065 0.05353h-9e-3l-0.0057 0.0323h0.20966c0.08071 0 0.14515-0.03215 0.1934-0.09505 0.04824-0.06314 0.07233-0.14268 0.07233-0.239 0-0.06585-0.01609-0.11595-0.04876-0.15134-0.03269-0.03565-0.07941-0.05353-0.13977-0.05353zm0.12353 0.03689h0.05283c0.08419 0 0.12596 0.05349 0.12596 0.15964 0 0.09093-0.01863 0.16477-0.05608 0.22055-0.03722 0.05578-0.08791 0.08307-0.15196 0.08307h-0.0577zm-1.4326 0.08951c-0.05908 0-0.10727 0.02715-0.14383 0.08122-0.03634 0.05382-0.05444 0.11487-0.05444 0.18271 0 0.04891 0.01167 0.08691 0.03414 0.11442 0.0225 0.02752 0.05342 0.04152 0.09346 0.04152 0.05885 0 0.10688-0.02715 0.14302-0.0812 0.03614-0.05431 0.05364-0.11562 0.05364-0.18272 0-0.05063-0.01099-0.08855-0.03331-0.11536-0.0225-0.02678-0.05347-0.04059-0.09263-0.04059zm0.58346 0c-0.05908 0-0.10646 0.02715-0.14302 0.08122-0.03635 0.05382-0.05446 0.11487-0.05446 0.18271 0 0.04891 0.01099 0.08691 0.03333 0.11442 0.0225 0.02752 0.05423 0.04152 0.09426 0.04152 0.05885 0 0.10608-0.02715 0.14221-0.0812 0.03615-0.05431 0.05443-0.11562 0.05443-0.18272 0-0.05063-0.01167-0.08855-0.03413-0.11536-0.0225-0.02678-0.05346-0.04059-0.09263-0.04059zm0.41525 0c-0.02295 0-0.04283 0.0079-0.06013 0.024-0.0173 0.01621-0.03507 0.04731-0.05283 0.09228h-0.0065l0.0138-0.10889h-0.11701l-0.0065 0.03138h0.0057c0.03528 0 0.05283 0.01216 0.05283 0.03599 0 0.0086-0.0014 0.02015-0.0041 0.03413l-0.05609 0.3036h0.06257l0.02437-0.13749c0.01113-0.05799 0.02825-0.11 0.0512-0.15595 0.02316-0.04596 0.04527-0.0692 0.06583-0.0692 0.01774 0 0.0268 0.02017 0.0268 0.05998 0.03677 0 0.05527-0.0198 0.05527-0.05814 0-0.03464-0.01892-0.05167-0.05527-0.05167zm1.4871 0c-0.04911 0-0.08986 0.03598-0.12188 0.10797h-0.0033l0.01624-0.10057h-0.11783l-0.0057 0.03138h0.0049c0.03094 0 0.04631 0.01216 0.04631 0.03599 0 0.0055-0.0019 0.01854-0.0057 0.03968l-0.08857 0.47893h0.12516l0.0057-0.03138h-9e-3c-0.03094 0-0.04631-0.01174-0.04631-0.03508 0-7e-3 0.0024-0.02155 0.0065-0.04245l9e-3 -0.04613c0.0018-0.0082 0.0038-0.01977 0.0057-0.03598 0.01794 0.01147 0.03968 0.01752 0.06501 0.01752 0.05801 0 0.10521-0.03091 0.14221-0.09134 0.03722-0.0607 0.05609-0.12437 0.05609-0.19194 0-0.04423-0.0072-0.07818-0.02193-0.10151-0.01448-0.02334-0.03553-0.03508-0.06257-0.03508zm0.54202 0c-0.05606 0-0.10332 0.02937-0.1414 0.08858-0.03787 0.05923-0.0569 0.12357-0.0569 0.19286 0 0.0435 0.0079 0.07809 0.02274 0.10244 0.01514 0.02408 0.03634 0.03599 0.06339 0.03599 0.05108 0 0.09252-0.04095 0.12433-0.12181h0.0041c-0.0046 0.0231-0.0073 0.04309-0.0073 0.05905 0 0.04177 0.01738 0.06276 0.05201 0.06276 0.03074 0 0.06245-0.01524 0.09426-0.04522l-0.01221-0.02215c-0.01947 0.01299-0.03538 0.01937-0.04793 0.01937-0.01449 0-0.02196-0.0123-0.02196-0.03782 0-0.02113 0.0033-0.04931 0.0096-0.08398l0.0455-0.24177h-0.02113l-0.02926 0.01937c-0.02185-0.01817-0.04793-0.02768-0.07801-0.02768zm-0.93451 8.91e-4c-0.03809 0-0.06883 0.01023-0.09263 0.03138-0.02358 0.02089-0.03576 0.04828-0.03576 0.0812 0 0.02408 0.0054 0.04524 0.01624 0.06366 0.01113 0.01817 0.03321 0.0354 0.06501 0.0526 0.02445 0.01271 0.04102 0.02624 0.0512 0.03876 0.01018 0.0123 0.01543 0.02729 0.01543 0.04521 0 0.04669-0.02369 0.07013-0.07151 0.07013-0.02402 0-0.04265-0.0087-0.05608-0.02584-0.01316-0.01745-0.0203-0.04169-0.0203-0.0729-0.01208 0-0.02206 0.0033-0.03007 0.01202-0.0077 0.0084-0.0114 0.02068-0.0114 0.0369 0 0.02606 0.0095 0.04727 0.02924 0.06274 0.01991 0.01524 0.0469 0.02306 0.08044 0.02306 0.04154 0 0.07485-0.01133 0.09996-0.03414 0.0251-0.02285 0.03739-0.05332 0.03739-0.09043 0-0.05111-0.02641-0.09016-0.07964-0.11718-0.02316-0.01147-0.04017-0.02328-0.0512-0.03508-0.01113-0.01174-0.01624-0.02574-0.01624-0.04245 0-0.01892 0.0057-0.03501 0.01706-0.04706 0.01167-0.0123 0.02723-0.01845 0.04714-0.01845 0.01882 0 0.0335 0.0079 0.04389 0.02306 0.01058 0.01524 0.01624 0.03561 0.01624 0.06092 0.03334 0 0.04957-0.01585 0.04957-0.04706 0-0.02014-0.0092-0.03699-0.02763-0.05075-0.01817-0.01382-0.04371-0.02031-0.07639-0.02031zm1.3644 0c-0.01167 0-0.02141 0.0047-0.03007 0.01476-0.0087 0.0099-0.01303 0.02364-0.01303 0.04059 0.02183 0 0.03251 0.01426 0.03251 0.04152 0 0.06363-0.02945 0.14662-0.08937 0.25007h-0.0026c-0.0026-0.02801-0.01167-0.07342-0.02763-0.13657l-0.05201-0.20392h-0.09671l-0.0057 0.03138h0.0073c0.01316 0 0.02254 3e-3 0.02924 0.0093 0.0068 0.0059 0.01235 0.01664 0.01624 0.03138l0.08776 0.33405c-0.06102 0.09166-0.1235 0.13749-0.1869 0.13749-0.01904 0-0.03641-0.0036-0.052-0.0093l-0.0096 0.03783c0.0184 0.0091 0.0392 0.01383 0.06257 0.01383 0.05885 0 0.10629-0.01738 0.14221-0.05353 0.03614-0.03612 0.08411-0.10979 0.14384-0.21962 0.05973-0.11008 0.08937-0.19492 0.08937-0.25561 0-0.04228-0.01542-0.06365-0.0455-0.06365zm-1.7057 0.0064-0.0065 0.03138 9e-3 8.91e-4c0.02705 0 0.04063 0.01022 0.04063 0.03138 0 0.0053-9.42e-4 0.01133-0.0026 0.01937l-0.02519 0.13934c-0.0099 0.05653-0.01543 0.0955-0.01543 0.11811 0 0.02064 0.0053 0.03816 0.01543 0.05168 0.01018 0.01354 0.02338 0.02031 0.03981 0.02031 0.02922 0 0.05949-0.01524 0.09019-0.04522l-0.01221-0.02215c-0.01904 0.01299-0.03519 0.01937-0.04793 0.01937-0.01471 0-0.02193-0.0123-0.02193-0.03782 0-0.01965 0.0038-0.04785 0.01058-0.08399l0.04469-0.24269zm1.2791 0.02678c0.02337 0 0.04019 0.0086 0.05038 0.02676l-0.02437 0.13382c-0.0077 0.04399-0.02371 0.08471-0.04793 0.12181-0.02424 0.0371-0.04781 0.05538-0.06988 0.05538-0.02791 0-0.04143-0.02852-0.04143-0.08674 0-0.05776 0.01276-0.11432 0.03817-0.16887 0.02576-0.0548 0.05722-0.08213 0.09507-0.08213zm-3.0392 0.0055c0.04328 0 0.06501 0.03516 0.06501 0.1052 0 0.05995-0.01058 0.11485-0.03251 0.16426-0.02164 0.04915-0.0512 0.07382-0.08776 0.07382-0.04393 0-0.06583-0.03498-0.06583-0.10428 0-0.06045 0.01113-0.11486 0.03333-0.16426 0.0223-0.0494 0.05162-0.07474 0.08776-0.07474zm0.58428 0c0.04327 0 0.06501 0.03516 0.06501 0.1052 0 0.05995-0.0114 0.11485-0.03333 0.16426-0.02164 0.04915-0.05037 0.07382-0.08694 0.07382-0.04393 0-0.06583-0.03498-0.06583-0.10428 0-0.06045 0.01113-0.11486 0.03331-0.16426 0.0223-0.0494 0.05162-0.07474 0.08776-0.07474zm1.8845 0.0083c0.02791 0 0.04226 0.02895 0.04226 0.08765 0 0.05677-0.0133 0.1129-0.039 0.16795-0.02552 0.0548-0.05645 0.08213-0.09346 0.08213-0.02078 0-0.03854-0.0088-0.05283-0.02676l0.02681-0.14396c0.0076-0.03908 0.02375-0.07645 0.04714-0.11258 0.02338-0.03637 0.04614-0.05444 0.06907-0.05444z" stroke-miterlimit="3.6" stroke-opacity=".5" stroke-width=".48316" style="mix-blend-mode:normal;paint-order:fill markers stroke"/><rect x="53.497" y="13.546" width="2.0816" height="2.0737" rx="1.8469e-17" ry="2.7232e-17" fill="#800" style="mix-blend-mode:normal;paint-order:fill markers stroke"/><rect x="55.578" y="13.546" width="2.0816" height="2.0737" rx="1.8469e-17" ry="2.7232e-17" fill="#061" style="mix-blend-mode:normal;paint-order:fill markers stroke"/><rect x="57.66" y="13.546" width="2.0816" height="2.0737" rx="1.8469e-17" ry="2.7232e-17" fill="#039" style="mix-blend-mode:normal;paint-order:fill markers stroke"/></g><ellipse cx="12.322" cy=".53477" rx=".55751" ry=".56766" fill="url(#h)" style="mix-blend-mode:normal;paint-order:stroke markers fill"/><ellipse cx="12.322" cy=".53477" rx=".16725" ry=".1703" fill="url(#j)" style="mix-blend-mode:normal;paint-order:stroke markers fill"/><g id="y" transform="matrix(.30705 0 0 .31382 -4.263 -3.3767)"><path d="m56.283 21.96v3.6177h-3.6314v-1.8089l1.8157-1.8089z" fill="url(#f)" stroke-miterlimit="3.6" stroke-width=".26458" style="paint-order:stroke fill markers"/><ellipse cx="54.055" cy="23.359" rx="1.271" ry="1.2662" fill="url(#e)" stroke="url(#n)" stroke-miterlimit="3.6" stroke-width=".26458" style="paint-order:stroke fill markers"/><ellipse cx="54.32" cy="23.623" rx=".90785" ry=".90443" fill="#847c6a" stroke="url(#m)" stroke-miterlimit="3.6" stroke-width=".26458" style="paint-order:stroke markers fill"/></g><use id="d" transform="translate(0 -1.1353)" xlink:href="#y"/><use transform="translate(0 -1.1353)" xlink:href="#d"/></g></svg>
