<?xml version="1.0" encoding="UTF-8" standalone="no"?>
<!-- Created with Inkscape (http://www.inkscape.org/) -->

<svg
   width="64"
   height="64"
   viewBox="0 0 16.933332 16.933333"
   version="1.1"
   id="svg1"
   xml:space="preserve"
   inkscape:version="1.3.2 (091e20ef0f, 2023-11-25, custom)"
   sodipodi:docname="app-64.svg"
   inkscape:export-filename="pc-256.png"
   inkscape:export-xdpi="96"
   inkscape:export-ydpi="96"
   xmlns:inkscape="http://www.inkscape.org/namespaces/inkscape"
   xmlns:sodipodi="http://sodipodi.sourceforge.net/DTD/sodipodi-0.dtd"
   xmlns:xlink="http://www.w3.org/1999/xlink"
   xmlns="http://www.w3.org/2000/svg"
   xmlns:svg="http://www.w3.org/2000/svg"
   xmlns:rdf="http://www.w3.org/1999/02/22-rdf-syntax-ns#"
   xmlns:cc="http://creativecommons.org/ns#"><sodipodi:namedview
     id="namedview1"
     pagecolor="#505050"
     bordercolor="#eeeeee"
     borderopacity="1"
     inkscape:showpageshadow="0"
     inkscape:pageopacity="0"
     inkscape:pagecheckerboard="true"
     inkscape:deskcolor="#505050"
     inkscape:document-units="px"
     showguides="true"
     showgrid="true"
     inkscape:zoom="12.390625"
     inkscape:cx="31.959647"
     inkscape:cy="32"
     inkscape:window-width="1452"
     inkscape:window-height="988"
     inkscape:window-x="0"
     inkscape:window-y="0"
     inkscape:window-maximized="0"
     inkscape:current-layer="layer2"><sodipodi:guide
       position="1.5874999,15.345833"
       orientation="-1,0"
       id="guide1"
       inkscape:locked="false"
       inkscape:label=""
       inkscape:color="rgb(87,227,137)" /><sodipodi:guide
       position="1.5874999,1.5874999"
       orientation="0,1"
       id="guide2"
       inkscape:locked="false"
       inkscape:label=""
       inkscape:color="rgb(87,227,137)" /><sodipodi:guide
       position="15.345833,15.345833"
       orientation="0,1"
       id="guide3"
       inkscape:locked="false"
       inkscape:label=""
       inkscape:color="rgb(87,227,137)" /><sodipodi:guide
       position="15.345833,1.5874999"
       orientation="-1,0"
       id="guide4"
       inkscape:locked="false"
       inkscape:label=""
       inkscape:color="rgb(87,227,137)" /><inkscape:grid
       id="grid10"
       units="px"
       originx="0"
       originy="0"
       spacingx="0.13229166"
       spacingy="0.13229166"
       empcolor="#0099e5"
       empopacity="0.30196078"
       color="#0099e5"
       opacity="0.14901961"
       empspacing="2"
       dotted="false"
       gridanglex="30"
       gridanglez="30"
       visible="true" /></sodipodi:namedview><defs
     id="defs1"><linearGradient
       id="linearGradient67"
       inkscape:collect="always"><stop
         style="stop-color:#ffffff;stop-opacity:0.2;"
         offset="0"
         id="stop75" /><stop
         style="stop-color:#ffffff;stop-opacity:0;"
         offset="1"
         id="stop78" /></linearGradient><linearGradient
       id="linearGradient36"
       inkscape:collect="always"><stop
         style="stop-color:#74706d;stop-opacity:1;"
         offset="0"
         id="stop38" /><stop
         style="stop-color:#7e7a77;stop-opacity:1;"
         offset="1"
         id="stop42" /></linearGradient><linearGradient
       id="linearGradient31"
       inkscape:collect="always"><stop
         style="stop-color:#808080;stop-opacity:1;"
         offset="0"
         id="stop26" /><stop
         style="stop-color:#000000;stop-opacity:1;"
         offset="1"
         id="stop31" /></linearGradient><linearGradient
       id="linearGradient90"
       inkscape:collect="always"><stop
         style="stop-color:#000000;stop-opacity:1;"
         offset="0.24915825"
         id="stop90" /><stop
         style="stop-color:#000000;stop-opacity:0;"
         offset="1"
         id="stop91" /></linearGradient><linearGradient
       id="linearGradient80"
       inkscape:collect="always"><stop
         style="stop-color:#000000;stop-opacity:0.5;"
         offset="0"
         id="stop80" /><stop
         style="stop-color:#000000;stop-opacity:0;"
         offset="1"
         id="stop81" /></linearGradient><linearGradient
       id="linearGradient76"
       inkscape:collect="always"><stop
         style="stop-color:#bab28d;stop-opacity:1;"
         offset="0"
         id="stop76" /><stop
         style="stop-color:#b8b389;stop-opacity:0;"
         offset="0.4983165"
         id="stop77" /></linearGradient><linearGradient
       id="linearGradient73"
       inkscape:collect="always"><stop
         style="stop-color:#d6cbae;stop-opacity:1;"
         offset="0"
         id="stop73" /><stop
         style="stop-color:#9d9786;stop-opacity:1;"
         offset="1"
         id="stop74" /></linearGradient><linearGradient
       id="linearGradient71"
       inkscape:collect="always"><stop
         style="stop-color:#9d9786;stop-opacity:1;"
         offset="0"
         id="stop71" /><stop
         style="stop-color:#77705f;stop-opacity:1;"
         offset="1"
         id="stop72" /></linearGradient><linearGradient
       id="linearGradient66"
       inkscape:collect="always"><stop
         style="stop-color:#00ff00;stop-opacity:0.2;"
         offset="0.30000001"
         id="stop68" /><stop
         style="stop-color:#00ff00;stop-opacity:0;"
         offset="1"
         id="stop67" /></linearGradient><linearGradient
       id="linearGradient63"
       inkscape:collect="always"><stop
         style="stop-color:#ffffbb;stop-opacity:1;"
         offset="0"
         id="stop56" /><stop
         style="stop-color:#aaff00;stop-opacity:1;"
         offset="0.49806201"
         id="stop62" /><stop
         style="stop-color:#00ff00;stop-opacity:1;"
         offset="1"
         id="stop63" /></linearGradient><linearGradient
       id="linearGradient38"
       inkscape:collect="always"><stop
         style="stop-color:#696663;stop-opacity:0;"
         offset="0"
         id="stop41" /><stop
         style="stop-color:#696663;stop-opacity:1;"
         offset="0.75"
         id="stop40" /><stop
         style="stop-color:#ceccca;stop-opacity:0;"
         offset="1"
         id="stop39" /></linearGradient><linearGradient
       id="linearGradient37"
       inkscape:collect="always"><stop
         style="stop-color:#413f3f;stop-opacity:1;"
         offset="0"
         id="stop35" /><stop
         style="stop-color:#726c69;stop-opacity:1;"
         offset="0.5"
         id="stop36" /><stop
         style="stop-color:#a7a5a4;stop-opacity:1;"
         offset="1"
         id="stop37" /></linearGradient><linearGradient
       id="linearGradient14"
       inkscape:collect="always"><stop
         style="stop-color:#5b5958;stop-opacity:1;"
         offset="0"
         id="stop19" /><stop
         style="stop-color:#847e7b;stop-opacity:1;"
         offset="0.5"
         id="stop25" /><stop
         style="stop-color:#c0bfbe;stop-opacity:1;"
         offset="1"
         id="stop24" /></linearGradient><linearGradient
       id="linearGradient27"
       inkscape:collect="always"><stop
         style="stop-color:#ffffff;stop-opacity:0.25;"
         offset="0"
         id="stop27" /><stop
         style="stop-color:#ffffff;stop-opacity:0;"
         offset="0.03"
         id="stop29" /><stop
         style="stop-color:#000000;stop-opacity:0;"
         offset="0.97000003"
         id="stop30" /><stop
         style="stop-color:#000000;stop-opacity:0.25;"
         offset="1"
         id="stop28" /></linearGradient><linearGradient
       id="linearGradient20"
       inkscape:collect="always"><stop
         style="stop-color:#d5d2d4;stop-opacity:1;"
         offset="0"
         id="stop20" /><stop
         style="stop-color:#abaaab;stop-opacity:1;"
         offset="0.07"
         id="stop22" /><stop
         style="stop-color:#a2a2a2;stop-opacity:1;"
         offset="0.93000001"
         id="stop23" /><stop
         style="stop-color:#686868;stop-opacity:1;"
         offset="1"
         id="stop21" /></linearGradient><linearGradient
       id="linearGradient17"
       inkscape:collect="always"><stop
         style="stop-color:#000000;stop-opacity:0.75;"
         offset="0"
         id="stop17" /><stop
         style="stop-color:#000000;stop-opacity:0;"
         offset="1"
         id="stop18" /></linearGradient><linearGradient
       id="linearGradient59"
       inkscape:collect="always"><stop
         style="stop-color:#ffffff;stop-opacity:0.15079366;"
         offset="0"
         id="stop60" /><stop
         style="stop-color:#ffffff;stop-opacity:0.30423281;"
         offset="1"
         id="stop61" /></linearGradient><linearGradient
       id="linearGradient57"
       inkscape:collect="always"><stop
         style="stop-color:#ffffff;stop-opacity:1;"
         offset="0"
         id="stop57" /><stop
         style="stop-color:#ff0000;stop-opacity:1;"
         offset="0.49806201"
         id="stop59" /><stop
         style="stop-color:#aa0000;stop-opacity:1;"
         offset="1"
         id="stop58" /></linearGradient><linearGradient
       id="linearGradient53"
       inkscape:collect="always"><stop
         style="stop-color:#808080;stop-opacity:1;"
         offset="0"
         id="stop54" /><stop
         style="stop-color:#000000;stop-opacity:1;"
         offset="1"
         id="stop55" /></linearGradient><linearGradient
       id="linearGradient49"
       inkscape:collect="always"><stop
         style="stop-color:#292929;stop-opacity:1;"
         offset="0"
         id="stop49" /><stop
         style="stop-color:#2b2b2b;stop-opacity:1;"
         offset="0.40000001"
         id="stop52" /><stop
         style="stop-color:#000000;stop-opacity:1;"
         offset="0.60000002"
         id="stop51" /><stop
         style="stop-color:#303030;stop-opacity:1;"
         offset="0.60000002"
         id="stop53" /><stop
         style="stop-color:#333333;stop-opacity:1;"
         offset="1"
         id="stop50" /></linearGradient><linearGradient
       id="linearGradient47"
       inkscape:collect="always"><stop
         style="stop-color:#000000;stop-opacity:0.75;"
         offset="0"
         id="stop47" /><stop
         style="stop-color:#000000;stop-opacity:0;"
         offset="1"
         id="stop48" /></linearGradient><linearGradient
       id="linearGradient43"
       inkscape:collect="always"><stop
         style="stop-color:#000000;stop-opacity:1;"
         offset="0"
         id="stop43" /><stop
         style="stop-color:#000000;stop-opacity:1;"
         offset="0.75"
         id="stop45" /><stop
         style="stop-color:#929297;stop-opacity:1;"
         offset="1"
         id="stop44" /></linearGradient><linearGradient
       id="linearGradient32"
       inkscape:collect="always"><stop
         style="stop-color:#292929;stop-opacity:1;"
         offset="0"
         id="stop32" /><stop
         style="stop-color:#3d3d3d;stop-opacity:1;"
         offset="1"
         id="stop33" /></linearGradient><linearGradient
       id="linearGradient15"
       inkscape:collect="always"><stop
         style="stop-color:#000000;stop-opacity:0.33000001;"
         offset="0"
         id="stop15" /><stop
         style="stop-color:#000000;stop-opacity:0;"
         offset="1"
         id="stop16" /></linearGradient><linearGradient
       id="linearGradient13"
       inkscape:collect="always"><stop
         style="stop-color:#000000;stop-opacity:0.66000003;"
         offset="0"
         id="stop13" /><stop
         style="stop-color:#000000;stop-opacity:0;"
         offset="1"
         id="stop14" /></linearGradient><linearGradient
       id="linearGradient5"
       inkscape:collect="always"><stop
         style="stop-color:#1c1c21;stop-opacity:1;"
         offset="0"
         id="stop10" /><stop
         style="stop-color:#2f2e38;stop-opacity:1;"
         offset="1"
         id="stop11" /></linearGradient><linearGradient
       id="linearGradient3"
       inkscape:collect="always"><stop
         style="stop-color:#bbb7aa;stop-opacity:1;"
         offset="0"
         id="stop3" /><stop
         style="stop-color:#c6c2b9;stop-opacity:1;"
         offset="0.81589144"
         id="stop5" /><stop
         style="stop-color:#d0ccc8;stop-opacity:1;"
         offset="1"
         id="stop4" /></linearGradient><linearGradient
       id="linearGradient8"
       inkscape:collect="always"><stop
         style="stop-color:#c2cada;stop-opacity:1;"
         offset="0"
         id="stop8" /><stop
         style="stop-color:#9ea09f;stop-opacity:1;"
         offset="1"
         id="stop9" /></linearGradient><linearGradient
       id="linearGradient6"
       inkscape:collect="always"><stop
         style="stop-color:#9f9fa2;stop-opacity:1;"
         offset="0"
         id="stop6" /><stop
         style="stop-color:#b5b3b1;stop-opacity:1;"
         offset="1"
         id="stop7" /></linearGradient><linearGradient
       id="linearGradient1"
       inkscape:collect="always"><stop
         style="stop-color:#cfccc3;stop-opacity:1;"
         offset="0"
         id="stop1" /><stop
         style="stop-color:#aba8a5;stop-opacity:1;"
         offset="1"
         id="stop2" /></linearGradient><linearGradient
       inkscape:collect="always"
       xlink:href="#linearGradient1"
       id="linearGradient2"
       x1="2.6458333"
       y1="49.477081"
       x2="2.6458333"
       y2="65.087502"
       gradientUnits="userSpaceOnUse"
       gradientTransform="matrix(0.99997702,0,0,1,6.0811762e-5,0)" /><linearGradient
       inkscape:collect="always"
       xlink:href="#linearGradient6"
       id="linearGradient7"
       x1="3.1871049"
       y1="42.597912"
       x2="3.175"
       y2="49.236706"
       gradientUnits="userSpaceOnUse"
       gradientTransform="translate(-5.1096353e-7,-0.40666303)" /><linearGradient
       inkscape:collect="always"
       xlink:href="#linearGradient8"
       id="linearGradient9"
       x1="5.2916098"
       y1="53.005138"
       x2="8.9956913"
       y2="56.709217"
       gradientUnits="userSpaceOnUse"
       gradientTransform="matrix(0.93490896,0,0,0.93508629,0.72935567,3.7371503)" /><linearGradient
       inkscape:collect="always"
       xlink:href="#linearGradient3"
       id="linearGradient4"
       x1="23.018749"
       y1="51.329163"
       x2="23.018749"
       y2="63.235413"
       gradientUnits="userSpaceOnUse" /><linearGradient
       inkscape:collect="always"
       xlink:href="#linearGradient5"
       id="linearGradient11"
       x1="23.018749"
       y1="51.329163"
       x2="23.018749"
       y2="61.383327"
       gradientUnits="userSpaceOnUse"
       gradientTransform="matrix(0.99717961,0,0,1.0657903,0.11939318,-3.3769648)" /><radialGradient
       inkscape:collect="always"
       xlink:href="#linearGradient13"
       id="radialGradient14"
       cx="22.489582"
       cy="56.620834"
       fx="22.489582"
       fy="56.620834"
       r="0.66145802"
       gradientTransform="matrix(-3.2000033,-5.4991339e-5,3.1616901e-4,-18.000032,94.438418,1070.5072)"
       gradientUnits="userSpaceOnUse" /><radialGradient
       inkscape:collect="always"
       xlink:href="#linearGradient15"
       id="radialGradient16"
       cx="62.177082"
       cy="56.620831"
       fx="62.177082"
       fy="56.620831"
       r="0.66145802"
       gradientTransform="matrix(-3.2000012,-2.0789518e-5,1.1729564e-4,-17.999996,261.13718,1070.5052)"
       gradientUnits="userSpaceOnUse" /><linearGradient
       inkscape:collect="always"
       xlink:href="#linearGradient32"
       id="linearGradient33"
       x1="42.597916"
       y1="51.329163"
       x2="42.597916"
       y2="61.383327"
       gradientUnits="userSpaceOnUse"
       gradientTransform="matrix(0.94723194,0,0,0.98421039,2.5602311,0.81046759)" /><linearGradient
       inkscape:collect="always"
       xlink:href="#linearGradient32"
       id="linearGradient34"
       gradientUnits="userSpaceOnUse"
       x1="42.597916"
       y1="51.329163"
       x2="42.597916"
       y2="61.383327"
       gradientTransform="matrix(0.94723187,0,0,0.98421039,1.907471,0.81046759)" /><linearGradient
       inkscape:collect="always"
       xlink:href="#linearGradient43"
       id="linearGradient44"
       x1="24.077084"
       y1="51.85833"
       x2="24.077084"
       y2="59.002079"
       gradientUnits="userSpaceOnUse"
       gradientTransform="matrix(0.96507366,0,0,0.96296289,1.4012176,2.9790144)" /><linearGradient
       inkscape:collect="always"
       xlink:href="#linearGradient47"
       id="linearGradient48"
       x1="30.162498"
       y1="57.679161"
       x2="30.691666"
       y2="57.943745"
       gradientUnits="userSpaceOnUse"
       gradientTransform="matrix(1.6576523,0,0,1.1000028,-19.938285,-4.8420396)" /><linearGradient
       inkscape:collect="always"
       xlink:href="#linearGradient49"
       id="linearGradient50"
       x1="30.559374"
       y1="52.519787"
       x2="30.559374"
       y2="56.620831"
       gradientUnits="userSpaceOnUse"
       gradientTransform="matrix(0.84848455,0,0,0.90322615,4.7002539,5.744)" /><linearGradient
       inkscape:collect="always"
       xlink:href="#linearGradient31"
       id="linearGradient55"
       x1="29.104166"
       y1="55.694786"
       x2="29.104166"
       y2="56.223953"
       gradientUnits="userSpaceOnUse"
       gradientTransform="matrix(1.1051058,0,0,1.1000016,-3.8568859,-5.2785288)" /><linearGradient
       inkscape:collect="always"
       xlink:href="#linearGradient53"
       id="linearGradient56"
       gradientUnits="userSpaceOnUse"
       x1="29.104166"
       y1="55.694786"
       x2="29.104166"
       y2="56.223953"
       gradientTransform="matrix(1.1051058,0,0,1.1000016,4.9148713,-5.2785262)" /><radialGradient
       inkscape:collect="always"
       xlink:href="#linearGradient57"
       id="radialGradient58"
       cx="27.207983"
       cy="57.855556"
       fx="27.207983"
       fy="57.855556"
       r="0.52916664"
       gradientUnits="userSpaceOnUse"
       gradientTransform="matrix(-7.0995721e-6,1.4666653,-1.4734667,-7.27312e-6,112.19022,19.379722)" /><radialGradient
       inkscape:collect="always"
       xlink:href="#linearGradient59"
       id="radialGradient61"
       cx="27.519037"
       cy="58.156162"
       fx="27.519037"
       fy="58.156162"
       r="0.32371858"
       gradientTransform="matrix(-1.8060745,-0.01305675,0.01330477,-1.8234213,76.067897,165.88162)"
       gradientUnits="userSpaceOnUse" /><linearGradient
       inkscape:collect="always"
       xlink:href="#linearGradient17"
       id="linearGradient18"
       x1="23.018749"
       y1="51.329163"
       x2="23.018749"
       y2="52.122913"
       gradientUnits="userSpaceOnUse"
       gradientTransform="matrix(0.99717963,0,0,1.5000012,0.11939255,-25.664643)" /><linearGradient
       inkscape:collect="always"
       xlink:href="#linearGradient20"
       id="linearGradient21"
       x1="7.9375"
       y1="2.645833"
       x2="7.9325824"
       y2="39.555206"
       gradientUnits="userSpaceOnUse"
       gradientTransform="matrix(0.47293092,0,0,0.48335899,0.00941394,-2.9235869)" /><linearGradient
       inkscape:collect="always"
       xlink:href="#linearGradient27"
       id="linearGradient28"
       x1="7.9331632"
       y1="21.100519"
       x2="59.801178"
       y2="21.100519"
       gradientUnits="userSpaceOnUse"
       gradientTransform="matrix(0.46807376,0,0,0.4848485,0.17390928,-2.7394412)" /><linearGradient
       inkscape:collect="always"
       xlink:href="#linearGradient14"
       id="linearGradient24"
       x1="11.159272"
       y1="33.477814"
       x2="12.746772"
       y2="35.98333"
       gradientUnits="userSpaceOnUse"
       gradientTransform="matrix(0.47293092,0,0,0.48335899,0.00941394,-2.9235869)" /><linearGradient
       inkscape:collect="always"
       xlink:href="#linearGradient37"
       id="linearGradient35"
       x1="13.229166"
       y1="6.8791666"
       x2="25.4"
       y2="33.866665"
       gradientUnits="userSpaceOnUse"
       gradientTransform="matrix(0.47293092,0,0,0.48335899,0.00941394,-2.9235869)" /><linearGradient
       inkscape:collect="always"
       xlink:href="#linearGradient38"
       id="linearGradient39"
       x1="50.535412"
       y1="20.306768"
       x2="51.064579"
       y2="20.306768"
       gradientUnits="userSpaceOnUse"
       gradientTransform="matrix(0.52678537,0,0,0.48776466,-2.7899218,-3.0694609)" /><linearGradient
       inkscape:collect="always"
       xlink:href="#linearGradient8"
       id="linearGradient9-9"
       x1="51.656208"
       y1="9.7535019"
       x2="54.967869"
       y2="13.668132"
       gradientUnits="userSpaceOnUse"
       gradientTransform="matrix(1.1999999,0,0,0.99326349,-7.3542959,-0.80733435)" /><radialGradient
       inkscape:collect="always"
       xlink:href="#linearGradient63"
       id="radialGradient56"
       gradientUnits="userSpaceOnUse"
       gradientTransform="matrix(-3.0458294e-6,0.63214225,-0.63214072,-3.134762e-6,61.714491,-10.285984)"
       cx="27.207983"
       cy="57.855556"
       fx="27.207983"
       fy="57.855556"
       r="0.52916664" /><radialGradient
       inkscape:collect="always"
       xlink:href="#linearGradient66"
       id="radialGradient67"
       cx="53.974998"
       cy="20.637499"
       fx="53.974998"
       fy="20.637499"
       r="0.79374999"
       gradientUnits="userSpaceOnUse"
       gradientTransform="matrix(1.053573,3.701377e-6,-1.8253226e-6,1.0535719,-31.641383,-14.746509)" /><radialGradient
       inkscape:collect="always"
       xlink:href="#linearGradient80"
       id="radialGradient86"
       gradientUnits="userSpaceOnUse"
       gradientTransform="matrix(1.0705119,1.0705069,-0.5764267,0.57642938,9.6496451,-47.952861)"
       cx="53.974998"
       cy="23.342991"
       fx="53.974998"
       fy="23.342991"
       r="1.6065176" /><radialGradient
       inkscape:collect="always"
       xlink:href="#linearGradient73"
       id="radialGradient87"
       gradientUnits="userSpaceOnUse"
       gradientTransform="matrix(-0.50000013,0.59999901,-0.98380161,-0.81983795,103.14464,8.668639)"
       cx="54.548092"
       cy="23.06292"
       fx="54.548092"
       fy="23.06292"
       r="1.3229166" /><linearGradient
       inkscape:collect="always"
       xlink:href="#linearGradient76"
       id="linearGradient87"
       gradientUnits="userSpaceOnUse"
       x1="52.652081"
       y1="21.960415"
       x2="55.297916"
       y2="24.606249" /><linearGradient
       inkscape:collect="always"
       xlink:href="#linearGradient71"
       id="linearGradient88"
       gradientUnits="userSpaceOnUse"
       x1="53.445831"
       y1="22.754166"
       x2="55.033333"
       y2="24.341665" /><radialGradient
       inkscape:collect="always"
       xlink:href="#linearGradient90"
       id="radialGradient91"
       cx="33.350834"
       cy="13.565133"
       fx="33.350834"
       fy="13.565133"
       r="25.791513"
       gradientTransform="matrix(-0.48896061,0,1.8947913e-5,-0.08893529,32.678884,16.287177)"
       gradientUnits="userSpaceOnUse" /><linearGradient
       inkscape:collect="always"
       xlink:href="#linearGradient36"
       id="linearGradient40"
       x1="11.773958"
       y1="6.2177324"
       x2="55.959373"
       y2="35.057312"
       gradientUnits="userSpaceOnUse"
       gradientTransform="matrix(0.47293092,0,0,0.48335899,0.00941394,-2.9235869)" /><radialGradient
       inkscape:collect="always"
       xlink:href="#linearGradient67"
       id="radialGradient82"
       cx="19.049999"
       cy="10.064881"
       fx="19.049999"
       fy="10.064881"
       r="17.594791"
       gradientTransform="matrix(0.55471594,-0.2180567,0.08725024,0.23185264,-2.4267541,5.0354944)"
       gradientUnits="userSpaceOnUse" /><radialGradient
       inkscape:collect="always"
       xlink:href="#linearGradient12"
       id="radialGradient15"
       cx="6.6772556"
       cy="-0.52325904"
       fx="6.6772556"
       fy="-0.52325904"
       r="0.55751485"
       gradientTransform="matrix(7.1640324e-8,2.3749996,-2.3749999,3.0112049e-7,15.375808,-11.289212)"
       gradientUnits="userSpaceOnUse" /><linearGradient
       id="linearGradient12"
       inkscape:collect="always"><stop
         style="stop-color:#ffffff;stop-opacity:1;"
         offset="0"
         id="stop14-3" /><stop
         style="stop-color:#9accff;stop-opacity:1;"
         offset="0.09863945"
         id="stop18-7" /><stop
         style="stop-color:#0080ff;stop-opacity:1;"
         offset="0.74659866"
         id="stop31-5" /><stop
         style="stop-color:#001a33;stop-opacity:1;"
         offset="1"
         id="stop15-9" /></linearGradient><linearGradient
       inkscape:collect="always"
       xlink:href="#linearGradient3-2"
       id="linearGradient4-1"
       x1="3.1385837"
       y1="-2.6662157"
       x2="4.8730745"
       y2="-0.90015715"
       gradientUnits="userSpaceOnUse"
       gradientTransform="matrix(1.7448968,0,0,1.713707,9.9125235,7.7827597)" /><linearGradient
       id="linearGradient3-2"
       inkscape:collect="always"><stop
         style="stop-color:#aaff55;stop-opacity:1;"
         offset="0"
         id="stop3-7" /><stop
         style="stop-color:#55aa00;stop-opacity:1;"
         offset="1"
         id="stop4-0" /></linearGradient><linearGradient
       inkscape:collect="always"
       xlink:href="#linearGradient16"
       id="linearGradient18-2"
       x1="0.53684717"
       y1="-2.2247012"
       x2="1.8377155"
       y2="-0.90015715"
       gradientUnits="userSpaceOnUse"
       gradientTransform="matrix(1.7448968,0,0,1.713707,9.9125235,7.7827597)" /><linearGradient
       id="linearGradient16"
       inkscape:collect="always"><stop
         style="stop-color:#52a300;stop-opacity:1;"
         offset="0"
         id="stop16-2" /><stop
         style="stop-color:#366d00;stop-opacity:1;"
         offset="1"
         id="stop17-8" /></linearGradient><linearGradient
       inkscape:collect="always"
       xlink:href="#linearGradient10"
       id="linearGradient13-9"
       x1="4.0058289"
       y1="-0.35110331"
       x2="4.4394522"
       y2="0.42438686"
       gradientUnits="userSpaceOnUse"
       gradientTransform="matrix(1.7448968,0,0,1.713707,9.9125235,7.7827597)" /><linearGradient
       id="linearGradient10"
       inkscape:collect="always"><stop
         style="stop-color:#142900;stop-opacity:1;"
         offset="0"
         id="stop12-9" /><stop
         style="stop-color:#366d00;stop-opacity:1;"
         offset="1"
         id="stop13-7" /></linearGradient><radialGradient
       inkscape:collect="always"
       xlink:href="#linearGradient19"
       id="radialGradient27"
       cx="0.68138844"
       cy="1.3875808"
       fx="0.68138844"
       fy="1.3875808"
       r="0.8672455"
       gradientTransform="matrix(-0.8724416,-0.87245587,2.6173466,-2.617347,9.3252143,13.49292)"
       gradientUnits="userSpaceOnUse" /><linearGradient
       id="linearGradient19"
       inkscape:collect="always"><stop
         style="stop-color:#ffffff;stop-opacity:1;"
         offset="0.10204082"
         id="stop26-3" /><stop
         style="stop-color:#99ffff;stop-opacity:0.80000001;"
         offset="0.3979592"
         id="stop28-6" /><stop
         style="stop-color:#3376ff;stop-opacity:0.60000002;"
         offset="0.69557822"
         id="stop29-1" /><stop
         style="stop-color:#4500cc;stop-opacity:0.40000001;"
         offset="0.84778911"
         id="stop30-2" /><stop
         style="stop-color:#220066;stop-opacity:0.2;"
         offset="1"
         id="stop27-9" /></linearGradient></defs><g
     inkscape:label="HAL Personal Computer"
     inkscape:groupmode="layer"
     id="layer1"
     style="display:inline;opacity:1;mix-blend-mode:normal"
     transform="matrix(0.22034404,0,0,0.22034404,1.0045064,0.47510088)"
     sodipodi:insensitive="true"><path
       style="display:inline;opacity:1;mix-blend-mode:normal;fill:url(#linearGradient7);stroke:none;stroke-width:0.264583;stroke-linecap:round;stroke-linejoin:round"
       d="M 3.1871043,48.817938 9.2021159,42.803037 C 9.7312825,42.27387 9.9716558,42.273154 10.765406,42.273154 l 46.202285,-7.06e-4 c 0.79375,0 1.034124,0.0014 1.563291,0.530589 l 6.015246,6.014901 z"
       id="path6"
       inkscape:label="Top Cover"
       sodipodi:nodetypes="ccccccc" /><path
       id="rect2"
       style="display:inline;opacity:1;mix-blend-mode:normal;fill:#edf1ea;fill-opacity:1;stroke-width:0.264583;stroke-linecap:round;stroke-linejoin:round"
       inkscape:label="Front Panel Top Bevel"
       d="M 4.4979166,48.276667 H 63.235416 c 1.026054,0 1.852083,0.826029 1.852083,1.852083 v 0.742123 H 2.6458331 l 2e-7,-0.742123 c 3e-7,-1.026054 0.8260291,-1.852083 1.8520833,-1.852083 z"
       sodipodi:nodetypes="sssccss" /><path
       id="rect1"
       style="opacity:1;fill:url(#linearGradient2);stroke:none;stroke-width:0.26458;stroke-linecap:round;stroke-linejoin:round"
       d="M 4.2332966,49.477082 H 63.4986 c 0.793732,0 1.587464,0.661456 1.587464,1.322914 v 12.700002 c 0,0.879475 -0.708009,1.5875 -1.587464,1.5875 H 4.2332967 c -0.8794548,0 -1.5874634,-0.708025 -1.5874634,-1.5875 V 50.799996 c 0,-0.661458 0.7937318,-1.322914 1.5874633,-1.322914 z"
       sodipodi:nodetypes="sssssssss"
       inkscape:label="Front Panel" /><g
       inkscape:groupmode="layer"
       id="layer5"
       inkscape:label="Badge"
       style="display:inline;opacity:1;mix-blend-mode:normal;stroke-width:0.934997"
       transform="matrix(1.0402377,0,0,1.0400405,-0.85755915,-2.3559853)"><rect
         style="display:inline;opacity:1;mix-blend-mode:normal;fill:url(#linearGradient9);fill-opacity:1;stroke:#000000;stroke-width:0.288608;stroke-linecap:round;stroke-linejoin:round;stroke-dasharray:none;stroke-opacity:0.5;paint-order:markers stroke fill"
         id="rect7"
         width="3.1743975"
         height="3.175"
         x="5.8208332"
         y="53.445831"
         rx="6.8656557e-18"
         inkscape:label="Panel"
         ry="6.8669577e-18" /><path
         d="M 6.936015,53.785363 H 6.5652731 v -0.07495 H 6.936015 Z m 0,0.145409 H 6.5652731 v -0.07495 H 6.936015 Z M 6.8045814,54.064189 H 6.5652731 v -0.06446 H 6.8045814 Z M 6.4412792,53.785363 H 6.0854165 v -0.07495 h 0.3558627 z m 0.3633022,0.412242 H 6.2044507 v -0.06596 H 6.8045814 Z M 6.4412792,53.930772 H 6.0854165 v -0.07495 H 6.4412792 Z M 6.8045814,54.47643 H 6.5652731 V 54.39248 H 6.8045814 Z M 6.4412792,54.064189 H 6.2044507 v -0.06446 H 6.4412792 Z M 6.936015,54.62334 H 6.5652731 V 54.54839 H 6.936015 Z M 6.8045814,54.326525 H 6.2044507 v -0.06895 H 6.8045814 Z M 6.936015,54.768748 H 6.5652731 v -0.07346 H 6.936015 Z M 6.4412792,54.47643 H 6.2044507 v -0.08395 h 0.2368285 z m 0,0.14691 H 6.0854165 v -0.07495 h 0.3558627 z m 0,0.145408 H 6.0854165 v -0.07346 H 6.4412792 Z M 7.6879395,53.785363 H 7.2861992 l 0.00992,-0.07495 h 0.3806613 z m 0.042159,0.283323 H 7.5118681 l -0.00992,-0.06895 h 0.21699 z m -0.02108,-0.137914 H 7.4920294 l -0.0062,-0.04648 -0.0062,0.04648 H 7.2651206 l 0.00992,-0.07495 h 0.4228187 z m 0.040918,0.274329 H 7.5317072 l -0.00992,-0.06895 h 0.2169901 z m -0.2802263,-0.205372 -0.011159,0.06895 h -0.21327 l 0.00992,-0.06895 z m 0.4513379,0.623611 h -0.348423 l -0.00868,-0.07495 H 7.9210508 Z M 7.7697755,54.341515 H 7.2056031 l 0.00992,-0.06746 h 0.5443335 z m -0.3199043,-0.205371 -0.011159,0.06895 h -0.21327 l 0.00992,-0.06895 z m 0.4711769,0.632604 H 7.5899843 l -0.00868,-0.07346 H 7.9210489 Z M 7.7896145,54.47643 H 7.1870041 l 0.00992,-0.06895 h 0.5827715 z m -0.3819013,0.07196 -0.00868,0.07495 H 7.0493707 v -0.07495 z m -0.01736,0.146907 -0.00868,0.07346 H 7.0493715 v -0.07346 z m 1.128867,-0.909934 H 8.0455634 v -0.07495 h 0.4736568 z m 0,0.145409 H 8.0455634 v -0.07495 H 8.5192202 Z M 8.7312498,54.47643 H 8.5080607 V 54.39248 H 8.7312498 Z M 8.401426,54.064189 H 8.1633576 v -0.06446 H 8.401426 Z m 0,0.133416 H 8.1633576 v -0.06596 H 8.401426 Z m 0,0.12892 H 8.1633576 v -0.06895 H 8.401426 Z m 0,0.149905 H 8.1633576 V 54.39248 H 8.401426 Z m 0.3298238,0.14691 H 8.0455634 v -0.07495 h 0.6856864 z m 0,0.145408 H 8.0455634 v -0.07346 h 0.6856864 z"
         id="text1"
         style="font-size:1.42728px;line-height:0;font-family:MeninBlue;-inkscape-font-specification:MeninBlue;letter-spacing:0.134763px;word-spacing:0px;display:inline;opacity:1;mix-blend-mode:normal;fill:#000000;fill-opacity:1;stroke-width:0.247384;stroke-linecap:round;stroke-linejoin:round;stroke-opacity:0.5;paint-order:markers stroke fill"
         aria-label="HAL"
         inkscape:label="HAL" /><path
         id="path5"
         style="font-style:italic;font-size:0.426946px;line-height:0.9;font-family:'Droid Serif';-inkscape-font-specification:'Droid Serif Italic';letter-spacing:0px;word-spacing:0px;display:inline;opacity:1;mix-blend-mode:normal;fill:#000000;fill-opacity:1;stroke-width:0.247384;stroke-linecap:round;stroke-linejoin:round;stroke-opacity:0.5;paint-order:markers stroke fill"
         d="m 6.3963948,56.141146 q 0.00754,0.0052 0.00754,0.01851 0,0.02666 -0.031824,0.0476 -0.031823,0.02066 -0.087656,0.02066 -0.074534,0 -0.1164075,-0.0389 -0.041594,-0.03888 -0.041594,-0.11015 0,-0.105527 0.067556,-0.182494 0.067556,-0.07724 0.168051,-0.07724 0.049969,0 0.077884,0.01687 0.027915,0.0166 0.027915,0.04515 0,0.01986 -0.015353,0.03154 -0.015353,0.01175 -0.040758,0.01175 0,-0.07559 -0.056948,-0.07559 -0.070626,0 -0.1183607,0.07506 -0.047457,0.07479 -0.047457,0.163727 0,0.104163 0.1016118,0.104163 0.066159,0 0.105799,-0.05059 z m 0.2537515,-0.222745 q 0.050527,0 0.079559,0.02964 0.029033,0.02964 0.029033,0.08567 0,0.07424 -0.04662,0.134356 -0.046619,0.05983 -0.122548,0.05983 -0.051644,0 -0.080675,-0.03047 -0.029033,-0.03046 -0.029033,-0.08458 0,-0.07506 0.046898,-0.134624 0.047176,-0.05983 0.1233863,-0.05983 z m -0.054156,0.282307 q 0.047176,0 0.075093,-0.05439 0.028194,-0.05466 0.028194,-0.121036 0,-0.0775 -0.055832,-0.0775 -0.04662,0 -0.075372,0.05466 -0.028752,0.05466 -0.028752,0.121566 0,0.0767 0.056669,0.0767 z m 0.4444146,0.02175 h -0.054436 q 0,-0.0125 0.00726,-0.05766 0.00726,-0.04541 0.012284,-0.06771 l 0.013128,-0.05766 q 0.00837,-0.03372 0.00837,-0.05196 0,-0.03291 -0.02624,-0.03291 -0.031824,0 -0.0656,0.04243 -0.033498,0.04215 -0.042431,0.08294 l -0.030708,0.142514 h -0.053319 l 0.048014,-0.223834 q 0.00335,-0.01549 0.00335,-0.02502 0,-0.02638 -0.039919,-0.02638 h -0.00447 l 0.00502,-0.02339 h 0.105799 l -0.015353,0.07017 h 0.00559 q 0.046339,-0.07506 0.1041238,-0.07506 0.061135,0 0.061135,0.06172 0,0.0068 -0.00112,0.01332 h 0.00559 q 0.04662,-0.07506 0.1041239,-0.07506 0.061135,0 0.061135,0.06173 0,0.01768 -0.010319,0.0612 l -0.014796,0.06582 q -0.00726,0.03236 -0.00726,0.05847 0,0.02665 0.01982,0.02665 0.016471,0 0.03657,-0.01278 l 0.010319,0.01631 q -0.03629,0.03155 -0.069788,0.03155 -0.023448,0 -0.037685,-0.01496 -0.014237,-0.01496 -0.014237,-0.04053 0,-0.02557 0.010887,-0.07535 l 0.00978,-0.04352 q 0.011993,-0.05358 0.011993,-0.06609 0,-0.03291 -0.026521,-0.03291 -0.029311,0 -0.060576,0.03671 -0.031265,0.03644 -0.043827,0.07642 l -0.00921,0.03998 q -0.00362,0.01522 -0.010043,0.05956 -0.00642,0.04432 -0.00642,0.05521 z m 0.3640176,0.110427 -0.00502,0.02339 H 7.2919267 l 0.075931,-0.353292 q 0.00502,-0.02339 0.00502,-0.02936 0,-0.02638 -0.039919,-0.02638 h -0.00447 l 0.00502,-0.02339 h 0.1013379 l -0.013681,0.07424 h 0.00278 q 0.041315,-0.07969 0.1046827,-0.07969 0.034895,0 0.053597,0.02583 0.018983,0.02584 0.018983,0.07479 0,0.07479 -0.048014,0.141969 -0.047735,0.06689 -0.1225481,0.06689 -0.032661,0 -0.055831,-0.01278 -0.00252,0.01796 -0.00474,0.02692 l -0.00782,0.034 q -0.0053,0.02313 -0.0053,0.031 0,0.02583 0.039919,0.02583 z m -0.020658,-0.149862 q 0.018424,0.01986 0.045223,0.01986 0.047735,0 0.080675,-0.06066 0.03322,-0.06092 0.03322,-0.123738 0,-0.065 -0.036012,-0.065 -0.02959,0 -0.059738,0.04025 -0.030149,0.03998 -0.039919,0.08322 z m 0.2797129,-0.259188 h 0.1063579 l -0.037687,0.166719 q -0.011454,0.05059 -0.011454,0.06717 0,0.034 0.027915,0.034 0.029311,0 0.063088,-0.04106 0.034057,-0.04135 0.044386,-0.08813 l 0.02987,-0.138705 h 0.055273 l -0.03936,0.178959 q -0.00865,0.03944 -0.00865,0.06172 0,0.02829 0.018983,0.02829 0.01619,0 0.03657,-0.01225 l 0.010319,0.01631 q -0.03629,0.031 -0.07258,0.031 -0.021495,0 -0.034895,-0.01496 -0.013128,-0.01496 -0.013128,-0.03781 0,-0.01441 0.00278,-0.03289 h -0.00447 q -0.030986,0.04977 -0.055552,0.06745 -0.024287,0.01768 -0.054993,0.01768 -0.061135,0 -0.061135,-0.06173 0,-0.01768 0.010319,-0.06119 l 0.022333,-0.09763 q 0.00502,-0.02204 0.00502,-0.03318 0,-0.02638 -0.039919,-0.02638 h -0.00447 z m 0.476796,0.25674 0.00978,0.02066 q -0.038524,0.02665 -0.077047,0.02665 -0.062251,0 -0.062251,-0.065 0,-0.02093 0.00559,-0.04678 l 0.034895,-0.160463 h -0.043548 l 0.0053,-0.0223 q 0.055831,0 0.087375,-0.07806 h 0.02624 l -0.014796,0.06854 h 0.06923 l -0.00697,0.03183 h -0.06923 l -0.034614,0.15883 q -0.00697,0.03209 -0.00697,0.04787 0,0.03046 0.030427,0.03046 0.02317,0 0.046619,-0.01225 z m 0.2677093,-0.02773 q 0.00587,0.0036 0.00587,0.01387 0,0.02228 -0.027078,0.04189 -0.026799,0.01931 -0.072022,0.01931 -0.049969,0 -0.080675,-0.03074 -0.030708,-0.03074 -0.030708,-0.08431 0,-0.07289 0.048294,-0.133538 0.048294,-0.06092 0.1219906,-0.06092 0.03629,0 0.056109,0.01687 0.020099,0.01687 0.020099,0.04705 0,0.04515 -0.048294,0.0786 -0.048014,0.03345 -0.1175239,0.03345 h -0.00978 q -0.00502,0 -0.010319,-5.43e-4 -0.00112,0.0076 -0.00112,0.02339 0,0.07559 0.06281,0.07559 0.048851,0 0.082351,-0.03997 z m -0.1387399,-0.08458 h 0.00559 q 0.050526,0 0.083188,-0.02395 0.032939,-0.02393 0.032939,-0.06201 0,-0.03726 -0.03322,-0.03726 -0.027635,0 -0.051644,0.034 -0.024007,0.03372 -0.036848,0.08921 z m 0.4145446,-0.06908 q 0,-0.04405 -0.022891,-0.04405 -0.026521,0 -0.056389,0.05086 -0.02959,0.05086 -0.043827,0.115037 l -0.021495,0.101447 h -0.053318 l 0.048014,-0.223833 q 0.00335,-0.01549 0.00335,-0.02501 0,-0.02638 -0.045502,-0.02638 h -0.00474 l 0.0053,-0.02339 h 0.1010543 l -0.011993,0.08023 h 0.00587 q 0.022889,-0.04977 0.045223,-0.06771 0.022333,-0.01795 0.051922,-0.01795 0.046898,0 0.046898,0.03835 0,0.04241 -0.047457,0.04241 z m -2.5983709,-0.278025 0.00502,-0.02339 h 0.00754 q 0.026799,0 0.038802,-0.01011 0.011993,-0.01011 0.01619,-0.02992 l 0.05946,-0.273059 q 0.00224,-0.01035 0.00224,-0.01549 0,-0.02229 -0.041314,-0.02229 h -0.00726 l 0.00502,-0.02339 h 0.1465561 q 0.061972,0 0.09603,0.02801 0.034057,0.02801 0.034057,0.07941 0,0.06337 -0.043827,0.09954 -0.043548,0.03591 -0.1309225,0.03591 h -0.04243 l -0.020377,0.09356 q -0.00252,0.01149 -0.00252,0.01549 0,0.0223 0.041315,0.0223 h 0.018702 l -0.00502,0.02339 z m 0.1510226,-0.181133 h 0.030149 q 0.1205948,0 0.1205948,-0.10852 0,-0.08132 -0.083468,-0.08132 h -0.02624 z m 0.444135,0.111501 q 0.00587,0.0036 0.00587,0.01387 0,0.02229 -0.027077,0.04188 -0.026799,0.01931 -0.072022,0.01931 -0.049969,0 -0.080675,-0.03074 -0.030708,-0.03074 -0.030708,-0.08429 0,-0.07289 0.048294,-0.13354 0.048294,-0.06092 0.1219906,-0.06092 0.036289,0 0.056109,0.01687 0.020099,0.01686 0.020099,0.04705 0,0.04514 -0.048294,0.0786 -0.048014,0.03345 -0.1175239,0.03345 h -0.00978 q -0.00502,0 -0.01032,-5.44e-4 -0.00112,0.0076 -0.00112,0.02339 0,0.07559 0.06281,0.07559 0.048851,0 0.082351,-0.03997 z m -0.1387398,-0.08458 h 0.00559 q 0.050527,0 0.083188,-0.02395 0.032939,-0.02395 0.032939,-0.06201 0,-0.03726 -0.03322,-0.03726 -0.027637,0 -0.051644,0.034 -0.024007,0.03372 -0.036848,0.08921 z m 0.4145445,-0.06908 q 0,-0.04406 -0.022891,-0.04406 -0.026521,0 -0.056389,0.05086 -0.02959,0.05085 -0.043827,0.115037 l -0.021495,0.101447 h -0.053319 l 0.048014,-0.223831 q 0.00335,-0.01549 0.00335,-0.02502 0,-0.02638 -0.045501,-0.02638 h -0.00474 l 0.0053,-0.02339 h 0.1010543 l -0.011993,0.08023 h 0.00587 q 0.022891,-0.04977 0.045223,-0.06773 0.022333,-0.01795 0.051922,-0.01795 0.046898,0 0.046898,0.03834 0,0.04243 -0.047457,0.04243 z m 0.2512392,0.007 q 0,-0.02801 -0.013681,-0.04488 -0.013404,-0.01687 -0.037685,-0.01687 -0.025682,0 -0.040758,0.01358 -0.014796,0.01334 -0.014796,0.03427 0,0.01851 0.014237,0.03155 0.014237,0.01305 0.044107,0.02583 0.068673,0.02992 0.068673,0.08648 0,0.04106 -0.032383,0.06636 -0.032382,0.0253 -0.08598,0.0253 -0.04327,0 -0.068951,-0.01687 -0.025403,-0.01713 -0.025403,-0.04596 0,-0.01796 0.010043,-0.02721 0.010319,-0.0095 0.025962,-0.0095 0,0.03454 0.017028,0.05385 0.017308,0.01904 0.048294,0.01904 0.061694,0 0.061694,-0.05168 0,-0.01986 -0.013128,-0.03345 -0.013128,-0.01387 -0.044664,-0.02801 -0.041036,-0.01903 -0.055273,-0.03917 -0.013959,-0.02041 -0.013959,-0.04705 0,-0.03644 0.030427,-0.05956 0.030708,-0.02339 0.079837,-0.02339 0.042152,0 0.0656,0.01523 0.023728,0.01525 0.023728,0.03753 0,0.03456 -0.042989,0.03456 z m 0.2531932,-0.08784 q 0.050526,0 0.079559,0.02964 0.029033,0.02964 0.029033,0.08567 0,0.07424 -0.046619,0.134354 -0.04662,0.05983 -0.1225481,0.05983 -0.051644,0 -0.080675,-0.03046 -0.029033,-0.03047 -0.029033,-0.08458 0,-0.07506 0.046898,-0.134627 0.047176,-0.05983 0.1233864,-0.05983 z m -0.054156,0.282336 q 0.047176,0 0.075092,-0.05439 0.028196,-0.05466 0.028196,-0.121036 0,-0.0775 -0.055831,-0.0775 -0.046619,0 -0.075372,0.05466 -0.028752,0.05466 -0.028752,0.121579 0,0.0767 0.056668,0.0767 z m 0.2660343,0.02175 h -0.053319 l 0.048014,-0.22383 q 0.00335,-0.01549 0.00335,-0.02501 0,-0.02639 -0.039919,-0.02639 h -0.00447 l 0.00502,-0.02339 h 0.105799 l -0.015353,0.07018 h 0.00559 q 0.046339,-0.07506 0.1041238,-0.07506 0.061135,0 0.061135,0.06173 0,0.01768 -0.010319,0.0612 l -0.014796,0.06582 q -0.00754,0.03345 -0.00754,0.05848 0,0.02665 0.020099,0.02665 0.016471,0 0.03657,-0.01278 l 0.010319,0.01631 q -0.037407,0.03154 -0.069788,0.03154 -0.023728,0 -0.037965,-0.01496 -0.013958,-0.01496 -0.013958,-0.04053 0,-0.02557 0.010886,-0.07535 l 0.013128,-0.05766 q 0.00837,-0.03372 0.00837,-0.05196 0,-0.03289 -0.02624,-0.03289 -0.031824,0 -0.065322,0.04189 -0.03322,0.04188 -0.042711,0.0835 z m 0.4728879,-0.08405 h -0.00362 q -0.041036,0.08949 -0.1069167,0.08949 -0.034895,0 -0.054436,-0.02666 -0.019261,-0.02692 -0.019261,-0.07506 0,-0.0767 0.048851,-0.142241 0.049132,-0.06554 0.1214318,-0.06554 0.038801,0 0.066997,0.02013 l 0.025123,-0.01414 h 0.018424 l -0.039081,0.178405 q -0.00837,0.03835 -0.00837,0.06173 0,0.02829 0.018702,0.02829 0.01619,0 0.041315,-0.01441 l 0.010319,0.01631 q -0.041036,0.03318 -0.080675,0.03318 -0.044664,0 -0.044664,-0.04623 0,-0.01768 0.00587,-0.04324 z m 0.032383,-0.174877 q -0.013128,-0.02013 -0.04327,-0.02013 -0.048851,0 -0.082071,0.06066 -0.032939,0.06038 -0.032939,0.124294 0,0.06445 0.036011,0.06445 0.028474,0 0.059739,-0.04106 0.031265,-0.04107 0.041315,-0.08975 z m 0.1476728,-0.140881 0.00502,-0.02339 h 0.108033 l -0.066158,0.303522 q -0.00865,0.03972 -0.00865,0.06173 0,0.02829 0.018983,0.02829 0.016471,0 0.041036,-0.01441 l 0.010319,0.01631 q -0.03964,0.03318 -0.077325,0.03318 -0.020658,0 -0.034057,-0.01469 -0.013127,-0.01469 -0.013127,-0.03809 0,-0.02639 0.01256,-0.08758 l 0.046619,-0.213769 q 0.00362,-0.0166 0.00362,-0.02502 0,-0.0261 -0.040199,-0.0261 z"
         inkscape:label="PC" /></g><g
       inkscape:groupmode="layer"
       id="layer6"
       inkscape:label="Ventilation Holes"
       style="display:inline;opacity:1;mix-blend-mode:normal"><path
         style="display:inline;fill:none;fill-opacity:1;stroke:#000000;stroke-width:1.20077;stroke-linecap:round;stroke-linejoin:round;stroke-dasharray:none;stroke-opacity:1;paint-order:markers stroke fill"
         d="m 5.6477674,58.483243 v 3.602321"
         id="path16"
         sodipodi:nodetypes="cc"
         inkscape:label="Hole" /><use
         x="0"
         y="0"
         xlink:href="#path16"
         id="use17"
         transform="translate(2.4015474)"
         style="display:inline" /><use
         x="0"
         y="0"
         xlink:href="#path16"
         id="use19"
         transform="translate(4.8030948)"
         style="display:inline" /><use
         x="0"
         y="0"
         xlink:href="#path16"
         id="use22"
         transform="translate(7.2046422)"
         style="display:inline" /><use
         x="0"
         y="0"
         xlink:href="#path16"
         id="use24"
         transform="translate(9.6061895)"
         style="display:inline" /><use
         x="0"
         y="0"
         xlink:href="#path16"
         id="use27"
         transform="translate(12.007737)"
         style="display:inline" /><use
         x="0"
         y="0"
         xlink:href="#path16"
         id="use29"
         transform="translate(14.409284)"
         style="display:inline" /></g><g
       inkscape:groupmode="layer"
       id="layer4"
       inkscape:label="Drive Bay"
       transform="matrix(1.0286943,0,0,1.0085232,-0.67630552,-0.48804433)"
       style="display:inline"><rect
         style="display:inline;opacity:1;mix-blend-mode:normal;fill:url(#linearGradient11);stroke-width:0.272763;stroke-linecap:round;stroke-linejoin:round;stroke-opacity:0.5;paint-order:markers stroke fill"
         id="rect5"
         width="38.520222"
         height="10.715631"
         x="23.073221"
         y="51.329159"
         inkscape:label="Panel" /><g
         inkscape:groupmode="layer"
         id="layer7"
         inkscape:label="Floppy Drive"
         style="display:inline;opacity:1;mix-blend-mode:normal"
         transform="matrix(0.99804309,0,0,1.0227278,0.07507576,-1.1666007)"><rect
           style="display:inline;opacity:1;mix-blend-mode:normal;fill:url(#linearGradient34);fill-opacity:0.502164;stroke:none;stroke-width:0.383201;stroke-linecap:round;stroke-linejoin:round;stroke-dasharray:none;stroke-opacity:1;paint-order:markers stroke fill"
           id="rect31-5"
           width="17.543524"
           height="9.8954134"
           x="24.212807"
           y="51.329163"
           inkscape:label="Panel" /><path
           id="rect42"
           style="display:inline;opacity:1;mix-blend-mode:normal;fill:url(#linearGradient44);stroke-width:0.510126;stroke-linecap:round;stroke-dasharray:none;stroke-opacity:0.75;paint-order:stroke markers fill"
           inkscape:label="Hole"
           d="m 24.797592,55.985826 h 5.263056 v -3.4925 h 5.847841 v 3.4925 h 5.263053 v 0.582083 h -5.263053 v 3.4925 l -5.847841,-4e-6 v -3.4925 h -5.263056 z"
           sodipodi:nodetypes="ccccccccccccc" /><rect
           style="display:inline;opacity:1;mix-blend-mode:normal;fill:url(#linearGradient55);stroke:none;stroke-width:0.643381;stroke-linecap:round;stroke-linejoin:miter;stroke-dasharray:none;stroke-opacity:0.75;paint-order:stroke markers fill"
           id="rect53"
           width="0.58478409"
           height="0.5820834"
           x="28.306295"
           y="55.985825"
           inkscape:label="Left Teeth" /><rect
           style="display:inline;opacity:1;mix-blend-mode:normal;fill:url(#linearGradient56);fill-opacity:1;stroke:none;stroke-width:0.64338;stroke-linecap:round;stroke-linejoin:miter;stroke-dasharray:none;stroke-opacity:0.75;paint-order:stroke markers fill"
           id="rect53-1"
           width="0.58478409"
           height="0.5820834"
           x="37.078056"
           y="55.985825"
           inkscape:label="Right Teeth" /><path
           id="rect48"
           style="display:inline;opacity:1;mix-blend-mode:normal;fill:#ffffff;fill-opacity:0.5;stroke-width:0.529168;stroke-linecap:round;stroke-opacity:0.75;paint-order:stroke markers fill"
           inkscape:label="Bevel Bottom"
           d="m 24.797592,56.567909 -0.584784,0.582084 h 5.84784 v -0.582084 z m 11.110897,0 v 0.582084 h 5.847841 l -0.584784,-0.582084 z"
           sodipodi:nodetypes="cccccccccc" /><path
           id="rect48-2"
           style="display:inline;mix-blend-mode:normal;fill:#000000;fill-opacity:0.5;stroke-width:0.529168;stroke-linecap:round;stroke-opacity:0.75;paint-order:stroke markers fill"
           inkscape:label="Bevel Top"
           d="m 24.212808,55.403742 0.584784,0.582084 h 5.263056 v -0.582084 z m 11.695681,0 v 0.582084 h 5.263057 l 0.584784,-0.582084 z"
           sodipodi:nodetypes="cccccccccc" /><path
           id="rect46"
           style="display:inline;fill:url(#linearGradient48);stroke-width:0.714556;stroke-linecap:round;stroke-opacity:0.75;paint-order:stroke markers fill"
           d="m 30.060648,60.060409 1.754353,-2.328333 h -1.754352 z"
           sodipodi:nodetypes="cccc"
           inkscape:label="Hole Shadow" /><rect
           style="display:inline;opacity:1;mix-blend-mode:normal;fill:url(#linearGradient50);stroke:none;stroke-width:0.470214;stroke-linecap:round;stroke-linejoin:miter;stroke-dasharray:none;stroke-opacity:0.75;paint-order:stroke markers fill"
           id="rect49"
           width="4.6782737"
           height="4.6566668"
           x="30.645432"
           y="53.075409"
           inkscape:label="Latch"
           ry="0" /><ellipse
           style="display:inline;fill:url(#radialGradient58);fill-opacity:1;stroke:none;stroke-width:0.777908;stroke-linecap:round;stroke-linejoin:miter;stroke-dasharray:none;stroke-opacity:0.75;paint-order:stroke markers fill"
           id="path56"
           inkscape:label="LED"
           cx="27.136728"
           cy="59.478325"
           rx="0.58478409"
           ry="0.5820834" /><path
           id="path59"
           style="display:inline;fill:url(#radialGradient61);stroke-width:0.777908;stroke-linecap:round;stroke-opacity:0.75;paint-order:stroke markers fill"
           inkscape:label="Led Reflection"
           d="m 27.627452,59.368603 c 0.06153,0.179429 -0.06015,0.480599 -0.343113,0.57683 -0.136266,0.04635 -0.476618,0.08837 -0.581957,-0.21528 -0.06321,-0.1822 0.09751,0.144774 0.510302,0.003 0.371183,-0.127585 0.352254,-0.546736 0.414768,-0.364442 z"
           sodipodi:nodetypes="sssss" /><use
           x="0"
           y="0"
           xlink:href="#text1"
           id="use41"
           transform="matrix(1.1323416,0,0,1.099989,17.906821,-6.5875379)"
           style="display:inline;opacity:1;mix-blend-mode:normal;fill:#000000;fill-opacity:1;stroke-width:0.985611"
           inkscape:label="HAL" /></g><g
         inkscape:groupmode="layer"
         id="layer8"
         inkscape:label="Hard Drive"
         style="display:inline;opacity:1;mix-blend-mode:normal"
         transform="matrix(0.99804309,0,0,1.0227278,0.09060619,-1.1666007)"><rect
           style="display:inline;opacity:1;mix-blend-mode:normal;fill:url(#linearGradient33);fill-opacity:0.502164;stroke:none;stroke-width:0.383201;stroke-linecap:round;stroke-linejoin:round;stroke-dasharray:none;stroke-opacity:1;paint-order:markers stroke fill"
           id="rect33"
           width="17.543524"
           height="9.8954134"
           x="42.910336"
           y="51.329163"
           inkscape:label="Panel" /><rect
           style="display:inline;opacity:1;mix-blend-mode:normal;fill:#000000;fill-opacity:1;stroke:none;stroke-width:0.61815;stroke-linecap:round;stroke-linejoin:miter;stroke-dasharray:none;stroke-opacity:0.75;paint-order:stroke markers fill"
           id="rect35"
           width="15.204383"
           height="2.3283324"
           x="44.079906"
           y="57.149994"
           inkscape:label="Hole" /><path
           id="rect9"
           style="display:inline;opacity:1;mix-blend-mode:normal;fill:#333333;fill-opacity:1;stroke:none;stroke-width:0.618148;stroke-linecap:round;stroke-linejoin:miter;stroke-dasharray:none;stroke-opacity:0.75;paint-order:stroke markers fill"
           inkscape:label="Grid"
           d="m 49.927746,57.149993 v 0.582082 l -5.847841,10e-7 v 1.164167 l 5.84784,-3e-6 10e-7,0.582085 h 1.169568 l -10e-7,-0.582085 1.169569,-3e-6 10e-7,0.582087 1.169568,10e-7 -10e-7,-0.582087 1.169568,-10e-7 1e-6,0.582087 1.169568,10e-7 -1e-6,-0.582087 1.169568,-10e-7 10e-7,0.582087 h 1.169568 l -10e-7,-0.582087 1.16957,4e-6 10e-7,-1.164162 -1.169569,-4e-6 -1e-6,-0.582082 h -1.169568 v 0.582082 l -1.169567,10e-7 -10e-7,-0.582082 -1.169568,-10e-7 v 0.582082 l -1.169568,10e-7 v -0.582082 l -1.169568,-10e-7 v 0.582082 h -1.169568 l -1e-6,-0.582082 z"
           sodipodi:nodetypes="ccccccccccccccccccccccccccccccccccccc" /><rect
           style="display:inline;opacity:1;mix-blend-mode:normal;fill:#ffffff;fill-opacity:0.75;stroke:none;stroke-width:0.663993;stroke-linecap:round;stroke-linejoin:miter;stroke-dasharray:none;stroke-opacity:0.75;paint-order:stroke markers fill"
           id="rect36"
           width="2.3391354"
           height="2.3283322"
           x="45.834259"
           y="57.149994"
           inkscape:label="LedBorder" /><rect
           style="display:inline;opacity:1;mix-blend-mode:normal;fill:#cc0000;fill-opacity:1;stroke:none;stroke-width:1.16686;stroke-linecap:round;stroke-linejoin:miter;stroke-dasharray:none;stroke-opacity:0.75;paint-order:stroke markers fill"
           id="rect34"
           width="1.1695694"
           height="1.1641679"
           x="46.419041"
           y="57.732075"
           inkscape:label="LED"
           ry="0" /><use
           x="0"
           y="0"
           xlink:href="#text1"
           id="use42"
           inkscape:label="HAL"
           style="display:inline;opacity:1;mix-blend-mode:normal;fill:#000000;fill-opacity:1"
           transform="matrix(1.099989,0,0,1.099989,37.386014,-6.5875379)" /></g><rect
         style="display:inline;opacity:1;mix-blend-mode:normal;fill:url(#linearGradient18);fill-opacity:1;stroke:none;stroke-width:1.11713;stroke-linecap:round;stroke-opacity:0.75;paint-order:stroke markers fill"
         id="rect4"
         width="38.520222"
         height="1.1906257"
         x="23.073221"
         y="51.329159"
         inkscape:label="Top Shadow" /><path
         id="rect3"
         style="display:inline;opacity:1;fill:url(#linearGradient4);fill-opacity:1;stroke-width:0.264583;stroke-linecap:round;stroke-linejoin:round;stroke-opacity:0.5;paint-order:markers stroke fill"
         inkscape:label="Bevel"
         d="m 23.073221,51.329159 0.231858,9.579123 c 0.0043,0.338088 0.175818,0.544652 0.543664,0.541193 H 60.81792 c 0.317793,-0.01102 0.549978,-0.151142 0.543665,-0.541193 l 0.231858,-9.579125 c 0.298964,-4e-6 0.583639,0.302155 0.583639,0.595313 v 10.715631 c 0,0.293158 -0.290481,0.595313 -0.583639,0.595313 H 23.073222 c -0.293158,0 -0.58364,-0.302155 -0.58364,-0.595313 V 51.92447 c 0,-0.293158 0.290481,-0.595311 0.583639,-0.595311 z"
         sodipodi:nodetypes="ccccccssssssc" /><path
         id="path11"
         style="display:inline;opacity:1;fill:url(#radialGradient14);stroke-width:0.264583;stroke-linecap:round;stroke-linejoin:round;stroke-opacity:0.5;paint-order:markers stroke fill"
         inkscape:label="Left Shadow"
         d="m 23.073222,51.329157 0.231857,9.579125 c 0.0043,0.338088 0.175818,0.544652 0.543664,0.541193 l -0.775521,1.785939 c -0.293158,0 -0.58364,-0.302155 -0.58364,-0.595313 V 51.92447 c 0,-0.293158 0.290482,-0.595313 0.58364,-0.595313 z"
         sodipodi:nodetypes="ccccssc" /><path
         id="path14"
         style="display:inline;opacity:1;fill:url(#radialGradient16);fill-opacity:1;stroke-width:0.264583;stroke-linecap:round;stroke-linejoin:round;stroke-opacity:0.5;paint-order:markers stroke fill"
         inkscape:label="Right Shadow"
         d="m 61.593443,51.329157 -0.231858,9.579125 c -0.0043,0.338088 -0.175819,0.544652 -0.543665,0.541193 l 0.775523,1.785939 c 0.293158,0 0.583639,-0.302155 0.583639,-0.595313 V 51.92447 c 0,-0.293158 -0.290481,-0.595313 -0.583639,-0.595313 z"
         sodipodi:nodetypes="ccccssc" /></g></g><g
     inkscape:groupmode="layer"
     id="layer2"
     inkscape:label="HAL Color Monitor"
     style="display:inline;opacity:1"
     transform="matrix(0.47457627,0,0,0.47457627,0.86101695,2.8972021)"
     inkscape:highlight-color="#3e99e3"><path
       id="path88"
       style="display:inline;opacity:1;fill:url(#radialGradient91);fill-opacity:1;stroke:none;stroke-width:0.128056;stroke-linecap:round;stroke-dasharray:none;stroke-opacity:1;paint-order:normal"
       d="m 28.468194,15.080746 0.32171,1.146889 c 0.131592,0.469116 0.06908,0.875235 -0.450394,0.892023 -3.902579,0.102236 -7.8063,0.191147 -11.710245,0.191147 -3.903946,0 -7.8076664,-0.08891 -11.710246,-0.191147 -0.5324924,0.03188 -0.8910103,-0.451633 -0.9651302,-0.892025 l -0.193026,-1.146887 z"
       sodipodi:nodetypes="cssssscc"
       inkscape:label="UnderShadow"
       sodipodi:insensitive="true" /><path
       id="rect8"
       style="display:inline;opacity:1;fill:url(#linearGradient21);fill-opacity:1;stroke:none;stroke-width:0.126501;stroke-linecap:round;stroke-dasharray:none;stroke-opacity:1;paint-order:normal"
       d="m 4.8894697,-1.4528666 c 3.7108564,-0.119769 7.4238313,-0.1918332 11.1365383,-0.1918332 3.712706,0 7.425679,0.072065 11.136536,0.1918333 0.530968,0.017137 0.960585,0.035833 1.001037,0.95916519 0.113825,2.59815011 0.135558,5.20048021 0.125129,7.80121211 -0.01043,2.601168 -0.05492,5.2035622 -0.187694,7.8012112 -0.02797,0.487787 -0.183086,0.878373 -0.688212,0.89522 -3.794788,0.102606 -7.590681,0.191834 -11.386796,0.191834 -3.796115,0 -7.5920104,-0.08923 -11.3867978,-0.191834 -0.5177844,0.03199 -0.6453154,-0.449304 -0.688213,-0.89522 C 3.8182267,12.511073 3.7737333,9.9086788 3.7633027,7.3075108 3.7528739,4.7067789 3.7746071,2.1044488 3.8884324,-0.49370131 3.9288843,-1.4170478 4.3585214,-1.4357302 4.8894697,-1.4528666 Z"
       sodipodi:nodetypes="sssssssssssss"
       inkscape:label="Front Surface"
       sodipodi:insensitive="true" /><path
       id="path26"
       style="display:inline;fill:none;stroke:url(#linearGradient28);stroke-width:0.132795;stroke-linecap:round;stroke-dasharray:none"
       d="m 16.026013,-1.5771224 c -3.711097,0 -7.422172,0.073047 -11.1316866,0.1927423 -0.5558986,0.017938 -0.9031682,0.051717 -0.9402238,0.8973 -0.1137325,2.5953857 -0.136017,5.1953572 -0.1255912,7.7943256 0.010421,2.599374 0.054744,5.1814655 0.1874096,7.7764145 0.057134,0.726356 0.3210349,0.864796 0.6279563,0.861472 3.7936443,0.102544 7.5877347,0.183059 11.3818907,0.183066 h 4.69e-4 c 3.794156,-7e-6 7.588245,-0.08994 11.38189,-0.192493 0.283712,-0.0094 0.587802,-0.134147 0.627956,-0.834133 0.13267,-2.594949 0.176992,-5.1949525 0.187413,-7.7943265 0.01044,-2.5989684 -0.0056,-5.1992407 -0.125575,-7.7943256 -0.0393,-0.8502423 -0.385894,-0.8826133 -0.940224,-0.8973 -3.7101,-0.098297 -7.420587,-0.1927423 -11.131684,-0.1927423 z"
       sodipodi:nodetypes="ssccccssccssss"
       inkscape:label="FrontSurfaceBorder"
       sodipodi:insensitive="true" /><rect
       style="display:inline;opacity:1;mix-blend-mode:normal;fill:url(#linearGradient40);fill-opacity:0.75;stroke:none;stroke-width:0.0316769;stroke-linecap:round;stroke-miterlimit:3.3"
       id="rect6"
       width="20.89665"
       height="13.93987"
       x="5.577683"
       y="0.081809945"
       rx="3.4523721e-18"
       ry="3.5824919e-18"
       inkscape:label="InnerPanel"
       sodipodi:insensitive="true" /><rect
       style="display:inline;fill:url(#linearGradient39);fill-opacity:1;stroke:none;stroke-width:0.12842;stroke-miterlimit:3.6;stroke-opacity:0.5;paint-order:fill markers stroke"
       id="rect38"
       width="0.27875742"
       height="13.937871"
       x="23.831398"
       y="0.02784468"
       inkscape:label="ControlPanelEdge"
       sodipodi:insensitive="true" /><path
       id="path10"
       style="display:inline;fill:url(#linearGradient24);fill-opacity:1;stroke:none;stroke-width:0.108727;stroke-linecap:round"
       inkscape:label="InnerBevel"
       d="m 16.026008,-0.36581248 c -3.274081,0 -6.5480393,0.0613182 -9.8207222,0.16160941 C 5.7148485,-0.18917442 5.4082593,-0.16086062 5.375569,0.54764289 5.2752289,2.7222854 5.2556611,4.900566 5.2648587,7.0782112 c 0.00919,2.1779835 0.04841,4.3565398 0.1654543,6.5308168 0.035429,0.586533 0.3035157,0.690967 0.5537962,0.698891 3.3469069,0.08592 6.6942958,0.161354 10.0416538,0.16136 h 4.68e-4 c 3.34736,-6e-6 6.694503,-0.07544 10.041408,-0.16136 0.250304,-0.0078 0.518616,-0.112381 0.554041,-0.698891 0.117044,-2.174277 0.15626,-4.3528333 0.165454,-6.5308168 0.0092,-2.1776452 -0.01036,-4.3559258 -0.110711,-6.53056831 -0.03267,-0.70850413 -0.339258,-0.73681618 -0.829696,-0.75184596 -3.272681,-0.10029151 -6.54664,-0.16160941 -9.820719,-0.16160941 z m 0,0.51155496 c 3.159871,0 6.319802,0.0569941 9.478324,0.15036925 0.473329,0.0139933 0.76884,0.0402488 0.800389,0.69989102 0.09684,2.02466755 0.115936,4.05299675 0.107045,6.08045875 -0.0089,2.02778 -0.04662,4.0561325 -0.159589,6.0804585 -0.03419,0.546063 -0.293162,0.643313 -0.534734,0.650685 -3.230154,0.08 -6.460597,0.150114 -9.691191,0.150118 h -4.68e-4 c -3.230593,-4e-6 -6.4610361,-0.07012 -9.6911924,-0.150118 C 6.0930408,13.80023 5.8340457,13.703002 5.7998575,13.15692 5.6868961,11.132594 5.6491408,9.1042415 5.6402689,7.0764615 5.6313943,5.0489995 5.6504729,3.0206703 5.747313,0.99600275 5.778861,0.33636164 6.0743735,0.31010491 6.5477025,0.29611173 9.7062205,0.20273676 12.866153,0.14574248 16.026024,0.14574248 Z"
       sodipodi:insensitive="true" /><rect
       style="display:inline;opacity:1;fill:#000000;fill-opacity:1;stroke:none;stroke-width:0.0316255;stroke-linecap:round;stroke-miterlimit:3.3"
       id="rect78"
       width="16.642241"
       height="12.660984"
       x="6.578721"
       y="0.5933646"
       rx="3.4730444e-18"
       ry="3.5496256e-18"
       inkscape:label="Screen"
       sodipodi:insensitive="true" /><path
       style="display:inline;opacity:1;fill:url(#radialGradient27);stroke-width:0.756633;stroke-linecap:round;stroke-linejoin:round;stroke-miterlimit:3.3"
       d="m 11.6059,8.510035 c 0,0.7566269 0.756622,1.513254 1.513245,1.513254 -0.756623,1.513253 -2.26988,1.513253 -3.7831327,2.269882 C 10.092635,10.779918 10.092635,9.2666619 11.6059,8.510035 Z"
       id="path18"
       inkscape:label="Fire"
       sodipodi:nodetypes="cccc" /><path
       style="display:inline;opacity:1;fill:url(#linearGradient13-9);fill-opacity:1;stroke-width:0.756633;stroke-linecap:round;stroke-linejoin:round;stroke-miterlimit:3.3"
       d="m 14.438378,7.1810707 c 1.138186,1.1349387 1.707279,2.8389723 1.707279,5.1121003 1.513255,-1.513253 2.269884,-6.053018 0.756627,-7.5662728 z"
       id="path2"
       sodipodi:nodetypes="cccc"
       inkscape:label="Right Fin" /><path
       style="display:inline;opacity:1;fill:url(#linearGradient18-2);fill-opacity:1;stroke-width:0.756633;stroke-linecap:round;stroke-linejoin:round;stroke-miterlimit:3.3"
       d="m 9.3360123,5.4835254 c 2.2666417,0 3.9674187,0.5658486 5.1023657,1.6975453 L 16.902284,4.7268982 C 15.389031,3.2136433 10.849265,3.9702707 9.3360123,5.4835254 Z"
       id="path8"
       sodipodi:nodetypes="cccc"
       inkscape:label="Left Fin" /><path
       style="display:inline;opacity:1;fill:url(#linearGradient4-1);fill-opacity:1;stroke-width:0.756633;stroke-linecap:round;stroke-linejoin:round;stroke-miterlimit:3.3"
       d="m 19.928795,1.700389 c 0,4.539764 -3.783138,6.809646 -6.80965,8.3229 -0.756623,0 -1.513245,-0.7566271 -1.513245,-1.513254 1.513245,-3.0265094 3.783131,-6.809646 8.322895,-6.809646 z"
       id="path1"
       inkscape:label="Rocket"
       sodipodi:nodetypes="cccc" /><circle
       style="display:inline;opacity:1;fill:url(#radialGradient15);fill-opacity:1;stroke:#000000;stroke-width:0.220672;stroke-linecap:round;stroke-linejoin:round;stroke-miterlimit:3.3;stroke-dasharray:none;stroke-opacity:0.25;paint-order:stroke fill markers"
       id="path3"
       cx="16.83923"
       cy="4.7899499"
       inkscape:label="Window"
       r="0.8362723" /><rect
       style="display:inline;opacity:1;fill:url(#radialGradient82);stroke:none;stroke-width:0.0316255;stroke-linecap:round;stroke-miterlimit:3.3"
       id="rect79"
       width="16.642241"
       height="12.660984"
       x="6.578721"
       y="0.5933646"
       rx="3.4730444e-18"
       ry="3.5496256e-18"
       inkscape:label="Screen Reflection"
       sodipodi:insensitive="true" /><path
       id="rect12"
       style="display:inline;opacity:1;fill:url(#linearGradient35);stroke-width:0.126501;stroke-miterlimit:3.6;stroke-opacity:0.5;paint-order:fill markers stroke"
       inkscape:label="ScreenBevel"
       d="m 6.5161548,0.40153201 c -0.1386436,0 -0.2502596,0.11407712 -0.2502596,0.25577746 V 13.190404 c 0,0.1417 0.111616,0.255777 0.2502596,0.255777 0,0 5.5891292,0.127888 8.3836862,0.127888 2.794555,0 8.383685,-0.127888 8.383685,-0.127888 0.138643,0 0.250258,-0.114077 0.250258,-0.255777 V 0.65730947 c 0,-0.14170034 -0.111615,-0.25577746 -0.250258,-0.25577746 z m 8.3836862,0.25577746 c 2.629044,2.1e-7 5.256096,0.15170788 7.883167,0.25577746 0.161155,0.006379 0.244399,0.0701192 0.250259,0.25577747 0.229247,3.7982141 0.215865,7.7170857 0,11.5099836 -0.0073,0.127872 -0.12513,0.246715 -0.250259,0.255779 -2.584904,0.187219 -5.291781,0.255777 -7.883167,0.255777 -2.549764,0 -5.2148533,-0.06869 -7.7580381,-0.255777 C 7.0166731,12.925439 6.9076161,12.806075 6.8915443,12.678848 6.4137188,8.8964265 6.6461586,4.9680012 6.7664145,1.1688644 6.7723144,0.98322814 6.8554834,0.91947227 7.0166731,0.91308693 9.6437442,0.80901735 12.272122,0.65730926 14.899841,0.65730947 Z"
       sodipodi:nodetypes="ssscscsssssscssssscss"
       sodipodi:insensitive="true" /><g
       inkscape:groupmode="layer"
       id="g44"
       inkscape:label="Badge"
       style="display:inline;opacity:1;mix-blend-mode:normal;stroke-width:1.2"
       transform="matrix(0.42087239,0,0,0.43015256,1.3953295,-2.1195648)"
       sodipodi:insensitive="true"><rect
         style="display:inline;opacity:1;mix-blend-mode:normal;fill:url(#linearGradient9-9);fill-opacity:1;stroke:none;stroke-width:0.151617;stroke-linecap:round;stroke-linejoin:round;stroke-dasharray:none;stroke-opacity:0.5;paint-order:markers stroke fill"
         id="rect7-1"
         width="3.9728806"
         height="3.8882594"
         x="54.633148"
         y="8.8804626"
         rx="8.8123943e-18"
         inkscape:label="Panel"
         ry="7.294192e-18" /><use
         x="0"
         y="0"
         xlink:href="#text1"
         id="use49"
         inkscape:label="HAL"
         style="display:inline;opacity:1;mix-blend-mode:normal;stroke-width:1.14312"
         transform="matrix(1.2513009,0,0,1.2681688,47.34842,-58.896751)" /><path
         id="path52"
         style="font-style:italic;font-size:0.846668px;line-height:1;font-family:'Droid Serif';-inkscape-font-specification:'Droid Serif Italic';letter-spacing:0px;word-spacing:0px;display:inline;opacity:1;mix-blend-mode:normal;fill:#000000;fill-opacity:1;stroke-width:0.381;stroke-miterlimit:3.6;stroke-opacity:0.5;paint-order:fill markers stroke"
         d="m 57.133784,11.074458 c -0.0096,0 -0.01742,0.0039 -0.02327,0.01154 -0.0057,0.0075 -0.0084,0.01781 -0.0084,0.03029 0,0.0215 0.0099,0.03173 0.02975,0.03173 0.0093,0 0.01678,-0.0032 0.02264,-0.01005 0.006,-0.0071 0.0091,-0.01757 0.0091,-0.03101 0,-0.0217 -0.0099,-0.03245 -0.02975,-0.03245 z m -1.195576,6.96e-4 -0.0045,0.02524 h 0.0045 c 0.0248,0 0.03685,0.009 0.03685,0.02741 0,0.0035 -0.0019,0.01373 -0.0052,0.03101 l -0.06854,0.364899 h 0.04914 l 0.02845,-0.151441 c 0.0055,-0.0288 0.01878,-0.05749 0.03944,-0.08726 0.02083,-0.02995 0.04116,-0.04543 0.06078,-0.04543 0.01618,0 0.02457,0.0121 0.02457,0.03533 0,0.01287 -0.0026,0.031 -0.0077,0.05481 l -0.01229,0.06129 c -0.0067,0.03514 -0.01032,0.06127 -0.01032,0.07933 0,0.01805 0.0043,0.0327 0.01293,0.04327 0.0088,0.01056 0.02028,0.01586 0.03492,0.01586 0.01998,0 0.04159,-0.01162 0.06466,-0.0339 l -0.0091,-0.01731 c -0.0124,0.009 -0.02411,0.0137 -0.03426,0.0137 -0.0124,0 -0.01875,-0.0093 -0.01875,-0.02812 0,-0.01766 0.0024,-0.0384 0.0071,-0.06202 l 0.01358,-0.06995 c 0.0064,-0.03073 0.0097,-0.0517 0.0097,-0.06418 0,-0.04359 -0.01854,-0.06562 -0.05625,-0.06562 -0.03598,0 -0.06901,0.02632 -0.09829,0.07933 h -0.0052 c 0.0077,-0.03304 0.01449,-0.06582 0.0207,-0.09808 l 0.02069,-0.108171 z m -0.89555,0.02741 -0.0045,0.02452 h 0.0071 c 0.01515,0 0.02492,0.0024 0.02975,0.0072 0.0048,0.0048 0.0071,0.0117 0.0071,0.02091 0,0.0041 -2.52e-4,0.009 -0.0014,0.01442 l -0.05496,0.289899 c -0.0024,0.01229 -0.0072,0.02174 -0.01422,0.02885 -0.0069,0.0069 -0.0196,0.01005 -0.03751,0.01005 h -0.0071 l -0.0039,0.02524 h 0.283861 l 0.02327,-0.103123 h -0.0278 l -0.0084,0.02524 c -0.01011,0.03226 -0.03034,0.04832 -0.06013,0.04832 H 55.0723 l 0.03363,-0.17668 h 0.127381 l 0.0052,-0.02885 h -0.127382 l 0.03039,-0.156488 h 0.08859 c 0.02514,0 0.03751,0.01263 0.03751,0.03894 0,0.0016 -4.18e-4,0.0073 -0.0014,0.01659 l -0.0014,0.01802 h 0.02781 l 0.01681,-0.103123 z m 1.897791,0.03173 c -0.01946,0.05511 -0.04639,0.08294 -0.08082,0.08294 l -0.0045,0.0238 h 0.04009 l -0.03234,0.17019 c -0.0034,0.01825 -0.0052,0.03425 -0.0052,0.04904 0,0.0459 0.01914,0.06923 0.05755,0.06923 0.02376,0 0.04736,-0.0093 0.07112,-0.02812 l -0.0091,-0.02235 c -0.01446,0.0087 -0.02838,0.01298 -0.04268,0.01298 -0.01877,0 -0.02845,-0.01095 -0.02845,-0.03245 0,-0.01114 0.0022,-0.02782 0.0065,-0.05048 l 0.03233,-0.168027 h 0.06401 l 0.0065,-0.03389 h -0.06401 l 0.01358,-0.07284 z m 0.839943,0.04398 c -0.02134,0 -0.04021,0.01398 -0.0569,0.04183 -0.01377,-0.01248 -0.03175,-0.01875 -0.05432,-0.01875 -0.03685,0 -0.06667,0.01384 -0.08924,0.04111 -0.02239,0.02707 -0.03363,0.05692 -0.03363,0.09015 0,0.0336 0.01223,0.05709 0.03685,0.06995 -0.01946,0.01114 -0.03238,0.02112 -0.03944,0.02956 -0.0069,0.0085 -0.01032,0.01819 -0.01032,0.03029 0,0.01785 0.0083,0.03189 0.02522,0.0411 -0.02669,0.0058 -0.04787,0.0155 -0.06337,0.03029 -0.01533,0.01498 -0.02263,0.03369 -0.02263,0.05481 0,0.05128 0.03813,0.07644 0.115096,0.07644 0.04597,0 0.08125,-0.01046 0.106044,-0.03101 0.0248,-0.02035 0.03751,-0.04842 0.03751,-0.08509 0,-0.04494 -0.02736,-0.07063 -0.08212,-0.07716 l -0.05108,-0.0065 c -0.01808,-0.002 -0.02651,-0.0075 -0.02651,-0.01731 0,-0.01344 0.01237,-0.02617 0.03751,-0.0375 0.0031,7.66e-4 0.0088,0.0015 0.01681,0.0015 0.03633,0 0.06572,-0.01365 0.08794,-0.04111 0.02221,-0.02766 0.03297,-0.05783 0.03297,-0.09087 0,-0.01805 -0.0039,-0.03314 -0.01164,-0.04543 0.0105,-0.009 0.01962,-0.0137 0.02651,-0.0137 0.0098,0 0.01422,0.0067 0.01422,0.02091 0.02083,0 0.03168,-0.01167 0.03168,-0.03605 0,-0.01805 -0.0094,-0.02741 -0.02716,-0.02741 z m -1.979265,0.02308 c -0.04545,0 -0.08337,0.02188 -0.113155,0.0649 -0.02979,0.04282 -0.04462,0.08987 -0.04462,0.141343 0,0.03783 0.0095,0.06772 0.02846,0.08943 0.01895,0.0217 0.04419,0.03245 0.075,0.03245 0.02789,0 0.05007,-0.0073 0.0666,-0.02092 0.0167,-0.01384 0.02458,-0.02824 0.02458,-0.04399 0,-0.0073 -0.0016,-0.01263 -0.0052,-0.01514 -0.01998,0.02822 -0.04547,0.04254 -0.0763,0.04254 -0.03874,0 -0.05819,-0.02666 -0.05819,-0.08005 0,-0.03937 0.0096,-0.07933 0.02781,-0.120431 0.01842,-0.0411 0.03939,-0.06202 0.06401,-0.06202 0.01274,0 0.02316,0.0066 0.03038,0.01947 0.0072,0.01267 0.011,0.02955 0.011,0.05048 0.01429,0 0.02518,-0.0037 0.03363,-0.01154 0.0087,-0.0078 0.01293,-0.01838 0.01293,-0.03029 0,-0.01613 -0.0065,-0.0289 -0.02005,-0.03966 -0.0136,-0.01075 -0.03263,-0.01659 -0.0569,-0.01659 z m 0.574188,0 c -0.0446,0 -0.08221,0.02295 -0.11251,0.06923 -0.03013,0.04628 -0.04526,0.09656 -0.04526,0.150719 0,0.03399 0.0063,0.06103 0.0181,0.08005 0.01205,0.01882 0.02891,0.02812 0.05044,0.02812 0.04064,0 0.07362,-0.03201 0.09893,-0.09519 h 0.0032 c -0.0036,0.01805 -0.0052,0.03368 -0.0052,0.04615 0,0.03264 0.01384,0.04904 0.04138,0.04904 0.02445,0 0.04905,-0.01191 0.07436,-0.03534 l -0.0097,-0.01731 c -0.0155,0.01015 -0.02816,0.01514 -0.03814,0.01514 -0.01154,0 -0.01745,-0.0096 -0.01745,-0.02956 0,-0.01651 0.0026,-0.03854 0.0077,-0.06562 l 0.03621,-0.18894 h -0.01681 l -0.02327,0.01514 c -0.01738,-0.01421 -0.03814,-0.02163 -0.06207,-0.02163 z m -0.852228,6.97e-4 c -0.03564,0 -0.06776,0.02632 -0.09635,0.07933 h -0.0052 l 0.01422,-0.07428 h -0.09764 l -0.0045,0.02452 h 0.0039 c 0.02462,0 0.03685,0.0095 0.03685,0.02812 0,0.0067 -5.05e-4,0.01574 -0.0026,0.02668 l -0.04462,0.237256 h 0.04914 l 0.02846,-0.15144 c 0.0058,-0.02939 0.01895,-0.05841 0.03944,-0.08798 0.02066,-0.02957 0.04116,-0.04471 0.06078,-0.04471 0.01619,0 0.02393,0.0121 0.02393,0.03533 0,0.01287 -0.0026,0.031 -0.0077,0.05481 l -0.01228,0.06129 c -0.0067,0.03514 -0.0097,0.06127 -0.0097,0.07932 0,0.01805 0.0043,0.0327 0.01293,0.04327 0.0088,0.01056 0.02028,0.01586 0.03492,0.01586 0.01998,0 0.04158,-0.01162 0.06466,-0.0339 l -0.0097,-0.01731 c -0.0124,0.009 -0.02346,0.0137 -0.03363,0.0137 -0.0124,0 -0.01875,-0.0093 -0.01875,-0.02812 0,-0.01767 0.0024,-0.0384 0.0071,-0.06202 l 0.01358,-0.06923 c 0.0064,-0.03073 0.0097,-0.05242 0.0097,-0.0649 0,-0.04359 -0.0192,-0.06562 -0.0569,-0.06562 z m 1.198163,0 c -0.03564,0 -0.06776,0.02632 -0.09635,0.07933 h -0.0052 l 0.01422,-0.07428 h -0.09829 l -0.0045,0.02452 h 0.0039 c 0.02462,0 0.03751,0.0095 0.03751,0.02812 0,0.0067 -0.0011,0.01574 -0.0032,0.02668 l -0.04462,0.237256 h 0.04914 l 0.02846,-0.15144 c 0.0058,-0.02939 0.01895,-0.05841 0.03943,-0.08798 0.02066,-0.02957 0.04116,-0.04471 0.06078,-0.04471 0.01618,0 0.02392,0.0121 0.02392,0.03533 0,0.01287 -0.0026,0.031 -0.0077,0.05481 l -0.01164,0.06129 c -0.0067,0.03514 -0.01032,0.06127 -0.01032,0.07932 0,0.01805 0.0043,0.0327 0.01293,0.04327 0.0088,0.01056 0.02028,0.01586 0.03492,0.01586 0.01998,0 0.04159,-0.01162 0.06466,-0.0339 l -0.0097,-0.01731 c -0.0124,0.009 -0.02347,0.0137 -0.03363,0.0137 -0.0124,0 -0.01876,-0.0093 -0.01876,-0.02812 0,-0.01767 0.0024,-0.0384 0.0071,-0.06202 l 0.01358,-0.06923 c 0.0064,-0.03073 0.0097,-0.05242 0.0097,-0.0649 0,-0.04359 -0.01854,-0.06562 -0.05625,-0.06562 z m 0.672471,0 c -0.03564,0 -0.06775,0.02632 -0.09635,0.07933 h -0.0052 l 0.01422,-0.07428 h -0.09829 l -0.0045,0.02452 h 0.0045 c 0.02462,0 0.03685,0.0095 0.03685,0.02812 0,0.0067 -0.0011,0.01574 -0.0032,0.02668 l -0.04462,0.237256 h 0.04914 l 0.02846,-0.15144 c 0.0058,-0.02939 0.01959,-0.05841 0.04009,-0.08798 0.02066,-0.02957 0.0405,-0.04471 0.06013,-0.04471 0.01618,0 0.02457,0.0121 0.02457,0.03533 0,0.01287 -0.0026,0.031 -0.0077,0.05481 l -0.01229,0.06129 c -0.0067,0.03514 -0.01032,0.06127 -0.01032,0.07932 0,0.01805 0.0043,0.0327 0.01293,0.04327 0.0088,0.01056 0.02093,0.01586 0.03556,0.01586 0.01997,0 0.04094,-0.01162 0.06401,-0.0339 l -0.0091,-0.01731 c -0.0124,0.009 -0.02411,0.0137 -0.03426,0.0137 -0.0124,0 -0.0181,-0.0093 -0.0181,-0.02812 0,-0.01767 0.0018,-0.0384 0.0065,-0.06202 l 0.01358,-0.06995 c 0.0064,-0.03072 0.0097,-0.0517 0.0097,-0.06418 0,-0.04359 -0.01854,-0.06563 -0.05626,-0.06563 z m -0.343348,0.005 -0.0045,0.02452 h 0.0071 c 0.02152,0 0.03234,0.0087 0.03234,0.02524 0,0.0041 -7.5e-4,0.0088 -0.002,0.01514 l -0.02069,0.108892 c -0.0079,0.04416 -0.01164,0.07464 -0.01164,0.0923 0,0.01613 0.0042,0.02983 0.01228,0.04039 0.0081,0.01056 0.0186,0.01586 0.03168,0.01586 0.02324,0 0.04733,-0.01191 0.07177,-0.03534 l -0.0097,-0.01731 c -0.01515,0.01015 -0.02799,0.01514 -0.03814,0.01514 -0.01171,0 -0.01747,-0.0096 -0.01747,-0.02956 0,-0.01536 0.0024,-0.03739 0.0077,-0.06562 l 0.03621,-0.189661 z m -0.671825,0.02092 c 0.0186,0 0.03135,0.0067 0.03944,0.02091 l -0.01939,0.104568 c -0.0062,0.03437 -0.01887,0.06619 -0.03815,0.09519 -0.01929,0.029 -0.03805,0.04327 -0.05561,0.04327 -0.02221,0 -0.03297,-0.02228 -0.03297,-0.06779 0,-0.04513 0.01012,-0.08934 0.03039,-0.131969 0.02049,-0.04282 0.04617,-0.06418 0.0763,-0.06418 z m 1.284162,6.97e-4 c 0.02428,0 0.03621,0.01605 0.03621,0.04832 0,0.0265 -0.0064,0.05109 -0.01875,0.07356 -0.01223,0.02228 -0.02835,0.03317 -0.0485,0.03317 -0.02444,0 -0.03685,-0.01605 -0.03685,-0.04832 0,-0.02611 0.006,-0.05037 0.0181,-0.07284 0.01223,-0.02266 0.02912,-0.0339 0.04979,-0.0339 z m -0.07823,0.287736 0.05108,0.005 c 0.03289,0.0032 0.04979,0.01825 0.04979,0.04398 0,0.0217 -0.0082,0.03853 -0.02457,0.05119 -0.01618,0.01287 -0.04013,0.01947 -0.07112,0.01947 -0.04976,0 -0.07436,-0.01702 -0.07436,-0.05119 0,-0.01594 0.0045,-0.02944 0.01358,-0.04038 0.0092,-0.01094 0.01976,-0.01831 0.03233,-0.02235 0.01274,-0.0041 0.0207,-0.006 0.02328,-0.0058 z m -0.621389,0.29639 c -0.0096,0 -0.01742,0.0039 -0.02328,0.01154 -0.0057,0.0075 -0.0084,0.01781 -0.0084,0.03029 0,0.02151 0.0099,0.03173 0.02975,0.03173 0.0093,0 0.01678,-0.0032 0.02263,-0.01005 0.006,-0.0071 0.0091,-0.01756 0.0091,-0.03101 0,-0.0217 -0.0099,-0.03245 -0.02975,-0.03245 z m -1.295154,6.97e-4 -0.0052,0.02524 h 0.0065 c 0.0248,0 0.03751,0.009 0.03751,0.02741 0,0.006 -0.0017,0.01497 -0.0039,0.02668 l -0.04268,0.226439 c -0.0077,0.04321 -0.01164,0.07367 -0.01164,0.0923 0,0.01651 0.0035,0.03001 0.01164,0.04039 0.0082,0.01036 0.01895,0.01586 0.03168,0.01586 0.02324,0 0.04733,-0.01191 0.07177,-0.03534 l -0.0097,-0.01731 c -0.01515,0.01015 -0.02799,0.01514 -0.03814,0.01514 -0.01171,0 -0.01747,-0.0096 -0.01747,-0.02956 0,-0.01555 0.003,-0.03758 0.0084,-0.06562 l 0.06078,-0.32163 z m 1.944347,0 -0.0045,0.02524 h 0.0058 c 0.02479,0 0.03751,0.009 0.03751,0.02741 0,0.006 -10e-4,0.01497 -0.0032,0.02668 l -0.04331,0.226439 c -0.0077,0.04321 -0.01164,0.07367 -0.01164,0.0923 0,0.01651 0.0042,0.03001 0.01228,0.04039 0.0082,0.01036 0.01895,0.01586 0.03168,0.01586 0.02324,0 0.04668,-0.01191 0.07112,-0.03534 l -0.0097,-0.01731 c -0.01515,0.01015 -0.02735,0.01514 -0.03751,0.01514 -0.01171,0 -0.01747,-0.0096 -0.01747,-0.02956 0,-0.01555 0.0024,-0.03758 0.0077,-0.06562 l 0.06143,-0.32163 z m -2.392446,0.02092 c -0.06199,0 -0.114163,0.02767 -0.155832,0.08221 -0.04167,0.05435 -0.06207,0.118756 -0.06207,0.193266 0,0.05032 0.01249,0.08936 0.03814,0.116826 0.02583,0.02746 0.06201,0.04111 0.107984,0.04111 0.03444,0 0.0612,-0.0077 0.08082,-0.02236 0.01963,-0.01479 0.02975,-0.03166 0.02975,-0.05048 0,-0.0094 -0.0024,-0.0158 -0.0071,-0.01947 -0.02445,0.03573 -0.05747,0.05408 -0.09829,0.05408 -0.06268,0 -0.09376,-0.03679 -0.09376,-0.110335 0,-0.06279 0.01469,-0.120986 0.04397,-0.173796 0.02945,-0.05301 0.06571,-0.07932 0.109275,-0.07932 0.03513,0 0.05302,0.02665 0.05302,0.08005 0.01567,0 0.02803,-0.004 0.03751,-0.01227 0.0095,-0.0083 0.01422,-0.01987 0.01422,-0.03389 0,-0.02017 -0.0087,-0.03589 -0.02587,-0.0476 -0.01722,-0.01191 -0.04096,-0.01802 -0.07177,-0.01802 z m 1.308086,0.0065 -0.0045,0.02452 h 0.0065 c 0.02548,0 0.03815,0.0081 0.03815,0.0238 0,0.0037 -5.67e-4,0.0093 -0.002,0.01659 l -0.05496,0.289178 c -0.0053,0.02822 -0.02246,0.04183 -0.05173,0.04183 h -0.0071 l -0.0045,0.02524 h 0.166825 c 0.06422,0 0.115495,-0.02512 0.153892,-0.07428 0.03839,-0.04935 0.05755,-0.111498 0.05755,-0.186776 0,-0.05147 -0.01281,-0.09062 -0.0388,-0.118268 -0.02601,-0.02785 -0.06318,-0.04183 -0.111217,-0.04183 z m 0.09829,0.02884 h 0.04203 c 0.06698,0 0.100226,0.0418 0.100226,0.124757 0,0.07106 -0.01483,0.128764 -0.04462,0.172354 -0.02961,0.04359 -0.06995,0.06491 -0.120916,0.06491 h -0.04591 z m -1.139968,0.06995 c -0.04701,0 -0.08535,0.02121 -0.114448,0.06346 -0.02892,0.04206 -0.04332,0.08978 -0.04332,0.142786 0,0.03822 0.0093,0.06792 0.02716,0.08942 0.0179,0.02151 0.04251,0.03245 0.07436,0.03245 0.04683,0 0.08504,-0.02121 0.113802,-0.06346 0.02876,-0.04244 0.04268,-0.09036 0.04268,-0.142787 0,-0.03956 -0.0087,-0.06921 -0.02651,-0.09015 -0.0179,-0.02093 -0.04254,-0.03173 -0.07371,-0.03173 z m 0.464264,0 c -0.04701,0 -0.0847,0.02121 -0.113802,0.06346 -0.02893,0.04206 -0.04333,0.08978 -0.04333,0.142786 0,0.03822 0.0087,0.06792 0.02651,0.08942 0.0179,0.02151 0.04315,0.03245 0.075,0.03245 0.04683,0 0.0844,-0.02121 0.113157,-0.06346 0.02876,-0.04244 0.04331,-0.09036 0.04331,-0.142787 0,-0.03956 -0.0093,-0.06921 -0.02715,-0.09015 -0.0179,-0.02093 -0.04254,-0.03173 -0.07371,-0.03173 z m 0.330416,0 c -0.01826,0 -0.03408,0.0061 -0.04785,0.01875 -0.01377,0.01267 -0.0279,0.03697 -0.04203,0.07212 h -0.0052 l 0.01099,-0.08509 h -0.09311 l -0.0052,0.02452 h 0.0045 c 0.02807,0 0.04203,0.0095 0.04203,0.02812 0,0.0067 -0.0011,0.01574 -0.0032,0.02667 l -0.04462,0.237256 h 0.04979 l 0.01939,-0.10745 c 0.0088,-0.04531 0.02248,-0.08596 0.04074,-0.121873 0.01843,-0.03592 0.03602,-0.05408 0.05238,-0.05408 0.01412,0 0.02133,0.01577 0.02133,0.04687 0.02927,0 0.04397,-0.01548 0.04397,-0.04543 0,-0.02707 -0.01505,-0.04038 -0.04397,-0.04038 z m 1.183292,0 c -0.03908,0 -0.07151,0.02811 -0.09699,0.08437 h -0.0026 l 0.01293,-0.0786 h -0.09376 l -0.0045,0.02452 h 0.0039 c 0.02462,0 0.03685,0.0095 0.03685,0.02812 0,0.0043 -0.0015,0.01449 -0.0045,0.03101 l -0.07048,0.374274 h 0.09958 l 0.0045,-0.02452 h -0.0071 c -0.02462,0 -0.03685,-0.0092 -0.03685,-0.02741 0,-0.0055 0.0019,-0.01685 0.0052,-0.03317 l 0.0071,-0.03606 c 0.0014,-0.0064 0.003,-0.01545 0.0045,-0.02812 0.01428,0.009 0.03158,0.0137 0.05173,0.0137 0.04615,0 0.08371,-0.02415 0.113157,-0.07139 0.02962,-0.04743 0.04462,-0.09719 0.04462,-0.149997 0,-0.03457 -0.0057,-0.06109 -0.01745,-0.07933 -0.01153,-0.01824 -0.02827,-0.02741 -0.04979,-0.02741 z m 0.431287,0 c -0.0446,0 -0.08221,0.02295 -0.11251,0.06923 -0.03014,0.04628 -0.04527,0.09656 -0.04527,0.150718 0,0.03399 0.0063,0.06103 0.0181,0.08005 0.01205,0.01882 0.02891,0.02812 0.05044,0.02812 0.04064,0 0.07362,-0.03201 0.09893,-0.09519 h 0.0032 c -0.0037,0.01805 -0.0058,0.03368 -0.0058,0.04615 0,0.03264 0.01383,0.04904 0.04139,0.04904 0.02445,0 0.0497,-0.01191 0.075,-0.03534 l -0.0097,-0.01731 c -0.0155,0.01015 -0.02816,0.01514 -0.03814,0.01514 -0.01154,0 -0.01747,-0.0096 -0.01747,-0.02956 0,-0.01651 0.0026,-0.03854 0.0077,-0.06562 l 0.03621,-0.18894 h -0.01681 l -0.02328,0.01514 c -0.01739,-0.0142 -0.03814,-0.02163 -0.06207,-0.02163 z m -0.743599,6.96e-4 c -0.03031,0 -0.05477,0.008 -0.07371,0.02452 -0.01877,0.01633 -0.02846,0.03773 -0.02846,0.06346 0,0.01882 0.0043,0.03535 0.01293,0.04975 0.0088,0.0142 0.02642,0.02766 0.05173,0.0411 0.01946,0.0099 0.03265,0.0205 0.04074,0.03029 0.0081,0.0096 0.01228,0.02132 0.01228,0.03533 0,0.03649 -0.01885,0.05481 -0.0569,0.05481 -0.01911,0 -0.03394,-0.0068 -0.04462,-0.02019 -0.0105,-0.01364 -0.01616,-0.03258 -0.01616,-0.05697 -0.0096,0 -0.01756,0.0026 -0.02393,0.0094 -0.0062,0.0066 -0.0091,0.01617 -0.0091,0.02884 0,0.02036 0.0076,0.03694 0.02327,0.04904 0.01584,0.01191 0.03732,0.01802 0.06401,0.01802 0.03305,0 0.05956,-0.0088 0.07953,-0.02668 0.01998,-0.01786 0.02975,-0.04167 0.02975,-0.07067 0,-0.03994 -0.02101,-0.07046 -0.06337,-0.09158 -0.01843,-0.009 -0.03196,-0.01819 -0.04074,-0.02741 -0.0088,-0.0092 -0.01293,-0.02011 -0.01293,-0.03317 0,-0.01479 0.0045,-0.02737 0.01358,-0.03678 0.0093,-0.0096 0.02167,-0.01442 0.03751,-0.01442 0.01498,0 0.02665,0.0062 0.03492,0.01802 0.0084,0.01191 0.01293,0.02782 0.01293,0.0476 0.02653,0 0.03944,-0.01239 0.03944,-0.03678 0,-0.01575 -0.0073,-0.0289 -0.02198,-0.03966 -0.01446,-0.01075 -0.03478,-0.01587 -0.06078,-0.01587 z m 1.085653,0 c -0.0093,0 -0.01704,0.0037 -0.02392,0.01154 -0.0069,0.0078 -0.01032,0.01848 -0.01032,0.03173 0.01738,0 0.02587,0.01114 0.02587,0.03245 0,0.04973 -0.02343,0.114583 -0.07112,0.195429 h -0.002 c -0.0021,-0.02189 -0.0093,-0.05738 -0.02198,-0.106729 l -0.04139,-0.159372 h -0.07695 l -0.0045,0.02452 h 0.0058 c 0.0105,0 0.01793,0.0024 0.02327,0.0072 0.0054,0.0046 0.0098,0.013 0.01293,0.02452 l 0.06983,0.261054 c -0.04856,0.07163 -0.09827,0.10745 -0.148719,0.10745 -0.01515,0 -0.02898,-0.0028 -0.04138,-0.0072 l -0.0077,0.02956 c 0.01464,0.0071 0.0312,0.01081 0.04979,0.01081 0.04683,0 0.08457,-0.01359 0.113155,-0.04183 0.02876,-0.02822 0.06692,-0.08579 0.11445,-0.171633 0.04753,-0.08603 0.07112,-0.152323 0.07112,-0.199756 0,-0.03304 -0.01227,-0.04975 -0.03621,-0.04975 z m -1.357227,0.005 -0.0052,0.02452 0.0071,6.97e-4 c 0.02152,0 0.03233,0.008 0.03233,0.02452 0,0.0041 -7.5e-4,0.0088 -0.002,0.01514 l -0.02004,0.108893 c -0.0079,0.04417 -0.01228,0.07464 -0.01228,0.0923 0,0.01613 0.0042,0.02983 0.01228,0.04038 0.0081,0.01056 0.0186,0.01587 0.03168,0.01587 0.02324,0 0.04733,-0.01191 0.07177,-0.03534 l -0.0097,-0.01731 c -0.01515,0.01015 -0.02799,0.01514 -0.03814,0.01514 -0.01171,0 -0.01745,-0.0096 -0.01745,-0.02956 0,-0.01536 0.003,-0.03739 0.0084,-0.06563 l 0.03556,-0.189661 z m 1.017759,0.02092 c 0.0186,0 0.03199,0.0067 0.04009,0.02091 l -0.01939,0.104567 c -0.0062,0.03438 -0.01886,0.06619 -0.03814,0.09519 -0.01929,0.029 -0.03804,0.04327 -0.05561,0.04327 -0.02221,0 -0.03297,-0.02228 -0.03297,-0.06779 0,-0.04513 0.01011,-0.08934 0.03038,-0.131969 0.02049,-0.04282 0.04553,-0.06418 0.07565,-0.06418 z m -2.418311,0.0043 c 0.03444,0 0.05173,0.02748 0.05173,0.08221 0,0.04685 -0.0084,0.08976 -0.02587,0.128364 -0.01722,0.03841 -0.04074,0.05769 -0.06983,0.05769 -0.03495,0 -0.05238,-0.02734 -0.05238,-0.08149 0,-0.04724 0.0088,-0.08976 0.02651,-0.128364 0.01774,-0.0386 0.04107,-0.05841 0.06983,-0.05841 z m 0.464911,0 c 0.03444,0 0.05173,0.02748 0.05173,0.08221 0,0.04685 -0.0091,0.08976 -0.02651,0.128364 -0.01722,0.03841 -0.04008,0.05769 -0.06918,0.05769 -0.03495,0 -0.05238,-0.02734 -0.05238,-0.08149 0,-0.04724 0.0088,-0.08976 0.02651,-0.128364 0.01774,-0.0386 0.04107,-0.05841 0.06983,-0.05841 z m 1.499482,0.0065 c 0.02221,0 0.03363,0.02262 0.03363,0.0685 0,0.04436 -0.01054,0.08823 -0.03104,0.131248 -0.02031,0.04282 -0.04492,0.06418 -0.07436,0.06418 -0.01653,0 -0.03067,-0.0069 -0.04203,-0.02091 l 0.02133,-0.112499 c 0.006,-0.03054 0.0189,-0.05974 0.03751,-0.08798 0.0186,-0.02842 0.03671,-0.04254 0.05496,-0.04254 z"
         inkscape:label="ECD" /><rect
         style="display:inline;opacity:1;mix-blend-mode:normal;fill:#880000;fill-opacity:1;stroke:none;stroke-width:0.611398;stroke-miterlimit:3.6;stroke-opacity:0.5;paint-order:fill markers stroke"
         id="rect45"
         width="1.3242935"
         height="1.2960863"
         x="54.633888"
         y="12.768722"
         rx="1.1749871e-17"
         ry="1.7019784e-17"
         inkscape:label="Red" /><rect
         style="display:inline;opacity:1;mix-blend-mode:normal;fill:#006611;fill-opacity:1;stroke:none;stroke-width:0.611398;stroke-miterlimit:3.6;stroke-opacity:0.5;paint-order:fill markers stroke"
         id="rect45-6"
         width="1.3242935"
         height="1.2960864"
         x="55.958183"
         y="12.768722"
         rx="1.1749871e-17"
         ry="1.7019785e-17"
         inkscape:label="Green" /><rect
         style="display:inline;opacity:1;mix-blend-mode:normal;fill:#003399;fill-opacity:1;stroke:none;stroke-width:0.611398;stroke-miterlimit:3.6;stroke-opacity:0.5;paint-order:fill markers stroke"
         id="rect45-9"
         width="1.3242935"
         height="1.2960865"
         x="57.282848"
         y="12.768722"
         rx="1.1749871e-17"
         ry="1.7019787e-17"
         inkscape:label="Blue" /></g><circle
       style="display:inline;opacity:1;mix-blend-mode:normal;fill:url(#radialGradient67);fill-opacity:1;stroke:none;stroke-width:0.334509;stroke-linecap:round;stroke-linejoin:miter;stroke-dasharray:none;stroke-opacity:0.75;paint-order:stroke markers fill"
       id="path65"
       inkscape:label="Led Emission"
       cx="25.225183"
       cy="6.996779"
       r="0.8362723"
       sodipodi:insensitive="true" /><ellipse
       style="display:inline;opacity:1;mix-blend-mode:normal;fill:url(#radialGradient56);fill-opacity:1;stroke:none;stroke-width:0.334509;stroke-linecap:round;stroke-linejoin:miter;stroke-dasharray:none;stroke-opacity:0.75;paint-order:stroke markers fill"
       id="path54"
       inkscape:label="LED"
       cx="25.225183"
       cy="6.996779"
       rx="0.25088167"
       ry="0.25088173"
       sodipodi:insensitive="true" /><g
       inkscape:groupmode="layer"
       id="g86"
       inkscape:label="Knob"
       style="display:inline"
       transform="matrix(0.47293092,0,0,0.48335897,-0.42638999,1.0799283)"
       sodipodi:insensitive="true"><path
         id="path85"
         style="display:inline;fill:url(#radialGradient86);stroke-width:0.264583;stroke-miterlimit:3.6;paint-order:stroke fill markers"
         d="m 56.345708,24.34442 -1.543481,1.543482 0.140316,-0.140317 -1.80987,-1.621927 1.684046,-1.684047 z"
         sodipodi:nodetypes="cccccc"
         inkscape:label="Shadow" /><circle
         style="display:inline;fill:url(#radialGradient87);fill-opacity:1;stroke:url(#linearGradient87);stroke-width:0.264583;stroke-miterlimit:3.6;stroke-dasharray:none;stroke-opacity:1;paint-order:stroke fill markers"
         id="circle85"
         inkscape:label="Knob Edge"
         cx="53.974998"
         cy="23.283331"
         r="1.190625" /><circle
         style="display:inline;fill:#847c6a;fill-opacity:1;stroke:url(#linearGradient88);stroke-width:0.264583;stroke-miterlimit:3.6;stroke-dasharray:none;paint-order:stroke markers fill"
         id="circle86"
         inkscape:label="Knob Top"
         cx="54.239582"
         cy="23.547915"
         r="0.92604166" /></g><use
       x="0"
       y="0"
       xlink:href="#g86"
       id="use1"
       transform="translate(0,-1.6725445)"
       inkscape:label="Knob"
       sodipodi:insensitive="true" /><use
       x="0"
       y="0"
       xlink:href="#use1"
       id="use2"
       transform="translate(0,-1.6725445)"
       inkscape:label="Knob"
       sodipodi:insensitive="true" /></g><metadata
     id="metadata23"><rdf:RDF><cc:Work
         rdf:about=""><cc:license
           rdf:resource="http://creativecommons.org/publicdomain/zero/1.0/" /></cc:Work><cc:License
         rdf:about="http://creativecommons.org/publicdomain/zero/1.0/"><cc:permits
           rdf:resource="http://creativecommons.org/ns#Reproduction" /><cc:permits
           rdf:resource="http://creativecommons.org/ns#Distribution" /><cc:permits
           rdf:resource="http://creativecommons.org/ns#DerivativeWorks" /></cc:License></rdf:RDF></metadata></svg>
