<?xml version="1.0" encoding="UTF-8" standalone="no"?>
<!-- Created with Inkscape (http://www.inkscape.org/) -->

<svg
   width="32"
   height="32"
   viewBox="0 0 8.466666 8.4666665"
   version="1.1"
   id="svg1"
   xml:space="preserve"
   inkscape:version="1.3.2 (091e20ef0f, 2023-11-25, custom)"
   sodipodi:docname="app-32.svg"
   inkscape:export-filename="app-128@2x.png"
   inkscape:export-xdpi="192"
   inkscape:export-ydpi="192"
   xmlns:inkscape="http://www.inkscape.org/namespaces/inkscape"
   xmlns:sodipodi="http://sodipodi.sourceforge.net/DTD/sodipodi-0.dtd"
   xmlns:xlink="http://www.w3.org/1999/xlink"
   xmlns="http://www.w3.org/2000/svg"
   xmlns:svg="http://www.w3.org/2000/svg"
   xmlns:rdf="http://www.w3.org/1999/02/22-rdf-syntax-ns#"
   xmlns:cc="http://creativecommons.org/ns#"><sodipodi:namedview
     id="namedview1"
     pagecolor="#505050"
     bordercolor="#eeeeee"
     borderopacity="1"
     inkscape:showpageshadow="0"
     inkscape:pageopacity="0"
     inkscape:pagecheckerboard="true"
     inkscape:deskcolor="#505050"
     inkscape:document-units="px"
     showguides="true"
     showgrid="true"
     inkscape:zoom="24.5"
     inkscape:cx="15.979592"
     inkscape:cy="16"
     inkscape:window-width="1920"
     inkscape:window-height="988"
     inkscape:window-x="0"
     inkscape:window-y="0"
     inkscape:window-maximized="1"
     inkscape:current-layer="g43"><sodipodi:guide
       position="0.52916664,7.9374996"
       orientation="-1,0"
       id="guide1"
       inkscape:locked="false"
       inkscape:label=""
       inkscape:color="rgb(0,134,229)" /><sodipodi:guide
       position="7.9374996,7.9374996"
       orientation="0,1"
       id="guide2"
       inkscape:locked="false"
       inkscape:label=""
       inkscape:color="rgb(0,134,229)" /><sodipodi:guide
       position="0.52916664,0.52916664"
       orientation="0,1"
       id="guide3"
       inkscape:locked="false"
       inkscape:label=""
       inkscape:color="rgb(0,134,229)" /><sodipodi:guide
       position="7.9374996,0.52916664"
       orientation="-1,0"
       id="guide4"
       inkscape:locked="false"
       inkscape:label=""
       inkscape:color="rgb(0,134,229)" /><inkscape:grid
       id="grid10"
       units="px"
       originx="0"
       originy="0"
       spacingx="0.13229166"
       spacingy="0.13229166"
       empcolor="#0099e5"
       empopacity="0.30196078"
       color="#0099e5"
       opacity="0.14901961"
       empspacing="2"
       dotted="false"
       gridanglex="30"
       gridanglez="30"
       visible="true" /></sodipodi:namedview><defs
     id="defs1"><linearGradient
       id="linearGradient41"
       inkscape:collect="always"><stop
         style="stop-color:#ffeeee;stop-opacity:0.46666667;"
         offset="0"
         id="stop41" /><stop
         style="stop-color:#ffeeee;stop-opacity:0;"
         offset="1"
         id="stop42" /></linearGradient><linearGradient
       id="linearGradient39"
       inkscape:collect="always"><stop
         style="stop-color:#000000;stop-opacity:1;"
         offset="0"
         id="stop39" /><stop
         style="stop-color:#000000;stop-opacity:0.46666667;"
         offset="1"
         id="stop40" /></linearGradient><linearGradient
       id="linearGradient37"
       inkscape:collect="always"><stop
         style="stop-color:#666666;stop-opacity:1;"
         offset="0.47572815"
         id="stop37" /><stop
         style="stop-color:#989898;stop-opacity:1;"
         offset="0.52103561"
         id="stop38" /></linearGradient><linearGradient
       id="linearGradient26"
       inkscape:collect="always"><stop
         style="stop-color:#000000;stop-opacity:1;"
         offset="0"
         id="stop26" /><stop
         style="stop-color:#222222;stop-opacity:1;"
         offset="0.35120958"
         id="stop28" /><stop
         style="stop-color:#000000;stop-opacity:1;"
         offset="1"
         id="stop27" /></linearGradient><linearGradient
       inkscape:collect="always"
       xlink:href="#linearGradient26"
       id="linearGradient27"
       x1="26.276428"
       y1="11.418425"
       x2="27.301689"
       y2="12.460221"
       gradientUnits="userSpaceOnUse"
       gradientTransform="translate(-1.0294678,0.25742498)" /><linearGradient
       inkscape:collect="always"
       xlink:href="#linearGradient37"
       id="linearGradient38"
       x1="10.748857"
       y1="2.8851254"
       x2="22.666538"
       y2="16.786167"
       gradientUnits="userSpaceOnUse"
       gradientTransform="matrix(0.25531043,0,0,0.24743348,-0.49533712,0.47674827)" /><linearGradient
       inkscape:collect="always"
       xlink:href="#linearGradient39"
       id="linearGradient40"
       x1="6.614583"
       y1="19.579166"
       x2="6.614583"
       y2="20.902084"
       gradientUnits="userSpaceOnUse"
       gradientTransform="matrix(0.25270025,0,0,0.24999972,-0.60903619,0.19844283)" /><radialGradient
       inkscape:collect="always"
       xlink:href="#linearGradient41"
       id="radialGradient42"
       cx="11.843281"
       cy="7.1063385"
       fx="11.843281"
       fy="7.1063385"
       r="1.4552083"
       gradientTransform="matrix(0.36363629,3.5242723e-8,-3.9178479e-8,0.36363632,-1.7931047,-0.59974842)"
       gradientUnits="userSpaceOnUse" /><linearGradient
       inkscape:collect="always"
       xlink:href="#linearGradient26"
       id="linearGradient8"
       gradientUnits="userSpaceOnUse"
       gradientTransform="translate(-1.0308205,0.2574282)"
       x1="26.276428"
       y1="11.418425"
       x2="27.301689"
       y2="12.460221" /><linearGradient
       inkscape:collect="always"
       xlink:href="#linearGradient26"
       id="linearGradient10"
       gradientUnits="userSpaceOnUse"
       gradientTransform="translate(-1.0308204,0.25742838)"
       x1="26.276428"
       y1="11.418425"
       x2="27.301689"
       y2="12.460221" /></defs><g
     inkscape:label="HAL Personal Computer"
     inkscape:groupmode="layer"
     id="layer1"
     style="display:inline;opacity:1;mix-blend-mode:normal"><path
       style="display:inline;opacity:1;fill:#bbbbbf;fill-opacity:1;stroke:#444444;stroke-width:0.264583;stroke-linecap:round;stroke-linejoin:round;stroke-dasharray:none;stroke-opacity:1"
       d="M 0.6614382,5.6843548 1.4341166,4.9523726 C 1.4949256,4.8936598 1.4949256,4.895335 1.586117,4.895335 h 5.2903501 c 0.091213,0 0.091213,-0.00169 0.1520219,0.057038 l 0.7767353,0.7361598 z"
       id="path4"
       sodipodi:nodetypes="ccccccc" /><rect
       style="display:inline;fill:#999999;fill-opacity:1;stroke:#444444;stroke-width:0.264583;stroke-dasharray:none;stroke-opacity:1"
       id="rect4"
       width="7.1437502"
       height="2.116667"
       x="0.66145813"
       y="5.6885414"
       rx="0.13229166"
       ry="0.13229166" /><g
       id="g12"
       transform="matrix(0.28571427,0,0,0.28571427,0.16548739,-0.43565805)"
       style="stroke-width:0.836095"><rect
         style="display:inline;fill:#777777;fill-opacity:1;stroke:none;stroke-width:0.258086;stroke-linecap:round;stroke-linejoin:round;stroke-dasharray:none;stroke-opacity:1"
         id="rect10"
         width="1.8520833"
         height="1.8520833"
         x="3.0605338"
         y="22.878189"
         rx="0.12599884"
         ry="0.13216096" /></g><g
       id="g13"
       transform="matrix(0.23324869,0,0,0.24465601,0.29169534,0.69285545)"
       style="display:inline"><rect
         style="fill:#222222;fill-opacity:1;stroke:none;stroke-width:0.264649;stroke-linecap:round;stroke-linejoin:round;stroke-dasharray:none;stroke-opacity:1"
         id="rect12"
         width="1.13434"
         height="2.1629007"
         x="3.2867837"
         y="25.285749"
         rx="0.28358501"
         ry="0.27036259" /><rect
         style="display:inline;mix-blend-mode:normal;fill:#222222;fill-opacity:1;stroke:none;stroke-width:0.264649;stroke-linecap:round;stroke-linejoin:round;stroke-dasharray:none;stroke-opacity:1"
         id="rect12-4"
         width="1.13434"
         height="2.1629007"
         x="10.092824"
         y="25.325365"
         rx="0.28358501"
         ry="0.27036259" /><rect
         style="display:inline;mix-blend-mode:normal;fill:#333333;fill-opacity:1;stroke:none;stroke-width:0.264649;stroke-linecap:round;stroke-linejoin:round;stroke-dasharray:none;stroke-opacity:1"
         id="rect12-1"
         width="1.13434"
         height="2.1629007"
         x="4.4211235"
         y="25.305557"
         rx="0.28358501"
         ry="0.27036259" /><rect
         style="display:inline;mix-blend-mode:normal;fill:#222222;fill-opacity:1;stroke:none;stroke-width:0.264649;stroke-linecap:round;stroke-linejoin:round;stroke-dasharray:none;stroke-opacity:1"
         id="rect12-2"
         width="1.13434"
         height="2.1629007"
         x="5.5554633"
         y="25.305557"
         rx="0.28358501"
         ry="0.27036259" /><rect
         style="display:inline;mix-blend-mode:normal;fill:#333333;fill-opacity:1;stroke:none;stroke-width:0.264649;stroke-linecap:round;stroke-linejoin:round;stroke-dasharray:none;stroke-opacity:1"
         id="rect12-1-0"
         width="1.13434"
         height="2.1629007"
         x="6.6898031"
         y="25.325365"
         rx="0.28358501"
         ry="0.27036259" /><rect
         style="display:inline;mix-blend-mode:normal;fill:#222222;fill-opacity:1;stroke:none;stroke-width:0.264649;stroke-linecap:round;stroke-linejoin:round;stroke-dasharray:none;stroke-opacity:1"
         id="rect12-5"
         width="1.13434"
         height="2.1629007"
         x="7.8241434"
         y="25.305557"
         rx="0.28358501"
         ry="0.27036259" /><rect
         style="display:inline;mix-blend-mode:normal;fill:#333333;fill-opacity:1;stroke:none;stroke-width:0.264649;stroke-linecap:round;stroke-linejoin:round;stroke-dasharray:none;stroke-opacity:1"
         id="rect12-1-4"
         width="1.13434"
         height="2.1629007"
         x="8.9584837"
         y="25.325365"
         rx="0.28358501"
         ry="0.27036259" /></g><rect
       style="display:inline;fill:#555555;fill-opacity:1;stroke:none;stroke-width:0.0637343;stroke-linecap:round;stroke-linejoin:round;stroke-dasharray:none;stroke-opacity:1"
       id="rect13"
       width="4.4979162"
       height="1.5875"
       x="3.0427082"
       y="5.9531245"
       rx="0.13229166"
       ry="0.13229166" /><rect
       style="display:inline;fill:#222222;fill-opacity:1;stroke:#000000;stroke-width:0.132293;stroke-linecap:round;stroke-linejoin:round;stroke-dasharray:none;stroke-opacity:1"
       id="rect18"
       width="1.9843736"
       height="1.1906236"
       x="3.2411463"
       y="6.1515627"
       rx="0.061713714"
       ry="0.064731911" /><rect
       style="display:inline;mix-blend-mode:normal;fill:#111111;fill-opacity:1;stroke:none;stroke-width:0.132292;stroke-linecap:round;stroke-linejoin:round;stroke-dasharray:none;stroke-opacity:1;paint-order:normal"
       id="rect15-3"
       width="0.52916664"
       height="0.26458317"
       x="3.96875"
       y="6.8937011" /><circle
       style="fill:#ee0000;fill-opacity:1;stroke:none;stroke-width:0.130019;stroke-linecap:round;stroke-linejoin:round;stroke-dasharray:none;stroke-opacity:1;paint-order:stroke fill markers"
       id="path23"
       cx="3.5718751"
       cy="7.0259929"
       r="0.13229166" /><rect
       style="fill:#000000;fill-opacity:1;stroke:none;stroke-width:0.132292;stroke-linecap:round;stroke-linejoin:round;stroke-dasharray:none;stroke-opacity:1;paint-order:normal"
       id="rect11"
       width="1.5874997"
       height="0.26458332"
       x="3.4395831"
       y="6.614583" /><rect
       style="fill:#333333;fill-opacity:1;stroke:none;stroke-width:0.132292;stroke-linecap:round;stroke-linejoin:round;stroke-dasharray:none;stroke-opacity:1;paint-order:normal"
       id="rect15"
       width="0.52916664"
       height="0.26458317"
       x="3.9687498"
       y="6.3499999" /><rect
       style="display:inline;mix-blend-mode:normal;fill:#444444;fill-opacity:1;stroke:none;stroke-width:0.132292;stroke-linecap:round;stroke-linejoin:round;stroke-dasharray:none;stroke-opacity:1;paint-order:normal"
       id="rect15-4"
       width="0.52916664"
       height="0.26458317"
       x="3.9687495"
       y="6.614583" /><rect
       style="display:inline;mix-blend-mode:normal;fill:#222222;fill-opacity:1;stroke:#000000;stroke-width:0.132293;stroke-linecap:round;stroke-linejoin:round;stroke-dasharray:none;stroke-opacity:1"
       id="rect18-6"
       width="1.9843736"
       height="1.1906236"
       x="5.3578129"
       y="6.1515627"
       rx="0.061713714"
       ry="0.064731911" /><rect
       style="display:inline;mix-blend-mode:normal;fill:#111111;fill-opacity:1;stroke:none;stroke-width:0.132292;stroke-linecap:round;stroke-linejoin:round;stroke-dasharray:none;stroke-opacity:1;paint-order:normal"
       id="rect15-3-8"
       width="0.52916664"
       height="0.26458317"
       x="6.0854168"
       y="6.8937011" /><circle
       style="display:inline;mix-blend-mode:normal;fill:#770000;fill-opacity:1;stroke:none;stroke-width:0.130019;stroke-linecap:round;stroke-linejoin:round;stroke-dasharray:none;stroke-opacity:1;paint-order:stroke fill markers"
       id="path23-8"
       cx="5.6885419"
       cy="7.0259929"
       r="0.13229166" /><rect
       style="display:inline;mix-blend-mode:normal;fill:#000000;fill-opacity:1;stroke:none;stroke-width:0.132292;stroke-linecap:round;stroke-linejoin:round;stroke-dasharray:none;stroke-opacity:1;paint-order:normal"
       id="rect11-4"
       width="1.5874997"
       height="0.26458332"
       x="5.5562496"
       y="6.614583" /><rect
       style="display:inline;mix-blend-mode:normal;fill:#333333;fill-opacity:1;stroke:none;stroke-width:0.132292;stroke-linecap:round;stroke-linejoin:round;stroke-dasharray:none;stroke-opacity:1;paint-order:normal"
       id="rect15-31"
       width="0.52916664"
       height="0.26458317"
       x="6.0854163"
       y="6.3499999" /><rect
       style="display:inline;mix-blend-mode:normal;fill:#444444;fill-opacity:1;stroke:none;stroke-width:0.132292;stroke-linecap:round;stroke-linejoin:round;stroke-dasharray:none;stroke-opacity:1;paint-order:normal"
       id="rect15-4-4"
       width="0.52916664"
       height="0.26458317"
       x="6.0854163"
       y="6.614583" /></g><g
     inkscape:groupmode="layer"
     id="layer2"
     inkscape:label="HAL Color Monitor"
     style="display:inline"><path
       style="display:inline;fill:url(#linearGradient40);stroke:none;stroke-width:0.0665019;stroke-linecap:round;stroke-linejoin:round;stroke-dasharray:none;stroke-opacity:1"
       d="M 1.5993492,5.1593747 1.3941037,5.3975008 C 1.2572734,5.5562503 1.3256887,5.5562503 1.5309341,5.5562497 l 5.4047977,-0.00348 c 0.2052457,0.00348 0.2736611,0.00348 0.1368308,-0.1552407 L 6.8673169,5.1593813 Z"
       id="path39"
       sodipodi:nodetypes="ccccccc" /><rect
       style="fill:#999999;fill-opacity:1;stroke:#444444;stroke-width:0.264582;stroke-linecap:round;stroke-linejoin:round;stroke-dasharray:none;stroke-opacity:1"
       id="rect24"
       width="6.0854177"
       height="4.4979177"
       x="1.1906242"
       y="0.66145813"
       rx="0.20059267"
       ry="0.20398395" /><rect
       style="display:inline;opacity:1;mix-blend-mode:normal;fill:#555555;fill-opacity:1;stroke:none;stroke-width:0.0677675;stroke-linecap:round;stroke-linejoin:round;stroke-dasharray:none;stroke-opacity:1"
       id="rect25"
       width="5.2916665"
       height="3.7041664"
       x="1.5875"
       y="1.0583333"
       rx="0.20265268"
       ry="0.20395418" /><g
       id="g18"
       transform="matrix(0.33333341,0,0,0.33333329,-2.4253493,-0.35277783)"
       style="stroke-width:0.76839"><rect
         style="display:inline;mix-blend-mode:normal;fill:#777777;fill-opacity:1;stroke:none;stroke-width:0.203302;stroke-linecap:round;stroke-linejoin:round;stroke-dasharray:none;stroke-opacity:1"
         id="rect10-8"
         width="1.5875"
         height="1.5875"
         x="25.929167"
         y="5.0270839"
         rx="0.024318317"
         ry="0.024474505" /></g><circle
       style="display:inline;opacity:1;mix-blend-mode:normal;fill:#00ee00;fill-opacity:1;stroke:none;stroke-width:0.0677676;stroke-linecap:round;stroke-linejoin:round;stroke-dasharray:none;stroke-opacity:1"
       id="path25"
       cx="6.4822922"
       cy="2.5135415"
       r="0.13229166" /><g
       id="g33"
       style="display:inline;opacity:1;mix-blend-mode:normal"
       transform="matrix(0.25531044,0,0,0.25695015,-0.36479562,-0.02390534)"><ellipse
         style="display:inline;opacity:1;mix-blend-mode:normal;fill:#000000;fill-opacity:0.466667;stroke:none;stroke-width:0.264583;stroke-linecap:round;stroke-linejoin:round;stroke-dasharray:none;stroke-opacity:1"
         id="path26-1"
         cx="27.076401"
         cy="12.192091"
         rx="0.51815999"
         ry="0.51485342" /><ellipse
         style="fill:url(#linearGradient27);stroke:none;stroke-width:0.264583;stroke-linecap:round;stroke-linejoin:round;stroke-dasharray:none;stroke-opacity:1"
         id="path26"
         cx="26.81732"
         cy="11.934665"
         rx="0.51815999"
         ry="0.51485342" /></g><rect
       style="display:inline;opacity:1;mix-blend-mode:normal;fill:#777777;fill-opacity:1;stroke:none;stroke-width:0.0677676;stroke-linecap:round;stroke-linejoin:round;stroke-dasharray:none;stroke-opacity:1"
       id="rect36"
       width="0.13229166"
       height="3.7041667"
       x="5.9531245"
       y="1.0583333" /><rect
       style="display:inline;opacity:1;mix-blend-mode:normal;fill:url(#linearGradient38);stroke:none;stroke-width:0.0665007;stroke-linecap:round;stroke-linejoin:round;stroke-dasharray:none;stroke-opacity:1"
       id="rect37"
       width="4.1010413"
       height="3.4395831"
       x="1.7197915"
       y="1.1906248"
       rx="0.13510174"
       ry="0.13093354" /><rect
       style="fill:#111111;fill-opacity:1;stroke:none;stroke-width:0.065601;stroke-linecap:round;stroke-linejoin:round;stroke-dasharray:none;stroke-opacity:1"
       id="rect39"
       width="3.8364582"
       height="3.175"
       x="1.8520833"
       y="1.3229165"
       rx="0.06614583"
       ry="0.066145837" /><g
       id="g43"
       transform="matrix(0.27600515,0,0,0.27777777,2.3428582,1.7344906)"
       style="stroke-width:0.925021"><path
         d="m 8.3556895,8.9958335 q -0.769454,0 -1.339204,-0.25553 -0.563874,-0.261338 -0.939791,-0.813052 -0.387663,-0.563328 -0.563874,-1.399609 -0.170338,-0.836282 -0.170338,-1.916478 0,-1.149887 0.20558,-2.0210145 Q 5.7536415,1.7132158 6.2294105,1.1150424 7.1222125,2.7343528e-7 8.8667005,2.7343528e-7 q 0.464022,0 0.8751811,0.0871119965647 0.4346554,0.087112 0.8810564,0.2613379 V 1.9048638 Q 10.176537,1.6435257 9.7360086,1.509953 9.3248495,1.3821878 8.9078165,1.3821878 q -1.873709,0 -1.93832,2.4681917 0.287811,-0.394911 0.704844,-0.569136 0.187958,-0.0813 0.440527,-0.1335725 0.258443,-0.052268 0.581496,-0.052268 1.1864871,0 1.8208475,0.7317465 0.646106,0.737555 0.646106,2.113934 0,0.702709 -0.182084,1.28346 -0.176211,0.574944 -0.54038,0.975662 -0.7283404,0.795628 -2.0851635,0.795628 z m -0.0059,-1.382186 q 0.264318,0 0.487518,-0.09292 0.2232,-0.09873 0.38179,-0.313605 0.2995581,-0.400718 0.2995581,-1.161502 0,-0.760784 -0.2995581,-1.16731 -0.299558,-0.406526 -0.875181,-0.406526 -0.293685,0 -0.505137,0.104537 -0.20558,0.104536 -0.346549,0.296183 -0.299559,0.412333 -0.299559,1.167309 0,0.400719 0.07636,0.691094 0.08223,0.290376 0.223201,0.482024 0.152716,0.20907 0.370043,0.307797 0.2232,0.09292 0.487516,0.09292 z"
         id="text43"
         style="font-weight:bold;font-size:11.2889px;font-family:Hack;-inkscape-font-specification:'Hack Bold';display:inline;fill:#006666;fill-opacity:1;stroke-width:0.259324;stroke-linecap:round;stroke-linejoin:round"
         aria-label="6" /><path
         d="m 2.623049,8.9958328 q -0.734321,0 -1.265658,-0.174226 -0.53133797,-0.180033 -0.88954397,-0.505253 -0.7582,-0.685287 -0.7582,-1.893248 0,-0.441372 0.107459,-0.778207 0.107459,-0.342643 0.316415,-0.627211 0.417906,-0.563328 1.17610597,-0.784014 -0.68058997,-0.226492 -1.02685597,-0.7143235 -0.352234,-0.4936375 -0.352234,-1.2021538 0,-1.0627743 0.72238,-1.6899854 Q 1.375298,0 2.617076,0 q 1.241779,0 1.97013,0.6272111 0.72238,0.6272111 0.72238,1.695793 0,0.7143238 -0.346265,1.1905392 -0.346266,0.4878295 -1.008945,0.7201305 0.734321,0.220686 1.158198,0.789821 0.417906,0.563329 0.417906,1.399611 0,1.207961 -0.758202,1.893248 -0.758201,0.679479 -2.149232,0.679479 z m -0.0059,-5.4125995 q 0.525368,0 0.829843,-0.30199 0.298503,-0.3077981 0.298503,-0.8014364 0,-0.5168684 -0.298503,-0.807244 -0.298505,-0.2903755 -0.829843,-0.2903755 -0.513426,0 -0.817901,0.2961831 -0.304475,0.296183 -0.304475,0.8014364 0,0.4936383 0.304475,0.8014364 0.304475,0.30199 0.817901,0.30199 z m 0,4.0304115 q 0.602978,0 0.961185,-0.365873 0.364175,-0.354259 0.364175,-0.975662 0,-0.58075 -0.364175,-0.952432 -0.167164,-0.168417 -0.405966,-0.261338 -0.238804,-0.09873 -0.555219,-0.09873 -0.602978,0 -0.955214,0.360065 -0.364175,0.354258 -0.364175,0.95824 0,0.603981 0.364175,0.975661 0.161193,0.162611 0.405966,0.261338 0.244773,0.09873 0.549248,0.098731 z"
         id="text42"
         style="font-weight:bold;font-size:11.2889px;font-family:Hack;-inkscape-font-specification:'Hack Bold';display:inline;fill:#770000;fill-opacity:1;stroke-width:0.261443;stroke-linecap:round;stroke-linejoin:round"
         aria-label="8" /><path
         d="m 7.8265228,8.4666668 q -0.769454,0 -1.339204,-0.25553 -0.563874,-0.261338 -0.939791,-0.813052 -0.387663,-0.563328 -0.563874,-1.399609 -0.170338,-0.836282 -0.170338,-1.916478 0,-1.149887 0.20558,-2.0210145 0.205579,-0.8769341 0.681348,-1.47510769 0.892802,-1.115042 2.63729,-1.115042 0.464022,0 0.875181,0.087112 0.4346538,0.087112 0.8810562,0.2613379 V 1.3756971 Q 9.6473686,1.1143591 9.2068418,0.98078636 q -0.411159,-0.1277652 -0.828192,-0.1277652 -1.873709,0 -1.93832,2.46819164 0.287811,-0.394911 0.704844,-0.569136 0.187958,-0.0813 0.440527,-0.1335725 0.258443,-0.052268 0.581496,-0.052268 1.1864868,0 1.8208458,0.7317465 0.6461074,0.737555 0.6461074,2.113934 0,0.702709 -0.182084,1.28346 -0.176211,0.574944 -0.5403814,0.975662 -0.7283388,0.795628 -2.0851618,0.795628 z m -0.0059,-1.382186 q 0.264318,0 0.487518,-0.09292 0.2232,-0.09873 0.38179,-0.313605 0.299558,-0.400718 0.299558,-1.161502 0,-0.760784 -0.299558,-1.16731 -0.299558,-0.406526 -0.875181,-0.406526 -0.293685,0 -0.505137,0.104537 -0.20558,0.104536 -0.346549,0.296183 -0.299559,0.412333 -0.299559,1.167309 0,0.400719 0.07636,0.691094 0.08223,0.290376 0.223201,0.482024 0.152716,0.20907 0.370043,0.307797 0.2232,0.09292 0.487516,0.09292 z"
         id="text43-9"
         style="font-weight:bold;font-size:11.2889px;font-family:Hack;-inkscape-font-specification:'Hack Bold';display:inline;fill:#88ffff;fill-opacity:1;stroke-width:0.259324;stroke-linecap:round;stroke-linejoin:round"
         aria-label="6" /><path
         d="m 2.0938823,8.4666661 q -0.734321,0 -1.26565797,-0.174226 -0.53133796,-0.180033 -0.88954396,-0.505253 -0.7582,-0.685287 -0.7582,-1.893248 0,-0.441372 0.107459,-0.778207 0.107459,-0.342643 0.316415,-0.627211 0.417906,-0.563328 1.17610596,-0.784014 -0.68058996,-0.226492 -1.02685596,-0.7143235 -0.352234,-0.4936375 -0.352234,-1.2021538 0,-1.06277426 0.72238,-1.68998536 0.72238096,-0.6272111 1.96415893,-0.6272111 1.241779,0 1.97013,0.6272111 0.72238,0.6272111 0.72238,1.69579296 0,0.7143238 -0.346265,1.1905392 -0.346266,0.4878295 -1.008945,0.7201305 0.734321,0.220686 1.158198,0.789821 0.417906,0.563329 0.417906,1.399611 0,1.207961 -0.758202,1.893248 -0.758201,0.679479 -2.149232,0.679479 z m -0.0059,-5.4125995 q 0.525368,0 0.829843,-0.30199 0.298503,-0.3077981 0.298503,-0.8014364 0,-0.5168684 -0.298503,-0.807244 -0.298505,-0.29037546 -0.829843,-0.29037546 -0.513426,0 -0.817901,0.29618306 -0.30447497,0.296183 -0.30447497,0.8014364 0,0.4936383 0.30447497,0.8014364 0.304475,0.30199 0.817901,0.30199 z m 0,4.0304115 q 0.602978,0 0.961185,-0.365873 0.364175,-0.354259 0.364175,-0.975662 0,-0.58075 -0.364175,-0.952432 -0.167164,-0.168417 -0.405966,-0.261338 -0.238804,-0.09873 -0.555219,-0.09873 -0.602978,0 -0.955214,0.360065 -0.36417497,0.354258 -0.36417497,0.95824 0,0.603981 0.36417497,0.975661 0.161193,0.162611 0.405966,0.261338 0.244773,0.09873 0.549248,0.098731 z"
         id="text42-3"
         style="font-weight:bold;font-size:11.2889px;font-family:Hack;-inkscape-font-specification:'Hack Bold';display:inline;fill:#ff4444;fill-opacity:1;stroke-width:0.261443;stroke-linecap:round;stroke-linejoin:round"
         aria-label="8" /><path
         d="m 8.0911058,8.7312502 q -0.769454,0 -1.339204,-0.25553 -0.5638736,-0.261338 -0.9397906,-0.813052 -0.387663,-0.563328 -0.563874,-1.399609 -0.170338,-0.836282 -0.170338,-1.916478 0,-1.149887 0.20558,-2.0210145 0.205579,-0.8769342 0.681348,-1.47510774 0.8928016,-1.11504202 2.6372896,-1.11504202 0.464022,0 0.8751808,0.087112 0.434654,0.087112 0.8810564,0.2613379 V 1.6402805 Q 9.9119516,1.3789424 9.4714246,1.2453698 9.0602658,1.1176046 8.6432328,1.1176046 q -1.873709,0 -1.93832,2.4681916 0.287811,-0.394911 0.704844,-0.569136 0.187958,-0.0813 0.440527,-0.1335725 0.258443,-0.052268 0.581496,-0.052268 1.1864868,0 1.8208472,0.7317465 0.646106,0.737555 0.646106,2.113934 0,0.702709 -0.182084,1.28346 -0.176211,0.574944 -0.54038,0.975662 -0.7283404,0.795628 -2.0851632,0.795628 z m -0.0059,-1.382186 q 0.264318,0 0.487518,-0.09292 0.2232,-0.09873 0.38179,-0.313605 0.299558,-0.400718 0.299558,-1.161502 0,-0.760784 -0.299558,-1.16731 -0.299558,-0.406526 -0.875181,-0.406526 -0.293685,0 -0.505137,0.104537 -0.20558,0.104536 -0.346549,0.296183 -0.299559,0.412333 -0.299559,1.167309 0,0.400719 0.07636,0.691094 0.08223,0.290376 0.223201,0.482024 0.152716,0.20907 0.370043,0.307797 0.2232,0.09292 0.487516,0.09292 z"
         id="text43-5"
         style="font-weight:bold;font-size:11.2889px;font-family:Hack;-inkscape-font-specification:'Hack Bold';display:inline;fill:#00dddd;fill-opacity:1;stroke-width:0.259324;stroke-linecap:round;stroke-linejoin:round"
         aria-label="6" /><path
         d="m 2.3584657,8.7312495 q -0.734321,0 -1.265658,-0.174226 -0.531338,-0.180033 -0.889544,-0.505253 -0.7582,-0.685287 -0.7582,-1.893248 0,-0.441372 0.107459,-0.778207 0.107459,-0.342643 0.316415,-0.627211 0.417906,-0.563328 1.176106,-0.784014 -0.68059,-0.226492 -1.026856,-0.7143235 -0.352234,-0.4936375 -0.352234,-1.2021538 0,-1.06277433 0.72238,-1.68998543 0.722381,-0.6272111 1.964159,-0.6272111 1.241779,0 1.97013,0.6272111 0.72238,0.6272111 0.72238,1.69579303 0,0.7143238 -0.346265,1.1905392 -0.346266,0.4878295 -1.008945,0.7201305 0.734321,0.220686 1.158198,0.789821 0.4179058,0.563329 0.4179058,1.399611 0,1.207961 -0.7582018,1.893248 -0.758201,0.679479 -2.149232,0.679479 z M 2.3525657,3.31865 q 0.525368,0 0.829843,-0.30199 0.298503,-0.3077981 0.298503,-0.8014364 0,-0.5168684 -0.298503,-0.807244 -0.298505,-0.2903755 -0.829843,-0.2903755 -0.513426,0 -0.817901,0.2961831 -0.304475,0.296183 -0.304475,0.8014364 0,0.4936383 0.304475,0.8014364 0.304475,0.30199 0.817901,0.30199 z m 0,4.0304115 q 0.602978,0 0.961185,-0.365873 0.364175,-0.354259 0.364175,-0.975662 0,-0.58075 -0.364175,-0.952432 -0.167164,-0.168417 -0.405966,-0.261338 -0.238804,-0.09873 -0.555219,-0.09873 -0.602978,0 -0.955214,0.360065 -0.364175,0.354258 -0.364175,0.95824 0,0.603981 0.364175,0.975661 0.161193,0.162611 0.405966,0.261338 0.244773,0.09873 0.549248,0.098731 z"
         id="text42-6"
         style="font-weight:bold;font-size:11.2889px;font-family:Hack;-inkscape-font-specification:'Hack Bold';display:inline;fill:#dd0000;fill-opacity:1;stroke-width:0.261443;stroke-linecap:round;stroke-linejoin:round"
         aria-label="8" /></g><circle
       style="display:inline;fill:url(#radialGradient42);fill-opacity:1;stroke:none;stroke-width:0.0677675;stroke-linecap:round;stroke-linejoin:round;stroke-dasharray:none;stroke-opacity:1"
       id="path40"
       cx="2.5135415"
       cy="1.9843749"
       r="0.52916664" /><g
       id="g8"
       style="display:inline;opacity:1;mix-blend-mode:normal"
       transform="matrix(0.25531044,0,0,0.25695015,-0.36445023,0.50526082)"><ellipse
         style="display:inline;opacity:1;mix-blend-mode:normal;fill:#000000;fill-opacity:0.466667;stroke:none;stroke-width:0.264583;stroke-linecap:round;stroke-linejoin:round;stroke-dasharray:none;stroke-opacity:1"
         id="ellipse7"
         cx="27.076401"
         cy="12.192091"
         rx="0.51815999"
         ry="0.51485342" /><ellipse
         style="fill:url(#linearGradient8);stroke:none;stroke-width:0.264583;stroke-linecap:round;stroke-linejoin:round;stroke-dasharray:none;stroke-opacity:1"
         id="ellipse8"
         cx="26.81732"
         cy="11.934665"
         rx="0.51815999"
         ry="0.51485342" /></g><g
       id="g10"
       style="display:inline;opacity:1;mix-blend-mode:normal"
       transform="matrix(0.25531044,0,0,0.25695015,-0.36445023,1.0344274)"><ellipse
         style="display:inline;opacity:1;mix-blend-mode:normal;fill:#000000;fill-opacity:0.466667;stroke:none;stroke-width:0.264583;stroke-linecap:round;stroke-linejoin:round;stroke-dasharray:none;stroke-opacity:1"
         id="ellipse9"
         cx="27.076401"
         cy="12.192091"
         rx="0.51815999"
         ry="0.51485342" /><ellipse
         style="fill:url(#linearGradient10);stroke:none;stroke-width:0.264583;stroke-linecap:round;stroke-linejoin:round;stroke-dasharray:none;stroke-opacity:1"
         id="ellipse10"
         cx="26.81732"
         cy="11.934665"
         rx="0.51815999"
         ry="0.51485342" /></g></g><metadata
     id="metadata23"><rdf:RDF><cc:Work
         rdf:about=""><cc:license
           rdf:resource="http://creativecommons.org/publicdomain/zero/1.0/" /></cc:Work><cc:License
         rdf:about="http://creativecommons.org/publicdomain/zero/1.0/"><cc:permits
           rdf:resource="http://creativecommons.org/ns#Reproduction" /><cc:permits
           rdf:resource="http://creativecommons.org/ns#Distribution" /><cc:permits
           rdf:resource="http://creativecommons.org/ns#DerivativeWorks" /></cc:License></rdf:RDF></metadata></svg>
