<?xml version="1.0" encoding="UTF-8" standalone="no"?>
<!-- Created with Inkscape (http://www.inkscape.org/) -->

<svg
   width="48"
   height="48"
   viewBox="0 0 12.699999 12.7"
   version="1.1"
   id="svg1"
   xml:space="preserve"
   inkscape:version="1.3.2 (091e20ef0f, 2023-11-25, custom)"
   sodipodi:docname="app-48.svg"
   inkscape:export-filename="pc-256.png"
   inkscape:export-xdpi="96"
   inkscape:export-ydpi="96"
   xmlns:inkscape="http://www.inkscape.org/namespaces/inkscape"
   xmlns:sodipodi="http://sodipodi.sourceforge.net/DTD/sodipodi-0.dtd"
   xmlns:xlink="http://www.w3.org/1999/xlink"
   xmlns="http://www.w3.org/2000/svg"
   xmlns:svg="http://www.w3.org/2000/svg"
   xmlns:rdf="http://www.w3.org/1999/02/22-rdf-syntax-ns#"
   xmlns:cc="http://creativecommons.org/ns#"><sodipodi:namedview
     id="namedview1"
     pagecolor="#505050"
     bordercolor="#eeeeee"
     borderopacity="1"
     inkscape:showpageshadow="0"
     inkscape:pageopacity="0"
     inkscape:pagecheckerboard="true"
     inkscape:deskcolor="#505050"
     inkscape:document-units="px"
     showguides="true"
     showgrid="true"
     inkscape:zoom="16.125"
     inkscape:cx="24"
     inkscape:cy="23.968992"
     inkscape:window-width="1452"
     inkscape:window-height="988"
     inkscape:window-x="0"
     inkscape:window-y="0"
     inkscape:window-maximized="0"
     inkscape:current-layer="layer2"><sodipodi:guide
       position="1.0583333,11.641666"
       orientation="-1,0"
       id="guide1"
       inkscape:locked="false"
       inkscape:label=""
       inkscape:color="rgb(87,227,137)" /><sodipodi:guide
       position="1.0583333,1.0583333"
       orientation="0,1"
       id="guide2"
       inkscape:locked="false"
       inkscape:label=""
       inkscape:color="rgb(87,227,137)" /><sodipodi:guide
       position="11.641666,11.641666"
       orientation="0,1"
       id="guide3"
       inkscape:locked="false"
       inkscape:label=""
       inkscape:color="rgb(87,227,137)" /><sodipodi:guide
       position="11.641666,1.0583333"
       orientation="-1,0"
       id="guide4"
       inkscape:locked="false"
       inkscape:label=""
       inkscape:color="rgb(87,227,137)" /><inkscape:grid
       id="grid10"
       units="px"
       originx="0"
       originy="0"
       spacingx="0.13229166"
       spacingy="0.13229166"
       empcolor="#0099e5"
       empopacity="0.30196078"
       color="#0099e5"
       opacity="0.14901961"
       empspacing="2"
       dotted="false"
       gridanglex="30"
       gridanglez="30"
       visible="true" /></sodipodi:namedview><defs
     id="defs1"><linearGradient
       id="linearGradient67"
       inkscape:collect="always"><stop
         style="stop-color:#ffffff;stop-opacity:0.2;"
         offset="0"
         id="stop75" /><stop
         style="stop-color:#ffffff;stop-opacity:0;"
         offset="1"
         id="stop78" /></linearGradient><linearGradient
       id="linearGradient36"
       inkscape:collect="always"><stop
         style="stop-color:#74706d;stop-opacity:1;"
         offset="0"
         id="stop38" /><stop
         style="stop-color:#7e7a77;stop-opacity:1;"
         offset="1"
         id="stop42" /></linearGradient><linearGradient
       id="linearGradient90"
       inkscape:collect="always"><stop
         style="stop-color:#000000;stop-opacity:1;"
         offset="0.24915825"
         id="stop90" /><stop
         style="stop-color:#000000;stop-opacity:0;"
         offset="1"
         id="stop91" /></linearGradient><linearGradient
       id="linearGradient80"
       inkscape:collect="always"><stop
         style="stop-color:#000000;stop-opacity:0.5;"
         offset="0"
         id="stop80" /><stop
         style="stop-color:#000000;stop-opacity:0;"
         offset="1"
         id="stop81" /></linearGradient><linearGradient
       id="linearGradient76"
       inkscape:collect="always"><stop
         style="stop-color:#bab28d;stop-opacity:1;"
         offset="0"
         id="stop76" /><stop
         style="stop-color:#b8b389;stop-opacity:0;"
         offset="0.4983165"
         id="stop77" /></linearGradient><linearGradient
       id="linearGradient73"
       inkscape:collect="always"><stop
         style="stop-color:#d6cbae;stop-opacity:1;"
         offset="0"
         id="stop73" /><stop
         style="stop-color:#9d9786;stop-opacity:1;"
         offset="1"
         id="stop74" /></linearGradient><linearGradient
       id="linearGradient71"
       inkscape:collect="always"><stop
         style="stop-color:#9d9786;stop-opacity:1;"
         offset="0"
         id="stop71" /><stop
         style="stop-color:#77705f;stop-opacity:1;"
         offset="1"
         id="stop72" /></linearGradient><linearGradient
       id="linearGradient68"
       inkscape:collect="always"><stop
         style="stop-color:#000000;stop-opacity:0.5;"
         offset="0"
         id="stop69" /><stop
         style="stop-color:#000000;stop-opacity:0;"
         offset="1"
         id="stop70" /></linearGradient><linearGradient
       id="linearGradient66"
       inkscape:collect="always"><stop
         style="stop-color:#00ff00;stop-opacity:0.2;"
         offset="0.30000001"
         id="stop68" /><stop
         style="stop-color:#00ff00;stop-opacity:0;"
         offset="1"
         id="stop67" /></linearGradient><linearGradient
       id="linearGradient63"
       inkscape:collect="always"><stop
         style="stop-color:#ffffbb;stop-opacity:1;"
         offset="0"
         id="stop56" /><stop
         style="stop-color:#aaff00;stop-opacity:1;"
         offset="0.49806201"
         id="stop62" /><stop
         style="stop-color:#00ff00;stop-opacity:1;"
         offset="1"
         id="stop63" /></linearGradient><linearGradient
       id="linearGradient37"
       inkscape:collect="always"><stop
         style="stop-color:#413f3f;stop-opacity:1;"
         offset="0"
         id="stop35" /><stop
         style="stop-color:#726c69;stop-opacity:1;"
         offset="0.5"
         id="stop36" /><stop
         style="stop-color:#a7a5a4;stop-opacity:1;"
         offset="1"
         id="stop37" /></linearGradient><linearGradient
       id="linearGradient14"
       inkscape:collect="always"><stop
         style="stop-color:#5b5958;stop-opacity:1;"
         offset="0"
         id="stop19" /><stop
         style="stop-color:#847e7b;stop-opacity:1;"
         offset="0.5"
         id="stop25" /><stop
         style="stop-color:#c0bfbe;stop-opacity:1;"
         offset="1"
         id="stop24" /></linearGradient><linearGradient
       id="linearGradient20"
       inkscape:collect="always"><stop
         style="stop-color:#d5d2d4;stop-opacity:1;"
         offset="0"
         id="stop20" /><stop
         style="stop-color:#abaaab;stop-opacity:1;"
         offset="0.07"
         id="stop22" /><stop
         style="stop-color:#a2a2a2;stop-opacity:1;"
         offset="0.93000001"
         id="stop23" /><stop
         style="stop-color:#686868;stop-opacity:1;"
         offset="1"
         id="stop21" /></linearGradient><linearGradient
       id="linearGradient57"
       inkscape:collect="always"><stop
         style="stop-color:#ffffff;stop-opacity:1;"
         offset="0"
         id="stop57" /><stop
         style="stop-color:#ff0000;stop-opacity:1;"
         offset="0.49806201"
         id="stop59" /><stop
         style="stop-color:#aa0000;stop-opacity:1;"
         offset="1"
         id="stop58" /></linearGradient><linearGradient
       id="linearGradient49"
       inkscape:collect="always"><stop
         style="stop-color:#292929;stop-opacity:1;"
         offset="0"
         id="stop49" /><stop
         style="stop-color:#2b2b2b;stop-opacity:1;"
         offset="0.41"
         id="stop52" /><stop
         style="stop-color:#000000;stop-opacity:1;"
         offset="0.63"
         id="stop51" /><stop
         style="stop-color:#303030;stop-opacity:1;"
         offset="0.68000001"
         id="stop53" /><stop
         style="stop-color:#333333;stop-opacity:1;"
         offset="1"
         id="stop50" /></linearGradient><linearGradient
       id="linearGradient43"
       inkscape:collect="always"><stop
         style="stop-color:#000000;stop-opacity:1;"
         offset="0"
         id="stop43" /><stop
         style="stop-color:#000000;stop-opacity:1;"
         offset="0.78068185"
         id="stop45" /><stop
         style="stop-color:#929297;stop-opacity:1;"
         offset="1"
         id="stop44" /></linearGradient><linearGradient
       id="linearGradient32"
       inkscape:collect="always"><stop
         style="stop-color:#292929;stop-opacity:1;"
         offset="0"
         id="stop32" /><stop
         style="stop-color:#3d3d3d;stop-opacity:1;"
         offset="1"
         id="stop33" /></linearGradient><linearGradient
       id="linearGradient5"
       inkscape:collect="always"><stop
         style="stop-color:#1c1c21;stop-opacity:1;"
         offset="0"
         id="stop10" /><stop
         style="stop-color:#2f2e38;stop-opacity:1;"
         offset="1"
         id="stop11" /></linearGradient><linearGradient
       id="linearGradient8"
       inkscape:collect="always"><stop
         style="stop-color:#c2cada;stop-opacity:1;"
         offset="0"
         id="stop8" /><stop
         style="stop-color:#9ea09f;stop-opacity:1;"
         offset="1"
         id="stop9" /></linearGradient><linearGradient
       id="linearGradient6"
       inkscape:collect="always"><stop
         style="stop-color:#9f9fa2;stop-opacity:1;"
         offset="0"
         id="stop6" /><stop
         style="stop-color:#b5b3b1;stop-opacity:1;"
         offset="1"
         id="stop7" /></linearGradient><linearGradient
       id="linearGradient1"
       inkscape:collect="always"><stop
         style="stop-color:#cfccc3;stop-opacity:1;"
         offset="0"
         id="stop1" /><stop
         style="stop-color:#aba8a5;stop-opacity:1;"
         offset="1"
         id="stop2" /></linearGradient><linearGradient
       inkscape:collect="always"
       xlink:href="#linearGradient1"
       id="linearGradient2"
       x1="2.6458333"
       y1="49.477081"
       x2="2.6458333"
       y2="65.087502"
       gradientUnits="userSpaceOnUse"
       gradientTransform="matrix(0.76921308,0,0,0.76921305,0.61062348,-0.589664)" /><linearGradient
       inkscape:collect="always"
       xlink:href="#linearGradient6"
       id="linearGradient7"
       x1="3.1871049"
       y1="42.597912"
       x2="3.175"
       y2="49.236706"
       gradientUnits="userSpaceOnUse"
       gradientTransform="matrix(0.76925131,0,0,0.76925131,0.59011678,-1.2003721)" /><linearGradient
       inkscape:collect="always"
       xlink:href="#linearGradient8"
       id="linearGradient9"
       x1="5.2573075"
       y1="52.970844"
       x2="8.2755842"
       y2="55.988892"
       gradientUnits="userSpaceOnUse"
       gradientTransform="matrix(0.93490895,0,0,0.93508628,0.70388137,-9.1943355)" /><linearGradient
       inkscape:collect="always"
       xlink:href="#linearGradient5"
       id="linearGradient11"
       x1="23.018749"
       y1="51.329163"
       x2="23.018749"
       y2="61.383327"
       gradientUnits="userSpaceOnUse"
       gradientTransform="matrix(0.99717967,0,0,1.0657903,0.09363294,-16.71257)" /><linearGradient
       inkscape:collect="always"
       xlink:href="#linearGradient32"
       id="linearGradient33"
       x1="42.597916"
       y1="51.329163"
       x2="42.597916"
       y2="61.383327"
       gradientUnits="userSpaceOnUse"
       gradientTransform="matrix(0.94723194,0,0,0.98421045,2.5344204,-12.228786)" /><linearGradient
       inkscape:collect="always"
       xlink:href="#linearGradient32"
       id="linearGradient34"
       gradientUnits="userSpaceOnUse"
       x1="42.597916"
       y1="51.329163"
       x2="42.597916"
       y2="61.383327"
       gradientTransform="matrix(0.94723182,0,0,0.98421038,1.8816602,-12.228786)" /><linearGradient
       inkscape:collect="always"
       xlink:href="#linearGradient43"
       id="linearGradient44"
       x1="24.97036"
       y1="51.41888"
       x2="24.97036"
       y2="58.622005"
       gradientUnits="userSpaceOnUse"
       gradientTransform="matrix(0.96507366,0,0,1.1555499,0.32210554,-19.847024)" /><linearGradient
       inkscape:collect="always"
       xlink:href="#linearGradient49"
       id="linearGradient50"
       x1="30.784996"
       y1="52.456482"
       x2="30.784996"
       y2="57.343449"
       gradientUnits="userSpaceOnUse"
       gradientTransform="matrix(0.84848455,0,0,1.0838661,3.6211418,-16.529058)" /><radialGradient
       inkscape:collect="always"
       xlink:href="#linearGradient57"
       id="radialGradient58"
       cx="27.207983"
       cy="57.855556"
       fx="27.207983"
       fy="57.855556"
       r="0.52916664"
       gradientUnits="userSpaceOnUse"
       gradientTransform="matrix(-9.2291967e-6,1.9066139,-1.9154554,-9.4548029e-6,135.74712,-4.2331609)" /><linearGradient
       inkscape:collect="always"
       xlink:href="#linearGradient20"
       id="linearGradient21"
       x1="7.9375"
       y1="2.645833"
       x2="7.9325824"
       y2="39.555206"
       gradientUnits="userSpaceOnUse"
       gradientTransform="matrix(0.40840574,0,0,0.41741068,-2.7638098,-4.4216434)" /><linearGradient
       inkscape:collect="always"
       xlink:href="#linearGradient14"
       id="linearGradient24"
       x1="11.159272"
       y1="33.477814"
       x2="12.746772"
       y2="35.98333"
       gradientUnits="userSpaceOnUse"
       gradientTransform="matrix(0.40840574,0,0,0.41741068,-2.7638098,-4.4216434)" /><linearGradient
       inkscape:collect="always"
       xlink:href="#linearGradient37"
       id="linearGradient35"
       x1="13.229166"
       y1="6.8791666"
       x2="25.4"
       y2="33.866665"
       gradientUnits="userSpaceOnUse"
       gradientTransform="matrix(0.40840574,0,0,0.41741068,-2.7638098,-4.4216434)" /><linearGradient
       inkscape:collect="always"
       xlink:href="#linearGradient8"
       id="linearGradient9-9"
       x1="51.656208"
       y1="9.7535019"
       x2="54.967869"
       y2="13.668132"
       gradientUnits="userSpaceOnUse"
       gradientTransform="matrix(1.3899809,0,0,1.1501929,-18.630548,-2.6101631)" /><radialGradient
       inkscape:collect="always"
       xlink:href="#linearGradient63"
       id="radialGradient56"
       gradientUnits="userSpaceOnUse"
       gradientTransform="matrix(-3.0458293e-6,0.63214225,-0.63214074,-3.1347622e-6,55.083441,-13.631077)"
       cx="27.207983"
       cy="57.855556"
       fx="27.207983"
       fy="57.855556"
       r="0.52916664" /><radialGradient
       inkscape:collect="always"
       xlink:href="#linearGradient66"
       id="radialGradient67"
       cx="53.974998"
       cy="20.637499"
       fx="53.974998"
       fy="20.637499"
       r="0.79374999"
       gradientUnits="userSpaceOnUse"
       gradientTransform="matrix(1.0535731,3.7013772e-6,-1.8253225e-6,1.0535719,-38.272437,-18.091603)" /><radialGradient
       inkscape:collect="always"
       xlink:href="#linearGradient68"
       id="radialGradient70"
       cx="52.759003"
       cy="-23.573172"
       fx="52.759003"
       fy="-23.573172"
       r="0.52916664"
       gradientTransform="matrix(1.1174857,8.7133303e-6,-5.2302889e-6,0.67049032,-43.227387,5.2392204)"
       gradientUnits="userSpaceOnUse" /><radialGradient
       inkscape:collect="always"
       xlink:href="#linearGradient80"
       id="radialGradient86"
       gradientUnits="userSpaceOnUse"
       gradientTransform="matrix(1.0705119,1.0705069,-0.5764267,0.57642938,9.6496451,-47.952861)"
       cx="53.974998"
       cy="23.342991"
       fx="53.974998"
       fy="23.342991"
       r="1.6065176" /><radialGradient
       inkscape:collect="always"
       xlink:href="#linearGradient73"
       id="radialGradient87"
       gradientUnits="userSpaceOnUse"
       gradientTransform="matrix(-0.50000013,0.59999901,-0.98380161,-0.81983795,103.14464,8.668639)"
       cx="54.548092"
       cy="23.06292"
       fx="54.548092"
       fy="23.06292"
       r="1.3229166" /><linearGradient
       inkscape:collect="always"
       xlink:href="#linearGradient76"
       id="linearGradient87"
       gradientUnits="userSpaceOnUse"
       x1="52.652081"
       y1="21.960415"
       x2="55.297916"
       y2="24.606249" /><linearGradient
       inkscape:collect="always"
       xlink:href="#linearGradient71"
       id="linearGradient88"
       gradientUnits="userSpaceOnUse"
       x1="53.445831"
       y1="22.754166"
       x2="55.033333"
       y2="24.341665" /><radialGradient
       inkscape:collect="always"
       xlink:href="#linearGradient90"
       id="radialGradient91"
       cx="33.350834"
       cy="13.565133"
       fx="33.350834"
       fy="13.565133"
       r="25.791513"
       gradientTransform="matrix(-0.41290006,0,1.600046e-5,-0.08893532,25.452078,11.827057)"
       gradientUnits="userSpaceOnUse" /><linearGradient
       inkscape:collect="always"
       xlink:href="#linearGradient36"
       id="linearGradient40"
       x1="11.773958"
       y1="6.2177324"
       x2="55.959373"
       y2="35.057312"
       gradientUnits="userSpaceOnUse"
       gradientTransform="matrix(0.40840574,0,0,0.41741068,-2.7638098,-4.4216434)" /><radialGradient
       inkscape:collect="always"
       xlink:href="#linearGradient67"
       id="radialGradient82"
       cx="19.049999"
       cy="10.064881"
       fx="19.049999"
       fy="10.064881"
       r="17.594791"
       gradientTransform="matrix(0.47903227,-0.18830558,0.0753461,0.20021924,-4.8675949,2.4515205)"
       gradientUnits="userSpaceOnUse" /><radialGradient
       inkscape:collect="always"
       xlink:href="#linearGradient19"
       id="radialGradient27"
       cx="0.68138844"
       cy="1.3875808"
       fx="0.68138844"
       fy="1.3875808"
       r="0.8672455"
       gradientTransform="matrix(-0.78060566,-0.78061841,2.3418364,-2.3418368,4.9253597,10.021544)"
       gradientUnits="userSpaceOnUse" /><linearGradient
       id="linearGradient19"
       inkscape:collect="always"><stop
         style="stop-color:#ffffff;stop-opacity:1;"
         offset="0.10204082"
         id="stop26" /><stop
         style="stop-color:#99ffff;stop-opacity:0.80000001;"
         offset="0.3979592"
         id="stop28" /><stop
         style="stop-color:#3376ff;stop-opacity:0.60000002;"
         offset="0.69557822"
         id="stop29" /><stop
         style="stop-color:#4500cc;stop-opacity:0.40000001;"
         offset="0.84778911"
         id="stop30" /><stop
         style="stop-color:#220066;stop-opacity:0.2;"
         offset="1"
         id="stop27" /></linearGradient><linearGradient
       inkscape:collect="always"
       xlink:href="#linearGradient10"
       id="linearGradient13"
       x1="4.0058289"
       y1="-0.35110331"
       x2="4.4394522"
       y2="0.42438686"
       gradientUnits="userSpaceOnUse"
       gradientTransform="matrix(1.5612234,0,0,1.5333171,5.4508466,4.9124508)" /><linearGradient
       id="linearGradient10"
       inkscape:collect="always"><stop
         style="stop-color:#142900;stop-opacity:1;"
         offset="0"
         id="stop12-9" /><stop
         style="stop-color:#366d00;stop-opacity:1;"
         offset="1"
         id="stop13" /></linearGradient><linearGradient
       inkscape:collect="always"
       xlink:href="#linearGradient16"
       id="linearGradient18"
       x1="0.53684717"
       y1="-2.2247012"
       x2="1.8377155"
       y2="-0.90015715"
       gradientUnits="userSpaceOnUse"
       gradientTransform="matrix(1.5612234,0,0,1.5333171,5.4508466,4.9124508)" /><linearGradient
       id="linearGradient16"
       inkscape:collect="always"><stop
         style="stop-color:#52a300;stop-opacity:1;"
         offset="0"
         id="stop16" /><stop
         style="stop-color:#366d00;stop-opacity:1;"
         offset="1"
         id="stop17" /></linearGradient><linearGradient
       inkscape:collect="always"
       xlink:href="#linearGradient3-2"
       id="linearGradient4-1"
       x1="3.1385837"
       y1="-2.6662157"
       x2="4.8730745"
       y2="-0.90015715"
       gradientUnits="userSpaceOnUse"
       gradientTransform="matrix(1.5612234,0,0,1.5333171,5.4508466,4.9124508)" /><linearGradient
       id="linearGradient3-2"
       inkscape:collect="always"><stop
         style="stop-color:#aaff55;stop-opacity:1;"
         offset="0"
         id="stop3-7" /><stop
         style="stop-color:#55aa00;stop-opacity:1;"
         offset="1"
         id="stop4-0" /></linearGradient><radialGradient
       inkscape:collect="always"
       xlink:href="#linearGradient12"
       id="radialGradient15"
       cx="6.6772556"
       cy="-0.52325904"
       fx="6.6772556"
       fy="-0.52325904"
       r="0.55751485"
       gradientTransform="matrix(6.4099238e-8,2.1249996,-2.1249998,2.694236e-7,10.33905,-12.151946)"
       gradientUnits="userSpaceOnUse" /><linearGradient
       id="linearGradient12"
       inkscape:collect="always"><stop
         style="stop-color:#ffffff;stop-opacity:1;"
         offset="0"
         id="stop14" /><stop
         style="stop-color:#9accff;stop-opacity:1;"
         offset="0.09863945"
         id="stop18" /><stop
         style="stop-color:#0080ff;stop-opacity:1;"
         offset="0.74659866"
         id="stop31" /><stop
         style="stop-color:#001a33;stop-opacity:1;"
         offset="1"
         id="stop15" /></linearGradient></defs><g
     inkscape:label="HAL Personal Computer"
     inkscape:groupmode="layer"
     id="layer1"
     style="display:inline;opacity:1;mix-blend-mode:normal"
     transform="matrix(0.22034404,0,0,0.22034404,0.47983139,0.73981629)"
     sodipodi:insensitive="true"><path
       style="display:inline;opacity:1;mix-blend-mode:normal;fill:url(#linearGradient7);stroke:none;stroke-width:0.20353;stroke-linecap:round;stroke-linejoin:round"
       d="m 3.0418014,36.665719 4.7929093,-4.792624 c 0.4070622,-0.407062 0.5919698,-0.407938 1.2025632,-0.407938 l 35.2096971,-5.43e-4 c 0.610593,0 0.795501,0.0014 1.202564,0.408481 l 4.792854,4.792624 z"
       id="path6"
       inkscape:label="Top Cover"
       sodipodi:nodetypes="ccccccc" /><path
       id="rect2"
       style="display:inline;opacity:1;mix-blend-mode:normal;fill:#edf1ea;fill-opacity:1;stroke-width:0.203521;stroke-linecap:round;stroke-linejoin:round"
       inkscape:label="Front Panel Top Bevel"
       d="M 4.0500953,36.249366 H 49.231749 c 0.789254,0 1.424646,0.635392 1.424646,1.424646 v 0.995514 H 2.6254485 l 10e-8,-0.995514 c 1e-7,-0.789254 0.6353924,-1.424646 1.4246467,-1.424646 z"
       sodipodi:nodetypes="sssccss" /><path
       id="rect1"
       style="opacity:1;fill:url(#linearGradient2);stroke:none;stroke-width:0.20352;stroke-linecap:round;stroke-linejoin:round"
       d="M 3.8262222,37.468752 H 49.455623 c 0.610563,0 1.199692,0.691973 1.200774,1.200774 l 0.02038,9.585839 c 0.0014,0.676501 -0.544653,1.221123 -1.221157,1.221123 H 3.8262222 c -0.6765037,0 -1.2007737,-0.52427 -1.2007737,-1.200773 v -9.606189 c 0,-0.508802 0.590211,-1.200774 1.2007737,-1.200774 z"
       sodipodi:nodetypes="sssssssss"
       inkscape:label="Front Panel" /><g
       inkscape:groupmode="layer"
       id="layer5"
       inkscape:label="Badge"
       style="display:inline;opacity:1;mix-blend-mode:normal;stroke-width:0.953942"
       transform="matrix(0.85106514,0,0,0.85096775,0.24487352,5.5439847)"><rect
         style="display:inline;opacity:1;mix-blend-mode:normal;fill:url(#linearGradient9);fill-opacity:1;stroke:#000000;stroke-width:0.352747;stroke-linecap:round;stroke-linejoin:round;stroke-dasharray:none;stroke-opacity:0.5;paint-order:markers stroke fill"
         id="rect7"
         width="2.4690669"
         height="2.4693897"
         x="5.7953587"
         y="40.514347"
         rx="6.8656553e-18"
         inkscape:label="Panel"
         ry="6.8669581e-18" /></g><g
       inkscape:groupmode="layer"
       id="layer6"
       inkscape:label="Ventilation Holes"
       style="display:inline;opacity:1;mix-blend-mode:normal"
       transform="matrix(0.76925133,0,0,0.76925133,0.6105225,9.754311)"><path
         style="display:inline;fill:none;fill-opacity:1;stroke:#000000;stroke-width:0.780482;stroke-linecap:round;stroke-linejoin:round;stroke-dasharray:none;stroke-opacity:0.533333;paint-order:markers stroke fill"
         d="m 6.131503,44.222871 v 3.90241"
         id="path16"
         sodipodi:nodetypes="cc"
         inkscape:label="Hole" /><use
         x="0"
         y="0"
         xlink:href="#path16"
         id="use17"
         transform="translate(1.5609641)"
         style="display:inline" /><use
         x="0"
         y="0"
         xlink:href="#path16"
         id="use19"
         transform="translate(3.1219282)"
         style="display:inline" /><use
         x="0"
         y="0"
         xlink:href="#path16"
         id="use22"
         transform="translate(7.8048205)"
         style="display:inline" /><use
         x="0"
         y="0"
         xlink:href="#path16"
         id="use24"
         transform="translate(4.6828923)"
         style="display:inline" /><use
         x="0"
         y="0"
         xlink:href="#path16"
         id="use27"
         transform="translate(6.2438564)"
         style="display:inline" /><use
         x="0"
         y="0"
         xlink:href="#path16"
         id="use29"
         transform="translate(9.3657846)"
         style="display:inline" /><use
         x="0"
         y="0"
         xlink:href="#path16"
         id="use7"
         transform="translate(10.926749)" /><use
         x="0"
         y="0"
         xlink:href="#use7"
         id="use8"
         transform="translate(1.5609638)" /></g><g
       inkscape:groupmode="layer"
       id="layer4"
       inkscape:label="Drive Bay"
       transform="matrix(0.79132446,0,0,0.77580781,0.09027358,9.3788823)"
       style="display:inline"><rect
         style="display:inline;opacity:1;mix-blend-mode:normal;fill:url(#linearGradient11);stroke-width:0.272763;stroke-linecap:round;stroke-linejoin:round;stroke-opacity:0.5;paint-order:markers stroke fill"
         id="rect5"
         width="40.970417"
         height="12.382174"
         x="21.412783"
         y="37.755024"
         inkscape:label="Panel"
         rx="1.5174227" /><g
         inkscape:groupmode="layer"
         id="layer7"
         inkscape:label="Floppy Drive"
         style="display:inline;opacity:1;mix-blend-mode:normal"
         transform="matrix(0.99804309,0,0,1.0227278,0.07507576,-1.1666007)"><rect
           style="display:inline;opacity:1;mix-blend-mode:normal;fill:url(#linearGradient34);fill-opacity:0.502164;stroke:none;stroke-width:0.383201;stroke-linecap:round;stroke-linejoin:round;stroke-dasharray:none;stroke-opacity:1;paint-order:markers stroke fill"
           id="rect31-5"
           width="18.244778"
           height="12.107007"
           x="22.899944"
           y="38.056686"
           inkscape:label="Panel" /><path
           id="rect42"
           style="display:inline;opacity:1;mix-blend-mode:normal;fill:url(#linearGradient44);stroke-width:0.558814;stroke-linecap:round;stroke-dasharray:none;stroke-opacity:0.75;paint-order:stroke markers fill"
           inkscape:label="Hole"
           d="m 24.420342,42.59681 h 4.561194 v -3.026752 h 6.081592 v 3.026752 h 4.561194 v 1.513376 h -4.561194 v 3.783441 h -6.081592 v -3.783441 h -4.561194 z"
           sodipodi:nodetypes="ccccccccccccc" /><path
           id="rect48"
           style="display:inline;opacity:1;mix-blend-mode:normal;fill:#ffffff;fill-opacity:0.5;stroke-width:0.579673;stroke-linecap:round;stroke-opacity:0.75;paint-order:stroke markers fill"
           inkscape:label="Bevel Bottom"
           d="m 24.420342,44.110186 -0.760199,0.756689 h 5.321393 v -0.756689 z m 10.642786,0 v 0.756689 h 5.321393 l -0.760199,-0.756689 z"
           sodipodi:nodetypes="cccccccccc" /><rect
           style="display:inline;opacity:1;mix-blend-mode:normal;fill:url(#linearGradient50);stroke:none;stroke-width:0.515092;stroke-linecap:round;stroke-linejoin:miter;stroke-dasharray:none;stroke-opacity:0.75;paint-order:stroke markers fill"
           id="rect49"
           width="4.561193"
           height="5.2968187"
           x="29.741735"
           y="40.326744"
           inkscape:label="Latch"
           ry="0" /><ellipse
           style="display:inline;fill:url(#radialGradient58);fill-opacity:1;stroke:none;stroke-width:1.01125;stroke-linecap:round;stroke-linejoin:miter;stroke-dasharray:none;stroke-opacity:0.75;paint-order:stroke markers fill"
           id="path56"
           inkscape:label="LED"
           cx="25.18054"
           cy="47.893627"
           rx="0.76019895"
           ry="0.75668818" /></g><g
         inkscape:groupmode="layer"
         id="layer8"
         inkscape:label="Hard Drive"
         style="display:inline;opacity:1;mix-blend-mode:normal"
         transform="matrix(0.99804309,0,0,1.0227278,0.09060619,-1.1666007)"><rect
           style="display:inline;opacity:1;mix-blend-mode:normal;fill:url(#linearGradient33);fill-opacity:0.502164;stroke:none;stroke-width:0.383201;stroke-linecap:round;stroke-linejoin:round;stroke-dasharray:none;stroke-opacity:1;paint-order:markers stroke fill"
           id="rect33"
           width="18.244776"
           height="12.107008"
           x="42.649555"
           y="38.056683"
           inkscape:label="Panel" /><rect
           style="display:inline;opacity:1;mix-blend-mode:normal;fill:#000000;fill-opacity:1;stroke:none;stroke-width:0.643373;stroke-linecap:round;stroke-linejoin:miter;stroke-dasharray:none;stroke-opacity:0.75;paint-order:stroke markers fill"
           id="rect35"
           width="15.203979"
           height="2.2700624"
           x="44.169956"
           y="45.623566"
           inkscape:label="Hole" /><path
           id="rect9"
           style="display:inline;opacity:1;mix-blend-mode:normal;fill:#333333;fill-opacity:1;stroke:none;stroke-width:0.618148;stroke-linecap:round;stroke-linejoin:miter;stroke-dasharray:none;stroke-opacity:0.75;paint-order:stroke markers fill"
           inkscape:label="Grid"
           d="m 51.771945,45.623563 v 0.756689 l -0.760199,-10e-7 v -0.756688 h -0.760199 v 0.756688 h -6.081592 v 0.756688 h 6.081592 v 0.756688 h 0.760199 v -0.756688 l 0.760199,1e-6 v 0.756688 h 0.760198 V 47.13694 l 0.7602,-3e-6 v 0.75669 l 0.760199,10e-7 v -0.75669 l 0.760199,-10e-7 v 0.75669 h 0.760199 v -0.75669 h 0.760199 v 0.75669 h 0.760199 v -0.75669 l 0.760199,3e-6 v 0.756688 h 0.760199 V 47.13694 l 0.760199,-1e-6 v -0.756688 l -0.760199,10e-7 v -0.756689 h -0.760199 v 0.756689 h -0.760198 l -10e-7,-0.756689 h -0.760199 v 0.756689 h -0.760198 l -10e-7,-0.756689 h -0.760199 v 0.756689 l -0.760199,1e-6 v -0.756689 l -0.760199,-1e-6 v 0.756689 h -0.760199 l -1e-6,-0.756689 z"
           sodipodi:nodetypes="ccccccccccccccccccccccccccccccccccccccccccccccccccccc" /><rect
           style="display:inline;opacity:1;mix-blend-mode:normal;fill:#ffffff;fill-opacity:0.75;stroke:none;stroke-width:0.863168;stroke-linecap:round;stroke-linejoin:miter;stroke-dasharray:none;stroke-opacity:0.75;paint-order:stroke markers fill"
           id="rect36"
           width="3.0407958"
           height="3.0267527"
           x="46.45055"
           y="44.866875"
           inkscape:label="LedBorder" /><rect
           style="display:inline;opacity:1;mix-blend-mode:normal;fill:#cc0000;fill-opacity:1;stroke:none;stroke-width:1.51687;stroke-linecap:round;stroke-linejoin:miter;stroke-dasharray:none;stroke-opacity:0.75;paint-order:stroke markers fill"
           id="rect34"
           width="1.5203979"
           height="1.5133764"
           x="47.210751"
           y="45.623562"
           inkscape:label="LED"
           ry="0" /></g></g></g><g
     inkscape:groupmode="layer"
     id="layer2"
     inkscape:label="HAL Color Monitor"
     style="display:inline;opacity:1"
     transform="matrix(0.47457627,0,0,0.47457627,1.0975394,2.6326188)"
     inkscape:highlight-color="#3e99e3"><path
       id="path88"
       style="display:inline;opacity:1;fill:url(#radialGradient91);fill-opacity:1;stroke:none;stroke-width:0.117676;stroke-linecap:round;stroke-dasharray:none;stroke-opacity:1;paint-order:normal"
       d="m 21.896385,10.620626 0.271666,1.146889 c 0.111121,0.469117 0.05833,0.875236 -0.380334,0.892024 -3.29551,0.10224 -6.591985,0.191148 -9.888649,0.191148 -3.2966661,0 -6.5931409,-0.08892 -9.8886525,-0.191148 -0.4496602,0.03188 -0.7524087,-0.451632 -0.8149989,-0.892024 L 1.0324168,10.620626 Z"
       sodipodi:nodetypes="cssssscc"
       inkscape:label="UnderShadow"
       sodipodi:insensitive="true" /><path
       id="rect8"
       style="display:inline;opacity:1;fill:url(#linearGradient21);fill-opacity:1;stroke:none;stroke-width:0.109242;stroke-linecap:round;stroke-dasharray:none;stroke-opacity:1;paint-order:normal"
       d="m 1.4504268,-3.1515845 c 3.204559,-0.103428 6.410947,-0.16566 9.6171042,-0.16566 3.206156,0 6.412543,0.062233 9.617103,0.1656601 0.458524,0.014799 0.829525,0.030944 0.864458,0.828299 0.0983,2.24366501 0.117063,4.4909395 0.108057,6.736834 -0.009,2.2462711 -0.04743,4.4936007 -0.162086,6.7368334 -0.02415,0.421234 -0.158106,0.758529 -0.594314,0.773078 -3.277039,0.08861 -6.555032,0.165661 -9.833218,0.165661 -3.2781852,0 -6.5561805,-0.07706 -9.8332192,-0.165661 C 0.78717229,11.95109 0.67704118,11.535458 0.63999647,11.150382 0.52534066,8.9071493 0.4869178,6.6598197 0.4779103,4.4135486 c -0.009006,-2.2458945 0.009762,-4.49316899 0.10805747,-6.736834 0.034933,-0.7973673 0.40595154,-0.8135008 0.86445903,-0.8282991 z"
       sodipodi:nodetypes="sssssssssssss"
       inkscape:label="Front Surface"
       sodipodi:insensitive="true" /><rect
       style="display:inline;opacity:1;mix-blend-mode:normal;fill:url(#linearGradient40);fill-opacity:0.75;stroke:none;stroke-width:0.027355;stroke-linecap:round;stroke-miterlimit:3.3"
       id="rect6"
       width="18.045578"
       height="12.037949"
       x="2.0447426"
       y="-1.8262955"
       rx="2.9813415e-18"
       ry="3.0937055e-18"
       inkscape:label="InnerPanel"
       sodipodi:insensitive="true" /><path
       id="path10"
       style="display:inline;fill:url(#linearGradient24);fill-opacity:1;stroke:none;stroke-width:0.0938926;stroke-linecap:round"
       inkscape:label="InnerBevel"
       d="m 11.067531,-2.2128454 c -2.8273751,0 -5.6546454,0.052952 -8.4808139,0.1395598 -0.4235236,0.012978 -0.6882828,0.037429 -0.7165129,0.6492659 -0.08665,1.87793971 -0.1035481,3.7590211 -0.095605,5.6395537 0.00794,1.8808249 0.041805,3.7621443 0.1428802,5.6397683 0.030595,0.5065077 0.262105,0.5966927 0.478238,0.6035357 2.8902656,0.0742 5.7809475,0.139339 8.6716026,0.139345 h 4.04e-4 c 2.890656,-6e-6 5.781126,-0.06515 8.67139,-0.139345 0.216153,-0.0067 0.447858,-0.09705 0.478449,-0.6035357 0.101075,-1.877624 0.134941,-3.7589434 0.14288,-5.6397683 0.0079,-1.8805326 -0.0089,-3.76161399 -0.09561,-5.6395537 -0.02821,-0.6118375 -0.29297,-0.6362868 -0.716494,-0.6492659 -2.826167,-0.086608 -5.653438,-0.1395598 -8.480812,-0.1395598 z m 0,0.4417596 c 2.728748,0 5.457549,0.049218 8.185132,0.1298533 0.408749,0.012084 0.663942,0.034757 0.691186,0.6043996 0.08363,1.74842691 0.100118,3.5000159 0.09244,5.250856 -0.0077,1.7511147 -0.04026,3.5027238 -0.137815,5.2508562 -0.02952,0.471559 -0.253164,0.5555397 -0.461776,0.5619057 -2.789442,0.06909 -5.579134,0.129633 -8.368956,0.129637 h -4.04e-4 C 8.2775169,10.156418 5.487825,10.095869 2.6983808,10.026785 2.4897865,10.020417 2.2661278,9.9364543 2.2366042,9.4648793 2.1390549,7.7167469 2.1064508,5.9651378 2.0987893,4.2140231 c -0.00766,-1.7508401 0.00881,-3.50242909 0.092439,-5.250856 0.027244,-0.5696413 0.2824374,-0.5923156 0.6911868,-0.6043996 2.72758,-0.080635 5.4563814,-0.1298533 8.1851299,-0.1298533 z"
       sodipodi:insensitive="true" /><rect
       style="display:inline;opacity:1;fill:#000000;fill-opacity:1;stroke:none;stroke-width:0.0273106;stroke-linecap:round;stroke-miterlimit:3.3"
       id="rect78"
       width="14.371627"
       height="10.933551"
       x="2.9092021"
       y="-1.3845361"
       rx="2.9991933e-18"
       ry="3.0653233e-18"
       inkscape:label="Screen"
       sodipodi:insensitive="true" /><path
       style="display:inline;opacity:1;fill:url(#radialGradient27);stroke-width:0.676993;stroke-linecap:round;stroke-linejoin:round;stroke-miterlimit:3.3"
       d="m 6.965969,5.5631709 c 0,0.6769819 0.6769824,1.3539636 1.3539647,1.3539636 C 7.6429514,8.2710996 6.2889864,8.2710996 4.9350215,8.948082 5.612004,7.5941178 5.612004,6.2401528 6.965969,5.5631709 Z"
       id="path18"
       inkscape:label="Fire"
       sodipodi:nodetypes="cccc" /><path
       style="display:inline;opacity:1;fill:url(#linearGradient13);fill-opacity:1;stroke-width:0.676993;stroke-linecap:round;stroke-linejoin:round;stroke-miterlimit:3.3"
       d="M 9.5002933,4.3740974 C 10.518673,5.3895691 11.027862,6.9142304 11.027862,8.948082 12.381827,7.5941178 13.058809,3.5322236 11.704844,2.1782589 Z"
       id="path2"
       sodipodi:nodetypes="cccc"
       inkscape:label="Right Fin" /><path
       style="display:inline;opacity:1;fill:url(#linearGradient18);fill-opacity:1;stroke-width:0.676993;stroke-linecap:round;stroke-linejoin:round;stroke-miterlimit:3.3"
       d="m 4.9350215,2.8552411 c 2.0280419,0 3.5497982,0.5062855 4.5652718,1.5188563 L 11.704844,2.1782589 C 10.35088,0.82429409 6.2889864,1.5012765 4.9350215,2.8552411 Z"
       id="path8"
       sodipodi:nodetypes="cccc"
       inkscape:label="Left Fin" /><path
       style="display:inline;opacity:1;fill:url(#linearGradient4-1);fill-opacity:1;stroke-width:0.676993;stroke-linecap:round;stroke-linejoin:round;stroke-miterlimit:3.3"
       d="m 14.412774,-0.52967043 c 0,4.06189403 -3.384912,6.09284133 -6.0928403,7.44680493 -0.6769823,0 -1.3539647,-0.6769817 -1.3539647,-1.3539636 1.3539647,-2.7079296 3.384911,-6.09284133 7.446805,-6.09284133 z"
       id="path1"
       inkscape:label="Rocket"
       sodipodi:nodetypes="cccc" /><circle
       style="display:inline;opacity:1;fill:url(#radialGradient15);fill-opacity:1;stroke:#000000;stroke-width:0.197452;stroke-linecap:round;stroke-linejoin:round;stroke-miterlimit:3.3;stroke-dasharray:none;stroke-opacity:0.25;paint-order:stroke fill markers"
       id="path3"
       cx="11.64843"
       cy="2.2346737"
       inkscape:label="Window"
       r="0.78981274" /><rect
       style="display:inline;opacity:1;fill:url(#radialGradient82);stroke:none;stroke-width:0.0273106;stroke-linecap:round;stroke-miterlimit:3.3"
       id="rect79"
       width="14.371627"
       height="10.933551"
       x="2.9092021"
       y="-1.3845361"
       rx="2.9991933e-18"
       ry="3.0653233e-18"
       inkscape:label="Screen Reflection"
       sodipodi:insensitive="true" /><path
       id="rect12"
       style="display:inline;opacity:1;fill:url(#linearGradient35);stroke-width:0.109242;stroke-miterlimit:3.6;stroke-opacity:0.5;paint-order:fill markers stroke"
       inkscape:label="ScreenBevel"
       d="m 2.8551721,-1.5501955 c -0.1197275,0 -0.216115,0.098513 -0.216115,0.2208798 v 10.82311 c 0,0.122367 0.096387,0.22088 0.216115,0.22088 0,0 4.8265667,0.110438 7.2398439,0.110438 2.413273,0 7.239841,-0.110438 7.239841,-0.110438 0.119727,0 0.216113,-0.09851 0.216113,-0.22088 v -10.82311 c 0,-0.1223671 -0.09639,-0.2208798 -0.216113,-0.2208798 z m 7.2398439,0.2208798 c 2.270344,2e-7 4.53897,0.1310092 6.807612,0.2208798 0.139167,0.00551 0.211054,0.060552 0.216114,0.22087985 0.19797,3.27999515 0.186413,6.66418555 0,9.93958935 -0.0063,0.110426 -0.108057,0.213054 -0.216114,0.220882 -2.232228,0.161675 -4.569788,0.220879 -6.807612,0.220879 -2.2018832,0 -4.5033564,-0.05932 -6.6995572,-0.220879 C 3.2874013,9.2649803 3.1932237,9.1619023 3.1793447,9.0520333 2.7667121,5.7856765 2.9674387,2.3932359 3.0712872,-0.88755605 c 0.00509,-0.16030855 0.076917,-0.21536575 0.2161141,-0.22087985 2.268642,-0.089871 4.5384125,-0.22088 6.8076147,-0.2208798 z"
       sodipodi:nodetypes="ssscscsssssscssssscss"
       sodipodi:insensitive="true" /><g
       inkscape:groupmode="layer"
       id="g44"
       inkscape:label="Badge"
       style="display:inline;opacity:1;mix-blend-mode:normal;stroke-width:1.2"
       transform="matrix(0.3634499,0,0,0.37146361,-1.5669842,-3.7273201)"
       sodipodi:insensitive="true"><rect
         style="display:inline;opacity:1;mix-blend-mode:normal;fill:url(#linearGradient9-9);fill-opacity:1;stroke:none;stroke-width:0.175596;stroke-linecap:round;stroke-linejoin:round;stroke-dasharray:none;stroke-opacity:0.5;paint-order:markers stroke fill"
         id="rect7-1"
         width="4.6018572"
         height="4.5025797"
         x="53.170597"
         y="8.6082449"
         rx="1.0207551e-17"
         inkscape:label="Panel"
         ry="8.4466283e-18" /><path
         d="m 54.924253,9.4467927 h -0.430055 v -0.088111 h 0.430055 z m 0,0.1709456 h -0.430055 v -0.088111 h 0.430055 z m -0.152462,0.1568476 h -0.277593 v -0.07578 h 0.277593 z M 54.350367,9.4467927 h -0.412796 v -0.088111 h 0.412796 z m 0.421424,0.4846395 h -0.696142 v -0.077544 h 0.696142 z M 54.350367,9.6177383 h -0.412796 v -0.088111 h 0.412796 z m 0.421424,0.6414877 h -0.277593 v -0.09869 h 0.277593 z M 54.350367,9.7745859 h -0.274718 v -0.07578 h 0.274718 z m 0.573886,0.6573501 h -0.430055 v -0.08812 h 0.430055 z m -0.152462,-0.348941 h -0.696142 v -0.08106 h 0.696142 z m 0.152462,0.519885 h -0.430055 v -0.08636 h 0.430055 z m -0.573886,-0.343654 h -0.274718 v -0.09869 h 0.274718 z m 0,0.17271 h -0.412796 v -0.08812 h 0.412796 z m 0,0.170944 h -0.412796 v -0.08636 h 0.412796 z m 1.446107,-1.1560873 h -0.466012 l 0.01147,-0.088111 h 0.441562 z m 0.04891,0.3330799 h -0.253143 l -0.01147,-0.081056 h 0.251697 z m -0.02446,-0.1621343 h -0.251707 l -0.0072,-0.054646 -0.0072,0.054646 H 55.30599 l 0.01147,-0.088111 h 0.490464 z m 0.04747,0.3225064 h -0.25314 l -0.01148,-0.081056 h 0.251706 z m -0.325058,-0.2414386 -0.01295,0.081057 h -0.247383 l 0.01147,-0.081056 z m 0.523546,0.7331299 h -0.404166 l -0.01008,-0.08812 h 0.414233 z m -0.17548,-0.331319 H 55.23697 l 0.01147,-0.07931 h 0.631418 z m -0.371085,-0.2414387 -0.01295,0.081056 h -0.247383 l 0.01147,-0.081056 z m 0.546559,0.7437017 h -0.384029 l -0.01008,-0.08636 h 0.394094 z m -0.152461,-0.343654 h -0.699018 l 0.01147,-0.08105 h 0.676007 z m -0.442999,0.08459 -0.01008,0.08812 h -0.405612 v -0.08812 z m -0.02014,0.172707 -0.01008,0.08636 h -0.38547 v -0.08636 z m 1.309472,-1.0697373 h -0.549435 v -0.088111 h 0.549435 z m 0,0.1709455 h -0.549435 v -0.088111 h 0.549435 z M 57.0067,10.259219 h -0.258896 v -0.09869 H 57.0067 Z M 56.624108,9.7745859 h -0.276156 v -0.07578 h 0.276156 z m 0,0.1568463 h -0.276156 v -0.077544 h 0.276156 z m 0,0.1515628 h -0.276156 v -0.08106 h 0.276156 z m 0,0.176231 h -0.276156 v -0.09869 h 0.276156 z m 0.38259,0.17271 h -0.795387 v -0.08812 h 0.795387 z m 0,0.170944 h -0.795387 v -0.08636 h 0.795387 z"
         id="use49"
         style="font-size:1.42728px;line-height:0;font-family:MeninBlue;-inkscape-font-specification:MeninBlue;letter-spacing:0.134763px;word-spacing:0px;display:inline;mix-blend-mode:normal;fill:#000000;fill-opacity:1;stroke-width:0.368482;stroke-linecap:round;stroke-linejoin:round;stroke-opacity:0.5;paint-order:markers stroke fill"
         aria-label="HAL"
         inkscape:label="HAL" /><path
         id="path52"
         style="font-style:italic;font-size:0.846668px;line-height:1;font-family:'Droid Serif';-inkscape-font-specification:'Droid Serif Italic';letter-spacing:0px;word-spacing:0px;display:inline;opacity:1;mix-blend-mode:normal;fill:#000000;fill-opacity:1;stroke-width:0.352853;stroke-miterlimit:3.6;stroke-opacity:0.5;paint-order:fill markers stroke"
         d="m 55.947969,11.129687 c -0.0089,0 -0.01613,0.0036 -0.02155,0.01068 -0.0053,0.0069 -0.0078,0.01649 -0.0078,0.02805 0,0.01991 0.0092,0.02938 0.02755,0.02938 0.0086,0 0.01554,-0.003 0.02097,-0.0093 0.0056,-0.0066 0.0084,-0.01627 0.0084,-0.02872 0,-0.0201 -0.0092,-0.03005 -0.02755,-0.03005 z m -1.10725,6.45e-4 -0.0042,0.02338 h 0.0042 c 0.02297,0 0.03413,0.0083 0.03413,0.02538 0,0.0032 -0.0018,0.01271 -0.0048,0.02871 l -0.06347,0.337941 h 0.0455 l 0.02634,-0.140253 c 0.0051,-0.02668 0.01739,-0.05324 0.03653,-0.08081 0.01929,-0.02773 0.03812,-0.04208 0.05629,-0.04208 0.01498,0 0.02276,0.0112 0.02276,0.03272 0,0.01192 -0.0024,0.02871 -0.0071,0.05076 l -0.01138,0.05676 c -0.0062,0.03254 -0.0096,0.05675 -0.0096,0.07347 0,0.01672 0.004,0.03028 0.01197,0.04008 0.0082,0.0098 0.01878,0.01469 0.03234,0.01469 0.01851,0 0.03852,-0.01076 0.05989,-0.03139 l -0.0084,-0.01603 c -0.01148,0.0083 -0.02233,0.01269 -0.03173,0.01269 -0.01148,0 -0.01737,-0.0086 -0.01737,-0.02604 0,-0.01636 0.0022,-0.03556 0.0066,-0.05744 l 0.01257,-0.06478 c 0.0059,-0.02846 0.009,-0.04788 0.009,-0.05944 0,-0.04037 -0.01717,-0.06078 -0.05209,-0.06078 -0.03332,0 -0.06391,0.02438 -0.09103,0.07347 h -0.0048 c 0.0071,-0.0306 0.01342,-0.06095 0.01917,-0.09084 l 0.01916,-0.100179 z m -0.829388,0.02538 -0.0042,0.02271 h 0.0066 c 0.01403,0 0.02308,0.0022 0.02755,0.0067 0.0044,0.0044 0.0066,0.01083 0.0066,0.01937 0,0.0038 -2.34e-4,0.0083 -0.0013,0.01335 l -0.0509,0.268481 c -0.0022,0.01138 -0.0067,0.02013 -0.01317,0.02672 -0.0064,0.0064 -0.01815,0.0093 -0.03474,0.0093 h -0.0066 l -0.0036,0.02338 h 0.26289 l 0.02155,-0.09551 h -0.02575 l -0.0078,0.02338 c -0.0094,0.02987 -0.02809,0.04476 -0.05569,0.04476 h -0.09402 l 0.03114,-0.163627 h 0.11797 l 0.0048,-0.02672 H 54.07469 l 0.02814,-0.144927 h 0.08204 c 0.02329,0 0.03474,0.01169 0.03474,0.03606 0,0.0015 -3.87e-4,0.0068 -0.0013,0.01536 l -0.0013,0.01669 h 0.02576 l 0.01557,-0.09551 z m 1.757586,0.02938 c -0.01802,0.05104 -0.04297,0.07681 -0.07485,0.07681 l -0.0042,0.02204 h 0.03713 l -0.02995,0.157618 c -0.0032,0.0169 -0.0048,0.03172 -0.0048,0.04541 0,0.04251 0.01773,0.06411 0.0533,0.06411 0.02201,0 0.04387,-0.0086 0.06586,-0.02604 l -0.0084,-0.0207 c -0.01339,0.0081 -0.02629,0.01202 -0.03953,0.01202 -0.01738,0 -0.02634,-0.01014 -0.02634,-0.03005 0,-0.01031 0.002,-0.02577 0.006,-0.04675 l 0.02994,-0.155614 h 0.05929 l 0.006,-0.03138 h -0.05928 l 0.01257,-0.06746 z m 0.777889,0.04073 c -0.01977,0 -0.03724,0.01294 -0.0527,0.03874 -0.01275,-0.01155 -0.0294,-0.01736 -0.0503,-0.01736 -0.03413,0 -0.06175,0.01281 -0.08264,0.03807 -0.02074,0.02508 -0.03114,0.05271 -0.03114,0.08349 0,0.03112 0.01132,0.05287 0.03413,0.06478 -0.01802,0.01031 -0.02998,0.01956 -0.03653,0.02737 -0.0064,0.0079 -0.0096,0.01685 -0.0096,0.02805 0,0.01653 0.0077,0.02953 0.02336,0.03807 -0.02472,0.0054 -0.04434,0.01435 -0.05869,0.02805 -0.01419,0.01387 -0.02096,0.0312 -0.02096,0.05076 0,0.04749 0.03531,0.07079 0.106594,0.07079 0.04258,0 0.07525,-0.0097 0.0982,-0.02872 0.02297,-0.01885 0.03474,-0.04484 0.03474,-0.07881 0,-0.04162 -0.02534,-0.06541 -0.07606,-0.07146 l -0.0473,-0.006 c -0.01674,-0.0019 -0.02456,-0.007 -0.02456,-0.01603 0,-0.01244 0.01145,-0.02424 0.03474,-0.03473 0.0029,7.1e-4 0.0082,0.0014 0.01557,0.0014 0.03364,0 0.06087,-0.01264 0.08144,-0.03807 0.02057,-0.02562 0.03053,-0.05356 0.03053,-0.08415 0,-0.01672 -0.0036,-0.03069 -0.01078,-0.04208 0.0097,-0.0083 0.01817,-0.01268 0.02456,-0.01268 0.0091,0 0.01317,0.0062 0.01317,0.01937 0.01929,0 0.02934,-0.0108 0.02934,-0.03339 0,-0.01672 -0.0087,-0.02539 -0.02516,-0.02539 z m -1.833041,0.02138 c -0.0421,0 -0.07721,0.02026 -0.104795,0.06011 -0.02759,0.03966 -0.04133,0.08323 -0.04133,0.130902 0,0.03503 0.0088,0.06272 0.02636,0.08282 0.01755,0.0201 0.04093,0.03005 0.06946,0.03005 0.02582,0 0.04637,-0.0068 0.06168,-0.01938 0.01546,-0.01281 0.02277,-0.02616 0.02277,-0.04074 0,-0.0068 -0.0015,-0.01169 -0.0048,-0.01402 -0.0185,0.02614 -0.04211,0.0394 -0.07066,0.0394 -0.03588,0 -0.05389,-0.02469 -0.05389,-0.07414 0,-0.03646 0.0089,-0.07347 0.02575,-0.111535 0.01706,-0.03807 0.03648,-0.05744 0.05928,-0.05744 0.0118,0 0.02145,0.0061 0.02813,0.01803 0.0067,0.01173 0.01018,0.02737 0.01018,0.04675 0.01323,0 0.02332,-0.0034 0.03114,-0.01068 0.0081,-0.0072 0.01197,-0.01702 0.01197,-0.02805 0,-0.01494 -0.006,-0.02677 -0.01857,-0.03673 -0.01259,-0.01 -0.03022,-0.01536 -0.0527,-0.01536 z m 0.531769,0 c -0.04131,0 -0.07614,0.02126 -0.104199,0.06411 -0.0279,0.04287 -0.04192,0.08943 -0.04192,0.139584 0,0.03148 0.0058,0.05652 0.01676,0.07414 0.01116,0.01743 0.02678,0.02604 0.04671,0.02604 0.03764,0 0.06818,-0.02964 0.09162,-0.08816 h 0.003 c -0.0033,0.01672 -0.0048,0.03119 -0.0048,0.04274 0,0.03023 0.01281,0.04541 0.03832,0.04541 0.02265,0 0.04543,-0.01103 0.06887,-0.03273 l -0.009,-0.01603 c -0.01435,0.0094 -0.02608,0.01402 -0.03532,0.01402 -0.01068,0 -0.01616,-0.0089 -0.01616,-0.02737 0,-0.01529 0.0024,-0.03569 0.0071,-0.06078 l 0.03353,-0.174981 h -0.01557 l -0.02155,0.01402 c -0.01609,-0.01316 -0.03532,-0.02003 -0.05749,-0.02003 z m -0.789268,6.46e-4 c -0.033,0 -0.06276,0.02438 -0.08923,0.07347 h -0.0048 l 0.01317,-0.06879 h -0.09045 l -0.0042,0.02271 h 0.0036 c 0.0228,0 0.03413,0.0088 0.03413,0.02605 0,0.0062 -4.68e-4,0.01457 -0.0024,0.02471 l -0.04133,0.219727 h 0.04551 l 0.02635,-0.140251 c 0.0054,-0.02721 0.01755,-0.0541 0.03653,-0.08148 0.01913,-0.02739 0.03812,-0.04141 0.05629,-0.04141 0.01499,0 0.02216,0.0112 0.02216,0.03272 0,0.01192 -0.0024,0.02871 -0.0071,0.05076 l -0.01137,0.05676 c -0.0062,0.03254 -0.009,0.05675 -0.009,0.07346 0,0.01672 0.004,0.03028 0.01197,0.04008 0.0082,0.0098 0.01878,0.01469 0.03234,0.01469 0.01851,0 0.03851,-0.01076 0.05989,-0.03139 l -0.009,-0.01603 c -0.01148,0.0083 -0.02173,0.01268 -0.03114,0.01268 -0.01148,0 -0.01737,-0.0086 -0.01737,-0.02604 0,-0.01636 0.0022,-0.03556 0.0066,-0.05744 l 0.01257,-0.06411 c 0.0059,-0.02846 0.009,-0.04854 0.009,-0.06011 0,-0.04037 -0.01778,-0.06078 -0.0527,-0.06078 z m 1.109646,0 c -0.03301,0 -0.06275,0.02438 -0.08923,0.07347 h -0.0048 l 0.01317,-0.06879 h -0.09103 l -0.0042,0.02271 h 0.0036 c 0.0228,0 0.03474,0.0088 0.03474,0.02605 0,0.0062 -9.99e-4,0.01457 -0.003,0.02471 l -0.04133,0.219727 h 0.04552 l 0.02636,-0.140251 c 0.0054,-0.02721 0.01755,-0.0541 0.03652,-0.08148 0.01913,-0.02739 0.03812,-0.04141 0.05629,-0.04141 0.01498,0 0.02216,0.0112 0.02216,0.03272 0,0.01192 -0.0024,0.02871 -0.0071,0.05076 l -0.01078,0.05676 c -0.0062,0.03254 -0.0096,0.05675 -0.0096,0.07346 0,0.01672 0.004,0.03028 0.01197,0.04008 0.0082,0.0098 0.01878,0.01469 0.03234,0.01469 0.0185,0 0.03852,-0.01076 0.05989,-0.03139 l -0.009,-0.01603 c -0.01148,0.0083 -0.02174,0.01268 -0.03114,0.01268 -0.01148,0 -0.01737,-0.0086 -0.01737,-0.02604 0,-0.01636 0.0022,-0.03556 0.0066,-0.05744 l 0.01257,-0.06411 c 0.0059,-0.02846 0.009,-0.04854 0.009,-0.06011 0,-0.04037 -0.01717,-0.06078 -0.05209,-0.06078 z m 0.622789,0 c -0.03301,0 -0.06274,0.02438 -0.08923,0.07347 h -0.0048 l 0.01317,-0.06879 h -0.09103 l -0.0042,0.02271 h 0.0042 c 0.0228,0 0.03413,0.0088 0.03413,0.02605 0,0.0062 -0.001,0.01457 -0.003,0.02471 l -0.04133,0.219727 h 0.04551 l 0.02636,-0.140251 c 0.0054,-0.02721 0.01814,-0.0541 0.03713,-0.08148 0.01914,-0.02739 0.03751,-0.04141 0.05569,-0.04141 0.01498,0 0.02276,0.0112 0.02276,0.03272 0,0.01192 -0.0024,0.02871 -0.0071,0.05076 l -0.01138,0.05676 c -0.0062,0.03254 -0.0096,0.05675 -0.0096,0.07346 0,0.01672 0.004,0.03028 0.01197,0.04008 0.0082,0.0098 0.01938,0.01469 0.03293,0.01469 0.01849,0 0.03792,-0.01076 0.05928,-0.03139 l -0.0084,-0.01603 c -0.01148,0.0083 -0.02233,0.01268 -0.03173,0.01268 -0.01148,0 -0.01676,-0.0086 -0.01676,-0.02604 0,-0.01636 0.0017,-0.03556 0.006,-0.05744 l 0.01257,-0.06478 c 0.0059,-0.02845 0.009,-0.04788 0.009,-0.05944 0,-0.04037 -0.01717,-0.06078 -0.0521,-0.06078 z m -0.317981,0.0046 -0.0042,0.02271 h 0.0066 c 0.01993,0 0.02995,0.0081 0.02995,0.02338 0,0.0038 -6.95e-4,0.0082 -0.0019,0.01402 l -0.01916,0.100848 c -0.0073,0.0409 -0.01078,0.06912 -0.01078,0.08548 0,0.01494 0.0039,0.02762 0.01137,0.03741 0.0075,0.0098 0.01723,0.01469 0.02934,0.01469 0.02153,0 0.04384,-0.01103 0.06646,-0.03273 l -0.009,-0.01603 c -0.01403,0.0094 -0.02593,0.01402 -0.03532,0.01402 -0.01084,0 -0.01618,-0.0089 -0.01618,-0.02738 0,-0.01422 0.0022,-0.03463 0.0071,-0.06078 l 0.03353,-0.175649 z m -0.622193,0.01938 c 0.01723,0 0.02903,0.0062 0.03653,0.01937 l -0.01796,0.09685 c -0.0057,0.03183 -0.01748,0.0613 -0.03533,0.08816 -0.01787,0.02686 -0.03524,0.04008 -0.0515,0.04008 -0.02057,0 -0.03053,-0.02064 -0.03053,-0.06278 0,-0.0418 0.0094,-0.08274 0.02814,-0.122219 0.01898,-0.03966 0.04276,-0.05944 0.07066,-0.05944 z m 1.189292,6.45e-4 c 0.02249,0 0.03353,0.01486 0.03353,0.04475 0,0.02455 -0.0059,0.04731 -0.01737,0.06812 -0.01132,0.02064 -0.02625,0.03072 -0.04491,0.03072 -0.02264,0 -0.03413,-0.01486 -0.03413,-0.04475 0,-0.02418 0.0056,-0.04664 0.01676,-0.06746 0.01132,-0.02099 0.02696,-0.03139 0.04612,-0.03139 z m -0.07245,0.266479 0.0473,0.0046 c 0.03046,0.003 0.04611,0.0169 0.04611,0.04073 0,0.0201 -0.0076,0.03568 -0.02276,0.0474 -0.01498,0.01192 -0.03717,0.01803 -0.06586,0.01803 -0.04609,0 -0.06887,-0.01576 -0.06887,-0.04741 0,-0.01476 0.0042,-0.02726 0.01257,-0.0374 0.0085,-0.01014 0.0183,-0.01696 0.02994,-0.0207 0.01179,-0.0038 0.01917,-0.0056 0.02156,-0.0054 z m -0.575482,0.274493 c -0.0089,0 -0.01613,0.0036 -0.02156,0.01068 -0.0053,0.0069 -0.0078,0.01649 -0.0078,0.02805 0,0.01992 0.0092,0.02938 0.02755,0.02938 0.0086,0 0.01554,-0.003 0.02096,-0.0093 0.0056,-0.0066 0.0084,-0.01626 0.0084,-0.02871 0,-0.0201 -0.0092,-0.03005 -0.02755,-0.03005 z m -1.19947,6.46e-4 -0.0048,0.02338 h 0.006 c 0.02297,0 0.03474,0.0083 0.03474,0.02538 0,0.0056 -0.0016,0.01386 -0.0036,0.02471 l -0.03953,0.20971 c -0.0071,0.04002 -0.01078,0.06823 -0.01078,0.08548 0,0.01529 0.0032,0.02779 0.01078,0.03741 0.0076,0.0096 0.01755,0.01469 0.02934,0.01469 0.02153,0 0.04383,-0.01103 0.06646,-0.03273 l -0.009,-0.01603 c -0.01403,0.0094 -0.02593,0.01402 -0.03532,0.01402 -0.01084,0 -0.01618,-0.0089 -0.01618,-0.02737 0,-0.0144 0.0028,-0.0348 0.0078,-0.06078 l 0.05629,-0.297869 z m 1.800702,0 -0.0042,0.02338 h 0.0054 c 0.02296,0 0.03474,0.0083 0.03474,0.02538 0,0.0056 -9.27e-4,0.01386 -0.003,0.02471 l -0.04011,0.20971 c -0.0071,0.04002 -0.01078,0.06823 -0.01078,0.08548 0,0.01529 0.0039,0.02779 0.01137,0.03741 0.0076,0.0096 0.01755,0.01469 0.02934,0.01469 0.02153,0 0.04324,-0.01103 0.06586,-0.03273 l -0.009,-0.01603 c -0.01403,0.0094 -0.02533,0.01402 -0.03474,0.01402 -0.01084,0 -0.01618,-0.0089 -0.01618,-0.02737 0,-0.0144 0.0022,-0.0348 0.0071,-0.06078 l 0.05689,-0.297869 z m -2.215698,0.01937 c -0.05741,0 -0.105728,0.02563 -0.144319,0.07614 -0.03859,0.05033 -0.05749,0.109982 -0.05749,0.178988 0,0.0466 0.01156,0.08276 0.03532,0.108195 0.02393,0.02543 0.05743,0.03807 0.100007,0.03807 0.03189,0 0.05668,-0.0071 0.07485,-0.02071 0.01818,-0.0137 0.02755,-0.02932 0.02755,-0.04675 0,-0.0087 -0.0022,-0.01463 -0.0066,-0.01803 -0.02265,0.03309 -0.05322,0.05008 -0.09103,0.05008 -0.05805,0 -0.08683,-0.03407 -0.08683,-0.102184 0,-0.05815 0.0136,-0.112048 0.04072,-0.160957 0.02727,-0.04909 0.06086,-0.07346 0.101202,-0.07346 0.03253,0 0.0491,0.02468 0.0491,0.07414 0.01451,0 0.02596,-0.0037 0.03474,-0.01136 0.0088,-0.0077 0.01317,-0.0184 0.01317,-0.03138 0,-0.01868 -0.0081,-0.03324 -0.02396,-0.04409 -0.01595,-0.01103 -0.03794,-0.01669 -0.06647,-0.01669 z m 1.211448,0.006 -0.0042,0.02271 h 0.006 c 0.0236,0 0.03533,0.0075 0.03533,0.02204 0,0.0034 -5.25e-4,0.0086 -0.0019,0.01536 l -0.0509,0.267814 c -0.0049,0.02614 -0.0208,0.03874 -0.0479,0.03874 h -0.0066 l -0.0042,0.02338 H 55.467 c 0.05948,0 0.106962,-0.02327 0.142522,-0.06879 0.03555,-0.0457 0.0533,-0.103261 0.0533,-0.172977 0,-0.04766 -0.01186,-0.08392 -0.03593,-0.10953 -0.02409,-0.0258 -0.05852,-0.03874 -0.103001,-0.03874 z m 0.09103,0.0267 h 0.03893 c 0.06204,0 0.09282,0.03871 0.09282,0.11554 0,0.06581 -0.01373,0.119251 -0.04133,0.15962 -0.02743,0.04037 -0.06478,0.06012 -0.111984,0.06012 h -0.04252 z m -1.055749,0.06478 c -0.04354,0 -0.07905,0.01965 -0.105993,0.05878 -0.02678,0.03895 -0.04012,0.08314 -0.04012,0.132238 0,0.0354 0.0086,0.0629 0.02516,0.08281 0.01658,0.01992 0.03937,0.03005 0.06887,0.03005 0.04337,0 0.07876,-0.01965 0.105395,-0.05877 0.02663,-0.03931 0.03953,-0.08368 0.03953,-0.132239 0,-0.03664 -0.0081,-0.06409 -0.02455,-0.08349 -0.01658,-0.01938 -0.0394,-0.02938 -0.06826,-0.02938 z m 0.429966,0 c -0.04354,0 -0.07845,0.01965 -0.105395,0.05878 -0.02679,0.03895 -0.04013,0.08314 -0.04013,0.132238 0,0.0354 0.0081,0.0629 0.02456,0.08281 0.01658,0.01992 0.03996,0.03005 0.06946,0.03005 0.04337,0 0.07817,-0.01965 0.104797,-0.05877 0.02664,-0.03931 0.04011,-0.08368 0.04011,-0.132239 0,-0.03664 -0.0086,-0.06409 -0.02515,-0.08349 -0.01658,-0.01938 -0.0394,-0.02938 -0.06826,-0.02938 z m 0.306005,0 c -0.01691,0 -0.03156,0.0057 -0.04431,0.01737 -0.01275,0.01173 -0.02584,0.03424 -0.03893,0.06679 h -0.0048 l 0.01017,-0.07881 h -0.08623 l -0.0048,0.02271 h 0.0042 c 0.026,0 0.03893,0.0088 0.03893,0.02605 0,0.0062 -9.99e-4,0.01458 -0.003,0.0247 l -0.04133,0.219729 h 0.04611 l 0.01796,-0.09951 c 0.0082,-0.04197 0.02082,-0.07961 0.03773,-0.11287 0.01707,-0.03326 0.03336,-0.05008 0.04851,-0.05008 0.01307,0 0.01975,0.0146 0.01975,0.04341 0.0271,0 0.04073,-0.01433 0.04073,-0.04208 0,-0.02507 -0.01394,-0.0374 -0.04073,-0.0374 z m 1.095873,0 c -0.03619,0 -0.06622,0.02604 -0.08982,0.07814 h -0.0024 l 0.01197,-0.07279 h -0.08683 l -0.0042,0.02271 h 0.0036 c 0.0228,0 0.03413,0.0088 0.03413,0.02605 0,0.004 -0.0014,0.01342 -0.0042,0.02872 l -0.06527,0.346623 h 0.09223 l 0.0042,-0.02271 h -0.0066 c -0.0228,0 -0.03413,-0.0085 -0.03413,-0.02539 0,-0.0051 0.0018,-0.0156 0.0048,-0.03072 l 0.0066,-0.03339 c 0.0013,-0.0059 0.0028,-0.01431 0.0042,-0.02604 0.01322,0.0083 0.02924,0.01268 0.04791,0.01268 0.04275,0 0.07753,-0.02237 0.104797,-0.06611 0.02743,-0.04393 0.04133,-0.09001 0.04133,-0.138916 0,-0.03201 -0.0053,-0.05658 -0.01616,-0.07347 -0.01067,-0.01689 -0.02618,-0.02539 -0.04611,-0.02539 z m 0.399424,0 c -0.04131,0 -0.07614,0.02126 -0.104198,0.06411 -0.02791,0.04287 -0.04193,0.08943 -0.04193,0.139584 0,0.03148 0.0058,0.05652 0.01676,0.07414 0.01116,0.01743 0.02678,0.02605 0.04671,0.02605 0.03764,0 0.06818,-0.02964 0.09162,-0.08816 h 0.003 c -0.0034,0.01672 -0.0054,0.03119 -0.0054,0.04274 0,0.03023 0.01281,0.04542 0.03833,0.04542 0.02265,0 0.04602,-0.01103 0.06946,-0.03273 l -0.009,-0.01603 c -0.01435,0.0094 -0.02607,0.01402 -0.03532,0.01402 -0.01068,0 -0.01618,-0.0089 -0.01618,-0.02737 0,-0.01529 0.0024,-0.03569 0.0071,-0.06078 l 0.03353,-0.174981 h -0.01557 l -0.02156,0.01402 c -0.0161,-0.01315 -0.03532,-0.02003 -0.05749,-0.02003 z m -0.688664,6.45e-4 c -0.02807,0 -0.05072,0.0074 -0.06826,0.02271 -0.01738,0.01512 -0.02635,0.03494 -0.02635,0.05877 0,0.01743 0.004,0.03274 0.01197,0.04607 0.0082,0.01315 0.02447,0.02562 0.04791,0.03807 0.01802,0.0092 0.03023,0.01899 0.03773,0.02805 0.0075,0.0089 0.01137,0.01975 0.01137,0.03272 0,0.03379 -0.01746,0.05076 -0.0527,0.05076 -0.0177,0 -0.03143,-0.0063 -0.04133,-0.0187 -0.0097,-0.01263 -0.01496,-0.03017 -0.01496,-0.05276 -0.0089,0 -0.01626,0.0024 -0.02216,0.0087 -0.0057,0.0061 -0.0084,0.01497 -0.0084,0.02671 0,0.01886 0.007,0.03421 0.02155,0.04541 0.01467,0.01103 0.03456,0.01669 0.05928,0.01669 0.03061,0 0.05516,-0.0082 0.07366,-0.02471 0.0185,-0.01654 0.02755,-0.03859 0.02755,-0.06545 0,-0.03699 -0.01946,-0.06525 -0.05869,-0.08481 -0.01707,-0.0083 -0.0296,-0.01685 -0.03773,-0.02539 -0.0082,-0.0085 -0.01197,-0.01863 -0.01197,-0.03072 0,-0.01369 0.0042,-0.02534 0.01257,-0.03406 0.0086,-0.0089 0.02007,-0.01335 0.03474,-0.01335 0.01387,0 0.02469,0.0057 0.03234,0.01669 0.0078,0.01103 0.01197,0.02577 0.01197,0.04409 0.02457,0 0.03653,-0.01147 0.03653,-0.03406 0,-0.01458 -0.0068,-0.02677 -0.02036,-0.03673 -0.01339,-0.01 -0.03221,-0.0147 -0.05629,-0.0147 z m 1.005448,0 c -0.0086,0 -0.01578,0.0034 -0.02216,0.01068 -0.0064,0.0072 -0.0096,0.01711 -0.0096,0.02938 0.01609,0 0.02396,0.01032 0.02396,0.03005 0,0.04605 -0.0217,0.106117 -0.06586,0.18099 h -0.0019 c -0.0019,-0.02027 -0.0086,-0.05314 -0.02036,-0.09884 l -0.03833,-0.147588 h -0.07127 l -0.0042,0.02271 h 0.0054 c 0.0097,0 0.01661,0.0022 0.02155,0.0067 0.005,0.0043 0.0091,0.01204 0.01197,0.02271 l 0.06467,0.241768 c -0.04497,0.06634 -0.09101,0.09951 -0.137731,0.09951 -0.01403,0 -0.02683,-0.0026 -0.03832,-0.0067 l -0.0071,0.02738 c 0.01356,0.0066 0.02889,0.01001 0.04611,0.01001 0.04337,0 0.07833,-0.01258 0.104795,-0.03874 0.02663,-0.02614 0.06198,-0.07946 0.105995,-0.158953 0.04402,-0.07967 0.06586,-0.14107 0.06586,-0.184999 0,-0.0306 -0.01136,-0.04607 -0.03353,-0.04607 z m -1.256958,0.0046 -0.0048,0.02271 0.0066,6.45e-4 c 0.01993,0 0.02994,0.0074 0.02994,0.02271 0,0.0038 -6.94e-4,0.0082 -0.0019,0.01402 l -0.01856,0.100848 c -0.0073,0.04091 -0.01137,0.06912 -0.01137,0.08548 0,0.01494 0.0039,0.02762 0.01137,0.0374 0.0075,0.0098 0.01723,0.0147 0.02934,0.0147 0.02153,0 0.04384,-0.01103 0.06646,-0.03273 l -0.009,-0.01603 c -0.01403,0.0094 -0.02593,0.01402 -0.03532,0.01402 -0.01084,0 -0.01616,-0.0089 -0.01616,-0.02737 0,-0.01422 0.0028,-0.03463 0.0078,-0.06079 l 0.03293,-0.175649 z m 0.942569,0.01938 c 0.01722,0 0.02962,0.0062 0.03713,0.01937 l -0.01796,0.09685 c -0.0057,0.03184 -0.01747,0.06131 -0.03532,0.08816 -0.01786,0.02685 -0.03523,0.04008 -0.0515,0.04008 -0.02057,0 -0.03053,-0.02064 -0.03053,-0.06278 0,-0.0418 0.0094,-0.08274 0.02813,-0.122219 0.01898,-0.03966 0.04217,-0.05944 0.07006,-0.05944 z m -2.239652,0.004 c 0.03189,0 0.04791,0.02545 0.04791,0.07614 0,0.04339 -0.0078,0.08312 -0.02396,0.118881 -0.01595,0.03557 -0.03773,0.05343 -0.06467,0.05343 -0.03237,0 -0.04851,-0.02532 -0.04851,-0.07547 0,-0.04375 0.0082,-0.08313 0.02456,-0.11888 0.01643,-0.03575 0.03804,-0.05409 0.06467,-0.05409 z m 0.430565,0 c 0.03189,0 0.04791,0.02545 0.04791,0.07614 0,0.04339 -0.0084,0.08312 -0.02456,0.118881 -0.01595,0.03557 -0.03712,0.05343 -0.06407,0.05343 -0.03237,0 -0.04851,-0.02532 -0.04851,-0.07547 0,-0.04375 0.0082,-0.08313 0.02455,-0.11888 0.01643,-0.03575 0.03804,-0.05409 0.06467,-0.05409 z m 1.388703,0.006 c 0.02057,0 0.03114,0.02095 0.03114,0.06344 0,0.04109 -0.0098,0.08171 -0.02874,0.121552 -0.01881,0.03966 -0.0416,0.05944 -0.06887,0.05944 -0.01531,0 -0.0284,-0.0064 -0.03893,-0.01937 l 0.01976,-0.104187 c 0.0056,-0.02828 0.0175,-0.05533 0.03474,-0.08148 0.01723,-0.02632 0.034,-0.0394 0.0509,-0.0394 z"
         inkscape:label="ECD" /><rect
         style="display:inline;opacity:1;mix-blend-mode:normal;fill:#880000;fill-opacity:1;stroke:none;stroke-width:0.708094;stroke-miterlimit:3.6;stroke-opacity:0.5;paint-order:fill markers stroke"
         id="rect45"
         width="1.5339525"
         height="1.50086"
         x="53.170597"
         y="13.110824"
         rx="1.3610082e-17"
         ry="1.9708804e-17"
         inkscape:label="Red" /><rect
         style="display:inline;opacity:1;mix-blend-mode:normal;fill:#006611;fill-opacity:1;stroke:none;stroke-width:0.708094;stroke-miterlimit:3.6;stroke-opacity:0.5;paint-order:fill markers stroke"
         id="rect45-6"
         width="1.5339525"
         height="1.50086"
         x="54.704548"
         y="13.110825"
         rx="1.3610082e-17"
         ry="1.9708806e-17"
         inkscape:label="Green" /><rect
         style="display:inline;opacity:1;mix-blend-mode:normal;fill:#003399;fill-opacity:1;stroke:none;stroke-width:0.708094;stroke-miterlimit:3.6;stroke-opacity:0.5;paint-order:fill markers stroke"
         id="rect45-9"
         width="1.5339525"
         height="1.50086"
         x="56.238499"
         y="13.110825"
         rx="1.3610082e-17"
         ry="1.9708806e-17"
         inkscape:label="Blue" /></g><rect
       style="display:inline;fill:url(#radialGradient70);stroke:none;stroke-width:0.167255;stroke-miterlimit:3.6;stroke-opacity:0.5;paint-order:fill markers stroke"
       id="rect68"
       width="0.66901803"
       height="0.5017634"
       x="15.730174"
       y="-10.816786"
       rx="4.6422451e-18"
       ry="4.6422451e-18"
       transform="rotate(45.000002)"
       inkscape:label="Led Shadow"
       sodipodi:insensitive="true" /><circle
       style="display:inline;opacity:1;mix-blend-mode:normal;fill:url(#radialGradient67);fill-opacity:1;stroke:none;stroke-width:0.334511;stroke-linecap:round;stroke-linejoin:miter;stroke-dasharray:none;stroke-opacity:0.75;paint-order:stroke markers fill"
       id="path65"
       inkscape:label="Led Emission"
       cx="18.594139"
       cy="3.6516879"
       r="0.8362723"
       sodipodi:insensitive="true" /><ellipse
       style="display:inline;opacity:1;mix-blend-mode:normal;fill:url(#radialGradient56);fill-opacity:1;stroke:none;stroke-width:0.334511;stroke-linecap:round;stroke-linejoin:miter;stroke-dasharray:none;stroke-opacity:0.75;paint-order:stroke markers fill"
       id="path54"
       inkscape:label="LED"
       cx="18.594139"
       cy="3.6516879"
       rx="0.2508817"
       ry="0.25088173"
       sodipodi:insensitive="true" /><g
       inkscape:groupmode="layer"
       id="g86"
       inkscape:label="Knob"
       style="display:inline"
       transform="matrix(0.41666897,0,0,0.4258561,-3.76249,-0.96140898)"
       sodipodi:insensitive="true"><path
         id="path85"
         style="display:inline;fill:url(#radialGradient86);stroke-width:0.264583;stroke-miterlimit:3.6;paint-order:stroke fill markers"
         d="m 56.345708,24.34442 -1.543481,1.543482 0.140316,-0.140317 -1.80987,-1.621927 1.684046,-1.684047 z"
         sodipodi:nodetypes="cccccc"
         inkscape:label="Shadow" /><circle
         style="display:inline;fill:url(#radialGradient87);fill-opacity:1;stroke:url(#linearGradient87);stroke-width:0.264583;stroke-miterlimit:3.6;stroke-dasharray:none;stroke-opacity:1;paint-order:stroke fill markers"
         id="circle85"
         inkscape:label="Knob Edge"
         cx="53.974998"
         cy="23.283331"
         r="1.190625" /><circle
         style="display:inline;fill:#847c6a;fill-opacity:1;stroke:url(#linearGradient88);stroke-width:0.264583;stroke-miterlimit:3.6;stroke-dasharray:none;paint-order:stroke markers fill"
         id="circle86"
         inkscape:label="Knob Top"
         cx="54.239582"
         cy="23.547915"
         r="0.92604166" /></g><use
       x="0"
       y="0"
       xlink:href="#g86"
       id="use2"
       transform="translate(0.03543215,-1.6754738)"
       inkscape:label="Knob"
       sodipodi:insensitive="true" /><use
       x="0"
       y="0"
       xlink:href="#use2"
       id="use3"
       transform="translate(0,-1.6725445)"
       inkscape:label="Knob"
       sodipodi:insensitive="true" /></g><metadata
     id="metadata23"><rdf:RDF><cc:Work
         rdf:about=""><cc:license
           rdf:resource="http://creativecommons.org/publicdomain/zero/1.0/" /></cc:Work><cc:License
         rdf:about="http://creativecommons.org/publicdomain/zero/1.0/"><cc:permits
           rdf:resource="http://creativecommons.org/ns#Reproduction" /><cc:permits
           rdf:resource="http://creativecommons.org/ns#Distribution" /><cc:permits
           rdf:resource="http://creativecommons.org/ns#DerivativeWorks" /></cc:License></rdf:RDF></metadata></svg>
