<?xml version="1.0" encoding="UTF-8" standalone="no"?>
<!-- Created with Inkscape (http://www.inkscape.org/) -->

<svg
   width="256"
   height="256"
   viewBox="0 0 67.73333 67.733334"
   version="1.1"
   id="svg1"
   xml:space="preserve"
   inkscape:version="1.3.2 (091e20ef0f, 2023-11-25, custom)"
   sodipodi:docname="app-256.svg"
   inkscape:export-filename="pc-256.png"
   inkscape:export-xdpi="96"
   inkscape:export-ydpi="96"
   xmlns:inkscape="http://www.inkscape.org/namespaces/inkscape"
   xmlns:sodipodi="http://sodipodi.sourceforge.net/DTD/sodipodi-0.dtd"
   xmlns:xlink="http://www.w3.org/1999/xlink"
   xmlns="http://www.w3.org/2000/svg"
   xmlns:svg="http://www.w3.org/2000/svg"
   xmlns:rdf="http://www.w3.org/1999/02/22-rdf-syntax-ns#"
   xmlns:cc="http://creativecommons.org/ns#"><sodipodi:namedview
     id="namedview1"
     pagecolor="#505050"
     bordercolor="#eeeeee"
     borderopacity="1"
     inkscape:showpageshadow="0"
     inkscape:pageopacity="0"
     inkscape:pagecheckerboard="true"
     inkscape:deskcolor="#505050"
     inkscape:document-units="px"
     showguides="true"
     showgrid="true"
     inkscape:zoom="3.0976562"
     inkscape:cx="128"
     inkscape:cy="128"
     inkscape:window-width="1452"
     inkscape:window-height="988"
     inkscape:window-x="0"
     inkscape:window-y="0"
     inkscape:window-maximized="0"
     inkscape:current-layer="layer2"><sodipodi:guide
       position="2.6458333,65.087499"
       orientation="-1,0"
       id="guide1"
       inkscape:locked="false"
       inkscape:label=""
       inkscape:color="rgb(87,227,137)" /><sodipodi:guide
       position="65.087499,65.087499"
       orientation="0,1"
       id="guide2"
       inkscape:locked="false"
       inkscape:label=""
       inkscape:color="rgb(87,227,137)" /><sodipodi:guide
       position="2.6458333,2.6458333"
       orientation="0,1"
       id="guide3"
       inkscape:locked="false"
       inkscape:label=""
       inkscape:color="rgb(87,227,137)" /><sodipodi:guide
       position="65.087499,2.6458333"
       orientation="-1,0"
       id="guide4"
       inkscape:locked="false"
       inkscape:label=""
       inkscape:color="rgb(87,227,137)" /><inkscape:grid
       id="grid10"
       units="px"
       originx="0"
       originy="0"
       spacingx="0.13229166"
       spacingy="0.13229166"
       empcolor="#0099e5"
       empopacity="0.30196078"
       color="#0099e5"
       opacity="0.14901961"
       empspacing="2"
       dotted="false"
       gridanglex="30"
       gridanglez="30"
       visible="true" /><sodipodi:guide
       position="3.1871049,21.683731"
       orientation="0.70710678,-0.70710678"
       id="guide5"
       inkscape:locked="false"
       inkscape:label=""
       inkscape:color="rgb(248,228,92)" /><sodipodi:guide
       position="64.546228,21.683731"
       orientation="-0.70710678,-0.70710678"
       id="guide6"
       inkscape:locked="false"
       inkscape:label=""
       inkscape:color="rgb(248,228,92)" /><sodipodi:guide
       position="7.9374998,67.733332"
       orientation="-1,0"
       id="guide7"
       inkscape:locked="false"
       inkscape:label=""
       inkscape:color="rgb(192,97,203)" /><sodipodi:guide
       position="59.795832,67.733332"
       orientation="-1,0"
       id="guide8"
       inkscape:locked="false"
       inkscape:label=""
       inkscape:color="rgb(192,97,203)" /></sodipodi:namedview><defs
     id="defs1"><linearGradient
       id="linearGradient67"
       inkscape:collect="always"><stop
         style="stop-color:#ffffff;stop-opacity:0.2;"
         offset="0"
         id="stop75" /><stop
         style="stop-color:#ffffff;stop-opacity:0;"
         offset="1"
         id="stop78" /></linearGradient><linearGradient
       id="linearGradient36"
       inkscape:collect="always"><stop
         style="stop-color:#74706d;stop-opacity:1;"
         offset="0"
         id="stop38" /><stop
         style="stop-color:#7e7a77;stop-opacity:1;"
         offset="1"
         id="stop42" /></linearGradient><linearGradient
       id="linearGradient31"
       inkscape:collect="always"><stop
         style="stop-color:#808080;stop-opacity:1;"
         offset="0"
         id="stop26" /><stop
         style="stop-color:#000000;stop-opacity:1;"
         offset="1"
         id="stop31" /></linearGradient><marker
       style="overflow:visible"
       id="RoundedArrow"
       refX="0"
       refY="0"
       orient="auto-start-reverse"
       inkscape:stockid="Rounded arrow"
       markerWidth="0.5"
       markerHeight="0.5"
       viewBox="0 0 1 1"
       inkscape:isstock="true"
       inkscape:collect="always"
       preserveAspectRatio="xMidYMid"><path
         transform="scale(0.7)"
         d="m -0.21114562,-4.1055728 6.42229122,3.21114561 a 1,1 90 0 1 0,1.78885438 L -0.21114562,4.1055728 A 1.236068,1.236068 31.717474 0 1 -2,3 v -6 a 1.236068,1.236068 148.28253 0 1 1.78885438,-1.1055728 z"
         style="fill:context-stroke;fill-rule:evenodd;stroke:none"
         id="path8" /></marker><linearGradient
       id="linearGradient90"
       inkscape:collect="always"><stop
         style="stop-color:#000000;stop-opacity:1;"
         offset="0.24915825"
         id="stop90" /><stop
         style="stop-color:#000000;stop-opacity:0;"
         offset="1"
         id="stop91" /></linearGradient><linearGradient
       id="linearGradient80"
       inkscape:collect="always"><stop
         style="stop-color:#000000;stop-opacity:0.5;"
         offset="0"
         id="stop80" /><stop
         style="stop-color:#000000;stop-opacity:0;"
         offset="1"
         id="stop81" /></linearGradient><linearGradient
       id="linearGradient76"
       inkscape:collect="always"><stop
         style="stop-color:#bab28d;stop-opacity:1;"
         offset="0"
         id="stop76" /><stop
         style="stop-color:#b8b389;stop-opacity:0;"
         offset="0.4983165"
         id="stop77" /></linearGradient><linearGradient
       id="linearGradient73"
       inkscape:collect="always"><stop
         style="stop-color:#d6cbae;stop-opacity:1;"
         offset="0"
         id="stop73" /><stop
         style="stop-color:#9d9786;stop-opacity:1;"
         offset="1"
         id="stop74" /></linearGradient><linearGradient
       id="linearGradient71"
       inkscape:collect="always"><stop
         style="stop-color:#9d9786;stop-opacity:1;"
         offset="0"
         id="stop71" /><stop
         style="stop-color:#77705f;stop-opacity:1;"
         offset="1"
         id="stop72" /></linearGradient><linearGradient
       id="linearGradient68"
       inkscape:collect="always"><stop
         style="stop-color:#000000;stop-opacity:0.5;"
         offset="0"
         id="stop69" /><stop
         style="stop-color:#000000;stop-opacity:0;"
         offset="1"
         id="stop70" /></linearGradient><linearGradient
       id="linearGradient66"
       inkscape:collect="always"><stop
         style="stop-color:#00ff00;stop-opacity:0.2;"
         offset="0.30000001"
         id="stop68" /><stop
         style="stop-color:#00ff00;stop-opacity:0;"
         offset="1"
         id="stop67" /></linearGradient><linearGradient
       id="linearGradient63"
       inkscape:collect="always"><stop
         style="stop-color:#ffffbb;stop-opacity:1;"
         offset="0"
         id="stop56" /><stop
         style="stop-color:#aaff00;stop-opacity:1;"
         offset="0.49806201"
         id="stop62" /><stop
         style="stop-color:#00ff00;stop-opacity:1;"
         offset="1"
         id="stop63" /></linearGradient><linearGradient
       id="linearGradient38"
       inkscape:collect="always"><stop
         style="stop-color:#696663;stop-opacity:0;"
         offset="0"
         id="stop41" /><stop
         style="stop-color:#696663;stop-opacity:1;"
         offset="0.75"
         id="stop40" /><stop
         style="stop-color:#ceccca;stop-opacity:0;"
         offset="1"
         id="stop39" /></linearGradient><linearGradient
       id="linearGradient37"
       inkscape:collect="always"><stop
         style="stop-color:#413f3f;stop-opacity:1;"
         offset="0"
         id="stop35" /><stop
         style="stop-color:#726c69;stop-opacity:1;"
         offset="0.5"
         id="stop36" /><stop
         style="stop-color:#a7a5a4;stop-opacity:1;"
         offset="1"
         id="stop37" /></linearGradient><linearGradient
       id="linearGradient14"
       inkscape:collect="always"><stop
         style="stop-color:#5b5958;stop-opacity:1;"
         offset="0"
         id="stop19" /><stop
         style="stop-color:#847e7b;stop-opacity:1;"
         offset="0.5"
         id="stop25" /><stop
         style="stop-color:#c0bfbe;stop-opacity:1;"
         offset="1"
         id="stop24" /></linearGradient><linearGradient
       id="linearGradient27"
       inkscape:collect="always"><stop
         style="stop-color:#ffffff;stop-opacity:0.25;"
         offset="0"
         id="stop27" /><stop
         style="stop-color:#ffffff;stop-opacity:0;"
         offset="0.03"
         id="stop29" /><stop
         style="stop-color:#000000;stop-opacity:0;"
         offset="0.97000003"
         id="stop30" /><stop
         style="stop-color:#000000;stop-opacity:0.25;"
         offset="1"
         id="stop28" /></linearGradient><linearGradient
       id="linearGradient20"
       inkscape:collect="always"><stop
         style="stop-color:#d5d2d4;stop-opacity:1;"
         offset="0"
         id="stop20" /><stop
         style="stop-color:#abaaab;stop-opacity:1;"
         offset="0.07"
         id="stop22" /><stop
         style="stop-color:#a2a2a2;stop-opacity:1;"
         offset="0.93000001"
         id="stop23" /><stop
         style="stop-color:#686868;stop-opacity:1;"
         offset="1"
         id="stop21" /></linearGradient><linearGradient
       id="linearGradient17"
       inkscape:collect="always"><stop
         style="stop-color:#000000;stop-opacity:0.75;"
         offset="0"
         id="stop17" /><stop
         style="stop-color:#000000;stop-opacity:0;"
         offset="1"
         id="stop18" /></linearGradient><linearGradient
       id="linearGradient59"
       inkscape:collect="always"><stop
         style="stop-color:#ffffff;stop-opacity:0.15079366;"
         offset="0"
         id="stop60" /><stop
         style="stop-color:#ffffff;stop-opacity:0.30423281;"
         offset="1"
         id="stop61" /></linearGradient><linearGradient
       id="linearGradient57"
       inkscape:collect="always"><stop
         style="stop-color:#ffffff;stop-opacity:1;"
         offset="0"
         id="stop57" /><stop
         style="stop-color:#ff0000;stop-opacity:1;"
         offset="0.49806201"
         id="stop59" /><stop
         style="stop-color:#aa0000;stop-opacity:1;"
         offset="1"
         id="stop58" /></linearGradient><linearGradient
       id="linearGradient53"
       inkscape:collect="always"><stop
         style="stop-color:#808080;stop-opacity:1;"
         offset="0"
         id="stop54" /><stop
         style="stop-color:#000000;stop-opacity:1;"
         offset="1"
         id="stop55" /></linearGradient><linearGradient
       id="linearGradient49"
       inkscape:collect="always"><stop
         style="stop-color:#292929;stop-opacity:1;"
         offset="0"
         id="stop49" /><stop
         style="stop-color:#2b2b2b;stop-opacity:1;"
         offset="0.56395346"
         id="stop52" /><stop
         style="stop-color:#000000;stop-opacity:1;"
         offset="0.64147288"
         id="stop51" /><stop
         style="stop-color:#303030;stop-opacity:1;"
         offset="0.64922482"
         id="stop53" /><stop
         style="stop-color:#333333;stop-opacity:1;"
         offset="1"
         id="stop50" /></linearGradient><linearGradient
       id="linearGradient47"
       inkscape:collect="always"><stop
         style="stop-color:#000000;stop-opacity:0.75;"
         offset="0"
         id="stop47" /><stop
         style="stop-color:#000000;stop-opacity:0;"
         offset="1"
         id="stop48" /></linearGradient><linearGradient
       id="linearGradient43"
       inkscape:collect="always"><stop
         style="stop-color:#000000;stop-opacity:1;"
         offset="0"
         id="stop43" /><stop
         style="stop-color:#000000;stop-opacity:1;"
         offset="0.75"
         id="stop45" /><stop
         style="stop-color:#929297;stop-opacity:1;"
         offset="1"
         id="stop44" /></linearGradient><linearGradient
       id="linearGradient32"
       inkscape:collect="always"><stop
         style="stop-color:#292929;stop-opacity:1;"
         offset="0"
         id="stop32" /><stop
         style="stop-color:#3d3d3d;stop-opacity:1;"
         offset="1"
         id="stop33" /></linearGradient><linearGradient
       id="linearGradient15"
       inkscape:collect="always"><stop
         style="stop-color:#000000;stop-opacity:0.33000001;"
         offset="0"
         id="stop15" /><stop
         style="stop-color:#000000;stop-opacity:0;"
         offset="1"
         id="stop16" /></linearGradient><linearGradient
       id="linearGradient13"
       inkscape:collect="always"><stop
         style="stop-color:#000000;stop-opacity:0.66000003;"
         offset="0"
         id="stop13" /><stop
         style="stop-color:#000000;stop-opacity:0;"
         offset="1"
         id="stop14" /></linearGradient><linearGradient
       id="linearGradient5"
       inkscape:collect="always"><stop
         style="stop-color:#1c1c21;stop-opacity:1;"
         offset="0"
         id="stop10" /><stop
         style="stop-color:#2f2e38;stop-opacity:1;"
         offset="1"
         id="stop11" /></linearGradient><linearGradient
       id="linearGradient3"
       inkscape:collect="always"><stop
         style="stop-color:#bbb7aa;stop-opacity:1;"
         offset="0"
         id="stop3" /><stop
         style="stop-color:#c6c2b9;stop-opacity:1;"
         offset="0.81589144"
         id="stop5" /><stop
         style="stop-color:#d0ccc8;stop-opacity:1;"
         offset="1"
         id="stop4" /></linearGradient><linearGradient
       id="linearGradient8"
       inkscape:collect="always"><stop
         style="stop-color:#c2cada;stop-opacity:1;"
         offset="0"
         id="stop8" /><stop
         style="stop-color:#9ea09f;stop-opacity:1;"
         offset="1"
         id="stop9" /></linearGradient><linearGradient
       id="linearGradient6"
       inkscape:collect="always"><stop
         style="stop-color:#9f9fa2;stop-opacity:1;"
         offset="0"
         id="stop6" /><stop
         style="stop-color:#b5b3b1;stop-opacity:1;"
         offset="1"
         id="stop7" /></linearGradient><linearGradient
       id="linearGradient1"
       inkscape:collect="always"><stop
         style="stop-color:#cfccc3;stop-opacity:1;"
         offset="0"
         id="stop1" /><stop
         style="stop-color:#aba8a5;stop-opacity:1;"
         offset="1"
         id="stop2" /></linearGradient><linearGradient
       inkscape:collect="always"
       xlink:href="#linearGradient1"
       id="linearGradient2"
       x1="2.6458333"
       y1="49.477081"
       x2="2.6458333"
       y2="65.087502"
       gradientUnits="userSpaceOnUse" /><linearGradient
       inkscape:collect="always"
       xlink:href="#linearGradient6"
       id="linearGradient7"
       x1="3.1871049"
       y1="42.597912"
       x2="3.175"
       y2="49.236706"
       gradientUnits="userSpaceOnUse" /><linearGradient
       inkscape:collect="always"
       xlink:href="#linearGradient8"
       id="linearGradient9"
       x1="5.6885419"
       y1="53.313541"
       x2="9.1281242"
       y2="56.753124"
       gradientUnits="userSpaceOnUse" /><linearGradient
       inkscape:collect="always"
       xlink:href="#linearGradient3"
       id="linearGradient4"
       x1="23.018749"
       y1="51.329163"
       x2="23.018749"
       y2="63.235413"
       gradientUnits="userSpaceOnUse" /><linearGradient
       inkscape:collect="always"
       xlink:href="#linearGradient5"
       id="linearGradient11"
       x1="23.018749"
       y1="51.329163"
       x2="23.018749"
       y2="61.383327"
       gradientUnits="userSpaceOnUse" /><radialGradient
       inkscape:collect="always"
       xlink:href="#linearGradient13"
       id="radialGradient14"
       cx="22.489582"
       cy="56.620834"
       fx="22.489582"
       fy="56.620834"
       r="0.661458"
       gradientTransform="matrix(-3.2000033,-5.4991339e-5,3.1616901e-4,-18.000032,94.438418,1070.5072)"
       gradientUnits="userSpaceOnUse" /><radialGradient
       inkscape:collect="always"
       xlink:href="#linearGradient15"
       id="radialGradient16"
       cx="62.177082"
       cy="56.620831"
       fx="62.177082"
       fy="56.620831"
       r="0.661458"
       gradientTransform="matrix(-3.2000012,-2.0789518e-5,1.1729564e-4,-17.999996,261.13718,1070.5052)"
       gradientUnits="userSpaceOnUse" /><linearGradient
       inkscape:collect="always"
       xlink:href="#linearGradient32"
       id="linearGradient33"
       x1="42.597916"
       y1="51.329163"
       x2="42.597916"
       y2="61.383327"
       gradientUnits="userSpaceOnUse" /><linearGradient
       inkscape:collect="always"
       xlink:href="#linearGradient32"
       id="linearGradient34"
       gradientUnits="userSpaceOnUse"
       x1="42.597916"
       y1="51.329163"
       x2="42.597916"
       y2="61.383327" /><linearGradient
       inkscape:collect="always"
       xlink:href="#linearGradient43"
       id="linearGradient44"
       x1="24.077084"
       y1="51.85833"
       x2="24.077084"
       y2="59.002079"
       gradientUnits="userSpaceOnUse"
       gradientTransform="translate(0.26458286,0.52916666)" /><linearGradient
       inkscape:collect="always"
       xlink:href="#linearGradient47"
       id="linearGradient48"
       x1="30.162498"
       y1="57.679161"
       x2="30.691666"
       y2="57.943745"
       gradientUnits="userSpaceOnUse"
       gradientTransform="translate(0.26458286,0.52916666)" /><linearGradient
       inkscape:collect="always"
       xlink:href="#linearGradient49"
       id="linearGradient50"
       x1="30.559374"
       y1="52.519787"
       x2="30.559374"
       y2="56.620831"
       gradientUnits="userSpaceOnUse"
       gradientTransform="matrix(1,0,0,1.0645169,0,-3.3884127)" /><linearGradient
       inkscape:collect="always"
       xlink:href="#linearGradient31"
       id="linearGradient55"
       x1="29.104166"
       y1="55.694786"
       x2="29.104166"
       y2="56.223953"
       gradientUnits="userSpaceOnUse" /><linearGradient
       inkscape:collect="always"
       xlink:href="#linearGradient53"
       id="linearGradient56"
       gradientUnits="userSpaceOnUse"
       x1="29.104166"
       y1="55.694786"
       x2="29.104166"
       y2="56.223953"
       gradientTransform="translate(6.879165)" /><radialGradient
       inkscape:collect="always"
       xlink:href="#linearGradient57"
       id="radialGradient58"
       cx="27.207983"
       cy="57.855556"
       fx="27.207983"
       fy="57.855556"
       r="0.52916664"
       gradientUnits="userSpaceOnUse"
       gradientTransform="matrix(-4.8182615e-6,0.99999891,-0.99999661,-4.958945e-6,85.239868,31.39754)" /><radialGradient
       inkscape:collect="always"
       xlink:href="#linearGradient59"
       id="radialGradient61"
       cx="27.519037"
       cy="58.156162"
       fx="27.519037"
       fy="58.156162"
       r="0.32371858"
       gradientTransform="matrix(-1.2257273,-0.00890233,0.00902954,-1.2432416,60.724748,131.28519)"
       gradientUnits="userSpaceOnUse" /><linearGradient
       inkscape:collect="always"
       xlink:href="#linearGradient17"
       id="linearGradient18"
       x1="23.018749"
       y1="51.329163"
       x2="23.018749"
       y2="52.122913"
       gradientUnits="userSpaceOnUse"
       gradientTransform="matrix(1,0,0,0.66666671,0,17.109718)" /><linearGradient
       inkscape:collect="always"
       xlink:href="#linearGradient20"
       id="linearGradient21"
       x1="7.9375"
       y1="2.645833"
       x2="7.9325824"
       y2="39.555206"
       gradientUnits="userSpaceOnUse" /><linearGradient
       inkscape:collect="always"
       xlink:href="#linearGradient27"
       id="linearGradient28"
       x1="7.9331634"
       y1="21.10052"
       x2="59.801179"
       y2="21.10052"
       gradientUnits="userSpaceOnUse" /><linearGradient
       inkscape:collect="always"
       xlink:href="#linearGradient14"
       id="linearGradient24"
       x1="11.159272"
       y1="33.477814"
       x2="12.746772"
       y2="35.98333"
       gradientUnits="userSpaceOnUse" /><linearGradient
       inkscape:collect="always"
       xlink:href="#linearGradient37"
       id="linearGradient35"
       x1="13.229166"
       y1="6.8791666"
       x2="25.4"
       y2="33.866665"
       gradientUnits="userSpaceOnUse" /><linearGradient
       inkscape:collect="always"
       xlink:href="#linearGradient38"
       id="linearGradient39"
       x1="50.535412"
       y1="20.306769"
       x2="51.064579"
       y2="20.306769"
       gradientUnits="userSpaceOnUse" /><linearGradient
       inkscape:collect="always"
       xlink:href="#linearGradient8"
       id="linearGradient9-9"
       x1="51.990627"
       y1="9.3927069"
       x2="55.165627"
       y2="12.567707"
       gradientUnits="userSpaceOnUse"
       gradientTransform="matrix(1.1999999,0,0,1.1999999,-7.3554103,-2.4870796)" /><radialGradient
       inkscape:collect="always"
       xlink:href="#linearGradient63"
       id="radialGradient56"
       gradientUnits="userSpaceOnUse"
       gradientTransform="matrix(-4.8182615e-6,0.99999891,-0.99999661,-4.958945e-6,111.16903,-6.7024612)"
       cx="27.207983"
       cy="57.855556"
       fx="27.207983"
       fy="57.855556"
       r="0.52916664" /><radialGradient
       inkscape:collect="always"
       xlink:href="#linearGradient66"
       id="radialGradient67"
       cx="53.974998"
       cy="20.637499"
       fx="53.974998"
       fy="20.637499"
       r="0.79374999"
       gradientUnits="userSpaceOnUse"
       gradientTransform="matrix(1.6666692,5.855285e-6,-2.8875158e-6,1.6666672,-36.512578,-13.758661)" /><radialGradient
       inkscape:collect="always"
       xlink:href="#linearGradient68"
       id="radialGradient70"
       cx="52.759003"
       cy="-23.573172"
       fx="52.759003"
       fy="-23.573172"
       r="0.52916664"
       gradientTransform="matrix(1.7677738,1.379956e-5,-8.2769918e-6,1.0606626,-40.881359,1.8034599)"
       gradientUnits="userSpaceOnUse" /><radialGradient
       inkscape:collect="always"
       xlink:href="#linearGradient80"
       id="radialGradient86"
       gradientUnits="userSpaceOnUse"
       gradientTransform="matrix(1.0705119,1.0705069,-0.5764267,0.57642938,9.6496451,-47.952861)"
       cx="53.974998"
       cy="23.342991"
       fx="53.974998"
       fy="23.342991"
       r="1.6065175" /><radialGradient
       inkscape:collect="always"
       xlink:href="#linearGradient73"
       id="radialGradient87"
       gradientUnits="userSpaceOnUse"
       gradientTransform="matrix(-0.50000013,0.59999901,-0.98380161,-0.81983795,103.14464,8.668639)"
       cx="54.548092"
       cy="23.06292"
       fx="54.548092"
       fy="23.06292"
       r="1.3229166" /><linearGradient
       inkscape:collect="always"
       xlink:href="#linearGradient76"
       id="linearGradient87"
       gradientUnits="userSpaceOnUse"
       x1="52.652081"
       y1="21.960415"
       x2="55.297916"
       y2="24.606249" /><linearGradient
       inkscape:collect="always"
       xlink:href="#linearGradient71"
       id="linearGradient88"
       gradientUnits="userSpaceOnUse"
       x1="53.445831"
       y1="22.754166"
       x2="55.033333"
       y2="24.341665" /><radialGradient
       inkscape:collect="always"
       xlink:href="#linearGradient90"
       id="radialGradient91"
       cx="33.350834"
       cy="13.565133"
       fx="33.350834"
       fy="13.565133"
       r="25.791513"
       gradientTransform="matrix(-1.0053372,0,3.8958235e-5,-0.18465375,67.924137,39.546541)"
       gradientUnits="userSpaceOnUse" /><linearGradient
       inkscape:collect="always"
       xlink:href="#linearGradient36"
       id="linearGradient40"
       x1="11.773958"
       y1="6.2177324"
       x2="55.959373"
       y2="35.057312"
       gradientUnits="userSpaceOnUse" /><radialGradient
       inkscape:collect="always"
       xlink:href="#linearGradient67"
       id="radialGradient82"
       cx="19.049999"
       cy="10.064881"
       fx="19.049999"
       fy="10.064881"
       r="17.594791"
       gradientTransform="matrix(1.1729323,-0.45112784,0.18448834,0.47966965,-5.1512134,16.466191)"
       gradientUnits="userSpaceOnUse" /><radialGradient
       inkscape:collect="always"
       xlink:href="#linearGradient19"
       id="radialGradient27"
       cx="0.68138844"
       cy="1.3875808"
       fx="0.68138844"
       fy="1.3875808"
       r="0.8672455"
       gradientTransform="matrix(-1.7433267,-1.7433552,5.2300237,-5.2300247,20.880505,33.353631)"
       gradientUnits="userSpaceOnUse" /><linearGradient
       id="linearGradient19"
       inkscape:collect="always"><stop
         style="stop-color:#ffffff;stop-opacity:1;"
         offset="0.10204082"
         id="stop26-3" /><stop
         style="stop-color:#99ffff;stop-opacity:0.80000001;"
         offset="0.3979592"
         id="stop28-6" /><stop
         style="stop-color:#3376ff;stop-opacity:0.60000002;"
         offset="0.69557822"
         id="stop29-1" /><stop
         style="stop-color:#4500cc;stop-opacity:0.40000001;"
         offset="0.84778911"
         id="stop30-2" /><stop
         style="stop-color:#220066;stop-opacity:0.2;"
         offset="1"
         id="stop27-9" /></linearGradient><linearGradient
       inkscape:collect="always"
       xlink:href="#linearGradient10"
       id="linearGradient13-9"
       x1="4.0058289"
       y1="-0.35110331"
       x2="4.4394522"
       y2="0.42438686"
       gradientUnits="userSpaceOnUse"
       gradientTransform="matrix(3.4866805,0,0,3.4243567,22.054077,21.9435)" /><linearGradient
       id="linearGradient10"
       inkscape:collect="always"><stop
         style="stop-color:#142900;stop-opacity:1;"
         offset="0"
         id="stop12-9" /><stop
         style="stop-color:#366d00;stop-opacity:1;"
         offset="1"
         id="stop13-7" /></linearGradient><linearGradient
       inkscape:collect="always"
       xlink:href="#linearGradient16"
       id="linearGradient18-2"
       x1="0.53684717"
       y1="-2.2247012"
       x2="1.8377155"
       y2="-0.90015715"
       gradientUnits="userSpaceOnUse"
       gradientTransform="matrix(3.4866805,0,0,3.4243567,22.054077,21.9435)" /><linearGradient
       id="linearGradient16"
       inkscape:collect="always"><stop
         style="stop-color:#52a300;stop-opacity:1;"
         offset="0"
         id="stop16-2" /><stop
         style="stop-color:#366d00;stop-opacity:1;"
         offset="1"
         id="stop17-8" /></linearGradient><linearGradient
       inkscape:collect="always"
       xlink:href="#linearGradient3-2"
       id="linearGradient4-1"
       x1="3.1385837"
       y1="-2.6662157"
       x2="4.8730745"
       y2="-0.90015715"
       gradientUnits="userSpaceOnUse"
       gradientTransform="matrix(3.4866805,0,0,3.4243567,22.054077,21.9435)" /><linearGradient
       id="linearGradient3-2"
       inkscape:collect="always"><stop
         style="stop-color:#aaff55;stop-opacity:1;"
         offset="0"
         id="stop3-7" /><stop
         style="stop-color:#55aa00;stop-opacity:1;"
         offset="1"
         id="stop4-0" /></linearGradient><radialGradient
       inkscape:collect="always"
       xlink:href="#linearGradient12"
       id="radialGradient15"
       cx="6.6772556"
       cy="-0.52325904"
       fx="6.6772556"
       fy="-0.52325904"
       r="0.55751485"
       gradientTransform="matrix(1.4315284e-7,4.7457621,-4.7457629,6.0170378e-7,32.9709,-16.166421)"
       gradientUnits="userSpaceOnUse" /><linearGradient
       id="linearGradient12"
       inkscape:collect="always"><stop
         style="stop-color:#ffffff;stop-opacity:1;"
         offset="0"
         id="stop14-3" /><stop
         style="stop-color:#9accff;stop-opacity:1;"
         offset="0.09863945"
         id="stop18-7" /><stop
         style="stop-color:#0080ff;stop-opacity:1;"
         offset="0.74659866"
         id="stop31-5" /><stop
         style="stop-color:#001a33;stop-opacity:1;"
         offset="1"
         id="stop15-9" /></linearGradient></defs><g
     inkscape:label="HAL Personal Computer"
     inkscape:groupmode="layer"
     id="layer1"
     style="display:inline;opacity:1;mix-blend-mode:normal"
     transform="translate(0,-3.1749971)"
     sodipodi:insensitive="true"><path
       style="display:inline;opacity:1;mix-blend-mode:normal;fill:url(#linearGradient7);stroke:none;stroke-width:0.264583;stroke-linecap:round;stroke-linejoin:round"
       d="M 3.1871049,49.224601 9.2846271,43.12708 c 0.5291666,-0.529167 0.7695389,-0.529167 1.5632889,-0.529167 h 46.037499 c 0.79375,0 1.034124,0 1.563291,0.529167 l 6.097522,6.097521 z"
       id="path6"
       inkscape:label="Top Cover"
       sodipodi:nodetypes="ccccccc" /><path
       id="rect2"
       style="display:inline;opacity:1;mix-blend-mode:normal;fill:#edf1ea;fill-opacity:1;stroke-width:0.264583;stroke-linecap:round;stroke-linejoin:round"
       inkscape:label="Front Panel Top Bevel"
       d="M 4.4979166,48.683331 H 63.235416 c 1.026054,0 1.852083,0.826029 1.852083,1.852083 v 0.264585 H 2.6458331 l 2e-7,-0.264585 c 6e-7,-1.026054 0.8260291,-1.852083 1.8520833,-1.852083 z"
       sodipodi:nodetypes="sssccss" /><path
       id="rect1"
       style="opacity:1;fill:url(#linearGradient2);stroke:none;stroke-width:0.264583;stroke-linecap:round;stroke-linejoin:round"
       d="M 4.2333331,49.477082 H 63.499999 c 0.79375,0 1.5875,0.661456 1.5875,1.322914 v 12.700002 c 0,0.879475 -0.708025,1.5875 -1.5875,1.5875 H 4.2333332 c -0.879475,0 -1.5874999,-0.708025 -1.5874999,-1.5875 V 50.799996 c 0,-0.661458 0.79375,-1.322914 1.5874998,-1.322914 z"
       sodipodi:nodetypes="sssssssss"
       inkscape:label="Front Panel" /><g
       inkscape:groupmode="layer"
       id="layer5"
       inkscape:label="Badge"
       style="display:inline;opacity:1;mix-blend-mode:normal"><rect
         style="display:inline;opacity:1;mix-blend-mode:normal;fill:url(#linearGradient9);fill-opacity:1;stroke:#000000;stroke-width:0.264583;stroke-linecap:round;stroke-linejoin:round;stroke-dasharray:none;stroke-opacity:0.5;paint-order:markers stroke fill"
         id="rect7"
         width="3.175"
         height="3.175"
         x="5.8208332"
         y="53.445831"
         rx="7.3436623e-18"
         inkscape:label="Panel" /><path
         d="M 6.936015,53.785363 H 6.5652731 v -0.07495 H 6.936015 Z m 0,0.145409 H 6.5652731 v -0.07495 H 6.936015 Z M 6.8045814,54.064189 H 6.5652731 v -0.06446 H 6.8045814 Z M 6.4412792,53.785363 H 6.0854165 v -0.07495 h 0.3558627 z m 0.3633022,0.412242 H 6.2044507 v -0.06596 H 6.8045814 Z M 6.4412792,53.930772 H 6.0854165 v -0.07495 H 6.4412792 Z M 6.8045814,54.47643 H 6.5652731 V 54.39248 H 6.8045814 Z M 6.4412792,54.064189 H 6.2044507 v -0.06446 H 6.4412792 Z M 6.936015,54.62334 H 6.5652731 V 54.54839 H 6.936015 Z M 6.8045814,54.326525 H 6.2044507 v -0.06895 H 6.8045814 Z M 6.936015,54.768748 H 6.5652731 v -0.07346 H 6.936015 Z M 6.4412792,54.47643 H 6.2044507 v -0.08395 h 0.2368285 z m 0,0.14691 H 6.0854165 v -0.07495 h 0.3558627 z m 0,0.145408 H 6.0854165 v -0.07346 H 6.4412792 Z M 7.6879395,53.785363 H 7.2861992 l 0.00992,-0.07495 h 0.3806613 z m 0.042159,0.283323 H 7.5118681 l -0.00992,-0.06895 h 0.21699 z m -0.02108,-0.137914 H 7.4920294 l -0.0062,-0.04648 -0.0062,0.04648 H 7.2651206 l 0.00992,-0.07495 h 0.4228187 z m 0.040918,0.274329 H 7.5317072 l -0.00992,-0.06895 h 0.2169901 z m -0.2802263,-0.205372 -0.011159,0.06895 h -0.21327 l 0.00992,-0.06895 z m 0.4513379,0.623611 h -0.348423 l -0.00868,-0.07495 H 7.9210508 Z M 7.7697755,54.341515 H 7.2056031 l 0.00992,-0.06746 h 0.5443335 z m -0.3199043,-0.205371 -0.011159,0.06895 h -0.21327 l 0.00992,-0.06895 z m 0.4711769,0.632604 H 7.5899843 l -0.00868,-0.07346 H 7.9210489 Z M 7.7896145,54.47643 H 7.1870041 l 0.00992,-0.06895 h 0.5827715 z m -0.3819013,0.07196 -0.00868,0.07495 H 7.0493707 v -0.07495 z m -0.01736,0.146907 -0.00868,0.07346 H 7.0493715 v -0.07346 z m 1.128867,-0.909934 H 8.0455634 v -0.07495 h 0.4736568 z m 0,0.145409 H 8.0455634 v -0.07495 H 8.5192202 Z M 8.7312498,54.47643 H 8.5080607 V 54.39248 H 8.7312498 Z M 8.401426,54.064189 H 8.1633576 v -0.06446 H 8.401426 Z m 0,0.133416 H 8.1633576 v -0.06596 H 8.401426 Z m 0,0.12892 H 8.1633576 v -0.06895 H 8.401426 Z m 0,0.149905 H 8.1633576 V 54.39248 H 8.401426 Z m 0.3298238,0.14691 H 8.0455634 v -0.07495 h 0.6856864 z m 0,0.145408 H 8.0455634 v -0.07346 h 0.6856864 z"
         id="text1"
         style="font-size:1.42728px;line-height:0;font-family:MeninBlue;-inkscape-font-specification:MeninBlue;letter-spacing:0.134763px;word-spacing:0px;display:inline;opacity:1;mix-blend-mode:normal;fill:#000000;fill-opacity:1;stroke-width:0.264583;stroke-linecap:round;stroke-linejoin:round;stroke-opacity:0.5;paint-order:markers stroke fill"
         aria-label="HAL"
         inkscape:label="HAL" /><path
         id="path5"
         style="font-style:italic;font-size:0.426946px;line-height:0.9;font-family:'Droid Serif';-inkscape-font-specification:'Droid Serif Italic';letter-spacing:0px;word-spacing:0px;display:inline;opacity:1;mix-blend-mode:normal;fill:#000000;fill-opacity:1;stroke-width:0.264583;stroke-linecap:round;stroke-linejoin:round;stroke-opacity:0.5;paint-order:markers stroke fill"
         d="m 6.3963948,56.141146 q 0.00754,0.0052 0.00754,0.01851 0,0.02666 -0.031824,0.0476 -0.031823,0.02066 -0.087656,0.02066 -0.074534,0 -0.1164075,-0.0389 -0.041594,-0.03888 -0.041594,-0.11015 0,-0.105527 0.067556,-0.182494 0.067556,-0.07724 0.168051,-0.07724 0.049969,0 0.077884,0.01687 0.027915,0.0166 0.027915,0.04515 0,0.01986 -0.015353,0.03154 -0.015353,0.01175 -0.040758,0.01175 0,-0.07559 -0.056948,-0.07559 -0.070626,0 -0.1183607,0.07506 -0.047457,0.07479 -0.047457,0.163727 0,0.104163 0.1016118,0.104163 0.066159,0 0.105799,-0.05059 z m 0.2537515,-0.222745 q 0.050527,0 0.079559,0.02964 0.029033,0.02964 0.029033,0.08567 0,0.07424 -0.04662,0.134356 -0.046619,0.05983 -0.122548,0.05983 -0.051644,0 -0.080675,-0.03047 -0.029033,-0.03046 -0.029033,-0.08458 0,-0.07506 0.046898,-0.134624 0.047176,-0.05983 0.1233863,-0.05983 z m -0.054156,0.282307 q 0.047176,0 0.075093,-0.05439 0.028194,-0.05466 0.028194,-0.121036 0,-0.0775 -0.055832,-0.0775 -0.04662,0 -0.075372,0.05466 -0.028752,0.05466 -0.028752,0.121566 0,0.0767 0.056669,0.0767 z m 0.4444146,0.02175 h -0.054436 q 0,-0.0125 0.00726,-0.05766 0.00726,-0.04541 0.012284,-0.06771 l 0.013128,-0.05766 q 0.00837,-0.03372 0.00837,-0.05196 0,-0.03291 -0.02624,-0.03291 -0.031824,0 -0.0656,0.04243 -0.033498,0.04215 -0.042431,0.08294 l -0.030708,0.142514 h -0.053319 l 0.048014,-0.223834 q 0.00335,-0.01549 0.00335,-0.02502 0,-0.02638 -0.039919,-0.02638 h -0.00447 l 0.00502,-0.02339 h 0.105799 l -0.015353,0.07017 h 0.00559 q 0.046339,-0.07506 0.1041238,-0.07506 0.061135,0 0.061135,0.06172 0,0.0068 -0.00112,0.01332 h 0.00559 q 0.04662,-0.07506 0.1041239,-0.07506 0.061135,0 0.061135,0.06173 0,0.01768 -0.010319,0.0612 l -0.014796,0.06582 q -0.00726,0.03236 -0.00726,0.05847 0,0.02665 0.01982,0.02665 0.016471,0 0.03657,-0.01278 l 0.010319,0.01631 q -0.03629,0.03155 -0.069788,0.03155 -0.023448,0 -0.037685,-0.01496 -0.014237,-0.01496 -0.014237,-0.04053 0,-0.02557 0.010887,-0.07535 l 0.00978,-0.04352 q 0.011993,-0.05358 0.011993,-0.06609 0,-0.03291 -0.026521,-0.03291 -0.029311,0 -0.060576,0.03671 -0.031265,0.03644 -0.043827,0.07642 l -0.00921,0.03998 q -0.00362,0.01522 -0.010043,0.05956 -0.00642,0.04432 -0.00642,0.05521 z m 0.3640176,0.110427 -0.00502,0.02339 H 7.2919267 l 0.075931,-0.353292 q 0.00502,-0.02339 0.00502,-0.02936 0,-0.02638 -0.039919,-0.02638 h -0.00447 l 0.00502,-0.02339 h 0.1013379 l -0.013681,0.07424 h 0.00278 q 0.041315,-0.07969 0.1046827,-0.07969 0.034895,0 0.053597,0.02583 0.018983,0.02584 0.018983,0.07479 0,0.07479 -0.048014,0.141969 -0.047735,0.06689 -0.1225481,0.06689 -0.032661,0 -0.055831,-0.01278 -0.00252,0.01796 -0.00474,0.02692 l -0.00782,0.034 q -0.0053,0.02313 -0.0053,0.031 0,0.02583 0.039919,0.02583 z m -0.020658,-0.149862 q 0.018424,0.01986 0.045223,0.01986 0.047735,0 0.080675,-0.06066 0.03322,-0.06092 0.03322,-0.123738 0,-0.065 -0.036012,-0.065 -0.02959,0 -0.059738,0.04025 -0.030149,0.03998 -0.039919,0.08322 z m 0.2797129,-0.259188 h 0.1063579 l -0.037687,0.166719 q -0.011454,0.05059 -0.011454,0.06717 0,0.034 0.027915,0.034 0.029311,0 0.063088,-0.04106 0.034057,-0.04135 0.044386,-0.08813 l 0.02987,-0.138705 h 0.055273 l -0.03936,0.178959 q -0.00865,0.03944 -0.00865,0.06172 0,0.02829 0.018983,0.02829 0.01619,0 0.03657,-0.01225 l 0.010319,0.01631 q -0.03629,0.031 -0.07258,0.031 -0.021495,0 -0.034895,-0.01496 -0.013128,-0.01496 -0.013128,-0.03781 0,-0.01441 0.00278,-0.03289 h -0.00447 q -0.030986,0.04977 -0.055552,0.06745 -0.024287,0.01768 -0.054993,0.01768 -0.061135,0 -0.061135,-0.06173 0,-0.01768 0.010319,-0.06119 l 0.022333,-0.09763 q 0.00502,-0.02204 0.00502,-0.03318 0,-0.02638 -0.039919,-0.02638 h -0.00447 z m 0.476796,0.25674 0.00978,0.02066 q -0.038524,0.02665 -0.077047,0.02665 -0.062251,0 -0.062251,-0.065 0,-0.02093 0.00559,-0.04678 l 0.034895,-0.160463 h -0.043548 l 0.0053,-0.0223 q 0.055831,0 0.087375,-0.07806 h 0.02624 l -0.014796,0.06854 h 0.06923 l -0.00697,0.03183 h -0.06923 l -0.034614,0.15883 q -0.00697,0.03209 -0.00697,0.04787 0,0.03046 0.030427,0.03046 0.02317,0 0.046619,-0.01225 z m 0.2677093,-0.02773 q 0.00587,0.0036 0.00587,0.01387 0,0.02228 -0.027078,0.04189 -0.026799,0.01931 -0.072022,0.01931 -0.049969,0 -0.080675,-0.03074 -0.030708,-0.03074 -0.030708,-0.08431 0,-0.07289 0.048294,-0.133538 0.048294,-0.06092 0.1219906,-0.06092 0.03629,0 0.056109,0.01687 0.020099,0.01687 0.020099,0.04705 0,0.04515 -0.048294,0.0786 -0.048014,0.03345 -0.1175239,0.03345 h -0.00978 q -0.00502,0 -0.010319,-5.43e-4 -0.00112,0.0076 -0.00112,0.02339 0,0.07559 0.06281,0.07559 0.048851,0 0.082351,-0.03997 z m -0.1387399,-0.08458 h 0.00559 q 0.050526,0 0.083188,-0.02395 0.032939,-0.02393 0.032939,-0.06201 0,-0.03726 -0.03322,-0.03726 -0.027635,0 -0.051644,0.034 -0.024007,0.03372 -0.036848,0.08921 z m 0.4145446,-0.06908 q 0,-0.04405 -0.022891,-0.04405 -0.026521,0 -0.056389,0.05086 -0.02959,0.05086 -0.043827,0.115037 l -0.021495,0.101447 h -0.053318 l 0.048014,-0.223833 q 0.00335,-0.01549 0.00335,-0.02501 0,-0.02638 -0.045502,-0.02638 h -0.00474 l 0.0053,-0.02339 h 0.1010543 l -0.011993,0.08023 h 0.00587 q 0.022889,-0.04977 0.045223,-0.06771 0.022333,-0.01795 0.051922,-0.01795 0.046898,0 0.046898,0.03835 0,0.04241 -0.047457,0.04241 z m -2.5983709,-0.278025 0.00502,-0.02339 h 0.00754 q 0.026799,0 0.038802,-0.01011 0.011993,-0.01011 0.01619,-0.02992 l 0.05946,-0.273059 q 0.00224,-0.01035 0.00224,-0.01549 0,-0.02229 -0.041314,-0.02229 h -0.00726 l 0.00502,-0.02339 h 0.1465561 q 0.061972,0 0.09603,0.02801 0.034057,0.02801 0.034057,0.07941 0,0.06337 -0.043827,0.09954 -0.043548,0.03591 -0.1309225,0.03591 h -0.04243 l -0.020377,0.09356 q -0.00252,0.01149 -0.00252,0.01549 0,0.0223 0.041315,0.0223 h 0.018702 l -0.00502,0.02339 z m 0.1510226,-0.181133 h 0.030149 q 0.1205948,0 0.1205948,-0.10852 0,-0.08132 -0.083468,-0.08132 h -0.02624 z m 0.444135,0.111501 q 0.00587,0.0036 0.00587,0.01387 0,0.02229 -0.027077,0.04188 -0.026799,0.01931 -0.072022,0.01931 -0.049969,0 -0.080675,-0.03074 -0.030708,-0.03074 -0.030708,-0.08429 0,-0.07289 0.048294,-0.13354 0.048294,-0.06092 0.1219906,-0.06092 0.036289,0 0.056109,0.01687 0.020099,0.01686 0.020099,0.04705 0,0.04514 -0.048294,0.0786 -0.048014,0.03345 -0.1175239,0.03345 h -0.00978 q -0.00502,0 -0.01032,-5.44e-4 -0.00112,0.0076 -0.00112,0.02339 0,0.07559 0.06281,0.07559 0.048851,0 0.082351,-0.03997 z m -0.1387398,-0.08458 h 0.00559 q 0.050527,0 0.083188,-0.02395 0.032939,-0.02395 0.032939,-0.06201 0,-0.03726 -0.03322,-0.03726 -0.027637,0 -0.051644,0.034 -0.024007,0.03372 -0.036848,0.08921 z m 0.4145445,-0.06908 q 0,-0.04406 -0.022891,-0.04406 -0.026521,0 -0.056389,0.05086 -0.02959,0.05085 -0.043827,0.115037 l -0.021495,0.101447 h -0.053319 l 0.048014,-0.223831 q 0.00335,-0.01549 0.00335,-0.02502 0,-0.02638 -0.045501,-0.02638 h -0.00474 l 0.0053,-0.02339 h 0.1010543 l -0.011993,0.08023 h 0.00587 q 0.022891,-0.04977 0.045223,-0.06773 0.022333,-0.01795 0.051922,-0.01795 0.046898,0 0.046898,0.03834 0,0.04243 -0.047457,0.04243 z m 0.2512392,0.007 q 0,-0.02801 -0.013681,-0.04488 -0.013404,-0.01687 -0.037685,-0.01687 -0.025682,0 -0.040758,0.01358 -0.014796,0.01334 -0.014796,0.03427 0,0.01851 0.014237,0.03155 0.014237,0.01305 0.044107,0.02583 0.068673,0.02992 0.068673,0.08648 0,0.04106 -0.032383,0.06636 -0.032382,0.0253 -0.08598,0.0253 -0.04327,0 -0.068951,-0.01687 -0.025403,-0.01713 -0.025403,-0.04596 0,-0.01796 0.010043,-0.02721 0.010319,-0.0095 0.025962,-0.0095 0,0.03454 0.017028,0.05385 0.017308,0.01904 0.048294,0.01904 0.061694,0 0.061694,-0.05168 0,-0.01986 -0.013128,-0.03345 -0.013128,-0.01387 -0.044664,-0.02801 -0.041036,-0.01903 -0.055273,-0.03917 -0.013959,-0.02041 -0.013959,-0.04705 0,-0.03644 0.030427,-0.05956 0.030708,-0.02339 0.079837,-0.02339 0.042152,0 0.0656,0.01523 0.023728,0.01525 0.023728,0.03753 0,0.03456 -0.042989,0.03456 z m 0.2531932,-0.08784 q 0.050526,0 0.079559,0.02964 0.029033,0.02964 0.029033,0.08567 0,0.07424 -0.046619,0.134354 -0.04662,0.05983 -0.1225481,0.05983 -0.051644,0 -0.080675,-0.03046 -0.029033,-0.03047 -0.029033,-0.08458 0,-0.07506 0.046898,-0.134627 0.047176,-0.05983 0.1233864,-0.05983 z m -0.054156,0.282336 q 0.047176,0 0.075092,-0.05439 0.028196,-0.05466 0.028196,-0.121036 0,-0.0775 -0.055831,-0.0775 -0.046619,0 -0.075372,0.05466 -0.028752,0.05466 -0.028752,0.121579 0,0.0767 0.056668,0.0767 z m 0.2660343,0.02175 h -0.053319 l 0.048014,-0.22383 q 0.00335,-0.01549 0.00335,-0.02501 0,-0.02639 -0.039919,-0.02639 h -0.00447 l 0.00502,-0.02339 h 0.105799 l -0.015353,0.07018 h 0.00559 q 0.046339,-0.07506 0.1041238,-0.07506 0.061135,0 0.061135,0.06173 0,0.01768 -0.010319,0.0612 l -0.014796,0.06582 q -0.00754,0.03345 -0.00754,0.05848 0,0.02665 0.020099,0.02665 0.016471,0 0.03657,-0.01278 l 0.010319,0.01631 q -0.037407,0.03154 -0.069788,0.03154 -0.023728,0 -0.037965,-0.01496 -0.013958,-0.01496 -0.013958,-0.04053 0,-0.02557 0.010886,-0.07535 l 0.013128,-0.05766 q 0.00837,-0.03372 0.00837,-0.05196 0,-0.03289 -0.02624,-0.03289 -0.031824,0 -0.065322,0.04189 -0.03322,0.04188 -0.042711,0.0835 z m 0.4728879,-0.08405 h -0.00362 q -0.041036,0.08949 -0.1069167,0.08949 -0.034895,0 -0.054436,-0.02666 -0.019261,-0.02692 -0.019261,-0.07506 0,-0.0767 0.048851,-0.142241 0.049132,-0.06554 0.1214318,-0.06554 0.038801,0 0.066997,0.02013 l 0.025123,-0.01414 h 0.018424 l -0.039081,0.178405 q -0.00837,0.03835 -0.00837,0.06173 0,0.02829 0.018702,0.02829 0.01619,0 0.041315,-0.01441 l 0.010319,0.01631 q -0.041036,0.03318 -0.080675,0.03318 -0.044664,0 -0.044664,-0.04623 0,-0.01768 0.00587,-0.04324 z m 0.032383,-0.174877 q -0.013128,-0.02013 -0.04327,-0.02013 -0.048851,0 -0.082071,0.06066 -0.032939,0.06038 -0.032939,0.124294 0,0.06445 0.036011,0.06445 0.028474,0 0.059739,-0.04106 0.031265,-0.04107 0.041315,-0.08975 z m 0.1476728,-0.140881 0.00502,-0.02339 h 0.108033 l -0.066158,0.303522 q -0.00865,0.03972 -0.00865,0.06173 0,0.02829 0.018983,0.02829 0.016471,0 0.041036,-0.01441 l 0.010319,0.01631 q -0.03964,0.03318 -0.077325,0.03318 -0.020658,0 -0.034057,-0.01469 -0.013127,-0.01469 -0.013127,-0.03809 0,-0.02639 0.01256,-0.08758 l 0.046619,-0.213769 q 0.00362,-0.0166 0.00362,-0.02502 0,-0.0261 -0.040199,-0.0261 z"
         inkscape:label="PC" /></g><g
       inkscape:groupmode="layer"
       id="layer6"
       inkscape:label="Ventilation Holes"
       style="display:inline;opacity:1;mix-blend-mode:normal"><path
         style="display:inline;fill:none;fill-opacity:1;stroke:#000000;stroke-width:0.396875;stroke-linecap:round;stroke-linejoin:round;stroke-dasharray:none;stroke-opacity:1;paint-order:markers stroke fill"
         d="m 5.2916665,58.208329 v 3.968749"
         id="path16"
         sodipodi:nodetypes="cc"
         inkscape:label="Hole" /><use
         x="0"
         y="0"
         xlink:href="#path16"
         id="use16"
         transform="translate(1.0583332,0.00686763)"
         style="display:inline" /><use
         x="0"
         y="0"
         xlink:href="#path16"
         id="use17"
         transform="translate(2.1166666)"
         style="display:inline" /><use
         x="0"
         y="0"
         xlink:href="#use17"
         id="use18"
         transform="translate(1.0583333)"
         style="display:inline" /><use
         x="0"
         y="0"
         xlink:href="#path16"
         id="use19"
         transform="translate(4.2333333)"
         style="display:inline" /><use
         x="0"
         y="0"
         xlink:href="#path16"
         id="use20"
         transform="translate(5.2916666)"
         style="display:inline" /><use
         x="0"
         y="0"
         xlink:href="#path16"
         id="use22"
         transform="translate(6.3499999)"
         style="display:inline" /><use
         x="0"
         y="0"
         xlink:href="#path16"
         id="use23"
         transform="translate(7.4083332)"
         style="display:inline" /><use
         x="0"
         y="0"
         xlink:href="#path16"
         id="use24"
         transform="translate(8.4666665)"
         style="display:inline" /><use
         x="0"
         y="0"
         xlink:href="#path16"
         id="use25"
         transform="translate(9.5249998)"
         style="display:inline" /><use
         x="0"
         y="0"
         xlink:href="#path16"
         id="use26"
         transform="translate(10.583333)"
         style="display:inline" /><use
         x="0"
         y="0"
         xlink:href="#path16"
         id="use27"
         transform="translate(11.641666)"
         style="display:inline" /><use
         x="0"
         y="0"
         xlink:href="#path16"
         id="use28"
         transform="translate(12.7)"
         style="display:inline" /><use
         x="0"
         y="0"
         xlink:href="#path16"
         id="use29"
         transform="translate(13.758333)"
         style="display:inline" /><use
         x="0"
         y="0"
         xlink:href="#path16"
         id="use30"
         transform="translate(14.816666)"
         style="display:inline" /></g><g
       inkscape:groupmode="layer"
       id="layer4"
       inkscape:label="Drive Bay"><rect
         style="display:inline;opacity:1;mix-blend-mode:normal;fill:url(#linearGradient11);stroke-width:0.264583;stroke-linecap:round;stroke-linejoin:round;stroke-opacity:0.5;paint-order:markers stroke fill"
         id="rect5"
         width="38.629169"
         height="10.054165"
         x="23.018749"
         y="51.329163"
         inkscape:label="Panel" /><g
         inkscape:groupmode="layer"
         id="layer7"
         inkscape:label="Floppy Drive"
         style="display:inline;opacity:1;mix-blend-mode:normal"><rect
           style="display:inline;opacity:1;mix-blend-mode:normal;fill:url(#linearGradient34);fill-opacity:0.502164;stroke:none;stroke-width:0.396875;stroke-linecap:round;stroke-linejoin:round;stroke-dasharray:none;stroke-opacity:1;paint-order:markers stroke fill"
           id="rect31-5"
           width="18.520832"
           height="10.054165"
           x="23.547916"
           y="51.329163"
           inkscape:label="Panel" /><path
           id="rect42"
           style="display:inline;opacity:1;mix-blend-mode:normal;fill:url(#linearGradient44);stroke-width:0.529167;stroke-linecap:round;stroke-dasharray:none;stroke-opacity:0.75;paint-order:stroke markers fill"
           inkscape:label="Hole"
           d="m 24.341667,55.694785 6.085415,10e-7 v -3.307291 h 4.7625 v 3.307291 l 6.085415,-10e-7 v 0.529167 l -6.085415,1e-6 v 3.307291 h -4.7625 v -3.307291 l -6.085415,-1e-6 z"
           sodipodi:nodetypes="ccccccccccccc" /><rect
           style="display:inline;opacity:1;mix-blend-mode:normal;fill:url(#linearGradient55);stroke:none;stroke-width:0.583538;stroke-linecap:round;stroke-linejoin:miter;stroke-dasharray:none;stroke-opacity:0.75;paint-order:stroke markers fill"
           id="rect53"
           width="0.52916569"
           height="0.52916592"
           x="29.104166"
           y="55.694786"
           inkscape:label="Left Teeth" /><rect
           style="display:inline;opacity:1;mix-blend-mode:normal;fill:url(#linearGradient56);fill-opacity:1;stroke:none;stroke-width:0.583538;stroke-linecap:round;stroke-linejoin:miter;stroke-dasharray:none;stroke-opacity:0.75;paint-order:stroke markers fill"
           id="rect53-1"
           width="0.52916569"
           height="0.52916592"
           x="35.983334"
           y="55.694786"
           inkscape:label="Right Teeth" /><path
           id="rect48"
           style="display:inline;opacity:1;mix-blend-mode:normal;fill:#ffffff;fill-opacity:0.5;stroke-width:0.529168;stroke-linecap:round;stroke-opacity:0.75;paint-order:stroke markers fill"
           inkscape:label="Bevel Bottom"
           d="m 24.341666,56.223954 -0.264583,0.396875 h 6.35 v -0.396875 z m 10.847917,0 v 0.396875 h 6.35 l -0.264584,-0.396875 z" /><path
           id="rect48-2"
           style="display:inline;mix-blend-mode:normal;fill:#000000;fill-opacity:0.5;stroke-width:0.529168;stroke-linecap:round;stroke-opacity:0.75;paint-order:stroke markers fill"
           inkscape:label="Bevel Top"
           d="m 24.077083,55.297913 0.264583,0.396875 h 6.085417 v -0.396875 z m 11.1125,0 v 0.396875 h 6.085416 l 0.264584,-0.396875 z" /><path
           id="rect46"
           style="display:inline;fill:url(#linearGradient48);stroke-width:0.529167;stroke-linecap:round;stroke-opacity:0.75;paint-order:stroke markers fill"
           d="m 30.427081,59.531239 1.058335,-2.116661 h -1.058334 z"
           sodipodi:nodetypes="cccc"
           inkscape:label="Hole Shadow" /><rect
           style="display:inline;opacity:1;mix-blend-mode:normal;fill:url(#linearGradient50);stroke:none;stroke-width:0.554181;stroke-linecap:round;stroke-linejoin:miter;stroke-dasharray:none;stroke-opacity:0.75;paint-order:stroke markers fill"
           id="rect49"
           width="4.4979172"
           height="4.3656254"
           x="30.559374"
           y="52.519787"
           inkscape:label="Latch" /><circle
           style="display:inline;fill:url(#radialGradient58);fill-opacity:1;stroke:none;stroke-width:0.529167;stroke-linecap:round;stroke-linejoin:miter;stroke-dasharray:none;stroke-opacity:0.75;paint-order:stroke markers fill"
           id="path56"
           inkscape:label="LED"
           cx="27.516666"
           cy="58.737499"
           r="0.39687499" /><path
           id="path59"
           style="display:inline;fill:url(#radialGradient61);stroke-width:0.529167;stroke-linecap:round;stroke-opacity:0.75;paint-order:stroke markers fill"
           inkscape:label="Led Reflection"
           d="m 27.849706,58.662685 c 0.04176,0.122338 -0.04082,0.327681 -0.23286,0.393293 -0.09248,0.0316 -0.323467,0.06025 -0.394957,-0.146782 -0.0429,-0.124227 0.06617,0.09871 0.346327,0.002 0.25191,-0.08699 0.239064,-0.372775 0.28149,-0.248483 z"
           sodipodi:nodetypes="sssss" /><use
           x="0"
           y="0"
           xlink:href="#text1"
           id="use41"
           transform="translate(18.520833,-1.3229173)"
           style="display:inline;opacity:1;mix-blend-mode:normal;fill:#000000;fill-opacity:1"
           inkscape:label="HAL" /></g><g
         inkscape:groupmode="layer"
         id="layer8"
         inkscape:label="Hard Drive"
         style="display:inline;opacity:1;mix-blend-mode:normal"><rect
           style="display:inline;opacity:1;mix-blend-mode:normal;fill:url(#linearGradient33);fill-opacity:0.502164;stroke:none;stroke-width:0.396875;stroke-linecap:round;stroke-linejoin:round;stroke-dasharray:none;stroke-opacity:1;paint-order:markers stroke fill"
           id="rect33"
           width="18.520832"
           height="10.054165"
           x="42.597916"
           y="51.329163"
           inkscape:label="Panel" /><rect
           style="display:inline;opacity:1;mix-blend-mode:normal;fill:#000000;fill-opacity:1;stroke:none;stroke-width:0.529168;stroke-linecap:round;stroke-linejoin:miter;stroke-dasharray:none;stroke-opacity:0.75;paint-order:stroke markers fill"
           id="rect35"
           width="16.404165"
           height="1.3229154"
           x="43.65625"
           y="58.208328"
           inkscape:label="Hole" /><path
           id="rect37"
           style="display:inline;opacity:1;mix-blend-mode:normal;fill:#333333;fill-opacity:1;stroke:none;stroke-width:0.529168;stroke-linecap:round;stroke-linejoin:miter;stroke-dasharray:none;stroke-opacity:0.75;paint-order:stroke markers fill"
           inkscape:label="Grid"
           d="m 48.683332,58.208332 v 0.264584 h -5.027083 v 0.264583 h 5.027083 v 0.264583 h -5.027083 v 0.264583 h 5.027083 v 0.264584 h 0.264584 v -0.264584 h 1.058333 v 0.264584 h 0.264583 v -0.264584 h 1.058334 v 0.264584 h 0.264583 v -0.264584 h 1.058333 v 0.264584 h 0.264584 v -0.264584 h 1.058333 v 0.264584 h 0.264583 v -0.264584 h 1.058334 v 0.264584 h 0.264583 v -0.264584 h 1.058333 v 0.264584 h 0.264584 v -0.264584 h 1.058333 v 0.264584 h 0.264583 v -0.264584 h 1.852083 v -0.264583 h -1.852083 v -0.264583 h 1.852083 v -0.264583 h -1.852083 v -0.264584 h -0.264583 v 0.264584 h -1.058333 v -0.264584 h -0.264584 v 0.264584 h -1.058333 v -0.264584 h -0.264583 v 0.264584 h -1.058334 v -0.264584 h -0.264583 v 0.264584 h -1.058333 v -0.264584 h -0.264584 v 0.264584 h -1.058333 v -0.264584 h -0.264583 v 0.264584 h -1.058334 v -0.264584 h -0.264583 v 0.264584 h -1.058333 v -0.264584 z m 0.264584,0.529167 h 1.058333 v 0.264583 h -1.058333 z m 1.322916,0 h 1.058334 v 0.264583 h -1.058334 z m 1.322917,0 h 1.058333 v 0.264583 h -1.058333 z m 1.322917,0 h 1.058333 v 0.264583 h -1.058333 z m 1.322916,0 h 1.058334 v 0.264583 h -1.058334 z m 1.322917,0 h 1.058333 v 0.264583 h -1.058333 z m 1.322917,0 h 1.058333 v 0.264583 h -1.058333 z" /><rect
           style="display:inline;fill:#ffffff;fill-opacity:0.75;stroke:none;stroke-width:0.529167;stroke-linecap:round;stroke-linejoin:miter;stroke-dasharray:none;stroke-opacity:0.75;paint-order:stroke markers fill"
           id="rect36"
           width="1.5875"
           height="1.3229165"
           x="45.772915"
           y="58.208328"
           inkscape:label="LedBorder" /><rect
           style="display:inline;opacity:1;mix-blend-mode:normal;fill:#cc0000;fill-opacity:1;stroke:none;stroke-width:0.529167;stroke-linecap:round;stroke-linejoin:miter;stroke-dasharray:none;stroke-opacity:0.75;paint-order:stroke markers fill"
           id="rect34"
           width="1.0583333"
           height="0.79374999"
           x="46.037498"
           y="58.472912"
           inkscape:label="LED" /><use
           x="0"
           y="0"
           xlink:href="#text1"
           id="use42"
           inkscape:label="HAL"
           style="display:inline;opacity:1;mix-blend-mode:normal;fill:#000000;fill-opacity:1"
           transform="translate(37.570832,-1.3229173)" /></g><rect
         style="display:inline;opacity:1;mix-blend-mode:normal;fill:url(#linearGradient18);fill-opacity:1;stroke:none;stroke-width:0.745805;stroke-linecap:round;stroke-opacity:0.75;paint-order:stroke markers fill"
         id="rect4"
         width="38.629169"
         height="0.52916664"
         x="23.018749"
         y="51.329163"
         inkscape:label="Top Shadow" /><path
         id="rect3"
         style="display:inline;opacity:1;fill:url(#linearGradient4);fill-opacity:1;stroke-width:0.264583;stroke-linecap:round;stroke-linejoin:round;stroke-opacity:0.5;paint-order:markers stroke fill"
         inkscape:label="Bevel"
         d="m 23.01875,51.329166 0.264583,9.524996 c 0.0043,0.338088 0.16132,0.532625 0.529166,0.529166 h 37.041666 c 0.317793,-0.01102 0.53548,-0.139115 0.529167,-0.529166 l 0.264585,-9.524996 c 0.298964,-4e-6 0.529166,0.236009 0.529166,0.529167 V 62.70625 c 0,0.293158 -0.236008,0.529166 -0.529166,0.529166 H 23.01875 c -0.293158,0 -0.529167,-0.236008 -0.529167,-0.529166 V 51.858333 c 0,-0.293158 0.236009,-0.529167 0.529167,-0.529167 z"
         sodipodi:nodetypes="scccccsssssss" /><path
         id="path11"
         style="display:inline;opacity:1;fill:url(#radialGradient14);stroke-width:0.264583;stroke-linecap:round;stroke-linejoin:round;stroke-opacity:0.5;paint-order:markers stroke fill"
         inkscape:label="Left Shadow"
         d="m 23.01875,51.329166 0.264583,9.524996 c 0.0043,0.338088 0.16132,0.532625 0.529166,0.529166 l -0.793749,1.852088 c -0.293158,0 -0.529167,-0.236008 -0.529167,-0.529166 V 51.858333 c 0,-0.293158 0.236009,-0.529167 0.529167,-0.529167 z"
         sodipodi:nodetypes="scccsss" /><path
         id="path14"
         style="display:inline;opacity:1;fill:url(#radialGradient16);fill-opacity:1;stroke-width:0.264583;stroke-linecap:round;stroke-linejoin:round;stroke-opacity:0.5;paint-order:markers stroke fill"
         inkscape:label="Right Shadow"
         d="m 61.647915,51.329162 -0.264583,9.524996 c -0.0043,0.338088 -0.16132,0.532625 -0.529166,0.529166 l 0.793749,1.852088 c 0.293158,0 0.529167,-0.236008 0.529167,-0.529166 V 51.858329 c 0,-0.293158 -0.236009,-0.529167 -0.529167,-0.529167 z"
         sodipodi:nodetypes="scccsss" /></g></g><g
     inkscape:groupmode="layer"
     id="layer2"
     inkscape:label="HAL Color Monitor"
     style="display:inline;opacity:1"
     transform="translate(0,3.174975)"
     inkscape:highlight-color="#3e99e3"><path
       id="path88"
       style="display:inline;opacity:1;fill:url(#radialGradient91);fill-opacity:1;stroke:none;stroke-width:0.264583;stroke-linecap:round;stroke-dasharray:none;stroke-opacity:1;paint-order:normal"
       d="m 59.266665,37.041666 0.661459,2.381251 c 0.270559,0.974013 0.142034,1.817227 -0.926042,1.852081 -8.023977,0.212274 -16.050298,0.396875 -24.077083,0.396875 -8.026785,0 -16.053106,-0.184601 -24.077083,-0.396875 -1.0948414,0.06619 -1.831979,-0.937709 -1.9843748,-1.852083 l -0.396875,-2.381249 z"
       sodipodi:nodetypes="cssssscc"
       inkscape:label="UnderShadow"
       sodipodi:insensitive="true" /><path
       id="rect8"
       style="display:inline;opacity:1;fill:url(#linearGradient21);fill-opacity:1;stroke:none;stroke-width:0.264583;stroke-linecap:round;stroke-dasharray:none;stroke-opacity:1;paint-order:normal"
       d="m 10.31875,3.0427081 c 7.846509,-0.2477845 15.697496,-0.396875 23.547916,-0.396875 7.85042,0 15.701407,0.1490906 23.547916,0.3968752 1.122717,0.035454 2.031134,0.074132 2.116667,1.9843746 0.240681,5.3751981 0.286634,10.7590441 0.264583,16.1395821 -0.02205,5.381442 -0.116135,10.765424 -0.396875,16.139584 -0.05914,1.009161 -0.387132,1.817227 -1.455208,1.852081 -8.023977,0.212274 -16.050298,0.396875 -24.077083,0.396875 -8.026785,0 -16.053106,-0.184601 -24.0770832,-0.396875 C 8.6947413,39.224515 8.4250805,38.228786 8.3343745,37.306247 8.0536348,31.932088 7.9595546,26.548107 7.9374995,21.166665 7.9154481,15.786127 7.9614023,10.402281 8.2020828,5.0270829 8.2876173,3.1168124 9.1960736,3.078161 10.31875,3.0427081 Z"
       sodipodi:nodetypes="sssssssssssss"
       inkscape:label="Front Surface"
       sodipodi:insensitive="true" /><path
       id="path26"
       style="display:inline;fill:none;stroke:url(#linearGradient28);stroke-width:0.264583;stroke-linecap:round"
       d="m 33.867183,2.7770914 c -7.848714,0 -15.697381,0.1511933 -23.542749,0.3989421 C 9.1487461,3.2131613 8.4142951,3.2830782 8.3359251,5.0332844 8.0953884,10.40527 8.0482583,15.786748 8.0703083,21.166149 c 0.02204,5.380241 0.1157785,10.761786 0.3963582,16.132866 0.084925,1.448904 0.7281042,1.706935 1.3280843,1.726509 8.0232962,0.212256 16.0475352,0.398409 24.0719152,0.398425 h 10e-4 c 8.02438,-1.6e-5 16.048619,-0.186169 24.071915,-0.398425 0.600033,-0.01957 1.243162,-0.277661 1.328084,-1.726509 0.28058,-5.37108 0.374318,-10.752625 0.396358,-16.132866 C 59.686104,15.786748 59.638978,10.40527 59.39844,5.0332844 59.320073,3.2830782 58.585619,3.2131613 57.409931,3.1760335 49.564563,2.9282847 41.715897,2.7770914 33.867183,2.7770914 Z"
       sodipodi:nodetypes="ssccccssccssss"
       inkscape:label="FrontSurfaceBorder"
       sodipodi:insensitive="true" /><rect
       style="display:inline;opacity:1;mix-blend-mode:normal;fill:url(#linearGradient40);fill-opacity:0.75;stroke:none;stroke-width:0.0662532;stroke-linecap:round;stroke-miterlimit:3.3"
       id="rect6"
       width="44.185417"
       height="28.839581"
       x="11.773958"
       y="6.2177324"
       rx="7.29995e-18"
       ry="7.4116591e-18"
       inkscape:label="InnerPanel"
       sodipodi:insensitive="true" /><rect
       style="display:inline;fill:url(#linearGradient39);fill-opacity:1;stroke:none;stroke-width:0.264584;stroke-miterlimit:3.6;stroke-opacity:0.5;paint-order:fill markers stroke"
       id="rect38"
       width="0.52916694"
       height="28.574997"
       x="50.535412"
       y="6.3499994"
       inkscape:label="ControlPanelEdge"
       sodipodi:insensitive="true" /><path
       id="path10"
       style="display:inline;fill:url(#linearGradient24);fill-opacity:1;stroke:none;stroke-width:0.227406;stroke-linecap:round"
       inkscape:label="InnerBevel"
       d="m 33.866666,5.2916666 c -6.922955,0 -13.845655,0.1268576 -20.765657,0.3343465 -1.037017,0.031094 -1.685292,0.089669 -1.754415,1.5554606 -0.212166,4.4990223 -0.253542,9.0055703 -0.234094,13.5108033 0.01944,4.505937 0.102361,9.013055 0.349849,13.511319 0.07491,1.213453 0.641776,1.429513 1.170988,1.445907 7.076946,0.177764 14.154912,0.333819 21.232812,0.33383 h 10e-4 c 7.077903,-1.1e-5 14.155351,-0.156066 21.232295,-0.33383 0.52926,-0.01637 1.0966,-0.2325 1.171505,-1.445907 0.247486,-4.498264 0.330409,-9.005382 0.349849,-13.511319 0.01948,-4.505233 -0.02191,-9.011781 -0.234094,-13.5108033 C 56.317618,5.715681 55.669339,5.6571073 54.632323,5.6260131 47.71232,5.4185242 40.789621,5.2916666 33.866666,5.2916666 Z m 0,1.0583333 c 6.681464,0 13.363056,0.1179128 20.04167,0.3110921 1.000842,0.02895 1.625694,0.08327 1.692403,1.4479736 0.204768,4.1887454 0.245143,8.3850664 0.226343,12.5795934 -0.01876,4.195184 -0.09859,8.391554 -0.337447,12.579594 -0.07229,1.129723 -0.619883,1.330921 -1.13068,1.346171 -6.830081,0.165504 -13.660766,0.310564 -20.491772,0.310575 h -10e-4 c -6.831003,-1.1e-5 -13.66169,-0.145071 -20.491772,-0.310575 -0.510752,-0.01526 -1.05839,-0.216405 -1.13068,-1.346171 -0.238855,-4.18804 -0.318687,-8.38441 -0.337447,-12.579594 -0.01877,-4.194527 0.02158,-8.390848 0.226343,-12.5795934 C 12.199337,6.7443634 12.824187,6.690042 13.82503,6.661092 20.503643,6.4679127 27.185238,6.3499999 33.8667,6.3499999 Z"
       sodipodi:insensitive="true" /><rect
       style="display:inline;opacity:1;fill:#000000;fill-opacity:1;stroke:none;stroke-width:0.0661458;stroke-linecap:round;stroke-miterlimit:3.3"
       id="rect78"
       width="35.189583"
       height="26.193748"
       x="13.890625"
       y="7.2760653"
       rx="7.3436615e-18"
       ry="7.3436632e-18"
       inkscape:label="Screen"
       sodipodi:insensitive="true" /><path
       style="display:inline;opacity:1;fill:url(#radialGradient27);stroke-width:1.51191;stroke-linecap:round;stroke-linejoin:round;stroke-miterlimit:3.3"
       d="m 25.437807,23.39675 c 0,1.511905 1.511897,3.023809 3.023791,3.023809 -1.511894,3.023806 -4.535709,3.023806 -7.559515,4.535714 1.511894,-3.023806 1.511894,-6.047618 4.535724,-7.559523 z"
       id="path18"
       inkscape:label="Fire"
       sodipodi:nodetypes="cccc" /><path
       style="display:inline;opacity:1;fill:url(#linearGradient13-9);fill-opacity:1;stroke-width:1.51191;stroke-linecap:round;stroke-linejoin:round;stroke-miterlimit:3.3"
       d="m 31.097712,20.741194 c 2.27434,2.267852 3.41151,5.672879 3.41151,10.215079 3.023811,-3.023806 4.535719,-12.095235 1.511905,-15.119045 z"
       id="path2-7"
       sodipodi:nodetypes="cccc"
       inkscape:label="Right Fin" /><path
       style="display:inline;opacity:1;fill:url(#linearGradient18-2);fill-opacity:1;stroke-width:1.51191;stroke-linecap:round;stroke-linejoin:round;stroke-miterlimit:3.3"
       d="m 20.902083,17.349132 c 4.52924,0 7.927759,1.130688 10.195629,3.392062 l 4.923415,-4.903966 C 32.99732,12.813415 23.925889,14.325321 20.902083,17.349132 Z"
       id="path8-8"
       sodipodi:nodetypes="cccc"
       inkscape:label="Left Fin" /><path
       style="display:inline;opacity:1;fill:url(#linearGradient4-1);fill-opacity:1;stroke-width:1.51191;stroke-linecap:round;stroke-linejoin:round;stroke-miterlimit:3.3"
       d="m 42.068749,9.7896066 c 0,9.0714314 -7.559527,13.6071434 -13.607151,16.6309524 -1.511894,0 -3.023791,-1.511904 -3.023791,-3.023809 C 28.461598,17.349134 32.99732,9.7896066 42.068749,9.7896066 Z"
       id="path1-4"
       inkscape:label="Rocket"
       sodipodi:nodetypes="cccc" /><circle
       style="display:inline;opacity:1;fill:url(#radialGradient15);fill-opacity:1;stroke:#000000;stroke-width:0.44095;stroke-linecap:round;stroke-linejoin:round;stroke-miterlimit:3.3;stroke-dasharray:none;stroke-opacity:0.25;paint-order:stroke fill markers"
       id="path3-5"
       cx="35.895134"
       cy="15.963214"
       inkscape:label="Window"
       r="1.5875001" /><rect
       style="display:inline;opacity:1;fill:url(#radialGradient82);stroke:none;stroke-width:0.0661458;stroke-linecap:round;stroke-miterlimit:3.3"
       id="rect79"
       width="35.189583"
       height="26.193748"
       x="13.890625"
       y="7.2760653"
       rx="7.3436615e-18"
       ry="7.3436632e-18"
       inkscape:label="Screen Reflection"
       sodipodi:insensitive="true" /><path
       id="rect12"
       style="display:inline;opacity:1;fill:url(#linearGradient35);stroke-width:0.264583;stroke-miterlimit:3.6;stroke-opacity:0.5;paint-order:fill markers stroke"
       inkscape:label="ScreenBevel"
       d="m 13.758333,6.8791915 c -0.293159,0 -0.529167,0.2360089 -0.529167,0.5291666 V 33.337524 c 0,0.293158 0.236008,0.529167 0.529167,0.529167 0,0 11.818067,0.264583 17.727083,0.264583 5.909016,0 17.727083,-0.264583 17.727083,-0.264583 0.293158,0 0.529167,-0.236009 0.529167,-0.529167 V 7.4083581 c 0,-0.2931577 -0.236009,-0.5291666 -0.529167,-0.5291666 z m 17.727083,0.5291666 c 5.559043,5e-7 11.113877,0.3138617 16.66875,0.5291667 0.34076,0.013206 0.516776,0.1450663 0.529166,0.5291666 0.484736,7.8579576 0.456441,15.9655366 0,23.8124996 -0.01539,0.264549 -0.264583,0.510417 -0.529166,0.529167 -5.465711,0.387332 -11.189332,0.529166 -16.66875,0.529166 -5.39141,0 -11.026669,-0.142096 -16.404166,-0.529166 -0.264584,-0.01904 -0.495183,-0.265954 -0.529167,-0.529167 C 13.541735,24.453903 14.033223,16.326558 14.2875,8.4666914 14.2999,8.0826369 14.475836,7.9507353 14.816666,7.9375248 20.371539,7.7222198 25.929172,7.4083576 31.485416,7.4083581 Z"
       sodipodi:nodetypes="ssscscsssssscssssscss"
       sodipodi:insensitive="true" /><g
       inkscape:groupmode="layer"
       id="g44"
       inkscape:label="Badge"
       style="display:inline;opacity:1;mix-blend-mode:normal;stroke-width:1.2"
       transform="matrix(0.83333342,0,0,0.83333342,5.9972146,1.6756918)"
       sodipodi:insensitive="true"><rect
         style="display:inline;opacity:1;mix-blend-mode:normal;fill:url(#linearGradient9-9);fill-opacity:1;stroke:#000000;stroke-width:0.3175;stroke-linecap:round;stroke-linejoin:round;stroke-dasharray:none;stroke-opacity:0.5;paint-order:markers stroke fill"
         id="rect7-1"
         width="3.8099997"
         height="4.7624989"
         x="54.715836"
         y="8.7841682"
         rx="8.8123943e-18"
         inkscape:label="Panel"
         ry="8.8123943e-18" /><use
         x="0"
         y="0"
         xlink:href="#text1"
         id="use49"
         inkscape:label="HAL"
         style="display:inline;opacity:1;mix-blend-mode:normal"
         transform="matrix(1.1999999,0,0,1.1999999,47.730834,-55.35082)" /><path
         id="path52"
         style="font-style:italic;font-size:0.846668px;line-height:1;font-family:'Droid Serif';-inkscape-font-specification:'Droid Serif Italic';letter-spacing:0px;word-spacing:0px;display:inline;opacity:1;mix-blend-mode:normal;fill:#000000;fill-opacity:1;stroke-width:0.381;stroke-miterlimit:3.6;stroke-opacity:0.5;paint-order:fill markers stroke"
         d="m 57.11507,11.006669 c -0.0092,0 -0.01671,0.0037 -0.02232,0.01103 -0.0055,0.0072 -0.0081,0.01702 -0.0081,0.02894 0,0.02055 0.0095,0.03032 0.02853,0.03032 0.0089,0 0.01609,-0.0031 0.02171,-0.0096 0.0058,-0.0068 0.0087,-0.01679 0.0087,-0.02963 0,-0.02074 -0.0095,-0.03101 -0.02853,-0.03101 z m -1.146596,6.65e-4 -0.0043,0.02412 h 0.0043 c 0.02378,0 0.03534,0.0086 0.03534,0.02619 0,0.0033 -0.0018,0.01312 -0.005,0.02963 l -0.06573,0.348682 h 0.04713 l 0.02728,-0.14471 c 0.0053,-0.02752 0.01801,-0.05494 0.03782,-0.08338 0.01998,-0.02862 0.03947,-0.04341 0.05829,-0.04341 0.01552,0 0.02356,0.01156 0.02356,0.03376 0,0.0123 -0.0025,0.02962 -0.0074,0.05237 l -0.01179,0.05857 c -0.0064,0.03358 -0.0099,0.05855 -0.0099,0.0758 0,0.01725 0.0041,0.03125 0.0124,0.04135 0.0084,0.01009 0.01945,0.01516 0.03349,0.01516 0.01916,0 0.03989,-0.0111 0.06201,-0.03239 l -0.0087,-0.01654 c -0.01189,0.0086 -0.02312,0.01309 -0.03286,0.01309 -0.01189,0 -0.01798,-0.0089 -0.01798,-0.02687 0,-0.01688 0.0023,-0.03669 0.0068,-0.05926 l 0.01302,-0.06684 c 0.0061,-0.02936 0.0093,-0.0494 0.0093,-0.06133 0,-0.04165 -0.01778,-0.0627 -0.05395,-0.0627 -0.03451,0 -0.06618,0.02515 -0.09426,0.0758 h -0.005 c 0.0074,-0.03157 0.0139,-0.06289 0.01985,-0.09372 l 0.01984,-0.103364 z m -0.858862,0.02619 -0.0043,0.02343 h 0.0068 c 0.01453,0 0.0239,0.0023 0.02853,0.0069 0.0046,0.0046 0.0068,0.01118 0.0068,0.01998 0,0.0039 -2.41e-4,0.0086 -0.0013,0.01378 l -0.05271,0.277015 c -0.0023,0.01174 -0.0069,0.02077 -0.01364,0.02757 -0.0066,0.0066 -0.0188,0.0096 -0.03597,0.0096 h -0.0068 l -0.0037,0.02412 h 0.272232 l 0.02232,-0.09854 h -0.02666 l -0.0081,0.02412 c -0.0097,0.03083 -0.0291,0.04617 -0.05767,0.04617 h -0.09736 l 0.03225,-0.168828 h 0.122163 l 0.005,-0.02757 h -0.122163 l 0.02915,-0.149533 h 0.08496 c 0.02411,0 0.03597,0.01207 0.03597,0.03721 0,0.0015 -4.01e-4,0.007 -0.0013,0.01585 l -0.0013,0.01722 h 0.02667 l 0.01612,-0.09854 z m 1.820043,0.03032 c -0.01866,0.05266 -0.04449,0.07925 -0.07751,0.07925 l -0.0043,0.02274 h 0.03845 l -0.03101,0.162626 c -0.0033,0.01744 -0.005,0.03273 -0.005,0.04686 0,0.04386 0.01836,0.06615 0.05519,0.06615 0.02279,0 0.04542,-0.0089 0.06821,-0.02687 l -0.0087,-0.02136 c -0.01387,0.0083 -0.02722,0.0124 -0.04093,0.0124 -0.018,0 -0.02728,-0.01046 -0.02728,-0.03101 0,-0.01065 0.0021,-0.02658 0.0062,-0.04824 l 0.03101,-0.160559 h 0.06139 l 0.0062,-0.03238 h -0.06139 l 0.01302,-0.0696 z m 0.805533,0.04203 c -0.02047,0 -0.03856,0.01336 -0.05457,0.03997 -0.01321,-0.01192 -0.03045,-0.01792 -0.05209,-0.01792 -0.03534,0 -0.06394,0.01322 -0.08558,0.03928 -0.02147,0.02587 -0.03225,0.05439 -0.03225,0.08614 0,0.03211 0.01173,0.05455 0.03534,0.06684 -0.01866,0.01065 -0.03105,0.02018 -0.03782,0.02825 -0.0066,0.0081 -0.0099,0.01738 -0.0099,0.02894 0,0.01706 0.008,0.03047 0.02419,0.03927 -0.0256,0.0055 -0.04591,0.01481 -0.06077,0.02894 -0.0147,0.01431 -0.0217,0.03219 -0.0217,0.05237 0,0.049 0.03657,0.07304 0.110381,0.07304 0.04409,0 0.07792,-0.01 0.101699,-0.02963 0.02378,-0.01945 0.03597,-0.04627 0.03597,-0.08131 0,-0.04294 -0.02624,-0.06749 -0.07876,-0.07373 l -0.04899,-0.0062 c -0.01734,-0.0019 -0.02542,-0.0072 -0.02542,-0.01654 0,-0.01284 0.01186,-0.02501 0.03597,-0.03583 0.003,7.32e-4 0.0084,0.0014 0.01612,0.0014 0.03484,0 0.06303,-0.01304 0.08434,-0.03928 0.0213,-0.02643 0.03162,-0.05526 0.03162,-0.08683 0,-0.01725 -0.0037,-0.03167 -0.01116,-0.04341 0.01007,-0.0086 0.01882,-0.01309 0.02542,-0.01309 0.0094,0 0.01364,0.0064 0.01364,0.01998 0.01998,0 0.03038,-0.01115 0.03038,-0.03445 0,-0.01725 -0.009,-0.02619 -0.02605,-0.02619 z m -1.898179,0.02205 c -0.04359,0 -0.07995,0.02091 -0.10852,0.06202 -0.02857,0.04092 -0.04279,0.08588 -0.04279,0.135062 0,0.03615 0.0091,0.06471 0.02729,0.08545 0.01817,0.02074 0.04238,0.03101 0.07193,0.03101 0.02675,0 0.04802,-0.007 0.06387,-0.01999 0.01602,-0.01322 0.02357,-0.02698 0.02357,-0.04203 0,-0.007 -0.0015,-0.01207 -0.005,-0.01447 -0.01916,0.02697 -0.04361,0.04065 -0.07317,0.04065 -0.03715,0 -0.05581,-0.02547 -0.05581,-0.07649 0,-0.03762 0.0092,-0.07581 0.02667,-0.115079 0.01767,-0.03927 0.03778,-0.05926 0.06139,-0.05926 0.01222,0 0.02221,0.0063 0.02914,0.0186 0.0069,0.01211 0.01055,0.02824 0.01055,0.04824 0.0137,0 0.02415,-0.0035 0.03225,-0.01103 0.0083,-0.0075 0.0124,-0.01756 0.0124,-0.02894 0,-0.01541 -0.0062,-0.02762 -0.01923,-0.0379 -0.01304,-0.01027 -0.03129,-0.01585 -0.05457,-0.01585 z m 0.550664,0 c -0.04277,0 -0.07884,0.02193 -0.1079,0.06615 -0.0289,0.04422 -0.04341,0.09227 -0.04341,0.144021 0,0.03248 0.006,0.05832 0.01736,0.07649 0.01156,0.01798 0.02773,0.02687 0.04837,0.02687 0.03897,0 0.0706,-0.03059 0.09488,-0.09096 h 0.0031 c -0.0035,0.01725 -0.005,0.03218 -0.005,0.0441 0,0.03119 0.01327,0.04686 0.03969,0.04686 0.02345,0 0.04704,-0.01138 0.07131,-0.03377 l -0.0093,-0.01654 c -0.01487,0.0097 -0.02701,0.01447 -0.03658,0.01447 -0.01107,0 -0.01674,-0.0092 -0.01674,-0.02825 0,-0.01578 0.0025,-0.03683 0.0074,-0.0627 l 0.03473,-0.180543 h -0.01612 l -0.02232,0.01447 c -0.01667,-0.01358 -0.03658,-0.02067 -0.05953,-0.02067 z m -0.817314,6.66e-4 c -0.03418,0 -0.06498,0.02515 -0.0924,0.0758 h -0.005 l 0.01364,-0.07098 h -0.09364 l -0.0043,0.02343 h 0.0037 c 0.02361,0 0.03534,0.0091 0.03534,0.02687 0,0.0064 -4.84e-4,0.01504 -0.0025,0.02549 l -0.04279,0.226712 h 0.04713 l 0.02729,-0.14471 c 0.0056,-0.02808 0.01817,-0.05581 0.03782,-0.08407 0.01981,-0.02826 0.03947,-0.04272 0.05829,-0.04272 0.01553,0 0.02295,0.01156 0.02295,0.03376 0,0.0123 -0.0025,0.02962 -0.0074,0.05237 l -0.01178,0.05857 c -0.0064,0.03358 -0.0093,0.05855 -0.0093,0.0758 0,0.01725 0.0041,0.03125 0.0124,0.04135 0.0084,0.01009 0.01945,0.01516 0.03349,0.01516 0.01916,0 0.03988,-0.0111 0.06201,-0.03239 l -0.0093,-0.01654 c -0.01189,0.0086 -0.0225,0.01309 -0.03225,0.01309 -0.01189,0 -0.01798,-0.0089 -0.01798,-0.02687 0,-0.01688 0.0023,-0.03669 0.0068,-0.05926 l 0.01302,-0.06615 c 0.0061,-0.02936 0.0093,-0.05009 0.0093,-0.06202 0,-0.04165 -0.01841,-0.0627 -0.05457,-0.0627 z m 1.149077,0 c -0.03418,0 -0.06498,0.02515 -0.0924,0.0758 h -0.005 l 0.01364,-0.07098 h -0.09426 l -0.0043,0.02343 h 0.0037 c 0.02361,0 0.03597,0.0091 0.03597,0.02687 0,0.0064 -0.0011,0.01504 -0.0031,0.02549 l -0.04279,0.226712 h 0.04713 l 0.02729,-0.14471 c 0.0056,-0.02808 0.01817,-0.05581 0.03782,-0.08407 0.01981,-0.02826 0.03947,-0.04272 0.05829,-0.04272 0.01552,0 0.02294,0.01156 0.02294,0.03376 0,0.0123 -0.0025,0.02962 -0.0074,0.05237 l -0.01116,0.05857 c -0.0064,0.03358 -0.0099,0.05855 -0.0099,0.0758 0,0.01725 0.0041,0.03125 0.0124,0.04135 0.0084,0.01009 0.01945,0.01516 0.03349,0.01516 0.01916,0 0.03989,-0.0111 0.06201,-0.03239 l -0.0093,-0.01654 c -0.01189,0.0086 -0.02251,0.01309 -0.03225,0.01309 -0.01189,0 -0.01799,-0.0089 -0.01799,-0.02687 0,-0.01688 0.0023,-0.03669 0.0068,-0.05926 l 0.01302,-0.06615 c 0.0061,-0.02936 0.0093,-0.05009 0.0093,-0.06202 0,-0.04165 -0.01778,-0.0627 -0.05395,-0.0627 z m 0.644922,0 c -0.03418,0 -0.06498,0.02515 -0.0924,0.0758 h -0.005 l 0.01364,-0.07098 h -0.09426 l -0.0043,0.02343 h 0.0043 c 0.02361,0 0.03534,0.0091 0.03534,0.02687 0,0.0064 -0.0011,0.01504 -0.0031,0.02549 l -0.04279,0.226712 h 0.04713 l 0.02729,-0.14471 c 0.0056,-0.02808 0.01879,-0.05581 0.03845,-0.08407 0.01981,-0.02826 0.03884,-0.04272 0.05767,-0.04272 0.01552,0 0.02356,0.01156 0.02356,0.03376 0,0.0123 -0.0025,0.02962 -0.0074,0.05237 l -0.01179,0.05857 c -0.0064,0.03358 -0.0099,0.05855 -0.0099,0.0758 0,0.01725 0.0041,0.03125 0.0124,0.04135 0.0084,0.01009 0.02007,0.01516 0.0341,0.01516 0.01915,0 0.03926,-0.0111 0.06139,-0.03239 l -0.0087,-0.01654 c -0.01189,0.0086 -0.02312,0.01309 -0.03286,0.01309 -0.01189,0 -0.01736,-0.0089 -0.01736,-0.02687 0,-0.01688 0.0017,-0.03669 0.0062,-0.05926 l 0.01302,-0.06684 c 0.0061,-0.02936 0.0093,-0.0494 0.0093,-0.06133 0,-0.04165 -0.01778,-0.06271 -0.05395,-0.06271 z m -0.329282,0.0048 -0.0043,0.02343 h 0.0068 c 0.02064,0 0.03101,0.0083 0.03101,0.02412 0,0.0039 -7.19e-4,0.0084 -0.0019,0.01447 l -0.01984,0.104053 c -0.0076,0.0422 -0.01116,0.07132 -0.01116,0.0882 0,0.01541 0.004,0.0285 0.01178,0.03859 0.0078,0.01009 0.01784,0.01516 0.03038,0.01516 0.02229,0 0.04539,-0.01138 0.06883,-0.03377 l -0.0093,-0.01654 c -0.01453,0.0097 -0.02684,0.01447 -0.03658,0.01447 -0.01123,0 -0.01675,-0.0092 -0.01675,-0.02825 0,-0.01468 0.0023,-0.03573 0.0074,-0.0627 l 0.03473,-0.181232 z m -0.644302,0.01999 c 0.01784,0 0.03007,0.0064 0.03782,0.01998 l -0.0186,0.09992 c -0.0059,0.03284 -0.0181,0.06325 -0.03659,0.09096 -0.0185,0.02771 -0.03649,0.04135 -0.05333,0.04135 -0.0213,0 -0.03162,-0.02129 -0.03162,-0.06478 0,-0.04312 0.0097,-0.08537 0.02914,-0.126104 0.01965,-0.04092 0.04428,-0.06133 0.07317,-0.06133 z m 1.231553,6.66e-4 c 0.02328,0 0.03473,0.01534 0.03473,0.04617 0,0.02532 -0.0061,0.04882 -0.01798,0.07029 -0.01173,0.02129 -0.02719,0.0317 -0.04651,0.0317 -0.02344,0 -0.03534,-0.01534 -0.03534,-0.04617 0,-0.02495 0.0058,-0.04813 0.01736,-0.0696 0.01173,-0.02165 0.02793,-0.03239 0.04775,-0.03239 z m -0.07503,0.274948 0.04899,0.0048 c 0.03154,0.0031 0.04775,0.01744 0.04775,0.04203 0,0.02074 -0.0079,0.03682 -0.02356,0.04892 -0.01552,0.0123 -0.03849,0.0186 -0.06821,0.0186 -0.04772,0 -0.07131,-0.01626 -0.07131,-0.04892 0,-0.01523 0.0043,-0.02813 0.01302,-0.03859 0.0088,-0.01045 0.01895,-0.0175 0.03101,-0.02136 0.01222,-0.0039 0.01985,-0.0057 0.02233,-0.0055 z m -0.595932,0.283218 c -0.0092,0 -0.01671,0.0037 -0.02233,0.01103 -0.0055,0.0072 -0.0081,0.01702 -0.0081,0.02894 0,0.02055 0.0095,0.03032 0.02853,0.03032 0.0089,0 0.01609,-0.0031 0.0217,-0.0096 0.0058,-0.0068 0.0087,-0.01678 0.0087,-0.02963 0,-0.02074 -0.0095,-0.03101 -0.02853,-0.03101 z m -1.242095,6.66e-4 -0.005,0.02412 h 0.0062 c 0.02378,0 0.03597,0.0086 0.03597,0.02619 0,0.0057 -0.0016,0.0143 -0.0037,0.02549 l -0.04093,0.216375 c -0.0074,0.04129 -0.01116,0.0704 -0.01116,0.0882 0,0.01578 0.0034,0.02868 0.01116,0.03859 0.0079,0.0099 0.01817,0.01516 0.03038,0.01516 0.02229,0 0.04539,-0.01138 0.06883,-0.03377 l -0.0093,-0.01654 c -0.01453,0.0097 -0.02684,0.01447 -0.03658,0.01447 -0.01123,0 -0.01675,-0.0092 -0.01675,-0.02825 0,-0.01486 0.0029,-0.03591 0.0081,-0.0627 l 0.05829,-0.307336 z m 1.864692,0 -0.0043,0.02412 h 0.0056 c 0.02378,0 0.03597,0.0086 0.03597,0.02619 0,0.0057 -9.59e-4,0.0143 -0.0031,0.02549 l -0.04154,0.216375 c -0.0074,0.04129 -0.01116,0.0704 -0.01116,0.0882 0,0.01578 0.004,0.02868 0.01178,0.03859 0.0079,0.0099 0.01817,0.01516 0.03038,0.01516 0.02229,0 0.04477,-0.01138 0.06821,-0.03377 l -0.0093,-0.01654 c -0.01453,0.0097 -0.02623,0.01447 -0.03597,0.01447 -0.01123,0 -0.01675,-0.0092 -0.01675,-0.02825 0,-0.01486 0.0023,-0.03591 0.0074,-0.0627 l 0.05891,-0.307336 z m -2.294433,0.01999 c -0.05945,0 -0.109486,0.02644 -0.149448,0.07856 -0.03996,0.05193 -0.05953,0.113478 -0.05953,0.184676 0,0.04808 0.01198,0.08539 0.03658,0.111634 0.02477,0.02624 0.05947,0.03928 0.10356,0.03928 0.03303,0 0.05869,-0.0074 0.07751,-0.02137 0.01883,-0.01413 0.02853,-0.03025 0.02853,-0.04824 0,-0.009 -0.0023,-0.0151 -0.0068,-0.0186 -0.02345,0.03414 -0.05512,0.05168 -0.09426,0.05168 -0.06011,0 -0.08992,-0.03515 -0.08992,-0.105431 0,-0.06 0.01409,-0.115609 0.04217,-0.166072 0.02824,-0.05065 0.06302,-0.0758 0.104799,-0.0758 0.03369,0 0.05085,0.02547 0.05085,0.07649 0.01503,0 0.02688,-0.0038 0.03597,-0.01172 0.0091,-0.0079 0.01364,-0.01899 0.01364,-0.03238 0,-0.01927 -0.0083,-0.03429 -0.02481,-0.04548 -0.01651,-0.01138 -0.03928,-0.01722 -0.06883,-0.01722 z m 1.254497,0.0062 -0.0043,0.02343 h 0.0062 c 0.02444,0 0.03659,0.0077 0.03659,0.02274 0,0.0035 -5.43e-4,0.0089 -0.0019,0.01585 l -0.05271,0.276327 c -0.0051,0.02697 -0.02154,0.03997 -0.04961,0.03997 h -0.0068 l -0.0043,0.02412 h 0.15999 c 0.06159,0 0.110764,-0.024 0.147588,-0.07098 0.03682,-0.04716 0.05519,-0.106543 0.05519,-0.178475 0,-0.04918 -0.01228,-0.08659 -0.03721,-0.113012 -0.02494,-0.02661 -0.06059,-0.03997 -0.10666,-0.03997 z m 0.09426,0.02756 h 0.04031 c 0.06424,0 0.09612,0.03994 0.09612,0.119213 0,0.0679 -0.01422,0.123041 -0.04279,0.164694 -0.0284,0.04165 -0.06708,0.06202 -0.115962,0.06202 h -0.04403 z m -1.093266,0.06684 c -0.04508,0 -0.08185,0.02027 -0.10976,0.06064 -0.02774,0.04019 -0.04155,0.08579 -0.04155,0.13644 0,0.03652 0.0089,0.0649 0.02605,0.08545 0.01717,0.02055 0.04077,0.03101 0.07131,0.03101 0.04491,0 0.08156,-0.02027 0.10914,-0.06064 0.02758,-0.04055 0.04093,-0.08634 0.04093,-0.136441 0,-0.0378 -0.0083,-0.06613 -0.02542,-0.08614 -0.01717,-0.02 -0.0408,-0.03032 -0.07069,-0.03032 z m 0.445244,0 c -0.04508,0 -0.08123,0.02027 -0.10914,0.06064 -0.02774,0.04019 -0.04155,0.08579 -0.04155,0.13644 0,0.03652 0.0083,0.0649 0.02542,0.08545 0.01717,0.02055 0.04138,0.03101 0.07193,0.03101 0.04491,0 0.08094,-0.02027 0.108521,-0.06064 0.02758,-0.04055 0.04154,-0.08634 0.04154,-0.136441 0,-0.0378 -0.0089,-0.06613 -0.02604,-0.08614 -0.01717,-0.02 -0.0408,-0.03032 -0.07069,-0.03032 z m 0.31688,0 c -0.01751,0 -0.03268,0.0058 -0.04589,0.01792 -0.01321,0.01211 -0.02676,0.03533 -0.04031,0.06891 h -0.005 l 0.01054,-0.08131 h -0.0893 l -0.005,0.02343 h 0.0043 c 0.02692,0 0.04031,0.0091 0.04031,0.02687 0,0.0064 -0.0011,0.01504 -0.0031,0.02549 l -0.04279,0.226712 h 0.04775 l 0.0186,-0.102675 c 0.0084,-0.0433 0.02156,-0.08214 0.03907,-0.116457 0.01767,-0.03432 0.03454,-0.05168 0.05023,-0.05168 0.01354,0 0.02046,0.01507 0.02046,0.04479 0.02807,0 0.04217,-0.01479 0.04217,-0.04341 0,-0.02587 -0.01443,-0.03859 -0.04217,-0.03859 z m 1.134815,0 c -0.03748,0 -0.06858,0.02686 -0.09302,0.08062 h -0.0025 l 0.0124,-0.07511 h -0.08992 l -0.0043,0.02343 h 0.0037 c 0.02361,0 0.03534,0.0091 0.03534,0.02687 0,0.0041 -0.0014,0.01385 -0.0043,0.02963 l -0.06759,0.35764 h 0.0955 l 0.0043,-0.02343 h -0.0068 c -0.02361,0 -0.03534,-0.0088 -0.03534,-0.02619 0,-0.0053 0.0018,-0.0161 0.005,-0.0317 l 0.0068,-0.03446 c 0.0013,-0.0061 0.0029,-0.01476 0.0043,-0.02687 0.0137,0.0086 0.03029,0.01309 0.04961,0.01309 0.04426,0 0.08028,-0.02308 0.108521,-0.06822 0.02841,-0.04532 0.04279,-0.09287 0.04279,-0.143331 0,-0.03303 -0.0055,-0.05837 -0.01674,-0.0758 -0.01106,-0.01743 -0.02711,-0.02619 -0.04775,-0.02619 z m 0.413618,0 c -0.04277,0 -0.07884,0.02193 -0.107901,0.06615 -0.0289,0.04422 -0.04341,0.09227 -0.04341,0.14402 0,0.03248 0.006,0.05832 0.01736,0.07649 0.01156,0.01798 0.02773,0.02687 0.04837,0.02687 0.03897,0 0.0706,-0.03059 0.09488,-0.09096 h 0.0031 c -0.0035,0.01725 -0.0056,0.03218 -0.0056,0.0441 0,0.03119 0.01326,0.04686 0.03969,0.04686 0.02345,0 0.04766,-0.01138 0.07193,-0.03377 l -0.0093,-0.01654 c -0.01487,0.0097 -0.02701,0.01447 -0.03658,0.01447 -0.01107,0 -0.01675,-0.0092 -0.01675,-0.02825 0,-0.01578 0.0025,-0.03683 0.0074,-0.0627 l 0.03473,-0.180543 h -0.01612 l -0.02233,0.01447 c -0.01668,-0.01357 -0.03658,-0.02067 -0.05953,-0.02067 z m -0.713135,6.66e-4 c -0.02907,0 -0.05253,0.0076 -0.07069,0.02343 -0.018,0.0156 -0.02729,0.03605 -0.02729,0.06064 0,0.01798 0.0041,0.03378 0.0124,0.04754 0.0084,0.01357 0.02534,0.02643 0.04961,0.03927 0.01866,0.0095 0.03131,0.01959 0.03907,0.02894 0.0078,0.0092 0.01178,0.02037 0.01178,0.03376 0,0.03487 -0.01808,0.05237 -0.05457,0.05237 -0.01833,0 -0.03255,-0.0065 -0.04279,-0.01929 -0.01007,-0.01303 -0.0155,-0.03113 -0.0155,-0.05444 -0.0092,0 -0.01684,0.0025 -0.02295,0.009 -0.0059,0.0063 -0.0087,0.01545 -0.0087,0.02756 0,0.01946 0.0073,0.0353 0.02232,0.04686 0.01519,0.01138 0.03579,0.01722 0.06139,0.01722 0.0317,0 0.05712,-0.0084 0.07627,-0.02549 0.01916,-0.01707 0.02853,-0.03982 0.02853,-0.06753 0,-0.03816 -0.02015,-0.06733 -0.06077,-0.08751 -0.01767,-0.0086 -0.03065,-0.01738 -0.03907,-0.02619 -0.0084,-0.0088 -0.0124,-0.01922 -0.0124,-0.0317 0,-0.01413 0.0043,-0.02615 0.01302,-0.03514 0.0089,-0.0092 0.02078,-0.01378 0.03597,-0.01378 0.01437,0 0.02556,0.0059 0.03349,0.01722 0.0081,0.01138 0.0124,0.02658 0.0124,0.04548 0.02544,0 0.03782,-0.01184 0.03782,-0.03514 0,-0.01505 -0.007,-0.02762 -0.02108,-0.0379 -0.01387,-0.01027 -0.03336,-0.01516 -0.05829,-0.01516 z m 1.041176,0 c -0.0089,0 -0.01634,0.0035 -0.02294,0.01103 -0.0066,0.0075 -0.0099,0.01766 -0.0099,0.03032 0.01667,0 0.02481,0.01064 0.02481,0.03101 0,0.04752 -0.02247,0.109491 -0.06821,0.186744 h -0.0019 c -0.002,-0.02092 -0.0089,-0.05483 -0.02108,-0.101986 l -0.03969,-0.152289 h -0.0738 l -0.0043,0.02343 h 0.0056 c 0.01007,0 0.0172,0.0023 0.02232,0.0069 0.0052,0.0044 0.0094,0.01242 0.0124,0.02343 l 0.06697,0.249452 c -0.04657,0.06845 -0.09424,0.102674 -0.142626,0.102674 -0.01453,0 -0.02779,-0.0027 -0.03969,-0.0069 l -0.0074,0.02825 c 0.01404,0.0068 0.02992,0.01033 0.04775,0.01033 0.04491,0 0.08111,-0.01299 0.10852,-0.03997 0.02758,-0.02697 0.06418,-0.08198 0.109761,-0.164005 0.04558,-0.08221 0.06821,-0.145554 0.06821,-0.190879 0,-0.03157 -0.01177,-0.04754 -0.03473,-0.04754 z m -1.301625,0.0048 -0.005,0.02343 0.0068,6.66e-4 c 0.02064,0 0.03101,0.0076 0.03101,0.02343 0,0.0039 -7.19e-4,0.0084 -0.0019,0.01447 l -0.01922,0.104053 c -0.0076,0.04221 -0.01178,0.07132 -0.01178,0.0882 0,0.01541 0.004,0.0285 0.01178,0.03859 0.0078,0.01009 0.01784,0.01516 0.03038,0.01516 0.02229,0 0.04539,-0.01138 0.06883,-0.03377 l -0.0093,-0.01654 c -0.01453,0.0097 -0.02684,0.01447 -0.03658,0.01447 -0.01123,0 -0.01674,-0.0092 -0.01674,-0.02825 0,-0.01468 0.0029,-0.03573 0.0081,-0.06271 l 0.0341,-0.181232 z m 0.976064,0.01999 c 0.01784,0 0.03068,0.0064 0.03845,0.01998 l -0.0186,0.09992 c -0.0059,0.03285 -0.01809,0.06325 -0.03658,0.09096 -0.0185,0.02771 -0.03648,0.04135 -0.05333,0.04135 -0.0213,0 -0.03162,-0.02129 -0.03162,-0.06478 0,-0.04312 0.0097,-0.08537 0.02914,-0.126104 0.01965,-0.04092 0.04366,-0.06133 0.07255,-0.06133 z m -2.319238,0.0041 c 0.03303,0 0.04961,0.02626 0.04961,0.07856 0,0.04477 -0.0081,0.08577 -0.02481,0.122659 -0.01651,0.0367 -0.03907,0.05513 -0.06697,0.05513 -0.03352,0 -0.05023,-0.02612 -0.05023,-0.07787 0,-0.04514 0.0084,-0.08577 0.02542,-0.122659 0.01701,-0.03688 0.03939,-0.05581 0.06697,-0.05581 z m 0.445864,0 c 0.03303,0 0.04961,0.02626 0.04961,0.07856 0,0.04477 -0.0087,0.08577 -0.02542,0.122659 -0.01651,0.0367 -0.03844,0.05513 -0.06635,0.05513 -0.03352,0 -0.05023,-0.02612 -0.05023,-0.07787 0,-0.04514 0.0084,-0.08577 0.02542,-0.122659 0.01701,-0.03688 0.03939,-0.05581 0.06697,-0.05581 z m 1.438052,0.0062 c 0.0213,0 0.03225,0.02161 0.03225,0.06546 0,0.04239 -0.01011,0.08431 -0.02977,0.125415 -0.01948,0.04092 -0.04308,0.06133 -0.07131,0.06133 -0.01585,0 -0.02941,-0.0066 -0.04031,-0.01998 l 0.02046,-0.107499 c 0.0058,-0.02918 0.01813,-0.05709 0.03597,-0.08407 0.01784,-0.02716 0.03521,-0.04065 0.05271,-0.04065 z"
         inkscape:label="ECD" /><rect
         style="display:inline;opacity:1;mix-blend-mode:normal;fill:#880000;fill-opacity:1;stroke:none;stroke-width:0.538815;stroke-miterlimit:3.6;stroke-opacity:0.5;paint-order:fill markers stroke"
         id="rect45"
         width="1.2700009"
         height="0.95249999"
         x="54.715836"
         y="12.594168"
         rx="1.1749871e-17"
         ry="1.3218595e-17"
         inkscape:label="Red" /><rect
         style="display:inline;opacity:1;mix-blend-mode:normal;fill:#006611;fill-opacity:1;stroke:none;stroke-width:0.538815;stroke-miterlimit:3.6;stroke-opacity:0.5;paint-order:fill markers stroke"
         id="rect45-6"
         width="1.2700009"
         height="0.95249999"
         x="55.985836"
         y="12.594168"
         rx="1.1749871e-17"
         ry="1.3218595e-17"
         inkscape:label="Green" /><rect
         style="display:inline;opacity:1;mix-blend-mode:normal;fill:#003399;fill-opacity:1;stroke:none;stroke-width:0.538815;stroke-miterlimit:3.6;stroke-opacity:0.5;paint-order:fill markers stroke"
         id="rect45-9"
         width="1.2700009"
         height="0.95249999"
         x="57.255836"
         y="12.594167"
         rx="1.1749871e-17"
         ry="1.3218595e-17"
         inkscape:label="Blue" /></g><rect
       style="display:inline;fill:url(#radialGradient70);stroke:none;stroke-width:0.264583;stroke-miterlimit:3.6;stroke-opacity:0.5;paint-order:fill markers stroke"
       id="rect68"
       width="1.0583333"
       height="0.79374993"
       x="52.384827"
       y="-23.595871"
       rx="7.3436623e-18"
       ry="7.3436623e-18"
       transform="rotate(45)"
       inkscape:label="Led Shadow"
       sodipodi:insensitive="true" /><circle
       style="display:inline;opacity:1;mix-blend-mode:normal;fill:url(#radialGradient67);fill-opacity:1;stroke:none;stroke-width:0.529167;stroke-linecap:round;stroke-linejoin:miter;stroke-dasharray:none;stroke-opacity:0.75;paint-order:stroke markers fill"
       id="path65"
       inkscape:label="Led Emission"
       cx="53.445831"
       cy="20.637499"
       r="1.3229166"
       sodipodi:insensitive="true" /><circle
       style="display:inline;opacity:1;mix-blend-mode:normal;fill:url(#radialGradient56);fill-opacity:1;stroke:none;stroke-width:0.529167;stroke-linecap:round;stroke-linejoin:miter;stroke-dasharray:none;stroke-opacity:0.75;paint-order:stroke markers fill"
       id="path54"
       inkscape:label="LED"
       cx="53.445831"
       cy="20.637499"
       r="0.39687499"
       sodipodi:insensitive="true" /><g
       inkscape:groupmode="layer"
       id="g86"
       inkscape:label="Brightness Control"
       style="display:inline"
       transform="translate(-0.52916666,7.6729163)"
       sodipodi:insensitive="true"><path
         id="path85"
         style="display:inline;fill:url(#radialGradient86);stroke-width:0.264583;stroke-miterlimit:3.6;paint-order:stroke fill markers"
         d="m 56.345708,24.34442 -1.543481,1.543482 0.140316,-0.140317 -1.80987,-1.621927 1.684046,-1.684047 z"
         sodipodi:nodetypes="cccccc"
         inkscape:label="Shadow" /><circle
         style="display:inline;fill:url(#radialGradient87);fill-opacity:1;stroke:url(#linearGradient87);stroke-width:0.264583;stroke-miterlimit:3.6;stroke-dasharray:none;stroke-opacity:1;paint-order:stroke fill markers"
         id="circle85"
         inkscape:label="Knob Edge"
         cx="53.974998"
         cy="23.283331"
         r="1.190625" /><circle
         style="display:inline;fill:#847c6a;fill-opacity:1;stroke:url(#linearGradient88);stroke-width:0.264583;stroke-miterlimit:3.6;stroke-dasharray:none;paint-order:stroke markers fill"
         id="circle86"
         inkscape:label="Knob Top"
         cx="54.239582"
         cy="23.547915"
         r="0.92604166" /><g
         id="g15"
         inkscape:label="Face"
         transform="translate(0,-2.6494995e-5)"><circle
           style="fill:none;fill-opacity:1;stroke:#2d2b24;stroke-width:0.0661458;stroke-linecap:round;stroke-miterlimit:3.3;paint-order:normal"
           id="path7"
           cx="54.239582"
           cy="23.547915"
           r="0.49609271"
           inkscape:label="Sun" /><path
           style="fill:none;fill-opacity:1;stroke:#2d2b24;stroke-width:0.0661458;stroke-linecap:round;stroke-miterlimit:3.3;paint-order:normal"
           d="m 54.239582,22.787264 v 0.132292"
           id="path9"
           sodipodi:nodetypes="cc"
           inkscape:transform-center-y="-0.69453126"
           inkscape:label="Ray" /><use
           x="0"
           y="0"
           xlink:href="#path9"
           inkscape:transform-center-y="-0.49110783"
           id="use9"
           transform="rotate(45,54.239582,23.547941)"
           inkscape:transform-center-x="-0.49110759" /><use
           x="0"
           y="0"
           xlink:href="#path9"
           id="use10"
           transform="rotate(90,54.239582,23.547941)"
           inkscape:transform-center-x="-0.69453102" /><use
           x="0"
           y="0"
           xlink:href="#path9"
           inkscape:transform-center-y="0.49110735"
           id="use11"
           transform="rotate(135,54.239582,23.547941)"
           inkscape:transform-center-x="-0.49110759" /><use
           x="0"
           y="0"
           xlink:href="#path9"
           inkscape:transform-center-y="0.69453078"
           id="use12"
           transform="rotate(180,54.239582,23.547941)" /><use
           x="0"
           y="0"
           xlink:href="#path9"
           inkscape:transform-center-y="0.49110735"
           id="use13"
           transform="rotate(-135,54.239582,23.547941)"
           inkscape:transform-center-x="0.49110759" /><use
           x="0"
           y="0"
           xlink:href="#path9"
           id="use14"
           transform="rotate(-90,54.239582,23.547941)"
           inkscape:transform-center-x="0.69453102" /><use
           x="0"
           y="0"
           xlink:href="#path9"
           inkscape:transform-center-y="-0.49110783"
           id="use15"
           transform="rotate(-45,54.239582,23.547941)"
           inkscape:transform-center-x="0.49110759" /></g></g><g
       inkscape:groupmode="layer"
       id="g82"
       inkscape:label="Contrast Control"
       style="display:inline;opacity:1"
       transform="translate(-0.52916666,3.96875)"
       sodipodi:insensitive="true"><use
         x="0"
         y="0"
         xlink:href="#path85"
         id="use43"
         inkscape:label="Shadow"
         style="display:inline;opacity:1"
         transform="translate(2.8797163e-7,2.4968204e-5)" /><use
         x="0"
         y="0"
         xlink:href="#circle85"
         id="use44"
         inkscape:label="Knob Edge"
         style="display:inline;opacity:1"
         transform="translate(2.8797163e-7,2.4968204e-5)" /><use
         x="0"
         y="0"
         xlink:href="#circle86"
         id="use45"
         inkscape:label="Knob Top"
         style="display:inline;opacity:1"
         transform="translate(2.8797163e-7,2.4968204e-5)" /><g
         id="g4"
         inkscape:label="Face"
         transform="translate(0.00413132,-0.03723526)"><ellipse
           style="fill:none;stroke:#2d2b24;stroke-width:0.0661459;stroke-linecap:round;stroke-miterlimit:3.3;paint-order:stroke fill markers"
           id="path4"
           cx="54.235451"
           cy="23.58515"
           rx="0.69866538"
           ry="0.69866532"
           inkscape:label="Contrast Circle" /><path
           style="fill:#2d2b24;fill-opacity:1;stroke:#2d2b24;stroke-width:0.0661459;stroke-linecap:round;stroke-miterlimit:3.3;paint-order:normal"
           id="ellipse4"
           inkscape:label="Contrast Fill"
           sodipodi:type="arc"
           sodipodi:cx="54.235451"
           sodipodi:cy="23.58515"
           sodipodi:rx="0.69866538"
           sodipodi:ry="0.69866532"
           sodipodi:start="0.78539816"
           sodipodi:end="3.9269908"
           sodipodi:arc-type="slice"
           d="m 54.729482,24.079181 a 0.69866538,0.69866532 0 0 1 -0.988062,0 0.69866538,0.69866532 0 0 1 0,-0.988062 l 0.494031,0.494031 z" /></g></g><g
       inkscape:groupmode="layer"
       id="layer9"
       inkscape:label="Power-On Control"
       style="display:inline;opacity:1"
       transform="translate(-0.52916666,0.2645851)"
       sodipodi:insensitive="true"><use
         x="0"
         y="0"
         xlink:href="#path85"
         id="use46"
         inkscape:label="Shadow"
         style="display:inline;opacity:1"
         transform="translate(2.8797163e-7,2.350562e-5)" /><use
         x="0"
         y="0"
         xlink:href="#circle85"
         id="use47"
         inkscape:label="Knob Edge"
         style="display:inline;opacity:1"
         transform="translate(2.8797163e-7,2.350562e-5)" /><use
         x="0"
         y="0"
         xlink:href="#circle86"
         id="use48"
         inkscape:label="Knob Top"
         style="display:inline;opacity:1"
         transform="translate(2.8797163e-7,2.350562e-5)" /><g
         id="g3"
         inkscape:label="Face"
         transform="translate(-0.03759867,0.0075795)"><path
           style="fill:none;stroke:#2d2b24;stroke-width:0.0661458;stroke-miterlimit:3.3;marker-start:url(#RoundedArrow);marker-end:url(#RoundedArrow);paint-order:stroke fill markers"
           d="m 53.867513,24.023363 c 0.292725,0.197216 0.563019,0.181504 0.82269,0.0041"
           id="path1"
           sodipodi:nodetypes="cc"
           inkscape:label="Smile" /><path
           style="fill:none;stroke:#2d2b24;stroke-width:0.0661457;stroke-linecap:round;stroke-miterlimit:3.3;paint-order:stroke fill markers"
           d="m 53.644648,23.372256 v 0.330729"
           id="path2"
           inkscape:label="On"
           sodipodi:nodetypes="cc" /><circle
           style="fill:none;stroke:#2d2b24;stroke-width:0.0661458;stroke-linecap:round;stroke-miterlimit:3.3;paint-order:stroke fill markers"
           id="path3"
           cx="54.94313"
           cy="23.537737"
           inkscape:label="Off"
           r="0.16536459" /></g></g></g><metadata
     id="metadata23"><rdf:RDF><cc:Work
         rdf:about=""><cc:license
           rdf:resource="http://creativecommons.org/publicdomain/zero/1.0/" /></cc:Work><cc:License
         rdf:about="http://creativecommons.org/publicdomain/zero/1.0/"><cc:permits
           rdf:resource="http://creativecommons.org/ns#Reproduction" /><cc:permits
           rdf:resource="http://creativecommons.org/ns#Distribution" /><cc:permits
           rdf:resource="http://creativecommons.org/ns#DerivativeWorks" /></cc:License></rdf:RDF></metadata></svg>
