<?xml version="1.0" encoding="UTF-8" standalone="no"?>
<!-- Created with Inkscape (http://www.inkscape.org/) -->

<svg
   width="128"
   height="128"
   viewBox="0 0 33.866665 33.866667"
   version="1.1"
   id="svg1"
   xml:space="preserve"
   inkscape:version="1.3.2 (091e20ef0f, 2023-11-25, custom)"
   sodipodi:docname="app-128.svg"
   inkscape:export-filename="pc-256.png"
   inkscape:export-xdpi="96"
   inkscape:export-ydpi="96"
   xmlns:inkscape="http://www.inkscape.org/namespaces/inkscape"
   xmlns:sodipodi="http://sodipodi.sourceforge.net/DTD/sodipodi-0.dtd"
   xmlns:xlink="http://www.w3.org/1999/xlink"
   xmlns="http://www.w3.org/2000/svg"
   xmlns:svg="http://www.w3.org/2000/svg"
   xmlns:rdf="http://www.w3.org/1999/02/22-rdf-syntax-ns#"
   xmlns:cc="http://creativecommons.org/ns#"><sodipodi:namedview
     id="namedview1"
     pagecolor="#505050"
     bordercolor="#eeeeee"
     borderopacity="1"
     inkscape:showpageshadow="0"
     inkscape:pageopacity="0"
     inkscape:pagecheckerboard="true"
     inkscape:deskcolor="#505050"
     inkscape:document-units="px"
     showguides="true"
     showgrid="true"
     inkscape:zoom="6.1953125"
     inkscape:cx="64"
     inkscape:cy="64"
     inkscape:window-width="1452"
     inkscape:window-height="988"
     inkscape:window-x="0"
     inkscape:window-y="0"
     inkscape:window-maximized="0"
     inkscape:current-layer="layer2"><sodipodi:guide
       position="2.1166666,31.749999"
       orientation="-1,0"
       id="guide1"
       inkscape:locked="false"
       inkscape:label=""
       inkscape:color="rgb(87,227,137)" /><sodipodi:guide
       position="2.1166666,2.1166666"
       orientation="0,1"
       id="guide2"
       inkscape:locked="false"
       inkscape:label=""
       inkscape:color="rgb(87,227,137)" /><sodipodi:guide
       position="31.749999,31.749999"
       orientation="0,1"
       id="guide3"
       inkscape:locked="false"
       inkscape:label=""
       inkscape:color="rgb(87,227,137)" /><sodipodi:guide
       position="31.749999,2.1166666"
       orientation="-1,0"
       id="guide4"
       inkscape:locked="false"
       inkscape:label=""
       inkscape:color="rgb(87,227,137)" /><inkscape:grid
       id="grid10"
       units="px"
       originx="0"
       originy="0"
       spacingx="0.13229166"
       spacingy="0.13229166"
       empcolor="#0099e5"
       empopacity="0.30196078"
       color="#0099e5"
       opacity="0.14901961"
       empspacing="2"
       dotted="false"
       gridanglex="30"
       gridanglez="30"
       visible="true" /></sodipodi:namedview><defs
     id="defs1"><linearGradient
       id="linearGradient67"
       inkscape:collect="always"><stop
         style="stop-color:#ffffff;stop-opacity:0.2;"
         offset="0"
         id="stop75" /><stop
         style="stop-color:#ffffff;stop-opacity:0;"
         offset="1"
         id="stop78" /></linearGradient><linearGradient
       id="linearGradient36"
       inkscape:collect="always"><stop
         style="stop-color:#74706d;stop-opacity:1;"
         offset="0"
         id="stop38" /><stop
         style="stop-color:#7e7a77;stop-opacity:1;"
         offset="1"
         id="stop42" /></linearGradient><linearGradient
       id="linearGradient31"
       inkscape:collect="always"><stop
         style="stop-color:#808080;stop-opacity:1;"
         offset="0"
         id="stop26" /><stop
         style="stop-color:#000000;stop-opacity:1;"
         offset="1"
         id="stop31" /></linearGradient><marker
       style="overflow:visible"
       id="RoundedArrow"
       refX="0"
       refY="0"
       orient="auto-start-reverse"
       inkscape:stockid="Rounded arrow"
       markerWidth="0.5"
       markerHeight="0.5"
       viewBox="0 0 1 1"
       inkscape:isstock="true"
       inkscape:collect="always"
       preserveAspectRatio="xMidYMid"><path
         transform="scale(0.7)"
         d="m -0.21114562,-4.1055728 6.42229122,3.21114561 a 1,1 90 0 1 0,1.78885438 L -0.21114562,4.1055728 A 1.236068,1.236068 31.717474 0 1 -2,3 v -6 a 1.236068,1.236068 148.28253 0 1 1.78885438,-1.1055728 z"
         style="fill:context-stroke;fill-rule:evenodd;stroke:none"
         id="path8" /></marker><linearGradient
       id="linearGradient90"
       inkscape:collect="always"><stop
         style="stop-color:#000000;stop-opacity:1;"
         offset="0.24915825"
         id="stop90" /><stop
         style="stop-color:#000000;stop-opacity:0;"
         offset="1"
         id="stop91" /></linearGradient><linearGradient
       id="linearGradient80"
       inkscape:collect="always"><stop
         style="stop-color:#000000;stop-opacity:0.5;"
         offset="0"
         id="stop80" /><stop
         style="stop-color:#000000;stop-opacity:0;"
         offset="1"
         id="stop81" /></linearGradient><linearGradient
       id="linearGradient76"
       inkscape:collect="always"><stop
         style="stop-color:#bab28d;stop-opacity:1;"
         offset="0"
         id="stop76" /><stop
         style="stop-color:#b8b389;stop-opacity:0;"
         offset="0.4983165"
         id="stop77" /></linearGradient><linearGradient
       id="linearGradient73"
       inkscape:collect="always"><stop
         style="stop-color:#d6cbae;stop-opacity:1;"
         offset="0"
         id="stop73" /><stop
         style="stop-color:#9d9786;stop-opacity:1;"
         offset="1"
         id="stop74" /></linearGradient><linearGradient
       id="linearGradient71"
       inkscape:collect="always"><stop
         style="stop-color:#9d9786;stop-opacity:1;"
         offset="0"
         id="stop71" /><stop
         style="stop-color:#77705f;stop-opacity:1;"
         offset="1"
         id="stop72" /></linearGradient><linearGradient
       id="linearGradient68"
       inkscape:collect="always"><stop
         style="stop-color:#000000;stop-opacity:0.5;"
         offset="0"
         id="stop69" /><stop
         style="stop-color:#000000;stop-opacity:0;"
         offset="1"
         id="stop70" /></linearGradient><linearGradient
       id="linearGradient66"
       inkscape:collect="always"><stop
         style="stop-color:#00ff00;stop-opacity:0.2;"
         offset="0.30000001"
         id="stop68" /><stop
         style="stop-color:#00ff00;stop-opacity:0;"
         offset="1"
         id="stop67" /></linearGradient><linearGradient
       id="linearGradient63"
       inkscape:collect="always"><stop
         style="stop-color:#ffffbb;stop-opacity:1;"
         offset="0"
         id="stop56" /><stop
         style="stop-color:#aaff00;stop-opacity:1;"
         offset="0.49806201"
         id="stop62" /><stop
         style="stop-color:#00ff00;stop-opacity:1;"
         offset="1"
         id="stop63" /></linearGradient><linearGradient
       id="linearGradient38"
       inkscape:collect="always"><stop
         style="stop-color:#696663;stop-opacity:0;"
         offset="0"
         id="stop41" /><stop
         style="stop-color:#696663;stop-opacity:1;"
         offset="0.75"
         id="stop40" /><stop
         style="stop-color:#ceccca;stop-opacity:0;"
         offset="1"
         id="stop39" /></linearGradient><linearGradient
       id="linearGradient37"
       inkscape:collect="always"><stop
         style="stop-color:#413f3f;stop-opacity:1;"
         offset="0"
         id="stop35" /><stop
         style="stop-color:#726c69;stop-opacity:1;"
         offset="0.5"
         id="stop36" /><stop
         style="stop-color:#a7a5a4;stop-opacity:1;"
         offset="1"
         id="stop37" /></linearGradient><linearGradient
       id="linearGradient14"
       inkscape:collect="always"><stop
         style="stop-color:#5b5958;stop-opacity:1;"
         offset="0"
         id="stop19" /><stop
         style="stop-color:#847e7b;stop-opacity:1;"
         offset="0.5"
         id="stop25" /><stop
         style="stop-color:#c0bfbe;stop-opacity:1;"
         offset="1"
         id="stop24" /></linearGradient><linearGradient
       id="linearGradient27"
       inkscape:collect="always"><stop
         style="stop-color:#ffffff;stop-opacity:0.25;"
         offset="0"
         id="stop27" /><stop
         style="stop-color:#ffffff;stop-opacity:0;"
         offset="0.03"
         id="stop29" /><stop
         style="stop-color:#000000;stop-opacity:0;"
         offset="0.97000003"
         id="stop30" /><stop
         style="stop-color:#000000;stop-opacity:0.25;"
         offset="1"
         id="stop28" /></linearGradient><linearGradient
       id="linearGradient20"
       inkscape:collect="always"><stop
         style="stop-color:#d5d2d4;stop-opacity:1;"
         offset="0"
         id="stop20" /><stop
         style="stop-color:#abaaab;stop-opacity:1;"
         offset="0.07"
         id="stop22" /><stop
         style="stop-color:#a2a2a2;stop-opacity:1;"
         offset="0.93000001"
         id="stop23" /><stop
         style="stop-color:#686868;stop-opacity:1;"
         offset="1"
         id="stop21" /></linearGradient><linearGradient
       id="linearGradient17"
       inkscape:collect="always"><stop
         style="stop-color:#000000;stop-opacity:0.75;"
         offset="0"
         id="stop17" /><stop
         style="stop-color:#000000;stop-opacity:0;"
         offset="1"
         id="stop18" /></linearGradient><linearGradient
       id="linearGradient59"
       inkscape:collect="always"><stop
         style="stop-color:#ffffff;stop-opacity:0.15079366;"
         offset="0"
         id="stop60" /><stop
         style="stop-color:#ffffff;stop-opacity:0.30423281;"
         offset="1"
         id="stop61" /></linearGradient><linearGradient
       id="linearGradient57"
       inkscape:collect="always"><stop
         style="stop-color:#ffffff;stop-opacity:1;"
         offset="0"
         id="stop57" /><stop
         style="stop-color:#ff0000;stop-opacity:1;"
         offset="0.49806201"
         id="stop59" /><stop
         style="stop-color:#aa0000;stop-opacity:1;"
         offset="1"
         id="stop58" /></linearGradient><linearGradient
       id="linearGradient53"
       inkscape:collect="always"><stop
         style="stop-color:#808080;stop-opacity:1;"
         offset="0"
         id="stop54" /><stop
         style="stop-color:#000000;stop-opacity:1;"
         offset="1"
         id="stop55" /></linearGradient><linearGradient
       id="linearGradient49"
       inkscape:collect="always"><stop
         style="stop-color:#292929;stop-opacity:1;"
         offset="0"
         id="stop49" /><stop
         style="stop-color:#2b2b2b;stop-opacity:1;"
         offset="0.55000001"
         id="stop52" /><stop
         style="stop-color:#000000;stop-opacity:1;"
         offset="0.63"
         id="stop51" /><stop
         style="stop-color:#303030;stop-opacity:1;"
         offset="0.63999999"
         id="stop53" /><stop
         style="stop-color:#333333;stop-opacity:1;"
         offset="1"
         id="stop50" /></linearGradient><linearGradient
       id="linearGradient47"
       inkscape:collect="always"><stop
         style="stop-color:#000000;stop-opacity:0.75;"
         offset="0"
         id="stop47" /><stop
         style="stop-color:#000000;stop-opacity:0;"
         offset="1"
         id="stop48" /></linearGradient><linearGradient
       id="linearGradient43"
       inkscape:collect="always"><stop
         style="stop-color:#000000;stop-opacity:1;"
         offset="0"
         id="stop43" /><stop
         style="stop-color:#000000;stop-opacity:1;"
         offset="0.75"
         id="stop45" /><stop
         style="stop-color:#929297;stop-opacity:1;"
         offset="1"
         id="stop44" /></linearGradient><linearGradient
       id="linearGradient32"
       inkscape:collect="always"><stop
         style="stop-color:#292929;stop-opacity:1;"
         offset="0"
         id="stop32" /><stop
         style="stop-color:#3d3d3d;stop-opacity:1;"
         offset="1"
         id="stop33" /></linearGradient><linearGradient
       id="linearGradient15"
       inkscape:collect="always"><stop
         style="stop-color:#000000;stop-opacity:0.33000001;"
         offset="0"
         id="stop15" /><stop
         style="stop-color:#000000;stop-opacity:0;"
         offset="1"
         id="stop16" /></linearGradient><linearGradient
       id="linearGradient13"
       inkscape:collect="always"><stop
         style="stop-color:#000000;stop-opacity:0.66000003;"
         offset="0"
         id="stop13" /><stop
         style="stop-color:#000000;stop-opacity:0;"
         offset="1"
         id="stop14" /></linearGradient><linearGradient
       id="linearGradient5"
       inkscape:collect="always"><stop
         style="stop-color:#1c1c21;stop-opacity:1;"
         offset="0"
         id="stop10" /><stop
         style="stop-color:#2f2e38;stop-opacity:1;"
         offset="1"
         id="stop11" /></linearGradient><linearGradient
       id="linearGradient3"
       inkscape:collect="always"><stop
         style="stop-color:#bbb7aa;stop-opacity:1;"
         offset="0"
         id="stop3" /><stop
         style="stop-color:#c6c2b9;stop-opacity:1;"
         offset="0.81589144"
         id="stop5" /><stop
         style="stop-color:#d0ccc8;stop-opacity:1;"
         offset="1"
         id="stop4" /></linearGradient><linearGradient
       id="linearGradient8"
       inkscape:collect="always"><stop
         style="stop-color:#c2cada;stop-opacity:1;"
         offset="0"
         id="stop8" /><stop
         style="stop-color:#9ea09f;stop-opacity:1;"
         offset="1"
         id="stop9" /></linearGradient><linearGradient
       id="linearGradient6"
       inkscape:collect="always"><stop
         style="stop-color:#9f9fa2;stop-opacity:1;"
         offset="0"
         id="stop6" /><stop
         style="stop-color:#b5b3b1;stop-opacity:1;"
         offset="1"
         id="stop7" /></linearGradient><linearGradient
       id="linearGradient1"
       inkscape:collect="always"><stop
         style="stop-color:#cfccc3;stop-opacity:1;"
         offset="0"
         id="stop1" /><stop
         style="stop-color:#aba8a5;stop-opacity:1;"
         offset="1"
         id="stop2" /></linearGradient><linearGradient
       inkscape:collect="always"
       xlink:href="#linearGradient1"
       id="linearGradient2"
       x1="2.6458333"
       y1="49.477081"
       x2="2.6458333"
       y2="65.087502"
       gradientUnits="userSpaceOnUse" /><linearGradient
       inkscape:collect="always"
       xlink:href="#linearGradient6"
       id="linearGradient7"
       x1="3.1871049"
       y1="42.597912"
       x2="3.175"
       y2="49.236706"
       gradientUnits="userSpaceOnUse"
       gradientTransform="translate(-5.3817952e-8,-0.04219422)" /><linearGradient
       inkscape:collect="always"
       xlink:href="#linearGradient8"
       id="linearGradient9"
       x1="5.6885419"
       y1="53.313541"
       x2="9.1281242"
       y2="56.753124"
       gradientUnits="userSpaceOnUse" /><linearGradient
       inkscape:collect="always"
       xlink:href="#linearGradient3"
       id="linearGradient4"
       x1="23.018749"
       y1="51.329163"
       x2="23.018749"
       y2="63.235413"
       gradientUnits="userSpaceOnUse" /><linearGradient
       inkscape:collect="always"
       xlink:href="#linearGradient5"
       id="linearGradient11"
       x1="23.018749"
       y1="51.329163"
       x2="23.018749"
       y2="61.383327"
       gradientUnits="userSpaceOnUse"
       gradientTransform="matrix(0.99924929,0,0,1.0227278,0.03177791,-1.1666007)" /><radialGradient
       inkscape:collect="always"
       xlink:href="#linearGradient13"
       id="radialGradient14"
       cx="22.489582"
       cy="56.620834"
       fx="22.489582"
       fy="56.620834"
       r="0.66145802"
       gradientTransform="matrix(-3.2000033,-5.4991339e-5,3.1616901e-4,-18.000032,94.438418,1070.5072)"
       gradientUnits="userSpaceOnUse" /><radialGradient
       inkscape:collect="always"
       xlink:href="#linearGradient15"
       id="radialGradient16"
       cx="62.177082"
       cy="56.620831"
       fx="62.177082"
       fy="56.620831"
       r="0.66145802"
       gradientTransform="matrix(-3.2000012,-2.0789518e-5,1.1729564e-4,-17.999996,261.13718,1070.5052)"
       gradientUnits="userSpaceOnUse" /><linearGradient
       inkscape:collect="always"
       xlink:href="#linearGradient32"
       id="linearGradient33"
       x1="42.597916"
       y1="51.329163"
       x2="42.597916"
       y2="61.383327"
       gradientUnits="userSpaceOnUse" /><linearGradient
       inkscape:collect="always"
       xlink:href="#linearGradient32"
       id="linearGradient34"
       gradientUnits="userSpaceOnUse"
       x1="42.597916"
       y1="51.329163"
       x2="42.597916"
       y2="61.383327" /><linearGradient
       inkscape:collect="always"
       xlink:href="#linearGradient43"
       id="linearGradient44"
       x1="24.077084"
       y1="51.85833"
       x2="24.077084"
       y2="59.002079"
       gradientUnits="userSpaceOnUse"
       gradientTransform="matrix(0.96507366,0,0,0.96296289,1.4012176,2.9790144)" /><linearGradient
       inkscape:collect="always"
       xlink:href="#linearGradient47"
       id="linearGradient48"
       x1="30.162498"
       y1="57.679161"
       x2="30.691666"
       y2="57.943745"
       gradientUnits="userSpaceOnUse"
       gradientTransform="matrix(1.0294101,0,0,1,-0.69253386,0.79374455)" /><linearGradient
       inkscape:collect="always"
       xlink:href="#linearGradient49"
       id="linearGradient50"
       x1="30.559374"
       y1="52.519787"
       x2="30.559374"
       y2="56.620831"
       gradientUnits="userSpaceOnUse"
       gradientTransform="matrix(0.84848455,0,0,0.90322615,4.7002539,5.744)" /><linearGradient
       inkscape:collect="always"
       xlink:href="#linearGradient31"
       id="linearGradient55"
       x1="29.104166"
       y1="55.694786"
       x2="29.104166"
       y2="56.223953"
       gradientUnits="userSpaceOnUse"
       gradientTransform="matrix(1.0294136,0,0,1,-0.96500535,0.39687013)" /><linearGradient
       inkscape:collect="always"
       xlink:href="#linearGradient53"
       id="linearGradient56"
       gradientUnits="userSpaceOnUse"
       x1="29.104166"
       y1="55.694786"
       x2="29.104166"
       y2="56.223953"
       gradientTransform="matrix(1.0294136,0,0,1.0000012,6.1164869,0.39680341)" /><radialGradient
       inkscape:collect="always"
       xlink:href="#linearGradient57"
       id="radialGradient58"
       cx="27.207983"
       cy="57.855556"
       fx="27.207983"
       fy="57.855556"
       r="0.52916664"
       gradientUnits="userSpaceOnUse"
       gradientTransform="matrix(-6.6133001e-6,1.3333317,-1.3725443,-6.6119257e-6,106.58895,22.28422)" /><radialGradient
       inkscape:collect="always"
       xlink:href="#linearGradient59"
       id="radialGradient61"
       cx="27.519037"
       cy="58.156162"
       fx="27.519037"
       fy="58.156162"
       r="0.32371858"
       gradientTransform="matrix(-1.6823708,-0.01186977,0.01239348,-1.6576553,72.940749,155.46773)"
       gradientUnits="userSpaceOnUse" /><linearGradient
       inkscape:collect="always"
       xlink:href="#linearGradient17"
       id="linearGradient18"
       x1="23.018749"
       y1="51.329163"
       x2="23.018749"
       y2="52.122913"
       gradientUnits="userSpaceOnUse"
       gradientTransform="matrix(0.99924929,0,0,1.363637,0.03177791,-18.665185)" /><linearGradient
       inkscape:collect="always"
       xlink:href="#linearGradient20"
       id="linearGradient21"
       x1="7.9375"
       y1="2.645833"
       x2="7.9325824"
       y2="39.555206"
       gradientUnits="userSpaceOnUse"
       gradientTransform="matrix(1.0103769,0,0,0.99692788,-0.35143042,-0.37980034)" /><linearGradient
       inkscape:collect="always"
       xlink:href="#linearGradient27"
       id="linearGradient28"
       x1="7.9331632"
       y1="21.100519"
       x2="59.801178"
       y2="21.100519"
       gradientUnits="userSpaceOnUse" /><linearGradient
       inkscape:collect="always"
       xlink:href="#linearGradient14"
       id="linearGradient24"
       x1="11.159272"
       y1="33.477814"
       x2="12.746772"
       y2="35.98333"
       gradientUnits="userSpaceOnUse"
       gradientTransform="matrix(1.0103769,0,0,0.99692788,-0.35143042,-0.37980034)" /><linearGradient
       inkscape:collect="always"
       xlink:href="#linearGradient37"
       id="linearGradient35"
       x1="13.229166"
       y1="6.8791666"
       x2="25.4"
       y2="33.866665"
       gradientUnits="userSpaceOnUse"
       gradientTransform="matrix(1.0103769,0,0,0.99692788,-0.35143042,-0.37980034)" /><linearGradient
       inkscape:collect="always"
       xlink:href="#linearGradient38"
       id="linearGradient39"
       x1="50.535412"
       y1="20.306768"
       x2="51.064579"
       y2="20.306768"
       gradientUnits="userSpaceOnUse"
       gradientTransform="matrix(1.0535708,0,0,0.98528449,-2.6505249,-0.09604753)" /><linearGradient
       inkscape:collect="always"
       xlink:href="#linearGradient8"
       id="linearGradient9-9"
       x1="51.656208"
       y1="9.7535009"
       x2="54.966942"
       y2="12.829281"
       gradientUnits="userSpaceOnUse"
       gradientTransform="matrix(1.1999999,0,0,1.1999999,-7.3542959,-2.8237383)" /><radialGradient
       inkscape:collect="always"
       xlink:href="#linearGradient63"
       id="radialGradient56"
       gradientUnits="userSpaceOnUse"
       gradientTransform="matrix(-5.0763827e-6,1.0535703,-1.0535679,-5.2246027e-6,114.47396,-8.4274631)"
       cx="27.207983"
       cy="57.855556"
       fx="27.207983"
       fy="57.855556"
       r="0.52916664" /><radialGradient
       inkscape:collect="always"
       xlink:href="#linearGradient66"
       id="radialGradient67"
       cx="53.974998"
       cy="20.637499"
       fx="53.974998"
       fy="20.637499"
       r="0.79374999"
       gradientUnits="userSpaceOnUse"
       gradientTransform="matrix(1.7559551,6.168961e-6,-3.0422043e-6,1.7559529,-41.119168,-15.861673)" /><radialGradient
       inkscape:collect="always"
       xlink:href="#linearGradient68"
       id="radialGradient70"
       cx="52.759003"
       cy="-23.573172"
       fx="52.759003"
       fy="-23.573172"
       r="0.52916664"
       gradientTransform="matrix(1.862476,1.4525162e-5,-8.7285978e-6,1.1174838,-45.911528,2.8084358)"
       gradientUnits="userSpaceOnUse" /><radialGradient
       inkscape:collect="always"
       xlink:href="#linearGradient80"
       id="radialGradient86"
       gradientUnits="userSpaceOnUse"
       gradientTransform="matrix(1.0705119,1.0705069,-0.5764267,0.57642938,9.6496451,-47.952861)"
       cx="53.974998"
       cy="23.342991"
       fx="53.974998"
       fy="23.342991"
       r="1.6065176" /><radialGradient
       inkscape:collect="always"
       xlink:href="#linearGradient73"
       id="radialGradient87"
       gradientUnits="userSpaceOnUse"
       gradientTransform="matrix(-0.50000013,0.59999901,-0.98380161,-0.81983795,103.14464,8.668639)"
       cx="54.548092"
       cy="23.06292"
       fx="54.548092"
       fy="23.06292"
       r="1.3229166" /><linearGradient
       inkscape:collect="always"
       xlink:href="#linearGradient76"
       id="linearGradient87"
       gradientUnits="userSpaceOnUse"
       x1="52.652081"
       y1="21.960415"
       x2="55.297916"
       y2="24.606249" /><linearGradient
       inkscape:collect="always"
       xlink:href="#linearGradient71"
       id="linearGradient88"
       gradientUnits="userSpaceOnUse"
       x1="53.445831"
       y1="22.754166"
       x2="55.033333"
       y2="24.341665" /><radialGradient
       inkscape:collect="always"
       xlink:href="#linearGradient90"
       id="radialGradient91"
       cx="33.350834"
       cy="13.565133"
       fx="33.350834"
       fy="13.565133"
       r="25.791513"
       gradientTransform="matrix(-1.0105186,0,3.9159022e-5,-0.1778706,68.263648,39.236686)"
       gradientUnits="userSpaceOnUse" /><linearGradient
       inkscape:collect="always"
       xlink:href="#linearGradient36"
       id="linearGradient40"
       x1="11.773958"
       y1="6.2177324"
       x2="55.959373"
       y2="35.057312"
       gradientUnits="userSpaceOnUse"
       gradientTransform="matrix(1.0103769,0,0,0.99692788,-0.35143042,-0.37980034)" /><radialGradient
       inkscape:collect="always"
       xlink:href="#linearGradient67"
       id="radialGradient82"
       cx="19.049999"
       cy="10.064881"
       fx="19.049999"
       fy="10.064881"
       r="17.594791"
       gradientTransform="matrix(1.1851037,-0.44974192,0.18640276,0.47819605,-5.5560975,16.035804)"
       gradientUnits="userSpaceOnUse" /><radialGradient
       inkscape:collect="always"
       xlink:href="#linearGradient19"
       id="radialGradient27"
       cx="0.68138844"
       cy="1.3875808"
       fx="0.68138844"
       fy="1.3875808"
       r="0.8672455"
       gradientTransform="matrix(-1.8367191,-1.8367491,5.5102032,-5.5102041,19.906062,33.774463)"
       gradientUnits="userSpaceOnUse" /><linearGradient
       id="linearGradient19"
       inkscape:collect="always"><stop
         style="stop-color:#ffffff;stop-opacity:1;"
         offset="0.10204082"
         id="stop26-3" /><stop
         style="stop-color:#99ffff;stop-opacity:0.80000001;"
         offset="0.3979592"
         id="stop28-6" /><stop
         style="stop-color:#3376ff;stop-opacity:0.60000002;"
         offset="0.69557822"
         id="stop29-1" /><stop
         style="stop-color:#4500cc;stop-opacity:0.40000001;"
         offset="0.84778911"
         id="stop30-2" /><stop
         style="stop-color:#220066;stop-opacity:0.2;"
         offset="1"
         id="stop27-9" /></linearGradient><linearGradient
       inkscape:collect="always"
       xlink:href="#linearGradient10"
       id="linearGradient13-9"
       x1="4.0058289"
       y1="-0.35110331"
       x2="4.4394522"
       y2="0.42438686"
       gradientUnits="userSpaceOnUse"
       gradientTransform="matrix(3.6734668,0,0,3.6078041,21.142504,21.753074)" /><linearGradient
       id="linearGradient10"
       inkscape:collect="always"><stop
         style="stop-color:#142900;stop-opacity:1;"
         offset="0"
         id="stop12-9" /><stop
         style="stop-color:#366d00;stop-opacity:1;"
         offset="1"
         id="stop13-7" /></linearGradient><linearGradient
       inkscape:collect="always"
       xlink:href="#linearGradient16"
       id="linearGradient18-2"
       x1="0.53684717"
       y1="-2.2247012"
       x2="1.8377155"
       y2="-0.90015715"
       gradientUnits="userSpaceOnUse"
       gradientTransform="matrix(3.6734668,0,0,3.6078041,21.142504,21.753074)" /><linearGradient
       id="linearGradient16"
       inkscape:collect="always"><stop
         style="stop-color:#52a300;stop-opacity:1;"
         offset="0"
         id="stop16-2" /><stop
         style="stop-color:#366d00;stop-opacity:1;"
         offset="1"
         id="stop17-8" /></linearGradient><linearGradient
       inkscape:collect="always"
       xlink:href="#linearGradient3-2"
       id="linearGradient4-1"
       x1="3.1385837"
       y1="-2.6662157"
       x2="4.8730745"
       y2="-0.90015715"
       gradientUnits="userSpaceOnUse"
       gradientTransform="matrix(3.6734668,0,0,3.6078041,21.142504,21.753074)" /><linearGradient
       id="linearGradient3-2"
       inkscape:collect="always"><stop
         style="stop-color:#aaff55;stop-opacity:1;"
         offset="0"
         id="stop3-7" /><stop
         style="stop-color:#55aa00;stop-opacity:1;"
         offset="1"
         id="stop4-0" /></linearGradient><radialGradient
       inkscape:collect="always"
       xlink:href="#linearGradient12"
       id="radialGradient15"
       cx="6.6772556"
       cy="-0.52325904"
       fx="6.6772556"
       fy="-0.52325904"
       r="0.55751485"
       gradientTransform="matrix(1.5082173e-7,4.999999,-4.9999997,6.3393786e-7,32.644154,-18.398446)"
       gradientUnits="userSpaceOnUse" /><linearGradient
       id="linearGradient12"
       inkscape:collect="always"><stop
         style="stop-color:#ffffff;stop-opacity:1;"
         offset="0"
         id="stop14-3" /><stop
         style="stop-color:#9accff;stop-opacity:1;"
         offset="0.09863945"
         id="stop18-7" /><stop
         style="stop-color:#0080ff;stop-opacity:1;"
         offset="0.74659866"
         id="stop31-5" /><stop
         style="stop-color:#001a33;stop-opacity:1;"
         offset="1"
         id="stop15-9" /></linearGradient></defs><g
     inkscape:label="HAL Personal Computer"
     inkscape:groupmode="layer"
     id="layer1"
     style="display:inline;opacity:1;mix-blend-mode:normal"
     transform="matrix(0.47457627,0,0,0.47457627,0.86101695,-0.72648311)"
     sodipodi:insensitive="true"><path
       style="display:inline;opacity:1;mix-blend-mode:normal;fill:url(#linearGradient7);stroke:none;stroke-width:0.264583;stroke-linecap:round;stroke-linejoin:round"
       d="m 3.1871048,49.182407 6.1449958,-6.14509 C 9.8612672,42.50815 10.10164,42.508292 10.89539,42.508292 l 45.942552,-1.42e-4 c 0.79375,0 1.034124,0 1.563291,0.529167 l 6.144995,6.14509 z"
       id="path6"
       inkscape:label="Top Cover"
       sodipodi:nodetypes="ccccccc" /><path
       id="rect2"
       style="display:inline;opacity:1;mix-blend-mode:normal;fill:#edf1ea;fill-opacity:1;stroke-width:0.264583;stroke-linecap:round;stroke-linejoin:round"
       inkscape:label="Front Panel Top Bevel"
       d="M 4.4979166,48.640813 H 63.235416 c 1.026054,0 1.852083,0.826029 1.852083,1.852083 v 0.377977 H 2.6458331 l 2e-7,-0.377977 c 5e-7,-1.026054 0.8260291,-1.852083 1.8520833,-1.852083 z"
       sodipodi:nodetypes="sssccss" /><path
       id="rect1"
       style="opacity:1;fill:url(#linearGradient2);stroke:none;stroke-width:0.264583;stroke-linecap:round;stroke-linejoin:round"
       d="M 4.2333331,49.477082 H 63.499999 c 0.79375,0 1.5875,0.661456 1.5875,1.322914 v 12.700002 c 0,0.879475 -0.708025,1.5875 -1.5875,1.5875 H 4.2333332 c -0.879475,0 -1.5874999,-0.708025 -1.5874999,-1.5875 V 50.799996 c 0,-0.661458 0.79375,-1.322914 1.5874998,-1.322914 z"
       sodipodi:nodetypes="sssssssss"
       inkscape:label="Front Panel" /><g
       inkscape:groupmode="layer"
       id="layer5"
       inkscape:label="Badge"
       style="display:inline;opacity:1;mix-blend-mode:normal"
       transform="matrix(0.97252757,0,0,0.97252757,-0.09885587,1.5308024)"><rect
         style="display:inline;opacity:1;mix-blend-mode:normal;fill:url(#linearGradient9);fill-opacity:1;stroke:#000000;stroke-width:0.264583;stroke-linecap:round;stroke-linejoin:round;stroke-dasharray:none;stroke-opacity:0.5;paint-order:markers stroke fill"
         id="rect7"
         width="3.175"
         height="3.175"
         x="5.8208332"
         y="53.445831"
         rx="7.3436623e-18"
         inkscape:label="Panel"
         ry="7.3436623e-18" /><path
         d="M 6.936015,53.785363 H 6.5652731 v -0.07495 H 6.936015 Z m 0,0.145409 H 6.5652731 v -0.07495 H 6.936015 Z M 6.8045814,54.064189 H 6.5652731 v -0.06446 H 6.8045814 Z M 6.4412792,53.785363 H 6.0854165 v -0.07495 h 0.3558627 z m 0.3633022,0.412242 H 6.2044507 v -0.06596 H 6.8045814 Z M 6.4412792,53.930772 H 6.0854165 v -0.07495 H 6.4412792 Z M 6.8045814,54.47643 H 6.5652731 V 54.39248 H 6.8045814 Z M 6.4412792,54.064189 H 6.2044507 v -0.06446 H 6.4412792 Z M 6.936015,54.62334 H 6.5652731 V 54.54839 H 6.936015 Z M 6.8045814,54.326525 H 6.2044507 v -0.06895 H 6.8045814 Z M 6.936015,54.768748 H 6.5652731 v -0.07346 H 6.936015 Z M 6.4412792,54.47643 H 6.2044507 v -0.08395 h 0.2368285 z m 0,0.14691 H 6.0854165 v -0.07495 h 0.3558627 z m 0,0.145408 H 6.0854165 v -0.07346 H 6.4412792 Z M 7.6879395,53.785363 H 7.2861992 l 0.00992,-0.07495 h 0.3806613 z m 0.042159,0.283323 H 7.5118681 l -0.00992,-0.06895 h 0.21699 z m -0.02108,-0.137914 H 7.4920294 l -0.0062,-0.04648 -0.0062,0.04648 H 7.2651206 l 0.00992,-0.07495 h 0.4228187 z m 0.040918,0.274329 H 7.5317072 l -0.00992,-0.06895 h 0.2169901 z m -0.2802263,-0.205372 -0.011159,0.06895 h -0.21327 l 0.00992,-0.06895 z m 0.4513379,0.623611 h -0.348423 l -0.00868,-0.07495 H 7.9210508 Z M 7.7697755,54.341515 H 7.2056031 l 0.00992,-0.06746 h 0.5443335 z m -0.3199043,-0.205371 -0.011159,0.06895 h -0.21327 l 0.00992,-0.06895 z m 0.4711769,0.632604 H 7.5899843 l -0.00868,-0.07346 H 7.9210489 Z M 7.7896145,54.47643 H 7.1870041 l 0.00992,-0.06895 h 0.5827715 z m -0.3819013,0.07196 -0.00868,0.07495 H 7.0493707 v -0.07495 z m -0.01736,0.146907 -0.00868,0.07346 H 7.0493715 v -0.07346 z m 1.128867,-0.909934 H 8.0455634 v -0.07495 h 0.4736568 z m 0,0.145409 H 8.0455634 v -0.07495 H 8.5192202 Z M 8.7312498,54.47643 H 8.5080607 V 54.39248 H 8.7312498 Z M 8.401426,54.064189 H 8.1633576 v -0.06446 H 8.401426 Z m 0,0.133416 H 8.1633576 v -0.06596 H 8.401426 Z m 0,0.12892 H 8.1633576 v -0.06895 H 8.401426 Z m 0,0.149905 H 8.1633576 V 54.39248 H 8.401426 Z m 0.3298238,0.14691 H 8.0455634 v -0.07495 h 0.6856864 z m 0,0.145408 H 8.0455634 v -0.07346 h 0.6856864 z"
         id="text1"
         style="font-size:1.42728px;line-height:0;font-family:MeninBlue;-inkscape-font-specification:MeninBlue;letter-spacing:0.134763px;word-spacing:0px;display:inline;opacity:1;mix-blend-mode:normal;fill:#000000;fill-opacity:1;stroke-width:0.264583;stroke-linecap:round;stroke-linejoin:round;stroke-opacity:0.5;paint-order:markers stroke fill"
         aria-label="HAL"
         inkscape:label="HAL" /><path
         id="path5"
         style="font-style:italic;font-size:0.426946px;line-height:0.9;font-family:'Droid Serif';-inkscape-font-specification:'Droid Serif Italic';letter-spacing:0px;word-spacing:0px;display:inline;opacity:1;mix-blend-mode:normal;fill:#000000;fill-opacity:1;stroke-width:0.264583;stroke-linecap:round;stroke-linejoin:round;stroke-opacity:0.5;paint-order:markers stroke fill"
         d="m 6.3963948,56.141146 q 0.00754,0.0052 0.00754,0.01851 0,0.02666 -0.031824,0.0476 -0.031823,0.02066 -0.087656,0.02066 -0.074534,0 -0.1164075,-0.0389 -0.041594,-0.03888 -0.041594,-0.11015 0,-0.105527 0.067556,-0.182494 0.067556,-0.07724 0.168051,-0.07724 0.049969,0 0.077884,0.01687 0.027915,0.0166 0.027915,0.04515 0,0.01986 -0.015353,0.03154 -0.015353,0.01175 -0.040758,0.01175 0,-0.07559 -0.056948,-0.07559 -0.070626,0 -0.1183607,0.07506 -0.047457,0.07479 -0.047457,0.163727 0,0.104163 0.1016118,0.104163 0.066159,0 0.105799,-0.05059 z m 0.2537515,-0.222745 q 0.050527,0 0.079559,0.02964 0.029033,0.02964 0.029033,0.08567 0,0.07424 -0.04662,0.134356 -0.046619,0.05983 -0.122548,0.05983 -0.051644,0 -0.080675,-0.03047 -0.029033,-0.03046 -0.029033,-0.08458 0,-0.07506 0.046898,-0.134624 0.047176,-0.05983 0.1233863,-0.05983 z m -0.054156,0.282307 q 0.047176,0 0.075093,-0.05439 0.028194,-0.05466 0.028194,-0.121036 0,-0.0775 -0.055832,-0.0775 -0.04662,0 -0.075372,0.05466 -0.028752,0.05466 -0.028752,0.121566 0,0.0767 0.056669,0.0767 z m 0.4444146,0.02175 h -0.054436 q 0,-0.0125 0.00726,-0.05766 0.00726,-0.04541 0.012284,-0.06771 l 0.013128,-0.05766 q 0.00837,-0.03372 0.00837,-0.05196 0,-0.03291 -0.02624,-0.03291 -0.031824,0 -0.0656,0.04243 -0.033498,0.04215 -0.042431,0.08294 l -0.030708,0.142514 h -0.053319 l 0.048014,-0.223834 q 0.00335,-0.01549 0.00335,-0.02502 0,-0.02638 -0.039919,-0.02638 h -0.00447 l 0.00502,-0.02339 h 0.105799 l -0.015353,0.07017 h 0.00559 q 0.046339,-0.07506 0.1041238,-0.07506 0.061135,0 0.061135,0.06172 0,0.0068 -0.00112,0.01332 h 0.00559 q 0.04662,-0.07506 0.1041239,-0.07506 0.061135,0 0.061135,0.06173 0,0.01768 -0.010319,0.0612 l -0.014796,0.06582 q -0.00726,0.03236 -0.00726,0.05847 0,0.02665 0.01982,0.02665 0.016471,0 0.03657,-0.01278 l 0.010319,0.01631 q -0.03629,0.03155 -0.069788,0.03155 -0.023448,0 -0.037685,-0.01496 -0.014237,-0.01496 -0.014237,-0.04053 0,-0.02557 0.010887,-0.07535 l 0.00978,-0.04352 q 0.011993,-0.05358 0.011993,-0.06609 0,-0.03291 -0.026521,-0.03291 -0.029311,0 -0.060576,0.03671 -0.031265,0.03644 -0.043827,0.07642 l -0.00921,0.03998 q -0.00362,0.01522 -0.010043,0.05956 -0.00642,0.04432 -0.00642,0.05521 z m 0.3640176,0.110427 -0.00502,0.02339 H 7.2919267 l 0.075931,-0.353292 q 0.00502,-0.02339 0.00502,-0.02936 0,-0.02638 -0.039919,-0.02638 h -0.00447 l 0.00502,-0.02339 h 0.1013379 l -0.013681,0.07424 h 0.00278 q 0.041315,-0.07969 0.1046827,-0.07969 0.034895,0 0.053597,0.02583 0.018983,0.02584 0.018983,0.07479 0,0.07479 -0.048014,0.141969 -0.047735,0.06689 -0.1225481,0.06689 -0.032661,0 -0.055831,-0.01278 -0.00252,0.01796 -0.00474,0.02692 l -0.00782,0.034 q -0.0053,0.02313 -0.0053,0.031 0,0.02583 0.039919,0.02583 z m -0.020658,-0.149862 q 0.018424,0.01986 0.045223,0.01986 0.047735,0 0.080675,-0.06066 0.03322,-0.06092 0.03322,-0.123738 0,-0.065 -0.036012,-0.065 -0.02959,0 -0.059738,0.04025 -0.030149,0.03998 -0.039919,0.08322 z m 0.2797129,-0.259188 h 0.1063579 l -0.037687,0.166719 q -0.011454,0.05059 -0.011454,0.06717 0,0.034 0.027915,0.034 0.029311,0 0.063088,-0.04106 0.034057,-0.04135 0.044386,-0.08813 l 0.02987,-0.138705 h 0.055273 l -0.03936,0.178959 q -0.00865,0.03944 -0.00865,0.06172 0,0.02829 0.018983,0.02829 0.01619,0 0.03657,-0.01225 l 0.010319,0.01631 q -0.03629,0.031 -0.07258,0.031 -0.021495,0 -0.034895,-0.01496 -0.013128,-0.01496 -0.013128,-0.03781 0,-0.01441 0.00278,-0.03289 h -0.00447 q -0.030986,0.04977 -0.055552,0.06745 -0.024287,0.01768 -0.054993,0.01768 -0.061135,0 -0.061135,-0.06173 0,-0.01768 0.010319,-0.06119 l 0.022333,-0.09763 q 0.00502,-0.02204 0.00502,-0.03318 0,-0.02638 -0.039919,-0.02638 h -0.00447 z m 0.476796,0.25674 0.00978,0.02066 q -0.038524,0.02665 -0.077047,0.02665 -0.062251,0 -0.062251,-0.065 0,-0.02093 0.00559,-0.04678 l 0.034895,-0.160463 h -0.043548 l 0.0053,-0.0223 q 0.055831,0 0.087375,-0.07806 h 0.02624 l -0.014796,0.06854 h 0.06923 l -0.00697,0.03183 h -0.06923 l -0.034614,0.15883 q -0.00697,0.03209 -0.00697,0.04787 0,0.03046 0.030427,0.03046 0.02317,0 0.046619,-0.01225 z m 0.2677093,-0.02773 q 0.00587,0.0036 0.00587,0.01387 0,0.02228 -0.027078,0.04189 -0.026799,0.01931 -0.072022,0.01931 -0.049969,0 -0.080675,-0.03074 -0.030708,-0.03074 -0.030708,-0.08431 0,-0.07289 0.048294,-0.133538 0.048294,-0.06092 0.1219906,-0.06092 0.03629,0 0.056109,0.01687 0.020099,0.01687 0.020099,0.04705 0,0.04515 -0.048294,0.0786 -0.048014,0.03345 -0.1175239,0.03345 h -0.00978 q -0.00502,0 -0.010319,-5.43e-4 -0.00112,0.0076 -0.00112,0.02339 0,0.07559 0.06281,0.07559 0.048851,0 0.082351,-0.03997 z m -0.1387399,-0.08458 h 0.00559 q 0.050526,0 0.083188,-0.02395 0.032939,-0.02393 0.032939,-0.06201 0,-0.03726 -0.03322,-0.03726 -0.027635,0 -0.051644,0.034 -0.024007,0.03372 -0.036848,0.08921 z m 0.4145446,-0.06908 q 0,-0.04405 -0.022891,-0.04405 -0.026521,0 -0.056389,0.05086 -0.02959,0.05086 -0.043827,0.115037 l -0.021495,0.101447 h -0.053318 l 0.048014,-0.223833 q 0.00335,-0.01549 0.00335,-0.02501 0,-0.02638 -0.045502,-0.02638 h -0.00474 l 0.0053,-0.02339 h 0.1010543 l -0.011993,0.08023 h 0.00587 q 0.022889,-0.04977 0.045223,-0.06771 0.022333,-0.01795 0.051922,-0.01795 0.046898,0 0.046898,0.03835 0,0.04241 -0.047457,0.04241 z m -2.5983709,-0.278025 0.00502,-0.02339 h 0.00754 q 0.026799,0 0.038802,-0.01011 0.011993,-0.01011 0.01619,-0.02992 l 0.05946,-0.273059 q 0.00224,-0.01035 0.00224,-0.01549 0,-0.02229 -0.041314,-0.02229 h -0.00726 l 0.00502,-0.02339 h 0.1465561 q 0.061972,0 0.09603,0.02801 0.034057,0.02801 0.034057,0.07941 0,0.06337 -0.043827,0.09954 -0.043548,0.03591 -0.1309225,0.03591 h -0.04243 l -0.020377,0.09356 q -0.00252,0.01149 -0.00252,0.01549 0,0.0223 0.041315,0.0223 h 0.018702 l -0.00502,0.02339 z m 0.1510226,-0.181133 h 0.030149 q 0.1205948,0 0.1205948,-0.10852 0,-0.08132 -0.083468,-0.08132 h -0.02624 z m 0.444135,0.111501 q 0.00587,0.0036 0.00587,0.01387 0,0.02229 -0.027077,0.04188 -0.026799,0.01931 -0.072022,0.01931 -0.049969,0 -0.080675,-0.03074 -0.030708,-0.03074 -0.030708,-0.08429 0,-0.07289 0.048294,-0.13354 0.048294,-0.06092 0.1219906,-0.06092 0.036289,0 0.056109,0.01687 0.020099,0.01686 0.020099,0.04705 0,0.04514 -0.048294,0.0786 -0.048014,0.03345 -0.1175239,0.03345 h -0.00978 q -0.00502,0 -0.01032,-5.44e-4 -0.00112,0.0076 -0.00112,0.02339 0,0.07559 0.06281,0.07559 0.048851,0 0.082351,-0.03997 z m -0.1387398,-0.08458 h 0.00559 q 0.050527,0 0.083188,-0.02395 0.032939,-0.02395 0.032939,-0.06201 0,-0.03726 -0.03322,-0.03726 -0.027637,0 -0.051644,0.034 -0.024007,0.03372 -0.036848,0.08921 z m 0.4145445,-0.06908 q 0,-0.04406 -0.022891,-0.04406 -0.026521,0 -0.056389,0.05086 -0.02959,0.05085 -0.043827,0.115037 l -0.021495,0.101447 h -0.053319 l 0.048014,-0.223831 q 0.00335,-0.01549 0.00335,-0.02502 0,-0.02638 -0.045501,-0.02638 h -0.00474 l 0.0053,-0.02339 h 0.1010543 l -0.011993,0.08023 h 0.00587 q 0.022891,-0.04977 0.045223,-0.06773 0.022333,-0.01795 0.051922,-0.01795 0.046898,0 0.046898,0.03834 0,0.04243 -0.047457,0.04243 z m 0.2512392,0.007 q 0,-0.02801 -0.013681,-0.04488 -0.013404,-0.01687 -0.037685,-0.01687 -0.025682,0 -0.040758,0.01358 -0.014796,0.01334 -0.014796,0.03427 0,0.01851 0.014237,0.03155 0.014237,0.01305 0.044107,0.02583 0.068673,0.02992 0.068673,0.08648 0,0.04106 -0.032383,0.06636 -0.032382,0.0253 -0.08598,0.0253 -0.04327,0 -0.068951,-0.01687 -0.025403,-0.01713 -0.025403,-0.04596 0,-0.01796 0.010043,-0.02721 0.010319,-0.0095 0.025962,-0.0095 0,0.03454 0.017028,0.05385 0.017308,0.01904 0.048294,0.01904 0.061694,0 0.061694,-0.05168 0,-0.01986 -0.013128,-0.03345 -0.013128,-0.01387 -0.044664,-0.02801 -0.041036,-0.01903 -0.055273,-0.03917 -0.013959,-0.02041 -0.013959,-0.04705 0,-0.03644 0.030427,-0.05956 0.030708,-0.02339 0.079837,-0.02339 0.042152,0 0.0656,0.01523 0.023728,0.01525 0.023728,0.03753 0,0.03456 -0.042989,0.03456 z m 0.2531932,-0.08784 q 0.050526,0 0.079559,0.02964 0.029033,0.02964 0.029033,0.08567 0,0.07424 -0.046619,0.134354 -0.04662,0.05983 -0.1225481,0.05983 -0.051644,0 -0.080675,-0.03046 -0.029033,-0.03047 -0.029033,-0.08458 0,-0.07506 0.046898,-0.134627 0.047176,-0.05983 0.1233864,-0.05983 z m -0.054156,0.282336 q 0.047176,0 0.075092,-0.05439 0.028196,-0.05466 0.028196,-0.121036 0,-0.0775 -0.055831,-0.0775 -0.046619,0 -0.075372,0.05466 -0.028752,0.05466 -0.028752,0.121579 0,0.0767 0.056668,0.0767 z m 0.2660343,0.02175 h -0.053319 l 0.048014,-0.22383 q 0.00335,-0.01549 0.00335,-0.02501 0,-0.02639 -0.039919,-0.02639 h -0.00447 l 0.00502,-0.02339 h 0.105799 l -0.015353,0.07018 h 0.00559 q 0.046339,-0.07506 0.1041238,-0.07506 0.061135,0 0.061135,0.06173 0,0.01768 -0.010319,0.0612 l -0.014796,0.06582 q -0.00754,0.03345 -0.00754,0.05848 0,0.02665 0.020099,0.02665 0.016471,0 0.03657,-0.01278 l 0.010319,0.01631 q -0.037407,0.03154 -0.069788,0.03154 -0.023728,0 -0.037965,-0.01496 -0.013958,-0.01496 -0.013958,-0.04053 0,-0.02557 0.010886,-0.07535 l 0.013128,-0.05766 q 0.00837,-0.03372 0.00837,-0.05196 0,-0.03289 -0.02624,-0.03289 -0.031824,0 -0.065322,0.04189 -0.03322,0.04188 -0.042711,0.0835 z m 0.4728879,-0.08405 h -0.00362 q -0.041036,0.08949 -0.1069167,0.08949 -0.034895,0 -0.054436,-0.02666 -0.019261,-0.02692 -0.019261,-0.07506 0,-0.0767 0.048851,-0.142241 0.049132,-0.06554 0.1214318,-0.06554 0.038801,0 0.066997,0.02013 l 0.025123,-0.01414 h 0.018424 l -0.039081,0.178405 q -0.00837,0.03835 -0.00837,0.06173 0,0.02829 0.018702,0.02829 0.01619,0 0.041315,-0.01441 l 0.010319,0.01631 q -0.041036,0.03318 -0.080675,0.03318 -0.044664,0 -0.044664,-0.04623 0,-0.01768 0.00587,-0.04324 z m 0.032383,-0.174877 q -0.013128,-0.02013 -0.04327,-0.02013 -0.048851,0 -0.082071,0.06066 -0.032939,0.06038 -0.032939,0.124294 0,0.06445 0.036011,0.06445 0.028474,0 0.059739,-0.04106 0.031265,-0.04107 0.041315,-0.08975 z m 0.1476728,-0.140881 0.00502,-0.02339 h 0.108033 l -0.066158,0.303522 q -0.00865,0.03972 -0.00865,0.06173 0,0.02829 0.018983,0.02829 0.016471,0 0.041036,-0.01441 l 0.010319,0.01631 q -0.03964,0.03318 -0.077325,0.03318 -0.020658,0 -0.034057,-0.01469 -0.013127,-0.01469 -0.013127,-0.03809 0,-0.02639 0.01256,-0.08758 l 0.046619,-0.213769 q 0.00362,-0.0166 0.00362,-0.02502 0,-0.0261 -0.040199,-0.0261 z"
         inkscape:label="PC" /></g><g
       inkscape:groupmode="layer"
       id="layer6"
       inkscape:label="Ventilation Holes"
       style="display:inline;opacity:1;mix-blend-mode:normal"><path
         style="display:inline;fill:none;fill-opacity:1;stroke:#000000;stroke-width:0.557515;stroke-linecap:round;stroke-linejoin:round;stroke-dasharray:none;stroke-opacity:1;paint-order:markers stroke fill"
         d="m 5.1546503,58.118563 v 3.902603"
         id="path16"
         sodipodi:nodetypes="cc"
         inkscape:label="Hole" /><use
         x="0"
         y="0"
         xlink:href="#path16"
         id="use16"
         transform="translate(1.1150298)"
         style="display:inline" /><use
         x="0"
         y="0"
         xlink:href="#path16"
         id="use17"
         transform="translate(2.2300595)"
         style="display:inline" /><use
         x="0"
         y="0"
         xlink:href="#use17"
         id="use18"
         transform="translate(1.1150297)"
         style="display:inline" /><use
         x="0"
         y="0"
         xlink:href="#path16"
         id="use19"
         transform="translate(4.460119)"
         style="display:inline" /><use
         x="0"
         y="0"
         xlink:href="#path16"
         id="use20"
         transform="translate(5.5751487)"
         style="display:inline" /><use
         x="0"
         y="0"
         xlink:href="#path16"
         id="use22"
         transform="translate(6.6901785)"
         style="display:inline" /><use
         x="0"
         y="0"
         xlink:href="#path16"
         id="use23"
         transform="translate(7.8052082)"
         style="display:inline" /><use
         x="0"
         y="0"
         xlink:href="#path16"
         id="use24"
         transform="translate(8.9202379)"
         style="display:inline" /><use
         x="0"
         y="0"
         xlink:href="#path16"
         id="use25"
         transform="translate(10.035268)"
         style="display:inline" /><use
         x="0"
         y="0"
         xlink:href="#path16"
         id="use26"
         transform="translate(11.150297)"
         style="display:inline" /><use
         x="0"
         y="0"
         xlink:href="#path16"
         id="use27"
         transform="translate(12.265327)"
         style="display:inline" /><use
         x="0"
         y="0"
         xlink:href="#path16"
         id="use28"
         transform="translate(13.380357)"
         style="display:inline" /><use
         x="0"
         y="0"
         xlink:href="#path16"
         id="use29"
         transform="translate(14.495387)"
         style="display:inline" /></g><g
       inkscape:groupmode="layer"
       id="layer4"
       inkscape:label="Drive Bay"
       transform="matrix(1.0254762,0,0,1.0301584,-0.90367758,-1.7275341)"
       style="display:inline"><rect
         style="display:inline;opacity:1;mix-blend-mode:normal;fill:url(#linearGradient11);stroke-width:0.267473;stroke-linecap:round;stroke-linejoin:round;stroke-opacity:0.5;paint-order:markers stroke fill"
         id="rect5"
         width="38.60017"
         height="10.282674"
         x="23.033247"
         y="51.329159"
         inkscape:label="Panel" /><g
         inkscape:groupmode="layer"
         id="layer7"
         inkscape:label="Floppy Drive"
         style="display:inline;opacity:1;mix-blend-mode:normal"
         transform="matrix(0.99804309,0,0,1.0227278,0.07507576,-1.1666007)"><rect
           style="display:inline;opacity:1;mix-blend-mode:normal;fill:url(#linearGradient34);fill-opacity:0.502164;stroke:none;stroke-width:0.396875;stroke-linecap:round;stroke-linejoin:round;stroke-dasharray:none;stroke-opacity:1;paint-order:markers stroke fill"
           id="rect31-5"
           width="18.520832"
           height="10.054165"
           x="23.547916"
           y="51.329163"
           inkscape:label="Panel" /><path
           id="rect42"
           style="display:inline;opacity:1;mix-blend-mode:normal;fill:url(#linearGradient44);stroke-width:0.510126;stroke-linecap:round;stroke-dasharray:none;stroke-opacity:0.75;paint-order:stroke markers fill"
           inkscape:label="Hole"
           d="m 24.637377,56.091657 h 5.719669 v -3.175 h 4.902573 v 3.175 h 5.719669 v 0.529166 h -5.719669 v 3.174999 h -4.902573 v -3.174999 h -5.719669 z"
           sodipodi:nodetypes="ccccccccccccc" /><rect
           style="display:inline;opacity:1;mix-blend-mode:normal;fill:url(#linearGradient55);stroke:none;stroke-width:0.592058;stroke-linecap:round;stroke-linejoin:miter;stroke-dasharray:none;stroke-opacity:0.75;paint-order:stroke markers fill"
           id="rect53"
           width="0.54473037"
           height="0.52916592"
           x="28.995218"
           y="56.091656"
           inkscape:label="Left Teeth" /><rect
           style="display:inline;opacity:1;mix-blend-mode:normal;fill:url(#linearGradient56);fill-opacity:1;stroke:none;stroke-width:0.592058;stroke-linecap:round;stroke-linejoin:miter;stroke-dasharray:none;stroke-opacity:0.75;paint-order:stroke markers fill"
           id="rect53-1"
           width="0.54473037"
           height="0.52916658"
           x="36.076714"
           y="56.091656"
           inkscape:label="Right Teeth" /><path
           id="rect48"
           style="display:inline;opacity:1;mix-blend-mode:normal;fill:#ffffff;fill-opacity:0.5;stroke-width:0.529168;stroke-linecap:round;stroke-opacity:0.75;paint-order:stroke markers fill"
           inkscape:label="Bevel Bottom"
           d="m 24.637377,56.620823 -0.54473,0.529167 h 6.264399 v -0.529167 z m 10.622242,0 v 0.529167 h 6.264399 l -0.54473,-0.538964 z"
           sodipodi:nodetypes="cccccccccc" /><path
           id="rect48-2"
           style="display:inline;mix-blend-mode:normal;fill:#000000;fill-opacity:0.5;stroke-width:0.529168;stroke-linecap:round;stroke-opacity:0.75;paint-order:stroke markers fill"
           inkscape:label="Bevel Top"
           d="m 24.092647,55.56249 0.54473,0.529167 h 5.719669 V 55.56249 Z m 11.166972,0 v 0.529167 h 5.719669 l 0.54473,-0.529167 z"
           sodipodi:nodetypes="cccccccccc" /><path
           id="rect46"
           style="display:inline;fill:url(#linearGradient48);stroke-width:0.536892;stroke-linecap:round;stroke-opacity:0.75;paint-order:stroke markers fill"
           d="m 30.357046,59.795817 1.089461,-2.116661 h -1.08946 z"
           sodipodi:nodetypes="cccc"
           inkscape:label="Hole Shadow" /><rect
           style="display:inline;opacity:1;mix-blend-mode:normal;fill:url(#linearGradient50);stroke:none;stroke-width:0.470214;stroke-linecap:round;stroke-linejoin:miter;stroke-dasharray:none;stroke-opacity:0.75;paint-order:stroke markers fill"
           id="rect49"
           width="4.3578429"
           height="4.2333326"
           x="30.629412"
           y="53.181244"
           inkscape:label="Latch" /><ellipse
           style="display:inline;fill:url(#radialGradient58);fill-opacity:1;stroke:none;stroke-width:0.715855;stroke-linecap:round;stroke-linejoin:miter;stroke-dasharray:none;stroke-opacity:0.75;paint-order:stroke markers fill"
           id="path56"
           inkscape:label="LED"
           cx="27.361029"
           cy="58.737488"
           rx="0.54473037"
           ry="0.52916658" /><path
           id="path59"
           style="display:inline;fill:url(#radialGradient61);stroke-width:0.715855;stroke-linecap:round;stroke-opacity:0.75;paint-order:stroke markers fill"
           inkscape:label="Led Reflection"
           d="m 27.818142,58.63774 c 0.05732,0.163117 -0.05603,0.436908 -0.319612,0.524391 -0.126933,0.04213 -0.443973,0.08033 -0.542097,-0.19571 -0.05888,-0.165636 0.09083,0.131614 0.47535,0.0027 0.345759,-0.115987 0.328127,-0.497033 0.386359,-0.331311 z"
           sodipodi:nodetypes="sssss" /><use
           x="0"
           y="0"
           xlink:href="#text1"
           id="use41"
           transform="matrix(1.0294117,0,0,1,18.372978,-1.3229191)"
           style="display:inline;opacity:1;mix-blend-mode:normal;fill:#000000;fill-opacity:1;stroke-width:0.985611"
           inkscape:label="HAL" /></g><g
         inkscape:groupmode="layer"
         id="layer8"
         inkscape:label="Hard Drive"
         style="display:inline;opacity:1;mix-blend-mode:normal"
         transform="matrix(0.99804309,0,0,1.0227278,0.09060619,-1.1666007)"><rect
           style="display:inline;opacity:1;mix-blend-mode:normal;fill:url(#linearGradient33);fill-opacity:0.502164;stroke:none;stroke-width:0.396875;stroke-linecap:round;stroke-linejoin:round;stroke-dasharray:none;stroke-opacity:1;paint-order:markers stroke fill"
           id="rect33"
           width="18.520832"
           height="10.054165"
           x="42.597916"
           y="51.329163"
           inkscape:label="Panel" /><rect
           style="display:inline;opacity:1;mix-blend-mode:normal;fill:#000000;fill-opacity:1;stroke:none;stroke-width:0.529168;stroke-linecap:round;stroke-linejoin:miter;stroke-dasharray:none;stroke-opacity:0.75;paint-order:stroke markers fill"
           id="rect35"
           width="16.341908"
           height="1.5874912"
           x="43.687382"
           y="58.208324"
           inkscape:label="Hole" /><path
           id="rect9"
           style="display:inline;opacity:1;mix-blend-mode:normal;fill:#333333;fill-opacity:1;stroke:none;stroke-width:0.529168;stroke-linecap:round;stroke-linejoin:miter;stroke-dasharray:none;stroke-opacity:0.75;paint-order:stroke markers fill"
           inkscape:label="Grid"
           d="m 49.134682,58.208326 v 0.529167 h -5.447303 v 0.529166 h 5.447303 v 0.529167 h 0.544731 v -0.529167 h 1.634191 v 0.529167 h 0.54473 v -0.529167 h 1.634191 v 0.529167 h 0.544731 v -0.529167 h 1.634191 v 0.529167 h 0.54473 v -0.529167 h 1.634191 v 0.529167 h 0.544731 v -0.529167 h 1.634191 v -0.529166 h -1.634191 v -0.529167 h -0.544731 v 0.529167 h -1.634191 v -0.529167 h -0.54473 v 0.529167 h -1.634191 v -0.529167 h -0.544731 v 0.529167 h -1.634191 v -0.529167 h -0.54473 v 0.529167 h -1.634191 v -0.529167 z" /><rect
           style="display:inline;fill:#ffffff;fill-opacity:0.75;stroke:none;stroke-width:0.529167;stroke-linecap:round;stroke-linejoin:miter;stroke-dasharray:none;stroke-opacity:0.75;paint-order:stroke markers fill"
           id="rect36"
           width="2.1789215"
           height="1.5874996"
           x="45.321571"
           y="58.208328"
           inkscape:label="LedBorder" /><rect
           style="display:inline;opacity:1;mix-blend-mode:normal;fill:#cc0000;fill-opacity:1;stroke:none;stroke-width:0.529168;stroke-linecap:round;stroke-linejoin:miter;stroke-dasharray:none;stroke-opacity:0.75;paint-order:stroke markers fill"
           id="rect34"
           width="1.0894607"
           height="0.52916658"
           x="45.866299"
           y="58.737488"
           inkscape:label="LED" /><use
           x="0"
           y="0"
           xlink:href="#text1"
           id="use42"
           inkscape:label="HAL"
           style="display:inline;opacity:1;mix-blend-mode:normal;fill:#000000;fill-opacity:1"
           transform="translate(37.570832,-1.3229173)" /></g><rect
         style="display:inline;opacity:1;mix-blend-mode:normal;fill:url(#linearGradient18);fill-opacity:1;stroke:none;stroke-width:1.06625;stroke-linecap:round;stroke-opacity:0.75;paint-order:stroke markers fill"
         id="rect4"
         width="38.60017"
         height="1.0823867"
         x="23.033247"
         y="51.329159"
         inkscape:label="Top Shadow" /><path
         id="rect3"
         style="display:inline;opacity:1;fill:url(#linearGradient4);fill-opacity:1;stroke-width:0.264583;stroke-linecap:round;stroke-linejoin:round;stroke-opacity:0.5;paint-order:markers stroke fill"
         inkscape:label="Bevel"
         d="m 23.033247,51.329159 0.271832,9.741477 c 0.0043,0.338088 0.175818,0.544652 0.543664,0.541193 H 60.81792 c 0.317793,-0.01102 0.549978,-0.151142 0.543665,-0.541193 l 0.271832,-9.74147 c 0.298964,-4e-6 0.543666,0.248028 0.543666,0.541186 v 10.823867 c 0,0.293158 -0.250508,0.54119 -0.543666,0.54119 l -38.60017,7e-6 c -0.293158,0 -0.543665,-0.248042 -0.543665,-0.5412 l 1e-6,-10.823864 c 0,-0.293158 0.250506,-0.541193 0.543664,-0.541193 z"
         sodipodi:nodetypes="ccccccssssssc" /><path
         id="path11"
         style="display:inline;opacity:1;fill:url(#radialGradient14);stroke-width:0.264583;stroke-linecap:round;stroke-linejoin:round;stroke-opacity:0.5;paint-order:markers stroke fill"
         inkscape:label="Left Shadow"
         d="m 23.033247,51.329159 0.271832,9.741477 c 0.0043,0.338088 0.175818,0.544652 0.543664,0.541193 l -0.815496,1.62358 c -0.293158,0 -0.543665,-0.248035 -0.543665,-0.541193 l 1e-6,-10.823864 c 0,-0.293158 0.250506,-0.541193 0.543664,-0.541193 z"
         sodipodi:nodetypes="ccccssc" /><path
         id="path14"
         style="display:inline;opacity:1;fill:url(#radialGradient16);fill-opacity:1;stroke-width:0.264583;stroke-linecap:round;stroke-linejoin:round;stroke-opacity:0.5;paint-order:markers stroke fill"
         inkscape:label="Right Shadow"
         d="m 61.633417,51.329162 -0.271832,9.741474 c -0.0043,0.338088 -0.175819,0.544652 -0.543665,0.541193 l 0.815497,1.62358 c 0.293158,0 0.543664,-0.248035 0.543664,-0.541193 l 10e-7,-10.823864 c 0,-0.293158 -0.250507,-0.54119 -0.543665,-0.54119 z"
         sodipodi:nodetypes="ccccssc" /></g></g><g
     inkscape:groupmode="layer"
     id="layer2"
     inkscape:label="HAL Color Monitor"
     style="display:inline;opacity:1"
     transform="matrix(0.47457627,0,0,0.47457627,0.86101703,2.6326192)"
     inkscape:highlight-color="#3e99e3"><path
       id="path88"
       style="display:inline;opacity:1;fill:url(#radialGradient91);fill-opacity:1;stroke:none;stroke-width:0.260346;stroke-linecap:round;stroke-dasharray:none;stroke-opacity:1;paint-order:normal"
       d="m 59.561557,36.823826 0.664868,2.293777 c 0.271954,0.938233 0.142766,1.750472 -0.930815,1.784046 -8.065332,0.204476 -16.13302,0.382296 -24.201174,0.382296 -8.068154,0 -16.135842,-0.17782 -24.201174,-0.382296 -1.1004842,0.06376 -1.8414209,-0.903263 -1.9946021,-1.784048 L 8.4997394,36.823826 Z"
       sodipodi:nodetypes="cssssscc"
       inkscape:label="UnderShadow"
       sodipodi:insensitive="true" /><path
       id="rect8"
       style="display:inline;opacity:1;fill:url(#linearGradient21);fill-opacity:1;stroke:none;stroke-width:0.265543;stroke-linecap:round;stroke-dasharray:none;stroke-opacity:1;paint-order:normal"
       d="m 10.074396,2.6535602 c 7.927931,-0.2470233 15.860387,-0.3956558 23.79227,-0.3956558 7.931883,0 15.864339,0.1486326 23.79227,0.395656 1.134368,0.035345 2.052211,0.073904 2.138632,1.9782783 0.243178,5.3586845 0.289608,10.7259903 0.267328,16.0899993 -0.02228,5.364909 -0.11734,10.732351 -0.400993,16.090001 -0.05975,1.006061 -0.391149,1.811644 -1.470308,1.846391 -8.107241,0.211622 -16.216851,0.395656 -24.326929,0.395656 -8.110078,0 -16.219687,-0.184034 -24.3269282,-0.395656 C 8.4335352,38.724212 8.1610762,37.731542 8.069429,36.811837 7.7857761,31.454188 7.6907196,26.086747 7.6684356,20.721838 7.6461554,15.357829 7.6925865,9.9905232 7.9357645,4.6318387 8.0221866,2.7274368 8.9400698,2.6889041 10.074396,2.6535602 Z"
       sodipodi:nodetypes="sssssssssssss"
       inkscape:label="Front Surface"
       sodipodi:insensitive="true" /><path
       id="path26"
       style="display:inline;fill:none;stroke:url(#linearGradient28);stroke-width:0.278757;stroke-linecap:round;stroke-dasharray:none"
       d="m 33.866677,2.3972829 c -7.928443,0 -15.85684,0.1506584 -23.781905,0.3975309 -1.1876304,0.036996 -1.9295423,0.106666 -2.0087085,1.8506812 -0.2429801,5.3529828 -0.290589,10.715424 -0.268315,16.075797 0.022264,5.361209 0.1169547,10.686774 0.4003846,16.038855 0.1220633,1.49811 0.6858638,1.783644 1.3415755,1.776788 8.1047994,0.211505 16.2105524,0.377557 24.3164464,0.377573 h 10e-4 c 8.105895,-1.6e-5 16.211648,-0.185511 24.316448,-0.397016 0.606128,-0.0195 1.25579,-0.276679 1.341575,-1.720402 0.28344,-5.35208 0.37813,-10.714589 0.400394,-16.075798 0.02231,-5.360373 -0.012,-10.7234345 -0.268281,-16.075797 C 59.573324,2.8918702 58.83286,2.8251051 57.648582,2.7948138 49.722266,2.5920757 41.795122,2.3972829 33.866677,2.3972829 Z"
       sodipodi:nodetypes="ssccccssccssss"
       inkscape:label="FrontSurfaceBorder"
       sodipodi:insensitive="true" /><rect
       style="display:inline;opacity:1;mix-blend-mode:normal;fill:url(#linearGradient40);fill-opacity:0.75;stroke:none;stroke-width:0.0664937;stroke-linecap:round;stroke-miterlimit:3.3"
       id="rect6"
       width="44.643925"
       height="28.750982"
       x="11.544705"
       y="5.8188305"
       rx="7.3757007e-18"
       ry="7.3888893e-18"
       inkscape:label="InnerPanel"
       sodipodi:insensitive="true" /><rect
       style="display:inline;fill:url(#linearGradient39);fill-opacity:1;stroke:none;stroke-width:0.269573;stroke-miterlimit:3.6;stroke-opacity:0.5;paint-order:fill markers stroke"
       id="rect38"
       width="0.55751485"
       height="28.154501"
       x="50.592113"
       y="6.1605086"
       inkscape:label="ControlPanelEdge"
       sodipodi:insensitive="true" /><path
       id="path10"
       style="display:inline;fill:url(#linearGradient24);fill-opacity:1;stroke:none;stroke-width:0.228232;stroke-linecap:round"
       inkscape:label="InnerBevel"
       d="m 33.866666,4.8956096 c -6.994794,0 -13.98933,0.1264679 -20.98114,0.3333193 -1.047778,0.030998 -1.70278,0.089393 -1.77262,1.5506821 -0.214368,4.4852 -0.256173,8.977904 -0.236523,13.469296 0.01964,4.492094 0.103423,8.985366 0.353479,13.469811 0.07569,1.209725 0.648436,1.425121 1.183139,1.441465 7.150383,0.177218 14.301796,0.332793 21.453143,0.332804 h 0.001 c 7.15135,-1.1e-5 14.30224,-0.155586 21.452621,-0.332804 0.534752,-0.01632 1.107979,-0.231786 1.183661,-1.441465 0.250054,-4.484445 0.333838,-8.977717 0.353479,-13.469811 0.01968,-4.491392 -0.02214,-8.984096 -0.236523,-13.469296 C 56.550589,5.3183214 55.895583,5.2599276 54.847806,5.2289289 47.855995,5.0220775 40.86146,4.8956096 33.866666,4.8956096 Z m 0,1.0550819 c 6.750797,0 13.501723,0.1175506 20.249641,0.3101364 1.011227,0.028861 1.642563,0.083014 1.709964,1.4435253 0.206893,4.1758768 0.247687,8.3593058 0.228692,12.5409468 -0.01895,4.182296 -0.09961,8.365774 -0.340948,12.540948 -0.07304,1.126253 -0.626316,1.326832 -1.142413,1.342036 -6.900956,0.164995 -13.802523,0.30961 -20.704413,0.30962 h -0.001 c -6.901887,-1e-5 -13.803456,-0.144625 -20.704413,-0.30962 -0.516052,-0.01521 -1.069373,-0.215741 -1.142413,-1.342036 -0.241333,-4.175174 -0.321994,-8.358652 -0.340948,-12.540948 -0.01896,-4.181641 0.0218,-8.36507 0.228691,-12.5409468 0.0674,-1.3605097 0.698737,-1.4146642 1.709965,-1.4435253 6.747906,-0.1925858 13.498835,-0.3101364 20.24963,-0.3101364 z"
       sodipodi:insensitive="true" /><rect
       style="display:inline;opacity:1;fill:#000000;fill-opacity:1;stroke:none;stroke-width:0.0663859;stroke-linecap:round;stroke-miterlimit:3.3"
       id="rect78"
       width="35.554741"
       height="26.113277"
       x="13.683337"
       y="6.8739123"
       rx="7.4198655e-18"
       ry="7.3211026e-18"
       inkscape:label="Screen"
       sodipodi:insensitive="true" /><path
       style="display:inline;opacity:1;fill:url(#radialGradient27);stroke-width:1.59291;stroke-linecap:round;stroke-linejoin:round;stroke-miterlimit:3.3"
       d="m 24.707505,23.284178 c 0,1.592899 1.592889,3.185798 3.185779,3.185798 -1.59289,3.185796 -4.778694,3.185796 -7.96449,4.778699 1.59289,-3.185796 1.59289,-6.371598 4.778711,-7.964497 z"
       id="path18"
       inkscape:label="Fire"
       sodipodi:nodetypes="cccc" /><path
       style="display:inline;opacity:1;fill:url(#linearGradient13-9);fill-opacity:1;stroke-width:1.59291;stroke-linecap:round;stroke-linejoin:round;stroke-miterlimit:3.3"
       d="m 30.670617,20.48636 c 2.396181,2.389343 3.594271,5.976782 3.594271,10.762315 3.1858,-3.185796 4.778703,-12.743195 1.592899,-15.928995 z"
       id="path2-7"
       sodipodi:nodetypes="cccc"
       inkscape:label="Right Fin" /><path
       style="display:inline;opacity:1;fill:url(#linearGradient18-2);fill-opacity:1;stroke-width:1.59291;stroke-linecap:round;stroke-linejoin:round;stroke-miterlimit:3.3"
       d="m 19.928794,16.912579 c 4.771878,0 8.352461,1.191261 10.741823,3.573781 l 5.18717,-5.16668 C 32.671991,12.13388 23.11459,13.726781 19.928794,16.912579 Z"
       id="path8-8"
       sodipodi:nodetypes="cccc"
       inkscape:label="Left Fin" /><path
       style="display:inline;opacity:1;fill:url(#linearGradient4-1);fill-opacity:1;stroke-width:1.59291;stroke-linecap:round;stroke-linejoin:round;stroke-miterlimit:3.3"
       d="m 42.229389,8.9480819 c 0,9.5573981 -7.964501,14.3360961 -14.336105,17.5218941 -1.59289,0 -3.185779,-1.592899 -3.185779,-3.185798 3.185779,-6.371597 7.964486,-14.3360961 17.521884,-14.3360961 z"
       id="path1-4"
       inkscape:label="Rocket"
       sodipodi:nodetypes="cccc" /><circle
       style="display:inline;opacity:1;fill:url(#radialGradient15);fill-opacity:1;stroke:#000000;stroke-width:0.464573;stroke-linecap:round;stroke-linejoin:round;stroke-miterlimit:3.3;stroke-dasharray:none;stroke-opacity:0.25;paint-order:stroke fill markers"
       id="path3-5"
       cx="35.725044"
       cy="15.452417"
       inkscape:label="Window"
       r="1.6725446" /><rect
       style="display:inline;opacity:1;fill:url(#radialGradient82);stroke:none;stroke-width:0.0663859;stroke-linecap:round;stroke-miterlimit:3.3"
       id="rect79"
       width="35.554741"
       height="26.113277"
       x="13.683337"
       y="6.8739123"
       rx="7.4198655e-18"
       ry="7.3211026e-18"
       inkscape:label="Screen Reflection"
       sodipodi:insensitive="true" /><path
       id="rect12"
       style="display:inline;opacity:1;fill:url(#linearGradient35);stroke-width:0.265543;stroke-miterlimit:3.6;stroke-opacity:0.5;paint-order:fill markers stroke"
       inkscape:label="ScreenBevel"
       d="m 13.549671,6.4782574 c -0.296201,0 -0.534658,0.2352839 -0.534658,0.5275409 V 32.855306 c 0,0.292258 0.238457,0.527542 0.534658,0.527542 0,0 11.940702,0.26377 17.911035,0.26377 5.970333,0 17.911035,-0.26377 17.911035,-0.26377 0.2962,0 0.534658,-0.235284 0.534658,-0.527542 V 7.0057983 c 0,-0.292257 -0.238458,-0.5275409 -0.534658,-0.5275409 z m 17.911035,0.5275409 c 5.616729,5e-7 11.229205,0.3128975 16.84172,0.5275411 0.344296,0.013165 0.522139,0.1446206 0.534657,0.5275409 0.489766,7.8338167 0.461178,15.9164887 0,23.7393447 -0.01555,0.263736 -0.267328,0.508849 -0.534657,0.527541 -5.522428,0.386142 -11.305442,0.52754 -16.84172,0.52754 -5.447356,0 -11.141091,-0.141659 -16.57439,-0.52754 -0.26733,-0.01898 -0.500321,-0.265137 -0.534658,-0.527541 C 13.330826,23.998977 13.827414,15.8966 14.084329,8.0608803 14.096859,7.6780057 14.27462,7.5465093 14.618986,7.5333394 20.231502,7.3186958 25.846806,7.0057978 31.460706,7.0057983 Z"
       sodipodi:nodetypes="ssscscsssssscssssscss"
       sodipodi:insensitive="true" /><g
       inkscape:groupmode="layer"
       id="g44"
       inkscape:label="Badge"
       style="display:inline;opacity:1;mix-blend-mode:normal;stroke-width:1.2"
       transform="matrix(0.84198083,0,0,0.83077332,5.7070783,1.5704306)"
       sodipodi:insensitive="true"><rect
         style="display:inline;opacity:1;mix-blend-mode:normal;fill:url(#linearGradient9-9);fill-opacity:1;stroke:none;stroke-width:0.16665;stroke-linecap:round;stroke-linejoin:round;stroke-dasharray:none;stroke-opacity:0.5;paint-order:markers stroke fill"
         id="rect7-1"
         width="3.9728806"
         height="4.697556"
         x="54.633148"
         y="8.8804626"
         rx="8.8123943e-18"
         inkscape:label="Panel"
         ry="8.8123943e-18" /><use
         x="0"
         y="0"
         xlink:href="#text1"
         id="use49"
         inkscape:label="HAL"
         style="display:inline;opacity:1;mix-blend-mode:normal;stroke-width:1.14312"
         transform="matrix(1.2513009,0,0,1.2681688,47.34842,-58.896751)" /><path
         id="path52"
         style="font-style:italic;font-size:0.846668px;line-height:1;font-family:'Droid Serif';-inkscape-font-specification:'Droid Serif Italic';letter-spacing:0px;word-spacing:0px;display:inline;opacity:1;mix-blend-mode:normal;fill:#000000;fill-opacity:1;stroke-width:0.381;stroke-miterlimit:3.6;stroke-opacity:0.5;paint-order:fill markers stroke"
         d="m 57.133784,10.908039 c -0.0096,0 -0.01742,0.0039 -0.02327,0.01154 -0.0057,0.0075 -0.0084,0.01781 -0.0084,0.03029 0,0.0215 0.0099,0.03173 0.02975,0.03173 0.0093,0 0.01678,-0.0032 0.02264,-0.01005 0.006,-0.0071 0.0091,-0.01757 0.0091,-0.03101 0,-0.0217 -0.0099,-0.03245 -0.02975,-0.03245 z m -1.195576,6.96e-4 -0.0045,0.02524 h 0.0045 c 0.0248,0 0.03685,0.009 0.03685,0.02741 0,0.0035 -0.0019,0.01373 -0.0052,0.03101 l -0.06854,0.364899 h 0.04914 l 0.02845,-0.151441 c 0.0055,-0.0288 0.01878,-0.05749 0.03944,-0.08726 0.02083,-0.02995 0.04116,-0.04543 0.06078,-0.04543 0.01618,0 0.02457,0.0121 0.02457,0.03533 0,0.01287 -0.0026,0.031 -0.0077,0.05481 l -0.01229,0.06129 c -0.0067,0.03514 -0.01032,0.06127 -0.01032,0.07933 0,0.01805 0.0043,0.0327 0.01293,0.04327 0.0088,0.01056 0.02028,0.01586 0.03492,0.01586 0.01998,0 0.04159,-0.01162 0.06466,-0.0339 l -0.0091,-0.01731 c -0.0124,0.009 -0.02411,0.0137 -0.03426,0.0137 -0.0124,0 -0.01875,-0.0093 -0.01875,-0.02812 0,-0.01766 0.0024,-0.0384 0.0071,-0.06202 l 0.01358,-0.06995 c 0.0064,-0.03073 0.0097,-0.0517 0.0097,-0.06418 0,-0.04359 -0.01854,-0.06562 -0.05625,-0.06562 -0.03598,0 -0.06901,0.02632 -0.09829,0.07933 h -0.0052 c 0.0077,-0.03304 0.01449,-0.06582 0.0207,-0.09808 l 0.02069,-0.108171 z m -0.89555,0.02741 -0.0045,0.02452 h 0.0071 c 0.01515,0 0.02492,0.0024 0.02975,0.0072 0.0048,0.0048 0.0071,0.0117 0.0071,0.02091 0,0.0041 -2.52e-4,0.009 -0.0014,0.01442 l -0.05496,0.289899 c -0.0024,0.01229 -0.0072,0.02174 -0.01422,0.02885 -0.0069,0.0069 -0.0196,0.01005 -0.03751,0.01005 h -0.0071 l -0.0039,0.02524 h 0.283861 l 0.02327,-0.103123 h -0.0278 l -0.0084,0.02524 c -0.01011,0.03226 -0.03034,0.04832 -0.06013,0.04832 H 55.0723 l 0.03363,-0.17668 h 0.127381 l 0.0052,-0.02885 h -0.127382 l 0.03039,-0.156488 h 0.08859 c 0.02514,0 0.03751,0.01263 0.03751,0.03894 0,0.0016 -4.18e-4,0.0073 -0.0014,0.01659 l -0.0014,0.01802 h 0.02781 l 0.01681,-0.103123 z m 1.897791,0.03173 c -0.01946,0.05511 -0.04639,0.08294 -0.08082,0.08294 l -0.0045,0.0238 h 0.04009 l -0.03234,0.17019 c -0.0034,0.01825 -0.0052,0.03425 -0.0052,0.04904 0,0.0459 0.01914,0.06923 0.05755,0.06923 0.02376,0 0.04736,-0.0093 0.07112,-0.02812 l -0.0091,-0.02235 c -0.01446,0.0087 -0.02838,0.01298 -0.04268,0.01298 -0.01877,0 -0.02845,-0.01095 -0.02845,-0.03245 0,-0.01114 0.0022,-0.02782 0.0065,-0.05048 l 0.03233,-0.168027 h 0.06401 l 0.0065,-0.03389 h -0.06401 l 0.01358,-0.07284 z m 0.839943,0.04398 c -0.02134,0 -0.04021,0.01398 -0.0569,0.04183 -0.01377,-0.01248 -0.03175,-0.01875 -0.05432,-0.01875 -0.03685,0 -0.06667,0.01384 -0.08924,0.04111 -0.02239,0.02707 -0.03363,0.05692 -0.03363,0.09015 0,0.0336 0.01223,0.05709 0.03685,0.06995 -0.01946,0.01114 -0.03238,0.02112 -0.03944,0.02956 -0.0069,0.0085 -0.01032,0.01819 -0.01032,0.03029 0,0.01785 0.0083,0.03189 0.02522,0.0411 -0.02669,0.0058 -0.04787,0.0155 -0.06337,0.03029 -0.01533,0.01498 -0.02263,0.03369 -0.02263,0.05481 0,0.05128 0.03813,0.07644 0.115096,0.07644 0.04597,0 0.08125,-0.01046 0.106044,-0.03101 0.0248,-0.02035 0.03751,-0.04842 0.03751,-0.08509 0,-0.04494 -0.02736,-0.07063 -0.08212,-0.07716 l -0.05108,-0.0065 c -0.01808,-0.002 -0.02651,-0.0075 -0.02651,-0.01731 0,-0.01344 0.01237,-0.02617 0.03751,-0.0375 0.0031,7.66e-4 0.0088,0.0015 0.01681,0.0015 0.03633,0 0.06572,-0.01365 0.08794,-0.04111 0.02221,-0.02766 0.03297,-0.05783 0.03297,-0.09087 0,-0.01805 -0.0039,-0.03314 -0.01164,-0.04543 0.0105,-0.009 0.01962,-0.0137 0.02651,-0.0137 0.0098,0 0.01422,0.0067 0.01422,0.02091 0.02083,0 0.03168,-0.01167 0.03168,-0.03605 0,-0.01805 -0.0094,-0.02741 -0.02716,-0.02741 z m -1.979265,0.02308 c -0.04545,0 -0.08337,0.02188 -0.113155,0.0649 -0.02979,0.04282 -0.04462,0.08987 -0.04462,0.141343 0,0.03783 0.0095,0.06772 0.02846,0.08943 0.01895,0.0217 0.04419,0.03245 0.075,0.03245 0.02789,0 0.05007,-0.0073 0.0666,-0.02092 0.0167,-0.01384 0.02458,-0.02824 0.02458,-0.04399 0,-0.0073 -0.0016,-0.01263 -0.0052,-0.01514 -0.01998,0.02822 -0.04547,0.04254 -0.0763,0.04254 -0.03874,0 -0.05819,-0.02666 -0.05819,-0.08005 0,-0.03937 0.0096,-0.07933 0.02781,-0.120431 0.01842,-0.0411 0.03939,-0.06202 0.06401,-0.06202 0.01274,0 0.02316,0.0066 0.03038,0.01947 0.0072,0.01267 0.011,0.02955 0.011,0.05048 0.01429,0 0.02518,-0.0037 0.03363,-0.01154 0.0087,-0.0078 0.01293,-0.01838 0.01293,-0.03029 0,-0.01613 -0.0065,-0.0289 -0.02005,-0.03966 -0.0136,-0.01075 -0.03263,-0.01659 -0.0569,-0.01659 z m 0.574188,0 c -0.0446,0 -0.08221,0.02295 -0.11251,0.06923 -0.03013,0.04628 -0.04526,0.09656 -0.04526,0.150719 0,0.03399 0.0063,0.06103 0.0181,0.08005 0.01205,0.01882 0.02891,0.02812 0.05044,0.02812 0.04064,0 0.07362,-0.03201 0.09893,-0.09519 h 0.0032 c -0.0036,0.01805 -0.0052,0.03368 -0.0052,0.04615 0,0.03264 0.01384,0.04904 0.04138,0.04904 0.02445,0 0.04905,-0.01191 0.07436,-0.03534 l -0.0097,-0.01731 c -0.0155,0.01015 -0.02816,0.01514 -0.03814,0.01514 -0.01154,0 -0.01745,-0.0096 -0.01745,-0.02956 0,-0.01651 0.0026,-0.03854 0.0077,-0.06562 l 0.03621,-0.18894 h -0.01681 l -0.02327,0.01514 c -0.01738,-0.01421 -0.03814,-0.02163 -0.06207,-0.02163 z m -0.852228,6.97e-4 c -0.03564,0 -0.06776,0.02632 -0.09635,0.07933 h -0.0052 l 0.01422,-0.07428 h -0.09764 l -0.0045,0.02452 h 0.0039 c 0.02462,0 0.03685,0.0095 0.03685,0.02812 0,0.0067 -5.05e-4,0.01574 -0.0026,0.02668 l -0.04462,0.237256 h 0.04914 l 0.02846,-0.15144 c 0.0058,-0.02939 0.01895,-0.05841 0.03944,-0.08798 0.02066,-0.02957 0.04116,-0.04471 0.06078,-0.04471 0.01619,0 0.02393,0.0121 0.02393,0.03533 0,0.01287 -0.0026,0.031 -0.0077,0.05481 l -0.01228,0.06129 c -0.0067,0.03514 -0.0097,0.06127 -0.0097,0.07932 0,0.01805 0.0043,0.0327 0.01293,0.04327 0.0088,0.01056 0.02028,0.01586 0.03492,0.01586 0.01998,0 0.04158,-0.01162 0.06466,-0.0339 l -0.0097,-0.01731 c -0.0124,0.009 -0.02346,0.0137 -0.03363,0.0137 -0.0124,0 -0.01875,-0.0093 -0.01875,-0.02812 0,-0.01767 0.0024,-0.0384 0.0071,-0.06202 l 0.01358,-0.06923 c 0.0064,-0.03073 0.0097,-0.05242 0.0097,-0.0649 0,-0.04359 -0.0192,-0.06562 -0.0569,-0.06562 z m 1.198163,0 c -0.03564,0 -0.06776,0.02632 -0.09635,0.07933 h -0.0052 l 0.01422,-0.07428 h -0.09829 l -0.0045,0.02452 h 0.0039 c 0.02462,0 0.03751,0.0095 0.03751,0.02812 0,0.0067 -0.0011,0.01574 -0.0032,0.02668 l -0.04462,0.237256 h 0.04914 l 0.02846,-0.15144 c 0.0058,-0.02939 0.01895,-0.05841 0.03943,-0.08798 0.02066,-0.02957 0.04116,-0.04471 0.06078,-0.04471 0.01618,0 0.02392,0.0121 0.02392,0.03533 0,0.01287 -0.0026,0.031 -0.0077,0.05481 l -0.01164,0.06129 c -0.0067,0.03514 -0.01032,0.06127 -0.01032,0.07932 0,0.01805 0.0043,0.0327 0.01293,0.04327 0.0088,0.01056 0.02028,0.01586 0.03492,0.01586 0.01998,0 0.04159,-0.01162 0.06466,-0.0339 l -0.0097,-0.01731 c -0.0124,0.009 -0.02347,0.0137 -0.03363,0.0137 -0.0124,0 -0.01876,-0.0093 -0.01876,-0.02812 0,-0.01767 0.0024,-0.0384 0.0071,-0.06202 l 0.01358,-0.06923 c 0.0064,-0.03073 0.0097,-0.05242 0.0097,-0.0649 0,-0.04359 -0.01854,-0.06562 -0.05625,-0.06562 z m 0.672471,0 c -0.03564,0 -0.06775,0.02632 -0.09635,0.07933 h -0.0052 l 0.01422,-0.07428 h -0.09829 l -0.0045,0.02452 h 0.0045 c 0.02462,0 0.03685,0.0095 0.03685,0.02812 0,0.0067 -0.0011,0.01574 -0.0032,0.02668 l -0.04462,0.237256 h 0.04914 l 0.02846,-0.15144 c 0.0058,-0.02939 0.01959,-0.05841 0.04009,-0.08798 0.02066,-0.02957 0.0405,-0.04471 0.06013,-0.04471 0.01618,0 0.02457,0.0121 0.02457,0.03533 0,0.01287 -0.0026,0.031 -0.0077,0.05481 l -0.01229,0.06129 c -0.0067,0.03514 -0.01032,0.06127 -0.01032,0.07932 0,0.01805 0.0043,0.0327 0.01293,0.04327 0.0088,0.01056 0.02093,0.01586 0.03556,0.01586 0.01997,0 0.04094,-0.01162 0.06401,-0.0339 l -0.0091,-0.01731 c -0.0124,0.009 -0.02411,0.0137 -0.03426,0.0137 -0.0124,0 -0.0181,-0.0093 -0.0181,-0.02812 0,-0.01767 0.0018,-0.0384 0.0065,-0.06202 l 0.01358,-0.06995 c 0.0064,-0.03072 0.0097,-0.0517 0.0097,-0.06418 0,-0.04359 -0.01854,-0.06563 -0.05626,-0.06563 z m -0.343348,0.005 -0.0045,0.02452 h 0.0071 c 0.02152,0 0.03234,0.0087 0.03234,0.02524 0,0.0041 -7.5e-4,0.0088 -0.002,0.01514 l -0.02069,0.108892 c -0.0079,0.04416 -0.01164,0.07464 -0.01164,0.0923 0,0.01613 0.0042,0.02983 0.01228,0.04039 0.0081,0.01056 0.0186,0.01586 0.03168,0.01586 0.02324,0 0.04733,-0.01191 0.07177,-0.03534 l -0.0097,-0.01731 c -0.01515,0.01015 -0.02799,0.01514 -0.03814,0.01514 -0.01171,0 -0.01747,-0.0096 -0.01747,-0.02956 0,-0.01536 0.0024,-0.03739 0.0077,-0.06562 l 0.03621,-0.189661 z m -0.671825,0.02092 c 0.0186,0 0.03135,0.0067 0.03944,0.02091 l -0.01939,0.104568 c -0.0062,0.03437 -0.01887,0.06619 -0.03815,0.09519 -0.01929,0.029 -0.03805,0.04327 -0.05561,0.04327 -0.02221,0 -0.03297,-0.02228 -0.03297,-0.06779 0,-0.04513 0.01012,-0.08934 0.03039,-0.131969 0.02049,-0.04282 0.04617,-0.06418 0.0763,-0.06418 z m 1.284162,6.97e-4 c 0.02428,0 0.03621,0.01605 0.03621,0.04832 0,0.0265 -0.0064,0.05109 -0.01875,0.07356 -0.01223,0.02228 -0.02835,0.03317 -0.0485,0.03317 -0.02444,0 -0.03685,-0.01605 -0.03685,-0.04832 0,-0.02611 0.006,-0.05037 0.0181,-0.07284 0.01223,-0.02266 0.02912,-0.0339 0.04979,-0.0339 z m -0.07823,0.287736 0.05108,0.005 c 0.03289,0.0032 0.04979,0.01825 0.04979,0.04398 0,0.0217 -0.0082,0.03853 -0.02457,0.05119 -0.01618,0.01287 -0.04013,0.01947 -0.07112,0.01947 -0.04976,0 -0.07436,-0.01702 -0.07436,-0.05119 0,-0.01594 0.0045,-0.02944 0.01358,-0.04038 0.0092,-0.01094 0.01976,-0.01831 0.03233,-0.02235 0.01274,-0.0041 0.0207,-0.006 0.02328,-0.0058 z m -0.621389,0.29639 c -0.0096,0 -0.01742,0.0039 -0.02328,0.01154 -0.0057,0.0075 -0.0084,0.01781 -0.0084,0.03029 0,0.02151 0.0099,0.03173 0.02975,0.03173 0.0093,0 0.01678,-0.0032 0.02263,-0.01005 0.006,-0.0071 0.0091,-0.01756 0.0091,-0.03101 0,-0.0217 -0.0099,-0.03245 -0.02975,-0.03245 z m -1.295154,6.97e-4 -0.0052,0.02524 h 0.0065 c 0.0248,0 0.03751,0.009 0.03751,0.02741 0,0.006 -0.0017,0.01497 -0.0039,0.02668 l -0.04268,0.226439 c -0.0077,0.04321 -0.01164,0.07367 -0.01164,0.0923 0,0.01651 0.0035,0.03001 0.01164,0.04039 0.0082,0.01036 0.01895,0.01586 0.03168,0.01586 0.02324,0 0.04733,-0.01191 0.07177,-0.03534 l -0.0097,-0.01731 c -0.01515,0.01015 -0.02799,0.01514 -0.03814,0.01514 -0.01171,0 -0.01747,-0.0096 -0.01747,-0.02956 0,-0.01555 0.003,-0.03758 0.0084,-0.06562 l 0.06078,-0.32163 z m 1.944347,0 -0.0045,0.02524 h 0.0058 c 0.02479,0 0.03751,0.009 0.03751,0.02741 0,0.006 -10e-4,0.01497 -0.0032,0.02668 l -0.04331,0.226439 c -0.0077,0.04321 -0.01164,0.07367 -0.01164,0.0923 0,0.01651 0.0042,0.03001 0.01228,0.04039 0.0082,0.01036 0.01895,0.01586 0.03168,0.01586 0.02324,0 0.04668,-0.01191 0.07112,-0.03534 l -0.0097,-0.01731 c -0.01515,0.01015 -0.02735,0.01514 -0.03751,0.01514 -0.01171,0 -0.01747,-0.0096 -0.01747,-0.02956 0,-0.01555 0.0024,-0.03758 0.0077,-0.06562 l 0.06143,-0.32163 z m -2.392446,0.02092 c -0.06199,0 -0.114163,0.02767 -0.155832,0.08221 -0.04167,0.05435 -0.06207,0.118756 -0.06207,0.193266 0,0.05032 0.01249,0.08936 0.03814,0.116826 0.02583,0.02746 0.06201,0.04111 0.107984,0.04111 0.03444,0 0.0612,-0.0077 0.08082,-0.02236 0.01963,-0.01479 0.02975,-0.03166 0.02975,-0.05048 0,-0.0094 -0.0024,-0.0158 -0.0071,-0.01947 -0.02445,0.03573 -0.05747,0.05408 -0.09829,0.05408 -0.06268,0 -0.09376,-0.03679 -0.09376,-0.110335 0,-0.06279 0.01469,-0.120986 0.04397,-0.173796 0.02945,-0.05301 0.06571,-0.07932 0.109275,-0.07932 0.03513,0 0.05302,0.02665 0.05302,0.08005 0.01567,0 0.02803,-0.004 0.03751,-0.01227 0.0095,-0.0083 0.01422,-0.01987 0.01422,-0.03389 0,-0.02017 -0.0087,-0.03589 -0.02587,-0.0476 -0.01722,-0.01191 -0.04096,-0.01802 -0.07177,-0.01802 z m 1.308086,0.0065 -0.0045,0.02452 h 0.0065 c 0.02548,0 0.03815,0.0081 0.03815,0.0238 0,0.0037 -5.67e-4,0.0093 -0.002,0.01659 l -0.05496,0.289178 c -0.0053,0.02822 -0.02246,0.04183 -0.05173,0.04183 h -0.0071 l -0.0045,0.02524 h 0.166825 c 0.06422,0 0.115495,-0.02512 0.153892,-0.07428 0.03839,-0.04935 0.05755,-0.111498 0.05755,-0.186776 0,-0.05147 -0.01281,-0.09062 -0.0388,-0.118268 -0.02601,-0.02785 -0.06318,-0.04183 -0.111217,-0.04183 z m 0.09829,0.02884 h 0.04203 c 0.06698,0 0.100226,0.0418 0.100226,0.124757 0,0.07106 -0.01483,0.128764 -0.04462,0.172354 -0.02961,0.04359 -0.06995,0.06491 -0.120916,0.06491 h -0.04591 z m -1.139968,0.06995 c -0.04701,0 -0.08535,0.02121 -0.114448,0.06346 -0.02892,0.04206 -0.04332,0.08978 -0.04332,0.142786 0,0.03822 0.0093,0.06792 0.02716,0.08942 0.0179,0.02151 0.04251,0.03245 0.07436,0.03245 0.04683,0 0.08504,-0.02121 0.113802,-0.06346 0.02876,-0.04244 0.04268,-0.09036 0.04268,-0.142787 0,-0.03956 -0.0087,-0.06921 -0.02651,-0.09015 -0.0179,-0.02093 -0.04254,-0.03173 -0.07371,-0.03173 z m 0.464264,0 c -0.04701,0 -0.0847,0.02121 -0.113802,0.06346 -0.02893,0.04206 -0.04333,0.08978 -0.04333,0.142786 0,0.03822 0.0087,0.06792 0.02651,0.08942 0.0179,0.02151 0.04315,0.03245 0.075,0.03245 0.04683,0 0.0844,-0.02121 0.113157,-0.06346 0.02876,-0.04244 0.04331,-0.09036 0.04331,-0.142787 0,-0.03956 -0.0093,-0.06921 -0.02715,-0.09015 -0.0179,-0.02093 -0.04254,-0.03173 -0.07371,-0.03173 z m 0.330416,0 c -0.01826,0 -0.03408,0.0061 -0.04785,0.01875 -0.01377,0.01267 -0.0279,0.03697 -0.04203,0.07212 h -0.0052 l 0.01099,-0.08509 h -0.09311 l -0.0052,0.02452 h 0.0045 c 0.02807,0 0.04203,0.0095 0.04203,0.02812 0,0.0067 -0.0011,0.01574 -0.0032,0.02667 l -0.04462,0.237256 h 0.04979 l 0.01939,-0.10745 c 0.0088,-0.04531 0.02248,-0.08596 0.04074,-0.121873 0.01843,-0.03592 0.03602,-0.05408 0.05238,-0.05408 0.01412,0 0.02133,0.01577 0.02133,0.04687 0.02927,0 0.04397,-0.01548 0.04397,-0.04543 0,-0.02707 -0.01505,-0.04038 -0.04397,-0.04038 z m 1.183292,0 c -0.03908,0 -0.07151,0.02811 -0.09699,0.08437 h -0.0026 l 0.01293,-0.0786 h -0.09376 l -0.0045,0.02452 h 0.0039 c 0.02462,0 0.03685,0.0095 0.03685,0.02812 0,0.0043 -0.0015,0.01449 -0.0045,0.03101 l -0.07048,0.374274 h 0.09958 l 0.0045,-0.02452 h -0.0071 c -0.02462,0 -0.03685,-0.0092 -0.03685,-0.02741 0,-0.0055 0.0019,-0.01685 0.0052,-0.03317 l 0.0071,-0.03606 c 0.0014,-0.0064 0.003,-0.01545 0.0045,-0.02812 0.01428,0.009 0.03158,0.0137 0.05173,0.0137 0.04615,0 0.08371,-0.02415 0.113157,-0.07139 0.02962,-0.04743 0.04462,-0.09719 0.04462,-0.149997 0,-0.03457 -0.0057,-0.06109 -0.01745,-0.07933 -0.01153,-0.01824 -0.02827,-0.02741 -0.04979,-0.02741 z m 0.431287,0 c -0.0446,0 -0.08221,0.02295 -0.11251,0.06923 -0.03014,0.04628 -0.04527,0.09656 -0.04527,0.150718 0,0.03399 0.0063,0.06103 0.0181,0.08005 0.01205,0.01882 0.02891,0.02812 0.05044,0.02812 0.04064,0 0.07362,-0.03201 0.09893,-0.09519 h 0.0032 c -0.0037,0.01805 -0.0058,0.03368 -0.0058,0.04615 0,0.03264 0.01383,0.04904 0.04139,0.04904 0.02445,0 0.0497,-0.01191 0.075,-0.03534 l -0.0097,-0.01731 c -0.0155,0.01015 -0.02816,0.01514 -0.03814,0.01514 -0.01154,0 -0.01747,-0.0096 -0.01747,-0.02956 0,-0.01651 0.0026,-0.03854 0.0077,-0.06562 l 0.03621,-0.18894 h -0.01681 l -0.02328,0.01514 c -0.01739,-0.0142 -0.03814,-0.02163 -0.06207,-0.02163 z m -0.743599,6.96e-4 c -0.03031,0 -0.05477,0.008 -0.07371,0.02452 -0.01877,0.01633 -0.02846,0.03773 -0.02846,0.06346 0,0.01882 0.0043,0.03535 0.01293,0.04975 0.0088,0.0142 0.02642,0.02766 0.05173,0.0411 0.01946,0.0099 0.03265,0.0205 0.04074,0.03029 0.0081,0.0096 0.01228,0.02132 0.01228,0.03533 0,0.03649 -0.01885,0.05481 -0.0569,0.05481 -0.01911,0 -0.03394,-0.0068 -0.04462,-0.02019 -0.0105,-0.01364 -0.01616,-0.03258 -0.01616,-0.05697 -0.0096,0 -0.01756,0.0026 -0.02393,0.0094 -0.0062,0.0066 -0.0091,0.01617 -0.0091,0.02884 0,0.02036 0.0076,0.03694 0.02327,0.04904 0.01584,0.01191 0.03732,0.01802 0.06401,0.01802 0.03305,0 0.05956,-0.0088 0.07953,-0.02668 0.01998,-0.01786 0.02975,-0.04167 0.02975,-0.07067 0,-0.03994 -0.02101,-0.07046 -0.06337,-0.09158 -0.01843,-0.009 -0.03196,-0.01819 -0.04074,-0.02741 -0.0088,-0.0092 -0.01293,-0.02011 -0.01293,-0.03317 0,-0.01479 0.0045,-0.02737 0.01358,-0.03678 0.0093,-0.0096 0.02167,-0.01442 0.03751,-0.01442 0.01498,0 0.02665,0.0062 0.03492,0.01802 0.0084,0.01191 0.01293,0.02782 0.01293,0.0476 0.02653,0 0.03944,-0.01239 0.03944,-0.03678 0,-0.01575 -0.0073,-0.0289 -0.02198,-0.03966 -0.01446,-0.01075 -0.03478,-0.01587 -0.06078,-0.01587 z m 1.085653,0 c -0.0093,0 -0.01704,0.0037 -0.02392,0.01154 -0.0069,0.0078 -0.01032,0.01848 -0.01032,0.03173 0.01738,0 0.02587,0.01114 0.02587,0.03245 0,0.04973 -0.02343,0.114583 -0.07112,0.195429 h -0.002 c -0.0021,-0.02189 -0.0093,-0.05738 -0.02198,-0.106729 l -0.04139,-0.159372 h -0.07695 l -0.0045,0.02452 h 0.0058 c 0.0105,0 0.01793,0.0024 0.02327,0.0072 0.0054,0.0046 0.0098,0.013 0.01293,0.02452 l 0.06983,0.261054 c -0.04856,0.07163 -0.09827,0.10745 -0.148719,0.10745 -0.01515,0 -0.02898,-0.0028 -0.04138,-0.0072 l -0.0077,0.02956 c 0.01464,0.0071 0.0312,0.01081 0.04979,0.01081 0.04683,0 0.08457,-0.01359 0.113155,-0.04183 0.02876,-0.02822 0.06692,-0.08579 0.11445,-0.171633 0.04753,-0.08603 0.07112,-0.152323 0.07112,-0.199756 0,-0.03304 -0.01227,-0.04975 -0.03621,-0.04975 z m -1.357227,0.005 -0.0052,0.02452 0.0071,6.97e-4 c 0.02152,0 0.03233,0.008 0.03233,0.02452 0,0.0041 -7.5e-4,0.0088 -0.002,0.01514 l -0.02004,0.108893 c -0.0079,0.04417 -0.01228,0.07464 -0.01228,0.0923 0,0.01613 0.0042,0.02983 0.01228,0.04038 0.0081,0.01056 0.0186,0.01587 0.03168,0.01587 0.02324,0 0.04733,-0.01191 0.07177,-0.03534 l -0.0097,-0.01731 c -0.01515,0.01015 -0.02799,0.01514 -0.03814,0.01514 -0.01171,0 -0.01745,-0.0096 -0.01745,-0.02956 0,-0.01536 0.003,-0.03739 0.0084,-0.06563 l 0.03556,-0.189661 z m 1.017759,0.02092 c 0.0186,0 0.03199,0.0067 0.04009,0.02091 l -0.01939,0.104567 c -0.0062,0.03438 -0.01886,0.06619 -0.03814,0.09519 -0.01929,0.029 -0.03804,0.04327 -0.05561,0.04327 -0.02221,0 -0.03297,-0.02228 -0.03297,-0.06779 0,-0.04513 0.01011,-0.08934 0.03038,-0.131969 0.02049,-0.04282 0.04553,-0.06418 0.07565,-0.06418 z m -2.418311,0.0043 c 0.03444,0 0.05173,0.02748 0.05173,0.08221 0,0.04685 -0.0084,0.08976 -0.02587,0.128364 -0.01722,0.03841 -0.04074,0.05769 -0.06983,0.05769 -0.03495,0 -0.05238,-0.02734 -0.05238,-0.08149 0,-0.04724 0.0088,-0.08976 0.02651,-0.128364 0.01774,-0.0386 0.04107,-0.05841 0.06983,-0.05841 z m 0.464911,0 c 0.03444,0 0.05173,0.02748 0.05173,0.08221 0,0.04685 -0.0091,0.08976 -0.02651,0.128364 -0.01722,0.03841 -0.04008,0.05769 -0.06918,0.05769 -0.03495,0 -0.05238,-0.02734 -0.05238,-0.08149 0,-0.04724 0.0088,-0.08976 0.02651,-0.128364 0.01774,-0.0386 0.04107,-0.05841 0.06983,-0.05841 z m 1.499482,0.0065 c 0.02221,0 0.03363,0.02262 0.03363,0.0685 0,0.04436 -0.01054,0.08823 -0.03104,0.131248 -0.02031,0.04282 -0.04492,0.06418 -0.07436,0.06418 -0.01653,0 -0.03067,-0.0069 -0.04203,-0.02091 l 0.02133,-0.112499 c 0.006,-0.03054 0.0189,-0.05974 0.03751,-0.08798 0.0186,-0.02842 0.03671,-0.04254 0.05496,-0.04254 z"
         inkscape:label="ECD" /><rect
         style="display:inline;opacity:1;mix-blend-mode:normal;fill:#880000;fill-opacity:1;stroke:none;stroke-width:0.538815;stroke-miterlimit:3.6;stroke-opacity:0.5;paint-order:fill markers stroke"
         id="rect45"
         width="1.3242935"
         height="1.0066191"
         x="54.632034"
         y="12.572518"
         rx="1.1749871e-17"
         ry="1.3218595e-17"
         inkscape:label="Red" /><rect
         style="display:inline;opacity:1;mix-blend-mode:normal;fill:#006611;fill-opacity:1;stroke:none;stroke-width:0.538815;stroke-miterlimit:3.6;stroke-opacity:0.5;paint-order:fill markers stroke"
         id="rect45-6"
         width="1.3242935"
         height="1.0066191"
         x="55.956329"
         y="12.572518"
         rx="1.1749871e-17"
         ry="1.3218595e-17"
         inkscape:label="Green" /><rect
         style="display:inline;opacity:1;mix-blend-mode:normal;fill:#003399;fill-opacity:1;stroke:none;stroke-width:0.538815;stroke-miterlimit:3.6;stroke-opacity:0.5;paint-order:fill markers stroke"
         id="rect45-9"
         width="1.3242935"
         height="1.0066191"
         x="57.280624"
         y="12.572518"
         rx="1.1749871e-17"
         ry="1.3218595e-17"
         inkscape:label="Blue" /></g><rect
       style="display:inline;fill:url(#radialGradient70);stroke:none;stroke-width:0.278757;stroke-miterlimit:3.6;stroke-opacity:0.5;paint-order:fill markers stroke"
       id="rect68"
       width="1.1150298"
       height="0.83627224"
       x="52.351067"
       y="-23.951574"
       rx="7.7370736e-18"
       ry="7.7370736e-18"
       transform="rotate(45)"
       inkscape:label="Led Shadow"
       sodipodi:insensitive="true" /><circle
       style="display:inline;opacity:1;mix-blend-mode:normal;fill:url(#radialGradient67);fill-opacity:1;stroke:none;stroke-width:0.557514;stroke-linecap:round;stroke-linejoin:miter;stroke-dasharray:none;stroke-opacity:0.75;paint-order:stroke markers fill"
       id="path65"
       inkscape:label="Led Emission"
       cx="53.658443"
       cy="20.377138"
       r="1.3937871"
       sodipodi:insensitive="true" /><ellipse
       style="display:inline;opacity:1;mix-blend-mode:normal;fill:url(#radialGradient56);fill-opacity:1;stroke:none;stroke-width:0.557514;stroke-linecap:round;stroke-linejoin:miter;stroke-dasharray:none;stroke-opacity:0.75;paint-order:stroke markers fill"
       id="path54"
       inkscape:label="LED"
       cx="53.658443"
       cy="20.377138"
       rx="0.41813615"
       ry="0.41813618"
       sodipodi:insensitive="true" /><g
       inkscape:groupmode="layer"
       id="g86"
       inkscape:label="Brightness Control"
       style="display:inline"
       transform="matrix(1.0103769,0,0,0.99692788,-0.93379061,7.2635239)"
       sodipodi:insensitive="true"><path
         id="path85"
         style="display:inline;fill:url(#radialGradient86);stroke-width:0.264583;stroke-miterlimit:3.6;paint-order:stroke fill markers"
         d="m 56.345708,24.34442 -1.543481,1.543482 0.140316,-0.140317 -1.80987,-1.621927 1.684046,-1.684047 z"
         sodipodi:nodetypes="cccccc"
         inkscape:label="Shadow" /><circle
         style="display:inline;fill:url(#radialGradient87);fill-opacity:1;stroke:url(#linearGradient87);stroke-width:0.264583;stroke-miterlimit:3.6;stroke-dasharray:none;stroke-opacity:1;paint-order:stroke fill markers"
         id="circle85"
         inkscape:label="Knob Edge"
         cx="53.974998"
         cy="23.283331"
         r="1.190625" /><circle
         style="display:inline;fill:#847c6a;fill-opacity:1;stroke:url(#linearGradient88);stroke-width:0.264583;stroke-miterlimit:3.6;stroke-dasharray:none;paint-order:stroke markers fill"
         id="circle86"
         inkscape:label="Knob Top"
         cx="54.239582"
         cy="23.547915"
         r="0.92604166" /><g
         id="g15"
         inkscape:label="Face"
         transform="translate(0,-2.6494995e-5)"><circle
           style="fill:none;fill-opacity:1;stroke:#2d2b24;stroke-width:0.0661458;stroke-linecap:round;stroke-miterlimit:3.3;paint-order:normal"
           id="path7"
           cx="54.239582"
           cy="23.547915"
           r="0.49609271"
           inkscape:label="Sun" /><path
           style="fill:none;fill-opacity:1;stroke:#2d2b24;stroke-width:0.0661458;stroke-linecap:round;stroke-miterlimit:3.3;paint-order:normal"
           d="m 54.239582,22.787264 v 0.132292"
           id="path9"
           sodipodi:nodetypes="cc"
           inkscape:transform-center-y="-0.69453126"
           inkscape:label="Ray" /><use
           x="0"
           y="0"
           xlink:href="#path9"
           inkscape:transform-center-y="-0.49110783"
           id="use9"
           transform="rotate(45,54.239582,23.547941)"
           inkscape:transform-center-x="-0.49110759" /><use
           x="0"
           y="0"
           xlink:href="#path9"
           id="use10"
           transform="rotate(90,54.239582,23.547941)"
           inkscape:transform-center-x="-0.69453102" /><use
           x="0"
           y="0"
           xlink:href="#path9"
           inkscape:transform-center-y="0.49110735"
           id="use11"
           transform="rotate(135,54.239582,23.547941)"
           inkscape:transform-center-x="-0.49110759" /><use
           x="0"
           y="0"
           xlink:href="#path9"
           inkscape:transform-center-y="0.69453078"
           id="use12"
           transform="rotate(180,54.239582,23.547941)" /><use
           x="0"
           y="0"
           xlink:href="#path9"
           inkscape:transform-center-y="0.49110735"
           id="use13"
           transform="rotate(-135,54.239582,23.547941)"
           inkscape:transform-center-x="0.49110759" /><use
           x="0"
           y="0"
           xlink:href="#path9"
           id="use14"
           transform="rotate(-90,54.239582,23.547941)"
           inkscape:transform-center-x="0.69453102" /><use
           x="0"
           y="0"
           xlink:href="#path9"
           inkscape:transform-center-y="-0.49110783"
           id="use15"
           transform="rotate(-45,54.239582,23.547941)"
           inkscape:transform-center-x="0.49110759" /></g></g><g
       inkscape:groupmode="layer"
       id="g82"
       inkscape:label="Contrast Control"
       style="display:inline;opacity:1"
       transform="matrix(1.0103769,0,0,0.99692788,-0.93379061,3.5707372)"
       sodipodi:insensitive="true"><use
         x="0"
         y="0"
         xlink:href="#path85"
         id="use43"
         inkscape:label="Shadow"
         style="display:inline;opacity:1"
         transform="translate(2.8797163e-7,2.4968204e-5)" /><use
         x="0"
         y="0"
         xlink:href="#circle85"
         id="use44"
         inkscape:label="Knob Edge"
         style="display:inline;opacity:1"
         transform="translate(2.8797163e-7,2.4968204e-5)" /><use
         x="0"
         y="0"
         xlink:href="#circle86"
         id="use45"
         inkscape:label="Knob Top"
         style="display:inline;opacity:1"
         transform="translate(2.8797163e-7,2.4968204e-5)" /><g
         id="g4"
         inkscape:label="Face"
         transform="translate(0.00413132,-0.03723526)"><ellipse
           style="fill:none;stroke:#2d2b24;stroke-width:0.0661459;stroke-linecap:round;stroke-miterlimit:3.3;paint-order:stroke fill markers"
           id="path4"
           cx="54.235451"
           cy="23.58515"
           rx="0.69866538"
           ry="0.69866532"
           inkscape:label="Contrast Circle" /><path
           style="fill:#2d2b24;fill-opacity:1;stroke:#2d2b24;stroke-width:0.0661459;stroke-linecap:round;stroke-miterlimit:3.3;paint-order:normal"
           id="ellipse4"
           inkscape:label="Contrast Fill"
           sodipodi:type="arc"
           sodipodi:cx="54.235451"
           sodipodi:cy="23.58515"
           sodipodi:rx="0.69866538"
           sodipodi:ry="0.69866532"
           sodipodi:start="0.78539816"
           sodipodi:end="3.9269908"
           sodipodi:arc-type="slice"
           d="m 54.729482,24.079181 a 0.69866538,0.69866532 0 0 1 -0.988062,0 0.69866538,0.69866532 0 0 1 0,-0.988062 l 0.494031,0.494031 z" /></g></g><g
       inkscape:groupmode="layer"
       id="layer9"
       inkscape:label="Power-On Control"
       style="display:inline;opacity:1"
       transform="matrix(1.0103769,0,0,0.99692788,-0.93379061,-0.12204794)"
       sodipodi:insensitive="true"><use
         x="0"
         y="0"
         xlink:href="#path85"
         id="use46"
         inkscape:label="Shadow"
         style="display:inline;opacity:1"
         transform="translate(2.8797163e-7,2.350562e-5)" /><use
         x="0"
         y="0"
         xlink:href="#circle85"
         id="use47"
         inkscape:label="Knob Edge"
         style="display:inline;opacity:1"
         transform="translate(2.8797163e-7,2.350562e-5)" /><use
         x="0"
         y="0"
         xlink:href="#circle86"
         id="use48"
         inkscape:label="Knob Top"
         style="display:inline;opacity:1"
         transform="translate(2.8797163e-7,2.350562e-5)" /><g
         id="g3"
         inkscape:label="Face"
         transform="translate(-0.03759867,0.0075795)"><path
           style="fill:none;stroke:#2d2b24;stroke-width:0.0661458;stroke-miterlimit:3.3;marker-start:url(#RoundedArrow);marker-end:url(#RoundedArrow);paint-order:stroke fill markers"
           d="m 53.867513,24.023363 c 0.292725,0.197216 0.563019,0.181504 0.82269,0.0041"
           id="path1"
           sodipodi:nodetypes="cc"
           inkscape:label="Smile" /><path
           style="fill:none;stroke:#2d2b24;stroke-width:0.0661457;stroke-linecap:round;stroke-miterlimit:3.3;paint-order:stroke fill markers"
           d="m 53.644648,23.372256 v 0.330729"
           id="path2"
           inkscape:label="On"
           sodipodi:nodetypes="cc" /><circle
           style="fill:none;stroke:#2d2b24;stroke-width:0.0661458;stroke-linecap:round;stroke-miterlimit:3.3;paint-order:stroke fill markers"
           id="path3"
           cx="54.94313"
           cy="23.537737"
           inkscape:label="Off"
           r="0.16536459" /></g></g></g><metadata
     id="metadata23"><rdf:RDF><cc:Work
         rdf:about=""><cc:license
           rdf:resource="http://creativecommons.org/publicdomain/zero/1.0/" /></cc:Work><cc:License
         rdf:about="http://creativecommons.org/publicdomain/zero/1.0/"><cc:permits
           rdf:resource="http://creativecommons.org/ns#Reproduction" /><cc:permits
           rdf:resource="http://creativecommons.org/ns#Distribution" /><cc:permits
           rdf:resource="http://creativecommons.org/ns#DerivativeWorks" /></cc:License></rdf:RDF></metadata></svg>
