<?xml version="1.0" encoding="UTF-8" standalone="no"?>
<!-- Created with Inkscape (http://www.inkscape.org/) -->

<svg
   width="32"
   height="32"
   viewBox="0 0 8.466666 8.4666667"
   version="1.1"
   id="svg1"
   xml:space="preserve"
   inkscape:version="1.3.2 (091e20ef0f, 2023-11-25, custom)"
   sodipodi:docname="cpu-386-32.svg"
   inkscape:export-filename="pc-256.png"
   inkscape:export-xdpi="96"
   inkscape:export-ydpi="96"
   xmlns:inkscape="http://www.inkscape.org/namespaces/inkscape"
   xmlns:sodipodi="http://sodipodi.sourceforge.net/DTD/sodipodi-0.dtd"
   xmlns:xlink="http://www.w3.org/1999/xlink"
   xmlns="http://www.w3.org/2000/svg"
   xmlns:svg="http://www.w3.org/2000/svg"
   xmlns:rdf="http://www.w3.org/1999/02/22-rdf-syntax-ns#"
   xmlns:cc="http://creativecommons.org/ns#"><sodipodi:namedview
     id="namedview1"
     pagecolor="#505050"
     bordercolor="#eeeeee"
     borderopacity="1"
     inkscape:showpageshadow="0"
     inkscape:pageopacity="0"
     inkscape:pagecheckerboard="true"
     inkscape:deskcolor="#505050"
     inkscape:document-units="px"
     showguides="true"
     showgrid="true"
     inkscape:zoom="24.28125"
     inkscape:cx="16"
     inkscape:cy="16"
     inkscape:window-width="1455"
     inkscape:window-height="988"
     inkscape:window-x="0"
     inkscape:window-y="0"
     inkscape:window-maximized="0"
     inkscape:current-layer="g6"><sodipodi:guide
       position="0.52916665,7.9374997"
       orientation="-1,0"
       id="guide1"
       inkscape:locked="false"
       inkscape:label=""
       inkscape:color="rgb(87,227,137)" /><sodipodi:guide
       position="0.52916665,0.52916665"
       orientation="0,1"
       id="guide2"
       inkscape:locked="false"
       inkscape:label=""
       inkscape:color="rgb(87,227,137)" /><sodipodi:guide
       position="7.9374997,7.9374997"
       orientation="0,1"
       id="guide3"
       inkscape:locked="false"
       inkscape:label=""
       inkscape:color="rgb(87,227,137)" /><sodipodi:guide
       position="7.9374997,0.52916665"
       orientation="-1,0"
       id="guide4"
       inkscape:locked="false"
       inkscape:label=""
       inkscape:color="rgb(87,227,137)" /><inkscape:grid
       id="grid10"
       units="px"
       originx="0"
       originy="0"
       spacingx="0.13229166"
       spacingy="0.13229166"
       empcolor="#0099e5"
       empopacity="0.30196078"
       color="#0099e5"
       opacity="0.14901961"
       empspacing="2"
       dotted="false"
       gridanglex="30"
       gridanglez="30"
       visible="true" /></sodipodi:namedview><defs
     id="defs1"><linearGradient
       id="linearGradient6"
       inkscape:collect="always"><stop
         style="stop-color:#000000;stop-opacity:1;"
         offset="0"
         id="stop6" /><stop
         style="stop-color:#000000;stop-opacity:0;"
         offset="1"
         id="stop7" /></linearGradient><linearGradient
       id="linearGradient3"
       inkscape:collect="always"><stop
         style="stop-color:#292929;stop-opacity:1;"
         offset="0"
         id="stop3" /><stop
         style="stop-color:#2b2b2b;stop-opacity:1;"
         offset="0.33125824"
         id="stop12" /><stop
         style="stop-color:#474747;stop-opacity:1;"
         offset="0.52031463"
         id="stop5" /><stop
         style="stop-color:#3e3e3e;stop-opacity:1;"
         offset="1"
         id="stop4" /></linearGradient><linearGradient
       id="linearGradient67"
       inkscape:collect="always"><stop
         style="stop-color:#ffffff;stop-opacity:0.2;"
         offset="0"
         id="stop75" /><stop
         style="stop-color:#ffffff;stop-opacity:0;"
         offset="1"
         id="stop78" /></linearGradient><linearGradient
       id="linearGradient36"
       inkscape:collect="always"><stop
         style="stop-color:#74706d;stop-opacity:1;"
         offset="0"
         id="stop38" /><stop
         style="stop-color:#7e7a77;stop-opacity:1;"
         offset="1"
         id="stop42" /></linearGradient><linearGradient
       id="linearGradient80"
       inkscape:collect="always"><stop
         style="stop-color:#000000;stop-opacity:0.5;"
         offset="0"
         id="stop80" /><stop
         style="stop-color:#000000;stop-opacity:0;"
         offset="1"
         id="stop81" /></linearGradient><linearGradient
       id="linearGradient76"
       inkscape:collect="always"><stop
         style="stop-color:#bab28d;stop-opacity:1;"
         offset="0"
         id="stop76" /><stop
         style="stop-color:#b8b389;stop-opacity:0;"
         offset="0.4983165"
         id="stop77" /></linearGradient><linearGradient
       id="linearGradient73"
       inkscape:collect="always"><stop
         style="stop-color:#d6cbae;stop-opacity:1;"
         offset="0"
         id="stop73" /><stop
         style="stop-color:#9d9786;stop-opacity:1;"
         offset="1"
         id="stop74" /></linearGradient><linearGradient
       id="linearGradient71"
       inkscape:collect="always"><stop
         style="stop-color:#9d9786;stop-opacity:1;"
         offset="0"
         id="stop71" /><stop
         style="stop-color:#77705f;stop-opacity:1;"
         offset="1"
         id="stop72" /></linearGradient><linearGradient
       id="linearGradient66"
       inkscape:collect="always"><stop
         style="stop-color:#00ff00;stop-opacity:0.2;"
         offset="0.30000001"
         id="stop68" /><stop
         style="stop-color:#00ff00;stop-opacity:0;"
         offset="1"
         id="stop67" /></linearGradient><linearGradient
       id="linearGradient63"
       inkscape:collect="always"><stop
         style="stop-color:#ffffbb;stop-opacity:1;"
         offset="0"
         id="stop56" /><stop
         style="stop-color:#aaff00;stop-opacity:1;"
         offset="0.49806201"
         id="stop62" /><stop
         style="stop-color:#00ff00;stop-opacity:1;"
         offset="1"
         id="stop63" /></linearGradient><linearGradient
       id="linearGradient37"
       inkscape:collect="always"><stop
         style="stop-color:#413f3f;stop-opacity:1;"
         offset="0"
         id="stop35" /><stop
         style="stop-color:#726c69;stop-opacity:1;"
         offset="0.5"
         id="stop36" /><stop
         style="stop-color:#a7a5a4;stop-opacity:1;"
         offset="1"
         id="stop37" /></linearGradient><linearGradient
       id="linearGradient14"
       inkscape:collect="always"><stop
         style="stop-color:#5b5958;stop-opacity:1;"
         offset="0"
         id="stop19" /><stop
         style="stop-color:#847e7b;stop-opacity:1;"
         offset="0.5"
         id="stop25" /><stop
         style="stop-color:#c0bfbe;stop-opacity:1;"
         offset="1"
         id="stop24" /></linearGradient><linearGradient
       id="linearGradient20"
       inkscape:collect="always"><stop
         style="stop-color:#d5d2d4;stop-opacity:1;"
         offset="0"
         id="stop20" /><stop
         style="stop-color:#abaaab;stop-opacity:1;"
         offset="0.07"
         id="stop22" /><stop
         style="stop-color:#a2a2a2;stop-opacity:1;"
         offset="0.93000001"
         id="stop23" /><stop
         style="stop-color:#686868;stop-opacity:1;"
         offset="1"
         id="stop21" /></linearGradient><linearGradient
       id="linearGradient57"
       inkscape:collect="always"><stop
         style="stop-color:#ffffff;stop-opacity:1;"
         offset="0"
         id="stop57" /><stop
         style="stop-color:#ff0000;stop-opacity:1;"
         offset="0.49806201"
         id="stop59" /><stop
         style="stop-color:#aa0000;stop-opacity:1;"
         offset="1"
         id="stop58" /></linearGradient><linearGradient
       id="linearGradient32"
       inkscape:collect="always"><stop
         style="stop-color:#292929;stop-opacity:1;"
         offset="0"
         id="stop32" /><stop
         style="stop-color:#3d3d3d;stop-opacity:1;"
         offset="1"
         id="stop33" /></linearGradient><linearGradient
       id="linearGradient5"
       inkscape:collect="always"><stop
         style="stop-color:#1c1c21;stop-opacity:1;"
         offset="0"
         id="stop10" /><stop
         style="stop-color:#2f2e38;stop-opacity:1;"
         offset="1"
         id="stop11" /></linearGradient><linearGradient
       id="linearGradient8"
       inkscape:collect="always"><stop
         style="stop-color:#c2cada;stop-opacity:1;"
         offset="0"
         id="stop8" /><stop
         style="stop-color:#9ea09f;stop-opacity:1;"
         offset="1"
         id="stop9" /></linearGradient><linearGradient
       id="linearGradient1"
       inkscape:collect="always"><stop
         style="stop-color:#cfccc3;stop-opacity:1;"
         offset="0"
         id="stop1" /><stop
         style="stop-color:#aba8a5;stop-opacity:1;"
         offset="1"
         id="stop2" /></linearGradient><linearGradient
       inkscape:collect="always"
       xlink:href="#linearGradient1"
       id="linearGradient2"
       x1="2.6458333"
       y1="49.477081"
       x2="2.6458333"
       y2="65.087502"
       gradientUnits="userSpaceOnUse"
       gradientTransform="matrix(0.53822076,0,0,0.57690998,-1.1858782,-4.8839649)" /><linearGradient
       inkscape:collect="always"
       xlink:href="#linearGradient8"
       id="linearGradient9"
       x1="5.2573075"
       y1="52.970844"
       x2="8.2755842"
       y2="55.988892"
       gradientUnits="userSpaceOnUse"
       gradientTransform="matrix(0.93490907,0,0,0.93508635,-3.5288395,-27.53824)" /><linearGradient
       inkscape:collect="always"
       xlink:href="#linearGradient5"
       id="linearGradient11"
       x1="23.018749"
       y1="51.329163"
       x2="23.018749"
       y2="61.383327"
       gradientUnits="userSpaceOnUse"
       gradientTransform="matrix(0.69774949,0,0,0.74575788,-2.0073272,-17.843159)" /><linearGradient
       inkscape:collect="always"
       xlink:href="#linearGradient32"
       id="linearGradient33"
       x1="42.597916"
       y1="51.329163"
       x2="42.597916"
       y2="61.383327"
       gradientUnits="userSpaceOnUse"
       gradientTransform="matrix(0.66279987,0,0,0.6886746,-0.33077464,-14.226583)" /><linearGradient
       inkscape:collect="always"
       xlink:href="#linearGradient32"
       id="linearGradient34"
       gradientUnits="userSpaceOnUse"
       x1="42.597916"
       y1="51.329163"
       x2="42.597916"
       y2="61.383327"
       gradientTransform="matrix(0.66279972,0,0,0.68867459,-0.78285558,-14.226587)" /><radialGradient
       inkscape:collect="always"
       xlink:href="#linearGradient57"
       id="radialGradient58"
       cx="27.207983"
       cy="57.855556"
       fx="27.207983"
       fy="57.855556"
       r="0.52916664"
       gradientUnits="userSpaceOnUse"
       gradientTransform="matrix(-9.2291979e-6,1.9066141,-1.9154557,-9.4548034e-6,126.62475,-25.420427)" /><linearGradient
       inkscape:collect="always"
       xlink:href="#linearGradient20"
       id="linearGradient21"
       x1="7.9375"
       y1="2.645833"
       x2="7.9325824"
       y2="39.555206"
       gradientUnits="userSpaceOnUse"
       gradientTransform="matrix(0.30096335,0,0,0.30759757,-3.5850587,-5.2461259)" /><linearGradient
       inkscape:collect="always"
       xlink:href="#linearGradient14"
       id="linearGradient24"
       x1="11.159272"
       y1="33.477814"
       x2="12.746772"
       y2="35.98333"
       gradientUnits="userSpaceOnUse"
       gradientTransform="matrix(0.30096335,0,0,0.30759757,-3.5850587,-5.2461259)" /><linearGradient
       inkscape:collect="always"
       xlink:href="#linearGradient37"
       id="linearGradient35"
       x1="13.229166"
       y1="6.8791666"
       x2="25.4"
       y2="33.866665"
       gradientUnits="userSpaceOnUse"
       gradientTransform="matrix(0.30096335,0,0,0.30759757,-4.0641066,-5.2461259)" /><linearGradient
       inkscape:collect="always"
       xlink:href="#linearGradient8"
       id="linearGradient9-9"
       x1="51.656208"
       y1="9.7535019"
       x2="54.967869"
       y2="13.668132"
       gradientUnits="userSpaceOnUse"
       gradientTransform="matrix(1.8861971,0,0,1.5892216,-43.93696,-8.1753157)" /><radialGradient
       inkscape:collect="always"
       xlink:href="#linearGradient63"
       id="radialGradient56"
       gradientUnits="userSpaceOnUse"
       gradientTransform="matrix(-2.0305529e-6,0.42909817,-0.42142716,-2.1278766e-6,36.648297,-11.196773)"
       cx="27.207983"
       cy="57.855556"
       fx="27.207983"
       fy="57.855556"
       r="0.52916664" /><radialGradient
       inkscape:collect="always"
       xlink:href="#linearGradient66"
       id="radialGradient67"
       cx="53.974998"
       cy="20.637499"
       fx="53.974998"
       fy="20.637499"
       r="0.79374999"
       gradientUnits="userSpaceOnUse"
       gradientTransform="matrix(0.70238207,2.5124948e-6,-1.2168817e-6,0.71516461,-25.588956,-14.224579)" /><radialGradient
       inkscape:collect="always"
       xlink:href="#linearGradient80"
       id="radialGradient86"
       gradientUnits="userSpaceOnUse"
       gradientTransform="matrix(1.0705119,1.0705069,-0.5764267,0.57642938,9.6496451,-47.952861)"
       cx="53.974998"
       cy="23.342991"
       fx="53.974998"
       fy="23.342991"
       r="1.6065176" /><radialGradient
       inkscape:collect="always"
       xlink:href="#linearGradient73"
       id="radialGradient87"
       gradientUnits="userSpaceOnUse"
       gradientTransform="matrix(-0.50000013,0.59999901,-0.98380161,-0.81983795,103.225,8.7442231)"
       cx="54.548092"
       cy="23.06292"
       fx="54.548092"
       fy="23.06292"
       r="1.3229166" /><linearGradient
       inkscape:collect="always"
       xlink:href="#linearGradient76"
       id="linearGradient87"
       gradientUnits="userSpaceOnUse"
       x1="52.652081"
       y1="21.960415"
       x2="55.297916"
       y2="24.606249"
       gradientTransform="translate(0.08036345,0.07558409)" /><linearGradient
       inkscape:collect="always"
       xlink:href="#linearGradient71"
       id="linearGradient88"
       gradientUnits="userSpaceOnUse"
       x1="53.445831"
       y1="22.754166"
       x2="55.033333"
       y2="24.341665"
       gradientTransform="translate(0.08036345,0.07558409)" /><linearGradient
       inkscape:collect="always"
       xlink:href="#linearGradient36"
       id="linearGradient40"
       x1="11.773958"
       y1="6.2177324"
       x2="55.959373"
       y2="35.057312"
       gradientUnits="userSpaceOnUse"
       gradientTransform="matrix(0.31724819,0,0,0.30759757,-4.1365602,-5.2461259)" /><radialGradient
       inkscape:collect="always"
       xlink:href="#linearGradient67"
       id="radialGradient82"
       cx="19.049999"
       cy="10.064881"
       fx="19.049999"
       fy="10.064881"
       r="17.594791"
       gradientTransform="matrix(0.35300962,-0.13876582,0.05552423,0.14754522,-5.614433,-0.18116572)"
       gradientUnits="userSpaceOnUse" /><linearGradient
       inkscape:collect="always"
       xlink:href="#linearGradient3"
       id="linearGradient4"
       x1="18.719728"
       y1="21.409542"
       x2="18.719728"
       y2="25.949671"
       gradientUnits="userSpaceOnUse"
       gradientTransform="matrix(0.99999894,0,0,1,-0.38095892,-7.9555694e-7)" /><linearGradient
       inkscape:collect="always"
       xlink:href="#linearGradient6"
       id="linearGradient7"
       x1="15.297954"
       y1="25.949671"
       x2="15.297954"
       y2="28.219736"
       gradientUnits="userSpaceOnUse" /></defs><g
     inkscape:label="HAL Personal Computer"
     inkscape:groupmode="layer"
     id="layer1"
     style="display:inline;opacity:1;mix-blend-mode:normal"
     transform="matrix(0.22034404,0,0,0.22034404,0.47983139,0.73981629)"
     sodipodi:insensitive="true"><path
       id="rect2"
       style="display:inline;opacity:1;mix-blend-mode:normal;fill:#edf1ea;fill-opacity:1;stroke-width:0.146897;stroke-linecap:round;stroke-linejoin:round"
       inkscape:label="Front Panel Top Bevel"
       d="M 1.2211539,22.759274 H 32.848312 c 0.552479,0 0.997252,0.472879 0.997252,1.060266 v 0.740895 H 0.22390109 l 1e-7,-0.740895 c 0,-0.587387 0.44477468,-1.060266 0.99725271,-1.060266 z"
       sodipodi:nodetypes="sssccss"
       sodipodi:insensitive="true" /><path
       id="rect1"
       style="opacity:1;fill:url(#linearGradient2);stroke:none;stroke-width:0.147433;stroke-linecap:round;stroke-linejoin:round"
       d="m 1.064086,23.659856 h 31.927031 c 0.427213,0 0.839429,0.518979 0.840186,0.900579 l 0.01426,7.189382 c 9.79e-4,0.507378 -0.381096,0.915843 -0.854448,0.915843 H 1.064086 c -0.47335162,0 -0.84018491,-0.393203 -0.84018491,-0.90058 v -7.204645 c 0,-0.3816 0.41297238,-0.900579 0.84018491,-0.900579 z"
       sodipodi:nodetypes="sssssssss"
       inkscape:label="Front Panel"
       sodipodi:insensitive="true" /><g
       inkscape:groupmode="layer"
       id="layer5"
       inkscape:label="Badge"
       style="display:inline;opacity:1;mix-blend-mode:normal;stroke-width:0.953942"
       transform="matrix(0.85106514,0,0,0.85096775,0.24487352,5.5439847)"
       sodipodi:insensitive="true"><rect
         style="display:inline;opacity:1;mix-blend-mode:normal;fill:url(#linearGradient9);fill-opacity:1;stroke:#000000;stroke-width:0.352747;stroke-linecap:round;stroke-linejoin:round;stroke-dasharray:none;stroke-opacity:0.5;paint-order:markers stroke fill"
         id="rect7"
         width="2.4690671"
         height="2.4693899"
         x="1.5626378"
         y="23.405153"
         rx="6.8656566e-18"
         inkscape:label="Panel"
         ry="6.866959e-18" /></g><g
       inkscape:groupmode="layer"
       id="layer6"
       inkscape:label="Ventilation Holes"
       style="display:inline;opacity:1;mix-blend-mode:normal"
       transform="matrix(0.76925133,0,0,0.76925133,0.6105225,9.754311)"
       sodipodi:insensitive="true"><path
         style="display:inline;fill:none;fill-opacity:1;stroke:#000000;stroke-width:0.780482;stroke-linecap:round;stroke-linejoin:round;stroke-dasharray:none;stroke-opacity:0.533333;paint-order:markers stroke fill"
         d="M 1.4486107,25.491304 V 27.83275"
         id="path16"
         sodipodi:nodetypes="cc"
         inkscape:label="Hole" /><use
         x="0"
         y="0"
         xlink:href="#path16"
         id="use17"
         transform="translate(1.5609641)"
         style="display:inline" /><use
         x="0"
         y="0"
         xlink:href="#path16"
         id="use19"
         transform="translate(3.1219282)"
         style="display:inline" /><use
         x="0"
         y="0"
         xlink:href="#path16"
         id="use22"
         transform="translate(6.2438564)"
         style="display:inline" /><use
         x="0"
         y="0"
         xlink:href="#path16"
         id="use24"
         transform="translate(4.6828923)"
         style="display:inline" /><use
         x="0"
         y="0"
         xlink:href="#path16"
         id="use7"
         transform="translate(7.8048204)" /></g><g
       inkscape:groupmode="layer"
       id="layer4"
       inkscape:label="Drive Bay"
       transform="matrix(0.79132446,0,0,0.77580781,0.09027358,9.3788823)"
       style="display:inline"
       sodipodi:insensitive="true"><rect
         style="display:inline;opacity:1;mix-blend-mode:normal;fill:url(#linearGradient11);stroke-width:0.190858;stroke-linecap:round;stroke-linejoin:round;stroke-opacity:0.5;paint-order:markers stroke fill"
         id="rect5"
         width="28.83103"
         height="9.2866306"
         x="12.308248"
         y="19.181761"
         inkscape:label="Panel"
         rx="1.0617754"
         ry="1.0617754" /><g
         inkscape:groupmode="layer"
         id="layer7"
         inkscape:label="Floppy Drive"
         style="display:inline;opacity:1;mix-blend-mode:normal"
         transform="matrix(0.99804309,0,0,1.0227278,0.07507576,-1.1666007)"><rect
           style="display:inline;opacity:1;mix-blend-mode:normal;fill:url(#linearGradient34);fill-opacity:0.502164;stroke:none;stroke-width:0.268135;stroke-linecap:round;stroke-linejoin:round;stroke-dasharray:none;stroke-opacity:1;paint-order:markers stroke fill"
           id="rect31-5"
           width="12.163184"
           height="9.0802584"
           x="13.777555"
           y="19.896166"
           inkscape:label="Panel" /><path
           id="rect42"
           style="display:inline;opacity:1;mix-blend-mode:normal;fill:url(#linearGradient7);stroke-width:0.391015;stroke-linecap:round;stroke-dasharray:none;stroke-opacity:0.75;paint-order:stroke markers fill"
           inkscape:label="Hole"
           d="M 13.777556,23.679606 H 17.95865 V 21.0312 h 3.800995 v 2.648406 h 4.181095 v 0.756689 h -4.181095 v 3.78344 H 17.95865 v -3.78344 h -4.181094 z"
           sodipodi:nodetypes="ccccccccccccc" /><ellipse
           style="display:inline;fill:url(#radialGradient58);fill-opacity:1;stroke:none;stroke-width:1.01125;stroke-linecap:round;stroke-linejoin:miter;stroke-dasharray:none;stroke-opacity:0.75;paint-order:stroke markers fill"
           id="path56"
           inkscape:label="LED"
           cx="16.058153"
           cy="26.70636"
           rx="0.76019895"
           ry="0.75668818" /><rect
           style="opacity:1;fill:url(#linearGradient4);stroke:none;stroke-width:0.758442;stroke-linecap:round;stroke-miterlimit:3.3;stroke-dasharray:none;stroke-opacity:1;paint-order:stroke fill markers"
           id="rect3"
           width="3.0407968"
           height="4.5401287"
           x="18.338749"
           y="21.409542" /><rect
           style="opacity:1;fill:#8b8b8b;fill-opacity:1;stroke:none;stroke-width:0.758442;stroke-linecap:round;stroke-miterlimit:3.3;stroke-dasharray:none;stroke-opacity:1;paint-order:stroke fill markers"
           id="rect9"
           width="4.1810942"
           height="0.75668818"
           x="13.777555"
           y="24.436295" /><rect
           style="opacity:1;fill:#8b8b8b;fill-opacity:1;stroke:none;stroke-width:0.758442;stroke-linecap:round;stroke-miterlimit:3.3;stroke-dasharray:none;stroke-opacity:1;paint-order:stroke fill markers"
           id="rect10"
           width="4.1810942"
           height="0.75668818"
           x="21.759647"
           y="24.436295" /></g><g
         inkscape:groupmode="layer"
         id="layer8"
         inkscape:label="Hard Drive"
         style="display:inline;opacity:1;mix-blend-mode:normal"
         transform="matrix(0.99804309,0,0,1.0227278,0.09060619,-1.1666007)"><rect
           style="display:inline;opacity:1;mix-blend-mode:normal;fill:url(#linearGradient33);fill-opacity:0.502164;stroke:none;stroke-width:0.268135;stroke-linecap:round;stroke-linejoin:round;stroke-dasharray:none;stroke-opacity:1;paint-order:markers stroke fill"
           id="rect33"
           width="12.163183"
           height="9.0802565"
           x="27.445578"
           y="19.896168"
           inkscape:label="Panel" /><rect
           style="display:inline;opacity:1;mix-blend-mode:normal;fill:#252525;fill-opacity:1;stroke:none;stroke-width:0.450183;stroke-linecap:round;stroke-linejoin:miter;stroke-dasharray:none;stroke-opacity:0.75;paint-order:stroke markers fill"
           id="rect35"
           width="9.1202793"
           height="1.5133758"
           x="28.965975"
           y="25.949671"
           inkscape:label="Hole" /><rect
           style="display:inline;opacity:1;mix-blend-mode:normal;fill:#cc0000;fill-opacity:1;stroke:none;stroke-width:1.06139;stroke-linecap:round;stroke-linejoin:miter;stroke-dasharray:none;stroke-opacity:0.75;paint-order:stroke markers fill"
           id="rect34"
           width="1.520398"
           height="1.5133764"
           x="30.486372"
           y="25.949671"
           inkscape:label="LED"
           ry="0" /></g></g></g><g
     inkscape:groupmode="layer"
     id="layer2"
     inkscape:label="HAL Color Monitor"
     style="display:inline;opacity:1"
     transform="matrix(0.47457627,0,0,0.46609337,1.0975394,2.5950203)"
     inkscape:highlight-color="#3e99e3"><path
       id="rect8"
       style="display:inline;opacity:1;fill:url(#linearGradient21);fill-opacity:1;stroke:none;stroke-width:0.0805027;stroke-linecap:round;stroke-dasharray:none;stroke-opacity:1;paint-order:normal"
       d="m -0.47949323,-4.3101963 c 2.36151133,-0.076218 4.72437053,-0.1220779 7.08705973,-0.1220779 2.3626881,0 4.7255475,0.045861 7.0870595,0.1220779 0.337896,0.010906 0.611295,0.022803 0.637038,0.6103887 0.07244,1.6533978 0.08627,3.30945554 0.07963,4.9644963 -0.0066,1.6553182 -0.03495,3.3114166 -0.119445,4.9644958 -0.0178,0.310415 -0.116512,0.5589739 -0.437963,0.5696953 -2.414924,0.065299 -4.8305504,0.1220786 -7.2463195,0.1220786 -2.4157682,0 -4.8313964,-0.056787 -7.24631973,-0.1220786 C -0.9682604,6.8192408 -1.0494185,6.512954 -1.0767176,6.2291845 -1.16121,4.5761053 -1.1895247,2.9200069 -1.1961625,1.2646887 c -0.00664,-1.65504076 0.00719,-3.3110985 0.07963,-4.9644963 0.025743,-0.5875945 0.2991548,-0.5994835 0.63703927,-0.6103887 z"
       sodipodi:nodetypes="sssssssssssss"
       inkscape:label="Front Surface"
       sodipodi:insensitive="true" /><rect
       style="display:inline;opacity:1;mix-blend-mode:normal;fill:url(#linearGradient40);fill-opacity:0.75;stroke:none;stroke-width:0.0206966;stroke-linecap:round;stroke-miterlimit:3.3"
       id="rect6"
       width="14.017743"
       height="8.870985"
       x="-0.40129307"
       y="-3.3335664"
       rx="2.3158958e-18"
       ry="2.2798082e-18"
       inkscape:label="InnerPanel"
       sodipodi:insensitive="true" /><path
       id="path10"
       style="display:inline;fill:url(#linearGradient24);fill-opacity:1;stroke:none;stroke-width:0.0691914;stroke-linecap:round"
       inkscape:label="InnerBevel"
       d="m 6.6075665,-3.6184223 c -2.0835561,0 -4.5665598,0.039022 -6.64922668,0.1028442 -0.3121041,0.00956 -0.5072111,0.027582 -0.5280145,0.4784559 -0.063854,1.3838881 -0.076307,2.77009143 -0.070453,4.1558903 0.00585,1.3860143 0.030807,2.772393 0.1052916,4.1560485 0.022546,0.3732548 0.193151,0.4397137 0.3524243,0.4447565 2.12990148,0.05468 4.65963458,0.1026814 6.78982318,0.1026858 h 2.977e-4 c 2.1301885,-4.4e-6 4.6597779,-0.048011 6.7896789,-0.1026858 0.159288,-0.00494 0.330036,-0.071518 0.35258,-0.4447565 0.07448,-1.3836555 0.09944,-2.7700342 0.105291,-4.1560485 0.0058,-1.38579887 -0.0066,-2.7720022 -0.07046,-4.1558903 -0.02079,-0.4508743 -0.215896,-0.4688914 -0.528001,-0.4784559 -2.082665,-0.063823 -4.5656824,-0.1028442 -6.6492371,-0.1028442 z m 0,0.3255407 c 2.0108751,0 4.4213275,0.03627 6.4313445,0.095692 0.301216,0.0089 0.489274,0.025613 0.509351,0.4453931 0.06163,1.2884478 0.07378,2.57922579 0.06812,3.8694519 -0.0057,1.2904284 -0.02967,2.5812213 -0.101559,3.869452 -0.02175,0.3475004 -0.186562,0.4093874 -0.340293,0.4140785 -2.055603,0.050914 -4.5109264,0.095529 -6.566809,0.095533 h -2.968e-4 c -2.0558817,-3.7e-6 -4.511193,-0.044623 -6.56679698,-0.095533 -0.1537178,-0.00469 -0.3185369,-0.066566 -0.3402935,-0.4140785 -0.0718863,-1.2882307 -0.095913,-2.5790236 -0.1015589,-3.869452 -0.00564,-1.29022611 0.00649,-2.5810041 0.06812,-3.8694519 0.020077,-0.4197791 0.2081344,-0.4364882 0.509351,-0.4453931 2.01001488,-0.059422 4.42045458,-0.095692 6.43133058,-0.095692 z"
       sodipodi:nodetypes="ccccccssccccsccccccccssccccscc"
       sodipodi:insensitive="true" /><rect
       style="display:inline;opacity:1;fill:#000000;fill-opacity:1;stroke:none;stroke-width:0.0201257;stroke-linecap:round;stroke-miterlimit:3.3"
       id="rect78"
       width="10.738928"
       height="8.1698437"
       x="0.11646304"
       y="-3.0643811"
       rx="2.2101728e-18"
       ry="2.2588929e-18"
       inkscape:label="Screen"
       sodipodi:insensitive="true" /><g
       id="g6"
       inkscape:label="386"><path
         style="display:inline;opacity:1;fill:#80ff80;fill-opacity:1;stroke-width:0.140641;stroke-linecap:round;stroke-linejoin:round;stroke-miterlimit:3.3;stroke-opacity:0.25;paint-order:stroke fill markers"
         d="M 1.5899318,-0.45864313 V -1.0263047 l 0.5575149,-0.5676616 h 1.1150297 l 0.5575147,0.5131108 2e-7,1.75753557 -0.2787574,0.2838308 0.2787574,0.28383083 -2e-7,1.7029847 -0.5575147,0.5676617 H 2.1474467 L 1.5899318,2.9473265 V 2.3796649 H 2.1474467 V 2.6634957 L 2.4262041,2.9473265 H 2.983719 L 3.2624764,2.6634957 V 1.5281725 L 2.983719,1.2443417 H 2.4262041 L 2.1474467,0.96051087 2.4262041,0.67668007 H 2.983719 L 3.2624764,0.39284927 V -0.74247396 L 2.9837189,-1.0263047 H 2.4262041 l -0.2787574,0.28383077 v 0.2838308 z"
         id="path1"
         sodipodi:nodetypes="ccccccccccccccccccccccccccccccc" /><path
         id="path4"
         style="display:inline;opacity:1;fill:#80ff80;fill-opacity:1;stroke-width:0.140641;stroke-linecap:round;stroke-linejoin:round;stroke-miterlimit:3.3;stroke-opacity:0.25;paint-order:stroke fill markers"
         d="m 4.9350209,-1.5939661 -0.5575149,0.5676616 2e-7,1.41915373 0.5575149,0.56766164 -0.5575149,0.56766163 -2e-7,1.4191545 0.5575149,0.5676616 h 1.1150297 l 0.5575149,-0.5676616 2e-7,-1.4191544 -0.5575149,-0.56766173 0.5575149,-0.56766164 -2e-7,-1.41915373 -0.5575149,-0.5676616 z m 0.2787576,0.5676614 h 0.5575149 l 0.2787574,0.28383081 2e-7,0.85149213 -0.2787574,0.28383081 H 5.2137787 l -0.2787574,-0.28383081 -2e-7,-0.85149213 z m 0,2.5544772 h 0.5575149 l 0.2787574,0.2838308 -2e-7,0.8514928 L 5.7712932,2.947327 H 5.2137783 l -0.2787574,-0.2838309 2e-7,-0.8514928 z"
         sodipodi:nodetypes="ccccccccccccccccccccccccccccccccc" /><path
         id="path5"
         style="display:inline;opacity:1;fill:#80ff80;fill-opacity:1;stroke-width:0.140641;stroke-linecap:round;stroke-linejoin:round;stroke-miterlimit:3.3;stroke-opacity:0.25;paint-order:stroke fill markers"
         d="M 7.7225952,-1.5939661 7.1650803,-1.0263045 V 2.947327 L 7.7225952,3.5149886 H 8.8376249 L 9.3951398,2.947327 V 1.2443421 L 8.8376249,0.67668042 H 8.0013526 L 7.7225952,0.96051124 v -1.7029849 L 8.0013526,-1.0263045 h 0.5575149 l 0.2787574,0.28383084 v 0.28383082 H 9.3951398 V -1.0263045 L 8.8376249,-1.5939661 Z m 0.2787577,2.8383078 h 0.5575149 l 0.2787574,0.2838308 -3e-7,1.1353236 L 8.5588675,2.947327 H 8.0013526 l -0.2787574,-0.2838309 3e-7,-1.1353236 z"
         sodipodi:nodetypes="cccccccccccccccccccccccccccc" /></g><rect
       style="display:inline;opacity:1;fill:url(#radialGradient82);stroke:none;stroke-width:0.0201257;stroke-linecap:round;stroke-miterlimit:3.3"
       id="rect79"
       width="10.590775"
       height="8.0571337"
       x="0.11646304"
       y="-3.0080259"
       rx="2.2101728e-18"
       ry="2.2588929e-18"
       inkscape:label="Screen Reflection"
       sodipodi:insensitive="true" /><path
       id="rect12"
       style="display:inline;opacity:1;fill:url(#linearGradient35);stroke-width:0.0805027;stroke-miterlimit:3.6;stroke-opacity:0.5;paint-order:fill markers stroke"
       inkscape:label="ScreenBevel"
       d="m 0.07664713,-3.1301035 c -0.08823,0 -0.15926,0.072597 -0.15926,0.1627704 v 7.9757477 c 0,0.090174 0.07103,0.1627706 0.15926,0.1627706 0,0 3.55680527,0.081384 5.33520337,0.081384 1.7783949,0 5.4965765,-0.081384 5.4965765,-0.081384 0.08823,0 0.159258,-0.072594 0.159258,-0.1627706 v -7.9757477 c 0,-0.090175 -0.07103,-0.1627704 -0.159258,-0.1627704 z m 5.33520337,0.1627704 c 1.6730674,2e-7 3.5062449,0.096544 5.1780575,0.1627704 0.102555,0.00406 0.15553,0.044622 0.159259,0.1627704 0.145888,2.41708842 0.137372,4.9109603 0,7.3246653 -0.0046,0.081374 -0.07963,0.1570033 -0.159259,0.162772 -1.6449786,0.1191412 -3.5289549,0.1627696 -5.1780575,0.1627696 -1.6226171,0 -3.3186243,-0.043714 -4.93705407,-0.1627696 -0.07963,-0.00585 -0.1490315,-0.081808 -0.1592593,-0.162772 -0.3040782,-2.4070382 -0.1561583,-4.9069897 -0.07963,-7.3246653 0.00375,-0.1181344 0.056682,-0.158707 0.1592594,-0.1627704 1.67181317,-0.066228 3.34445797,-0.1627705 5.01668397,-0.1627704 z"
       sodipodi:nodetypes="ssscscsssssscssssscss"
       sodipodi:insensitive="true" /><g
       inkscape:groupmode="layer"
       id="g44"
       inkscape:label="Badge"
       style="display:inline;opacity:1;mix-blend-mode:normal;stroke-width:1.2"
       transform="matrix(0.26783438,0,0,0.27373833,-2.7030911,-4.7344664)"
       sodipodi:insensitive="true"><rect
         style="display:inline;opacity:1;mix-blend-mode:normal;fill:url(#linearGradient9-9);fill-opacity:1;stroke:none;stroke-width:0.240442;stroke-linecap:round;stroke-linejoin:round;stroke-dasharray:none;stroke-opacity:0.5;paint-order:markers stroke fill"
         id="rect7-1"
         width="6.2446971"
         height="6.2212148"
         x="53.496834"
         y="7.3251595"
         rx="1.3851596e-17"
         inkscape:label="Panel"
         ry="1.1670707e-17" /><path
         d="M 55.876536,8.4837809 H 55.292954 V 8.362038 h 0.583582 z m 0,0.2361956 h -0.583582 v -0.121743 h 0.583582 z m -0.20689,0.216716 h -0.376692 v -0.104705 h 0.376692 z M 55.097776,8.4837809 H 54.537614 V 8.362038 h 0.560162 z m 0.57187,0.6696266 h -0.944661 v -0.107143 h 0.944661 z m -0.57187,-0.433431 h -0.560162 v -0.121743 h 0.560162 z m 0.57187,0.886344 h -0.376692 v -0.13636 h 0.376692 z m -0.57187,-0.669628 h -0.372791 v -0.104705 h 0.372791 z m 0.77876,0.908261 h -0.583582 v -0.121755 h 0.583582 z m -0.20689,-0.482132 h -0.944661 v -0.112 h 0.944661 z m 0.20689,0.7183255 H 55.292954 V 9.9618235 h 0.583582 z m -0.77876,-0.4748265 h -0.372791 v -0.13636 h 0.372791 z m 0,0.238633 h -0.560162 v -0.121755 h 0.560162 z m 0,0.2361935 H 54.537614 V 9.9618235 h 0.560162 z m 1.96236,-1.5973661 H 56.42776 L 56.44333,8.362038 h 0.599197 z m 0.06637,0.4602166 h -0.343514 l -0.01556,-0.111995 h 0.341552 z m -0.03319,-0.224021 h -0.341565 l -0.0098,-0.075504 -0.0098,0.075504 h -0.337657 l 0.01556,-0.121743 h 0.665557 z m 0.06442,0.445607 h -0.34351 l -0.01558,-0.111995 h 0.341564 z m -0.441102,-0.333596 -0.01757,0.111997 h -0.335698 l 0.01557,-0.111995 z m 0.710449,1.012966 h -0.548456 l -0.01368,-0.121755 h 0.562113 z m -0.238125,-0.457783 h -0.888061 l 0.01557,-0.109583 h 0.856831 z m -0.503561,-0.333596 -0.01757,0.111995 H 56.33213 l 0.01556,-0.111995 z m 0.741678,1.0275725 H 56.90595 L 56.89227,9.9618235 h 0.534784 z M 57.220181,9.6063205 h -0.948564 l 0.01557,-0.111987 h 0.917338 z m -0.601147,0.116878 -0.01368,0.121755 h -0.550413 v -0.121755 z m -0.02733,0.238629 -0.01368,0.1193235 h -0.52308 V 9.9618275 Z M 58.368651,8.4837713 H 57.62307 v -0.121743 h 0.745581 z m 0,0.2361952 H 57.62307 V 8.5982237 h 0.745581 z m 0.333756,0.886344 h -0.351321 v -0.13636 h 0.351321 z m -0.519176,-0.669618 h -0.374742 v -0.104705 h 0.374742 z m 0,0.216715 h -0.374742 v -0.107143 h 0.374742 z m 0,0.209414 h -0.374742 v -0.112 h 0.374742 z m 0,0.243499 h -0.374742 v -0.13636 h 0.374742 z m 0.519173,0.238633 h -1.079336 v -0.121755 h 1.079336 z m 0,0.2361935 H 57.623068 V 9.9618235 h 1.079336 z"
         id="use49"
         style="font-size:1.42728px;line-height:0;font-family:MeninBlue;-inkscape-font-specification:MeninBlue;letter-spacing:0.134763px;word-spacing:0px;display:inline;mix-blend-mode:normal;fill:#000000;fill-opacity:1;stroke-width:0.504559;stroke-linecap:round;stroke-linejoin:round;stroke-opacity:0.5;paint-order:markers stroke fill"
         aria-label="HAL"
         inkscape:label="HAL" /><path
         id="path52"
         style="font-style:italic;font-size:0.846668px;line-height:1;font-family:'Droid Serif';-inkscape-font-specification:'Droid Serif Italic';letter-spacing:0px;word-spacing:0px;display:inline;opacity:1;mix-blend-mode:normal;fill:#000000;fill-opacity:1;stroke-width:0.483159;stroke-miterlimit:3.6;stroke-opacity:0.5;paint-order:fill markers stroke"
         d="m 57.265714,10.809037 c -0.01208,0 -0.02189,0.005 -0.02924,0.01476 -0.0072,0.0095 -0.01059,0.02278 -0.01059,0.03876 0,0.02751 0.01248,0.04059 0.03739,0.04059 0.01167,0 0.02109,-0.0041 0.02846,-0.01285 0.0076,-0.0091 0.0114,-0.02248 0.0114,-0.03968 0,-0.02777 -0.01248,-0.04152 -0.03739,-0.04152 z m -1.502533,8.91e-4 -0.0057,0.0323 h 0.0057 c 0.03117,0 0.04631,0.01147 0.04631,0.03507 0,0.0044 -0.0024,0.01756 -0.0065,0.03967 l -0.08613,0.466933 h 0.06174 l 0.03574,-0.193787 c 0.0069,-0.03686 0.0236,-0.07356 0.04957,-0.111656 0.02618,-0.03831 0.05173,-0.05814 0.07638,-0.05814 0.02033,0 0.03089,0.01548 0.03089,0.04521 0,0.01647 -0.0033,0.03967 -0.0096,0.07014 l -0.01544,0.07842 c -0.0084,0.04496 -0.01303,0.07841 -0.01303,0.101514 0,0.0231 0.0054,0.04184 0.01624,0.05538 0.01113,0.01354 0.02548,0.0203 0.04388,0.0203 0.02512,0 0.05227,-0.01487 0.08127,-0.04337 l -0.0114,-0.02215 c -0.01558,0.01147 -0.0303,0.01753 -0.04306,0.01753 -0.01558,0 -0.02357,-0.01188 -0.02357,-0.03598 0,-0.0226 0.003,-0.04913 0.009,-0.07936 l 0.01706,-0.08951 c 0.008,-0.03932 0.01221,-0.06616 0.01221,-0.08213 0,-0.05578 -0.0233,-0.08398 -0.07069,-0.08398 -0.04521,0 -0.08673,0.03369 -0.123527,0.101514 h -0.0065 c 0.0096,-0.04228 0.01821,-0.08421 0.02601,-0.125514 l 0.026,-0.138417 z m -1.125475,0.03507 -0.0057,0.03138 h 0.009 c 0.01904,0 0.03132,0.003 0.03739,0.0093 0.006,0.0061 0.009,0.01496 0.009,0.02676 0,0.0053 -3.18e-4,0.01147 -0.0018,0.01844 l -0.06907,0.370961 c -0.003,0.01572 -0.0091,0.02781 -0.01787,0.03692 -0.0087,0.0088 -0.02463,0.01285 -0.04714,0.01285 h -0.009 l -0.0049,0.03231 h 0.35674 l 0.02924,-0.131967 h -0.03494 l -0.01058,0.0323 c -0.01275,0.04127 -0.03812,0.06184 -0.07557,0.06184 h -0.127584 l 0.04226,-0.226083 h 0.160085 l 0.0065,-0.03692 h -0.160086 l 0.03818,-0.200246 h 0.111328 c 0.0316,0 0.04714,0.01615 0.04714,0.04982 0,0.0021 -5.25e-4,0.0094 -0.0018,0.02122 l -0.0018,0.02306 h 0.03496 l 0.02113,-0.131966 z m 2.385035,0.04059 c -0.02445,0.07052 -0.05831,0.106128 -0.101571,0.106128 l -0.0057,0.03045 h 0.05039 l -0.04064,0.217781 c -0.0043,0.02335 -0.0065,0.04383 -0.0065,0.06274 0,0.05874 0.02406,0.08858 0.07233,0.08858 0.02987,0 0.05953,-0.01188 0.08937,-0.03598 l -0.0114,-0.0286 c -0.01817,0.01119 -0.03567,0.01661 -0.05364,0.01661 -0.02358,0 -0.03574,-0.01401 -0.03574,-0.04152 0,-0.01425 0.0027,-0.03561 0.0081,-0.0646 l 0.04063,-0.215012 h 0.08046 l 0.0081,-0.04336 h -0.08044 l 0.01706,-0.09321 z m 1.055592,0.05628 c -0.02683,0 -0.05054,0.01788 -0.07151,0.05353 -0.0173,-0.01596 -0.0399,-0.02399 -0.06826,-0.02399 -0.04631,0 -0.08379,0.0177 -0.112142,0.0526 -0.02814,0.03465 -0.04226,0.07283 -0.04226,0.115359 0,0.043 0.01536,0.07305 0.04631,0.08951 -0.02445,0.01425 -0.04068,0.02703 -0.04957,0.03782 -0.0087,0.01092 -0.01303,0.02328 -0.01303,0.03876 0,0.02284 0.01045,0.0408 0.0317,0.0526 -0.03355,0.0075 -0.06017,0.01983 -0.07964,0.03876 -0.01926,0.01916 -0.02844,0.04311 -0.02844,0.07014 0,0.06562 0.04792,0.09781 0.144648,0.09781 0.05778,0 0.102113,-0.0134 0.133257,-0.03968 0.03117,-0.02605 0.04714,-0.06196 0.04714,-0.108892 0,-0.05751 -0.03439,-0.09038 -0.103214,-0.09874 l -0.06419,-0.0083 c -0.02272,-0.0026 -0.03333,-0.0097 -0.03333,-0.02215 0,-0.01719 0.01554,-0.03349 0.04714,-0.04799 0.0039,9.81e-4 0.01113,0.0019 0.02113,0.0019 0.04565,0 0.0826,-0.01746 0.110514,-0.0526 0.02791,-0.0354 0.04143,-0.074 0.04143,-0.11627 0,-0.0231 -0.0049,-0.0424 -0.01463,-0.05814 0.01316,-0.01147 0.02466,-0.01752 0.03333,-0.01752 0.01235,0 0.01787,0.0086 0.01787,0.02676 0.02618,0 0.03981,-0.01492 0.03981,-0.04614 0,-0.0231 -0.01181,-0.03508 -0.03414,-0.03508 z m -2.487428,0.02954 c -0.05713,0 -0.104773,0.02799 -0.142206,0.08305 -0.03744,0.0548 -0.05608,0.114999 -0.05608,0.180867 0,0.0484 0.01194,0.08666 0.03577,0.114433 0.02381,0.02777 0.05554,0.04152 0.09426,0.04152 0.03504,0 0.06292,-0.0094 0.0837,-0.02678 0.02098,-0.0177 0.0309,-0.03615 0.0309,-0.05629 0,-0.0094 -0.002,-0.01615 -0.0065,-0.01937 -0.0251,0.03612 -0.05714,0.05444 -0.09588,0.05444 -0.04869,0 -0.07313,-0.03412 -0.07313,-0.10244 0,-0.05038 0.01208,-0.101513 0.03494,-0.154108 0.02315,-0.0526 0.0495,-0.07936 0.08044,-0.07936 0.01601,0 0.02911,0.0084 0.03817,0.02491 0.0091,0.01621 0.01381,0.03782 0.01381,0.06459 0.01795,0 0.03164,-0.0047 0.04226,-0.01476 0.01099,-0.0099 0.01624,-0.02352 0.01624,-0.03876 0,-0.02064 -0.0081,-0.03699 -0.0252,-0.05075 -0.01709,-0.01382 -0.04101,-0.02122 -0.07151,-0.02122 z m 0.721608,0 c -0.05606,0 -0.103322,0.02937 -0.141397,0.08858 -0.03786,0.05923 -0.05689,0.123565 -0.05689,0.192863 0,0.0435 0.0079,0.07809 0.02274,0.102439 0.01514,0.02408 0.03634,0.03598 0.06338,0.03598 0.05108,0 0.09252,-0.04095 0.124328,-0.121811 h 0.0041 c -0.0045,0.0231 -0.0065,0.0431 -0.0065,0.05905 0,0.04177 0.01738,0.06274 0.052,0.06274 0.03074,0 0.06165,-0.01524 0.09346,-0.04522 l -0.01221,-0.02215 c -0.01947,0.01299 -0.03539,0.01937 -0.04793,0.01937 -0.01449,0 -0.02193,-0.0123 -0.02193,-0.03782 0,-0.02113 0.0033,-0.04931 0.0096,-0.08398 l 0.0455,-0.241771 h -0.02113 l -0.02924,0.01937 c -0.02183,-0.01818 -0.04793,-0.02768 -0.07801,-0.02768 z m -1.071033,8.93e-4 c -0.04478,0 -0.08516,0.03369 -0.121084,0.101513 h -0.0065 l 0.01787,-0.09505 h -0.12274 l -0.0057,0.03138 h 0.0049 c 0.03094,0 0.04631,0.01216 0.04631,0.03599 0,0.0086 -6.35e-4,0.02013 -0.0033,0.03414 l -0.05609,0.303596 h 0.06176 l 0.03576,-0.193784 c 0.0073,-0.0376 0.02381,-0.07475 0.04957,-0.112581 0.02596,-0.03784 0.05173,-0.05722 0.07638,-0.05722 0.02034,0 0.03007,0.01548 0.03007,0.04521 0,0.01647 -0.0033,0.03967 -0.0096,0.07013 l -0.01543,0.07843 c -0.0084,0.04496 -0.01221,0.07841 -0.01221,0.1015 0,0.0231 0.0054,0.04184 0.01624,0.05538 0.01113,0.01354 0.02548,0.0203 0.04389,0.0203 0.02512,0 0.05226,-0.01487 0.08127,-0.04337 l -0.01221,-0.02215 c -0.01558,0.01147 -0.02949,0.01752 -0.04226,0.01752 -0.01558,0 -0.02357,-0.01188 -0.02357,-0.03598 0,-0.0226 0.003,-0.04913 0.009,-0.07936 l 0.01706,-0.08858 c 0.008,-0.03932 0.01221,-0.06707 0.01221,-0.08305 0,-0.05578 -0.02413,-0.08398 -0.07151,-0.08398 z m 1.505784,0 c -0.04479,0 -0.08515,0.03369 -0.121084,0.101513 h -0.0065 l 0.01787,-0.09505 h -0.123527 l -0.0057,0.03138 h 0.0049 c 0.03094,0 0.04714,0.01216 0.04714,0.03599 0,0.0086 -0.0014,0.02013 -0.0041,0.03414 l -0.05608,0.303596 h 0.06177 l 0.03577,-0.193784 c 0.0073,-0.0376 0.02381,-0.07475 0.04956,-0.112581 0.02596,-0.03784 0.05173,-0.05722 0.07639,-0.05722 0.02033,0 0.03007,0.01548 0.03007,0.04521 0,0.01647 -0.0033,0.03967 -0.0096,0.07013 l -0.01463,0.07843 c -0.0084,0.04496 -0.01303,0.07841 -0.01303,0.1015 0,0.0231 0.0054,0.04184 0.01624,0.05538 0.01113,0.01354 0.02549,0.0203 0.04389,0.0203 0.0251,0 0.05227,-0.01487 0.08127,-0.04337 l -0.01221,-0.02215 c -0.01558,0.01147 -0.0295,0.01752 -0.04226,0.01752 -0.01558,0 -0.02357,-0.01188 -0.02357,-0.03598 0,-0.0226 0.003,-0.04913 0.009,-0.07936 l 0.01706,-0.08858 c 0.008,-0.03932 0.01221,-0.06707 0.01221,-0.08305 0,-0.05578 -0.0233,-0.08398 -0.07069,-0.08398 z m 0.845122,0 c -0.04479,0 -0.08514,0.03369 -0.121085,0.101513 h -0.0065 l 0.01787,-0.09505 h -0.123527 l -0.0057,0.03138 h 0.0057 c 0.03094,0 0.04631,0.01216 0.04631,0.03599 0,0.0086 -0.0014,0.02013 -0.0041,0.03414 l -0.05608,0.303596 h 0.06176 l 0.03577,-0.193784 c 0.0073,-0.0376 0.02462,-0.07475 0.05039,-0.112581 0.02597,-0.03784 0.0509,-0.05722 0.07557,-0.05722 0.02033,0 0.03088,0.01548 0.03088,0.04521 0,0.01647 -0.0033,0.03967 -0.0096,0.07013 l -0.01544,0.07843 c -0.0084,0.04496 -0.01303,0.07841 -0.01303,0.1015 0,0.0231 0.0054,0.04184 0.01624,0.05538 0.01113,0.01354 0.0263,0.0203 0.04469,0.0203 0.02509,0 0.05146,-0.01487 0.08044,-0.04337 l -0.0114,-0.02215 c -0.01558,0.01147 -0.0303,0.01752 -0.04306,0.01752 -0.01558,0 -0.02274,-0.01188 -0.02274,-0.03598 0,-0.0226 0.0023,-0.04913 0.0081,-0.07936 l 0.01706,-0.08951 c 0.008,-0.03931 0.01221,-0.06616 0.01221,-0.08213 0,-0.05578 -0.0233,-0.08398 -0.0707,-0.08398 z m -0.431499,0.0064 -0.0057,0.03138 h 0.009 c 0.02705,0 0.04064,0.01119 0.04064,0.0323 0,0.0053 -9.43e-4,0.01133 -0.0026,0.01937 l -0.026,0.139342 c -0.0099,0.05651 -0.01463,0.0955 -0.01463,0.118108 0,0.02064 0.0053,0.03816 0.01543,0.05169 0.01018,0.01354 0.02338,0.0203 0.03981,0.0203 0.02922,0 0.05949,-0.01524 0.09019,-0.04522 l -0.01221,-0.02215 c -0.01904,0.01299 -0.03519,0.01937 -0.04793,0.01937 -0.01471,0 -0.02196,-0.0123 -0.02196,-0.03783 0,-0.01965 0.003,-0.04785 0.0096,-0.08398 l 0.0455,-0.242695 z m -0.844312,0.02678 c 0.02338,0 0.03939,0.0086 0.04957,0.02676 l -0.02437,0.133818 c -0.0077,0.04398 -0.02372,0.0847 -0.04794,0.121811 -0.02425,0.03711 -0.04782,0.05538 -0.06988,0.05538 -0.02791,0 -0.04143,-0.02852 -0.04143,-0.08674 0,-0.05776 0.01276,-0.114322 0.03819,-0.16887 0.02576,-0.0548 0.05803,-0.08213 0.09588,-0.08213 z m 1.613863,8.91e-4 c 0.03052,0 0.0455,0.02053 0.0455,0.06183 0,0.03392 -0.008,0.06537 -0.02357,0.09412 -0.01536,0.02852 -0.03562,0.04245 -0.06094,0.04245 -0.03072,0 -0.04631,-0.02053 -0.04631,-0.06183 0,-0.03341 0.0076,-0.06444 0.02274,-0.09321 0.01536,-0.029 0.03659,-0.04337 0.06259,-0.04337 z m -0.09831,0.368194 0.06419,0.0064 c 0.04133,0.0041 0.06257,0.02335 0.06257,0.05628 0,0.02777 -0.01031,0.0493 -0.03089,0.06549 -0.02033,0.01647 -0.05044,0.02491 -0.08937,0.02491 -0.06254,0 -0.09346,-0.02177 -0.09346,-0.06551 0,-0.02039 0.0057,-0.03767 0.01706,-0.05168 0.01153,-0.01401 0.02483,-0.02343 0.04063,-0.0286 0.016,-0.0053 0.02601,-0.0077 0.02926,-0.0075 z m -0.780927,0.379267 c -0.01208,0 -0.02189,0.005 -0.02926,0.01476 -0.0072,0.0095 -0.01058,0.02278 -0.01058,0.03876 0,0.02752 0.01248,0.0406 0.03739,0.0406 0.01167,0 0.02109,-0.0041 0.02844,-0.01285 0.0076,-0.0091 0.0114,-0.02247 0.0114,-0.03967 0,-0.02777 -0.01248,-0.04152 -0.03739,-0.04152 z m -1.627674,8.93e-4 -0.0065,0.0323 h 0.0081 c 0.03117,0 0.04714,0.01147 0.04714,0.03507 0,0.0077 -0.0022,0.01915 -0.0049,0.03414 l -0.05364,0.289756 c -0.0096,0.0553 -0.01463,0.09427 -0.01463,0.118108 0,0.02113 0.0043,0.0384 0.01463,0.05169 0.01031,0.01326 0.02381,0.0203 0.03981,0.0203 0.02922,0 0.05948,-0.01524 0.09019,-0.04522 l -0.01221,-0.02215 c -0.01904,0.01299 -0.03519,0.01937 -0.04793,0.01937 -0.01471,0 -0.02196,-0.0123 -0.02196,-0.03782 0,-0.0199 0.0038,-0.04808 0.01058,-0.08398 l 0.07639,-0.411566 z m 2.443543,0 -0.0057,0.0323 h 0.0073 c 0.03116,0 0.04714,0.01147 0.04714,0.03507 0,0.0077 -0.0013,0.01915 -0.0041,0.03414 l -0.05443,0.289756 c -0.0096,0.0553 -0.01463,0.09427 -0.01463,0.118108 0,0.02113 0.0053,0.0384 0.01543,0.05169 0.01031,0.01326 0.02381,0.0203 0.03981,0.0203 0.02922,0 0.05868,-0.01524 0.08937,-0.04522 l -0.01221,-0.02215 c -0.01904,0.01299 -0.03437,0.01937 -0.04714,0.01937 -0.01471,0 -0.02196,-0.0123 -0.02196,-0.03782 0,-0.0199 0.003,-0.04808 0.0096,-0.08398 l 0.0772,-0.411566 z m -3.006691,0.02676 c -0.07791,0 -0.143472,0.03541 -0.19584,0.105203 -0.05237,0.06954 -0.07801,0.151962 -0.07801,0.247308 0,0.06439 0.01569,0.114349 0.04793,0.149493 0.03247,0.03514 0.07793,0.0526 0.135709,0.0526 0.04328,0 0.07691,-0.0098 0.101571,-0.02862 0.02467,-0.01893 0.03739,-0.04051 0.03739,-0.06459 0,-0.01202 -0.003,-0.02021 -0.009,-0.02491 -0.03073,0.04572 -0.07222,0.0692 -0.123527,0.0692 -0.07877,0 -0.117828,-0.04707 -0.117828,-0.141188 0,-0.08035 0.01846,-0.154816 0.05526,-0.222394 0.03701,-0.06783 0.08259,-0.1015 0.137331,-0.1015 0.04414,0 0.06663,0.0341 0.06663,0.10244 0.01969,0 0.03523,-0.0051 0.04714,-0.0157 0.01194,-0.01064 0.01787,-0.02542 0.01787,-0.04336 0,-0.02581 -0.01099,-0.04593 -0.03251,-0.06092 -0.02164,-0.01524 -0.05148,-0.02306 -0.0902,-0.02306 z m 1.643929,0.0083 -0.0057,0.03138 h 0.0081 c 0.03203,0 0.04794,0.01036 0.04794,0.03045 0,0.0047 -7.12e-4,0.01188 -0.0026,0.02122 l -0.06907,0.370039 c -0.0066,0.03612 -0.02823,0.05353 -0.065,0.05353 h -0.009 l -0.0057,0.0323 h 0.209657 c 0.08071,0 0.145147,-0.03215 0.193402,-0.09505 0.04824,-0.06314 0.07233,-0.142676 0.07233,-0.239002 0,-0.06585 -0.01609,-0.115953 -0.04876,-0.151338 -0.03269,-0.03565 -0.07941,-0.05353 -0.139772,-0.05353 z m 0.123527,0.03689 h 0.05283 c 0.08419,0 0.125956,0.05349 0.125956,0.159641 0,0.09093 -0.01863,0.164769 -0.05608,0.220547 -0.03722,0.05578 -0.08791,0.08307 -0.151962,0.08307 h -0.0577 z m -1.432646,0.08951 c -0.05908,0 -0.10727,0.02715 -0.143832,0.08122 -0.03634,0.05382 -0.05444,0.114874 -0.05444,0.182713 0,0.04891 0.01167,0.08691 0.03414,0.114418 0.0225,0.02752 0.05342,0.04152 0.09346,0.04152 0.05885,0 0.106877,-0.02715 0.14302,-0.0812 0.03614,-0.05431 0.05364,-0.115621 0.05364,-0.182715 0,-0.05063 -0.01099,-0.08855 -0.03331,-0.115358 -0.0225,-0.02678 -0.05347,-0.04059 -0.09263,-0.04059 z m 0.583462,0 c -0.05908,0 -0.106456,0.02715 -0.143021,0.08122 -0.03635,0.05382 -0.05446,0.114874 -0.05446,0.182713 0,0.04891 0.01099,0.08691 0.03333,0.114418 0.0225,0.02752 0.05423,0.04152 0.09426,0.04152 0.05885,0 0.106076,-0.02715 0.142209,-0.0812 0.03615,-0.05431 0.05443,-0.115621 0.05443,-0.182715 0,-0.05063 -0.01167,-0.08855 -0.03413,-0.115358 -0.0225,-0.02678 -0.05346,-0.04059 -0.09263,-0.04059 z m 0.415247,0 c -0.02295,0 -0.04283,0.0079 -0.06013,0.024 -0.0173,0.01621 -0.03507,0.04731 -0.05283,0.09228 h -0.0065 l 0.0138,-0.108892 h -0.117014 l -0.0065,0.03138 h 0.0057 c 0.03528,0 0.05283,0.01216 0.05283,0.03599 0,0.0086 -0.0014,0.02015 -0.0041,0.03413 l -0.05609,0.3036 h 0.06257 l 0.02437,-0.137493 c 0.01113,-0.05799 0.02825,-0.109997 0.0512,-0.155953 0.02316,-0.04596 0.04527,-0.0692 0.06583,-0.0692 0.01774,0 0.0268,0.02017 0.0268,0.05998 0.03677,0 0.05527,-0.0198 0.05527,-0.05814 0,-0.03464 -0.01892,-0.05167 -0.05527,-0.05167 z m 1.487094,0 c -0.04911,0 -0.08986,0.03598 -0.121885,0.107966 h -0.0033 l 0.01624,-0.100574 H 57.45422 l -0.0057,0.03138 h 0.0049 c 0.03094,0 0.04631,0.01216 0.04631,0.03599 0,0.0055 -0.0019,0.01854 -0.0057,0.03968 l -0.08857,0.478929 h 0.125156 l 0.0057,-0.03138 h -0.009 c -0.03094,0 -0.04631,-0.01174 -0.04631,-0.03508 0,-0.007 0.0024,-0.02155 0.0065,-0.04245 l 0.009,-0.04613 c 0.0018,-0.0082 0.0038,-0.01977 0.0057,-0.03598 0.01794,0.01147 0.03968,0.01752 0.06501,0.01752 0.05801,0 0.105208,-0.03091 0.142209,-0.09134 0.03722,-0.0607 0.05609,-0.124367 0.05609,-0.19194 0,-0.04423 -0.0072,-0.07818 -0.02193,-0.101513 -0.01448,-0.02334 -0.03553,-0.03508 -0.06257,-0.03508 z m 0.542017,0 c -0.05606,0 -0.103322,0.02937 -0.141397,0.08858 -0.03787,0.05923 -0.0569,0.123566 -0.0569,0.192863 0,0.0435 0.0079,0.07809 0.02274,0.10244 0.01514,0.02408 0.03634,0.03599 0.06339,0.03599 0.05108,0 0.09252,-0.04095 0.124328,-0.121811 h 0.0041 c -0.0046,0.0231 -0.0073,0.04309 -0.0073,0.05905 0,0.04177 0.01738,0.06276 0.05201,0.06276 0.03074,0 0.06245,-0.01524 0.09426,-0.04522 l -0.01221,-0.02215 c -0.01947,0.01299 -0.03538,0.01937 -0.04793,0.01937 -0.01449,0 -0.02196,-0.0123 -0.02196,-0.03782 0,-0.02113 0.0033,-0.04931 0.0096,-0.08398 l 0.0455,-0.241772 h -0.02113 l -0.02926,0.01937 c -0.02185,-0.01817 -0.04793,-0.02768 -0.07801,-0.02768 z m -0.934514,8.91e-4 c -0.03809,0 -0.06883,0.01023 -0.09263,0.03138 -0.02358,0.02089 -0.03576,0.04828 -0.03576,0.0812 0,0.02408 0.0054,0.04524 0.01624,0.06366 0.01113,0.01817 0.03321,0.0354 0.06501,0.0526 0.02445,0.01271 0.04102,0.02624 0.0512,0.03876 0.01018,0.0123 0.01543,0.02729 0.01543,0.04521 0,0.04669 -0.02369,0.07013 -0.07151,0.07013 -0.02402,0 -0.04265,-0.0087 -0.05608,-0.02584 -0.01316,-0.01745 -0.0203,-0.04169 -0.0203,-0.0729 -0.01208,0 -0.02206,0.0033 -0.03007,0.01202 -0.0077,0.0084 -0.0114,0.02068 -0.0114,0.0369 0,0.02606 0.0095,0.04727 0.02924,0.06274 0.01991,0.01524 0.0469,0.02306 0.08044,0.02306 0.04154,0 0.07485,-0.01133 0.09996,-0.03414 0.0251,-0.02285 0.03739,-0.05332 0.03739,-0.09043 0,-0.05111 -0.02641,-0.09016 -0.07964,-0.117182 -0.02316,-0.01147 -0.04017,-0.02328 -0.0512,-0.03508 -0.01113,-0.01174 -0.01624,-0.02574 -0.01624,-0.04245 0,-0.01892 0.0057,-0.03501 0.01706,-0.04706 0.01167,-0.0123 0.02723,-0.01845 0.04714,-0.01845 0.01882,0 0.0335,0.0079 0.04389,0.02306 0.01058,0.01524 0.01624,0.03561 0.01624,0.06092 0.03334,0 0.04957,-0.01585 0.04957,-0.04706 0,-0.02014 -0.0092,-0.03699 -0.02763,-0.05075 -0.01817,-0.01382 -0.04371,-0.02031 -0.07639,-0.02031 z m 1.364388,0 c -0.01167,0 -0.02141,0.0047 -0.03007,0.01476 -0.0087,0.0099 -0.01303,0.02364 -0.01303,0.04059 0.02183,0 0.03251,0.01426 0.03251,0.04152 0,0.06363 -0.02945,0.146622 -0.08937,0.250074 h -0.0026 c -0.0026,-0.02801 -0.01167,-0.07342 -0.02763,-0.136567 l -0.05201,-0.203922 h -0.09671 l -0.0057,0.03138 h 0.0073 c 0.01316,0 0.02254,0.003 0.02924,0.0093 0.0068,0.0059 0.01235,0.01664 0.01624,0.03138 l 0.08776,0.334051 c -0.06102,0.09166 -0.1235,0.137493 -0.1869,0.137493 -0.01904,0 -0.03641,-0.0036 -0.052,-0.0093 l -0.0096,0.03783 c 0.0184,0.0091 0.0392,0.01383 0.06257,0.01383 0.05885,0 0.106293,-0.01738 0.142206,-0.05353 0.03614,-0.03612 0.08411,-0.10979 0.143835,-0.219625 0.05973,-0.11008 0.08937,-0.194917 0.08937,-0.255613 0,-0.04228 -0.01542,-0.06365 -0.0455,-0.06365 z m -1.705686,0.0064 -0.0065,0.03138 0.009,8.91e-4 c 0.02705,0 0.04063,0.01022 0.04063,0.03138 0,0.0053 -9.42e-4,0.01133 -0.0026,0.01937 l -0.02519,0.139341 c -0.0099,0.05653 -0.01543,0.0955 -0.01543,0.118108 0,0.02064 0.0053,0.03816 0.01543,0.05168 0.01018,0.01354 0.02338,0.02031 0.03981,0.02031 0.02922,0 0.05949,-0.01524 0.09019,-0.04522 l -0.01221,-0.02215 c -0.01904,0.01299 -0.03519,0.01937 -0.04793,0.01937 -0.01471,0 -0.02193,-0.0123 -0.02193,-0.03782 0,-0.01965 0.0038,-0.04785 0.01058,-0.08399 l 0.04469,-0.242694 z m 1.279062,0.02678 c 0.02337,0 0.04019,0.0086 0.05038,0.02676 l -0.02437,0.133818 c -0.0077,0.04399 -0.02371,0.08471 -0.04793,0.121811 -0.02424,0.0371 -0.04781,0.05538 -0.06988,0.05538 -0.02791,0 -0.04143,-0.02852 -0.04143,-0.08674 0,-0.05776 0.01276,-0.114322 0.03817,-0.16887 0.02576,-0.0548 0.05722,-0.08213 0.09507,-0.08213 z m -3.039197,0.0055 c 0.04328,0 0.06501,0.03516 0.06501,0.105203 0,0.05995 -0.01058,0.114847 -0.03251,0.164258 -0.02164,0.04915 -0.0512,0.07382 -0.08776,0.07382 -0.04393,0 -0.06583,-0.03498 -0.06583,-0.104277 0,-0.06045 0.01113,-0.11486 0.03333,-0.164256 0.0223,-0.0494 0.05162,-0.07474 0.08776,-0.07474 z m 0.584275,0 c 0.04327,0 0.06501,0.03516 0.06501,0.105203 0,0.05995 -0.0114,0.114847 -0.03333,0.164258 -0.02164,0.04915 -0.05037,0.07382 -0.08694,0.07382 -0.04393,0 -0.06583,-0.03498 -0.06583,-0.104277 0,-0.06045 0.01113,-0.11486 0.03331,-0.164256 0.0223,-0.0494 0.05162,-0.07474 0.08776,-0.07474 z m 1.884463,0.0083 c 0.02791,0 0.04226,0.02895 0.04226,0.08765 0,0.05677 -0.0133,0.112898 -0.039,0.167948 -0.02552,0.0548 -0.05645,0.08213 -0.09346,0.08213 -0.02078,0 -0.03854,-0.0088 -0.05283,-0.02676 l 0.02681,-0.143955 c 0.0076,-0.03908 0.02375,-0.07645 0.04714,-0.112581 0.02338,-0.03637 0.04614,-0.05444 0.06907,-0.05444 z"
         inkscape:label="ECD" /><rect
         style="display:inline;opacity:1;mix-blend-mode:normal;fill:#880000;fill-opacity:1;stroke:none;stroke-width:0.969588;stroke-miterlimit:3.6;stroke-opacity:0.5;paint-order:fill markers stroke"
         id="rect45"
         width="2.0815656"
         height="2.0737381"
         x="53.49683"
         y="13.546373"
         rx="1.8468812e-17"
         ry="2.7231654e-17"
         inkscape:label="Red" /><rect
         style="display:inline;opacity:1;mix-blend-mode:normal;fill:#006611;fill-opacity:1;stroke:none;stroke-width:0.969586;stroke-miterlimit:3.6;stroke-opacity:0.5;paint-order:fill markers stroke"
         id="rect45-6"
         width="2.0815656"
         height="2.0737381"
         x="55.578396"
         y="13.546373"
         rx="1.8468812e-17"
         ry="2.7231656e-17"
         inkscape:label="Green" /><rect
         style="display:inline;opacity:1;mix-blend-mode:normal;fill:#003399;fill-opacity:1;stroke:none;stroke-width:0.969587;stroke-miterlimit:3.6;stroke-opacity:0.5;paint-order:fill markers stroke"
         id="rect45-9"
         width="2.0815656"
         height="2.0737381"
         x="57.659962"
         y="13.546373"
         rx="1.8468812e-17"
         ry="2.7231656e-17"
         inkscape:label="Blue" /></g><ellipse
       style="display:inline;opacity:1;mix-blend-mode:normal;fill:url(#radialGradient67);fill-opacity:1;stroke:none;stroke-width:0.225027;stroke-linecap:round;stroke-linejoin:miter;stroke-dasharray:none;stroke-opacity:0.75;paint-order:stroke markers fill"
       id="path65"
       inkscape:label="Led Emission"
       cx="12.322093"
       cy="0.53476501"
       rx="0.55751485"
       ry="0.56766164"
       sodipodi:insensitive="true" /><ellipse
       style="display:inline;opacity:1;mix-blend-mode:normal;fill:url(#radialGradient56);fill-opacity:1;stroke:none;stroke-width:0.225027;stroke-linecap:round;stroke-linejoin:miter;stroke-dasharray:none;stroke-opacity:0.75;paint-order:stroke markers fill"
       id="path54"
       inkscape:label="LED"
       cx="12.322093"
       cy="0.53476501"
       rx="0.16725446"
       ry="0.17029853"
       sodipodi:insensitive="true" /><g
       inkscape:groupmode="layer"
       id="g86"
       inkscape:label="Knob"
       style="display:inline"
       transform="matrix(0.30705271,0,0,0.31382115,-4.2630075,-3.3766545)"
       sodipodi:insensitive="true"><path
         id="path85"
         style="display:inline;fill:url(#radialGradient86);stroke-width:0.264583;stroke-miterlimit:3.6;paint-order:stroke fill markers"
         d="m 56.283477,21.960415 v 3.617739 h -3.631395 v -1.80887 l 1.815698,-1.808869 z"
         sodipodi:nodetypes="cccccc"
         inkscape:label="Shadow" /><ellipse
         style="display:inline;fill:url(#radialGradient87);fill-opacity:1;stroke:url(#linearGradient87);stroke-width:0.264583;stroke-miterlimit:3.6;stroke-dasharray:none;stroke-opacity:1;paint-order:stroke fill markers"
         id="circle85"
         inkscape:label="Knob Edge"
         cx="54.055363"
         cy="23.358915"
         rx="1.2709883"
         ry="1.2662089" /><ellipse
         style="display:inline;fill:#847c6a;fill-opacity:1;stroke:url(#linearGradient88);stroke-width:0.264583;stroke-miterlimit:3.6;stroke-dasharray:none;paint-order:stroke markers fill"
         id="circle86"
         inkscape:label="Knob Top"
         cx="54.319946"
         cy="23.623499"
         rx="0.90784878"
         ry="0.90443498" /></g><use
       x="0"
       y="0"
       xlink:href="#g86"
       id="use16"
       transform="translate(0,-1.1353232)"
       inkscape:label="Knob"
       sodipodi:insensitive="true" /><use
       x="0"
       y="0"
       xlink:href="#use16"
       id="use18"
       transform="translate(0,-1.1353232)"
       inkscape:label="Knob"
       style="display:inline"
       sodipodi:insensitive="true" /></g><metadata
     id="metadata23"><rdf:RDF><cc:Work
         rdf:about=""><cc:license
           rdf:resource="http://creativecommons.org/publicdomain/zero/1.0/" /></cc:Work><cc:License
         rdf:about="http://creativecommons.org/publicdomain/zero/1.0/"><cc:permits
           rdf:resource="http://creativecommons.org/ns#Reproduction" /><cc:permits
           rdf:resource="http://creativecommons.org/ns#Distribution" /><cc:permits
           rdf:resource="http://creativecommons.org/ns#DerivativeWorks" /></cc:License></rdf:RDF></metadata></svg>
