<?xml version="1.0" encoding="UTF-8"?>
<svg width="16" height="16" version="1.1" viewBox="0 0 4.2333 4.2333" xmlns="http://www.w3.org/2000/svg" xmlns:xlink="http://www.w3.org/1999/xlink"><defs><linearGradient id="a"><stop stop-color="#c2cada" offset="0"/><stop stop-color="#9ea09f" offset="1"/></linearGradient><linearGradient id="v" x1="2.6458" x2="2.6458" y1="49.477" y2="65.088" gradientTransform="matrix(.47842 0 0 .47862 -4.765 -5.9581)" gradientUnits="userSpaceOnUse"><stop stop-color="#e7e7e2" offset="0"/><stop stop-color="#cfccc3" offset=".2"/><stop stop-color="#aba8a5" offset="1"/></linearGradient><linearGradient id="n" x1="5.2573" x2="8.2756" y1="52.971" y2="55.989" gradientTransform="matrix(.83104 0 0 .83118 -6.7452 -28.776)" gradientUnits="userSpaceOnUse" xlink:href="#a"/><linearGradient id="aa" x1="22.395" x2="22.395" y1="49.647" y2="62.1" gradientTransform="matrix(.51413 0 0 .38669 -.93772 -6.0355)" gradientUnits="userSpaceOnUse"><stop stop-color="#1c1c21" offset="0"/><stop stop-color="#2f2e38" offset="1"/></linearGradient><linearGradient id="m" x1="51.656" x2="54.968" y1="9.7535" y2="13.668" gradientTransform="matrix(.97803 0 0 .82404 -9.2825 -6.9333)" gradientUnits="userSpaceOnUse" xlink:href="#a"/><radialGradient id="j" cx="27.208" cy="57.856" r=".52917" gradientTransform="matrix(-2.6322e-6 .55624 -.54629 -2.7584e-6 40.526 -17.653)" gradientUnits="userSpaceOnUse"><stop stop-color="#ffb" offset="0"/><stop stop-color="#af0" offset=".49806"/><stop stop-color="#0f0" offset="1"/></radialGradient><radialGradient id="h" cx="53.975" cy="20.637" r=".79375" gradientTransform="matrix(.81945 2.9312e-6 -1.4197e-6 .83436 -35.237 -19.665)" gradientUnits="userSpaceOnUse"><stop stop-color="#0f0" stop-opacity=".2" offset=".3"/><stop stop-color="#0f0" stop-opacity="0" offset="1"/></radialGradient><radialGradient id="f" cx="53.975" cy="23.343" r="1.6065" gradientTransform="matrix(1.0861 1.082 -.55973 .56178 8.4197 -48.231)" gradientUnits="userSpaceOnUse"><stop stop-opacity=".5" offset="0"/><stop stop-opacity="0" offset="1"/></radialGradient><radialGradient id="e" cx="54.548" cy="23.063" r="1.3229" gradientTransform="matrix(-.50319 .60359 -.99008 -.82475 103.55 8.6651)" gradientUnits="userSpaceOnUse"><stop stop-color="#d6cbae" offset="0"/><stop stop-color="#9d9786" offset="1"/></radialGradient><linearGradient id="p" x1="52.652" x2="55.298" y1="21.96" y2="24.606" gradientTransform="matrix(1.0064 0 0 1.006 -.25518 -.055411)" gradientUnits="userSpaceOnUse"><stop stop-color="#bab28d" offset="0"/><stop stop-color="#b8b389" stop-opacity="0" offset=".49832"/></linearGradient><linearGradient id="o" x1="53.446" x2="55.033" y1="22.754" y2="24.342" gradientTransform="matrix(1.0183 0 0 1.0178 -.89421 -.32414)" gradientUnits="userSpaceOnUse"><stop stop-color="#9d9786" offset="0"/><stop stop-color="#77705f" offset="1"/></linearGradient><radialGradient id="g" cx="19.05" cy="10.065" r="17.595" gradientTransform="matrix(.31798 -.13687 .050014 .14553 -6.7934 -2.0855)" gradientUnits="userSpaceOnUse"><stop stop-color="#fff" stop-opacity=".2" offset="0"/><stop stop-color="#fff" stop-opacity="0" offset="1"/></radialGradient><linearGradient id="y" x1="-1.1976" x2="-1.1976" y1="-4.4323" y2="7.0471" gradientTransform="matrix(.88889 0 0 .92308 -1.8676 -2.107)" gradientUnits="userSpaceOnUse"><stop stop-color="#d5d2d4" offset="0"/><stop stop-color="#abaaab" offset=".07"/><stop stop-color="#a2a2a2" offset=".93"/><stop stop-color="#686868" offset="1"/></linearGradient><linearGradient id="x" x1="-.3304" x2=".97047" y1="4.398" y2="6.1641" gradientTransform="matrix(.875 0 0 .90909 -1.7758 -2.0887)" gradientUnits="userSpaceOnUse"><stop stop-color="#5b5958" offset="0"/><stop stop-color="#847e7b" offset=".5"/><stop stop-color="#c0bfbe" offset="1"/></linearGradient><linearGradient id="u" x1="-.3304" x2="13.546" y1="-3.5492" y2="6.1641" gradientTransform="matrix(.875 0 0 .90909 -1.7758 -2.0887)" gradientUnits="userSpaceOnUse"><stop stop-color="#74706d" offset="0"/><stop stop-color="#7e7a77" offset="1"/></linearGradient><linearGradient id="t" x1=".10322" x2="4.0058" y1="-3.1077" y2="5.7226" gradientTransform="matrix(.94603 0 0 .88759 -1.7289 -2.1154)" gradientUnits="userSpaceOnUse"><stop stop-color="#413f3f" offset="0"/><stop stop-color="#726c69" offset=".5"/><stop stop-color="#a7a5a4" offset="1"/></linearGradient><radialGradient id="i" cx="27.208" cy="57.856" r=".52917" gradientTransform="matrix(-1.4328e-5 3.0333 -2.9738 -1.5042e-5 184.81 -66.155)" gradientUnits="userSpaceOnUse"><stop stop-color="#fff" offset="0"/><stop stop-color="#f00" offset=".49806"/><stop stop-color="#a00" offset="1"/></radialGradient><linearGradient id="r" x1="14.331" x2="14.331" y1="20.386" y2="27.609" gradientTransform="matrix(.8 0 0 .66667 -1.8546 -.42774)" gradientUnits="userSpaceOnUse"><stop stop-color="#141414" offset="0"/><stop stop-color="#141414" stop-opacity="0" offset="1"/></linearGradient><linearGradient id="q" x1="28.494" x2="28.494" y1="20.386" y2="27.609" gradientTransform="matrix(.8 0 0 .66667 -1.3825 -.42774)" gradientUnits="userSpaceOnUse"><stop stop-color="#141414" offset="0"/><stop stop-color="#141414" stop-opacity="0" offset="1"/></linearGradient><linearGradient id="s" x1="3.1386" x2="4.8731" y1="-2.6662" y2="-.90016" gradientUnits="userSpaceOnUse"><stop stop-color="#af5" offset="0"/><stop stop-color="#5a0" offset="1"/></linearGradient><linearGradient id="z" x1="4.0058" x2="4.4395" y1="-.3511" y2=".42439" gradientUnits="userSpaceOnUse"><stop stop-color="#142900" offset="0"/><stop stop-color="#366d00" offset="1"/></linearGradient><linearGradient id="w" x1=".53685" x2="1.8377" y1="-2.2247" y2="-.90016" gradientUnits="userSpaceOnUse"><stop stop-color="#52a300" offset="0"/><stop stop-color="#366d00" offset="1"/></linearGradient><radialGradient id="k" cx=".68139" cy="1.3876" r=".86725" gradientTransform="matrix(-.5 -.5091 1.5 -1.5273 -.33659 3.3321)" gradientUnits="userSpaceOnUse"><stop stop-color="#fff" offset=".10204"/><stop stop-color="#9ff" stop-opacity=".8" offset=".39796"/><stop stop-color="#3376ff" stop-opacity=".6" offset=".69558"/><stop stop-color="#4500cc" stop-opacity=".4" offset=".84779"/><stop stop-color="#206" stop-opacity=".2" offset="1"/></radialGradient></defs><g transform="matrix(.14165 0 0 .14165 .49745 .66458)" style="mix-blend-mode:normal"><path d="m-2.765 17.723h28.38c0.37974 0 0.74616 0.43056 0.74683 0.74715l0.01268 5.9645c8.7e-4 0.42094-0.33875 0.75981-0.75951 0.75981h-28.38c-0.42076 0-0.74683-0.32621-0.74683-0.74715v-5.9772c0-0.31659 0.36709-0.74715 0.74683-0.74715z" fill="url(#v)"/><g transform="matrix(.85107 0 0 .85097 .24487 5.544)" stroke-width=".95394" style="mix-blend-mode:normal"><rect x="-2.2194" y="16.507" width="2.1947" height="2.195" rx="6.1029e-18" ry="6.1039e-18" fill="url(#n)" style="mix-blend-mode:normal;paint-order:markers stroke fill"/></g><g transform="matrix(.76925 0 0 .76925 .61052 9.7543)" style="mix-blend-mode:normal"><path id="l" d="m-2.3237 15.822v1.2141" fill="none" stroke="#000" stroke-linecap="round" stroke-linejoin="round" stroke-opacity=".53333" stroke-width="1.2141" style="paint-order:markers stroke fill"/><use id="c" transform="translate(2.4282)" xlink:href="#l"/><use id="b" transform="translate(2.4282)" xlink:href="#c"/><use transform="translate(2.4282)" xlink:href="#b"/></g><g transform="matrix(.79132 0 0 .77581 .090274 9.3789)"><rect x="9.6106" y="13.163" width="21.244" height="4.8153" fill="url(#aa)" stroke-linecap="round" stroke-linejoin="round" stroke-opacity=".5" stroke-width=".11797" style="mix-blend-mode:normal;paint-order:markers stroke fill"/><g><rect x="9.6106" y="13.163" width="9.4417" height="4.8153" fill="url(#r)" style="paint-order:normal"/><rect x="21.413" y="13.163" width="9.4417" height="4.8153" fill="url(#q)" style="mix-blend-mode:normal;paint-order:normal"/><ellipse cx="13.151" cy="16.774" rx="1.1802" ry="1.2038" fill="url(#i)" style="mix-blend-mode:normal;paint-order:stroke markers fill"/><rect x="23.773" y="15.57" width="2.3604" height="2.4076" ry="0" fill="#c00" style="mix-blend-mode:normal;paint-order:stroke markers fill"/></g></g></g><g transform="matrix(.30508 0 0 .29963 .89455 1.8572)"><g><rect x="-2.9321" y="-6.1983" width="13.876" height="10.596" rx=".86725" fill="url(#y)" stroke-linecap="round" stroke-miterlimit="3.3" stroke-width=".39634" style="paint-order:stroke fill markers"/><rect x="-2.0649" y="-5.3153" width="12.141" height="8.8303" rx=".37942" fill="url(#u)" stroke="url(#x)" stroke-linecap="round" stroke-miterlimit="3.3" stroke-width=".43755" style="paint-order:stroke fill markers"/><rect x="-1.6313" y="-4.8738" width="9.5397" height="7.9473" rx=".88303" ry=".88303"/></g><path d="m0.97047 0.42439c3e-8 0.44151 0.43362 0.88303 0.86725 0.88303-0.43362 0.88303-1.3009 0.88303-2.1681 1.3245 0.43362-0.88303 0.43362-1.7661 1.3009-2.2076z" fill="url(#k)" stroke-linecap="round" stroke-linejoin="round" stroke-miterlimit="3.3" stroke-width=".43755"/><g stroke-linecap="round" stroke-linejoin="round" stroke-miterlimit="3.3" stroke-width=".43755"><path d="m2.5938-0.3511c0.6523 0.66227 0.97844 1.6566 0.97844 2.9831 0.86725-0.88303 1.3009-3.5321 0.43362-4.4151z" fill="url(#z)"/><path d="m-0.3304-1.3417c1.299 0 2.2737 0.33019 2.9242 0.99057l1.4121-1.4321c-0.86725-0.88303-3.469-0.44151-4.3362 0.44151z" fill="url(#w)"/><path d="m5.7403-3.5492c0 2.6491-2.1681 3.9736-3.9026 4.8567-0.43362 0-0.86725-0.44151-0.86725-0.88303 0.86725-1.7661 2.1681-3.9736 4.7699-3.9736z" fill="url(#s)"/></g><rect x="-1.6313" y="-4.8738" width="9.5397" height="7.9473" rx=".88303" ry=".88303" fill="url(#g)"/><rect x="-1.6313" y="-4.8738" width="9.5397" height="7.9473" rx=".86725" ry=".88303" fill="none" stroke="url(#t)" stroke-linecap="round" stroke-linejoin="round" stroke-miterlimit="3.3" stroke-width=".21878" style="paint-order:normal"/><g transform="matrix(.26783 0 0 .27374 -2.7031 -4.7345)" stroke-width="1.2" style="mix-blend-mode:normal"><rect x="41.239" y="1.1039" width="3.238" height="3.2258" rx="7.1823e-18" ry="6.0515e-18" fill="url(#m)" style="mix-blend-mode:normal;paint-order:markers stroke fill"/></g><ellipse cx="8.9925" cy="-2.4455" rx=".65043" ry=".66227" fill="url(#h)" style="mix-blend-mode:normal;paint-order:stroke markers fill"/><ellipse cx="8.9925" cy="-2.4455" rx=".21681" ry=".22076" fill="url(#j)" style="mix-blend-mode:normal;paint-order:stroke markers fill"/><g id="ab" transform="matrix(.30705 0 0 .31382 -7.8658 -5.1427)"><path d="m56.889 21.96v4.2207h-4.2366v-2.1103l2.1183-2.1103z" fill="url(#f)" stroke-miterlimit="3.6" stroke-width=".26458" style="paint-order:stroke fill markers"/><ellipse cx="54.064" cy="23.367" rx="1.2791" ry="1.2738" fill="url(#e)" stroke="url(#p)" stroke-miterlimit="3.6" stroke-width=".26622" style="paint-order:stroke fill markers"/><ellipse cx="54.339" cy="23.642" rx=".92448" ry=".9205" fill="#847c6a" stroke="url(#o)" stroke-miterlimit="3.6" stroke-width=".26936" style="paint-order:stroke markers fill"/></g><use id="d" transform="translate(.040872 -1.3663)" xlink:href="#ab"/><use transform="translate(4.3006e-7 -1.2828)" xlink:href="#d"/></g></svg>
