<?xml version="1.0" encoding="UTF-8"?>
<svg width="22" height="22" version="1.1" viewBox="0 0 5.8208 5.8208" xmlns="http://www.w3.org/2000/svg" xmlns:xlink="http://www.w3.org/1999/xlink"><defs><linearGradient id="a"><stop stop-color="#c2cada" offset="0"/><stop stop-color="#9ea09f" offset="1"/></linearGradient><linearGradient id="v" x1="2.6458" x2="2.6458" y1="49.477" y2="65.088" gradientTransform="matrix(.53822 0 0 .59828 -1.1859 -6.2747)" gradientUnits="userSpaceOnUse"><stop stop-color="#e7e7e2" offset="0"/><stop stop-color="#cfccc3" offset=".2"/><stop stop-color="#aba8a5" offset="1"/></linearGradient><linearGradient id="n" x1="5.2573" x2="8.2756" y1="52.971" y2="55.989" gradientTransform="matrix(.83104 0 0 .83118 -2.3557 -22.191)" gradientUnits="userSpaceOnUse" xlink:href="#a"/><linearGradient id="aa" x1="22.395" x2="22.395" y1="49.647" y2="62.1" gradientTransform="matrix(.62838 0 0 .58003 1.4391 -8.4116)" gradientUnits="userSpaceOnUse"><stop stop-color="#1c1c21" offset="0"/><stop stop-color="#2f2e38" offset="1"/></linearGradient><linearGradient id="m" x1="51.656" x2="54.968" y1="9.7535" y2="13.668" gradientTransform="matrix(.97803 0 0 .82404 3.6695 -.48171)" gradientUnits="userSpaceOnUse" xlink:href="#a"/><radialGradient id="j" cx="27.208" cy="57.856" r=".52917" gradientTransform="matrix(-2.6322e-6 .55624 -.54629 -2.7584e-6 43.562 -15.445)" gradientUnits="userSpaceOnUse"><stop stop-color="#ffb" offset="0"/><stop stop-color="#af0" offset=".49806"/><stop stop-color="#0f0" offset="1"/></radialGradient><radialGradient id="h" cx="53.975" cy="20.637" r=".79375" gradientTransform="matrix(.81945 2.9312e-6 -1.4197e-6 .83436 -32.202 -17.457)" gradientUnits="userSpaceOnUse"><stop stop-color="#0f0" stop-opacity=".2" offset=".3"/><stop stop-color="#0f0" stop-opacity="0" offset="1"/></radialGradient><radialGradient id="f" cx="53.975" cy="23.343" r="1.6065" gradientTransform="matrix(1.0861 1.082 -.55973 .56178 8.4197 -48.231)" gradientUnits="userSpaceOnUse"><stop stop-opacity=".5" offset="0"/><stop stop-opacity="0" offset="1"/></radialGradient><radialGradient id="e" cx="54.548" cy="23.063" r="1.3229" gradientTransform="matrix(-.50319 .60359 -.99008 -.82475 103.55 8.6651)" gradientUnits="userSpaceOnUse"><stop stop-color="#d6cbae" offset="0"/><stop stop-color="#9d9786" offset="1"/></radialGradient><linearGradient id="p" x1="52.652" x2="55.298" y1="21.96" y2="24.606" gradientTransform="matrix(1.0064 0 0 1.006 -.25518 -.055411)" gradientUnits="userSpaceOnUse"><stop stop-color="#bab28d" offset="0"/><stop stop-color="#b8b389" stop-opacity="0" offset=".49832"/></linearGradient><linearGradient id="o" x1="53.446" x2="55.033" y1="22.754" y2="24.342" gradientTransform="matrix(1.0183 0 0 1.0178 -.89421 -.32414)" gradientUnits="userSpaceOnUse"><stop stop-color="#9d9786" offset="0"/><stop stop-color="#77705f" offset="1"/></linearGradient><radialGradient id="g" cx="19.05" cy="10.065" r="17.595" gradientTransform="matrix(.36134 -.15208 .056834 .1617 -5.7628 -.0096054)" gradientUnits="userSpaceOnUse"><stop stop-color="#fff" stop-opacity=".2" offset="0"/><stop stop-color="#fff" stop-opacity="0" offset="1"/></radialGradient><linearGradient id="y" x1="-1.1976" x2="-1.1976" y1="-4.4323" y2="7.0471" gradientUnits="userSpaceOnUse"><stop stop-color="#d5d2d4" offset="0"/><stop stop-color="#abaaab" offset=".07"/><stop stop-color="#a2a2a2" offset=".93"/><stop stop-color="#686868" offset="1"/></linearGradient><linearGradient id="x" x1="-.3304" x2=".97047" y1="4.398" y2="6.1641" gradientUnits="userSpaceOnUse"><stop stop-color="#5b5958" offset="0"/><stop stop-color="#847e7b" offset=".5"/><stop stop-color="#c0bfbe" offset="1"/></linearGradient><linearGradient id="u" x1="-.3304" x2="13.546" y1="-3.5492" y2="6.1641" gradientUnits="userSpaceOnUse"><stop stop-color="#74706d" offset="0"/><stop stop-color="#7e7a77" offset="1"/></linearGradient><linearGradient id="t" x1=".10322" x2="4.0058" y1="-3.1077" y2="5.7226" gradientUnits="userSpaceOnUse"><stop stop-color="#413f3f" offset="0"/><stop stop-color="#726c69" offset=".5"/><stop stop-color="#a7a5a4" offset="1"/></linearGradient><radialGradient id="i" cx="27.208" cy="57.856" r=".52917" gradientTransform="matrix(-1.4328e-5 3.0333 -2.9738 -1.5042e-5 189.53 -56.524)" gradientUnits="userSpaceOnUse"><stop stop-color="#fff" offset="0"/><stop stop-color="#f00" offset=".49806"/><stop stop-color="#a00" offset="1"/></radialGradient><linearGradient id="r" x1="14.331" x2="14.331" y1="20.386" y2="27.609" gradientUnits="userSpaceOnUse"><stop stop-color="#141414" offset="0"/><stop stop-color="#141414" stop-opacity="0" offset="1"/></linearGradient><linearGradient id="q" x1="28.494" x2="28.494" y1="20.386" y2="27.609" gradientUnits="userSpaceOnUse"><stop stop-color="#141414" offset="0"/><stop stop-color="#141414" stop-opacity="0" offset="1"/></linearGradient><radialGradient id="k" cx=".68139" cy="1.3876" r=".86725" gradientTransform="matrix(-2.1335 -2.1255 6.4005 -6.3765 15.308 39.511)" gradientUnits="userSpaceOnUse"><stop stop-color="#fff" offset=".10204"/><stop stop-color="#9ff" stop-opacity=".8" offset=".39796"/><stop stop-color="#3376ff" stop-opacity=".6" offset=".69558"/><stop stop-color="#4500cc" stop-opacity=".4" offset=".84779"/><stop stop-color="#206" stop-opacity=".2" offset="1"/></radialGradient><linearGradient id="z" x1="4.0058" x2="4.4395" y1="-.3511" y2=".42439" gradientTransform="matrix(4.267 0 0 4.175 16.745 25.599)" gradientUnits="userSpaceOnUse"><stop stop-color="#142900" offset="0"/><stop stop-color="#366d00" offset="1"/></linearGradient><linearGradient id="w" x1=".53685" x2="1.8377" y1="-2.2247" y2="-.90016" gradientTransform="matrix(4.267 0 0 4.175 16.745 25.599)" gradientUnits="userSpaceOnUse"><stop stop-color="#52a300" offset="0"/><stop stop-color="#366d00" offset="1"/></linearGradient><linearGradient id="s" x1="3.1386" x2="4.8731" y1="-2.6662" y2="-.90016" gradientTransform="matrix(4.267 0 0 4.175 16.745 25.599)" gradientUnits="userSpaceOnUse"><stop stop-color="#af5" offset="0"/><stop stop-color="#5a0" offset="1"/></linearGradient></defs><g transform="matrix(.14165 0 0 .14165 .49745 .66458)" style="mix-blend-mode:normal"><path d="m1.0641 23.326h31.927c0.42721 0 0.83943 0.5382 0.84019 0.93393l0.01426 7.4557c9.79e-4 0.52617-0.3811 0.94976-0.85445 0.94976h-31.927c-0.47335 0-0.84018-0.40777-0.84018-0.93394v-7.4715c0-0.39573 0.41297-0.93393 0.84018-0.93393z" fill="url(#v)"/><g transform="matrix(.85107 0 0 .85097 .24487 5.544)" stroke-width=".95394" style="mix-blend-mode:normal"><rect x="2.1701" y="23.092" width="2.1947" height="2.195" rx="6.1029e-18" ry="6.1039e-18" fill="url(#n)" style="mix-blend-mode:normal;paint-order:markers stroke fill"/></g><g transform="matrix(.76925 0 0 .76925 .61052 9.7543)" style="mix-blend-mode:normal"><path id="l" d="m2.5326 25.535v1.2141" fill="none" stroke="#000" stroke-linecap="round" stroke-linejoin="round" stroke-opacity=".53333" stroke-width="1.2141" style="paint-order:markers stroke fill"/><use id="c" transform="translate(2.4282)" xlink:href="#l"/><use id="b" transform="translate(2.4282)" xlink:href="#c"/><use transform="translate(2.4282)" xlink:href="#b"/></g><g transform="matrix(.79132 0 0 .77581 .090274 9.3789)"><rect x="14.331" y="20.386" width="25.965" height="7.2229" fill="url(#aa)" stroke-linecap="round" stroke-linejoin="round" stroke-opacity=".5" stroke-width=".15974" style="mix-blend-mode:normal;paint-order:markers stroke fill"/><g><rect x="14.331" y="20.386" width="11.802" height="7.2229" fill="url(#r)" style="paint-order:normal"/><rect transform="translate(1.379e-6)" x="28.494" y="20.386" width="11.802" height="7.2229" fill="url(#q)" style="mix-blend-mode:normal;paint-order:normal"/><ellipse cx="17.872" cy="26.405" rx="1.1802" ry="1.2038" fill="url(#i)" style="mix-blend-mode:normal;paint-order:stroke markers fill"/><rect x="30.855" y="25.201" width="2.3604" height="2.4076" ry="0" fill="#c00" style="mix-blend-mode:normal;paint-order:stroke markers fill"/></g></g></g><g transform="matrix(.30508 0 0 .29963 .89455 1.8572)"><g><rect x="-1.1976" y="-4.4323" width="15.61" height="11.479" rx=".86725" fill="url(#y)" stroke-linecap="round" stroke-miterlimit="3.3" stroke-width=".43755" style="paint-order:stroke fill markers"/><rect x="-.3304" y="-3.5492" width="13.876" height="9.7133" rx=".43362" fill="url(#u)" stroke="url(#x)" stroke-linecap="round" stroke-miterlimit="3.3" stroke-width=".43755" style="paint-order:stroke fill markers"/><rect x=".10322" y="-3.1077" width="10.841" height="8.8303" ry=".88303"/></g><path transform="matrix(.26783 0 0 .27374 -2.7031 -4.7345)" d="m20.886 27.371c0 1.8433 1.8503 3.6866 3.7006 3.6866-1.8503 3.6866-5.5508 3.6866-9.2514 5.53 1.8503-3.6866 1.8503-7.3733 5.5508-9.2166z" fill="url(#k)" stroke-linecap="round" stroke-linejoin="round" stroke-miterlimit="3.3" stroke-width="1.8468" style="mix-blend-mode:normal"/><g stroke-linecap="round" stroke-linejoin="round" stroke-miterlimit="3.3" stroke-width="1.8468"><path transform="matrix(.26783 0 0 .27374 -2.7031 -4.7345)" d="m27.812 24.134c2.7834 2.765 4.175 6.9164 4.175 12.454 3.7006-3.6866 5.5508-14.747 1.8503-18.433z" fill="url(#z)" style="mix-blend-mode:normal"/><path transform="matrix(.26783 0 0 .27374 -2.7031 -4.7345)" d="m15.335 19.998c5.5429 0 9.7021 1.3785 12.477 4.1356l6.0253-5.9789c-3.7006-3.6866-14.802-1.8433-18.503 1.8433z" fill="url(#w)" style="mix-blend-mode:normal"/><path transform="matrix(.26783 0 0 .27374 -2.7031 -4.7345)" d="m41.239 10.781c0 11.06-9.2514 16.59-16.653 20.277-1.8503 0-3.7006-1.8433-3.7006-3.6866 3.7006-7.3733 9.2514-16.59 20.353-16.59z" fill="url(#s)" style="mix-blend-mode:normal"/></g><rect x=".10322" y="-3.1077" width="10.841" height="8.8303" ry=".88303" fill="url(#g)"/><rect x=".10322" y="-3.1077" width="10.841" height="8.8303" rx=".86725" fill="none" stroke="url(#t)" stroke-linecap="round" stroke-linejoin="round" stroke-miterlimit="3.3" stroke-width=".21878" style="paint-order:normal"/><g transform="matrix(.26783 0 0 .27374 -2.7031 -4.7345)" stroke-width="1.2" style="mix-blend-mode:normal"><rect x="54.191" y="7.5556" width="3.238" height="3.2258" rx="7.1823e-18" ry="6.0515e-18" fill="url(#m)" style="mix-blend-mode:normal;paint-order:markers stroke fill"/></g><ellipse cx="12.028" cy="-.23789" rx=".65043" ry=".66227" fill="url(#h)" style="mix-blend-mode:normal;paint-order:stroke markers fill"/><ellipse cx="12.028" cy="-.23789" rx=".21681" ry=".22076" fill="url(#j)" style="mix-blend-mode:normal;paint-order:stroke markers fill"/><g id="ab" transform="matrix(.30705 0 0 .31382 -4.3559 -2.4936)"><path d="m56.889 21.96v4.2207h-4.2366v-2.1103l2.1183-2.1103z" fill="url(#f)" stroke-miterlimit="3.6" stroke-width=".26458" style="paint-order:stroke fill markers"/><ellipse cx="54.064" cy="23.367" rx="1.2791" ry="1.2738" fill="url(#e)" stroke="url(#p)" stroke-miterlimit="3.6" stroke-width=".26622" style="paint-order:stroke fill markers"/><ellipse cx="54.339" cy="23.642" rx=".92448" ry=".9205" fill="#847c6a" stroke="url(#o)" stroke-miterlimit="3.6" stroke-width=".26936" style="paint-order:stroke markers fill"/></g><use id="d" transform="translate(2.0913e-8 -1.7661)" xlink:href="#ab"/><use transform="translate(0 -1.7661)" xlink:href="#d"/></g></svg>
