<?xml version="1.0" encoding="UTF-8"?>
<svg width="256" height="256" version="1.1" viewBox="0 0 67.733 67.733" xmlns="http://www.w3.org/2000/svg" xmlns:xlink="http://www.w3.org/1999/xlink"><defs><marker id="au" overflow="visible" markerHeight="0.5" markerWidth="0.5" orient="auto-start-reverse" preserveAspectRatio="xMidYMid" viewBox="0 0 1 1"><path transform="scale(.7)" d="m-0.21115-4.1056 6.4223 3.2111a1 1 90 0 1 0 1.7889l-6.4223 3.2111a1.2361 1.2361 31.717 0 1-1.7889-1.1056v-6a1.2361 1.2361 148.28 0 1 1.7889-1.1056z" fill="context-stroke" fill-rule="evenodd"/></marker><linearGradient id="al"><stop stop-color="#292929" offset="0"/><stop stop-color="#3d3d3d" offset="1"/></linearGradient><linearGradient id="e"><stop stop-color="#c2cada" offset="0"/><stop stop-color="#9ea09f" offset="1"/></linearGradient><linearGradient id="ap" x1="2.6458" x2="2.6458" y1="49.477" y2="65.088" gradientUnits="userSpaceOnUse"><stop stop-color="#cfccc3" offset="0"/><stop stop-color="#aba8a5" offset="1"/></linearGradient><linearGradient id="aa" x1="3.1871" x2="3.175" y1="42.598" y2="49.237" gradientUnits="userSpaceOnUse"><stop stop-color="#9f9fa2" offset="0"/><stop stop-color="#b5b3b1" offset="1"/></linearGradient><linearGradient id="x" x1="5.6885" x2="9.1281" y1="53.314" y2="56.753" gradientUnits="userSpaceOnUse" xlink:href="#e"/><linearGradient id="ai" x1="23.019" x2="23.019" y1="51.329" y2="63.235" gradientUnits="userSpaceOnUse"><stop stop-color="#bbb7aa" offset="0"/><stop stop-color="#c6c2b9" offset=".81589"/><stop stop-color="#d0ccc8" offset="1"/></linearGradient><linearGradient id="at" x1="23.019" x2="23.019" y1="51.329" y2="61.383" gradientUnits="userSpaceOnUse"><stop stop-color="#1c1c21" offset="0"/><stop stop-color="#2f2e38" offset="1"/></linearGradient><radialGradient id="v" cx="22.49" cy="56.621" r=".66146" gradientTransform="matrix(-3.2 -5.4991e-5 .00031617 -18 94.438 1070.5)" gradientUnits="userSpaceOnUse"><stop stop-opacity=".66" offset="0"/><stop stop-opacity="0" offset="1"/></radialGradient><radialGradient id="t" cx="62.177" cy="56.621" r=".66146" gradientTransform="matrix(-3.2 -2.079e-5 .0001173 -18 261.14 1070.5)" gradientUnits="userSpaceOnUse"><stop stop-opacity=".33" offset="0"/><stop stop-opacity="0" offset="1"/></radialGradient><linearGradient id="f" x1="42.598" x2="42.598" y1="51.329" y2="61.383" gradientUnits="userSpaceOnUse" xlink:href="#al"/><linearGradient id="af" x1="24.077" x2="24.077" y1="51.858" y2="59.002" gradientTransform="translate(.26458 .52917)" gradientUnits="userSpaceOnUse"><stop offset="0"/><stop offset=".75"/><stop stop-color="#929297" offset="1"/></linearGradient><linearGradient id="ae" x1="30.162" x2="30.692" y1="57.679" y2="57.944" gradientTransform="translate(.26458 .52917)" gradientUnits="userSpaceOnUse"><stop stop-opacity=".75" offset="0"/><stop stop-opacity="0" offset="1"/></linearGradient><linearGradient id="ad" x1="30.559" x2="30.559" y1="52.52" y2="56.621" gradientTransform="matrix(1 0 0 1.0645 0 -3.3884)" gradientUnits="userSpaceOnUse"><stop stop-color="#292929" offset="0"/><stop stop-color="#2b2b2b" offset=".56395"/><stop offset=".64147"/><stop stop-color="#303030" offset=".64922"/><stop stop-color="#333" offset="1"/></linearGradient><linearGradient id="ac" x1="29.104" x2="29.104" y1="55.695" y2="56.224" gradientUnits="userSpaceOnUse"><stop stop-color="#808080" offset="0"/><stop offset="1"/></linearGradient><linearGradient id="ab" x1="29.104" x2="29.104" y1="55.695" y2="56.224" gradientTransform="translate(6.8792)" gradientUnits="userSpaceOnUse"><stop stop-color="#808080" offset="0"/><stop offset="1"/></linearGradient><radialGradient id="q" cx="27.208" cy="57.856" r=".52917" gradientTransform="matrix(-4.8183e-6 1 -1 -4.9589e-6 85.24 31.398)" gradientUnits="userSpaceOnUse"><stop stop-color="#fff" offset="0"/><stop stop-color="#f00" offset=".49806"/><stop stop-color="#a00" offset="1"/></radialGradient><radialGradient id="p" cx="27.519" cy="58.156" r=".32372" gradientTransform="matrix(-1.2257 -.0089023 .0090295 -1.2432 60.725 131.29)" gradientUnits="userSpaceOnUse"><stop stop-color="#fff" stop-opacity=".15079" offset="0"/><stop stop-color="#fff" stop-opacity=".30423" offset="1"/></radialGradient><linearGradient id="ar" x1="23.019" x2="23.019" y1="51.329" y2="52.123" gradientTransform="matrix(1 0 0 .66667 0 17.11)" gradientUnits="userSpaceOnUse"><stop stop-opacity=".75" offset="0"/><stop stop-opacity="0" offset="1"/></linearGradient><linearGradient id="ao" x1="7.9375" x2="7.9326" y1="2.6458" y2="39.555" gradientUnits="userSpaceOnUse"><stop stop-color="#d5d2d4" offset="0"/><stop stop-color="#abaaab" offset=".07"/><stop stop-color="#a2a2a2" offset=".93"/><stop stop-color="#686868" offset="1"/></linearGradient><linearGradient id="am" x1="7.9332" x2="59.801" y1="21.101" y2="21.101" gradientUnits="userSpaceOnUse"><stop stop-color="#fff" stop-opacity=".25" offset="0"/><stop stop-color="#fff" stop-opacity="0" offset=".03"/><stop stop-opacity="0" offset=".97"/><stop stop-opacity=".25" offset="1"/></linearGradient><linearGradient id="an" x1="11.159" x2="12.747" y1="33.478" y2="35.983" gradientUnits="userSpaceOnUse"><stop stop-color="#5b5958" offset="0"/><stop stop-color="#847e7b" offset=".5"/><stop stop-color="#c0bfbe" offset="1"/></linearGradient><linearGradient id="ak" x1="13.229" x2="25.4" y1="6.8792" y2="33.867" gradientUnits="userSpaceOnUse"><stop stop-color="#413f3f" offset="0"/><stop stop-color="#726c69" offset=".5"/><stop stop-color="#a7a5a4" offset="1"/></linearGradient><linearGradient id="aj" x1="50.535" x2="51.065" y1="20.307" y2="20.307" gradientUnits="userSpaceOnUse"><stop stop-color="#696663" stop-opacity="0" offset="0"/><stop stop-color="#696663" offset=".75"/><stop stop-color="#ceccca" stop-opacity="0" offset="1"/></linearGradient><linearGradient id="w" x1="51.991" x2="55.166" y1="9.3927" y2="12.568" gradientTransform="matrix(1.2 0 0 1.2 -7.3554 -2.4871)" gradientUnits="userSpaceOnUse" xlink:href="#e"/><radialGradient id="r" cx="27.208" cy="57.856" r=".52917" gradientTransform="matrix(-4.8183e-6 1 -1 -4.9589e-6 111.17 -6.7025)" gradientUnits="userSpaceOnUse"><stop stop-color="#ffb" offset="0"/><stop stop-color="#af0" offset=".49806"/><stop stop-color="#0f0" offset="1"/></radialGradient><radialGradient id="o" cx="53.975" cy="20.637" r=".79375" gradientTransform="matrix(1.6667 5.8553e-6 -2.8875e-6 1.6667 -36.513 -13.759)" gradientUnits="userSpaceOnUse"><stop stop-color="#0f0" stop-opacity=".2" offset=".3"/><stop stop-color="#0f0" stop-opacity="0" offset="1"/></radialGradient><radialGradient id="n" cx="52.759" cy="-23.573" r=".52917" gradientTransform="matrix(1.7678 1.38e-5 -8.277e-6 1.0607 -40.881 1.8035)" gradientUnits="userSpaceOnUse"><stop stop-opacity=".5" offset="0"/><stop stop-opacity="0" offset="1"/></radialGradient><radialGradient id="l" cx="53.975" cy="23.343" r="1.6065" gradientTransform="matrix(1.0705 1.0705 -.57643 .57643 9.6496 -47.953)" gradientUnits="userSpaceOnUse"><stop stop-opacity=".5" offset="0"/><stop stop-opacity="0" offset="1"/></radialGradient><radialGradient id="k" cx="54.548" cy="23.063" r="1.3229" gradientTransform="matrix(-.5 .6 -.9838 -.81984 103.14 8.6686)" gradientUnits="userSpaceOnUse"><stop stop-color="#d6cbae" offset="0"/><stop stop-color="#9d9786" offset="1"/></radialGradient><linearGradient id="z" x1="52.652" x2="55.298" y1="21.96" y2="24.606" gradientUnits="userSpaceOnUse"><stop stop-color="#bab28d" offset="0"/><stop stop-color="#b8b389" stop-opacity="0" offset=".49832"/></linearGradient><linearGradient id="y" x1="53.446" x2="55.033" y1="22.754" y2="24.342" gradientUnits="userSpaceOnUse"><stop stop-color="#9d9786" offset="0"/><stop stop-color="#77705f" offset="1"/></linearGradient><radialGradient id="j" cx="33.351" cy="13.565" r="25.792" gradientTransform="matrix(-1.0053 0 3.8958e-5 -.18465 67.924 39.547)" gradientUnits="userSpaceOnUse"><stop offset=".24916"/><stop stop-opacity="0" offset="1"/></radialGradient><linearGradient id="ag" x1="11.774" x2="55.959" y1="6.2177" y2="35.057" gradientUnits="userSpaceOnUse"><stop stop-color="#74706d" offset="0"/><stop stop-color="#7e7a77" offset="1"/></linearGradient><radialGradient id="m" cx="19.05" cy="10.065" r="17.595" gradientTransform="matrix(1.1729 -.45113 .18449 .47967 -5.1512 16.466)" gradientUnits="userSpaceOnUse"><stop stop-color="#fff" stop-opacity=".2" offset="0"/><stop stop-color="#fff" stop-opacity="0" offset="1"/></radialGradient><radialGradient id="s" cx=".68139" cy="1.3876" r=".86725" gradientTransform="matrix(-1.7433 -1.7434 5.23 -5.23 20.881 33.354)" gradientUnits="userSpaceOnUse"><stop stop-color="#fff" offset=".10204"/><stop stop-color="#9ff" stop-opacity=".8" offset=".39796"/><stop stop-color="#3376ff" stop-opacity=".6" offset=".69558"/><stop stop-color="#4500cc" stop-opacity=".4" offset=".84779"/><stop stop-color="#206" stop-opacity=".2" offset="1"/></radialGradient><linearGradient id="as" x1="4.0058" x2="4.4395" y1="-.3511" y2=".42439" gradientTransform="matrix(3.4867 0 0 3.4244 22.054 21.944)" gradientUnits="userSpaceOnUse"><stop stop-color="#142900" offset="0"/><stop stop-color="#366d00" offset="1"/></linearGradient><linearGradient id="aq" x1=".53685" x2="1.8377" y1="-2.2247" y2="-.90016" gradientTransform="matrix(3.4867 0 0 3.4244 22.054 21.944)" gradientUnits="userSpaceOnUse"><stop stop-color="#52a300" offset="0"/><stop stop-color="#366d00" offset="1"/></linearGradient><linearGradient id="ah" x1="3.1386" x2="4.8731" y1="-2.6662" y2="-.90016" gradientTransform="matrix(3.4867 0 0 3.4244 22.054 21.944)" gradientUnits="userSpaceOnUse"><stop stop-color="#af5" offset="0"/><stop stop-color="#5a0" offset="1"/></linearGradient><radialGradient id="u" cx="6.6773" cy="-.52326" r=".55751" gradientTransform="matrix(1.4315e-7 4.7458 -4.7458 6.017e-7 32.971 -16.166)" gradientUnits="userSpaceOnUse"><stop stop-color="#fff" offset="0"/><stop stop-color="#9accff" offset=".098639"/><stop stop-color="#0080ff" offset=".7466"/><stop stop-color="#001a33" offset="1"/></radialGradient></defs><g transform="translate(0 -3.175)" style="mix-blend-mode:normal"><path d="m3.1871 49.225 6.0975-6.0975c0.52917-0.52917 0.76954-0.52917 1.5633-0.52917h46.037c0.79375 0 1.0341 0 1.5633 0.52917l6.0975 6.0975z" fill="url(#aa)" style="mix-blend-mode:normal"/><path d="m4.4979 48.683h58.737c1.0261 0 1.8521 0.82603 1.8521 1.8521v0.26458h-62.442l2e-7 -0.26458c6e-7 -1.0261 0.82603-1.8521 1.8521-1.8521z" fill="#edf1ea" stroke-linecap="round" stroke-linejoin="round" stroke-width=".26458" style="mix-blend-mode:normal"/><path d="m4.2333 49.477h59.267c0.79375 0 1.5875 0.66146 1.5875 1.3229v12.7c0 0.87948-0.70802 1.5875-1.5875 1.5875h-59.267c-0.87948 0-1.5875-0.70802-1.5875-1.5875v-12.7c0-0.66146 0.79375-1.3229 1.5875-1.3229z" fill="url(#ap)"/><g style="mix-blend-mode:normal"><g stroke-linecap="round" stroke-linejoin="round" stroke-opacity=".5" stroke-width=".26458"><rect x="5.8208" y="53.446" width="3.175" height="3.175" rx="7.3437e-18" fill="url(#x)" stroke="#000" style="mix-blend-mode:normal;paint-order:markers stroke fill"/><path id="c" d="m6.936 53.785h-0.37074v-0.07495h0.37074zm0 0.14541h-0.37074v-0.07495h0.37074zm-0.13143 0.13342h-0.23931v-0.06446h0.23931zm-0.3633-0.27883h-0.35586v-0.07495h0.35586zm0.3633 0.41224h-0.60013v-0.06596h0.60013zm-0.3633-0.26683h-0.35586v-0.07495h0.35586zm0.3633 0.54566h-0.23931v-0.08395h0.23931zm-0.3633-0.41224h-0.23683v-0.06446h0.23683zm0.49474 0.55915h-0.37074v-0.07495h0.37074zm-0.13143-0.29682h-0.60013v-0.06895h0.60013zm0.13143 0.44222h-0.37074v-0.07346h0.37074zm-0.49474-0.29232h-0.23683v-0.08395h0.23683zm0 0.14691h-0.35586v-0.07495h0.35586zm0 0.14541h-0.35586v-0.07346h0.35586zm1.2467-0.98338h-0.40174l0.00992-0.07495h0.38066zm0.042159 0.28332h-0.21823l-0.00992-0.06895h0.21699zm-0.02108-0.13791h-0.21699l-0.0062-0.04648-0.0062 0.04648h-0.21451l0.00992-0.07495h0.42282zm0.040918 0.27433h-0.21823l-0.00992-0.06895h0.21699zm-0.28023-0.20537-0.011159 0.06895h-0.21327l0.00992-0.06895zm0.45134 0.62361h-0.34842l-0.00868-0.07495h0.35711zm-0.15127-0.28182h-0.56417l0.00992-0.06746h0.54433zm-0.3199-0.20537-0.011159 0.06895h-0.21327l0.00992-0.06895zm0.47118 0.6326h-0.33106l-0.00868-0.07346h0.33974zm-0.13143-0.29232h-0.60261l0.00992-0.06895h0.58277zm-0.3819 0.07196-0.00868 0.07495h-0.34966v-0.07495zm-0.01736 0.14691-0.00868 0.07346h-0.3323v-0.07346zm1.1289-0.90993h-0.47366v-0.07495h0.47366zm0 0.14541h-0.47366v-0.07495h0.47366zm0.21203 0.54566h-0.22319v-0.08395h0.22319zm-0.32982-0.41224h-0.23807v-0.06446h0.23807zm0 0.13342h-0.23807v-0.06596h0.23807zm0 0.12892h-0.23807v-0.06895h0.23807zm0 0.1499h-0.23807v-0.08395h0.23807zm0.32982 0.14691h-0.68569v-0.07495h0.68569zm0 0.14541h-0.68569v-0.07346h0.68569z" stroke-linecap="round" stroke-linejoin="round" stroke-opacity=".5" stroke-width=".26458" style="mix-blend-mode:normal;paint-order:markers stroke fill" aria-label="HAL"/><path d="m6.3964 56.141q0.00754 0.0052 0.00754 0.01851 0 0.02666-0.031824 0.0476-0.031823 0.02066-0.087656 0.02066-0.074534 0-0.11641-0.0389-0.041594-0.03888-0.041594-0.11015 0-0.10553 0.067556-0.18249 0.067556-0.07724 0.16805-0.07724 0.049969 0 0.077884 0.01687 0.027915 0.0166 0.027915 0.04515 0 0.01986-0.015353 0.03154-0.015353 0.01175-0.040758 0.01175 0-0.07559-0.056948-0.07559-0.070626 0-0.11836 0.07506-0.047457 0.07479-0.047457 0.16373 0 0.10416 0.10161 0.10416 0.066159 0 0.1058-0.05059zm0.25375-0.22274q0.050527 0 0.079559 0.02964 0.029033 0.02964 0.029033 0.08567 0 0.07424-0.04662 0.13436-0.046619 0.05983-0.12255 0.05983-0.051644 0-0.080675-0.03047-0.029033-0.03046-0.029033-0.08458 0-0.07506 0.046898-0.13462 0.047176-0.05983 0.12339-0.05983zm-0.054156 0.28231q0.047176 0 0.075093-0.05439 0.028194-0.05466 0.028194-0.12104 0-0.0775-0.055832-0.0775-0.04662 0-0.075372 0.05466t-0.028752 0.12157q0 0.0767 0.056669 0.0767zm0.44441 0.02175h-0.054436q0-0.0125 0.00726-0.05766 0.00726-0.04541 0.012284-0.06771l0.013128-0.05766q0.00837-0.03372 0.00837-0.05196 0-0.03291-0.02624-0.03291-0.031824 0-0.0656 0.04243-0.033498 0.04215-0.042431 0.08294l-0.030708 0.14251h-0.053319l0.048014-0.22383q0.00335-0.01549 0.00335-0.02502 0-0.02638-0.039919-0.02638h-0.00447l0.00502-0.02339h0.1058l-0.015353 0.07017h0.00559q0.046339-0.07506 0.10412-0.07506 0.061135 0 0.061135 0.06172 0 0.0068-0.00112 0.01332h0.00559q0.04662-0.07506 0.10412-0.07506 0.061135 0 0.061135 0.06173 0 0.01768-0.010319 0.0612l-0.014796 0.06582q-0.00726 0.03236-0.00726 0.05847 0 0.02665 0.01982 0.02665 0.016471 0 0.03657-0.01278l0.010319 0.01631q-0.03629 0.03155-0.069788 0.03155-0.023448 0-0.037685-0.01496t-0.014237-0.04053 0.010887-0.07535l0.00978-0.04352q0.011993-0.05358 0.011993-0.06609 0-0.03291-0.026521-0.03291-0.029311 0-0.060576 0.03671-0.031265 0.03644-0.043827 0.07642l-0.00921 0.03998q-0.00362 0.01522-0.010043 0.05956-0.00642 0.04432-0.00642 0.05521zm0.36402 0.11043-0.00502 0.02339h-0.10748l0.075931-0.35329q0.00502-0.02339 0.00502-0.02936 0-0.02638-0.039919-0.02638h-0.00447l0.00502-0.02339h0.10134l-0.013681 0.07424h0.00278q0.041315-0.07969 0.10468-0.07969 0.034895 0 0.053597 0.02583 0.018983 0.02584 0.018983 0.07479 0 0.07479-0.048014 0.14197-0.047735 0.06689-0.12255 0.06689-0.032661 0-0.055831-0.01278-0.00252 0.01796-0.00474 0.02692l-0.00782 0.034q-0.0053 0.02313-0.0053 0.031 0 0.02583 0.039919 0.02583zm-0.020658-0.14986q0.018424 0.01986 0.045223 0.01986 0.047735 0 0.080675-0.06066 0.03322-0.06092 0.03322-0.12374 0-0.065-0.036012-0.065-0.02959 0-0.059738 0.04025-0.030149 0.03998-0.039919 0.08322zm0.27971-0.25919h0.10636l-0.037687 0.16672q-0.011454 0.05059-0.011454 0.06717 0 0.034 0.027915 0.034 0.029311 0 0.063088-0.04106 0.034057-0.04135 0.044386-0.08813l0.02987-0.1387h0.055273l-0.03936 0.17896q-0.00865 0.03944-0.00865 0.06172 0 0.02829 0.018983 0.02829 0.01619 0 0.03657-0.01225l0.010319 0.01631q-0.03629 0.031-0.07258 0.031-0.021495 0-0.034895-0.01496-0.013128-0.01496-0.013128-0.03781 0-0.01441 0.00278-0.03289h-0.00447q-0.030986 0.04977-0.055552 0.06745-0.024287 0.01768-0.054993 0.01768-0.061135 0-0.061135-0.06173 0-0.01768 0.010319-0.06119l0.022333-0.09763q0.00502-0.02204 0.00502-0.03318 0-0.02638-0.039919-0.02638h-0.00447zm0.4768 0.25674 0.00978 0.02066q-0.038524 0.02665-0.077047 0.02665-0.062251 0-0.062251-0.065 0-0.02093 0.00559-0.04678l0.034895-0.16046h-0.043548l0.0053-0.0223q0.055831 0 0.087375-0.07806h0.02624l-0.014796 0.06854h0.06923l-0.00697 0.03183h-0.06923l-0.034614 0.15883q-0.00697 0.03209-0.00697 0.04787 0 0.03046 0.030427 0.03046 0.02317 0 0.046619-0.01225zm0.26771-0.02773q0.00587 0.0036 0.00587 0.01387 0 0.02228-0.027078 0.04189-0.026799 0.01931-0.072022 0.01931-0.049969 0-0.080675-0.03074-0.030708-0.03074-0.030708-0.08431 0-0.07289 0.048294-0.13354 0.048294-0.06092 0.12199-0.06092 0.03629 0 0.056109 0.01687 0.020099 0.01687 0.020099 0.04705 0 0.04515-0.048294 0.0786-0.048014 0.03345-0.11752 0.03345h-0.00978q-0.00502 0-0.010319-5.43e-4 -0.00112 0.0076-0.00112 0.02339 0 0.07559 0.06281 0.07559 0.048851 0 0.082351-0.03997zm-0.13874-0.08458h0.00559q0.050526 0 0.083188-0.02395 0.032939-0.02393 0.032939-0.06201 0-0.03726-0.03322-0.03726-0.027635 0-0.051644 0.034-0.024007 0.03372-0.036848 0.08921zm0.41454-0.06908q0-0.04405-0.022891-0.04405-0.026521 0-0.056389 0.05086-0.02959 0.05086-0.043827 0.11504l-0.021495 0.10145h-0.053318l0.048014-0.22383q0.00335-0.01549 0.00335-0.02501 0-0.02638-0.045502-0.02638h-0.00474l0.0053-0.02339h0.10105l-0.011993 0.08023h0.00587q0.022889-0.04977 0.045223-0.06771 0.022333-0.01795 0.051922-0.01795 0.046898 0 0.046898 0.03835 0 0.04241-0.047457 0.04241zm-2.5984-0.27802 0.00502-0.02339h0.00754q0.026799 0 0.038802-0.01011 0.011993-0.01011 0.01619-0.02992l0.05946-0.27306q0.00224-0.01035 0.00224-0.01549 0-0.02229-0.041314-0.02229h-0.00726l0.00502-0.02339h0.14656q0.061972 0 0.09603 0.02801 0.034057 0.02801 0.034057 0.07941 0 0.06337-0.043827 0.09954-0.043548 0.03591-0.13092 0.03591h-0.04243l-0.020377 0.09356q-0.00252 0.01149-0.00252 0.01549 0 0.0223 0.041315 0.0223h0.018702l-0.00502 0.02339zm0.15102-0.18113h0.030149q0.12059 0 0.12059-0.10852 0-0.08132-0.083468-0.08132h-0.02624zm0.44414 0.1115q0.00587 0.0036 0.00587 0.01387 0 0.02229-0.027077 0.04188-0.026799 0.01931-0.072022 0.01931-0.049969 0-0.080675-0.03074-0.030708-0.03074-0.030708-0.08429 0-0.07289 0.048294-0.13354 0.048294-0.06092 0.12199-0.06092 0.036289 0 0.056109 0.01687 0.020099 0.01686 0.020099 0.04705 0 0.04514-0.048294 0.0786-0.048014 0.03345-0.11752 0.03345h-0.00978q-0.00502 0-0.01032-5.44e-4 -0.00112 0.0076-0.00112 0.02339 0 0.07559 0.06281 0.07559 0.048851 0 0.082351-0.03997zm-0.13874-0.08458h0.00559q0.050527 0 0.083188-0.02395 0.032939-0.02395 0.032939-0.06201 0-0.03726-0.03322-0.03726-0.027637 0-0.051644 0.034-0.024007 0.03372-0.036848 0.08921zm0.41454-0.06908q0-0.04406-0.022891-0.04406-0.026521 0-0.056389 0.05086-0.02959 0.05085-0.043827 0.11504l-0.021495 0.10145h-0.053319l0.048014-0.22383q0.00335-0.01549 0.00335-0.02502 0-0.02638-0.045501-0.02638h-0.00474l0.0053-0.02339h0.10105l-0.011993 0.08023h0.00587q0.022891-0.04977 0.045223-0.06773 0.022333-0.01795 0.051922-0.01795 0.046898 0 0.046898 0.03834 0 0.04243-0.047457 0.04243zm0.25124 7e-3q0-0.02801-0.013681-0.04488-0.013404-0.01687-0.037685-0.01687-0.025682 0-0.040758 0.01358-0.014796 0.01334-0.014796 0.03427 0 0.01851 0.014237 0.03155 0.014237 0.01305 0.044107 0.02583 0.068673 0.02992 0.068673 0.08648 0 0.04106-0.032383 0.06636-0.032382 0.0253-0.08598 0.0253-0.04327 0-0.068951-0.01687-0.025403-0.01713-0.025403-0.04596 0-0.01796 0.010043-0.02721 0.010319-0.0095 0.025962-0.0095 0 0.03454 0.017028 0.05385 0.017308 0.01904 0.048294 0.01904 0.061694 0 0.061694-0.05168 0-0.01986-0.013128-0.03345-0.013128-0.01387-0.044664-0.02801-0.041036-0.01903-0.055273-0.03917-0.013959-0.02041-0.013959-0.04705 0-0.03644 0.030427-0.05956 0.030708-0.02339 0.079837-0.02339 0.042152 0 0.0656 0.01523 0.023728 0.01525 0.023728 0.03753 0 0.03456-0.042989 0.03456zm0.25319-0.08784q0.050526 0 0.079559 0.02964t0.029033 0.08567q0 0.07424-0.046619 0.13435-0.04662 0.05983-0.12255 0.05983-0.051644 0-0.080675-0.03046-0.029033-0.03047-0.029033-0.08458 0-0.07506 0.046898-0.13463 0.047176-0.05983 0.12339-0.05983zm-0.054156 0.28234q0.047176 0 0.075092-0.05439 0.028196-0.05466 0.028196-0.12104 0-0.0775-0.055831-0.0775-0.046619 0-0.075372 0.05466-0.028752 0.05466-0.028752 0.12158 0 0.0767 0.056668 0.0767zm0.26603 0.02175h-0.053319l0.048014-0.22383q0.00335-0.01549 0.00335-0.02501 0-0.02639-0.039919-0.02639h-0.00447l0.00502-0.02339h0.1058l-0.015353 0.07018h0.00559q0.046339-0.07506 0.10412-0.07506 0.061135 0 0.061135 0.06173 0 0.01768-0.010319 0.0612l-0.014796 0.06582q-0.00754 0.03345-0.00754 0.05848 0 0.02665 0.020099 0.02665 0.016471 0 0.03657-0.01278l0.010319 0.01631q-0.037407 0.03154-0.069788 0.03154-0.023728 0-0.037965-0.01496-0.013958-0.01496-0.013958-0.04053t0.010886-0.07535l0.013128-0.05766q0.00837-0.03372 0.00837-0.05196 0-0.03289-0.02624-0.03289-0.031824 0-0.065322 0.04189-0.03322 0.04188-0.042711 0.0835zm0.47289-0.08405h-0.00362q-0.041036 0.08949-0.10692 0.08949-0.034895 0-0.054436-0.02666-0.019261-0.02692-0.019261-0.07506 0-0.0767 0.048851-0.14224 0.049132-0.06554 0.12143-0.06554 0.038801 0 0.066997 0.02013l0.025123-0.01414h0.018424l-0.039081 0.1784q-0.00837 0.03835-0.00837 0.06173 0 0.02829 0.018702 0.02829 0.01619 0 0.041315-0.01441l0.010319 0.01631q-0.041036 0.03318-0.080675 0.03318-0.044664 0-0.044664-0.04623 0-0.01768 0.00587-0.04324zm0.032383-0.17488q-0.013128-0.02013-0.04327-0.02013-0.048851 0-0.082071 0.06066-0.032939 0.06038-0.032939 0.12429 0 0.06445 0.036011 0.06445 0.028474 0 0.059739-0.04106 0.031265-0.04107 0.041315-0.08975zm0.14767-0.14088 0.00502-0.02339h0.10803l-0.066158 0.30352q-0.00865 0.03972-0.00865 0.06173 0 0.02829 0.018983 0.02829 0.016471 0 0.041036-0.01441l0.010319 0.01631q-0.03964 0.03318-0.077325 0.03318-0.020658 0-0.034057-0.01469-0.013127-0.01469-0.013127-0.03809 0-0.02639 0.01256-0.08758l0.046619-0.21377q0.00362-0.0166 0.00362-0.02502 0-0.0261-0.040199-0.0261z" style="mix-blend-mode:normal;paint-order:markers stroke fill"/></g><path id="a" d="m5.2917 58.208v3.9687" fill="none" stroke="#000" stroke-linecap="round" stroke-linejoin="round" stroke-width=".39688" style="paint-order:markers stroke fill"/><use transform="translate(1.0583 .0068676)" xlink:href="#a"/><use id="i" transform="translate(2.1167)" xlink:href="#a"/><use transform="translate(1.0583)" xlink:href="#i"/><use transform="translate(4.2333)" xlink:href="#a"/><use transform="translate(5.2917)" xlink:href="#a"/><use transform="translate(6.35)" xlink:href="#a"/><use transform="translate(7.4083)" xlink:href="#a"/><use transform="translate(8.4667)" xlink:href="#a"/><use transform="translate(9.525)" xlink:href="#a"/><use transform="translate(10.583)" xlink:href="#a"/><use transform="translate(11.642)" xlink:href="#a"/><use transform="translate(12.7)" xlink:href="#a"/><use transform="translate(13.758)" xlink:href="#a"/><use transform="translate(14.817)" xlink:href="#a"/></g><rect x="23.019" y="51.329" width="38.629" height="10.054" fill="url(#at)" stroke-linecap="round" stroke-linejoin="round" stroke-opacity=".5" stroke-width=".26458" style="mix-blend-mode:normal;paint-order:markers stroke fill"/><g style="mix-blend-mode:normal"><rect x="23.548" y="51.329" width="18.521" height="10.054" fill="url(#f)" fill-opacity=".50216" style="mix-blend-mode:normal;paint-order:markers stroke fill"/><path d="m24.342 55.695 6.0854 1e-6v-3.3073h4.7625v3.3073l6.0854-1e-6v0.52917l-6.0854 1e-6v3.3073h-4.7625v-3.3073l-6.0854-1e-6z" fill="url(#af)" stroke-linecap="round" stroke-opacity=".75" stroke-width=".52917" style="mix-blend-mode:normal;paint-order:stroke markers fill"/><rect x="29.104" y="55.695" width=".52917" height=".52917" fill="url(#ac)" style="mix-blend-mode:normal;paint-order:stroke markers fill"/><rect x="35.983" y="55.695" width=".52917" height=".52917" fill="url(#ab)" style="mix-blend-mode:normal;paint-order:stroke markers fill"/><g stroke-linecap="round" stroke-opacity=".75"><path d="m24.342 56.224-0.26458 0.39688h6.35v-0.39688zm10.848 0v0.39688h6.35l-0.26458-0.39688z" fill="#fff" fill-opacity=".5" stroke-width=".52917" style="mix-blend-mode:normal;paint-order:stroke markers fill"/><path d="m24.077 55.298 0.26458 0.39688h6.0854v-0.39688zm11.112 0v0.39688h6.0854l0.26458-0.39688z" fill-opacity=".5" stroke-width=".52917" style="mix-blend-mode:normal;paint-order:stroke markers fill"/><path d="m30.427 59.531 1.0583-2.1167h-1.0583z" fill="url(#ae)" stroke-width=".52917" style="paint-order:stroke markers fill"/></g><rect x="30.559" y="52.52" width="4.4979" height="4.3656" fill="url(#ad)" style="mix-blend-mode:normal;paint-order:stroke markers fill"/><circle cx="27.517" cy="58.737" r=".39687" fill="url(#q)" style="paint-order:stroke markers fill"/><path d="m27.85 58.663c0.04176 0.12234-0.04082 0.32768-0.23286 0.39329-0.09248 0.0316-0.32347 0.06025-0.39496-0.14678-0.0429-0.12423 0.06617 0.09871 0.34633 2e-3 0.25191-0.08699 0.23906-0.37278 0.28149-0.24848z" fill="url(#p)" stroke-linecap="round" stroke-opacity=".75" stroke-width=".52917" style="paint-order:stroke markers fill"/><use transform="translate(18.521 -1.3229)" fill="#000000" style="mix-blend-mode:normal" xlink:href="#c"/><rect x="42.598" y="51.329" width="18.521" height="10.054" fill="url(#f)" fill-opacity=".50216" style="mix-blend-mode:normal;paint-order:markers stroke fill"/><rect x="43.656" y="58.208" width="16.404" height="1.3229" style="mix-blend-mode:normal;paint-order:stroke markers fill"/><path d="m48.683 58.208v0.26458h-5.0271v0.26458h5.0271v0.26458h-5.0271v0.26458h5.0271v0.26458h0.26458v-0.26458h1.0583v0.26458h0.26458v-0.26458h1.0583v0.26458h0.26458v-0.26458h1.0583v0.26458h0.26458v-0.26458h1.0583v0.26458h0.26458v-0.26458h1.0583v0.26458h0.26458v-0.26458h1.0583v0.26458h0.26458v-0.26458h1.0583v0.26458h0.26458v-0.26458h1.8521v-0.26458h-1.8521v-0.26458h1.8521v-0.26458h-1.8521v-0.26458h-0.26458v0.26458h-1.0583v-0.26458h-0.26458v0.26458h-1.0583v-0.26458h-0.26458v0.26458h-1.0583v-0.26458h-0.26458v0.26458h-1.0583v-0.26458h-0.26458v0.26458h-1.0583v-0.26458h-0.26458v0.26458h-1.0583v-0.26458h-0.26458v0.26458h-1.0583v-0.26458zm0.26458 0.52917h1.0583v0.26458h-1.0583zm1.3229 0h1.0583v0.26458h-1.0583zm1.3229 0h1.0583v0.26458h-1.0583zm1.3229 0h1.0583v0.26458h-1.0583zm1.3229 0h1.0583v0.26458h-1.0583zm1.3229 0h1.0583v0.26458h-1.0583zm1.3229 0h1.0583v0.26458h-1.0583z" fill="#333" style="mix-blend-mode:normal;paint-order:stroke markers fill"/><rect x="45.773" y="58.208" width="1.5875" height="1.3229" fill="#fff" fill-opacity=".75" style="paint-order:stroke markers fill"/><rect x="46.037" y="58.473" width="1.0583" height=".79375" fill="#c00" style="mix-blend-mode:normal;paint-order:stroke markers fill"/><use transform="translate(37.571 -1.3229)" fill="#000000" style="mix-blend-mode:normal" xlink:href="#c"/></g><rect x="23.019" y="51.329" width="38.629" height=".52917" fill="url(#ar)" style="mix-blend-mode:normal;paint-order:stroke markers fill"/><g stroke-linecap="round" stroke-linejoin="round" stroke-opacity=".5" stroke-width=".26458"><path d="m23.019 51.329 0.26458 9.525c0.0043 0.33809 0.16132 0.53262 0.52917 0.52917h37.042c0.31779-0.01102 0.53548-0.13912 0.52917-0.52917l0.26458-9.525c0.29896-4e-6 0.52917 0.23601 0.52917 0.52917v10.848c0 0.29316-0.23601 0.52917-0.52917 0.52917h-38.629c-0.29316 0-0.52917-0.23601-0.52917-0.52917v-10.848c0-0.29316 0.23601-0.52917 0.52917-0.52917z" fill="url(#ai)" style="paint-order:markers stroke fill"/><path d="m23.019 51.329 0.26458 9.525c0.0043 0.33809 0.16132 0.53262 0.52917 0.52917l-0.79375 1.8521c-0.29316 0-0.52917-0.23601-0.52917-0.52917v-10.848c0-0.29316 0.23601-0.52917 0.52917-0.52917z" fill="url(#v)" style="paint-order:markers stroke fill"/><path d="m61.648 51.329-0.26458 9.525c-0.0043 0.33809-0.16132 0.53262-0.52917 0.52917l0.79375 1.8521c0.29316 0 0.52917-0.23601 0.52917-0.52917v-10.848c0-0.29316-0.23601-0.52917-0.52917-0.52917z" fill="url(#t)" style="paint-order:markers stroke fill"/></g></g><g transform="translate(0 3.175)"><path d="m59.267 37.042 0.66146 2.3813c0.27056 0.97401 0.14203 1.8172-0.92604 1.8521-8.024 0.21227-16.05 0.39688-24.077 0.39688s-16.053-0.1846-24.077-0.39688c-1.0948 0.06619-1.832-0.93771-1.9844-1.8521l-0.39688-2.3812z" fill="url(#j)" style="paint-order:normal"/><path d="m10.319 3.0427c7.8465-0.24778 15.697-0.39688 23.548-0.39688s15.701 0.14909 23.548 0.39688c1.1227 0.035454 2.0311 0.074132 2.1167 1.9844 0.24068 5.3752 0.28663 10.759 0.26458 16.14-0.02205 5.3814-0.11614 10.765-0.39688 16.14-0.05914 1.0092-0.38713 1.8172-1.4552 1.8521-8.024 0.21227-16.05 0.39688-24.077 0.39688s-16.053-0.1846-24.077-0.39688c-1.0948 0.066185-1.3645-0.92954-1.4552-1.8521-0.28074-5.3742-0.37482-10.758-0.39688-16.14-0.022051-5.3805 0.023903-10.764 0.26458-16.14 0.085534-1.9103 0.99399-1.9489 2.1167-1.9844z" fill="url(#ao)" style="paint-order:normal"/><path d="m33.867 2.7771c-7.8487 0-15.697 0.15119-23.543 0.39894-1.1757 0.037128-1.9101 0.10704-1.9885 1.8573-0.24054 5.372-0.28767 10.753-0.26562 16.133 0.02204 5.3802 0.11578 10.762 0.39636 16.133 0.084925 1.4489 0.7281 1.7069 1.3281 1.7265 8.0233 0.21226 16.048 0.39841 24.072 0.39842h1e-3c8.0244-1.6e-5 16.049-0.18617 24.072-0.39842 0.60003-0.01957 1.2432-0.27766 1.3281-1.7265 0.28058-5.3711 0.37432-10.753 0.39636-16.133 0.022081-5.3794-0.025045-10.761-0.26558-16.133-0.078367-1.7502-0.81282-1.8201-1.9885-1.8573-7.8454-0.24775-15.694-0.39894-23.543-0.39894z" fill="none" stroke="url(#am)" stroke-linecap="round" stroke-width=".26458"/><rect x="11.774" y="6.2177" width="44.185" height="28.84" rx="7.3e-18" ry="7.4117e-18" fill="url(#ag)" fill-opacity=".75" style="mix-blend-mode:normal"/><g><rect x="50.535" y="6.35" width=".52917" height="28.575" fill="url(#aj)" style="paint-order:fill markers stroke"/><path d="m33.867 5.2917c-6.923 0-13.846 0.12686-20.766 0.33435-1.037 0.031094-1.6853 0.089669-1.7544 1.5555-0.21217 4.499-0.25354 9.0056-0.23409 13.511 0.01944 4.5059 0.10236 9.0131 0.34985 13.511 0.07491 1.2135 0.64178 1.4295 1.171 1.4459 7.0769 0.17776 14.155 0.33382 21.233 0.33383h1e-3c7.0779-1.1e-5 14.155-0.15607 21.232-0.33383 0.52926-0.01637 1.0966-0.2325 1.1715-1.4459 0.24749-4.4983 0.33041-9.0054 0.34985-13.511 0.01948-4.5052-0.02191-9.0118-0.23409-13.511-0.069086-1.4658-0.71736-1.5244-1.7544-1.5555-6.92-0.20749-13.843-0.33435-20.766-0.33435zm0 1.0583c6.6815 0 13.363 0.11791 20.042 0.31109 1.0008 0.02895 1.6257 0.08327 1.6924 1.448 0.20477 4.1887 0.24514 8.3851 0.22634 12.58-0.01876 4.1952-0.09859 8.3916-0.33745 12.58-0.07229 1.1297-0.61988 1.3309-1.1307 1.3462-6.8301 0.1655-13.661 0.31056-20.492 0.31058h-1e-3c-6.831-1.1e-5 -13.662-0.14507-20.492-0.31058-0.51075-0.01526-1.0584-0.2164-1.1307-1.3462-0.23886-4.188-0.31869-8.3844-0.33745-12.58-0.01877-4.1945 0.02158-8.3908 0.22634-12.58 0.06671-1.3647 0.69156-1.419 1.6924-1.448 6.6786-0.19318 13.36-0.31109 20.042-0.31109z" fill="url(#an)"/><rect x="13.891" y="7.2761" width="35.19" height="26.194" rx="7.3437e-18" ry="7.3437e-18"/></g><path d="m25.438 23.397c0 1.5119 1.5119 3.0238 3.0238 3.0238-1.5119 3.0238-4.5357 3.0238-7.5595 4.5357 1.5119-3.0238 1.5119-6.0476 4.5357-7.5595z" fill="url(#s)" stroke-linecap="round" stroke-linejoin="round" stroke-miterlimit="3.3" stroke-width="1.5119"/><g stroke-linecap="round" stroke-linejoin="round" stroke-miterlimit="3.3"><g stroke-width="1.5119"><path d="m31.098 20.741c2.2743 2.2679 3.4115 5.6729 3.4115 10.215 3.0238-3.0238 4.5357-12.095 1.5119-15.119z" fill="url(#as)"/><path d="m20.902 17.349c4.5292 0 7.9278 1.1307 10.196 3.3921l4.9234-4.904c-3.0238-3.0238-12.095-1.5119-15.119 1.5119z" fill="url(#aq)"/><path d="m42.069 9.7896c0 9.0714-7.5595 13.607-13.607 16.631-1.5119 0-3.0238-1.5119-3.0238-3.0238 3.0238-6.0476 7.5595-13.607 16.631-13.607z" fill="url(#ah)"/></g><circle cx="35.895" cy="15.963" r="1.5875" fill="url(#u)" stroke="#000" stroke-opacity=".25" stroke-width=".44095" style="paint-order:stroke fill markers"/></g><rect x="13.891" y="7.2761" width="35.19" height="26.194" rx="7.3437e-18" ry="7.3437e-18" fill="url(#m)"/><path d="m13.758 6.8792c-0.29316 0-0.52917 0.23601-0.52917 0.52917v25.929c0 0.29316 0.23601 0.52917 0.52917 0.52917 0 0 11.818 0.26458 17.727 0.26458s17.727-0.26458 17.727-0.26458c0.29316 0 0.52917-0.23601 0.52917-0.52917v-25.929c0-0.29316-0.23601-0.52917-0.52917-0.52917zm17.727 0.52917c5.559 5e-7 11.114 0.31386 16.669 0.52917 0.34076 0.013206 0.51678 0.14507 0.52917 0.52917 0.48474 7.858 0.45644 15.966 0 23.812-0.01539 0.26455-0.26458 0.51042-0.52917 0.52917-5.4657 0.38733-11.189 0.52917-16.669 0.52917-5.3914 0-11.027-0.1421-16.404-0.52917-0.26458-0.01904-0.49518-0.26595-0.52917-0.52917-1.0103-7.8253-0.51886-15.953-0.26458-23.812 0.0124-0.38405 0.18834-0.51596 0.52917-0.52917 5.5549-0.2153 11.113-0.52917 16.669-0.52917z" fill="url(#ak)" stroke-miterlimit="3.6" stroke-opacity=".5" stroke-width=".26458" style="paint-order:fill markers stroke"/><g transform="matrix(.83333 0 0 .83333 5.9972 1.6757)" stroke-width="1.2" style="mix-blend-mode:normal"><rect x="54.716" y="8.7842" width="3.81" height="4.7625" rx="8.8124e-18" ry="8.8124e-18" fill="url(#w)" stroke="#000" stroke-linecap="round" stroke-linejoin="round" stroke-opacity=".5" stroke-width=".3175" style="mix-blend-mode:normal;paint-order:markers stroke fill"/><use transform="matrix(1.2 0 0 1.2 47.731 -55.351)" style="mix-blend-mode:normal" xlink:href="#c"/><g><path d="m57.115 11.007c-0.0092 0-0.01671 0.0037-0.02232 0.01103-0.0055 0.0072-0.0081 0.01702-0.0081 0.02894 0 0.02055 0.0095 0.03032 0.02853 0.03032 0.0089 0 0.01609-0.0031 0.02171-0.0096 0.0058-0.0068 0.0087-0.01679 0.0087-0.02963 0-0.02074-0.0095-0.03101-0.02853-0.03101zm-1.1466 6.65e-4 -0.0043 0.02412h0.0043c0.02378 0 0.03534 0.0086 0.03534 0.02619 0 0.0033-0.0018 0.01312-5e-3 0.02963l-0.06573 0.34868h0.04713l0.02728-0.14471c0.0053-0.02752 0.01801-0.05494 0.03782-0.08338 0.01998-0.02862 0.03947-0.04341 0.05829-0.04341 0.01552 0 0.02356 0.01156 0.02356 0.03376 0 0.0123-0.0025 0.02962-0.0074 0.05237l-0.01179 0.05857c-0.0064 0.03358-0.0099 0.05855-0.0099 0.0758s0.0041 0.03125 0.0124 0.04135c0.0084 0.01009 0.01945 0.01516 0.03349 0.01516 0.01916 0 0.03989-0.0111 0.06201-0.03239l-0.0087-0.01654c-0.01189 0.0086-0.02312 0.01309-0.03286 0.01309-0.01189 0-0.01798-0.0089-0.01798-0.02687 0-0.01688 0.0023-0.03669 0.0068-0.05926l0.01302-0.06684c0.0061-0.02936 0.0093-0.0494 0.0093-0.06133 0-0.04165-0.01778-0.0627-0.05395-0.0627-0.03451 0-0.06618 0.02515-0.09426 0.0758h-5e-3c0.0074-0.03157 0.0139-0.06289 0.01985-0.09372l0.01984-0.10336zm-0.85886 0.02619-0.0043 0.02343h0.0068c0.01453 0 0.0239 0.0023 0.02853 0.0069 0.0046 0.0046 0.0068 0.01118 0.0068 0.01998 0 0.0039-2.41e-4 0.0086-0.0013 0.01378l-0.05271 0.27702c-0.0023 0.01174-0.0069 0.02077-0.01364 0.02757-0.0066 0.0066-0.0188 0.0096-0.03597 0.0096h-0.0068l-0.0037 0.02412h0.27223l0.02232-0.09854h-0.02666l-0.0081 0.02412c-0.0097 0.03083-0.0291 0.04617-0.05767 0.04617h-0.09736l0.03225-0.16883h0.12216l5e-3 -0.02757h-0.12216l0.02915-0.14953h0.08496c0.02411 0 0.03597 0.01207 0.03597 0.03721 0 0.0015-4.01e-4 7e-3 -0.0013 0.01585l-0.0013 0.01722h0.02667l0.01612-0.09854zm1.82 0.03032c-0.01866 0.05266-0.04449 0.07925-0.07751 0.07925l-0.0043 0.02274h0.03845l-0.03101 0.16263c-0.0033 0.01744-5e-3 0.03273-5e-3 0.04686 0 0.04386 0.01836 0.06615 0.05519 0.06615 0.02279 0 0.04542-0.0089 0.06821-0.02687l-0.0087-0.02136c-0.01387 0.0083-0.02722 0.0124-0.04093 0.0124-0.018 0-0.02728-0.01046-0.02728-0.03101 0-0.01065 0.0021-0.02658 0.0062-0.04824l0.03101-0.16056h0.06139l0.0062-0.03238h-0.06139l0.01302-0.0696zm0.80553 0.04203c-0.02047 0-0.03856 0.01336-0.05457 0.03997-0.01321-0.01192-0.03045-0.01792-0.05209-0.01792-0.03534 0-0.06394 0.01322-0.08558 0.03928-0.02147 0.02587-0.03225 0.05439-0.03225 0.08614 0 0.03211 0.01173 0.05455 0.03534 0.06684-0.01866 0.01065-0.03105 0.02018-0.03782 0.02825-0.0066 0.0081-0.0099 0.01738-0.0099 0.02894 0 0.01706 8e-3 0.03047 0.02419 0.03927-0.0256 0.0055-0.04591 0.01481-0.06077 0.02894-0.0147 0.01431-0.0217 0.03219-0.0217 0.05237 0 0.049 0.03657 0.07304 0.11038 0.07304 0.04409 0 0.07792-0.01 0.1017-0.02963 0.02378-0.01945 0.03597-0.04627 0.03597-0.08131 0-0.04294-0.02624-0.06749-0.07876-0.07373l-0.04899-0.0062c-0.01734-0.0019-0.02542-0.0072-0.02542-0.01654 0-0.01284 0.01186-0.02501 0.03597-0.03583 3e-3 7.32e-4 0.0084 0.0014 0.01612 0.0014 0.03484 0 0.06303-0.01304 0.08434-0.03928 0.0213-0.02643 0.03162-0.05526 0.03162-0.08683 0-0.01725-0.0037-0.03167-0.01116-0.04341 0.01007-0.0086 0.01882-0.01309 0.02542-0.01309 0.0094 0 0.01364 0.0064 0.01364 0.01998 0.01998 0 0.03038-0.01115 0.03038-0.03445 0-0.01725-9e-3 -0.02619-0.02605-0.02619zm-1.8982 0.02205c-0.04359 0-0.07995 0.02091-0.10852 0.06202-0.02857 0.04092-0.04279 0.08588-0.04279 0.13506 0 0.03615 0.0091 0.06471 0.02729 0.08545 0.01817 0.02074 0.04238 0.03101 0.07193 0.03101 0.02675 0 0.04802-7e-3 0.06387-0.01999 0.01602-0.01322 0.02357-0.02698 0.02357-0.04203 0-7e-3 -0.0015-0.01207-5e-3 -0.01447-0.01916 0.02697-0.04361 0.04065-0.07317 0.04065-0.03715 0-0.05581-0.02547-0.05581-0.07649 0-0.03762 0.0092-0.07581 0.02667-0.11508 0.01767-0.03927 0.03778-0.05926 0.06139-0.05926 0.01222 0 0.02221 0.0063 0.02914 0.0186 0.0069 0.01211 0.01055 0.02824 0.01055 0.04824 0.0137 0 0.02415-0.0035 0.03225-0.01103 0.0083-0.0075 0.0124-0.01756 0.0124-0.02894 0-0.01541-0.0062-0.02762-0.01923-0.0379-0.01304-0.01027-0.03129-0.01585-0.05457-0.01585zm0.55066 0c-0.04277 0-0.07884 0.02193-0.1079 0.06615-0.0289 0.04422-0.04341 0.09227-0.04341 0.14402 0 0.03248 6e-3 0.05832 0.01736 0.07649 0.01156 0.01798 0.02773 0.02687 0.04837 0.02687 0.03897 0 0.0706-0.03059 0.09488-0.09096h0.0031c-0.0035 0.01725-5e-3 0.03218-5e-3 0.0441 0 0.03119 0.01327 0.04686 0.03969 0.04686 0.02345 0 0.04704-0.01138 0.07131-0.03377l-0.0093-0.01654c-0.01487 0.0097-0.02701 0.01447-0.03658 0.01447-0.01107 0-0.01674-0.0092-0.01674-0.02825 0-0.01578 0.0025-0.03683 0.0074-0.0627l0.03473-0.18054h-0.01612l-0.02232 0.01447c-0.01667-0.01358-0.03658-0.02067-0.05953-0.02067zm-0.81731 6.66e-4c-0.03418 0-0.06498 0.02515-0.0924 0.0758h-5e-3l0.01364-0.07098h-0.09364l-0.0043 0.02343h0.0037c0.02361 0 0.03534 0.0091 0.03534 0.02687 0 0.0064-4.84e-4 0.01504-0.0025 0.02549l-0.04279 0.22671h0.04713l0.02729-0.14471c0.0056-0.02808 0.01817-0.05581 0.03782-0.08407 0.01981-0.02826 0.03947-0.04272 0.05829-0.04272 0.01553 0 0.02295 0.01156 0.02295 0.03376 0 0.0123-0.0025 0.02962-0.0074 0.05237l-0.01178 0.05857c-0.0064 0.03358-0.0093 0.05855-0.0093 0.0758s0.0041 0.03125 0.0124 0.04135c0.0084 0.01009 0.01945 0.01516 0.03349 0.01516 0.01916 0 0.03988-0.0111 0.06201-0.03239l-0.0093-0.01654c-0.01189 0.0086-0.0225 0.01309-0.03225 0.01309-0.01189 0-0.01798-0.0089-0.01798-0.02687 0-0.01688 0.0023-0.03669 0.0068-0.05926l0.01302-0.06615c0.0061-0.02936 0.0093-0.05009 0.0093-0.06202 0-0.04165-0.01841-0.0627-0.05457-0.0627zm1.1491 0c-0.03418 0-0.06498 0.02515-0.0924 0.0758h-5e-3l0.01364-0.07098h-0.09426l-0.0043 0.02343h0.0037c0.02361 0 0.03597 0.0091 0.03597 0.02687 0 0.0064-0.0011 0.01504-0.0031 0.02549l-0.04279 0.22671h0.04713l0.02729-0.14471c0.0056-0.02808 0.01817-0.05581 0.03782-0.08407 0.01981-0.02826 0.03947-0.04272 0.05829-0.04272 0.01552 0 0.02294 0.01156 0.02294 0.03376 0 0.0123-0.0025 0.02962-0.0074 0.05237l-0.01116 0.05857c-0.0064 0.03358-0.0099 0.05855-0.0099 0.0758s0.0041 0.03125 0.0124 0.04135c0.0084 0.01009 0.01945 0.01516 0.03349 0.01516 0.01916 0 0.03989-0.0111 0.06201-0.03239l-0.0093-0.01654c-0.01189 0.0086-0.02251 0.01309-0.03225 0.01309-0.01189 0-0.01799-0.0089-0.01799-0.02687 0-0.01688 0.0023-0.03669 0.0068-0.05926l0.01302-0.06615c0.0061-0.02936 0.0093-0.05009 0.0093-0.06202 0-0.04165-0.01778-0.0627-0.05395-0.0627zm0.64492 0c-0.03418 0-0.06498 0.02515-0.0924 0.0758h-5e-3l0.01364-0.07098h-0.09426l-0.0043 0.02343h0.0043c0.02361 0 0.03534 0.0091 0.03534 0.02687 0 0.0064-0.0011 0.01504-0.0031 0.02549l-0.04279 0.22671h0.04713l0.02729-0.14471c0.0056-0.02808 0.01879-0.05581 0.03845-0.08407 0.01981-0.02826 0.03884-0.04272 0.05767-0.04272 0.01552 0 0.02356 0.01156 0.02356 0.03376 0 0.0123-0.0025 0.02962-0.0074 0.05237l-0.01179 0.05857c-0.0064 0.03358-0.0099 0.05855-0.0099 0.0758s0.0041 0.03125 0.0124 0.04135c0.0084 0.01009 0.02007 0.01516 0.0341 0.01516 0.01915 0 0.03926-0.0111 0.06139-0.03239l-0.0087-0.01654c-0.01189 0.0086-0.02312 0.01309-0.03286 0.01309-0.01189 0-0.01736-0.0089-0.01736-0.02687 0-0.01688 0.0017-0.03669 0.0062-0.05926l0.01302-0.06684c0.0061-0.02936 0.0093-0.0494 0.0093-0.06133 0-0.04165-0.01778-0.06271-0.05395-0.06271zm-0.32928 0.0048-0.0043 0.02343h0.0068c0.02064 0 0.03101 0.0083 0.03101 0.02412 0 0.0039-7.19e-4 0.0084-0.0019 0.01447l-0.01984 0.10405c-0.0076 0.0422-0.01116 0.07132-0.01116 0.0882 0 0.01541 4e-3 0.0285 0.01178 0.03859 0.0078 0.01009 0.01784 0.01516 0.03038 0.01516 0.02229 0 0.04539-0.01138 0.06883-0.03377l-0.0093-0.01654c-0.01453 0.0097-0.02684 0.01447-0.03658 0.01447-0.01123 0-0.01675-0.0092-0.01675-0.02825 0-0.01468 0.0023-0.03573 0.0074-0.0627l0.03473-0.18123zm-0.6443 0.01999c0.01784 0 0.03007 0.0064 0.03782 0.01998l-0.0186 0.09992c-0.0059 0.03284-0.0181 0.06325-0.03659 0.09096-0.0185 0.02771-0.03649 0.04135-0.05333 0.04135-0.0213 0-0.03162-0.02129-0.03162-0.06478 0-0.04312 0.0097-0.08537 0.02914-0.1261 0.01965-0.04092 0.04428-0.06133 0.07317-0.06133zm1.2316 6.66e-4c0.02328 0 0.03473 0.01534 0.03473 0.04617 0 0.02532-0.0061 0.04882-0.01798 0.07029-0.01173 0.02129-0.02719 0.0317-0.04651 0.0317-0.02344 0-0.03534-0.01534-0.03534-0.04617 0-0.02495 0.0058-0.04813 0.01736-0.0696 0.01173-0.02165 0.02793-0.03239 0.04775-0.03239zm-0.07503 0.27495 0.04899 0.0048c0.03154 0.0031 0.04775 0.01744 0.04775 0.04203 0 0.02074-0.0079 0.03682-0.02356 0.04892-0.01552 0.0123-0.03849 0.0186-0.06821 0.0186-0.04772 0-0.07131-0.01626-0.07131-0.04892 0-0.01523 0.0043-0.02813 0.01302-0.03859 0.0088-0.01045 0.01895-0.0175 0.03101-0.02136 0.01222-0.0039 0.01985-0.0057 0.02233-0.0055zm-0.59593 0.28322c-0.0092 0-0.01671 0.0037-0.02233 0.01103-0.0055 0.0072-0.0081 0.01702-0.0081 0.02894 0 0.02055 0.0095 0.03032 0.02853 0.03032 0.0089 0 0.01609-0.0031 0.0217-0.0096 0.0058-0.0068 0.0087-0.01678 0.0087-0.02963 0-0.02074-0.0095-0.03101-0.02853-0.03101zm-1.2421 6.66e-4 -5e-3 0.02412h0.0062c0.02378 0 0.03597 0.0086 0.03597 0.02619 0 0.0057-0.0016 0.0143-0.0037 0.02549l-0.04093 0.21638c-0.0074 0.04129-0.01116 0.0704-0.01116 0.0882 0 0.01578 0.0034 0.02868 0.01116 0.03859 0.0079 0.0099 0.01817 0.01516 0.03038 0.01516 0.02229 0 0.04539-0.01138 0.06883-0.03377l-0.0093-0.01654c-0.01453 0.0097-0.02684 0.01447-0.03658 0.01447-0.01123 0-0.01675-0.0092-0.01675-0.02825 0-0.01486 0.0029-0.03591 0.0081-0.0627l0.05829-0.30734zm1.8647 0-0.0043 0.02412h0.0056c0.02378 0 0.03597 0.0086 0.03597 0.02619 0 0.0057-9.59e-4 0.0143-0.0031 0.02549l-0.04154 0.21638c-0.0074 0.04129-0.01116 0.0704-0.01116 0.0882 0 0.01578 4e-3 0.02868 0.01178 0.03859 0.0079 0.0099 0.01817 0.01516 0.03038 0.01516 0.02229 0 0.04477-0.01138 0.06821-0.03377l-0.0093-0.01654c-0.01453 0.0097-0.02623 0.01447-0.03597 0.01447-0.01123 0-0.01675-0.0092-0.01675-0.02825 0-0.01486 0.0023-0.03591 0.0074-0.0627l0.05891-0.30734zm-2.2944 0.01999c-0.05945 0-0.10949 0.02644-0.14945 0.07856-0.03996 0.05193-0.05953 0.11348-0.05953 0.18468 0 0.04808 0.01198 0.08539 0.03658 0.11163 0.02477 0.02624 0.05947 0.03928 0.10356 0.03928 0.03303 0 0.05869-0.0074 0.07751-0.02137 0.01883-0.01413 0.02853-0.03025 0.02853-0.04824 0-9e-3 -0.0023-0.0151-0.0068-0.0186-0.02345 0.03414-0.05512 0.05168-0.09426 0.05168-0.06011 0-0.08992-0.03515-0.08992-0.10543 0-0.06 0.01409-0.11561 0.04217-0.16607 0.02824-0.05065 0.06302-0.0758 0.1048-0.0758 0.03369 0 0.05085 0.02547 0.05085 0.07649 0.01503 0 0.02688-0.0038 0.03597-0.01172 0.0091-0.0079 0.01364-0.01899 0.01364-0.03238 0-0.01927-0.0083-0.03429-0.02481-0.04548-0.01651-0.01138-0.03928-0.01722-0.06883-0.01722zm1.2545 0.0062-0.0043 0.02343h0.0062c0.02444 0 0.03659 0.0077 0.03659 0.02274 0 0.0035-5.43e-4 0.0089-0.0019 0.01585l-0.05271 0.27633c-0.0051 0.02697-0.02154 0.03997-0.04961 0.03997h-0.0068l-0.0043 0.02412h0.15999c0.06159 0 0.11076-0.024 0.14759-0.07098 0.03682-0.04716 0.05519-0.10654 0.05519-0.17848 0-0.04918-0.01228-0.08659-0.03721-0.11301-0.02494-0.02661-0.06059-0.03997-0.10666-0.03997zm0.09426 0.02756h0.04031c0.06424 0 0.09612 0.03994 0.09612 0.11921 0 0.0679-0.01422 0.12304-0.04279 0.16469-0.0284 0.04165-0.06708 0.06202-0.11596 0.06202h-0.04403zm-1.0933 0.06684c-0.04508 0-0.08185 0.02027-0.10976 0.06064-0.02774 0.04019-0.04155 0.08579-0.04155 0.13644 0 0.03652 0.0089 0.0649 0.02605 0.08545 0.01717 0.02055 0.04077 0.03101 0.07131 0.03101 0.04491 0 0.08156-0.02027 0.10914-0.06064 0.02758-0.04055 0.04093-0.08634 0.04093-0.13644 0-0.0378-0.0083-0.06613-0.02542-0.08614-0.01717-0.02-0.0408-0.03032-0.07069-0.03032zm0.44524 0c-0.04508 0-0.08123 0.02027-0.10914 0.06064-0.02774 0.04019-0.04155 0.08579-0.04155 0.13644 0 0.03652 0.0083 0.0649 0.02542 0.08545 0.01717 0.02055 0.04138 0.03101 0.07193 0.03101 0.04491 0 0.08094-0.02027 0.10852-0.06064 0.02758-0.04055 0.04154-0.08634 0.04154-0.13644 0-0.0378-0.0089-0.06613-0.02604-0.08614-0.01717-0.02-0.0408-0.03032-0.07069-0.03032zm0.31688 0c-0.01751 0-0.03268 0.0058-0.04589 0.01792-0.01321 0.01211-0.02676 0.03533-0.04031 0.06891h-5e-3l0.01054-0.08131h-0.0893l-5e-3 0.02343h0.0043c0.02692 0 0.04031 0.0091 0.04031 0.02687 0 0.0064-0.0011 0.01504-0.0031 0.02549l-0.04279 0.22671h0.04775l0.0186-0.10268c0.0084-0.0433 0.02156-0.08214 0.03907-0.11646 0.01767-0.03432 0.03454-0.05168 0.05023-0.05168 0.01354 0 0.02046 0.01507 0.02046 0.04479 0.02807 0 0.04217-0.01479 0.04217-0.04341 0-0.02587-0.01443-0.03859-0.04217-0.03859zm1.1348 0c-0.03748 0-0.06858 0.02686-0.09302 0.08062h-0.0025l0.0124-0.07511h-0.08992l-0.0043 0.02343h0.0037c0.02361 0 0.03534 0.0091 0.03534 0.02687 0 0.0041-0.0014 0.01385-0.0043 0.02963l-0.06759 0.35764h0.0955l0.0043-0.02343h-0.0068c-0.02361 0-0.03534-0.0088-0.03534-0.02619 0-0.0053 0.0018-0.0161 5e-3 -0.0317l0.0068-0.03446c0.0013-0.0061 0.0029-0.01476 0.0043-0.02687 0.0137 0.0086 0.03029 0.01309 0.04961 0.01309 0.04426 0 0.08028-0.02308 0.10852-0.06822 0.02841-0.04532 0.04279-0.09287 0.04279-0.14333 0-0.03303-0.0055-0.05837-0.01674-0.0758-0.01106-0.01743-0.02711-0.02619-0.04775-0.02619zm0.41362 0c-0.04277 0-0.07884 0.02193-0.1079 0.06615-0.0289 0.04422-0.04341 0.09227-0.04341 0.14402 0 0.03248 6e-3 0.05832 0.01736 0.07649 0.01156 0.01798 0.02773 0.02687 0.04837 0.02687 0.03897 0 0.0706-0.03059 0.09488-0.09096h0.0031c-0.0035 0.01725-0.0056 0.03218-0.0056 0.0441 0 0.03119 0.01326 0.04686 0.03969 0.04686 0.02345 0 0.04766-0.01138 0.07193-0.03377l-0.0093-0.01654c-0.01487 0.0097-0.02701 0.01447-0.03658 0.01447-0.01107 0-0.01675-0.0092-0.01675-0.02825 0-0.01578 0.0025-0.03683 0.0074-0.0627l0.03473-0.18054h-0.01612l-0.02233 0.01447c-0.01668-0.01357-0.03658-0.02067-0.05953-0.02067zm-0.71314 6.66e-4c-0.02907 0-0.05253 0.0076-0.07069 0.02343-0.018 0.0156-0.02729 0.03605-0.02729 0.06064 0 0.01798 0.0041 0.03378 0.0124 0.04754 0.0084 0.01357 0.02534 0.02643 0.04961 0.03927 0.01866 0.0095 0.03131 0.01959 0.03907 0.02894 0.0078 0.0092 0.01178 0.02037 0.01178 0.03376 0 0.03487-0.01808 0.05237-0.05457 0.05237-0.01833 0-0.03255-0.0065-0.04279-0.01929-0.01007-0.01303-0.0155-0.03113-0.0155-0.05444-0.0092 0-0.01684 0.0025-0.02295 9e-3 -0.0059 0.0063-0.0087 0.01545-0.0087 0.02756 0 0.01946 0.0073 0.0353 0.02232 0.04686 0.01519 0.01138 0.03579 0.01722 0.06139 0.01722 0.0317 0 0.05712-0.0084 0.07627-0.02549 0.01916-0.01707 0.02853-0.03982 0.02853-0.06753 0-0.03816-0.02015-0.06733-0.06077-0.08751-0.01767-0.0086-0.03065-0.01738-0.03907-0.02619-0.0084-0.0088-0.0124-0.01922-0.0124-0.0317 0-0.01413 0.0043-0.02615 0.01302-0.03514 0.0089-0.0092 0.02078-0.01378 0.03597-0.01378 0.01437 0 0.02556 0.0059 0.03349 0.01722 0.0081 0.01138 0.0124 0.02658 0.0124 0.04548 0.02544 0 0.03782-0.01184 0.03782-0.03514 0-0.01505-7e-3 -0.02762-0.02108-0.0379-0.01387-0.01027-0.03336-0.01516-0.05829-0.01516zm1.0412 0c-0.0089 0-0.01634 0.0035-0.02294 0.01103-0.0066 0.0075-0.0099 0.01766-0.0099 0.03032 0.01667 0 0.02481 0.01064 0.02481 0.03101 0 0.04752-0.02247 0.10949-0.06821 0.18674h-0.0019c-2e-3 -0.02092-0.0089-0.05483-0.02108-0.10199l-0.03969-0.15229h-0.0738l-0.0043 0.02343h0.0056c0.01007 0 0.0172 0.0023 0.02232 0.0069 0.0052 0.0044 0.0094 0.01242 0.0124 0.02343l0.06697 0.24945c-0.04657 0.06845-0.09424 0.10267-0.14263 0.10267-0.01453 0-0.02779-0.0027-0.03969-0.0069l-0.0074 0.02825c0.01404 0.0068 0.02992 0.01033 0.04775 0.01033 0.04491 0 0.08111-0.01299 0.10852-0.03997 0.02758-0.02697 0.06418-0.08198 0.10976-0.164 0.04558-0.08221 0.06821-0.14555 0.06821-0.19088 0-0.03157-0.01177-0.04754-0.03473-0.04754zm-1.3016 0.0048-5e-3 0.02343 0.0068 6.66e-4c0.02064 0 0.03101 0.0076 0.03101 0.02343 0 0.0039-7.19e-4 0.0084-0.0019 0.01447l-0.01922 0.10405c-0.0076 0.04221-0.01178 0.07132-0.01178 0.0882 0 0.01541 4e-3 0.0285 0.01178 0.03859 0.0078 0.01009 0.01784 0.01516 0.03038 0.01516 0.02229 0 0.04539-0.01138 0.06883-0.03377l-0.0093-0.01654c-0.01453 0.0097-0.02684 0.01447-0.03658 0.01447-0.01123 0-0.01674-0.0092-0.01674-0.02825 0-0.01468 0.0029-0.03573 0.0081-0.06271l0.0341-0.18123zm0.97606 0.01999c0.01784 0 0.03068 0.0064 0.03845 0.01998l-0.0186 0.09992c-0.0059 0.03285-0.01809 0.06325-0.03658 0.09096-0.0185 0.02771-0.03648 0.04135-0.05333 0.04135-0.0213 0-0.03162-0.02129-0.03162-0.06478 0-0.04312 0.0097-0.08537 0.02914-0.1261 0.01965-0.04092 0.04366-0.06133 0.07255-0.06133zm-2.3192 0.0041c0.03303 0 0.04961 0.02626 0.04961 0.07856 0 0.04477-0.0081 0.08577-0.02481 0.12266-0.01651 0.0367-0.03907 0.05513-0.06697 0.05513-0.03352 0-0.05023-0.02612-0.05023-0.07787 0-0.04514 0.0084-0.08577 0.02542-0.12266 0.01701-0.03688 0.03939-0.05581 0.06697-0.05581zm0.44586 0c0.03303 0 0.04961 0.02626 0.04961 0.07856 0 0.04477-0.0087 0.08577-0.02542 0.12266-0.01651 0.0367-0.03844 0.05513-0.06635 0.05513-0.03352 0-0.05023-0.02612-0.05023-0.07787 0-0.04514 0.0084-0.08577 0.02542-0.12266 0.01701-0.03688 0.03939-0.05581 0.06697-0.05581zm1.4381 0.0062c0.0213 0 0.03225 0.02161 0.03225 0.06546 0 0.04239-0.01011 0.08431-0.02977 0.12542-0.01948 0.04092-0.04308 0.06133-0.07131 0.06133-0.01585 0-0.02941-0.0066-0.04031-0.01998l0.02046-0.1075c0.0058-0.02918 0.01813-0.05709 0.03597-0.08407 0.01784-0.02716 0.03521-0.04065 0.05271-0.04065z" stroke-miterlimit="3.6" stroke-opacity=".5" stroke-width=".381" style="mix-blend-mode:normal;paint-order:fill markers stroke"/><rect x="54.716" y="12.594" width="1.27" height=".9525" rx="1.175e-17" ry="1.3219e-17" fill="#800" style="mix-blend-mode:normal;paint-order:fill markers stroke"/><rect x="55.986" y="12.594" width="1.27" height=".9525" rx="1.175e-17" ry="1.3219e-17" fill="#061" style="mix-blend-mode:normal;paint-order:fill markers stroke"/><rect x="57.256" y="12.594" width="1.27" height=".9525" rx="1.175e-17" ry="1.3219e-17" fill="#039" style="mix-blend-mode:normal;paint-order:fill markers stroke"/></g></g><rect transform="rotate(45)" x="52.385" y="-23.596" width="1.0583" height=".79375" rx="7.3437e-18" ry="7.3437e-18" fill="url(#n)" style="paint-order:fill markers stroke"/><circle cx="53.446" cy="20.637" r="1.3229" fill="url(#o)" style="mix-blend-mode:normal;paint-order:stroke markers fill"/><circle cx="53.446" cy="20.637" r=".39687" fill="url(#r)" style="mix-blend-mode:normal;paint-order:stroke markers fill"/><g transform="translate(-.52917 7.6729)"><path id="d" d="m56.346 24.344-1.5435 1.5435 0.14032-0.14032-1.8099-1.6219 1.684-1.684z" fill="url(#l)" stroke-miterlimit="3.6" stroke-width=".26458" style="paint-order:stroke fill markers"/><circle id="h" cx="53.975" cy="23.283" r="1.1906" fill="url(#k)" stroke="url(#z)" stroke-miterlimit="3.6" stroke-width=".26458" style="paint-order:stroke fill markers"/><circle id="g" cx="54.24" cy="23.548" r=".92604" fill="#847c6a" stroke="url(#y)" stroke-miterlimit="3.6" stroke-width=".26458" style="paint-order:stroke markers fill"/><g transform="translate(0 -2.6495e-5)"><circle cx="54.24" cy="23.548" r=".49609" fill="none" stroke="#2d2b24" stroke-linecap="round" stroke-miterlimit="3.3" stroke-width=".066146" style="paint-order:normal"/><path id="b" d="m54.24 22.787v0.13229" fill="none" stroke="#2d2b24" stroke-linecap="round" stroke-miterlimit="3.3" stroke-width=".066146" style="paint-order:normal"/><use transform="rotate(45 54.24 23.548)" xlink:href="#b"/><use transform="rotate(90 54.24 23.548)" xlink:href="#b"/><use transform="rotate(135 54.24 23.548)" xlink:href="#b"/><use transform="rotate(180 54.24 23.548)" xlink:href="#b"/><use transform="rotate(225 54.24 23.548)" xlink:href="#b"/><use transform="rotate(-90 54.24 23.548)" xlink:href="#b"/><use transform="rotate(-45 54.24 23.548)" xlink:href="#b"/></g></g><g transform="translate(-.52917 3.9688)"><use transform="translate(2.8797e-7 2.4968e-5)" xlink:href="#d"/><use transform="translate(2.8797e-7 2.4968e-5)" xlink:href="#h"/><use transform="translate(2.8797e-7 2.4968e-5)" xlink:href="#g"/><g transform="translate(.0041313 -.037235)" stroke="#2d2b24" stroke-linecap="round" stroke-miterlimit="3.3" stroke-width=".066146"><ellipse cx="54.235" cy="23.585" rx=".69867" ry=".69867" fill="none" style="paint-order:stroke fill markers"/><path d="m54.729 24.079a0.69867 0.69867 0 0 1-0.98806 0 0.69867 0.69867 0 0 1 0-0.98806l0.49403 0.49403z" fill="#2d2b24" style="paint-order:normal"/></g></g><g transform="translate(-.52917 .26459)"><use transform="translate(2.8797e-7 2.3506e-5)" xlink:href="#d"/><use transform="translate(2.8797e-7 2.3506e-5)" xlink:href="#h"/><use transform="translate(2.8797e-7 2.3506e-5)" xlink:href="#g"/><g transform="translate(-.037599 .0075795)" fill="none" stroke="#2d2b24" stroke-miterlimit="3.3"><path d="m53.868 24.023c0.29272 0.19722 0.56302 0.1815 0.82269 0.0041" marker-end="url(#au)" marker-start="url(#au)" stroke-width=".066146" style="paint-order:stroke fill markers"/><path d="m53.645 23.372v0.33073" stroke-linecap="round" stroke-width=".066146" style="paint-order:stroke fill markers"/><circle cx="54.943" cy="23.538" r=".16536" stroke-linecap="round" stroke-width=".066146" style="paint-order:stroke fill markers"/></g></g></g></svg>
