<?xml version="1.0" encoding="UTF-8"?>
<svg width="128" height="128" version="1.1" viewBox="0 0 33.867 33.867" xmlns="http://www.w3.org/2000/svg" xmlns:xlink="http://www.w3.org/1999/xlink"><defs><marker id="au" overflow="visible" markerHeight="0.5" markerWidth="0.5" orient="auto-start-reverse" preserveAspectRatio="xMidYMid" viewBox="0 0 1 1"><path transform="scale(.7)" d="m-0.21115-4.1056 6.4223 3.2111a1 1 90 0 1 0 1.7889l-6.4223 3.2111a1.2361 1.2361 31.717 0 1-1.7889-1.1056v-6a1.2361 1.2361 148.28 0 1 1.7889-1.1056z" fill="context-stroke" fill-rule="evenodd"/></marker><linearGradient id="al"><stop stop-color="#292929" offset="0"/><stop stop-color="#3d3d3d" offset="1"/></linearGradient><linearGradient id="e"><stop stop-color="#c2cada" offset="0"/><stop stop-color="#9ea09f" offset="1"/></linearGradient><linearGradient id="ap" x1="2.6458" x2="2.6458" y1="49.477" y2="65.088" gradientUnits="userSpaceOnUse"><stop stop-color="#cfccc3" offset="0"/><stop stop-color="#aba8a5" offset="1"/></linearGradient><linearGradient id="aa" x1="3.1871" x2="3.175" y1="42.598" y2="49.237" gradientTransform="translate(-5.3818e-8 -.042194)" gradientUnits="userSpaceOnUse"><stop stop-color="#9f9fa2" offset="0"/><stop stop-color="#b5b3b1" offset="1"/></linearGradient><linearGradient id="x" x1="5.6885" x2="9.1281" y1="53.314" y2="56.753" gradientUnits="userSpaceOnUse" xlink:href="#e"/><linearGradient id="ai" x1="23.019" x2="23.019" y1="51.329" y2="63.235" gradientUnits="userSpaceOnUse"><stop stop-color="#bbb7aa" offset="0"/><stop stop-color="#c6c2b9" offset=".81589"/><stop stop-color="#d0ccc8" offset="1"/></linearGradient><linearGradient id="at" x1="23.019" x2="23.019" y1="51.329" y2="61.383" gradientTransform="matrix(.99925 0 0 1.0227 .031778 -1.1666)" gradientUnits="userSpaceOnUse"><stop stop-color="#1c1c21" offset="0"/><stop stop-color="#2f2e38" offset="1"/></linearGradient><radialGradient id="v" cx="22.49" cy="56.621" r=".66146" gradientTransform="matrix(-3.2 -5.4991e-5 .00031617 -18 94.438 1070.5)" gradientUnits="userSpaceOnUse"><stop stop-opacity=".66" offset="0"/><stop stop-opacity="0" offset="1"/></radialGradient><radialGradient id="t" cx="62.177" cy="56.621" r=".66146" gradientTransform="matrix(-3.2 -2.079e-5 .0001173 -18 261.14 1070.5)" gradientUnits="userSpaceOnUse"><stop stop-opacity=".33" offset="0"/><stop stop-opacity="0" offset="1"/></radialGradient><linearGradient id="f" x1="42.598" x2="42.598" y1="51.329" y2="61.383" gradientUnits="userSpaceOnUse" xlink:href="#al"/><linearGradient id="af" x1="24.077" x2="24.077" y1="51.858" y2="59.002" gradientTransform="matrix(.96507 0 0 .96296 1.4012 2.979)" gradientUnits="userSpaceOnUse"><stop offset="0"/><stop offset=".75"/><stop stop-color="#929297" offset="1"/></linearGradient><linearGradient id="ae" x1="30.162" x2="30.692" y1="57.679" y2="57.944" gradientTransform="matrix(1.0294 0 0 1 -.69253 .79374)" gradientUnits="userSpaceOnUse"><stop stop-opacity=".75" offset="0"/><stop stop-opacity="0" offset="1"/></linearGradient><linearGradient id="ad" x1="30.559" x2="30.559" y1="52.52" y2="56.621" gradientTransform="matrix(.84848 0 0 .90323 4.7003 5.744)" gradientUnits="userSpaceOnUse"><stop stop-color="#292929" offset="0"/><stop stop-color="#2b2b2b" offset=".55"/><stop offset=".63"/><stop stop-color="#303030" offset=".64"/><stop stop-color="#333" offset="1"/></linearGradient><linearGradient id="ac" x1="29.104" x2="29.104" y1="55.695" y2="56.224" gradientTransform="matrix(1.0294 0 0 1 -.96501 .39687)" gradientUnits="userSpaceOnUse"><stop stop-color="#808080" offset="0"/><stop offset="1"/></linearGradient><linearGradient id="ab" x1="29.104" x2="29.104" y1="55.695" y2="56.224" gradientTransform="matrix(1.0294 0 0 1 6.1165 .3968)" gradientUnits="userSpaceOnUse"><stop stop-color="#808080" offset="0"/><stop offset="1"/></linearGradient><radialGradient id="q" cx="27.208" cy="57.856" r=".52917" gradientTransform="matrix(-6.6133e-6 1.3333 -1.3725 -6.6119e-6 106.59 22.284)" gradientUnits="userSpaceOnUse"><stop stop-color="#fff" offset="0"/><stop stop-color="#f00" offset=".49806"/><stop stop-color="#a00" offset="1"/></radialGradient><radialGradient id="p" cx="27.519" cy="58.156" r=".32372" gradientTransform="matrix(-1.6824 -.01187 .012393 -1.6577 72.941 155.47)" gradientUnits="userSpaceOnUse"><stop stop-color="#fff" stop-opacity=".15079" offset="0"/><stop stop-color="#fff" stop-opacity=".30423" offset="1"/></radialGradient><linearGradient id="ar" x1="23.019" x2="23.019" y1="51.329" y2="52.123" gradientTransform="matrix(.99925 0 0 1.3636 .031778 -18.665)" gradientUnits="userSpaceOnUse"><stop stop-opacity=".75" offset="0"/><stop stop-opacity="0" offset="1"/></linearGradient><linearGradient id="ao" x1="7.9375" x2="7.9326" y1="2.6458" y2="39.555" gradientTransform="matrix(1.0104 0 0 .99693 -.35143 -.3798)" gradientUnits="userSpaceOnUse"><stop stop-color="#d5d2d4" offset="0"/><stop stop-color="#abaaab" offset=".07"/><stop stop-color="#a2a2a2" offset=".93"/><stop stop-color="#686868" offset="1"/></linearGradient><linearGradient id="am" x1="7.9332" x2="59.801" y1="21.101" y2="21.101" gradientUnits="userSpaceOnUse"><stop stop-color="#fff" stop-opacity=".25" offset="0"/><stop stop-color="#fff" stop-opacity="0" offset=".03"/><stop stop-opacity="0" offset=".97"/><stop stop-opacity=".25" offset="1"/></linearGradient><linearGradient id="an" x1="11.159" x2="12.747" y1="33.478" y2="35.983" gradientTransform="matrix(1.0104 0 0 .99693 -.35143 -.3798)" gradientUnits="userSpaceOnUse"><stop stop-color="#5b5958" offset="0"/><stop stop-color="#847e7b" offset=".5"/><stop stop-color="#c0bfbe" offset="1"/></linearGradient><linearGradient id="ak" x1="13.229" x2="25.4" y1="6.8792" y2="33.867" gradientTransform="matrix(1.0104 0 0 .99693 -.35143 -.3798)" gradientUnits="userSpaceOnUse"><stop stop-color="#413f3f" offset="0"/><stop stop-color="#726c69" offset=".5"/><stop stop-color="#a7a5a4" offset="1"/></linearGradient><linearGradient id="aj" x1="50.535" x2="51.065" y1="20.307" y2="20.307" gradientTransform="matrix(1.0536 0 0 .98528 -2.6505 -.096048)" gradientUnits="userSpaceOnUse"><stop stop-color="#696663" stop-opacity="0" offset="0"/><stop stop-color="#696663" offset=".75"/><stop stop-color="#ceccca" stop-opacity="0" offset="1"/></linearGradient><linearGradient id="w" x1="51.656" x2="54.967" y1="9.7535" y2="12.829" gradientTransform="matrix(1.2 0 0 1.2 -7.3543 -2.8237)" gradientUnits="userSpaceOnUse" xlink:href="#e"/><radialGradient id="r" cx="27.208" cy="57.856" r=".52917" gradientTransform="matrix(-5.0764e-6 1.0536 -1.0536 -5.2246e-6 114.47 -8.4275)" gradientUnits="userSpaceOnUse"><stop stop-color="#ffb" offset="0"/><stop stop-color="#af0" offset=".49806"/><stop stop-color="#0f0" offset="1"/></radialGradient><radialGradient id="o" cx="53.975" cy="20.637" r=".79375" gradientTransform="matrix(1.756 6.169e-6 -3.0422e-6 1.756 -41.119 -15.862)" gradientUnits="userSpaceOnUse"><stop stop-color="#0f0" stop-opacity=".2" offset=".3"/><stop stop-color="#0f0" stop-opacity="0" offset="1"/></radialGradient><radialGradient id="n" cx="52.759" cy="-23.573" r=".52917" gradientTransform="matrix(1.8625 1.4525e-5 -8.7286e-6 1.1175 -45.912 2.8084)" gradientUnits="userSpaceOnUse"><stop stop-opacity=".5" offset="0"/><stop stop-opacity="0" offset="1"/></radialGradient><radialGradient id="l" cx="53.975" cy="23.343" r="1.6065" gradientTransform="matrix(1.0705 1.0705 -.57643 .57643 9.6496 -47.953)" gradientUnits="userSpaceOnUse"><stop stop-opacity=".5" offset="0"/><stop stop-opacity="0" offset="1"/></radialGradient><radialGradient id="k" cx="54.548" cy="23.063" r="1.3229" gradientTransform="matrix(-.5 .6 -.9838 -.81984 103.14 8.6686)" gradientUnits="userSpaceOnUse"><stop stop-color="#d6cbae" offset="0"/><stop stop-color="#9d9786" offset="1"/></radialGradient><linearGradient id="z" x1="52.652" x2="55.298" y1="21.96" y2="24.606" gradientUnits="userSpaceOnUse"><stop stop-color="#bab28d" offset="0"/><stop stop-color="#b8b389" stop-opacity="0" offset=".49832"/></linearGradient><linearGradient id="y" x1="53.446" x2="55.033" y1="22.754" y2="24.342" gradientUnits="userSpaceOnUse"><stop stop-color="#9d9786" offset="0"/><stop stop-color="#77705f" offset="1"/></linearGradient><radialGradient id="j" cx="33.351" cy="13.565" r="25.792" gradientTransform="matrix(-1.0105 0 3.9159e-5 -.17787 68.264 39.237)" gradientUnits="userSpaceOnUse"><stop offset=".24916"/><stop stop-opacity="0" offset="1"/></radialGradient><linearGradient id="ag" x1="11.774" x2="55.959" y1="6.2177" y2="35.057" gradientTransform="matrix(1.0104 0 0 .99693 -.35143 -.3798)" gradientUnits="userSpaceOnUse"><stop stop-color="#74706d" offset="0"/><stop stop-color="#7e7a77" offset="1"/></linearGradient><radialGradient id="m" cx="19.05" cy="10.065" r="17.595" gradientTransform="matrix(1.1851 -.44974 .1864 .4782 -5.5561 16.036)" gradientUnits="userSpaceOnUse"><stop stop-color="#fff" stop-opacity=".2" offset="0"/><stop stop-color="#fff" stop-opacity="0" offset="1"/></radialGradient><radialGradient id="s" cx=".68139" cy="1.3876" r=".86725" gradientTransform="matrix(-1.8367 -1.8367 5.5102 -5.5102 19.906 33.774)" gradientUnits="userSpaceOnUse"><stop stop-color="#fff" offset=".10204"/><stop stop-color="#9ff" stop-opacity=".8" offset=".39796"/><stop stop-color="#3376ff" stop-opacity=".6" offset=".69558"/><stop stop-color="#4500cc" stop-opacity=".4" offset=".84779"/><stop stop-color="#206" stop-opacity=".2" offset="1"/></radialGradient><linearGradient id="as" x1="4.0058" x2="4.4395" y1="-.3511" y2=".42439" gradientTransform="matrix(3.6735 0 0 3.6078 21.143 21.753)" gradientUnits="userSpaceOnUse"><stop stop-color="#142900" offset="0"/><stop stop-color="#366d00" offset="1"/></linearGradient><linearGradient id="aq" x1=".53685" x2="1.8377" y1="-2.2247" y2="-.90016" gradientTransform="matrix(3.6735 0 0 3.6078 21.143 21.753)" gradientUnits="userSpaceOnUse"><stop stop-color="#52a300" offset="0"/><stop stop-color="#366d00" offset="1"/></linearGradient><linearGradient id="ah" x1="3.1386" x2="4.8731" y1="-2.6662" y2="-.90016" gradientTransform="matrix(3.6735 0 0 3.6078 21.143 21.753)" gradientUnits="userSpaceOnUse"><stop stop-color="#af5" offset="0"/><stop stop-color="#5a0" offset="1"/></linearGradient><radialGradient id="u" cx="6.6773" cy="-.52326" r=".55751" gradientTransform="matrix(1.5082e-7 5 -5 6.3394e-7 32.644 -18.398)" gradientUnits="userSpaceOnUse"><stop stop-color="#fff" offset="0"/><stop stop-color="#9accff" offset=".098639"/><stop stop-color="#0080ff" offset=".7466"/><stop stop-color="#001a33" offset="1"/></radialGradient></defs><g transform="matrix(.47458 0 0 .47458 .86102 -.72648)" style="mix-blend-mode:normal"><path d="m3.1871 49.182 6.145-6.1451c0.52917-0.52917 0.76954-0.52902 1.5633-0.52902l45.943-1.42e-4c0.79375 0 1.0341 0 1.5633 0.52917l6.145 6.1451z" fill="url(#aa)" style="mix-blend-mode:normal"/><path d="m4.4979 48.641h58.737c1.0261 0 1.8521 0.82603 1.8521 1.8521v0.37798h-62.442l2e-7 -0.37798c5e-7 -1.0261 0.82603-1.8521 1.8521-1.8521z" fill="#edf1ea" stroke-linecap="round" stroke-linejoin="round" stroke-width=".26458" style="mix-blend-mode:normal"/><path d="m4.2333 49.477h59.267c0.79375 0 1.5875 0.66146 1.5875 1.3229v12.7c0 0.87948-0.70802 1.5875-1.5875 1.5875h-59.267c-0.87948 0-1.5875-0.70802-1.5875-1.5875v-12.7c0-0.66146 0.79375-1.3229 1.5875-1.3229z" fill="url(#ap)"/><g transform="matrix(.97253 0 0 .97253 -.098856 1.5308)" stroke-linecap="round" stroke-linejoin="round" stroke-opacity=".5" stroke-width=".26458" style="mix-blend-mode:normal"><rect x="5.8208" y="53.446" width="3.175" height="3.175" rx="7.3437e-18" ry="7.3437e-18" fill="url(#x)" stroke="#000" style="mix-blend-mode:normal;paint-order:markers stroke fill"/><path id="c" d="m6.936 53.785h-0.37074v-0.07495h0.37074zm0 0.14541h-0.37074v-0.07495h0.37074zm-0.13143 0.13342h-0.23931v-0.06446h0.23931zm-0.3633-0.27883h-0.35586v-0.07495h0.35586zm0.3633 0.41224h-0.60013v-0.06596h0.60013zm-0.3633-0.26683h-0.35586v-0.07495h0.35586zm0.3633 0.54566h-0.23931v-0.08395h0.23931zm-0.3633-0.41224h-0.23683v-0.06446h0.23683zm0.49474 0.55915h-0.37074v-0.07495h0.37074zm-0.13143-0.29682h-0.60013v-0.06895h0.60013zm0.13143 0.44222h-0.37074v-0.07346h0.37074zm-0.49474-0.29232h-0.23683v-0.08395h0.23683zm0 0.14691h-0.35586v-0.07495h0.35586zm0 0.14541h-0.35586v-0.07346h0.35586zm1.2467-0.98338h-0.40174l0.00992-0.07495h0.38066zm0.042159 0.28332h-0.21823l-0.00992-0.06895h0.21699zm-0.02108-0.13791h-0.21699l-0.0062-0.04648-0.0062 0.04648h-0.21451l0.00992-0.07495h0.42282zm0.040918 0.27433h-0.21823l-0.00992-0.06895h0.21699zm-0.28023-0.20537-0.011159 0.06895h-0.21327l0.00992-0.06895zm0.45134 0.62361h-0.34842l-0.00868-0.07495h0.35711zm-0.15127-0.28182h-0.56417l0.00992-0.06746h0.54433zm-0.3199-0.20537-0.011159 0.06895h-0.21327l0.00992-0.06895zm0.47118 0.6326h-0.33106l-0.00868-0.07346h0.33974zm-0.13143-0.29232h-0.60261l0.00992-0.06895h0.58277zm-0.3819 0.07196-0.00868 0.07495h-0.34966v-0.07495zm-0.01736 0.14691-0.00868 0.07346h-0.3323v-0.07346zm1.1289-0.90993h-0.47366v-0.07495h0.47366zm0 0.14541h-0.47366v-0.07495h0.47366zm0.21203 0.54566h-0.22319v-0.08395h0.22319zm-0.32982-0.41224h-0.23807v-0.06446h0.23807zm0 0.13342h-0.23807v-0.06596h0.23807zm0 0.12892h-0.23807v-0.06895h0.23807zm0 0.1499h-0.23807v-0.08395h0.23807zm0.32982 0.14691h-0.68569v-0.07495h0.68569zm0 0.14541h-0.68569v-0.07346h0.68569z" stroke-linecap="round" stroke-linejoin="round" stroke-opacity=".5" stroke-width=".26458" style="mix-blend-mode:normal;paint-order:markers stroke fill" aria-label="HAL"/><path d="m6.3964 56.141q0.00754 0.0052 0.00754 0.01851 0 0.02666-0.031824 0.0476-0.031823 0.02066-0.087656 0.02066-0.074534 0-0.11641-0.0389-0.041594-0.03888-0.041594-0.11015 0-0.10553 0.067556-0.18249 0.067556-0.07724 0.16805-0.07724 0.049969 0 0.077884 0.01687 0.027915 0.0166 0.027915 0.04515 0 0.01986-0.015353 0.03154-0.015353 0.01175-0.040758 0.01175 0-0.07559-0.056948-0.07559-0.070626 0-0.11836 0.07506-0.047457 0.07479-0.047457 0.16373 0 0.10416 0.10161 0.10416 0.066159 0 0.1058-0.05059zm0.25375-0.22274q0.050527 0 0.079559 0.02964 0.029033 0.02964 0.029033 0.08567 0 0.07424-0.04662 0.13436-0.046619 0.05983-0.12255 0.05983-0.051644 0-0.080675-0.03047-0.029033-0.03046-0.029033-0.08458 0-0.07506 0.046898-0.13462 0.047176-0.05983 0.12339-0.05983zm-0.054156 0.28231q0.047176 0 0.075093-0.05439 0.028194-0.05466 0.028194-0.12104 0-0.0775-0.055832-0.0775-0.04662 0-0.075372 0.05466t-0.028752 0.12157q0 0.0767 0.056669 0.0767zm0.44441 0.02175h-0.054436q0-0.0125 0.00726-0.05766 0.00726-0.04541 0.012284-0.06771l0.013128-0.05766q0.00837-0.03372 0.00837-0.05196 0-0.03291-0.02624-0.03291-0.031824 0-0.0656 0.04243-0.033498 0.04215-0.042431 0.08294l-0.030708 0.14251h-0.053319l0.048014-0.22383q0.00335-0.01549 0.00335-0.02502 0-0.02638-0.039919-0.02638h-0.00447l0.00502-0.02339h0.1058l-0.015353 0.07017h0.00559q0.046339-0.07506 0.10412-0.07506 0.061135 0 0.061135 0.06172 0 0.0068-0.00112 0.01332h0.00559q0.04662-0.07506 0.10412-0.07506 0.061135 0 0.061135 0.06173 0 0.01768-0.010319 0.0612l-0.014796 0.06582q-0.00726 0.03236-0.00726 0.05847 0 0.02665 0.01982 0.02665 0.016471 0 0.03657-0.01278l0.010319 0.01631q-0.03629 0.03155-0.069788 0.03155-0.023448 0-0.037685-0.01496t-0.014237-0.04053 0.010887-0.07535l0.00978-0.04352q0.011993-0.05358 0.011993-0.06609 0-0.03291-0.026521-0.03291-0.029311 0-0.060576 0.03671-0.031265 0.03644-0.043827 0.07642l-0.00921 0.03998q-0.00362 0.01522-0.010043 0.05956-0.00642 0.04432-0.00642 0.05521zm0.36402 0.11043-0.00502 0.02339h-0.10748l0.075931-0.35329q0.00502-0.02339 0.00502-0.02936 0-0.02638-0.039919-0.02638h-0.00447l0.00502-0.02339h0.10134l-0.013681 0.07424h0.00278q0.041315-0.07969 0.10468-0.07969 0.034895 0 0.053597 0.02583 0.018983 0.02584 0.018983 0.07479 0 0.07479-0.048014 0.14197-0.047735 0.06689-0.12255 0.06689-0.032661 0-0.055831-0.01278-0.00252 0.01796-0.00474 0.02692l-0.00782 0.034q-0.0053 0.02313-0.0053 0.031 0 0.02583 0.039919 0.02583zm-0.020658-0.14986q0.018424 0.01986 0.045223 0.01986 0.047735 0 0.080675-0.06066 0.03322-0.06092 0.03322-0.12374 0-0.065-0.036012-0.065-0.02959 0-0.059738 0.04025-0.030149 0.03998-0.039919 0.08322zm0.27971-0.25919h0.10636l-0.037687 0.16672q-0.011454 0.05059-0.011454 0.06717 0 0.034 0.027915 0.034 0.029311 0 0.063088-0.04106 0.034057-0.04135 0.044386-0.08813l0.02987-0.1387h0.055273l-0.03936 0.17896q-0.00865 0.03944-0.00865 0.06172 0 0.02829 0.018983 0.02829 0.01619 0 0.03657-0.01225l0.010319 0.01631q-0.03629 0.031-0.07258 0.031-0.021495 0-0.034895-0.01496-0.013128-0.01496-0.013128-0.03781 0-0.01441 0.00278-0.03289h-0.00447q-0.030986 0.04977-0.055552 0.06745-0.024287 0.01768-0.054993 0.01768-0.061135 0-0.061135-0.06173 0-0.01768 0.010319-0.06119l0.022333-0.09763q0.00502-0.02204 0.00502-0.03318 0-0.02638-0.039919-0.02638h-0.00447zm0.4768 0.25674 0.00978 0.02066q-0.038524 0.02665-0.077047 0.02665-0.062251 0-0.062251-0.065 0-0.02093 0.00559-0.04678l0.034895-0.16046h-0.043548l0.0053-0.0223q0.055831 0 0.087375-0.07806h0.02624l-0.014796 0.06854h0.06923l-0.00697 0.03183h-0.06923l-0.034614 0.15883q-0.00697 0.03209-0.00697 0.04787 0 0.03046 0.030427 0.03046 0.02317 0 0.046619-0.01225zm0.26771-0.02773q0.00587 0.0036 0.00587 0.01387 0 0.02228-0.027078 0.04189-0.026799 0.01931-0.072022 0.01931-0.049969 0-0.080675-0.03074-0.030708-0.03074-0.030708-0.08431 0-0.07289 0.048294-0.13354 0.048294-0.06092 0.12199-0.06092 0.03629 0 0.056109 0.01687 0.020099 0.01687 0.020099 0.04705 0 0.04515-0.048294 0.0786-0.048014 0.03345-0.11752 0.03345h-0.00978q-0.00502 0-0.010319-5.43e-4 -0.00112 0.0076-0.00112 0.02339 0 0.07559 0.06281 0.07559 0.048851 0 0.082351-0.03997zm-0.13874-0.08458h0.00559q0.050526 0 0.083188-0.02395 0.032939-0.02393 0.032939-0.06201 0-0.03726-0.03322-0.03726-0.027635 0-0.051644 0.034-0.024007 0.03372-0.036848 0.08921zm0.41454-0.06908q0-0.04405-0.022891-0.04405-0.026521 0-0.056389 0.05086-0.02959 0.05086-0.043827 0.11504l-0.021495 0.10145h-0.053318l0.048014-0.22383q0.00335-0.01549 0.00335-0.02501 0-0.02638-0.045502-0.02638h-0.00474l0.0053-0.02339h0.10105l-0.011993 0.08023h0.00587q0.022889-0.04977 0.045223-0.06771 0.022333-0.01795 0.051922-0.01795 0.046898 0 0.046898 0.03835 0 0.04241-0.047457 0.04241zm-2.5984-0.27802 0.00502-0.02339h0.00754q0.026799 0 0.038802-0.01011 0.011993-0.01011 0.01619-0.02992l0.05946-0.27306q0.00224-0.01035 0.00224-0.01549 0-0.02229-0.041314-0.02229h-0.00726l0.00502-0.02339h0.14656q0.061972 0 0.09603 0.02801 0.034057 0.02801 0.034057 0.07941 0 0.06337-0.043827 0.09954-0.043548 0.03591-0.13092 0.03591h-0.04243l-0.020377 0.09356q-0.00252 0.01149-0.00252 0.01549 0 0.0223 0.041315 0.0223h0.018702l-0.00502 0.02339zm0.15102-0.18113h0.030149q0.12059 0 0.12059-0.10852 0-0.08132-0.083468-0.08132h-0.02624zm0.44414 0.1115q0.00587 0.0036 0.00587 0.01387 0 0.02229-0.027077 0.04188-0.026799 0.01931-0.072022 0.01931-0.049969 0-0.080675-0.03074-0.030708-0.03074-0.030708-0.08429 0-0.07289 0.048294-0.13354 0.048294-0.06092 0.12199-0.06092 0.036289 0 0.056109 0.01687 0.020099 0.01686 0.020099 0.04705 0 0.04514-0.048294 0.0786-0.048014 0.03345-0.11752 0.03345h-0.00978q-0.00502 0-0.01032-5.44e-4 -0.00112 0.0076-0.00112 0.02339 0 0.07559 0.06281 0.07559 0.048851 0 0.082351-0.03997zm-0.13874-0.08458h0.00559q0.050527 0 0.083188-0.02395 0.032939-0.02395 0.032939-0.06201 0-0.03726-0.03322-0.03726-0.027637 0-0.051644 0.034-0.024007 0.03372-0.036848 0.08921zm0.41454-0.06908q0-0.04406-0.022891-0.04406-0.026521 0-0.056389 0.05086-0.02959 0.05085-0.043827 0.11504l-0.021495 0.10145h-0.053319l0.048014-0.22383q0.00335-0.01549 0.00335-0.02502 0-0.02638-0.045501-0.02638h-0.00474l0.0053-0.02339h0.10105l-0.011993 0.08023h0.00587q0.022891-0.04977 0.045223-0.06773 0.022333-0.01795 0.051922-0.01795 0.046898 0 0.046898 0.03834 0 0.04243-0.047457 0.04243zm0.25124 7e-3q0-0.02801-0.013681-0.04488-0.013404-0.01687-0.037685-0.01687-0.025682 0-0.040758 0.01358-0.014796 0.01334-0.014796 0.03427 0 0.01851 0.014237 0.03155 0.014237 0.01305 0.044107 0.02583 0.068673 0.02992 0.068673 0.08648 0 0.04106-0.032383 0.06636-0.032382 0.0253-0.08598 0.0253-0.04327 0-0.068951-0.01687-0.025403-0.01713-0.025403-0.04596 0-0.01796 0.010043-0.02721 0.010319-0.0095 0.025962-0.0095 0 0.03454 0.017028 0.05385 0.017308 0.01904 0.048294 0.01904 0.061694 0 0.061694-0.05168 0-0.01986-0.013128-0.03345-0.013128-0.01387-0.044664-0.02801-0.041036-0.01903-0.055273-0.03917-0.013959-0.02041-0.013959-0.04705 0-0.03644 0.030427-0.05956 0.030708-0.02339 0.079837-0.02339 0.042152 0 0.0656 0.01523 0.023728 0.01525 0.023728 0.03753 0 0.03456-0.042989 0.03456zm0.25319-0.08784q0.050526 0 0.079559 0.02964t0.029033 0.08567q0 0.07424-0.046619 0.13435-0.04662 0.05983-0.12255 0.05983-0.051644 0-0.080675-0.03046-0.029033-0.03047-0.029033-0.08458 0-0.07506 0.046898-0.13463 0.047176-0.05983 0.12339-0.05983zm-0.054156 0.28234q0.047176 0 0.075092-0.05439 0.028196-0.05466 0.028196-0.12104 0-0.0775-0.055831-0.0775-0.046619 0-0.075372 0.05466-0.028752 0.05466-0.028752 0.12158 0 0.0767 0.056668 0.0767zm0.26603 0.02175h-0.053319l0.048014-0.22383q0.00335-0.01549 0.00335-0.02501 0-0.02639-0.039919-0.02639h-0.00447l0.00502-0.02339h0.1058l-0.015353 0.07018h0.00559q0.046339-0.07506 0.10412-0.07506 0.061135 0 0.061135 0.06173 0 0.01768-0.010319 0.0612l-0.014796 0.06582q-0.00754 0.03345-0.00754 0.05848 0 0.02665 0.020099 0.02665 0.016471 0 0.03657-0.01278l0.010319 0.01631q-0.037407 0.03154-0.069788 0.03154-0.023728 0-0.037965-0.01496-0.013958-0.01496-0.013958-0.04053t0.010886-0.07535l0.013128-0.05766q0.00837-0.03372 0.00837-0.05196 0-0.03289-0.02624-0.03289-0.031824 0-0.065322 0.04189-0.03322 0.04188-0.042711 0.0835zm0.47289-0.08405h-0.00362q-0.041036 0.08949-0.10692 0.08949-0.034895 0-0.054436-0.02666-0.019261-0.02692-0.019261-0.07506 0-0.0767 0.048851-0.14224 0.049132-0.06554 0.12143-0.06554 0.038801 0 0.066997 0.02013l0.025123-0.01414h0.018424l-0.039081 0.1784q-0.00837 0.03835-0.00837 0.06173 0 0.02829 0.018702 0.02829 0.01619 0 0.041315-0.01441l0.010319 0.01631q-0.041036 0.03318-0.080675 0.03318-0.044664 0-0.044664-0.04623 0-0.01768 0.00587-0.04324zm0.032383-0.17488q-0.013128-0.02013-0.04327-0.02013-0.048851 0-0.082071 0.06066-0.032939 0.06038-0.032939 0.12429 0 0.06445 0.036011 0.06445 0.028474 0 0.059739-0.04106 0.031265-0.04107 0.041315-0.08975zm0.14767-0.14088 0.00502-0.02339h0.10803l-0.066158 0.30352q-0.00865 0.03972-0.00865 0.06173 0 0.02829 0.018983 0.02829 0.016471 0 0.041036-0.01441l0.010319 0.01631q-0.03964 0.03318-0.077325 0.03318-0.020658 0-0.034057-0.01469-0.013127-0.01469-0.013127-0.03809 0-0.02639 0.01256-0.08758l0.046619-0.21377q0.00362-0.0166 0.00362-0.02502 0-0.0261-0.040199-0.0261z" style="mix-blend-mode:normal;paint-order:markers stroke fill"/></g><g style="mix-blend-mode:normal"><path id="a" d="m5.1547 58.119v3.9026" fill="none" stroke="#000" stroke-linecap="round" stroke-linejoin="round" stroke-width=".55752" style="paint-order:markers stroke fill"/><use transform="translate(1.115)" xlink:href="#a"/><use id="i" transform="translate(2.2301)" xlink:href="#a"/><use transform="translate(1.115)" xlink:href="#i"/><use transform="translate(4.4601)" xlink:href="#a"/><use transform="translate(5.5751)" xlink:href="#a"/><use transform="translate(6.6902)" xlink:href="#a"/><use transform="translate(7.8052)" xlink:href="#a"/><use transform="translate(8.9202)" xlink:href="#a"/><use transform="translate(10.035)" xlink:href="#a"/><use transform="translate(11.15)" xlink:href="#a"/><use transform="translate(12.265)" xlink:href="#a"/><use transform="translate(13.38)" xlink:href="#a"/><use transform="translate(14.495)" xlink:href="#a"/></g><g transform="matrix(1.0255 0 0 1.0302 -.90368 -1.7275)"><rect x="23.033" y="51.329" width="38.6" height="10.283" fill="url(#at)" stroke-linecap="round" stroke-linejoin="round" stroke-opacity=".5" stroke-width=".26747" style="mix-blend-mode:normal;paint-order:markers stroke fill"/><g transform="matrix(.99804 0 0 1.0227 .075076 -1.1666)" style="mix-blend-mode:normal"><rect x="23.548" y="51.329" width="18.521" height="10.054" fill="url(#f)" fill-opacity=".50216" style="mix-blend-mode:normal;paint-order:markers stroke fill"/><path d="m24.637 56.092h5.7197v-3.175h4.9026v3.175h5.7197v0.52917h-5.7197v3.175h-4.9026v-3.175h-5.7197z" fill="url(#af)" stroke-linecap="round" stroke-opacity=".75" stroke-width=".51013" style="mix-blend-mode:normal;paint-order:stroke markers fill"/><rect x="28.995" y="56.092" width=".54473" height=".52917" fill="url(#ac)" style="mix-blend-mode:normal;paint-order:stroke markers fill"/><rect x="36.077" y="56.092" width=".54473" height=".52917" fill="url(#ab)" style="mix-blend-mode:normal;paint-order:stroke markers fill"/><g stroke-linecap="round" stroke-opacity=".75"><path d="m24.637 56.621-0.54473 0.52917h6.2644v-0.52917zm10.622 0v0.52917h6.2644l-0.54473-0.53896z" fill="#fff" fill-opacity=".5" stroke-width=".52917" style="mix-blend-mode:normal;paint-order:stroke markers fill"/><path d="m24.093 55.562 0.54473 0.52917h5.7197v-0.52917zm11.167 0v0.52917h5.7197l0.54473-0.52917z" fill-opacity=".5" stroke-width=".52917" style="mix-blend-mode:normal;paint-order:stroke markers fill"/><path d="m30.357 59.796 1.0895-2.1167h-1.0895z" fill="url(#ae)" stroke-width=".53689" style="paint-order:stroke markers fill"/></g><rect x="30.629" y="53.181" width="4.3578" height="4.2333" fill="url(#ad)" style="mix-blend-mode:normal;paint-order:stroke markers fill"/><ellipse cx="27.361" cy="58.737" rx=".54473" ry=".52917" fill="url(#q)" style="paint-order:stroke markers fill"/><path d="m27.818 58.638c0.05732 0.16312-0.05603 0.43691-0.31961 0.52439-0.12693 0.04213-0.44397 0.08033-0.5421-0.19571-0.05888-0.16564 0.09083 0.13161 0.47535 0.0027 0.34576-0.11599 0.32813-0.49703 0.38636-0.33131z" fill="url(#p)" stroke-linecap="round" stroke-opacity=".75" stroke-width=".71586" style="paint-order:stroke markers fill"/><use transform="matrix(1.0294 0 0 1 18.373 -1.3229)" fill="#000000" stroke-width=".98561" style="mix-blend-mode:normal" xlink:href="#c"/></g><g transform="matrix(.99804 0 0 1.0227 .090606 -1.1666)" style="mix-blend-mode:normal"><rect x="42.598" y="51.329" width="18.521" height="10.054" fill="url(#f)" fill-opacity=".50216" style="mix-blend-mode:normal;paint-order:markers stroke fill"/><rect x="43.687" y="58.208" width="16.342" height="1.5875" style="mix-blend-mode:normal;paint-order:stroke markers fill"/><path d="m49.135 58.208v0.52917h-5.4473v0.52917h5.4473v0.52917h0.54473v-0.52917h1.6342v0.52917h0.54473v-0.52917h1.6342v0.52917h0.54473v-0.52917h1.6342v0.52917h0.54473v-0.52917h1.6342v0.52917h0.54473v-0.52917h1.6342v-0.52917h-1.6342v-0.52917h-0.54473v0.52917h-1.6342v-0.52917h-0.54473v0.52917h-1.6342v-0.52917h-0.54473v0.52917h-1.6342v-0.52917h-0.54473v0.52917h-1.6342v-0.52917z" fill="#333" style="mix-blend-mode:normal;paint-order:stroke markers fill"/><rect x="45.322" y="58.208" width="2.1789" height="1.5875" fill="#fff" fill-opacity=".75" style="paint-order:stroke markers fill"/><rect x="45.866" y="58.737" width="1.0895" height=".52917" fill="#c00" style="mix-blend-mode:normal;paint-order:stroke markers fill"/><use transform="translate(37.571 -1.3229)" fill="#000000" style="mix-blend-mode:normal" xlink:href="#c"/></g><rect x="23.033" y="51.329" width="38.6" height="1.0824" fill="url(#ar)" style="mix-blend-mode:normal;paint-order:stroke markers fill"/><g stroke-linecap="round" stroke-linejoin="round" stroke-opacity=".5" stroke-width=".26458"><path d="m23.033 51.329 0.27183 9.7415c0.0043 0.33809 0.17582 0.54465 0.54366 0.54119h36.969c0.31779-0.01102 0.54998-0.15114 0.54366-0.54119l0.27183-9.7415c0.29896-4e-6 0.54367 0.24803 0.54367 0.54119v10.824c0 0.29316-0.25051 0.54119-0.54367 0.54119l-38.6 7e-6c-0.29316 0-0.54366-0.24804-0.54366-0.5412l1e-6 -10.824c0-0.29316 0.25051-0.54119 0.54366-0.54119z" fill="url(#ai)" style="paint-order:markers stroke fill"/><path d="m23.033 51.329 0.27183 9.7415c0.0043 0.33809 0.17582 0.54465 0.54366 0.54119l-0.8155 1.6236c-0.29316 0-0.54366-0.24804-0.54366-0.54119l1e-6 -10.824c0-0.29316 0.25051-0.54119 0.54366-0.54119z" fill="url(#v)" style="paint-order:markers stroke fill"/><path d="m61.633 51.329-0.27183 9.7415c-0.0043 0.33809-0.17582 0.54465-0.54366 0.54119l0.8155 1.6236c0.29316 0 0.54366-0.24804 0.54366-0.54119l1e-6 -10.824c0-0.29316-0.25051-0.54119-0.54366-0.54119z" fill="url(#t)" style="paint-order:markers stroke fill"/></g></g></g><g transform="matrix(.47458 0 0 .47458 .86102 2.6326)"><path d="m59.562 36.824 0.66487 2.2938c0.27195 0.93823 0.14277 1.7505-0.93082 1.784-8.0653 0.20448-16.133 0.3823-24.201 0.3823s-16.136-0.17782-24.201-0.3823c-1.1005 0.06376-1.8414-0.90326-1.9946-1.784l-0.39892-2.2938z" fill="url(#j)" style="paint-order:normal"/><path d="m10.074 2.6536c7.9279-0.24702 15.86-0.39566 23.792-0.39566s15.864 0.14863 23.792 0.39566c1.1344 0.035345 2.0522 0.073904 2.1386 1.9783 0.24318 5.3587 0.28961 10.726 0.26733 16.09-0.02228 5.3649-0.11734 10.732-0.40099 16.09-0.05975 1.0061-0.39115 1.8116-1.4703 1.8464-8.1072 0.21162-16.217 0.39566-24.327 0.39566s-16.22-0.18403-24.327-0.39566c-1.1062 0.065982-1.3787-0.92669-1.4703-1.8464-0.28365-5.3576-0.37871-10.725-0.40099-16.09-0.02228-5.364 0.024151-10.731 0.26733-16.09 0.086422-1.9044 1.0043-1.9429 2.1386-1.9783z" fill="url(#ao)" style="paint-order:normal"/><path d="m33.867 2.3973c-7.9284 0-15.857 0.15066-23.782 0.39753-1.1876 0.036996-1.9295 0.10667-2.0087 1.8507-0.24298 5.353-0.29059 10.715-0.26832 16.076 0.022264 5.3612 0.11695 10.687 0.40038 16.039 0.12206 1.4981 0.68586 1.7836 1.3416 1.7768 8.1048 0.2115 16.211 0.37756 24.316 0.37757h1e-3c8.1059-1.6e-5 16.212-0.18551 24.316-0.39702 0.60613-0.0195 1.2558-0.27668 1.3416-1.7204 0.28344-5.3521 0.37813-10.715 0.40039-16.076 0.02231-5.3604-0.012-10.723-0.26828-16.076-0.083967-1.7536-0.82443-1.8204-2.0087-1.8507-7.9263-0.20274-15.853-0.39753-23.782-0.39753z" fill="none" stroke="url(#am)" stroke-linecap="round" stroke-width=".27876"/><rect x="11.545" y="5.8188" width="44.644" height="28.751" rx="7.3757e-18" ry="7.3889e-18" fill="url(#ag)" fill-opacity=".75" style="mix-blend-mode:normal"/><g><rect x="50.592" y="6.1605" width=".55751" height="28.155" fill="url(#aj)" style="paint-order:fill markers stroke"/><path d="m33.867 4.8956c-6.9948 0-13.989 0.12647-20.981 0.33332-1.0478 0.030998-1.7028 0.089393-1.7726 1.5507-0.21437 4.4852-0.25617 8.9779-0.23652 13.469 0.01964 4.4921 0.10342 8.9854 0.35348 13.47 0.07569 1.2097 0.64844 1.4251 1.1831 1.4415 7.1504 0.17722 14.302 0.33279 21.453 0.3328h1e-3c7.1514-1.1e-5 14.302-0.15559 21.453-0.3328 0.53475-0.01632 1.108-0.23179 1.1837-1.4415 0.25005-4.4844 0.33384-8.9777 0.35348-13.47 0.01968-4.4914-0.02214-8.9841-0.23652-13.469-0.069793-1.4613-0.7248-1.5197-1.7726-1.5507-6.9918-0.20685-13.986-0.33332-20.981-0.33332zm0 1.0551c6.7508 0 13.502 0.11755 20.25 0.31014 1.0112 0.028861 1.6426 0.083014 1.71 1.4435 0.20689 4.1759 0.24769 8.3593 0.22869 12.541-0.01895 4.1823-0.09961 8.3658-0.34095 12.541-0.07304 1.1263-0.62632 1.3268-1.1424 1.342-6.901 0.165-13.803 0.30961-20.704 0.30962h-1e-3c-6.9019-1e-5 -13.803-0.14462-20.704-0.30962-0.51605-0.01521-1.0694-0.21574-1.1424-1.342-0.24133-4.1752-0.32199-8.3587-0.34095-12.541-0.01896-4.1816 0.0218-8.3651 0.22869-12.541 0.0674-1.3605 0.69874-1.4147 1.71-1.4435 6.7479-0.19259 13.499-0.31014 20.25-0.31014z" fill="url(#an)"/><rect x="13.683" y="6.8739" width="35.555" height="26.113" rx="7.4199e-18" ry="7.3211e-18"/></g><path d="m24.708 23.284c0 1.5929 1.5929 3.1858 3.1858 3.1858-1.5929 3.1858-4.7787 3.1858-7.9645 4.7787 1.5929-3.1858 1.5929-6.3716 4.7787-7.9645z" fill="url(#s)" stroke-linecap="round" stroke-linejoin="round" stroke-miterlimit="3.3" stroke-width="1.5929"/><g stroke-linecap="round" stroke-linejoin="round" stroke-miterlimit="3.3"><g stroke-width="1.5929"><path d="m30.671 20.486c2.3962 2.3893 3.5943 5.9768 3.5943 10.762 3.1858-3.1858 4.7787-12.743 1.5929-15.929z" fill="url(#as)"/><path d="m19.929 16.913c4.7719 0 8.3525 1.1913 10.742 3.5738l5.1872-5.1667c-3.1858-3.1858-12.743-1.5929-15.929 1.5929z" fill="url(#aq)"/><path d="m42.229 8.9481c0 9.5574-7.9645 14.336-14.336 17.522-1.5929 0-3.1858-1.5929-3.1858-3.1858 3.1858-6.3716 7.9645-14.336 17.522-14.336z" fill="url(#ah)"/></g><circle cx="35.725" cy="15.452" r="1.6725" fill="url(#u)" stroke="#000" stroke-opacity=".25" stroke-width=".46457" style="paint-order:stroke fill markers"/></g><rect x="13.683" y="6.8739" width="35.555" height="26.113" rx="7.4199e-18" ry="7.3211e-18" fill="url(#m)"/><path d="m13.55 6.4783c-0.2962 0-0.53466 0.23528-0.53466 0.52754v25.85c0 0.29226 0.23846 0.52754 0.53466 0.52754 0 0 11.941 0.26377 17.911 0.26377s17.911-0.26377 17.911-0.26377c0.2962 0 0.53466-0.23528 0.53466-0.52754v-25.85c0-0.29226-0.23846-0.52754-0.53466-0.52754zm17.911 0.52754c5.6167 5e-7 11.229 0.3129 16.842 0.52754 0.3443 0.013165 0.52214 0.14462 0.53466 0.52754 0.48977 7.8338 0.46118 15.916 0 23.739-0.01555 0.26374-0.26733 0.50885-0.53466 0.52754-5.5224 0.38614-11.305 0.52754-16.842 0.52754-5.4474 0-11.141-0.14166-16.574-0.52754-0.26733-0.01898-0.50032-0.26514-0.53466-0.52754-1.0208-7.8012-0.52424-15.904-0.26733-23.739 0.01253-0.38287 0.19029-0.51437 0.53466-0.52754 5.6125-0.21464 11.228-0.52754 16.842-0.52754z" fill="url(#ak)" stroke-miterlimit="3.6" stroke-opacity=".5" stroke-width=".26554" style="paint-order:fill markers stroke"/><g transform="matrix(.84198 0 0 .83077 5.7071 1.5704)" stroke-width="1.2" style="mix-blend-mode:normal"><rect x="54.633" y="8.8805" width="3.9729" height="4.6976" rx="8.8124e-18" ry="8.8124e-18" fill="url(#w)" style="mix-blend-mode:normal;paint-order:markers stroke fill"/><use transform="matrix(1.2513 0 0 1.2682 47.348 -58.897)" stroke-width="1.1431" style="mix-blend-mode:normal" xlink:href="#c"/><g><path d="m57.134 10.908c-0.0096 0-0.01742 0.0039-0.02327 0.01154-0.0057 0.0075-0.0084 0.01781-0.0084 0.03029 0 0.0215 0.0099 0.03173 0.02975 0.03173 0.0093 0 0.01678-0.0032 0.02264-0.01005 6e-3 -0.0071 0.0091-0.01757 0.0091-0.03101 0-0.0217-0.0099-0.03245-0.02975-0.03245zm-1.1956 6.96e-4 -0.0045 0.02524h0.0045c0.0248 0 0.03685 9e-3 0.03685 0.02741 0 0.0035-0.0019 0.01373-0.0052 0.03101l-0.06854 0.3649h0.04914l0.02845-0.15144c0.0055-0.0288 0.01878-0.05749 0.03944-0.08726 0.02083-0.02995 0.04116-0.04543 0.06078-0.04543 0.01618 0 0.02457 0.0121 0.02457 0.03533 0 0.01287-0.0026 0.031-0.0077 0.05481l-0.01229 0.06129c-0.0067 0.03514-0.01032 0.06127-0.01032 0.07933 0 0.01805 0.0043 0.0327 0.01293 0.04327 0.0088 0.01056 0.02028 0.01586 0.03492 0.01586 0.01998 0 0.04159-0.01162 0.06466-0.0339l-0.0091-0.01731c-0.0124 9e-3 -0.02411 0.0137-0.03426 0.0137-0.0124 0-0.01875-0.0093-0.01875-0.02812 0-0.01766 0.0024-0.0384 0.0071-0.06202l0.01358-0.06995c0.0064-0.03073 0.0097-0.0517 0.0097-0.06418 0-0.04359-0.01854-0.06562-0.05625-0.06562-0.03598 0-0.06901 0.02632-0.09829 0.07933h-0.0052c0.0077-0.03304 0.01449-0.06582 0.0207-0.09808l0.02069-0.10817zm-0.89555 0.02741-0.0045 0.02452h0.0071c0.01515 0 0.02492 0.0024 0.02975 0.0072 0.0048 0.0048 0.0071 0.0117 0.0071 0.02091 0 0.0041-2.52e-4 9e-3 -0.0014 0.01442l-0.05496 0.2899c-0.0024 0.01229-0.0072 0.02174-0.01422 0.02885-0.0069 0.0069-0.0196 0.01005-0.03751 0.01005h-0.0071l-0.0039 0.02524h0.28386l0.02327-0.10312h-0.0278l-0.0084 0.02524c-0.01011 0.03226-0.03034 0.04832-0.06013 0.04832h-0.10152l0.03363-0.17668h0.12738l0.0052-0.02885h-0.12738l0.03039-0.15649h0.08859c0.02514 0 0.03751 0.01263 0.03751 0.03894 0 0.0016-4.18e-4 0.0073-0.0014 0.01659l-0.0014 0.01802h0.02781l0.01681-0.10312zm1.8978 0.03173c-0.01946 0.05511-0.04639 0.08294-0.08082 0.08294l-0.0045 0.0238h0.04009l-0.03234 0.17019c-0.0034 0.01825-0.0052 0.03425-0.0052 0.04904 0 0.0459 0.01914 0.06923 0.05755 0.06923 0.02376 0 0.04736-0.0093 0.07112-0.02812l-0.0091-0.02235c-0.01446 0.0087-0.02838 0.01298-0.04268 0.01298-0.01877 0-0.02845-0.01095-0.02845-0.03245 0-0.01114 0.0022-0.02782 0.0065-0.05048l0.03233-0.16803h0.06401l0.0065-0.03389h-0.06401l0.01358-0.07284zm0.83994 0.04398c-0.02134 0-0.04021 0.01398-0.0569 0.04183-0.01377-0.01248-0.03175-0.01875-0.05432-0.01875-0.03685 0-0.06667 0.01384-0.08924 0.04111-0.02239 0.02707-0.03363 0.05692-0.03363 0.09015 0 0.0336 0.01223 0.05709 0.03685 0.06995-0.01946 0.01114-0.03238 0.02112-0.03944 0.02956-0.0069 0.0085-0.01032 0.01819-0.01032 0.03029 0 0.01785 0.0083 0.03189 0.02522 0.0411-0.02669 0.0058-0.04787 0.0155-0.06337 0.03029-0.01533 0.01498-0.02263 0.03369-0.02263 0.05481 0 0.05128 0.03813 0.07644 0.1151 0.07644 0.04597 0 0.08125-0.01046 0.10604-0.03101 0.0248-0.02035 0.03751-0.04842 0.03751-0.08509 0-0.04494-0.02736-0.07063-0.08212-0.07716l-0.05108-0.0065c-0.01808-2e-3 -0.02651-0.0075-0.02651-0.01731 0-0.01344 0.01237-0.02617 0.03751-0.0375 0.0031 7.66e-4 0.0088 0.0015 0.01681 0.0015 0.03633 0 0.06572-0.01365 0.08794-0.04111 0.02221-0.02766 0.03297-0.05783 0.03297-0.09087 0-0.01805-0.0039-0.03314-0.01164-0.04543 0.0105-9e-3 0.01962-0.0137 0.02651-0.0137 0.0098 0 0.01422 0.0067 0.01422 0.02091 0.02083 0 0.03168-0.01167 0.03168-0.03605 0-0.01805-0.0094-0.02741-0.02716-0.02741zm-1.9793 0.02308c-0.04545 0-0.08337 0.02188-0.11316 0.0649-0.02979 0.04282-0.04462 0.08987-0.04462 0.14134 0 0.03783 0.0095 0.06772 0.02846 0.08943 0.01895 0.0217 0.04419 0.03245 0.075 0.03245 0.02789 0 0.05007-0.0073 0.0666-0.02092 0.0167-0.01384 0.02458-0.02824 0.02458-0.04399 0-0.0073-0.0016-0.01263-0.0052-0.01514-0.01998 0.02822-0.04547 0.04254-0.0763 0.04254-0.03874 0-0.05819-0.02666-0.05819-0.08005 0-0.03937 0.0096-0.07933 0.02781-0.12043 0.01842-0.0411 0.03939-0.06202 0.06401-0.06202 0.01274 0 0.02316 0.0066 0.03038 0.01947 0.0072 0.01267 0.011 0.02955 0.011 0.05048 0.01429 0 0.02518-0.0037 0.03363-0.01154 0.0087-0.0078 0.01293-0.01838 0.01293-0.03029 0-0.01613-0.0065-0.0289-0.02005-0.03966-0.0136-0.01075-0.03263-0.01659-0.0569-0.01659zm0.57419 0c-0.0446 0-0.08221 0.02295-0.11251 0.06923-0.03013 0.04628-0.04526 0.09656-0.04526 0.15072 0 0.03399 0.0063 0.06103 0.0181 0.08005 0.01205 0.01882 0.02891 0.02812 0.05044 0.02812 0.04064 0 0.07362-0.03201 0.09893-0.09519h0.0032c-0.0036 0.01805-0.0052 0.03368-0.0052 0.04615 0 0.03264 0.01384 0.04904 0.04138 0.04904 0.02445 0 0.04905-0.01191 0.07436-0.03534l-0.0097-0.01731c-0.0155 0.01015-0.02816 0.01514-0.03814 0.01514-0.01154 0-0.01745-0.0096-0.01745-0.02956 0-0.01651 0.0026-0.03854 0.0077-0.06562l0.03621-0.18894h-0.01681l-0.02327 0.01514c-0.01738-0.01421-0.03814-0.02163-0.06207-0.02163zm-0.85223 6.97e-4c-0.03564 0-0.06776 0.02632-0.09635 0.07933h-0.0052l0.01422-0.07428h-0.09764l-0.0045 0.02452h0.0039c0.02462 0 0.03685 0.0095 0.03685 0.02812 0 0.0067-5.05e-4 0.01574-0.0026 0.02668l-0.04462 0.23726h0.04914l0.02846-0.15144c0.0058-0.02939 0.01895-0.05841 0.03944-0.08798 0.02066-0.02957 0.04116-0.04471 0.06078-0.04471 0.01619 0 0.02393 0.0121 0.02393 0.03533 0 0.01287-0.0026 0.031-0.0077 0.05481l-0.01228 0.06129c-0.0067 0.03514-0.0097 0.06127-0.0097 0.07932s0.0043 0.0327 0.01293 0.04327c0.0088 0.01056 0.02028 0.01586 0.03492 0.01586 0.01998 0 0.04158-0.01162 0.06466-0.0339l-0.0097-0.01731c-0.0124 9e-3 -0.02346 0.0137-0.03363 0.0137-0.0124 0-0.01875-0.0093-0.01875-0.02812 0-0.01767 0.0024-0.0384 0.0071-0.06202l0.01358-0.06923c0.0064-0.03073 0.0097-0.05242 0.0097-0.0649 0-0.04359-0.0192-0.06562-0.0569-0.06562zm1.1982 0c-0.03564 0-0.06776 0.02632-0.09635 0.07933h-0.0052l0.01422-0.07428h-0.09829l-0.0045 0.02452h0.0039c0.02462 0 0.03751 0.0095 0.03751 0.02812 0 0.0067-0.0011 0.01574-0.0032 0.02668l-0.04462 0.23726h0.04914l0.02846-0.15144c0.0058-0.02939 0.01895-0.05841 0.03943-0.08798 0.02066-0.02957 0.04116-0.04471 0.06078-0.04471 0.01618 0 0.02392 0.0121 0.02392 0.03533 0 0.01287-0.0026 0.031-0.0077 0.05481l-0.01164 0.06129c-0.0067 0.03514-0.01032 0.06127-0.01032 0.07932s0.0043 0.0327 0.01293 0.04327c0.0088 0.01056 0.02028 0.01586 0.03492 0.01586 0.01998 0 0.04159-0.01162 0.06466-0.0339l-0.0097-0.01731c-0.0124 9e-3 -0.02347 0.0137-0.03363 0.0137-0.0124 0-0.01876-0.0093-0.01876-0.02812 0-0.01767 0.0024-0.0384 0.0071-0.06202l0.01358-0.06923c0.0064-0.03073 0.0097-0.05242 0.0097-0.0649 0-0.04359-0.01854-0.06562-0.05625-0.06562zm0.67247 0c-0.03564 0-0.06775 0.02632-0.09635 0.07933h-0.0052l0.01422-0.07428h-0.09829l-0.0045 0.02452h0.0045c0.02462 0 0.03685 0.0095 0.03685 0.02812 0 0.0067-0.0011 0.01574-0.0032 0.02668l-0.04462 0.23726h0.04914l0.02846-0.15144c0.0058-0.02939 0.01959-0.05841 0.04009-0.08798 0.02066-0.02957 0.0405-0.04471 0.06013-0.04471 0.01618 0 0.02457 0.0121 0.02457 0.03533 0 0.01287-0.0026 0.031-0.0077 0.05481l-0.01229 0.06129c-0.0067 0.03514-0.01032 0.06127-0.01032 0.07932s0.0043 0.0327 0.01293 0.04327c0.0088 0.01056 0.02093 0.01586 0.03556 0.01586 0.01997 0 0.04094-0.01162 0.06401-0.0339l-0.0091-0.01731c-0.0124 9e-3 -0.02411 0.0137-0.03426 0.0137-0.0124 0-0.0181-0.0093-0.0181-0.02812 0-0.01767 0.0018-0.0384 0.0065-0.06202l0.01358-0.06995c0.0064-0.03072 0.0097-0.0517 0.0097-0.06418 0-0.04359-0.01854-0.06563-0.05626-0.06563zm-0.34335 5e-3 -0.0045 0.02452h0.0071c0.02152 0 0.03234 0.0087 0.03234 0.02524 0 0.0041-7.5e-4 0.0088-2e-3 0.01514l-0.02069 0.10889c-0.0079 0.04416-0.01164 0.07464-0.01164 0.0923 0 0.01613 0.0042 0.02983 0.01228 0.04039 0.0081 0.01056 0.0186 0.01586 0.03168 0.01586 0.02324 0 0.04733-0.01191 0.07177-0.03534l-0.0097-0.01731c-0.01515 0.01015-0.02799 0.01514-0.03814 0.01514-0.01171 0-0.01747-0.0096-0.01747-0.02956 0-0.01536 0.0024-0.03739 0.0077-0.06562l0.03621-0.18966zm-0.67182 0.02092c0.0186 0 0.03135 0.0067 0.03944 0.02091l-0.01939 0.10457c-0.0062 0.03437-0.01887 0.06619-0.03815 0.09519-0.01929 0.029-0.03805 0.04327-0.05561 0.04327-0.02221 0-0.03297-0.02228-0.03297-0.06779 0-0.04513 0.01012-0.08934 0.03039-0.13197 0.02049-0.04282 0.04617-0.06418 0.0763-0.06418zm1.2842 6.97e-4c0.02428 0 0.03621 0.01605 0.03621 0.04832 0 0.0265-0.0064 0.05109-0.01875 0.07356-0.01223 0.02228-0.02835 0.03317-0.0485 0.03317-0.02444 0-0.03685-0.01605-0.03685-0.04832 0-0.02611 6e-3 -0.05037 0.0181-0.07284 0.01223-0.02266 0.02912-0.0339 0.04979-0.0339zm-0.07823 0.28774 0.05108 5e-3c0.03289 0.0032 0.04979 0.01825 0.04979 0.04398 0 0.0217-0.0082 0.03853-0.02457 0.05119-0.01618 0.01287-0.04013 0.01947-0.07112 0.01947-0.04976 0-0.07436-0.01702-0.07436-0.05119 0-0.01594 0.0045-0.02944 0.01358-0.04038 0.0092-0.01094 0.01976-0.01831 0.03233-0.02235 0.01274-0.0041 0.0207-6e-3 0.02328-0.0058zm-0.62139 0.29639c-0.0096 0-0.01742 0.0039-0.02328 0.01154-0.0057 0.0075-0.0084 0.01781-0.0084 0.03029 0 0.02151 0.0099 0.03173 0.02975 0.03173 0.0093 0 0.01678-0.0032 0.02263-0.01005 6e-3 -0.0071 0.0091-0.01756 0.0091-0.03101 0-0.0217-0.0099-0.03245-0.02975-0.03245zm-1.2952 6.97e-4 -0.0052 0.02524h0.0065c0.0248 0 0.03751 9e-3 0.03751 0.02741 0 6e-3 -0.0017 0.01497-0.0039 0.02668l-0.04268 0.22644c-0.0077 0.04321-0.01164 0.07367-0.01164 0.0923 0 0.01651 0.0035 0.03001 0.01164 0.04039 0.0082 0.01036 0.01895 0.01586 0.03168 0.01586 0.02324 0 0.04733-0.01191 0.07177-0.03534l-0.0097-0.01731c-0.01515 0.01015-0.02799 0.01514-0.03814 0.01514-0.01171 0-0.01747-0.0096-0.01747-0.02956 0-0.01555 3e-3 -0.03758 0.0084-0.06562l0.06078-0.32163zm1.9443 0-0.0045 0.02524h0.0058c0.02479 0 0.03751 9e-3 0.03751 0.02741 0 6e-3 -1e-3 0.01497-0.0032 0.02668l-0.04331 0.22644c-0.0077 0.04321-0.01164 0.07367-0.01164 0.0923 0 0.01651 0.0042 0.03001 0.01228 0.04039 0.0082 0.01036 0.01895 0.01586 0.03168 0.01586 0.02324 0 0.04668-0.01191 0.07112-0.03534l-0.0097-0.01731c-0.01515 0.01015-0.02735 0.01514-0.03751 0.01514-0.01171 0-0.01747-0.0096-0.01747-0.02956 0-0.01555 0.0024-0.03758 0.0077-0.06562l0.06143-0.32163zm-2.3924 0.02092c-0.06199 0-0.11416 0.02767-0.15583 0.08221-0.04167 0.05435-0.06207 0.11876-0.06207 0.19327 0 0.05032 0.01249 0.08936 0.03814 0.11683 0.02583 0.02746 0.06201 0.04111 0.10798 0.04111 0.03444 0 0.0612-0.0077 0.08082-0.02236 0.01963-0.01479 0.02975-0.03166 0.02975-0.05048 0-0.0094-0.0024-0.0158-0.0071-0.01947-0.02445 0.03573-0.05747 0.05408-0.09829 0.05408-0.06268 0-0.09376-0.03679-0.09376-0.11034 0-0.06279 0.01469-0.12099 0.04397-0.1738 0.02945-0.05301 0.06571-0.07932 0.10928-0.07932 0.03513 0 0.05302 0.02665 0.05302 0.08005 0.01567 0 0.02803-4e-3 0.03751-0.01227 0.0095-0.0083 0.01422-0.01987 0.01422-0.03389 0-0.02017-0.0087-0.03589-0.02587-0.0476-0.01722-0.01191-0.04096-0.01802-0.07177-0.01802zm1.3081 0.0065-0.0045 0.02452h0.0065c0.02548 0 0.03815 0.0081 0.03815 0.0238 0 0.0037-5.67e-4 0.0093-2e-3 0.01659l-0.05496 0.28918c-0.0053 0.02822-0.02246 0.04183-0.05173 0.04183h-0.0071l-0.0045 0.02524h0.16682c0.06422 0 0.1155-0.02512 0.15389-0.07428 0.03839-0.04935 0.05755-0.1115 0.05755-0.18678 0-0.05147-0.01281-0.09062-0.0388-0.11827-0.02601-0.02785-0.06318-0.04183-0.11122-0.04183zm0.09829 0.02884h0.04203c0.06698 0 0.10023 0.0418 0.10023 0.12476 0 0.07106-0.01483 0.12876-0.04462 0.17235-0.02961 0.04359-0.06995 0.06491-0.12092 0.06491h-0.04591zm-1.14 0.06995c-0.04701 0-0.08535 0.02121-0.11445 0.06346-0.02892 0.04206-0.04332 0.08978-0.04332 0.14279 0 0.03822 0.0093 0.06792 0.02716 0.08942 0.0179 0.02151 0.04251 0.03245 0.07436 0.03245 0.04683 0 0.08504-0.02121 0.1138-0.06346 0.02876-0.04244 0.04268-0.09036 0.04268-0.14279 0-0.03956-0.0087-0.06921-0.02651-0.09015-0.0179-0.02093-0.04254-0.03173-0.07371-0.03173zm0.46426 0c-0.04701 0-0.0847 0.02121-0.1138 0.06346-0.02893 0.04206-0.04333 0.08978-0.04333 0.14279 0 0.03822 0.0087 0.06792 0.02651 0.08942 0.0179 0.02151 0.04315 0.03245 0.075 0.03245 0.04683 0 0.0844-0.02121 0.11316-0.06346 0.02876-0.04244 0.04331-0.09036 0.04331-0.14279 0-0.03956-0.0093-0.06921-0.02715-0.09015-0.0179-0.02093-0.04254-0.03173-0.07371-0.03173zm0.33042 0c-0.01826 0-0.03408 0.0061-0.04785 0.01875-0.01377 0.01267-0.0279 0.03697-0.04203 0.07212h-0.0052l0.01099-0.08509h-0.09311l-0.0052 0.02452h0.0045c0.02807 0 0.04203 0.0095 0.04203 0.02812 0 0.0067-0.0011 0.01574-0.0032 0.02667l-0.04462 0.23726h0.04979l0.01939-0.10745c0.0088-0.04531 0.02248-0.08596 0.04074-0.12187 0.01843-0.03592 0.03602-0.05408 0.05238-0.05408 0.01412 0 0.02133 0.01577 0.02133 0.04687 0.02927 0 0.04397-0.01548 0.04397-0.04543 0-0.02707-0.01505-0.04038-0.04397-0.04038zm1.1833 0c-0.03908 0-0.07151 0.02811-0.09699 0.08437h-0.0026l0.01293-0.0786h-0.09376l-0.0045 0.02452h0.0039c0.02462 0 0.03685 0.0095 0.03685 0.02812 0 0.0043-0.0015 0.01449-0.0045 0.03101l-0.07048 0.37427h0.09958l0.0045-0.02452h-0.0071c-0.02462 0-0.03685-0.0092-0.03685-0.02741 0-0.0055 0.0019-0.01685 0.0052-0.03317l0.0071-0.03606c0.0014-0.0064 3e-3 -0.01545 0.0045-0.02812 0.01428 9e-3 0.03158 0.0137 0.05173 0.0137 0.04615 0 0.08371-0.02415 0.11316-0.07139 0.02962-0.04743 0.04462-0.09719 0.04462-0.15 0-0.03457-0.0057-0.06109-0.01745-0.07933-0.01153-0.01824-0.02827-0.02741-0.04979-0.02741zm0.43129 0c-0.0446 0-0.08221 0.02295-0.11251 0.06923-0.03014 0.04628-0.04527 0.09656-0.04527 0.15072 0 0.03399 0.0063 0.06103 0.0181 0.08005 0.01205 0.01882 0.02891 0.02812 0.05044 0.02812 0.04064 0 0.07362-0.03201 0.09893-0.09519h0.0032c-0.0037 0.01805-0.0058 0.03368-0.0058 0.04615 0 0.03264 0.01383 0.04904 0.04139 0.04904 0.02445 0 0.0497-0.01191 0.075-0.03534l-0.0097-0.01731c-0.0155 0.01015-0.02816 0.01514-0.03814 0.01514-0.01154 0-0.01747-0.0096-0.01747-0.02956 0-0.01651 0.0026-0.03854 0.0077-0.06562l0.03621-0.18894h-0.01681l-0.02328 0.01514c-0.01739-0.0142-0.03814-0.02163-0.06207-0.02163zm-0.7436 6.96e-4c-0.03031 0-0.05477 8e-3 -0.07371 0.02452-0.01877 0.01633-0.02846 0.03773-0.02846 0.06346 0 0.01882 0.0043 0.03535 0.01293 0.04975 0.0088 0.0142 0.02642 0.02766 0.05173 0.0411 0.01946 0.0099 0.03265 0.0205 0.04074 0.03029 0.0081 0.0096 0.01228 0.02132 0.01228 0.03533 0 0.03649-0.01885 0.05481-0.0569 0.05481-0.01911 0-0.03394-0.0068-0.04462-0.02019-0.0105-0.01364-0.01616-0.03258-0.01616-0.05697-0.0096 0-0.01756 0.0026-0.02393 0.0094-0.0062 0.0066-0.0091 0.01617-0.0091 0.02884 0 0.02036 0.0076 0.03694 0.02327 0.04904 0.01584 0.01191 0.03732 0.01802 0.06401 0.01802 0.03305 0 0.05956-0.0088 0.07953-0.02668 0.01998-0.01786 0.02975-0.04167 0.02975-0.07067 0-0.03994-0.02101-0.07046-0.06337-0.09158-0.01843-9e-3 -0.03196-0.01819-0.04074-0.02741-0.0088-0.0092-0.01293-0.02011-0.01293-0.03317 0-0.01479 0.0045-0.02737 0.01358-0.03678 0.0093-0.0096 0.02167-0.01442 0.03751-0.01442 0.01498 0 0.02665 0.0062 0.03492 0.01802 0.0084 0.01191 0.01293 0.02782 0.01293 0.0476 0.02653 0 0.03944-0.01239 0.03944-0.03678 0-0.01575-0.0073-0.0289-0.02198-0.03966-0.01446-0.01075-0.03478-0.01587-0.06078-0.01587zm1.0857 0c-0.0093 0-0.01704 0.0037-0.02392 0.01154-0.0069 0.0078-0.01032 0.01848-0.01032 0.03173 0.01738 0 0.02587 0.01114 0.02587 0.03245 0 0.04973-0.02343 0.11458-0.07112 0.19543h-2e-3c-0.0021-0.02189-0.0093-0.05738-0.02198-0.10673l-0.04139-0.15937h-0.07695l-0.0045 0.02452h0.0058c0.0105 0 0.01793 0.0024 0.02327 0.0072 0.0054 0.0046 0.0098 0.013 0.01293 0.02452l0.06983 0.26105c-0.04856 0.07163-0.09827 0.10745-0.14872 0.10745-0.01515 0-0.02898-0.0028-0.04138-0.0072l-0.0077 0.02956c0.01464 0.0071 0.0312 0.01081 0.04979 0.01081 0.04683 0 0.08457-0.01359 0.11316-0.04183 0.02876-0.02822 0.06692-0.08579 0.11445-0.17163 0.04753-0.08603 0.07112-0.15232 0.07112-0.19976 0-0.03304-0.01227-0.04975-0.03621-0.04975zm-1.3572 5e-3 -0.0052 0.02452 0.0071 6.97e-4c0.02152 0 0.03233 8e-3 0.03233 0.02452 0 0.0041-7.5e-4 0.0088-2e-3 0.01514l-0.02004 0.10889c-0.0079 0.04417-0.01228 0.07464-0.01228 0.0923 0 0.01613 0.0042 0.02983 0.01228 0.04038 0.0081 0.01056 0.0186 0.01587 0.03168 0.01587 0.02324 0 0.04733-0.01191 0.07177-0.03534l-0.0097-0.01731c-0.01515 0.01015-0.02799 0.01514-0.03814 0.01514-0.01171 0-0.01745-0.0096-0.01745-0.02956 0-0.01536 3e-3 -0.03739 0.0084-0.06563l0.03556-0.18966zm1.0178 0.02092c0.0186 0 0.03199 0.0067 0.04009 0.02091l-0.01939 0.10457c-0.0062 0.03438-0.01886 0.06619-0.03814 0.09519-0.01929 0.029-0.03804 0.04327-0.05561 0.04327-0.02221 0-0.03297-0.02228-0.03297-0.06779 0-0.04513 0.01011-0.08934 0.03038-0.13197 0.02049-0.04282 0.04553-0.06418 0.07565-0.06418zm-2.4183 0.0043c0.03444 0 0.05173 0.02748 0.05173 0.08221 0 0.04685-0.0084 0.08976-0.02587 0.12836-0.01722 0.03841-0.04074 0.05769-0.06983 0.05769-0.03495 0-0.05238-0.02734-0.05238-0.08149 0-0.04724 0.0088-0.08976 0.02651-0.12836 0.01774-0.0386 0.04107-0.05841 0.06983-0.05841zm0.46491 0c0.03444 0 0.05173 0.02748 0.05173 0.08221 0 0.04685-0.0091 0.08976-0.02651 0.12836-0.01722 0.03841-0.04008 0.05769-0.06918 0.05769-0.03495 0-0.05238-0.02734-0.05238-0.08149 0-0.04724 0.0088-0.08976 0.02651-0.12836 0.01774-0.0386 0.04107-0.05841 0.06983-0.05841zm1.4995 0.0065c0.02221 0 0.03363 0.02262 0.03363 0.0685 0 0.04436-0.01054 0.08823-0.03104 0.13125-0.02031 0.04282-0.04492 0.06418-0.07436 0.06418-0.01653 0-0.03067-0.0069-0.04203-0.02091l0.02133-0.1125c6e-3 -0.03054 0.0189-0.05974 0.03751-0.08798 0.0186-0.02842 0.03671-0.04254 0.05496-0.04254z" stroke-miterlimit="3.6" stroke-opacity=".5" stroke-width=".381" style="mix-blend-mode:normal;paint-order:fill markers stroke"/><rect x="54.632" y="12.573" width="1.3243" height="1.0066" rx="1.175e-17" ry="1.3219e-17" fill="#800" style="mix-blend-mode:normal;paint-order:fill markers stroke"/><rect x="55.956" y="12.573" width="1.3243" height="1.0066" rx="1.175e-17" ry="1.3219e-17" fill="#061" style="mix-blend-mode:normal;paint-order:fill markers stroke"/><rect x="57.281" y="12.573" width="1.3243" height="1.0066" rx="1.175e-17" ry="1.3219e-17" fill="#039" style="mix-blend-mode:normal;paint-order:fill markers stroke"/></g></g><rect transform="rotate(45)" x="52.351" y="-23.952" width="1.115" height=".83627" rx="7.7371e-18" ry="7.7371e-18" fill="url(#n)" style="paint-order:fill markers stroke"/><circle cx="53.658" cy="20.377" r="1.3938" fill="url(#o)" style="mix-blend-mode:normal;paint-order:stroke markers fill"/><ellipse cx="53.658" cy="20.377" rx=".41814" ry=".41814" fill="url(#r)" style="mix-blend-mode:normal;paint-order:stroke markers fill"/><g transform="matrix(1.0104 0 0 .99693 -.93379 7.2635)"><path id="d" d="m56.346 24.344-1.5435 1.5435 0.14032-0.14032-1.8099-1.6219 1.684-1.684z" fill="url(#l)" stroke-miterlimit="3.6" stroke-width=".26458" style="paint-order:stroke fill markers"/><circle id="h" cx="53.975" cy="23.283" r="1.1906" fill="url(#k)" stroke="url(#z)" stroke-miterlimit="3.6" stroke-width=".26458" style="paint-order:stroke fill markers"/><circle id="g" cx="54.24" cy="23.548" r=".92604" fill="#847c6a" stroke="url(#y)" stroke-miterlimit="3.6" stroke-width=".26458" style="paint-order:stroke markers fill"/><g transform="translate(0 -2.6495e-5)"><circle cx="54.24" cy="23.548" r=".49609" fill="none" stroke="#2d2b24" stroke-linecap="round" stroke-miterlimit="3.3" stroke-width=".066146" style="paint-order:normal"/><path id="b" d="m54.24 22.787v0.13229" fill="none" stroke="#2d2b24" stroke-linecap="round" stroke-miterlimit="3.3" stroke-width=".066146" style="paint-order:normal"/><use transform="rotate(45 54.24 23.548)" xlink:href="#b"/><use transform="rotate(90 54.24 23.548)" xlink:href="#b"/><use transform="rotate(135 54.24 23.548)" xlink:href="#b"/><use transform="rotate(180 54.24 23.548)" xlink:href="#b"/><use transform="rotate(225 54.24 23.548)" xlink:href="#b"/><use transform="rotate(-90 54.24 23.548)" xlink:href="#b"/><use transform="rotate(-45 54.24 23.548)" xlink:href="#b"/></g></g><g transform="matrix(1.0104 0 0 .99693 -.93379 3.5707)"><use transform="translate(2.8797e-7 2.4968e-5)" xlink:href="#d"/><use transform="translate(2.8797e-7 2.4968e-5)" xlink:href="#h"/><use transform="translate(2.8797e-7 2.4968e-5)" xlink:href="#g"/><g transform="translate(.0041313 -.037235)" stroke="#2d2b24" stroke-linecap="round" stroke-miterlimit="3.3" stroke-width=".066146"><ellipse cx="54.235" cy="23.585" rx=".69867" ry=".69867" fill="none" style="paint-order:stroke fill markers"/><path d="m54.729 24.079a0.69867 0.69867 0 0 1-0.98806 0 0.69867 0.69867 0 0 1 0-0.98806l0.49403 0.49403z" fill="#2d2b24" style="paint-order:normal"/></g></g><g transform="matrix(1.0104 0 0 .99693 -.93379 -.12205)"><use transform="translate(2.8797e-7 2.3506e-5)" xlink:href="#d"/><use transform="translate(2.8797e-7 2.3506e-5)" xlink:href="#h"/><use transform="translate(2.8797e-7 2.3506e-5)" xlink:href="#g"/><g transform="translate(-.037599 .0075795)" fill="none" stroke="#2d2b24" stroke-miterlimit="3.3"><path d="m53.868 24.023c0.29272 0.19722 0.56302 0.1815 0.82269 0.0041" marker-end="url(#au)" marker-start="url(#au)" stroke-width=".066146" style="paint-order:stroke fill markers"/><path d="m53.645 23.372v0.33073" stroke-linecap="round" stroke-width=".066146" style="paint-order:stroke fill markers"/><circle cx="54.943" cy="23.538" r=".16536" stroke-linecap="round" stroke-width=".066146" style="paint-order:stroke fill markers"/></g></g></g></svg>
